solid OpenSCAD_Model
  facet normal 0.995755 -0.0920383 0
    outer loop
      vertex 170.99 14.826 0
      vertex 171.233 17.455 0
      vertex 171.233 17.455 10
    endloop
  endfacet
  facet normal 0.995755 -0.0920383 0
    outer loop
      vertex 170.99 14.826 10
      vertex 170.99 14.826 0
      vertex 171.233 17.455 10
    endloop
  endfacet
  facet normal 0.908815 -0.4172 0
    outer loop
      vertex 171.233 17.455 0
      vertex 172.102 19.348 0
      vertex 172.102 19.348 10
    endloop
  endfacet
  facet normal 0.908815 -0.4172 0
    outer loop
      vertex 171.233 17.455 10
      vertex 171.233 17.455 0
      vertex 172.102 19.348 10
    endloop
  endfacet
  facet normal 0 0 -1
    outer loop
      vertex 154.634 20.597 0
      vertex 155.19 23.951 0
      vertex 154.361 17.217 0
    endloop
  endfacet
  facet normal 0 0 -1
    outer loop
      vertex 154.361 17.217 0
      vertex 155.19 23.951 0
      vertex 155.989 27.26 0
    endloop
  endfacet
  facet normal 0 0 -1
    outer loop
      vertex 154.361 17.217 0
      vertex 155.989 27.26 0
      vertex 156.99 30.51 0
    endloop
  endfacet
  facet normal 0 0 -1
    outer loop
      vertex 154.361 17.217 0
      vertex 156.99 30.51 0
      vertex 158.347 32.835 0
    endloop
  endfacet
  facet normal 0 0 -1
    outer loop
      vertex 154.361 17.217 0
      vertex 158.347 32.835 0
      vertex 159.609 35.208 0
    endloop
  endfacet
  facet normal 0 0 -1
    outer loop
      vertex 159.609 35.208 0
      vertex 160.761 37.633 0
      vertex 154.361 17.217 0
    endloop
  endfacet
  facet normal 0 0 -1
    outer loop
      vertex 160.761 37.633 0
      vertex 161.788 40.115 0
      vertex 154.361 17.217 0
    endloop
  endfacet
  facet normal 0 0 -1
    outer loop
      vertex 154.361 17.217 0
      vertex 161.788 40.115 0
      vertex 163.455 42.564 0
    endloop
  endfacet
  facet normal 0 0 -1
    outer loop
      vertex 154.361 17.217 0
      vertex 163.455 42.564 0
      vertex 165.387 44.815 0
    endloop
  endfacet
  facet normal 0 0 -1
    outer loop
      vertex 154.361 17.217 0
      vertex 165.387 44.815 0
      vertex 167.33 47.059 0
    endloop
  endfacet
  facet normal 0 0 -1
    outer loop
      vertex 154.361 17.217 0
      vertex 167.33 47.059 0
      vertex 169.029 49.486 0
    endloop
  endfacet
  facet normal 0 0 -1
    outer loop
      vertex 154.361 17.217 0
      vertex 169.029 49.486 0
      vertex 170.823 51.214 0
    endloop
  endfacet
  facet normal 0 0 -1
    outer loop
      vertex 154.361 17.217 0
      vertex 170.823 51.214 0
      vertex 172.632 52.931 0
    endloop
  endfacet
  facet normal 0 0 -1
    outer loop
      vertex 154.361 17.217 0
      vertex 172.632 52.931 0
      vertex 174.487 54.61 0
    endloop
  endfacet
  facet normal 0 0 -1
    outer loop
      vertex 154.361 17.217 0
      vertex 174.487 54.61 0
      vertex 176.425 56.224 0
    endloop
  endfacet
  facet normal 0 0 -1
    outer loop
      vertex 154.361 17.217 0
      vertex 176.425 56.224 0
      vertex 178.562 57.678 0
    endloop
  endfacet
  facet normal 0 0 -1
    outer loop
      vertex 154.361 17.217 0
      vertex 178.562 57.678 0
      vertex 180.857 58.853 0
    endloop
  endfacet
  facet normal 0 0 -1
    outer loop
      vertex 154.361 17.217 0
      vertex 180.857 58.853 0
      vertex 183.252 59.814 0
    endloop
  endfacet
  facet normal 0 0 -1
    outer loop
      vertex 154.361 17.217 0
      vertex 183.252 59.814 0
      vertex 185.693 60.627 0
    endloop
  endfacet
  facet normal 0 0 -1
    outer loop
      vertex 154.361 17.217 0
      vertex 185.693 60.627 0
      vertex 189.936 61.967 0
    endloop
  endfacet
  facet normal 0 0 -1
    outer loop
      vertex 154.361 17.217 0
      vertex 189.936 61.967 0
      vertex 194.356 62.322 0
    endloop
  endfacet
  facet normal 0 0 -1
    outer loop
      vertex 154.361 17.217 0
      vertex 194.356 62.322 0
      vertex 198.838 62.106 0
    endloop
  endfacet
  facet normal 0 0 -1
    outer loop
      vertex 154.361 17.217 0
      vertex 198.838 62.106 0
      vertex 203.269 61.732 0
    endloop
  endfacet
  facet normal 0 0 -1
    outer loop
      vertex 193.413 51.218 0
      vertex 203.269 61.732 0
      vertex 205.187 60.996 0
    endloop
  endfacet
  facet normal 0 0 -1
    outer loop
      vertex 197.473 54.059 0
      vertex 205.187 60.996 0
      vertex 207.016 60.019 0
    endloop
  endfacet
  facet normal 0 0 -1
    outer loop
      vertex 202.103 55.841 0
      vertex 207.016 60.019 0
      vertex 208.715 58.834 0
    endloop
  endfacet
  facet normal 0 0 -1
    outer loop
      vertex 206.779 55.575 0
      vertex 208.715 58.834 0
      vertex 210.242 57.478 0
    endloop
  endfacet
  facet normal 0 0 -1
    outer loop
      vertex 207.195 52.063 0
      vertex 210.854 56.46 0
      vertex 212.068 54.414 0
    endloop
  endfacet
  facet normal 0 0 -1
    outer loop
      vertex 206.255 48.701 0
      vertex 212.682 53.396 0
      vertex 212.048 51.199 0
    endloop
  endfacet
  facet normal 0 0 -1
    outer loop
      vertex 207.195 52.063 0
      vertex 212.682 53.396 0
      vertex 206.255 48.701 0
    endloop
  endfacet
  facet normal 0 0 -1
    outer loop
      vertex 204.107 44.533 0
      vertex 211.577 48.954 0
      vertex 210.964 46.761 0
    endloop
  endfacet
  facet normal 0 0 -1
    outer loop
      vertex 200.948 41.125 0
      vertex 210.964 46.761 0
      vertex 209.901 44.721 0
    endloop
  endfacet
  facet normal 0 0 -1
    outer loop
      vertex 197.424 37.965 0
      vertex 209.901 44.721 0
      vertex 208.827 43.005 0
    endloop
  endfacet
  facet normal 0 0 -1
    outer loop
      vertex 193.721 35.025 0
      vertex 207.527 41.459 0
      vertex 206.092 40.021 0
    endloop
  endfacet
  facet normal 0 0 -1
    outer loop
      vertex 186.009 30.051 0
      vertex 204.61 38.627 0
      vertex 198.881 34.315 0
    endloop
  endfacet
  facet normal 0 0 -1
    outer loop
      vertex 175.165 24.445 0
      vertex 198.881 34.315 0
      vertex 192.764 30.382 0
    endloop
  endfacet
  facet normal 0 0 -1
    outer loop
      vertex 154.361 17.217 0
      vertex 192.764 30.382 0
      vertex 186.53 26.986 0
    endloop
  endfacet
  facet normal 0 0 -1
    outer loop
      vertex 154.361 17.217 0
      vertex 186.53 26.986 0
      vertex 182.367 25.032 0
    endloop
  endfacet
  facet normal 0 0 -1
    outer loop
      vertex 154.361 17.217 0
      vertex 182.367 25.032 0
      vertex 180.569 24.316 0
    endloop
  endfacet
  facet normal 0 0 -1
    outer loop
      vertex 154.361 17.217 0
      vertex 180.569 24.316 0
      vertex 178.145 23.27 0
    endloop
  endfacet
  facet normal 0 0 -1
    outer loop
      vertex 178.145 23.27 0
      vertex 175.955 22.153 0
      vertex 154.361 17.217 0
    endloop
  endfacet
  facet normal 0 0 -1
    outer loop
      vertex 175.955 22.153 0
      vertex 173.899 20.851 0
      vertex 154.361 17.217 0
    endloop
  endfacet
  facet normal 0 0 -1
    outer loop
      vertex 173.899 20.851 0
      vertex 172.102 19.348 0
      vertex 154.361 17.217 0
    endloop
  endfacet
  facet normal 0 0 -1
    outer loop
      vertex 172.102 19.348 0
      vertex 171.233 17.455 0
      vertex 154.361 17.217 0
    endloop
  endfacet
  facet normal 0 0 -1
    outer loop
      vertex 171.233 17.455 0
      vertex 170.99 14.826 0
      vertex 154.361 17.217 0
    endloop
  endfacet
  facet normal 0 0 -1
    outer loop
      vertex 170.99 14.826 0
      vertex 171.071 11.116 0
      vertex 154.361 17.217 0
    endloop
  endfacet
  facet normal 0 0 -1
    outer loop
      vertex 171.071 11.116 0
      vertex 172.146 9.349 0
      vertex 154.361 17.217 0
    endloop
  endfacet
  facet normal 0 0 -1
    outer loop
      vertex 172.146 9.349 0
      vertex 173.403 7.718 0
      vertex 154.361 17.217 0
    endloop
  endfacet
  facet normal 0 0 -1
    outer loop
      vertex 173.403 7.718 0
      vertex 174.951 6.481 0
      vertex 154.361 17.217 0
    endloop
  endfacet
  facet normal 0 0 -1
    outer loop
      vertex 209.868 25.57 0
      vertex 211.366 27.277 0
      vertex 212.95 28.903 0
    endloop
  endfacet
  facet normal 0 0 -1
    outer loop
      vertex 209.868 25.57 0
      vertex 212.95 28.903 0
      vertex 214.72 30.156 0
    endloop
  endfacet
  facet normal 0 0 -1
    outer loop
      vertex 209.868 25.57 0
      vertex 214.72 30.156 0
      vertex 206.899 22.575 0
    endloop
  endfacet
  facet normal 0 0 -1
    outer loop
      vertex 206.899 22.575 0
      vertex 214.72 30.156 0
      vertex 216.777 30.745 0
    endloop
  endfacet
  facet normal 0 0 -1
    outer loop
      vertex 206.899 22.575 0
      vertex 216.777 30.745 0
      vertex 203.611 19.63 0
    endloop
  endfacet
  facet normal 0 0 -1
    outer loop
      vertex 203.611 19.63 0
      vertex 216.777 30.745 0
      vertex 217.237 30.859 0
    endloop
  endfacet
  facet normal 0 0 -1
    outer loop
      vertex 217.237 30.859 0
      vertex 217.526 30.995 0
      vertex 203.611 19.63 0
    endloop
  endfacet
  facet normal 0 0 -1
    outer loop
      vertex 203.611 19.63 0
      vertex 217.526 30.995 0
      vertex 217.658 30.925 0
    endloop
  endfacet
  facet normal 0 0 -1
    outer loop
      vertex 203.611 19.63 0
      vertex 217.658 30.925 0
      vertex 200.128 16.788 0
    endloop
  endfacet
  facet normal 0 0 -1
    outer loop
      vertex 200.128 16.788 0
      vertex 217.658 30.925 0
      vertex 217.646 30.421 0
    endloop
  endfacet
  facet normal 0 0 -1
    outer loop
      vertex 200.128 16.788 0
      vertex 217.646 30.421 0
      vertex 216.721 29.106 0
    endloop
  endfacet
  facet normal 0 0 -1
    outer loop
      vertex 200.128 16.788 0
      vertex 216.721 29.106 0
      vertex 196.572 14.104 0
    endloop
  endfacet
  facet normal 0 0 -1
    outer loop
      vertex 196.572 14.104 0
      vertex 216.721 29.106 0
      vertex 216.004 27.702 0
    endloop
  endfacet
  facet normal 0 0 -1
    outer loop
      vertex 196.572 14.104 0
      vertex 216.004 27.702 0
      vertex 215.146 26.28 0
    endloop
  endfacet
  facet normal 0 0 -1
    outer loop
      vertex 196.572 14.104 0
      vertex 215.146 26.28 0
      vertex 192.267 11.244 0
    endloop
  endfacet
  facet normal 0 0 -1
    outer loop
      vertex 192.267 11.244 0
      vertex 215.146 26.28 0
      vertex 213.8 24.908 0
    endloop
  endfacet
  facet normal 0 0 -1
    outer loop
      vertex 192.267 11.244 0
      vertex 213.8 24.908 0
      vertex 210.604 21.675 0
    endloop
  endfacet
  facet normal 0 0 -1
    outer loop
      vertex 192.267 11.244 0
      vertex 210.604 21.675 0
      vertex 207.309 18.641 0
    endloop
  endfacet
  facet normal 0 0 -1
    outer loop
      vertex 192.267 11.244 0
      vertex 207.309 18.641 0
      vertex 187.559 8.873 0
    endloop
  endfacet
  facet normal 0 0 -1
    outer loop
      vertex 187.559 8.873 0
      vertex 207.309 18.641 0
      vertex 204.072 15.781 0
    endloop
  endfacet
  facet normal 0 0 -1
    outer loop
      vertex 187.559 8.873 0
      vertex 204.072 15.781 0
      vertex 201.05 13.07 0
    endloop
  endfacet
  facet normal 0 0 -1
    outer loop
      vertex 187.559 8.873 0
      vertex 201.05 13.07 0
      vertex 182.441 7.065 0
    endloop
  endfacet
  facet normal 0 0 -1
    outer loop
      vertex 201.05 13.07 0
      vertex 199.184 11.342 0
      vertex 182.441 7.065 0
    endloop
  endfacet
  facet normal 0 0 -1
    outer loop
      vertex 182.441 7.065 0
      vertex 199.184 11.342 0
      vertex 197.141 9.603 0
    endloop
  endfacet
  facet normal 0 0 -1
    outer loop
      vertex 182.441 7.065 0
      vertex 197.141 9.603 0
      vertex 176.902 5.894 0
    endloop
  endfacet
  facet normal 0 0 -1
    outer loop
      vertex 176.902 5.894 0
      vertex 197.141 9.603 0
      vertex 194.536 7.766 0
    endloop
  endfacet
  facet normal 0 0 -1
    outer loop
      vertex 176.902 5.894 0
      vertex 194.536 7.766 0
      vertex 192.333 6.439 0
    endloop
  endfacet
  facet normal 0 0 -1
    outer loop
      vertex 176.902 5.894 0
      vertex 192.333 6.439 0
      vertex 190.396 5.553 0
    endloop
  endfacet
  facet normal 0 0 -1
    outer loop
      vertex 176.902 5.894 0
      vertex 190.396 5.553 0
      vertex 187.02 4.152 0
    endloop
  endfacet
  facet normal 0 0 -1
    outer loop
      vertex 176.902 5.894 0
      vertex 187.02 4.152 0
      vertex 183.337 2.819 0
    endloop
  endfacet
  facet normal 0 0 -1
    outer loop
      vertex 176.902 5.894 0
      vertex 183.337 2.819 0
      vertex 174.951 6.481 0
    endloop
  endfacet
  facet normal 0 0 -1
    outer loop
      vertex 174.951 6.481 0
      vertex 183.337 2.819 0
      vertex 179.806 1.79 0
    endloop
  endfacet
  facet normal 0 0 -1
    outer loop
      vertex 174.951 6.481 0
      vertex 179.806 1.79 0
      vertex 154.361 17.217 0
    endloop
  endfacet
  facet normal 0 0 -1
    outer loop
      vertex 154.361 17.217 0
      vertex 179.806 1.79 0
      vertex 177.402 1.14 0
    endloop
  endfacet
  facet normal 0 0 -1
    outer loop
      vertex 154.361 17.217 0
      vertex 177.402 1.14 0
      vertex 174.942 0.619 0
    endloop
  endfacet
  facet normal 0 0 -1
    outer loop
      vertex 154.361 17.217 0
      vertex 174.942 0.619 0
      vertex 172.446 0.29 0
    endloop
  endfacet
  facet normal 0 0 -1
    outer loop
      vertex 154.361 17.217 0
      vertex 172.446 0.29 0
      vertex 169.938 0.215 0
    endloop
  endfacet
  facet normal 0 0 -1
    outer loop
      vertex 154.361 17.217 0
      vertex 169.938 0.215 0
      vertex 167.253 0.517 0
    endloop
  endfacet
  facet normal 0 0 -1
    outer loop
      vertex 154.361 17.217 0
      vertex 167.253 0.517 0
      vertex 164.797 1.569 0
    endloop
  endfacet
  facet normal 0 0 -1
    outer loop
      vertex 154.361 17.217 0
      vertex 164.797 1.569 0
      vertex 162.402 2.843 0
    endloop
  endfacet
  facet normal 0 0 -1
    outer loop
      vertex 154.361 17.217 0
      vertex 162.402 2.843 0
      vertex 159.899 3.811 0
    endloop
  endfacet
  facet normal 0 0 -1
    outer loop
      vertex 154.361 17.217 0
      vertex 159.899 3.811 0
      vertex 157.57 6.659 0
    endloop
  endfacet
  facet normal 0 0 -1
    outer loop
      vertex 154.361 17.217 0
      vertex 157.57 6.659 0
      vertex 156.011 9.989 0
    endloop
  endfacet
  facet normal 0 0 -1
    outer loop
      vertex 154.361 17.217 0
      vertex 156.011 9.989 0
      vertex 155.011 13.581 0
    endloop
  endfacet
  facet normal 0 0 -1
    outer loop
      vertex 193.721 35.025 0
      vertex 204.61 38.627 0
      vertex 190.031 32.298 0
    endloop
  endfacet
  facet normal 0 0 -1
    outer loop
      vertex 178.035 26.177 0
      vertex 198.881 34.315 0
      vertex 175.165 24.445 0
    endloop
  endfacet
  facet normal 0 0 -1
    outer loop
      vertex 154.361 17.217 0
      vertex 175.165 24.445 0
      vertex 192.764 30.382 0
    endloop
  endfacet
  facet normal 0 0 -1
    outer loop
      vertex 186.009 30.051 0
      vertex 198.881 34.315 0
      vertex 182.078 27.946 0
    endloop
  endfacet
  facet normal 0 0 -1
    outer loop
      vertex 190.031 32.298 0
      vertex 204.61 38.627 0
      vertex 186.009 30.051 0
    endloop
  endfacet
  facet normal 0 0 -1
    outer loop
      vertex 182.078 27.946 0
      vertex 198.881 34.315 0
      vertex 178.035 26.177 0
    endloop
  endfacet
  facet normal 0 0 -1
    outer loop
      vertex 175.165 24.445 0
      vertex 154.361 17.217 0
      vertex 173.809 25.079 0
    endloop
  endfacet
  facet normal 0 0 -1
    outer loop
      vertex 206.255 48.701 0
      vertex 212.048 51.199 0
      vertex 211.577 48.954 0
    endloop
  endfacet
  facet normal 0 0 -1
    outer loop
      vertex 207.195 52.063 0
      vertex 212.068 54.414 0
      vertex 212.682 53.396 0
    endloop
  endfacet
  facet normal 0 0 -1
    outer loop
      vertex 206.779 55.575 0
      vertex 210.242 57.478 0
      vertex 210.854 56.46 0
    endloop
  endfacet
  facet normal 0 0 -1
    outer loop
      vertex 202.103 55.841 0
      vertex 208.715 58.834 0
      vertex 206.779 55.575 0
    endloop
  endfacet
  facet normal 0 0 -1
    outer loop
      vertex 197.473 54.059 0
      vertex 207.016 60.019 0
      vertex 202.103 55.841 0
    endloop
  endfacet
  facet normal 0 0 -1
    outer loop
      vertex 193.413 51.218 0
      vertex 205.187 60.996 0
      vertex 197.473 54.059 0
    endloop
  endfacet
  facet normal 0 0 -1
    outer loop
      vertex 154.361 17.217 0
      vertex 203.269 61.732 0
      vertex 193.413 51.218 0
    endloop
  endfacet
  facet normal 0 0 -1
    outer loop
      vertex 186.725 44.004 0
      vertex 154.361 17.217 0
      vertex 190.448 48.311 0
    endloop
  endfacet
  facet normal 0 0 -1
    outer loop
      vertex 154.361 17.217 0
      vertex 193.413 51.218 0
      vertex 190.448 48.311 0
    endloop
  endfacet
  facet normal 0 0 -1
    outer loop
      vertex 183.033 39.675 0
      vertex 154.361 17.217 0
      vertex 184.776 41.941 0
    endloop
  endfacet
  facet normal 0 0 -1
    outer loop
      vertex 154.361 17.217 0
      vertex 186.725 44.004 0
      vertex 184.776 41.941 0
    endloop
  endfacet
  facet normal 0 0 -1
    outer loop
      vertex 180.259 35.877 0
      vertex 154.361 17.217 0
      vertex 183.033 39.675 0
    endloop
  endfacet
  facet normal 0 0 -1
    outer loop
      vertex 177.666 32.281 0
      vertex 154.361 17.217 0
      vertex 180.259 35.877 0
    endloop
  endfacet
  facet normal 0 0 -1
    outer loop
      vertex 175.575 28.64 0
      vertex 154.361 17.217 0
      vertex 177.666 32.281 0
    endloop
  endfacet
  facet normal 0 0 -1
    outer loop
      vertex 206.779 55.575 0
      vertex 210.854 56.46 0
      vertex 207.195 52.063 0
    endloop
  endfacet
  facet normal 0 0 -1
    outer loop
      vertex 173.809 25.079 0
      vertex 154.361 17.217 0
      vertex 175.575 28.64 0
    endloop
  endfacet
  facet normal 0 0 -1
    outer loop
      vertex 206.255 48.701 0
      vertex 211.577 48.954 0
      vertex 204.107 44.533 0
    endloop
  endfacet
  facet normal 0 0 -1
    outer loop
      vertex 204.107 44.533 0
      vertex 210.964 46.761 0
      vertex 200.948 41.125 0
    endloop
  endfacet
  facet normal 0 0 -1
    outer loop
      vertex 197.424 37.965 0
      vertex 208.827 43.005 0
      vertex 207.527 41.459 0
    endloop
  endfacet
  facet normal 0 0 -1
    outer loop
      vertex 200.948 41.125 0
      vertex 209.901 44.721 0
      vertex 197.424 37.965 0
    endloop
  endfacet
  facet normal 0 0 -1
    outer loop
      vertex 193.721 35.025 0
      vertex 206.092 40.021 0
      vertex 204.61 38.627 0
    endloop
  endfacet
  facet normal 0 0 -1
    outer loop
      vertex 197.424 37.965 0
      vertex 207.527 41.459 0
      vertex 193.721 35.025 0
    endloop
  endfacet
  facet normal 0.999762 0.0218277 0
    outer loop
      vertex 170.99 14.826 0
      vertex 170.99 14.826 10
      vertex 171.071 11.116 10
    endloop
  endfacet
  facet normal 0.999762 0.0218277 0
    outer loop
      vertex 171.071 11.116 0
      vertex 170.99 14.826 0
      vertex 171.071 11.116 10
    endloop
  endfacet
  facet normal 0 0 1
    outer loop
      vertex 154.361 17.217 10
      vertex 155.011 13.581 10
      vertex 156.011 9.989 10
    endloop
  endfacet
  facet normal 0 0 1
    outer loop
      vertex 159.899 3.811 10
      vertex 154.361 17.217 10
      vertex 157.57 6.659 10
    endloop
  endfacet
  facet normal 0 0 1
    outer loop
      vertex 157.57 6.659 10
      vertex 154.361 17.217 10
      vertex 156.011 9.989 10
    endloop
  endfacet
  facet normal 0 0 1
    outer loop
      vertex 162.402 2.843 10
      vertex 154.361 17.217 10
      vertex 159.899 3.811 10
    endloop
  endfacet
  facet normal 0 0 1
    outer loop
      vertex 164.797 1.569 10
      vertex 154.361 17.217 10
      vertex 162.402 2.843 10
    endloop
  endfacet
  facet normal 0 0 1
    outer loop
      vertex 167.253 0.517 10
      vertex 154.361 17.217 10
      vertex 164.797 1.569 10
    endloop
  endfacet
  facet normal 0 0 1
    outer loop
      vertex 169.938 0.215 10
      vertex 154.361 17.217 10
      vertex 167.253 0.517 10
    endloop
  endfacet
  facet normal 0 0 1
    outer loop
      vertex 172.446 0.29 10
      vertex 154.361 17.217 10
      vertex 169.938 0.215 10
    endloop
  endfacet
  facet normal 0 0 1
    outer loop
      vertex 174.942 0.619 10
      vertex 154.361 17.217 10
      vertex 172.446 0.29 10
    endloop
  endfacet
  facet normal 0 0 1
    outer loop
      vertex 177.402 1.14 10
      vertex 154.361 17.217 10
      vertex 174.942 0.619 10
    endloop
  endfacet
  facet normal 0 0 1
    outer loop
      vertex 179.806 1.79 10
      vertex 154.361 17.217 10
      vertex 177.402 1.14 10
    endloop
  endfacet
  facet normal 0 0 1
    outer loop
      vertex 174.951 6.481 10
      vertex 154.361 17.217 10
      vertex 179.806 1.79 10
    endloop
  endfacet
  facet normal 0 0 1
    outer loop
      vertex 173.899 20.851 10
      vertex 175.955 22.153 10
      vertex 154.361 17.217 10
    endloop
  endfacet
  facet normal 0 0 1
    outer loop
      vertex 172.146 9.349 10
      vertex 171.071 11.116 10
      vertex 154.361 17.217 10
    endloop
  endfacet
  facet normal 0 0 1
    outer loop
      vertex 187.559 8.873 10
      vertex 190.396 5.553 10
      vertex 192.333 6.439 10
    endloop
  endfacet
  facet normal 0 0 1
    outer loop
      vertex 187.559 8.873 10
      vertex 182.441 7.065 10
      vertex 190.396 5.553 10
    endloop
  endfacet
  facet normal 0 0 1
    outer loop
      vertex 192.267 11.244 10
      vertex 187.559 8.873 10
      vertex 194.536 7.766 10
    endloop
  endfacet
  facet normal 0 0 1
    outer loop
      vertex 196.572 14.104 10
      vertex 199.184 11.342 10
      vertex 201.05 13.07 10
    endloop
  endfacet
  facet normal 0 0 1
    outer loop
      vertex 203.611 19.63 10
      vertex 200.128 16.788 10
      vertex 207.309 18.641 10
    endloop
  endfacet
  facet normal 0 0 1
    outer loop
      vertex 196.572 14.104 10
      vertex 192.267 11.244 10
      vertex 199.184 11.342 10
    endloop
  endfacet
  facet normal 0 0 1
    outer loop
      vertex 209.868 25.57 10
      vertex 213.8 24.908 10
      vertex 215.146 26.28 10
    endloop
  endfacet
  facet normal 0 0 1
    outer loop
      vertex 214.72 30.156 10
      vertex 212.95 28.903 10
      vertex 217.646 30.421 10
    endloop
  endfacet
  facet normal 0 0 1
    outer loop
      vertex 182.078 27.946 10
      vertex 178.035 26.177 10
      vertex 198.881 34.315 10
    endloop
  endfacet
  facet normal 0 0 1
    outer loop
      vertex 217.526 30.995 10
      vertex 217.237 30.859 10
      vertex 217.658 30.925 10
    endloop
  endfacet
  facet normal 0 0 1
    outer loop
      vertex 217.237 30.859 10
      vertex 216.777 30.745 10
      vertex 217.658 30.925 10
    endloop
  endfacet
  facet normal 0 0 1
    outer loop
      vertex 217.658 30.925 10
      vertex 214.72 30.156 10
      vertex 217.646 30.421 10
    endloop
  endfacet
  facet normal 0 0 1
    outer loop
      vertex 193.721 35.025 10
      vertex 190.031 32.298 10
      vertex 204.61 38.627 10
    endloop
  endfacet
  facet normal 0 0 1
    outer loop
      vertex 217.646 30.421 10
      vertex 212.95 28.903 10
      vertex 216.721 29.106 10
    endloop
  endfacet
  facet normal 0 0 1
    outer loop
      vertex 216.721 29.106 10
      vertex 211.366 27.277 10
      vertex 216.004 27.702 10
    endloop
  endfacet
  facet normal 0 0 1
    outer loop
      vertex 216.004 27.702 10
      vertex 209.868 25.57 10
      vertex 215.146 26.28 10
    endloop
  endfacet
  facet normal 0 0 1
    outer loop
      vertex 213.8 24.908 10
      vertex 206.899 22.575 10
      vertex 210.604 21.675 10
    endloop
  endfacet
  facet normal 0 0 1
    outer loop
      vertex 210.604 21.675 10
      vertex 203.611 19.63 10
      vertex 207.309 18.641 10
    endloop
  endfacet
  facet normal 0 0 1
    outer loop
      vertex 172.102 19.348 10
      vertex 173.899 20.851 10
      vertex 154.361 17.217 10
    endloop
  endfacet
  facet normal 0 0 1
    outer loop
      vertex 207.309 18.641 10
      vertex 200.128 16.788 10
      vertex 204.072 15.781 10
    endloop
  endfacet
  facet normal 0 0 1
    outer loop
      vertex 204.072 15.781 10
      vertex 196.572 14.104 10
      vertex 201.05 13.07 10
    endloop
  endfacet
  facet normal 0 0 1
    outer loop
      vertex 171.233 17.455 10
      vertex 172.102 19.348 10
      vertex 154.361 17.217 10
    endloop
  endfacet
  facet normal 0 0 1
    outer loop
      vertex 199.184 11.342 10
      vertex 192.267 11.244 10
      vertex 197.141 9.603 10
    endloop
  endfacet
  facet normal 0 0 1
    outer loop
      vertex 194.536 7.766 10
      vertex 187.559 8.873 10
      vertex 192.333 6.439 10
    endloop
  endfacet
  facet normal 0 0 1
    outer loop
      vertex 170.99 14.826 10
      vertex 171.233 17.455 10
      vertex 154.361 17.217 10
    endloop
  endfacet
  facet normal 0 0 1
    outer loop
      vertex 190.396 5.553 10
      vertex 182.441 7.065 10
      vertex 187.02 4.152 10
    endloop
  endfacet
  facet normal 0 0 1
    outer loop
      vertex 173.403 7.718 10
      vertex 172.146 9.349 10
      vertex 154.361 17.217 10
    endloop
  endfacet
  facet normal 0 0 1
    outer loop
      vertex 183.337 2.819 10
      vertex 176.902 5.894 10
      vertex 179.806 1.79 10
    endloop
  endfacet
  facet normal 0 0 1
    outer loop
      vertex 176.902 5.894 10
      vertex 174.951 6.481 10
      vertex 179.806 1.79 10
    endloop
  endfacet
  facet normal 0 0 1
    outer loop
      vertex 174.951 6.481 10
      vertex 173.403 7.718 10
      vertex 154.361 17.217 10
    endloop
  endfacet
  facet normal 0 0 1
    outer loop
      vertex 171.071 11.116 10
      vertex 170.99 14.826 10
      vertex 154.361 17.217 10
    endloop
  endfacet
  facet normal 0 0 1
    outer loop
      vertex 193.721 35.025 10
      vertex 204.61 38.627 10
      vertex 206.092 40.021 10
    endloop
  endfacet
  facet normal 0 0 1
    outer loop
      vertex 192.267 11.244 10
      vertex 194.536 7.766 10
      vertex 197.141 9.603 10
    endloop
  endfacet
  facet normal 0 0 1
    outer loop
      vertex 200.128 16.788 10
      vertex 196.572 14.104 10
      vertex 204.072 15.781 10
    endloop
  endfacet
  facet normal 0 0 1
    outer loop
      vertex 206.899 22.575 10
      vertex 203.611 19.63 10
      vertex 210.604 21.675 10
    endloop
  endfacet
  facet normal 0 0 1
    outer loop
      vertex 211.366 27.277 10
      vertex 209.868 25.57 10
      vertex 216.004 27.702 10
    endloop
  endfacet
  facet normal 0 0 1
    outer loop
      vertex 178.145 23.27 10
      vertex 154.361 17.217 10
      vertex 175.955 22.153 10
    endloop
  endfacet
  facet normal 0 0 1
    outer loop
      vertex 180.569 24.316 10
      vertex 154.361 17.217 10
      vertex 178.145 23.27 10
    endloop
  endfacet
  facet normal 0 0 1
    outer loop
      vertex 182.367 25.032 10
      vertex 154.361 17.217 10
      vertex 180.569 24.316 10
    endloop
  endfacet
  facet normal 0 0 1
    outer loop
      vertex 186.53 26.986 10
      vertex 154.361 17.217 10
      vertex 182.367 25.032 10
    endloop
  endfacet
  facet normal 0 0 1
    outer loop
      vertex 192.764 30.382 10
      vertex 154.361 17.217 10
      vertex 186.53 26.986 10
    endloop
  endfacet
  facet normal 0 0 1
    outer loop
      vertex 175.165 24.445 10
      vertex 154.361 17.217 10
      vertex 192.764 30.382 10
    endloop
  endfacet
  facet normal 0 0 1
    outer loop
      vertex 197.424 37.965 10
      vertex 193.721 35.025 10
      vertex 207.527 41.459 10
    endloop
  endfacet
  facet normal 0 0 1
    outer loop
      vertex 175.575 28.64 10
      vertex 177.666 32.281 10
      vertex 154.361 17.217 10
    endloop
  endfacet
  facet normal 0 0 1
    outer loop
      vertex 204.107 44.533 10
      vertex 200.948 41.125 10
      vertex 210.964 46.761 10
    endloop
  endfacet
  facet normal 0 0 1
    outer loop
      vertex 197.473 54.059 10
      vertex 202.103 55.841 10
      vertex 207.016 60.019 10
    endloop
  endfacet
  facet normal 0 0 1
    outer loop
      vertex 197.473 54.059 10
      vertex 207.016 60.019 10
      vertex 205.187 60.996 10
    endloop
  endfacet
  facet normal 0 0 1
    outer loop
      vertex 207.195 52.063 10
      vertex 212.682 53.396 10
      vertex 212.068 54.414 10
    endloop
  endfacet
  facet normal 0 0 1
    outer loop
      vertex 207.195 52.063 10
      vertex 206.255 48.701 10
      vertex 212.682 53.396 10
    endloop
  endfacet
  facet normal 0 0 1
    outer loop
      vertex 180.259 35.877 10
      vertex 183.033 39.675 10
      vertex 154.361 17.217 10
    endloop
  endfacet
  facet normal 0 0 1
    outer loop
      vertex 198.838 62.106 10
      vertex 154.361 17.217 10
      vertex 203.269 61.732 10
    endloop
  endfacet
  facet normal 0 0 1
    outer loop
      vertex 194.356 62.322 10
      vertex 154.361 17.217 10
      vertex 198.838 62.106 10
    endloop
  endfacet
  facet normal 0 0 1
    outer loop
      vertex 189.936 61.967 10
      vertex 154.361 17.217 10
      vertex 194.356 62.322 10
    endloop
  endfacet
  facet normal 0 0 1
    outer loop
      vertex 185.693 60.627 10
      vertex 154.361 17.217 10
      vertex 189.936 61.967 10
    endloop
  endfacet
  facet normal 0 0 1
    outer loop
      vertex 183.252 59.814 10
      vertex 154.361 17.217 10
      vertex 185.693 60.627 10
    endloop
  endfacet
  facet normal 0 0 1
    outer loop
      vertex 180.857 58.853 10
      vertex 154.361 17.217 10
      vertex 183.252 59.814 10
    endloop
  endfacet
  facet normal 0 0 1
    outer loop
      vertex 178.562 57.678 10
      vertex 154.361 17.217 10
      vertex 180.857 58.853 10
    endloop
  endfacet
  facet normal 0 0 1
    outer loop
      vertex 176.425 56.224 10
      vertex 154.361 17.217 10
      vertex 178.562 57.678 10
    endloop
  endfacet
  facet normal 0 0 1
    outer loop
      vertex 174.487 54.61 10
      vertex 154.361 17.217 10
      vertex 176.425 56.224 10
    endloop
  endfacet
  facet normal 0 0 1
    outer loop
      vertex 172.632 52.931 10
      vertex 154.361 17.217 10
      vertex 174.487 54.61 10
    endloop
  endfacet
  facet normal 0 0 1
    outer loop
      vertex 170.823 51.214 10
      vertex 154.361 17.217 10
      vertex 172.632 52.931 10
    endloop
  endfacet
  facet normal 0 0 1
    outer loop
      vertex 169.029 49.486 10
      vertex 154.361 17.217 10
      vertex 170.823 51.214 10
    endloop
  endfacet
  facet normal 0 0 1
    outer loop
      vertex 167.33 47.059 10
      vertex 154.361 17.217 10
      vertex 169.029 49.486 10
    endloop
  endfacet
  facet normal 0 0 1
    outer loop
      vertex 165.387 44.815 10
      vertex 154.361 17.217 10
      vertex 167.33 47.059 10
    endloop
  endfacet
  facet normal 0 0 1
    outer loop
      vertex 163.455 42.564 10
      vertex 154.361 17.217 10
      vertex 165.387 44.815 10
    endloop
  endfacet
  facet normal 0 0 1
    outer loop
      vertex 161.788 40.115 10
      vertex 154.361 17.217 10
      vertex 163.455 42.564 10
    endloop
  endfacet
  facet normal 0 0 1
    outer loop
      vertex 160.761 37.633 10
      vertex 154.361 17.217 10
      vertex 161.788 40.115 10
    endloop
  endfacet
  facet normal 0 0 1
    outer loop
      vertex 159.609 35.208 10
      vertex 154.361 17.217 10
      vertex 160.761 37.633 10
    endloop
  endfacet
  facet normal 0 0 1
    outer loop
      vertex 158.347 32.835 10
      vertex 154.361 17.217 10
      vertex 159.609 35.208 10
    endloop
  endfacet
  facet normal 0 0 1
    outer loop
      vertex 156.99 30.51 10
      vertex 154.361 17.217 10
      vertex 158.347 32.835 10
    endloop
  endfacet
  facet normal 0 0 1
    outer loop
      vertex 155.989 27.26 10
      vertex 154.361 17.217 10
      vertex 156.99 30.51 10
    endloop
  endfacet
  facet normal 0 0 1
    outer loop
      vertex 155.19 23.951 10
      vertex 154.361 17.217 10
      vertex 155.989 27.26 10
    endloop
  endfacet
  facet normal 0 0 1
    outer loop
      vertex 154.634 20.597 10
      vertex 154.361 17.217 10
      vertex 155.19 23.951 10
    endloop
  endfacet
  facet normal 0 0 1
    outer loop
      vertex 200.948 41.125 10
      vertex 197.424 37.965 10
      vertex 209.901 44.721 10
    endloop
  endfacet
  facet normal 0 0 1
    outer loop
      vertex 206.255 48.701 10
      vertex 211.577 48.954 10
      vertex 212.048 51.199 10
    endloop
  endfacet
  facet normal 0 0 1
    outer loop
      vertex 186.725 44.004 10
      vertex 190.448 48.311 10
      vertex 154.361 17.217 10
    endloop
  endfacet
  facet normal 0 0 1
    outer loop
      vertex 206.255 48.701 10
      vertex 204.107 44.533 10
      vertex 211.577 48.954 10
    endloop
  endfacet
  facet normal 0 0 1
    outer loop
      vertex 183.033 39.675 10
      vertex 184.776 41.941 10
      vertex 154.361 17.217 10
    endloop
  endfacet
  facet normal 0 0 1
    outer loop
      vertex 206.779 55.575 10
      vertex 210.854 56.46 10
      vertex 210.242 57.478 10
    endloop
  endfacet
  facet normal 0 0 1
    outer loop
      vertex 202.103 55.841 10
      vertex 206.779 55.575 10
      vertex 208.715 58.834 10
    endloop
  endfacet
  facet normal 0 0 1
    outer loop
      vertex 186.725 44.004 10
      vertex 154.361 17.217 10
      vertex 184.776 41.941 10
    endloop
  endfacet
  facet normal 0 0 1
    outer loop
      vertex 206.779 55.575 10
      vertex 207.195 52.063 10
      vertex 210.854 56.46 10
    endloop
  endfacet
  facet normal 0 0 1
    outer loop
      vertex 203.269 61.732 10
      vertex 154.361 17.217 10
      vertex 190.448 48.311 10
    endloop
  endfacet
  facet normal 0 0 1
    outer loop
      vertex 203.269 61.732 10
      vertex 193.413 51.218 10
      vertex 205.187 60.996 10
    endloop
  endfacet
  facet normal 0 0 1
    outer loop
      vertex 203.269 61.732 10
      vertex 190.448 48.311 10
      vertex 193.413 51.218 10
    endloop
  endfacet
  facet normal 0 0 1
    outer loop
      vertex 193.413 51.218 10
      vertex 197.473 54.059 10
      vertex 205.187 60.996 10
    endloop
  endfacet
  facet normal 0 0 1
    outer loop
      vertex 207.016 60.019 10
      vertex 202.103 55.841 10
      vertex 208.715 58.834 10
    endloop
  endfacet
  facet normal 0 0 1
    outer loop
      vertex 208.715 58.834 10
      vertex 206.779 55.575 10
      vertex 210.242 57.478 10
    endloop
  endfacet
  facet normal 0 0 1
    outer loop
      vertex 210.854 56.46 10
      vertex 207.195 52.063 10
      vertex 212.068 54.414 10
    endloop
  endfacet
  facet normal 0 0 1
    outer loop
      vertex 212.682 53.396 10
      vertex 206.255 48.701 10
      vertex 212.048 51.199 10
    endloop
  endfacet
  facet normal 0 0 1
    outer loop
      vertex 177.666 32.281 10
      vertex 180.259 35.877 10
      vertex 154.361 17.217 10
    endloop
  endfacet
  facet normal 0 0 1
    outer loop
      vertex 211.577 48.954 10
      vertex 204.107 44.533 10
      vertex 210.964 46.761 10
    endloop
  endfacet
  facet normal 0 0 1
    outer loop
      vertex 210.964 46.761 10
      vertex 200.948 41.125 10
      vertex 209.901 44.721 10
    endloop
  endfacet
  facet normal 0 0 1
    outer loop
      vertex 209.901 44.721 10
      vertex 197.424 37.965 10
      vertex 208.827 43.005 10
    endloop
  endfacet
  facet normal 0 0 1
    outer loop
      vertex 207.527 41.459 10
      vertex 193.721 35.025 10
      vertex 206.092 40.021 10
    endloop
  endfacet
  facet normal 0 0 1
    outer loop
      vertex 186.009 30.051 10
      vertex 182.078 27.946 10
      vertex 198.881 34.315 10
    endloop
  endfacet
  facet normal 0 0 1
    outer loop
      vertex 204.61 38.627 10
      vertex 186.009 30.051 10
      vertex 198.881 34.315 10
    endloop
  endfacet
  facet normal 0 0 1
    outer loop
      vertex 198.881 34.315 10
      vertex 178.035 26.177 10
      vertex 192.764 30.382 10
    endloop
  endfacet
  facet normal 0 0 1
    outer loop
      vertex 178.035 26.177 10
      vertex 175.165 24.445 10
      vertex 192.764 30.382 10
    endloop
  endfacet
  facet normal 0 0 1
    outer loop
      vertex 197.424 37.965 10
      vertex 207.527 41.459 10
      vertex 208.827 43.005 10
    endloop
  endfacet
  facet normal 0 0 1
    outer loop
      vertex 175.165 24.445 10
      vertex 173.809 25.079 10
      vertex 154.361 17.217 10
    endloop
  endfacet
  facet normal 0 0 1
    outer loop
      vertex 216.777 30.745 10
      vertex 214.72 30.156 10
      vertex 217.658 30.925 10
    endloop
  endfacet
  facet normal 0 0 1
    outer loop
      vertex 212.95 28.903 10
      vertex 211.366 27.277 10
      vertex 216.721 29.106 10
    endloop
  endfacet
  facet normal 0 0 1
    outer loop
      vertex 209.868 25.57 10
      vertex 206.899 22.575 10
      vertex 213.8 24.908 10
    endloop
  endfacet
  facet normal 0 0 1
    outer loop
      vertex 182.441 7.065 10
      vertex 183.337 2.819 10
      vertex 187.02 4.152 10
    endloop
  endfacet
  facet normal 0 0 1
    outer loop
      vertex 182.441 7.065 10
      vertex 176.902 5.894 10
      vertex 183.337 2.819 10
    endloop
  endfacet
  facet normal 0 0 1
    outer loop
      vertex 190.031 32.298 10
      vertex 186.009 30.051 10
      vertex 204.61 38.627 10
    endloop
  endfacet
  facet normal 0 0 1
    outer loop
      vertex 173.809 25.079 10
      vertex 175.575 28.64 10
      vertex 154.361 17.217 10
    endloop
  endfacet
  facet normal 0.641569 -0.767065 0
    outer loop
      vertex 172.102 19.348 0
      vertex 173.899 20.851 0
      vertex 173.899 20.851 10
    endloop
  endfacet
  facet normal 0.641569 -0.767065 0
    outer loop
      vertex 172.102 19.348 10
      vertex 172.102 19.348 0
      vertex 173.899 20.851 10
    endloop
  endfacet
  facet normal -0.984394 -0.175978 0
    outer loop
      vertex 155.011 13.581 0
      vertex 155.011 13.581 10
      vertex 154.361 17.217 0
    endloop
  endfacet
  facet normal -0.984394 -0.175978 0
    outer loop
      vertex 154.361 17.217 0
      vertex 155.011 13.581 10
      vertex 154.361 17.217 10
    endloop
  endfacet
  facet normal -0.996754 0.0805071 0
    outer loop
      vertex 154.361 17.217 10
      vertex 154.634 20.597 10
      vertex 154.361 17.217 0
    endloop
  endfacet
  facet normal -0.996754 0.0805071 0
    outer loop
      vertex 154.361 17.217 0
      vertex 154.634 20.597 10
      vertex 154.634 20.597 0
    endloop
  endfacet
  facet normal -0.963364 -0.268197 0
    outer loop
      vertex 156.011 9.989 0
      vertex 156.011 9.989 10
      vertex 155.011 13.581 0
    endloop
  endfacet
  facet normal -0.963364 -0.268197 0
    outer loop
      vertex 155.011 13.581 0
      vertex 156.011 9.989 10
      vertex 155.011 13.581 10
    endloop
  endfacet
  facet normal -0.905661 -0.424002 0
    outer loop
      vertex 157.57 6.659 0
      vertex 157.57 6.659 10
      vertex 156.011 9.989 0
    endloop
  endfacet
  facet normal -0.905661 -0.424002 0
    outer loop
      vertex 156.011 9.989 0
      vertex 157.57 6.659 10
      vertex 156.011 9.989 10
    endloop
  endfacet
  facet normal -0.774115 -0.633045 0
    outer loop
      vertex 159.899 3.811 0
      vertex 159.899 3.811 10
      vertex 157.57 6.659 0
    endloop
  endfacet
  facet normal -0.774115 -0.633045 0
    outer loop
      vertex 157.57 6.659 0
      vertex 159.899 3.811 10
      vertex 157.57 6.659 10
    endloop
  endfacet
  facet normal -0.360701 -0.932681 0
    outer loop
      vertex 159.899 3.811 0
      vertex 162.402 2.843 0
      vertex 162.402 2.843 10
    endloop
  endfacet
  facet normal -0.360701 -0.932681 0
    outer loop
      vertex 159.899 3.811 10
      vertex 159.899 3.811 0
      vertex 162.402 2.843 10
    endloop
  endfacet
  facet normal -0.469631 -0.882863 0
    outer loop
      vertex 162.402 2.843 0
      vertex 164.797 1.569 0
      vertex 164.797 1.569 10
    endloop
  endfacet
  facet normal -0.469631 -0.882863 0
    outer loop
      vertex 162.402 2.843 10
      vertex 162.402 2.843 0
      vertex 164.797 1.569 10
    endloop
  endfacet
  facet normal -0.393739 -0.919222 0
    outer loop
      vertex 164.797 1.569 0
      vertex 167.253 0.517 0
      vertex 167.253 0.517 10
    endloop
  endfacet
  facet normal -0.393739 -0.919222 0
    outer loop
      vertex 164.797 1.569 10
      vertex 164.797 1.569 0
      vertex 167.253 0.517 10
    endloop
  endfacet
  facet normal -0.111772 -0.993734 0
    outer loop
      vertex 167.253 0.517 0
      vertex 169.938 0.215 0
      vertex 169.938 0.215 10
    endloop
  endfacet
  facet normal -0.111772 -0.993734 0
    outer loop
      vertex 167.253 0.517 10
      vertex 167.253 0.517 0
      vertex 169.938 0.215 10
    endloop
  endfacet
  facet normal 0.0298909 -0.999553 0
    outer loop
      vertex 169.938 0.215 0
      vertex 172.446 0.29 0
      vertex 172.446 0.29 10
    endloop
  endfacet
  facet normal 0.0298909 -0.999553 0
    outer loop
      vertex 169.938 0.215 10
      vertex 169.938 0.215 0
      vertex 172.446 0.29 10
    endloop
  endfacet
  facet normal 0.130681 -0.991425 0
    outer loop
      vertex 172.446 0.29 0
      vertex 174.942 0.619 0
      vertex 174.942 0.619 10
    endloop
  endfacet
  facet normal 0.130681 -0.991425 0
    outer loop
      vertex 172.446 0.29 10
      vertex 172.446 0.29 0
      vertex 174.942 0.619 10
    endloop
  endfacet
  facet normal 0.207193 -0.9783 0
    outer loop
      vertex 174.942 0.619 0
      vertex 177.402 1.14 0
      vertex 177.402 1.14 10
    endloop
  endfacet
  facet normal 0.207193 -0.9783 0
    outer loop
      vertex 174.942 0.619 10
      vertex 174.942 0.619 0
      vertex 177.402 1.14 10
    endloop
  endfacet
  facet normal 0.26101 -0.965336 0
    outer loop
      vertex 177.402 1.14 0
      vertex 179.806 1.79 0
      vertex 179.806 1.79 10
    endloop
  endfacet
  facet normal 0.26101 -0.965336 0
    outer loop
      vertex 177.402 1.14 10
      vertex 177.402 1.14 0
      vertex 179.806 1.79 10
    endloop
  endfacet
  facet normal 0.279781 -0.960064 0
    outer loop
      vertex 179.806 1.79 0
      vertex 183.337 2.819 0
      vertex 183.337 2.819 10
    endloop
  endfacet
  facet normal 0.279781 -0.960064 0
    outer loop
      vertex 179.806 1.79 10
      vertex 179.806 1.79 0
      vertex 183.337 2.819 10
    endloop
  endfacet
  facet normal 0.340328 -0.940307 0
    outer loop
      vertex 183.337 2.819 0
      vertex 187.02 4.152 0
      vertex 187.02 4.152 10
    endloop
  endfacet
  facet normal 0.340328 -0.940307 0
    outer loop
      vertex 183.337 2.819 10
      vertex 183.337 2.819 0
      vertex 187.02 4.152 10
    endloop
  endfacet
  facet normal 0.383294 -0.923626 0
    outer loop
      vertex 187.02 4.152 0
      vertex 190.396 5.553 0
      vertex 190.396 5.553 10
    endloop
  endfacet
  facet normal 0.383294 -0.923626 0
    outer loop
      vertex 187.02 4.152 10
      vertex 187.02 4.152 0
      vertex 190.396 5.553 10
    endloop
  endfacet
  facet normal 0.415959 -0.909383 0
    outer loop
      vertex 190.396 5.553 0
      vertex 192.333 6.439 0
      vertex 192.333 6.439 10
    endloop
  endfacet
  facet normal 0.415959 -0.909383 0
    outer loop
      vertex 190.396 5.553 10
      vertex 190.396 5.553 0
      vertex 192.333 6.439 10
    endloop
  endfacet
  facet normal 0.515982 -0.8566 0
    outer loop
      vertex 192.333 6.439 0
      vertex 194.536 7.766 0
      vertex 194.536 7.766 10
    endloop
  endfacet
  facet normal 0.515982 -0.8566 0
    outer loop
      vertex 192.333 6.439 10
      vertex 192.333 6.439 0
      vertex 194.536 7.766 10
    endloop
  endfacet
  facet normal 0.576301 -0.817237 0
    outer loop
      vertex 194.536 7.766 0
      vertex 197.141 9.603 0
      vertex 197.141 9.603 10
    endloop
  endfacet
  facet normal 0.576301 -0.817237 0
    outer loop
      vertex 194.536 7.766 10
      vertex 194.536 7.766 0
      vertex 197.141 9.603 10
    endloop
  endfacet
  facet normal 0.648178 -0.761489 0
    outer loop
      vertex 197.141 9.603 0
      vertex 199.184 11.342 0
      vertex 199.184 11.342 10
    endloop
  endfacet
  facet normal 0.648178 -0.761489 0
    outer loop
      vertex 197.141 9.603 10
      vertex 197.141 9.603 0
      vertex 199.184 11.342 10
    endloop
  endfacet
  facet normal 0.679455 -0.733717 0
    outer loop
      vertex 199.184 11.342 0
      vertex 201.05 13.07 0
      vertex 201.05 13.07 10
    endloop
  endfacet
  facet normal 0.679455 -0.733717 0
    outer loop
      vertex 199.184 11.342 10
      vertex 199.184 11.342 0
      vertex 201.05 13.07 10
    endloop
  endfacet
  facet normal 0.667766 -0.744371 0
    outer loop
      vertex 201.05 13.07 0
      vertex 204.072 15.781 0
      vertex 204.072 15.781 10
    endloop
  endfacet
  facet normal 0.667766 -0.744371 0
    outer loop
      vertex 201.05 13.07 10
      vertex 201.05 13.07 0
      vertex 204.072 15.781 10
    endloop
  endfacet
  facet normal 0.662119 -0.749399 0
    outer loop
      vertex 204.072 15.781 0
      vertex 207.309 18.641 0
      vertex 207.309 18.641 10
    endloop
  endfacet
  facet normal 0.662119 -0.749399 0
    outer loop
      vertex 204.072 15.781 10
      vertex 204.072 15.781 0
      vertex 207.309 18.641 10
    endloop
  endfacet
  facet normal 0.677371 -0.735642 0
    outer loop
      vertex 207.309 18.641 0
      vertex 210.604 21.675 0
      vertex 210.604 21.675 10
    endloop
  endfacet
  facet normal 0.677371 -0.735642 0
    outer loop
      vertex 207.309 18.641 10
      vertex 207.309 18.641 0
      vertex 210.604 21.675 10
    endloop
  endfacet
  facet normal 0.711165 -0.703026 0
    outer loop
      vertex 210.604 21.675 0
      vertex 213.8 24.908 0
      vertex 213.8 24.908 10
    endloop
  endfacet
  facet normal 0.711165 -0.703026 0
    outer loop
      vertex 210.604 21.675 10
      vertex 210.604 21.675 0
      vertex 213.8 24.908 10
    endloop
  endfacet
  facet normal 0.713838 -0.700311 0
    outer loop
      vertex 213.8 24.908 0
      vertex 215.146 26.28 0
      vertex 215.146 26.28 10
    endloop
  endfacet
  facet normal 0.713838 -0.700311 0
    outer loop
      vertex 213.8 24.908 10
      vertex 213.8 24.908 0
      vertex 215.146 26.28 10
    endloop
  endfacet
  facet normal 0.856215 -0.516619 0
    outer loop
      vertex 215.146 26.28 0
      vertex 216.004 27.702 0
      vertex 216.004 27.702 10
    endloop
  endfacet
  facet normal 0.856215 -0.516619 0
    outer loop
      vertex 215.146 26.28 10
      vertex 215.146 26.28 0
      vertex 216.004 27.702 10
    endloop
  endfacet
  facet normal 0.890589 -0.454809 0
    outer loop
      vertex 216.004 27.702 0
      vertex 216.721 29.106 0
      vertex 216.721 29.106 10
    endloop
  endfacet
  facet normal 0.890589 -0.454809 0
    outer loop
      vertex 216.004 27.702 10
      vertex 216.004 27.702 0
      vertex 216.721 29.106 10
    endloop
  endfacet
  facet normal 0.817915 -0.575339 0
    outer loop
      vertex 216.721 29.106 0
      vertex 217.646 30.421 0
      vertex 217.646 30.421 10
    endloop
  endfacet
  facet normal 0.817915 -0.575339 0
    outer loop
      vertex 216.721 29.106 10
      vertex 216.721 29.106 0
      vertex 217.646 30.421 10
    endloop
  endfacet
  facet normal 0.999717 -0.0238028 0
    outer loop
      vertex 217.646 30.421 0
      vertex 217.658 30.925 0
      vertex 217.658 30.925 10
    endloop
  endfacet
  facet normal 0.999717 -0.0238028 0
    outer loop
      vertex 217.646 30.421 10
      vertex 217.646 30.421 0
      vertex 217.658 30.925 10
    endloop
  endfacet
  facet normal 0.468503 0.883462 0
    outer loop
      vertex 217.526 30.995 10
      vertex 217.658 30.925 10
      vertex 217.526 30.995 0
    endloop
  endfacet
  facet normal 0.468503 0.883462 0
    outer loop
      vertex 217.526 30.995 0
      vertex 217.658 30.925 10
      vertex 217.658 30.925 0
    endloop
  endfacet
  facet normal -0.425797 0.904819 0
    outer loop
      vertex 217.237 30.859 10
      vertex 217.526 30.995 10
      vertex 217.237 30.859 0
    endloop
  endfacet
  facet normal -0.425797 0.904819 0
    outer loop
      vertex 217.237 30.859 0
      vertex 217.526 30.995 10
      vertex 217.526 30.995 0
    endloop
  endfacet
  facet normal -0.240549 0.970637 0
    outer loop
      vertex 216.777 30.745 10
      vertex 217.237 30.859 10
      vertex 216.777 30.745 0
    endloop
  endfacet
  facet normal -0.240549 0.970637 0
    outer loop
      vertex 216.777 30.745 0
      vertex 217.237 30.859 10
      vertex 217.237 30.859 0
    endloop
  endfacet
  facet normal -0.275277 0.961365 0
    outer loop
      vertex 214.72 30.156 10
      vertex 216.777 30.745 10
      vertex 214.72 30.156 0
    endloop
  endfacet
  facet normal -0.275277 0.961365 0
    outer loop
      vertex 214.72 30.156 0
      vertex 216.777 30.745 10
      vertex 216.777 30.745 0
    endloop
  endfacet
  facet normal -0.577787 0.816188 0
    outer loop
      vertex 212.95 28.903 10
      vertex 214.72 30.156 10
      vertex 212.95 28.903 0
    endloop
  endfacet
  facet normal -0.577787 0.816188 0
    outer loop
      vertex 212.95 28.903 0
      vertex 214.72 30.156 10
      vertex 214.72 30.156 0
    endloop
  endfacet
  facet normal -0.716297 0.697795 0
    outer loop
      vertex 211.366 27.277 10
      vertex 212.95 28.903 10
      vertex 211.366 27.277 0
    endloop
  endfacet
  facet normal -0.716297 0.697795 0
    outer loop
      vertex 211.366 27.277 0
      vertex 212.95 28.903 10
      vertex 212.95 28.903 0
    endloop
  endfacet
  facet normal -0.751621 0.659595 0
    outer loop
      vertex 209.868 25.57 10
      vertex 211.366 27.277 10
      vertex 209.868 25.57 0
    endloop
  endfacet
  facet normal -0.751621 0.659595 0
    outer loop
      vertex 209.868 25.57 0
      vertex 211.366 27.277 10
      vertex 211.366 27.277 0
    endloop
  endfacet
  facet normal -0.710183 0.704017 0
    outer loop
      vertex 206.899 22.575 10
      vertex 209.868 25.57 10
      vertex 206.899 22.575 0
    endloop
  endfacet
  facet normal -0.710183 0.704017 0
    outer loop
      vertex 206.899 22.575 0
      vertex 209.868 25.57 10
      vertex 209.868 25.57 0
    endloop
  endfacet
  facet normal -0.667185 0.744892 0
    outer loop
      vertex 203.611 19.63 10
      vertex 206.899 22.575 10
      vertex 203.611 19.63 0
    endloop
  endfacet
  facet normal -0.667185 0.744892 0
    outer loop
      vertex 203.611 19.63 0
      vertex 206.899 22.575 10
      vertex 206.899 22.575 0
    endloop
  endfacet
  facet normal -0.632208 0.774799 0
    outer loop
      vertex 200.128 16.788 10
      vertex 203.611 19.63 10
      vertex 200.128 16.788 0
    endloop
  endfacet
  facet normal -0.632208 0.774799 0
    outer loop
      vertex 200.128 16.788 0
      vertex 203.611 19.63 10
      vertex 203.611 19.63 0
    endloop
  endfacet
  facet normal -0.602439 0.798165 0
    outer loop
      vertex 196.572 14.104 10
      vertex 200.128 16.788 10
      vertex 196.572 14.104 0
    endloop
  endfacet
  facet normal -0.602439 0.798165 0
    outer loop
      vertex 196.572 14.104 0
      vertex 200.128 16.788 10
      vertex 200.128 16.788 0
    endloop
  endfacet
  facet normal -0.55336 0.832942 0
    outer loop
      vertex 192.267 11.244 10
      vertex 196.572 14.104 10
      vertex 192.267 11.244 0
    endloop
  endfacet
  facet normal -0.55336 0.832942 0
    outer loop
      vertex 192.267 11.244 0
      vertex 196.572 14.104 10
      vertex 196.572 14.104 0
    endloop
  endfacet
  facet normal -0.449792 0.893133 0
    outer loop
      vertex 187.559 8.873 10
      vertex 192.267 11.244 10
      vertex 187.559 8.873 0
    endloop
  endfacet
  facet normal -0.449792 0.893133 0
    outer loop
      vertex 187.559 8.873 0
      vertex 192.267 11.244 10
      vertex 192.267 11.244 0
    endloop
  endfacet
  facet normal -0.33309 0.942895 0
    outer loop
      vertex 182.441 7.065 10
      vertex 187.559 8.873 10
      vertex 182.441 7.065 0
    endloop
  endfacet
  facet normal -0.33309 0.942895 0
    outer loop
      vertex 182.441 7.065 0
      vertex 187.559 8.873 10
      vertex 187.559 8.873 0
    endloop
  endfacet
  facet normal -0.206838 0.978375 0
    outer loop
      vertex 176.902 5.894 10
      vertex 182.441 7.065 10
      vertex 176.902 5.894 0
    endloop
  endfacet
  facet normal -0.206838 0.978375 0
    outer loop
      vertex 176.902 5.894 0
      vertex 182.441 7.065 10
      vertex 182.441 7.065 0
    endloop
  endfacet
  facet normal 0.288113 0.957596 0
    outer loop
      vertex 174.951 6.481 10
      vertex 176.902 5.894 10
      vertex 174.951 6.481 0
    endloop
  endfacet
  facet normal 0.288113 0.957596 0
    outer loop
      vertex 174.951 6.481 0
      vertex 176.902 5.894 10
      vertex 176.902 5.894 0
    endloop
  endfacet
  facet normal 0.624264 0.781213 0
    outer loop
      vertex 173.403 7.718 10
      vertex 174.951 6.481 10
      vertex 173.403 7.718 0
    endloop
  endfacet
  facet normal 0.624264 0.781213 0
    outer loop
      vertex 173.403 7.718 0
      vertex 174.951 6.481 10
      vertex 174.951 6.481 0
    endloop
  endfacet
  facet normal 0.792064 0.610438 0
    outer loop
      vertex 172.146 9.349 0
      vertex 172.146 9.349 10
      vertex 173.403 7.718 10
    endloop
  endfacet
  facet normal 0.792064 0.610438 0
    outer loop
      vertex 173.403 7.718 0
      vertex 172.146 9.349 0
      vertex 173.403 7.718 10
    endloop
  endfacet
  facet normal 0.85432 0.519748 0
    outer loop
      vertex 171.071 11.116 0
      vertex 171.071 11.116 10
      vertex 172.146 9.349 10
    endloop
  endfacet
  facet normal 0.85432 0.519748 0
    outer loop
      vertex 172.146 9.349 0
      vertex 171.071 11.116 0
      vertex 172.146 9.349 10
    endloop
  endfacet
  facet normal 0.535013 -0.844844 0
    outer loop
      vertex 173.899 20.851 0
      vertex 175.955 22.153 0
      vertex 175.955 22.153 10
    endloop
  endfacet
  facet normal 0.535013 -0.844844 0
    outer loop
      vertex 173.899 20.851 10
      vertex 173.899 20.851 0
      vertex 175.955 22.153 10
    endloop
  endfacet
  facet normal 0.454358 -0.890819 0
    outer loop
      vertex 175.955 22.153 0
      vertex 178.145 23.27 0
      vertex 178.145 23.27 10
    endloop
  endfacet
  facet normal 0.454358 -0.890819 0
    outer loop
      vertex 175.955 22.153 10
      vertex 175.955 22.153 0
      vertex 178.145 23.27 10
    endloop
  endfacet
  facet normal 0.396204 -0.918163 0
    outer loop
      vertex 178.145 23.27 0
      vertex 180.569 24.316 0
      vertex 180.569 24.316 10
    endloop
  endfacet
  facet normal 0.396204 -0.918163 0
    outer loop
      vertex 178.145 23.27 10
      vertex 178.145 23.27 0
      vertex 180.569 24.316 10
    endloop
  endfacet
  facet normal 0.369965 -0.929046 0
    outer loop
      vertex 180.569 24.316 0
      vertex 182.367 25.032 0
      vertex 182.367 25.032 10
    endloop
  endfacet
  facet normal 0.369965 -0.929046 0
    outer loop
      vertex 180.569 24.316 10
      vertex 180.569 24.316 0
      vertex 182.367 25.032 10
    endloop
  endfacet
  facet normal 0.424896 -0.905242 0
    outer loop
      vertex 182.367 25.032 0
      vertex 186.53 26.986 0
      vertex 186.53 26.986 10
    endloop
  endfacet
  facet normal 0.424896 -0.905242 0
    outer loop
      vertex 182.367 25.032 10
      vertex 182.367 25.032 0
      vertex 186.53 26.986 10
    endloop
  endfacet
  facet normal 0.478378 -0.878154 0
    outer loop
      vertex 186.53 26.986 0
      vertex 192.764 30.382 0
      vertex 192.764 30.382 10
    endloop
  endfacet
  facet normal 0.478378 -0.878154 0
    outer loop
      vertex 186.53 26.986 10
      vertex 186.53 26.986 0
      vertex 192.764 30.382 10
    endloop
  endfacet
  facet normal 0.54082 -0.841138 0
    outer loop
      vertex 192.764 30.382 0
      vertex 198.881 34.315 0
      vertex 198.881 34.315 10
    endloop
  endfacet
  facet normal 0.54082 -0.841138 0
    outer loop
      vertex 192.764 30.382 10
      vertex 192.764 30.382 0
      vertex 198.881 34.315 10
    endloop
  endfacet
  facet normal 0.60136 -0.798978 0
    outer loop
      vertex 198.881 34.315 0
      vertex 204.61 38.627 0
      vertex 204.61 38.627 10
    endloop
  endfacet
  facet normal 0.60136 -0.798978 0
    outer loop
      vertex 198.881 34.315 10
      vertex 198.881 34.315 0
      vertex 204.61 38.627 10
    endloop
  endfacet
  facet normal 0.68515 -0.728402 0
    outer loop
      vertex 204.61 38.627 0
      vertex 206.092 40.021 0
      vertex 206.092 40.021 10
    endloop
  endfacet
  facet normal 0.68515 -0.728402 0
    outer loop
      vertex 204.61 38.627 10
      vertex 204.61 38.627 0
      vertex 206.092 40.021 10
    endloop
  endfacet
  facet normal 0.707845 -0.706368 0
    outer loop
      vertex 206.092 40.021 0
      vertex 207.527 41.459 0
      vertex 207.527 41.459 10
    endloop
  endfacet
  facet normal 0.707845 -0.706368 0
    outer loop
      vertex 206.092 40.021 10
      vertex 206.092 40.021 0
      vertex 207.527 41.459 10
    endloop
  endfacet
  facet normal 0.765373 -0.643587 0
    outer loop
      vertex 207.527 41.459 0
      vertex 208.827 43.005 0
      vertex 208.827 43.005 10
    endloop
  endfacet
  facet normal 0.765373 -0.643587 0
    outer loop
      vertex 207.527 41.459 10
      vertex 207.527 41.459 0
      vertex 208.827 43.005 10
    endloop
  endfacet
  facet normal 0.847665 -0.530532 0
    outer loop
      vertex 208.827 43.005 0
      vertex 209.901 44.721 0
      vertex 209.901 44.721 10
    endloop
  endfacet
  facet normal 0.847665 -0.530532 0
    outer loop
      vertex 208.827 43.005 10
      vertex 208.827 43.005 0
      vertex 209.901 44.721 10
    endloop
  endfacet
  facet normal 0.886825 -0.462105 0
    outer loop
      vertex 209.901 44.721 0
      vertex 210.964 46.761 0
      vertex 210.964 46.761 10
    endloop
  endfacet
  facet normal 0.886825 -0.462105 0
    outer loop
      vertex 209.901 44.721 10
      vertex 209.901 44.721 0
      vertex 210.964 46.761 10
    endloop
  endfacet
  facet normal 0.963083 -0.269206 0
    outer loop
      vertex 210.964 46.761 0
      vertex 211.577 48.954 0
      vertex 211.577 48.954 10
    endloop
  endfacet
  facet normal 0.963083 -0.269206 0
    outer loop
      vertex 210.964 46.761 10
      vertex 210.964 46.761 0
      vertex 211.577 48.954 10
    endloop
  endfacet
  facet normal 0.978693 -0.205329 0
    outer loop
      vertex 211.577 48.954 0
      vertex 212.048 51.199 0
      vertex 212.048 51.199 10
    endloop
  endfacet
  facet normal 0.978693 -0.205329 0
    outer loop
      vertex 211.577 48.954 10
      vertex 211.577 48.954 0
      vertex 212.048 51.199 10
    endloop
  endfacet
  facet normal 0.960794 -0.277262 0
    outer loop
      vertex 212.048 51.199 0
      vertex 212.682 53.396 0
      vertex 212.682 53.396 10
    endloop
  endfacet
  facet normal 0.960794 -0.277262 0
    outer loop
      vertex 212.048 51.199 10
      vertex 212.048 51.199 0
      vertex 212.682 53.396 10
    endloop
  endfacet
  facet normal 0.856303 0.516474 0
    outer loop
      vertex 212.068 54.414 0
      vertex 212.068 54.414 10
      vertex 212.682 53.396 10
    endloop
  endfacet
  facet normal 0.856303 0.516474 0
    outer loop
      vertex 212.682 53.396 0
      vertex 212.068 54.414 0
      vertex 212.682 53.396 10
    endloop
  endfacet
  facet normal 0.860005 0.510286 0
    outer loop
      vertex 210.854 56.46 0
      vertex 210.854 56.46 10
      vertex 212.068 54.414 10
    endloop
  endfacet
  facet normal 0.860005 0.510286 0
    outer loop
      vertex 212.068 54.414 0
      vertex 210.854 56.46 0
      vertex 212.068 54.414 10
    endloop
  endfacet
  facet normal 0.857047 0.515238 0
    outer loop
      vertex 210.242 57.478 0
      vertex 210.242 57.478 10
      vertex 210.854 56.46 10
    endloop
  endfacet
  facet normal 0.857047 0.515238 0
    outer loop
      vertex 210.854 56.46 0
      vertex 210.242 57.478 0
      vertex 210.854 56.46 10
    endloop
  endfacet
  facet normal 0.663999 0.747733 0
    outer loop
      vertex 208.715 58.834 10
      vertex 210.242 57.478 10
      vertex 208.715 58.834 0
    endloop
  endfacet
  facet normal 0.663999 0.747733 0
    outer loop
      vertex 208.715 58.834 0
      vertex 210.242 57.478 10
      vertex 210.242 57.478 0
    endloop
  endfacet
  facet normal 0.572068 0.820206 0
    outer loop
      vertex 207.016 60.019 10
      vertex 208.715 58.834 10
      vertex 207.016 60.019 0
    endloop
  endfacet
  facet normal 0.572068 0.820206 0
    outer loop
      vertex 207.016 60.019 0
      vertex 208.715 58.834 10
      vertex 208.715 58.834 0
    endloop
  endfacet
  facet normal 0.471164 0.882046 0
    outer loop
      vertex 205.187 60.996 10
      vertex 207.016 60.019 10
      vertex 205.187 60.996 0
    endloop
  endfacet
  facet normal 0.471164 0.882046 0
    outer loop
      vertex 205.187 60.996 0
      vertex 207.016 60.019 10
      vertex 207.016 60.019 0
    endloop
  endfacet
  facet normal 0.358261 0.933621 0
    outer loop
      vertex 203.269 61.732 10
      vertex 205.187 60.996 10
      vertex 203.269 61.732 0
    endloop
  endfacet
  facet normal 0.358261 0.933621 0
    outer loop
      vertex 203.269 61.732 0
      vertex 205.187 60.996 10
      vertex 205.187 60.996 0
    endloop
  endfacet
  facet normal 0.0841063 0.996457 0
    outer loop
      vertex 198.838 62.106 10
      vertex 203.269 61.732 10
      vertex 198.838 62.106 0
    endloop
  endfacet
  facet normal 0.0841063 0.996457 0
    outer loop
      vertex 198.838 62.106 0
      vertex 203.269 61.732 10
      vertex 203.269 61.732 0
    endloop
  endfacet
  facet normal 0.0481369 0.998841 0
    outer loop
      vertex 194.356 62.322 10
      vertex 198.838 62.106 10
      vertex 194.356 62.322 0
    endloop
  endfacet
  facet normal 0.0481369 0.998841 0
    outer loop
      vertex 194.356 62.322 0
      vertex 198.838 62.106 10
      vertex 198.838 62.106 0
    endloop
  endfacet
  facet normal -0.0800589 0.99679 0
    outer loop
      vertex 189.936 61.967 10
      vertex 194.356 62.322 10
      vertex 189.936 61.967 0
    endloop
  endfacet
  facet normal -0.0800589 0.99679 0
    outer loop
      vertex 189.936 61.967 0
      vertex 194.356 62.322 10
      vertex 194.356 62.322 0
    endloop
  endfacet
  facet normal -0.301153 0.953576 0
    outer loop
      vertex 185.693 60.627 10
      vertex 189.936 61.967 10
      vertex 185.693 60.627 0
    endloop
  endfacet
  facet normal -0.301153 0.953576 0
    outer loop
      vertex 185.693 60.627 0
      vertex 189.936 61.967 10
      vertex 189.936 61.967 0
    endloop
  endfacet
  facet normal -0.315995 0.948761 0
    outer loop
      vertex 183.252 59.814 10
      vertex 185.693 60.627 10
      vertex 183.252 59.814 0
    endloop
  endfacet
  facet normal -0.315995 0.948761 0
    outer loop
      vertex 183.252 59.814 0
      vertex 185.693 60.627 10
      vertex 185.693 60.627 0
    endloop
  endfacet
  facet normal -0.372393 0.928075 0
    outer loop
      vertex 180.857 58.853 10
      vertex 183.252 59.814 10
      vertex 180.857 58.853 0
    endloop
  endfacet
  facet normal -0.372393 0.928075 0
    outer loop
      vertex 180.857 58.853 0
      vertex 183.252 59.814 10
      vertex 183.252 59.814 0
    endloop
  endfacet
  facet normal -0.455726 0.89012 0
    outer loop
      vertex 178.562 57.678 10
      vertex 180.857 58.853 10
      vertex 178.562 57.678 0
    endloop
  endfacet
  facet normal -0.455726 0.89012 0
    outer loop
      vertex 178.562 57.678 0
      vertex 180.857 58.853 10
      vertex 180.857 58.853 0
    endloop
  endfacet
  facet normal -0.562532 0.826775 0
    outer loop
      vertex 176.425 56.224 10
      vertex 178.562 57.678 10
      vertex 176.425 56.224 0
    endloop
  endfacet
  facet normal -0.562532 0.826775 0
    outer loop
      vertex 176.425 56.224 0
      vertex 178.562 57.678 10
      vertex 178.562 57.678 0
    endloop
  endfacet
  facet normal -0.63995 0.768416 0
    outer loop
      vertex 174.487 54.61 10
      vertex 176.425 56.224 10
      vertex 174.487 54.61 0
    endloop
  endfacet
  facet normal -0.63995 0.768416 0
    outer loop
      vertex 174.487 54.61 0
      vertex 176.425 56.224 10
      vertex 176.425 56.224 0
    endloop
  endfacet
  facet normal -0.67106 0.741403 0
    outer loop
      vertex 172.632 52.931 10
      vertex 174.487 54.61 10
      vertex 172.632 52.931 0
    endloop
  endfacet
  facet normal -0.67106 0.741403 0
    outer loop
      vertex 172.632 52.931 0
      vertex 174.487 54.61 10
      vertex 174.487 54.61 0
    endloop
  endfacet
  facet normal -0.688423 0.72531 0
    outer loop
      vertex 170.823 51.214 10
      vertex 172.632 52.931 10
      vertex 170.823 51.214 0
    endloop
  endfacet
  facet normal -0.688423 0.72531 0
    outer loop
      vertex 170.823 51.214 0
      vertex 172.632 52.931 10
      vertex 172.632 52.931 0
    endloop
  endfacet
  facet normal -0.693734 0.720231 0
    outer loop
      vertex 169.029 49.486 10
      vertex 170.823 51.214 10
      vertex 169.029 49.486 0
    endloop
  endfacet
  facet normal -0.693734 0.720231 0
    outer loop
      vertex 169.029 49.486 0
      vertex 170.823 51.214 10
      vertex 170.823 51.214 0
    endloop
  endfacet
  facet normal -0.819216 0.573485 0
    outer loop
      vertex 167.33 47.059 10
      vertex 169.029 49.486 10
      vertex 167.33 47.059 0
    endloop
  endfacet
  facet normal -0.819216 0.573485 0
    outer loop
      vertex 167.33 47.059 0
      vertex 169.029 49.486 10
      vertex 169.029 49.486 0
    endloop
  endfacet
  facet normal -0.755989 0.654584 0
    outer loop
      vertex 165.387 44.815 10
      vertex 167.33 47.059 10
      vertex 165.387 44.815 0
    endloop
  endfacet
  facet normal -0.755989 0.654584 0
    outer loop
      vertex 165.387 44.815 0
      vertex 167.33 47.059 10
      vertex 167.33 47.059 0
    endloop
  endfacet
  facet normal -0.758828 0.651291 0
    outer loop
      vertex 163.455 42.564 10
      vertex 165.387 44.815 10
      vertex 163.455 42.564 0
    endloop
  endfacet
  facet normal -0.758828 0.651291 0
    outer loop
      vertex 163.455 42.564 0
      vertex 165.387 44.815 10
      vertex 165.387 44.815 0
    endloop
  endfacet
  facet normal -0.826663 0.562698 0
    outer loop
      vertex 161.788 40.115 10
      vertex 163.455 42.564 10
      vertex 161.788 40.115 0
    endloop
  endfacet
  facet normal -0.826663 0.562698 0
    outer loop
      vertex 161.788 40.115 0
      vertex 163.455 42.564 10
      vertex 163.455 42.564 0
    endloop
  endfacet
  facet normal -0.924021 0.382341 0
    outer loop
      vertex 160.761 37.633 10
      vertex 161.788 40.115 10
      vertex 160.761 37.633 0
    endloop
  endfacet
  facet normal -0.924021 0.382341 0
    outer loop
      vertex 160.761 37.633 0
      vertex 161.788 40.115 10
      vertex 161.788 40.115 0
    endloop
  endfacet
  facet normal -0.903259 0.429095 0
    outer loop
      vertex 159.609 35.208 10
      vertex 160.761 37.633 10
      vertex 159.609 35.208 0
    endloop
  endfacet
  facet normal -0.903259 0.429095 0
    outer loop
      vertex 159.609 35.208 0
      vertex 160.761 37.633 10
      vertex 160.761 37.633 0
    endloop
  endfacet
  facet normal -0.882908 0.469545 0
    outer loop
      vertex 158.347 32.835 10
      vertex 159.609 35.208 10
      vertex 158.347 32.835 0
    endloop
  endfacet
  facet normal -0.882908 0.469545 0
    outer loop
      vertex 158.347 32.835 0
      vertex 159.609 35.208 10
      vertex 159.609 35.208 0
    endloop
  endfacet
  facet normal -0.863658 0.504079 0
    outer loop
      vertex 156.99 30.51 10
      vertex 158.347 32.835 10
      vertex 156.99 30.51 0
    endloop
  endfacet
  facet normal -0.863658 0.504079 0
    outer loop
      vertex 156.99 30.51 0
      vertex 158.347 32.835 10
      vertex 158.347 32.835 0
    endloop
  endfacet
  facet normal -0.955696 0.294354 0
    outer loop
      vertex 155.989 27.26 10
      vertex 156.99 30.51 10
      vertex 155.989 27.26 0
    endloop
  endfacet
  facet normal -0.955696 0.294354 0
    outer loop
      vertex 155.989 27.26 0
      vertex 156.99 30.51 10
      vertex 156.99 30.51 0
    endloop
  endfacet
  facet normal -0.972064 0.234717 0
    outer loop
      vertex 155.19 23.951 10
      vertex 155.989 27.26 10
      vertex 155.19 23.951 0
    endloop
  endfacet
  facet normal -0.972064 0.234717 0
    outer loop
      vertex 155.19 23.951 0
      vertex 155.989 27.26 10
      vertex 155.989 27.26 0
    endloop
  endfacet
  facet normal -0.986537 0.16354 0
    outer loop
      vertex 154.634 20.597 10
      vertex 155.19 23.951 10
      vertex 154.634 20.597 0
    endloop
  endfacet
  facet normal -0.986537 0.16354 0
    outer loop
      vertex 154.634 20.597 0
      vertex 155.19 23.951 10
      vertex 155.19 23.951 0
    endloop
  endfacet
  facet normal 0.423544 0.905876 0
    outer loop
      vertex 173.809 25.079 10
      vertex 175.165 24.445 10
      vertex 173.809 25.079 0
    endloop
  endfacet
  facet normal 0.423544 0.905876 0
    outer loop
      vertex 173.809 25.079 0
      vertex 175.165 24.445 10
      vertex 175.165 24.445 0
    endloop
  endfacet
  facet normal 0.895882 -0.444293 0
    outer loop
      vertex 173.809 25.079 0
      vertex 175.575 28.64 0
      vertex 175.575 28.64 10
    endloop
  endfacet
  facet normal 0.895882 -0.444293 0
    outer loop
      vertex 173.809 25.079 10
      vertex 173.809 25.079 0
      vertex 175.575 28.64 10
    endloop
  endfacet
  facet normal 0.867171 -0.49801 0
    outer loop
      vertex 175.575 28.64 0
      vertex 177.666 32.281 0
      vertex 177.666 32.281 10
    endloop
  endfacet
  facet normal 0.867171 -0.49801 0
    outer loop
      vertex 175.575 28.64 10
      vertex 175.575 28.64 0
      vertex 177.666 32.281 10
    endloop
  endfacet
  facet normal 0.811119 -0.584881 0
    outer loop
      vertex 177.666 32.281 0
      vertex 180.259 35.877 0
      vertex 180.259 35.877 10
    endloop
  endfacet
  facet normal 0.811119 -0.584881 0
    outer loop
      vertex 177.666 32.281 10
      vertex 177.666 32.281 0
      vertex 180.259 35.877 10
    endloop
  endfacet
  facet normal 0.807539 -0.589814 0
    outer loop
      vertex 180.259 35.877 0
      vertex 183.033 39.675 0
      vertex 183.033 39.675 10
    endloop
  endfacet
  facet normal 0.807539 -0.589814 0
    outer loop
      vertex 180.259 35.877 10
      vertex 180.259 35.877 0
      vertex 183.033 39.675 10
    endloop
  endfacet
  facet normal 0.792637 -0.609694 0
    outer loop
      vertex 183.033 39.675 0
      vertex 184.776 41.941 0
      vertex 184.776 41.941 10
    endloop
  endfacet
  facet normal 0.792637 -0.609694 0
    outer loop
      vertex 183.033 39.675 10
      vertex 183.033 39.675 0
      vertex 184.776 41.941 10
    endloop
  endfacet
  facet normal 0.726906 -0.686737 0
    outer loop
      vertex 184.776 41.941 0
      vertex 186.725 44.004 0
      vertex 186.725 44.004 10
    endloop
  endfacet
  facet normal 0.726906 -0.686737 0
    outer loop
      vertex 184.776 41.941 10
      vertex 184.776 41.941 0
      vertex 186.725 44.004 10
    endloop
  endfacet
  facet normal 0.756535 -0.653954 0
    outer loop
      vertex 186.725 44.004 0
      vertex 190.448 48.311 0
      vertex 190.448 48.311 10
    endloop
  endfacet
  facet normal 0.756535 -0.653954 0
    outer loop
      vertex 186.725 44.004 10
      vertex 186.725 44.004 0
      vertex 190.448 48.311 10
    endloop
  endfacet
  facet normal 0.700088 -0.714056 0
    outer loop
      vertex 190.448 48.311 0
      vertex 193.413 51.218 0
      vertex 193.413 51.218 10
    endloop
  endfacet
  facet normal 0.700088 -0.714056 0
    outer loop
      vertex 190.448 48.311 10
      vertex 190.448 48.311 0
      vertex 193.413 51.218 10
    endloop
  endfacet
  facet normal 0.573327 -0.819327 0
    outer loop
      vertex 193.413 51.218 0
      vertex 197.473 54.059 0
      vertex 197.473 54.059 10
    endloop
  endfacet
  facet normal 0.573327 -0.819327 0
    outer loop
      vertex 193.413 51.218 10
      vertex 193.413 51.218 0
      vertex 197.473 54.059 10
    endloop
  endfacet
  facet normal 0.359195 -0.933262 0
    outer loop
      vertex 197.473 54.059 0
      vertex 202.103 55.841 0
      vertex 202.103 55.841 10
    endloop
  endfacet
  facet normal 0.359195 -0.933262 0
    outer loop
      vertex 197.473 54.059 10
      vertex 197.473 54.059 0
      vertex 202.103 55.841 10
    endloop
  endfacet
  facet normal -0.0567944 -0.998386 0
    outer loop
      vertex 202.103 55.841 0
      vertex 206.779 55.575 0
      vertex 206.779 55.575 10
    endloop
  endfacet
  facet normal -0.0567944 -0.998386 0
    outer loop
      vertex 202.103 55.841 10
      vertex 202.103 55.841 0
      vertex 206.779 55.575 10
    endloop
  endfacet
  facet normal -0.993058 -0.117629 0
    outer loop
      vertex 207.195 52.063 0
      vertex 207.195 52.063 10
      vertex 206.779 55.575 0
    endloop
  endfacet
  facet normal -0.993058 -0.117629 0
    outer loop
      vertex 206.779 55.575 0
      vertex 207.195 52.063 10
      vertex 206.779 55.575 10
    endloop
  endfacet
  facet normal -0.963065 0.269269 0
    outer loop
      vertex 206.255 48.701 10
      vertex 207.195 52.063 10
      vertex 206.255 48.701 0
    endloop
  endfacet
  facet normal -0.963065 0.269269 0
    outer loop
      vertex 206.255 48.701 0
      vertex 207.195 52.063 10
      vertex 207.195 52.063 0
    endloop
  endfacet
  facet normal -0.888901 0.4581 0
    outer loop
      vertex 204.107 44.533 10
      vertex 206.255 48.701 10
      vertex 204.107 44.533 0
    endloop
  endfacet
  facet normal -0.888901 0.4581 0
    outer loop
      vertex 204.107 44.533 0
      vertex 206.255 48.701 10
      vertex 206.255 48.701 0
    endloop
  endfacet
  facet normal -0.733391 0.679807 0
    outer loop
      vertex 200.948 41.125 10
      vertex 204.107 44.533 10
      vertex 200.948 41.125 0
    endloop
  endfacet
  facet normal -0.733391 0.679807 0
    outer loop
      vertex 200.948 41.125 0
      vertex 204.107 44.533 10
      vertex 204.107 44.533 0
    endloop
  endfacet
  facet normal -0.66761 0.744512 0
    outer loop
      vertex 197.424 37.965 10
      vertex 200.948 41.125 10
      vertex 197.424 37.965 0
    endloop
  endfacet
  facet normal -0.66761 0.744512 0
    outer loop
      vertex 197.424 37.965 0
      vertex 200.948 41.125 10
      vertex 200.948 41.125 0
    endloop
  endfacet
  facet normal -0.621802 0.783174 0
    outer loop
      vertex 193.721 35.025 10
      vertex 197.424 37.965 10
      vertex 193.721 35.025 0
    endloop
  endfacet
  facet normal -0.621802 0.783174 0
    outer loop
      vertex 193.721 35.025 0
      vertex 197.424 37.965 10
      vertex 197.424 37.965 0
    endloop
  endfacet
  facet normal -0.594336 0.804217 0
    outer loop
      vertex 190.031 32.298 10
      vertex 193.721 35.025 10
      vertex 190.031 32.298 0
    endloop
  endfacet
  facet normal -0.594336 0.804217 0
    outer loop
      vertex 190.031 32.298 0
      vertex 193.721 35.025 10
      vertex 193.721 35.025 0
    endloop
  endfacet
  facet normal -0.487724 0.872998 0
    outer loop
      vertex 186.009 30.051 10
      vertex 190.031 32.298 10
      vertex 186.009 30.051 0
    endloop
  endfacet
  facet normal -0.487724 0.872998 0
    outer loop
      vertex 186.009 30.051 0
      vertex 190.031 32.298 10
      vertex 190.031 32.298 0
    endloop
  endfacet
  facet normal -0.472066 0.881563 0
    outer loop
      vertex 182.078 27.946 10
      vertex 186.009 30.051 10
      vertex 182.078 27.946 0
    endloop
  endfacet
  facet normal -0.472066 0.881563 0
    outer loop
      vertex 182.078 27.946 0
      vertex 186.009 30.051 10
      vertex 186.009 30.051 0
    endloop
  endfacet
  facet normal -0.400854 0.916142 0
    outer loop
      vertex 178.035 26.177 10
      vertex 182.078 27.946 10
      vertex 178.035 26.177 0
    endloop
  endfacet
  facet normal -0.400854 0.916142 0
    outer loop
      vertex 178.035 26.177 0
      vertex 182.078 27.946 10
      vertex 182.078 27.946 0
    endloop
  endfacet
  facet normal -0.516688 0.856174 0
    outer loop
      vertex 175.165 24.445 10
      vertex 178.035 26.177 10
      vertex 175.165 24.445 0
    endloop
  endfacet
  facet normal -0.516688 0.856174 0
    outer loop
      vertex 175.165 24.445 0
      vertex 178.035 26.177 10
      vertex 178.035 26.177 0
    endloop
  endfacet
endsolid OpenSCAD_Model
