solid OpenSCAD_Model
  facet normal 0.95931 0.282354 0
    outer loop
      vertex 15.83 136.835 0
      vertex 15.83 136.835 10
      vertex 16.645 134.066 10
    endloop
  endfacet
  facet normal 0.95931 0.282354 0
    outer loop
      vertex 16.645 134.066 0
      vertex 15.83 136.835 0
      vertex 16.645 134.066 10
    endloop
  endfacet
  facet normal 0 0 -1
    outer loop
      vertex 14.332 135.559 0
      vertex 15.83 136.835 0
      vertex 14.204 133.367 0
    endloop
  endfacet
  facet normal 0 0 -1
    outer loop
      vertex 14.204 133.367 0
      vertex 15.83 136.835 0
      vertex 16.645 134.066 0
    endloop
  endfacet
  facet normal 0 0 -1
    outer loop
      vertex 14.204 133.367 0
      vertex 16.645 134.066 0
      vertex 17.538 131.382 0
    endloop
  endfacet
  facet normal 0 0 -1
    outer loop
      vertex 17.538 131.382 0
      vertex 18.489 128.79 0
      vertex 14.204 133.367 0
    endloop
  endfacet
  facet normal 0 0 -1
    outer loop
      vertex 18.489 128.79 0
      vertex 19.477 126.294 0
      vertex 14.204 133.367 0
    endloop
  endfacet
  facet normal 0 0 -1
    outer loop
      vertex 14.204 133.367 0
      vertex 19.477 126.294 0
      vertex 20.099 124.223 0
    endloop
  endfacet
  facet normal 0 0 -1
    outer loop
      vertex 14.204 133.367 0
      vertex 20.099 124.223 0
      vertex 20.973 122.091 0
    endloop
  endfacet
  facet normal 0 0 -1
    outer loop
      vertex 20.973 122.091 0
      vertex 22.219 119.725 0
      vertex 14.204 133.367 0
    endloop
  endfacet
  facet normal 0 0 -1
    outer loop
      vertex 22.219 119.725 0
      vertex 23.302 117.938 0
      vertex 24.169 116.357 0
    endloop
  endfacet
  facet normal 0 0 -1
    outer loop
      vertex 22.219 119.725 0
      vertex 24.169 116.357 0
      vertex 14.204 133.367 0
    endloop
  endfacet
  facet normal 0 0 -1
    outer loop
      vertex 14.204 133.367 0
      vertex 24.169 116.357 0
      vertex 25.662 113.51 0
    endloop
  endfacet
  facet normal 0 0 -1
    outer loop
      vertex 25.662 113.51 0
      vertex 27.351 110.394 0
      vertex 14.204 133.367 0
    endloop
  endfacet
  facet normal 0 0 -1
    outer loop
      vertex 27.351 110.394 0
      vertex 61.229 46.005 0
      vertex 14.204 133.367 0
    endloop
  endfacet
  facet normal 0 0 -1
    outer loop
      vertex 29.65 110.164 0
      vertex 30.197 113.065 0
      vertex 30.802 116.046 0
    endloop
  endfacet
  facet normal 0 0 -1
    outer loop
      vertex 29.65 110.164 0
      vertex 30.802 116.046 0
      vertex 29.136 107.517 0
    endloop
  endfacet
  facet normal 0 0 -1
    outer loop
      vertex 29.136 107.517 0
      vertex 30.802 116.046 0
      vertex 31.488 118.935 0
    endloop
  endfacet
  facet normal 0 0 -1
    outer loop
      vertex 31.488 118.935 0
      vertex 32.002 122.389 0
      vertex 32.72 125.807 0
    endloop
  endfacet
  facet normal 0 0 -1
    outer loop
      vertex 31.488 118.935 0
      vertex 32.72 125.807 0
      vertex 33.524 129.21 0
    endloop
  endfacet
  facet normal 0 0 -1
    outer loop
      vertex 33.524 129.21 0
      vertex 34.293 132.618 0
      vertex 31.488 118.935 0
    endloop
  endfacet
  facet normal 0 0 -1
    outer loop
      vertex 31.488 118.935 0
      vertex 34.293 132.618 0
      vertex 35.804 136.375 0
    endloop
  endfacet
  facet normal 0 0 -1
    outer loop
      vertex 31.488 118.935 0
      vertex 35.804 136.375 0
      vertex 29.136 107.517 0
    endloop
  endfacet
  facet normal 0 0 -1
    outer loop
      vertex 35.804 136.375 0
      vertex 37.184 140.502 0
      vertex 29.136 107.517 0
    endloop
  endfacet
  facet normal 0 0 -1
    outer loop
      vertex 29.136 107.517 0
      vertex 37.184 140.502 0
      vertex 38.792 144.524 0
    endloop
  endfacet
  facet normal 0 0 -1
    outer loop
      vertex 29.136 107.517 0
      vertex 38.792 144.524 0
      vertex 40.987 147.969 0
    endloop
  endfacet
  facet normal 0 0 -1
    outer loop
      vertex 40.987 147.969 0
      vertex 42.977 151.955 0
      vertex 29.136 107.517 0
    endloop
  endfacet
  facet normal 0 0 -1
    outer loop
      vertex 29.136 107.517 0
      vertex 42.977 151.955 0
      vertex 45.698 155.587 0
    endloop
  endfacet
  facet normal 0 0 -1
    outer loop
      vertex 29.136 107.517 0
      vertex 45.698 155.587 0
      vertex 49.109 158.299 0
    endloop
  endfacet
  facet normal 0 0 -1
    outer loop
      vertex 29.136 107.517 0
      vertex 49.109 158.299 0
      vertex 53.168 159.521 0
    endloop
  endfacet
  facet normal 0 0 -1
    outer loop
      vertex 29.136 107.517 0
      vertex 53.168 159.521 0
      vertex 53.925 159.348 0
    endloop
  endfacet
  facet normal 0 0 -1
    outer loop
      vertex 29.136 107.517 0
      vertex 53.925 159.348 0
      vertex 54.683 159.175 0
    endloop
  endfacet
  facet normal 0 0 -1
    outer loop
      vertex 29.136 107.517 0
      vertex 54.683 159.175 0
      vertex 55.441 159.002 0
    endloop
  endfacet
  facet normal 0 0 -1
    outer loop
      vertex 29.136 107.517 0
      vertex 55.441 159.002 0
      vertex 56.198 158.829 0
    endloop
  endfacet
  facet normal 0 0 -1
    outer loop
      vertex 29.136 107.517 0
      vertex 56.198 158.829 0
      vertex 58.834 156.802 0
    endloop
  endfacet
  facet normal 0 0 -1
    outer loop
      vertex 29.136 107.517 0
      vertex 58.834 156.802 0
      vertex 61.195 154.581 0
    endloop
  endfacet
  facet normal 0 0 -1
    outer loop
      vertex 29.136 107.517 0
      vertex 61.195 154.581 0
      vertex 63.215 152.132 0
    endloop
  endfacet
  facet normal 0 0 -1
    outer loop
      vertex 29.136 107.517 0
      vertex 63.215 152.132 0
      vertex 64.828 149.421 0
    endloop
  endfacet
  facet normal 0 0 -1
    outer loop
      vertex 29.136 107.517 0
      vertex 64.828 149.421 0
      vertex 65.806 147.416 0
    endloop
  endfacet
  facet normal 0 0 -1
    outer loop
      vertex 29.136 107.517 0
      vertex 65.806 147.416 0
      vertex 66.689 145.318 0
    endloop
  endfacet
  facet normal 0 0 -1
    outer loop
      vertex 29.136 107.517 0
      vertex 66.689 145.318 0
      vertex 67.629 143.391 0
    endloop
  endfacet
  facet normal 0 0 -1
    outer loop
      vertex 67.629 143.391 0
      vertex 68.779 141.901 0
      vertex 29.136 107.517 0
    endloop
  endfacet
  facet normal 0 0 -1
    outer loop
      vertex 29.136 107.517 0
      vertex 68.779 141.901 0
      vertex 69.562 138.27 0
    endloop
  endfacet
  facet normal 0 0 -1
    outer loop
      vertex 50.51 122.71 0
      vertex 69.562 138.27 0
      vertex 70.657 134.81 0
    endloop
  endfacet
  facet normal 0 0 -1
    outer loop
      vertex 57.167 123.267 0
      vertex 70.657 134.81 0
      vertex 71.704 131.36 0
    endloop
  endfacet
  facet normal 0 0 -1
    outer loop
      vertex 62.186 121.102 0
      vertex 72.346 127.755 0
      vertex 73.182 125.137 0
    endloop
  endfacet
  facet normal 0 0 -1
    outer loop
      vertex 64.07 119.757 0
      vertex 73.182 125.137 0
      vertex 73.2 122.23 0
    endloop
  endfacet
  facet normal 0 0 -1
    outer loop
      vertex 65.851 118.126 0
      vertex 73.2 122.23 0
      vertex 73.096 119.229 0
    endloop
  endfacet
  facet normal 0 0 -1
    outer loop
      vertex 67.535 116.435 0
      vertex 73.096 119.229 0
      vertex 73.565 116.33 0
    endloop
  endfacet
  facet normal 0 0 -1
    outer loop
      vertex 69.098 115.142 0
      vertex 73.565 116.33 0
      vertex 72.418 114.867 0
    endloop
  endfacet
  facet normal 0 0 -1
    outer loop
      vertex 29.187 56.448 0
      vertex 33.914 30.784 0
      vertex 30.551 46.545 0
    endloop
  endfacet
  facet normal 0 0 -1
    outer loop
      vertex 29.187 56.448 0
      vertex 30.551 46.545 0
      vertex 29.33 52.944 0
    endloop
  endfacet
  facet normal 0 0 -1
    outer loop
      vertex 67.535 116.435 0
      vertex 73.565 116.33 0
      vertex 69.098 115.142 0
    endloop
  endfacet
  facet normal 0 0 -1
    outer loop
      vertex 65.851 118.126 0
      vertex 73.096 119.229 0
      vertex 67.535 116.435 0
    endloop
  endfacet
  facet normal 0 0 -1
    outer loop
      vertex 64.07 119.757 0
      vertex 73.2 122.23 0
      vertex 65.851 118.126 0
    endloop
  endfacet
  facet normal 0 0 -1
    outer loop
      vertex 57.167 123.267 0
      vertex 72.346 127.755 0
      vertex 60.19 121.932 0
    endloop
  endfacet
  facet normal 0 0 -1
    outer loop
      vertex 62.186 121.102 0
      vertex 73.182 125.137 0
      vertex 64.07 119.757 0
    endloop
  endfacet
  facet normal 0 0 -1
    outer loop
      vertex 60.19 121.932 0
      vertex 72.346 127.755 0
      vertex 62.186 121.102 0
    endloop
  endfacet
  facet normal 0 0 -1
    outer loop
      vertex 57.167 123.267 0
      vertex 71.704 131.36 0
      vertex 72.346 127.755 0
    endloop
  endfacet
  facet normal 0 0 -1
    outer loop
      vertex 53.811 123.501 0
      vertex 70.657 134.81 0
      vertex 57.167 123.267 0
    endloop
  endfacet
  facet normal 0 0 -1
    outer loop
      vertex 50.51 122.71 0
      vertex 70.657 134.81 0
      vertex 53.811 123.501 0
    endloop
  endfacet
  facet normal 0 0 -1
    outer loop
      vertex 47.651 120.966 0
      vertex 69.562 138.27 0
      vertex 50.51 122.71 0
    endloop
  endfacet
  facet normal 0 0 -1
    outer loop
      vertex 44.602 118.108 0
      vertex 29.136 107.517 0
      vertex 47.651 120.966 0
    endloop
  endfacet
  facet normal 0 0 -1
    outer loop
      vertex 29.136 107.517 0
      vertex 69.562 138.27 0
      vertex 47.651 120.966 0
    endloop
  endfacet
  facet normal 0 0 -1
    outer loop
      vertex 42.436 114.613 0
      vertex 29.136 107.517 0
      vertex 44.602 118.108 0
    endloop
  endfacet
  facet normal 0 0 -1
    outer loop
      vertex 39.094 107.644 0
      vertex 29.136 107.517 0
      vertex 40.519 110.59 0
    endloop
  endfacet
  facet normal 0 0 -1
    outer loop
      vertex 30.551 46.545 0
      vertex 32.311 35.824 0
      vertex 30.963 41.216 0
    endloop
  endfacet
  facet normal 0 0 -1
    outer loop
      vertex 29.136 107.517 0
      vertex 61.229 46.005 0
      vertex 27.351 110.394 0
    endloop
  endfacet
  facet normal 0 0 -1
    outer loop
      vertex 39.094 107.644 0
      vertex 38.044 105.172 0
      vertex 29.136 107.517 0
    endloop
  endfacet
  facet normal 0 0 -1
    outer loop
      vertex 38.044 105.172 0
      vertex 36.897 100.85 0
      vertex 29.136 107.517 0
    endloop
  endfacet
  facet normal 0 0 -1
    outer loop
      vertex 36.897 100.85 0
      vertex 37.014 96.516 0
      vertex 29.136 107.517 0
    endloop
  endfacet
  facet normal 0 0 -1
    outer loop
      vertex 37.014 96.516 0
      vertex 39.317 93.26 0
      vertex 29.136 107.517 0
    endloop
  endfacet
  facet normal 0 0 -1
    outer loop
      vertex 39.317 93.26 0
      vertex 61.229 46.005 0
      vertex 29.136 107.517 0
    endloop
  endfacet
  facet normal 0 0 -1
    outer loop
      vertex 40.508 91.912 0
      vertex 61.229 46.005 0
      vertex 39.317 93.26 0
    endloop
  endfacet
  facet normal 0 0 -1
    outer loop
      vertex 42.58 89.732 0
      vertex 43.704 88.6 0
      vertex 44.677 87.524 0
    endloop
  endfacet
  facet normal 0 0 -1
    outer loop
      vertex 42.58 89.732 0
      vertex 44.677 87.524 0
      vertex 41.421 90.922 0
    endloop
  endfacet
  facet normal 0 0 -1
    outer loop
      vertex 41.421 90.922 0
      vertex 44.677 87.524 0
      vertex 46.31 85.704 0
    endloop
  endfacet
  facet normal 0 0 -1
    outer loop
      vertex 41.421 90.922 0
      vertex 61.229 46.005 0
      vertex 40.508 91.912 0
    endloop
  endfacet
  facet normal 0 0 -1
    outer loop
      vertex 46.31 85.704 0
      vertex 61.229 46.005 0
      vertex 41.421 90.922 0
    endloop
  endfacet
  facet normal 0 0 -1
    outer loop
      vertex 48.468 83.484 0
      vertex 50.317 81.744 0
      vertex 51.906 80.17 0
    endloop
  endfacet
  facet normal 0 0 -1
    outer loop
      vertex 48.468 83.484 0
      vertex 51.906 80.17 0
      vertex 54.727 77.364 0
    endloop
  endfacet
  facet normal 0 0 -1
    outer loop
      vertex 48.468 83.484 0
      vertex 61.229 46.005 0
      vertex 46.31 85.704 0
    endloop
  endfacet
  facet normal 0 0 -1
    outer loop
      vertex 54.727 77.364 0
      vertex 61.229 46.005 0
      vertex 48.468 83.484 0
    endloop
  endfacet
  facet normal 0 0 -1
    outer loop
      vertex 57.927 74.434 0
      vertex 61.209 72.02 0
      vertex 64.039 69.791 0
    endloop
  endfacet
  facet normal 0 0 -1
    outer loop
      vertex 57.927 74.434 0
      vertex 64.039 69.791 0
      vertex 61.229 46.005 0
    endloop
  endfacet
  facet normal 0 0 -1
    outer loop
      vertex 57.927 74.434 0
      vertex 61.229 46.005 0
      vertex 54.727 77.364 0
    endloop
  endfacet
  facet normal 0 0 -1
    outer loop
      vertex 14.204 133.367 0
      vertex 61.229 46.005 0
      vertex 59.175 48.814 0
    endloop
  endfacet
  facet normal 0 0 -1
    outer loop
      vertex 14.204 133.367 0
      vertex 59.175 48.814 0
      vertex 57.232 51.117 0
    endloop
  endfacet
  facet normal 0 0 -1
    outer loop
      vertex 14.204 133.367 0
      vertex 57.232 51.117 0
      vertex 56.06 53.049 0
    endloop
  endfacet
  facet normal 0 0 -1
    outer loop
      vertex 14.204 133.367 0
      vertex 56.06 53.049 0
      vertex 54.048 55.093 0
    endloop
  endfacet
  facet normal 0 0 -1
    outer loop
      vertex 54.048 55.093 0
      vertex 51.925 57.022 0
      vertex 14.204 133.367 0
    endloop
  endfacet
  facet normal 0 0 -1
    outer loop
      vertex 14.204 133.367 0
      vertex 51.925 57.022 0
      vertex 50.729 58.175 0
    endloop
  endfacet
  facet normal 0 0 -1
    outer loop
      vertex 14.204 133.367 0
      vertex 50.729 58.175 0
      vertex 50.317 58.678 0
    endloop
  endfacet
  facet normal 0 0 -1
    outer loop
      vertex 14.204 133.367 0
      vertex 50.317 58.678 0
      vertex 49.538 59.56 0
    endloop
  endfacet
  facet normal 0 0 -1
    outer loop
      vertex 49.538 59.56 0
      vertex 48.324 60.902 0
      vertex 14.204 133.367 0
    endloop
  endfacet
  facet normal 0 0 -1
    outer loop
      vertex 48.324 60.902 0
      vertex 47.183 62.173 0
      vertex 14.204 133.367 0
    endloop
  endfacet
  facet normal 0 0 -1
    outer loop
      vertex 47.183 62.173 0
      vertex 46.21 63.202 0
      vertex 14.204 133.367 0
    endloop
  endfacet
  facet normal 0 0 -1
    outer loop
      vertex 46.21 63.202 0
      vertex 44.533 64.924 0
      vertex 14.204 133.367 0
    endloop
  endfacet
  facet normal 0 0 -1
    outer loop
      vertex 44.533 64.924 0
      vertex 42.633 66.852 0
      vertex 14.204 133.367 0
    endloop
  endfacet
  facet normal 0 0 -1
    outer loop
      vertex 14.204 133.367 0
      vertex 42.633 66.852 0
      vertex 40.624 68.914 0
    endloop
  endfacet
  facet normal 0 0 -1
    outer loop
      vertex 14.204 133.367 0
      vertex 40.624 68.914 0
      vertex 38.943 71.212 0
    endloop
  endfacet
  facet normal 0 0 -1
    outer loop
      vertex 14.204 133.367 0
      vertex 38.943 71.212 0
      vertex 36.566 73.845 0
    endloop
  endfacet
  facet normal 0 0 -1
    outer loop
      vertex 36.566 73.845 0
      vertex 34.733 75.031 0
      vertex 14.204 133.367 0
    endloop
  endfacet
  facet normal 0 0 -1
    outer loop
      vertex 34.733 75.031 0
      vertex 34.686 72.986 0
      vertex 14.204 133.367 0
    endloop
  endfacet
  facet normal 0 0 -1
    outer loop
      vertex 14.204 133.367 0
      vertex 34.686 72.986 0
      vertex 34.395 70.087 0
    endloop
  endfacet
  facet normal 0 0 -1
    outer loop
      vertex 34.395 70.087 0
      vertex 34.494 67.099 0
      vertex 14.204 133.367 0
    endloop
  endfacet
  facet normal 0 0 -1
    outer loop
      vertex 34.494 67.099 0
      vertex 34.784 64.059 0
      vertex 14.204 133.367 0
    endloop
  endfacet
  facet normal 0 0 -1
    outer loop
      vertex 14.204 133.367 0
      vertex 34.784 64.059 0
      vertex 35.064 61.003 0
    endloop
  endfacet
  facet normal 0 0 -1
    outer loop
      vertex 35.064 61.003 0
      vertex 35.796 55.605 0
      vertex 14.204 133.367 0
    endloop
  endfacet
  facet normal 0 0 -1
    outer loop
      vertex 35.796 55.605 0
      vertex 36.569 50.026 0
      vertex 14.204 133.367 0
    endloop
  endfacet
  facet normal 0 0 -1
    outer loop
      vertex 36.569 50.026 0
      vertex 37.477 44.532 0
      vertex 14.204 133.367 0
    endloop
  endfacet
  facet normal 0 0 -1
    outer loop
      vertex 37.477 44.532 0
      vertex 38.199 40.97 0
      vertex 14.204 133.367 0
    endloop
  endfacet
  facet normal 0 0 -1
    outer loop
      vertex 27.288 82.771 0
      vertex 38.199 40.97 0
      vertex 38.462 39.47 0
    endloop
  endfacet
  facet normal 0 0 -1
    outer loop
      vertex 39.969 31.413 0
      vertex 41.038 28.228 0
      vertex 42.186 24.225 0
    endloop
  endfacet
  facet normal 0 0 -1
    outer loop
      vertex 39.969 31.413 0
      vertex 42.186 24.225 0
      vertex 39.39 33.162 0
    endloop
  endfacet
  facet normal 0 0 -1
    outer loop
      vertex 39.39 33.162 0
      vertex 42.186 24.225 0
      vertex 42.895 21.112 0
    endloop
  endfacet
  facet normal 0 0 -1
    outer loop
      vertex 43.889 18.985 0
      vertex 49.609 6.567 0
      vertex 42.895 21.112 0
    endloop
  endfacet
  facet normal 0 0 -1
    outer loop
      vertex 46.028 15.59 0
      vertex 49.609 6.567 0
      vertex 43.889 18.985 0
    endloop
  endfacet
  facet normal 0 0 -1
    outer loop
      vertex 48.51 12.33 0
      vertex 50.658 9.786 0
      vertex 49.609 6.567 0
    endloop
  endfacet
  facet normal 0 0 -1
    outer loop
      vertex 48.51 12.33 0
      vertex 49.609 6.567 0
      vertex 46.028 15.59 0
    endloop
  endfacet
  facet normal 0 0 -1
    outer loop
      vertex 42.895 21.112 0
      vertex 49.609 6.567 0
      vertex 46.234 4.482 0
    endloop
  endfacet
  facet normal 0 0 -1
    outer loop
      vertex 42.895 21.112 0
      vertex 46.234 4.482 0
      vertex 39.39 33.162 0
    endloop
  endfacet
  facet normal 0 0 -1
    outer loop
      vertex 27.483 77.077 0
      vertex 46.234 4.482 0
      vertex 42.582 4.9 0
    endloop
  endfacet
  facet normal 0 0 -1
    outer loop
      vertex 27.569 72.628 0
      vertex 42.582 4.9 0
      vertex 40.699 9.19 0
    endloop
  endfacet
  facet normal 0 0 -1
    outer loop
      vertex 28.58 63.952 0
      vertex 40.699 9.19 0
      vertex 38.688 13.693 0
    endloop
  endfacet
  facet normal 0 0 -1
    outer loop
      vertex 29.085 59.611 0
      vertex 38.688 13.693 0
      vertex 37.123 18.268 0
    endloop
  endfacet
  facet normal 0 0 -1
    outer loop
      vertex 29.187 56.448 0
      vertex 34.854 27.73 0
      vertex 33.914 30.784 0
    endloop
  endfacet
  facet normal 0 0 -1
    outer loop
      vertex 33.914 30.784 0
      vertex 32.311 35.824 0
      vertex 30.551 46.545 0
    endloop
  endfacet
  facet normal 0 0 -1
    outer loop
      vertex 29.716 49.507 0
      vertex 29.33 52.944 0
      vertex 30.551 46.545 0
    endloop
  endfacet
  facet normal 0 0 -1
    outer loop
      vertex 27.288 82.771 0
      vertex 46.234 4.482 0
      vertex 27.483 77.077 0
    endloop
  endfacet
  facet normal 0 0 -1
    outer loop
      vertex 29.085 59.611 0
      vertex 37.123 18.268 0
      vertex 35.764 23.547 0
    endloop
  endfacet
  facet normal 0 0 -1
    outer loop
      vertex 28.58 63.952 0
      vertex 38.688 13.693 0
      vertex 29.085 59.611 0
    endloop
  endfacet
  facet normal 0 0 -1
    outer loop
      vertex 28.004 68.272 0
      vertex 40.699 9.19 0
      vertex 28.58 63.952 0
    endloop
  endfacet
  facet normal 0 0 -1
    outer loop
      vertex 27.569 72.628 0
      vertex 40.699 9.19 0
      vertex 28.004 68.272 0
    endloop
  endfacet
  facet normal 0 0 -1
    outer loop
      vertex 27.288 82.771 0
      vertex 39.39 33.162 0
      vertex 46.234 4.482 0
    endloop
  endfacet
  facet normal 0 0 -1
    outer loop
      vertex 27.483 77.077 0
      vertex 42.582 4.9 0
      vertex 27.569 72.628 0
    endloop
  endfacet
  facet normal 0 0 -1
    outer loop
      vertex 27.288 82.771 0
      vertex 38.462 39.47 0
      vertex 38.722 37.375 0
    endloop
  endfacet
  facet normal 0 0 -1
    outer loop
      vertex 14.204 133.367 0
      vertex 38.199 40.97 0
      vertex 27.288 82.771 0
    endloop
  endfacet
  facet normal 0 0 -1
    outer loop
      vertex 23.781 92.243 0
      vertex 14.204 133.367 0
      vertex 25.969 87.496 0
    endloop
  endfacet
  facet normal 0 0 -1
    outer loop
      vertex 20.977 98.005 0
      vertex 15.302 128.472 0
      vertex 23.781 92.243 0
    endloop
  endfacet
  facet normal 0 0 -1
    outer loop
      vertex 27.288 82.771 0
      vertex 38.722 37.375 0
      vertex 39.036 35.048 0
    endloop
  endfacet
  facet normal 0 0 -1
    outer loop
      vertex 29.085 59.611 0
      vertex 34.854 27.73 0
      vertex 29.187 56.448 0
    endloop
  endfacet
  facet normal 0 0 -1
    outer loop
      vertex 29.085 59.611 0
      vertex 35.764 23.547 0
      vertex 34.854 27.73 0
    endloop
  endfacet
  facet normal 0 0 -1
    outer loop
      vertex 15.485 125.031 0
      vertex 19.234 102.281 0
      vertex 17.887 106.419 0
    endloop
  endfacet
  facet normal 0 0 -1
    outer loop
      vertex 16.417 115.011 0
      vertex 17.887 106.419 0
      vertex 16.945 110.601 0
    endloop
  endfacet
  facet normal 0 0 -1
    outer loop
      vertex 15.687 121.644 0
      vertex 17.887 106.419 0
      vertex 16.417 115.011 0
    endloop
  endfacet
  facet normal 0 0 -1
    outer loop
      vertex 15.687 121.644 0
      vertex 16.417 115.011 0
      vertex 15.975 118.306 0
    endloop
  endfacet
  facet normal 0 0 -1
    outer loop
      vertex 15.302 128.472 0
      vertex 19.234 102.281 0
      vertex 15.485 125.031 0
    endloop
  endfacet
  facet normal 0 0 -1
    outer loop
      vertex 15.485 125.031 0
      vertex 17.887 106.419 0
      vertex 15.687 121.644 0
    endloop
  endfacet
  facet normal 0 0 -1
    outer loop
      vertex 15.302 128.472 0
      vertex 20.977 98.005 0
      vertex 19.234 102.281 0
    endloop
  endfacet
  facet normal 0 0 -1
    outer loop
      vertex 14.204 133.367 0
      vertex 23.781 92.243 0
      vertex 15.302 128.472 0
    endloop
  endfacet
  facet normal 0 0 -1
    outer loop
      vertex 27.288 82.771 0
      vertex 39.036 35.048 0
      vertex 39.39 33.162 0
    endloop
  endfacet
  facet normal 0 0 -1
    outer loop
      vertex 69.098 115.142 0
      vertex 72.418 114.867 0
      vertex 70.828 114.545 0
    endloop
  endfacet
  facet normal 0 0 -1
    outer loop
      vertex 40.519 110.59 0
      vertex 29.136 107.517 0
      vertex 42.436 114.613 0
    endloop
  endfacet
  facet normal 0 0 -1
    outer loop
      vertex 14.757 130.818 0
      vertex 14.204 133.367 0
      vertex 15.302 128.472 0
    endloop
  endfacet
  facet normal 0 0 -1
    outer loop
      vertex 25.969 87.496 0
      vertex 14.204 133.367 0
      vertex 27.288 82.771 0
    endloop
  endfacet
  facet normal 0.94886 0.315697 0
    outer loop
      vertex 16.645 134.066 0
      vertex 16.645 134.066 10
      vertex 17.538 131.382 10
    endloop
  endfacet
  facet normal 0.94886 0.315697 0
    outer loop
      vertex 17.538 131.382 0
      vertex 16.645 134.066 0
      vertex 17.538 131.382 10
    endloop
  endfacet
  facet normal -0.648445 0.761262 0
    outer loop
      vertex 14.332 135.559 10
      vertex 15.83 136.835 10
      vertex 14.332 135.559 0
    endloop
  endfacet
  facet normal -0.648445 0.761262 0
    outer loop
      vertex 14.332 135.559 0
      vertex 15.83 136.835 10
      vertex 15.83 136.835 0
    endloop
  endfacet
  facet normal 0 0 1
    outer loop
      vertex 14.204 133.367 10
      vertex 14.757 130.818 10
      vertex 15.302 128.472 10
    endloop
  endfacet
  facet normal 0 0 1
    outer loop
      vertex 23.781 92.243 10
      vertex 14.204 133.367 10
      vertex 15.302 128.472 10
    endloop
  endfacet
  facet normal 0 0 1
    outer loop
      vertex 15.302 128.472 10
      vertex 15.485 125.031 10
      vertex 15.687 121.644 10
    endloop
  endfacet
  facet normal 0 0 1
    outer loop
      vertex 15.302 128.472 10
      vertex 15.687 121.644 10
      vertex 15.975 118.306 10
    endloop
  endfacet
  facet normal 0 0 1
    outer loop
      vertex 15.302 128.472 10
      vertex 16.417 115.011 10
      vertex 16.945 110.601 10
    endloop
  endfacet
  facet normal 0 0 1
    outer loop
      vertex 15.302 128.472 10
      vertex 15.975 118.306 10
      vertex 16.417 115.011 10
    endloop
  endfacet
  facet normal 0 0 1
    outer loop
      vertex 15.302 128.472 10
      vertex 16.945 110.601 10
      vertex 17.887 106.419 10
    endloop
  endfacet
  facet normal 0 0 1
    outer loop
      vertex 15.302 128.472 10
      vertex 17.887 106.419 10
      vertex 19.234 102.281 10
    endloop
  endfacet
  facet normal 0 0 1
    outer loop
      vertex 15.302 128.472 10
      vertex 19.234 102.281 10
      vertex 20.977 98.005 10
    endloop
  endfacet
  facet normal 0 0 1
    outer loop
      vertex 14.204 133.367 10
      vertex 23.781 92.243 10
      vertex 25.969 87.496 10
    endloop
  endfacet
  facet normal 0 0 1
    outer loop
      vertex 15.302 128.472 10
      vertex 20.977 98.005 10
      vertex 23.781 92.243 10
    endloop
  endfacet
  facet normal 0 0 1
    outer loop
      vertex 14.204 133.367 10
      vertex 25.969 87.496 10
      vertex 27.288 82.771 10
    endloop
  endfacet
  facet normal 0 0 1
    outer loop
      vertex 38.722 37.375 10
      vertex 38.462 39.47 10
      vertex 27.288 82.771 10
    endloop
  endfacet
  facet normal 0 0 1
    outer loop
      vertex 27.288 82.771 10
      vertex 27.483 77.077 10
      vertex 28.004 68.272 10
    endloop
  endfacet
  facet normal 0 0 1
    outer loop
      vertex 27.483 77.077 10
      vertex 27.569 72.628 10
      vertex 28.004 68.272 10
    endloop
  endfacet
  facet normal 0 0 1
    outer loop
      vertex 27.288 82.771 10
      vertex 28.004 68.272 10
      vertex 28.58 63.952 10
    endloop
  endfacet
  facet normal 0 0 1
    outer loop
      vertex 27.288 82.771 10
      vertex 28.58 63.952 10
      vertex 29.085 59.611 10
    endloop
  endfacet
  facet normal 0 0 1
    outer loop
      vertex 27.288 82.771 10
      vertex 29.085 59.611 10
      vertex 30.551 46.545 10
    endloop
  endfacet
  facet normal 0 0 1
    outer loop
      vertex 29.085 59.611 10
      vertex 29.187 56.448 10
      vertex 29.33 52.944 10
    endloop
  endfacet
  facet normal 0 0 1
    outer loop
      vertex 29.085 59.611 10
      vertex 29.33 52.944 10
      vertex 29.716 49.507 10
    endloop
  endfacet
  facet normal 0 0 1
    outer loop
      vertex 27.288 82.771 10
      vertex 30.551 46.545 10
      vertex 32.311 35.824 10
    endloop
  endfacet
  facet normal 0 0 1
    outer loop
      vertex 29.085 59.611 10
      vertex 29.716 49.507 10
      vertex 30.551 46.545 10
    endloop
  endfacet
  facet normal 0 0 1
    outer loop
      vertex 30.551 46.545 10
      vertex 30.963 41.216 10
      vertex 32.311 35.824 10
    endloop
  endfacet
  facet normal 0 0 1
    outer loop
      vertex 27.288 82.771 10
      vertex 33.914 30.784 10
      vertex 34.854 27.73 10
    endloop
  endfacet
  facet normal 0 0 1
    outer loop
      vertex 27.288 82.771 10
      vertex 32.311 35.824 10
      vertex 33.914 30.784 10
    endloop
  endfacet
  facet normal 0 0 1
    outer loop
      vertex 27.288 82.771 10
      vertex 34.854 27.73 10
      vertex 35.764 23.547 10
    endloop
  endfacet
  facet normal 0 0 1
    outer loop
      vertex 27.288 82.771 10
      vertex 35.764 23.547 10
      vertex 37.123 18.268 10
    endloop
  endfacet
  facet normal 0 0 1
    outer loop
      vertex 27.288 82.771 10
      vertex 37.123 18.268 10
      vertex 38.688 13.693 10
    endloop
  endfacet
  facet normal 0 0 1
    outer loop
      vertex 27.288 82.771 10
      vertex 40.699 9.19 10
      vertex 42.582 4.9 10
    endloop
  endfacet
  facet normal 0 0 1
    outer loop
      vertex 27.288 82.771 10
      vertex 38.688 13.693 10
      vertex 40.699 9.19 10
    endloop
  endfacet
  facet normal 0 0 1
    outer loop
      vertex 27.288 82.771 10
      vertex 42.582 4.9 10
      vertex 46.234 4.482 10
    endloop
  endfacet
  facet normal 0 0 1
    outer loop
      vertex 46.028 15.59 10
      vertex 46.234 4.482 10
      vertex 49.609 6.567 10
    endloop
  endfacet
  facet normal 0 0 1
    outer loop
      vertex 48.51 12.33 10
      vertex 49.609 6.567 10
      vertex 50.658 9.786 10
    endloop
  endfacet
  facet normal 0 0 1
    outer loop
      vertex 38.462 39.47 10
      vertex 38.199 40.97 10
      vertex 27.288 82.771 10
    endloop
  endfacet
  facet normal 0 0 1
    outer loop
      vertex 43.889 18.985 10
      vertex 46.234 4.482 10
      vertex 46.028 15.59 10
    endloop
  endfacet
  facet normal 0 0 1
    outer loop
      vertex 42.895 21.112 10
      vertex 46.234 4.482 10
      vertex 43.889 18.985 10
    endloop
  endfacet
  facet normal 0 0 1
    outer loop
      vertex 41.038 28.228 10
      vertex 46.234 4.482 10
      vertex 42.895 21.112 10
    endloop
  endfacet
  facet normal 0 0 1
    outer loop
      vertex 39.036 35.048 10
      vertex 38.722 37.375 10
      vertex 27.288 82.771 10
    endloop
  endfacet
  facet normal 0 0 1
    outer loop
      vertex 39.969 31.413 10
      vertex 46.234 4.482 10
      vertex 41.038 28.228 10
    endloop
  endfacet
  facet normal 0 0 1
    outer loop
      vertex 39.39 33.162 10
      vertex 46.234 4.482 10
      vertex 39.969 31.413 10
    endloop
  endfacet
  facet normal 0 0 1
    outer loop
      vertex 27.288 82.771 10
      vertex 46.234 4.482 10
      vertex 39.39 33.162 10
    endloop
  endfacet
  facet normal 0 0 1
    outer loop
      vertex 27.288 82.771 10
      vertex 39.39 33.162 10
      vertex 39.036 35.048 10
    endloop
  endfacet
  facet normal 0 0 1
    outer loop
      vertex 37.477 44.532 10
      vertex 36.569 50.026 10
      vertex 27.288 82.771 10
    endloop
  endfacet
  facet normal 0 0 1
    outer loop
      vertex 35.796 55.605 10
      vertex 35.064 61.003 10
      vertex 14.204 133.367 10
    endloop
  endfacet
  facet normal 0 0 1
    outer loop
      vertex 27.288 82.771 10
      vertex 38.199 40.97 10
      vertex 37.477 44.532 10
    endloop
  endfacet
  facet normal 0 0 1
    outer loop
      vertex 42.186 24.225 10
      vertex 41.038 28.228 10
      vertex 42.895 21.112 10
    endloop
  endfacet
  facet normal 0 0 1
    outer loop
      vertex 14.204 133.367 10
      vertex 27.288 82.771 10
      vertex 35.796 55.605 10
    endloop
  endfacet
  facet normal 0 0 1
    outer loop
      vertex 14.204 133.367 10
      vertex 34.784 64.059 10
      vertex 34.494 67.099 10
    endloop
  endfacet
  facet normal 0 0 1
    outer loop
      vertex 14.204 133.367 10
      vertex 34.494 67.099 10
      vertex 34.395 70.087 10
    endloop
  endfacet
  facet normal 0 0 1
    outer loop
      vertex 14.204 133.367 10
      vertex 34.395 70.087 10
      vertex 34.686 72.986 10
    endloop
  endfacet
  facet normal 0 0 1
    outer loop
      vertex 14.204 133.367 10
      vertex 34.686 72.986 10
      vertex 34.733 75.031 10
    endloop
  endfacet
  facet normal 0 0 1
    outer loop
      vertex 14.204 133.367 10
      vertex 34.733 75.031 10
      vertex 36.566 73.845 10
    endloop
  endfacet
  facet normal 0 0 1
    outer loop
      vertex 14.204 133.367 10
      vertex 36.566 73.845 10
      vertex 38.943 71.212 10
    endloop
  endfacet
  facet normal 0 0 1
    outer loop
      vertex 14.204 133.367 10
      vertex 38.943 71.212 10
      vertex 40.624 68.914 10
    endloop
  endfacet
  facet normal 0 0 1
    outer loop
      vertex 14.204 133.367 10
      vertex 40.624 68.914 10
      vertex 42.633 66.852 10
    endloop
  endfacet
  facet normal 0 0 1
    outer loop
      vertex 14.204 133.367 10
      vertex 42.633 66.852 10
      vertex 44.533 64.924 10
    endloop
  endfacet
  facet normal 0 0 1
    outer loop
      vertex 14.204 133.367 10
      vertex 44.533 64.924 10
      vertex 46.21 63.202 10
    endloop
  endfacet
  facet normal 0 0 1
    outer loop
      vertex 14.204 133.367 10
      vertex 46.21 63.202 10
      vertex 47.183 62.173 10
    endloop
  endfacet
  facet normal 0 0 1
    outer loop
      vertex 14.204 133.367 10
      vertex 47.183 62.173 10
      vertex 48.324 60.902 10
    endloop
  endfacet
  facet normal 0 0 1
    outer loop
      vertex 14.204 133.367 10
      vertex 48.324 60.902 10
      vertex 49.538 59.56 10
    endloop
  endfacet
  facet normal 0 0 1
    outer loop
      vertex 14.204 133.367 10
      vertex 49.538 59.56 10
      vertex 50.317 58.678 10
    endloop
  endfacet
  facet normal 0 0 1
    outer loop
      vertex 14.204 133.367 10
      vertex 50.317 58.678 10
      vertex 50.729 58.175 10
    endloop
  endfacet
  facet normal 0 0 1
    outer loop
      vertex 14.204 133.367 10
      vertex 50.729 58.175 10
      vertex 51.925 57.022 10
    endloop
  endfacet
  facet normal 0 0 1
    outer loop
      vertex 14.204 133.367 10
      vertex 51.925 57.022 10
      vertex 54.048 55.093 10
    endloop
  endfacet
  facet normal 0 0 1
    outer loop
      vertex 14.204 133.367 10
      vertex 54.048 55.093 10
      vertex 56.06 53.049 10
    endloop
  endfacet
  facet normal 0 0 1
    outer loop
      vertex 14.204 133.367 10
      vertex 56.06 53.049 10
      vertex 57.232 51.117 10
    endloop
  endfacet
  facet normal 0 0 1
    outer loop
      vertex 14.204 133.367 10
      vertex 57.232 51.117 10
      vertex 59.175 48.814 10
    endloop
  endfacet
  facet normal 0 0 1
    outer loop
      vertex 14.204 133.367 10
      vertex 59.175 48.814 10
      vertex 61.229 46.005 10
    endloop
  endfacet
  facet normal 0 0 1
    outer loop
      vertex 61.209 72.02 10
      vertex 61.229 46.005 10
      vertex 64.039 69.791 10
    endloop
  endfacet
  facet normal 0 0 1
    outer loop
      vertex 45.698 155.587 10
      vertex 42.977 151.955 10
      vertex 53.925 159.348 10
    endloop
  endfacet
  facet normal 0 0 1
    outer loop
      vertex 57.927 74.434 10
      vertex 61.229 46.005 10
      vertex 61.209 72.02 10
    endloop
  endfacet
  facet normal 0 0 1
    outer loop
      vertex 37.184 140.502 10
      vertex 68.779 141.901 10
      vertex 67.629 143.391 10
    endloop
  endfacet
  facet normal 0 0 1
    outer loop
      vertex 54.727 77.364 10
      vertex 61.229 46.005 10
      vertex 57.927 74.434 10
    endloop
  endfacet
  facet normal 0 0 1
    outer loop
      vertex 16.645 134.066 10
      vertex 15.83 136.835 10
      vertex 14.204 133.367 10
    endloop
  endfacet
  facet normal 0 0 1
    outer loop
      vertex 51.906 80.17 10
      vertex 61.229 46.005 10
      vertex 54.727 77.364 10
    endloop
  endfacet
  facet normal 0 0 1
    outer loop
      vertex 50.317 81.744 10
      vertex 61.229 46.005 10
      vertex 51.906 80.17 10
    endloop
  endfacet
  facet normal 0 0 1
    outer loop
      vertex 48.468 83.484 10
      vertex 61.229 46.005 10
      vertex 50.317 81.744 10
    endloop
  endfacet
  facet normal 0 0 1
    outer loop
      vertex 46.31 85.704 10
      vertex 61.229 46.005 10
      vertex 48.468 83.484 10
    endloop
  endfacet
  facet normal 0 0 1
    outer loop
      vertex 44.677 87.524 10
      vertex 61.229 46.005 10
      vertex 46.31 85.704 10
    endloop
  endfacet
  facet normal 0 0 1
    outer loop
      vertex 43.704 88.6 10
      vertex 61.229 46.005 10
      vertex 44.677 87.524 10
    endloop
  endfacet
  facet normal 0 0 1
    outer loop
      vertex 42.58 89.732 10
      vertex 61.229 46.005 10
      vertex 43.704 88.6 10
    endloop
  endfacet
  facet normal 0 0 1
    outer loop
      vertex 20.973 122.091 10
      vertex 20.099 124.223 10
      vertex 14.204 133.367 10
    endloop
  endfacet
  facet normal 0 0 1
    outer loop
      vertex 41.421 90.922 10
      vertex 61.229 46.005 10
      vertex 42.58 89.732 10
    endloop
  endfacet
  facet normal 0 0 1
    outer loop
      vertex 40.508 91.912 10
      vertex 61.229 46.005 10
      vertex 41.421 90.922 10
    endloop
  endfacet
  facet normal 0 0 1
    outer loop
      vertex 39.317 93.26 10
      vertex 61.229 46.005 10
      vertex 40.508 91.912 10
    endloop
  endfacet
  facet normal 0 0 1
    outer loop
      vertex 37.014 96.516 10
      vertex 61.229 46.005 10
      vertex 39.317 93.26 10
    endloop
  endfacet
  facet normal 0 0 1
    outer loop
      vertex 29.136 107.517 10
      vertex 61.229 46.005 10
      vertex 37.014 96.516 10
    endloop
  endfacet
  facet normal 0 0 1
    outer loop
      vertex 30.802 116.046 10
      vertex 38.044 105.172 10
      vertex 39.094 107.644 10
    endloop
  endfacet
  facet normal 0 0 1
    outer loop
      vertex 31.488 118.935 10
      vertex 40.519 110.59 10
      vertex 42.436 114.613 10
    endloop
  endfacet
  facet normal 0 0 1
    outer loop
      vertex 32.002 122.389 10
      vertex 42.436 114.613 10
      vertex 44.602 118.108 10
    endloop
  endfacet
  facet normal 0 0 1
    outer loop
      vertex 32.72 125.807 10
      vertex 44.602 118.108 10
      vertex 47.651 120.966 10
    endloop
  endfacet
  facet normal 0 0 1
    outer loop
      vertex 32.72 125.807 10
      vertex 32.002 122.389 10
      vertex 44.602 118.108 10
    endloop
  endfacet
  facet normal 0 0 1
    outer loop
      vertex 33.524 129.21 10
      vertex 57.167 123.267 10
      vertex 73.2 122.23 10
    endloop
  endfacet
  facet normal 0 0 1
    outer loop
      vertex 57.167 123.267 10
      vertex 60.19 121.932 10
      vertex 62.186 121.102 10
    endloop
  endfacet
  facet normal 0 0 1
    outer loop
      vertex 57.167 123.267 10
      vertex 62.186 121.102 10
      vertex 73.565 116.33 10
    endloop
  endfacet
  facet normal 0 0 1
    outer loop
      vertex 62.186 121.102 10
      vertex 64.07 119.757 10
      vertex 72.418 114.867 10
    endloop
  endfacet
  facet normal 0 0 1
    outer loop
      vertex 64.07 119.757 10
      vertex 65.851 118.126 10
      vertex 70.828 114.545 10
    endloop
  endfacet
  facet normal 0 0 1
    outer loop
      vertex 65.851 118.126 10
      vertex 67.535 116.435 10
      vertex 69.098 115.142 10
    endloop
  endfacet
  facet normal 0 0 1
    outer loop
      vertex 65.851 118.126 10
      vertex 69.098 115.142 10
      vertex 70.828 114.545 10
    endloop
  endfacet
  facet normal 0 0 1
    outer loop
      vertex 64.07 119.757 10
      vertex 70.828 114.545 10
      vertex 72.418 114.867 10
    endloop
  endfacet
  facet normal 0 0 1
    outer loop
      vertex 62.186 121.102 10
      vertex 72.418 114.867 10
      vertex 73.565 116.33 10
    endloop
  endfacet
  facet normal 0 0 1
    outer loop
      vertex 57.167 123.267 10
      vertex 73.096 119.229 10
      vertex 73.2 122.23 10
    endloop
  endfacet
  facet normal 0 0 1
    outer loop
      vertex 57.167 123.267 10
      vertex 73.565 116.33 10
      vertex 73.096 119.229 10
    endloop
  endfacet
  facet normal 0 0 1
    outer loop
      vertex 33.524 129.21 10
      vertex 53.811 123.501 10
      vertex 57.167 123.267 10
    endloop
  endfacet
  facet normal 0 0 1
    outer loop
      vertex 34.293 132.618 10
      vertex 72.346 127.755 10
      vertex 71.704 131.36 10
    endloop
  endfacet
  facet normal 0 0 1
    outer loop
      vertex 33.524 129.21 10
      vertex 50.51 122.71 10
      vertex 53.811 123.501 10
    endloop
  endfacet
  facet normal 0 0 1
    outer loop
      vertex 34.293 132.618 10
      vertex 73.182 125.137 10
      vertex 72.346 127.755 10
    endloop
  endfacet
  facet normal 0 0 1
    outer loop
      vertex 35.804 136.375 10
      vertex 69.562 138.27 10
      vertex 68.779 141.901 10
    endloop
  endfacet
  facet normal 0 0 1
    outer loop
      vertex 34.293 132.618 10
      vertex 73.2 122.23 10
      vertex 73.182 125.137 10
    endloop
  endfacet
  facet normal 0 0 1
    outer loop
      vertex 35.804 136.375 10
      vertex 71.704 131.36 10
      vertex 70.657 134.81 10
    endloop
  endfacet
  facet normal 0 0 1
    outer loop
      vertex 35.804 136.375 10
      vertex 70.657 134.81 10
      vertex 69.562 138.27 10
    endloop
  endfacet
  facet normal 0 0 1
    outer loop
      vertex 35.804 136.375 10
      vertex 34.293 132.618 10
      vertex 71.704 131.36 10
    endloop
  endfacet
  facet normal 0 0 1
    outer loop
      vertex 37.184 140.502 10
      vertex 65.806 147.416 10
      vertex 64.828 149.421 10
    endloop
  endfacet
  facet normal 0 0 1
    outer loop
      vertex 37.184 140.502 10
      vertex 66.689 145.318 10
      vertex 65.806 147.416 10
    endloop
  endfacet
  facet normal 0 0 1
    outer loop
      vertex 38.792 144.524 10
      vertex 61.195 154.581 10
      vertex 58.834 156.802 10
    endloop
  endfacet
  facet normal 0 0 1
    outer loop
      vertex 40.987 147.969 10
      vertex 58.834 156.802 10
      vertex 56.198 158.829 10
    endloop
  endfacet
  facet normal 0 0 1
    outer loop
      vertex 40.987 147.969 10
      vertex 38.792 144.524 10
      vertex 58.834 156.802 10
    endloop
  endfacet
  facet normal 0 0 1
    outer loop
      vertex 38.792 144.524 10
      vertex 64.828 149.421 10
      vertex 63.215 152.132 10
    endloop
  endfacet
  facet normal 0 0 1
    outer loop
      vertex 42.977 151.955 10
      vertex 55.441 159.002 10
      vertex 54.683 159.175 10
    endloop
  endfacet
  facet normal 0 0 1
    outer loop
      vertex 42.977 151.955 10
      vertex 54.683 159.175 10
      vertex 53.925 159.348 10
    endloop
  endfacet
  facet normal 0 0 1
    outer loop
      vertex 45.698 155.587 10
      vertex 53.168 159.521 10
      vertex 49.109 158.299 10
    endloop
  endfacet
  facet normal 0 0 1
    outer loop
      vertex 42.977 151.955 10
      vertex 56.198 158.829 10
      vertex 55.441 159.002 10
    endloop
  endfacet
  facet normal 0 0 1
    outer loop
      vertex 38.792 144.524 10
      vertex 37.184 140.502 10
      vertex 64.828 149.421 10
    endloop
  endfacet
  facet normal 0 0 1
    outer loop
      vertex 38.792 144.524 10
      vertex 63.215 152.132 10
      vertex 61.195 154.581 10
    endloop
  endfacet
  facet normal 0 0 1
    outer loop
      vertex 37.184 140.502 10
      vertex 67.629 143.391 10
      vertex 66.689 145.318 10
    endloop
  endfacet
  facet normal 0 0 1
    outer loop
      vertex 29.65 110.164 10
      vertex 29.136 107.517 10
      vertex 37.014 96.516 10
    endloop
  endfacet
  facet normal 0 0 1
    outer loop
      vertex 34.293 132.618 10
      vertex 33.524 129.21 10
      vertex 73.2 122.23 10
    endloop
  endfacet
  facet normal 0 0 1
    outer loop
      vertex 33.524 129.21 10
      vertex 47.651 120.966 10
      vertex 50.51 122.71 10
    endloop
  endfacet
  facet normal 0 0 1
    outer loop
      vertex 31.488 118.935 10
      vertex 30.802 116.046 10
      vertex 39.094 107.644 10
    endloop
  endfacet
  facet normal 0 0 1
    outer loop
      vertex 31.488 118.935 10
      vertex 39.094 107.644 10
      vertex 40.519 110.59 10
    endloop
  endfacet
  facet normal 0 0 1
    outer loop
      vertex 30.802 116.046 10
      vertex 30.197 113.065 10
      vertex 38.044 105.172 10
    endloop
  endfacet
  facet normal 0 0 1
    outer loop
      vertex 30.197 113.065 10
      vertex 29.65 110.164 10
      vertex 36.897 100.85 10
    endloop
  endfacet
  facet normal 0 0 1
    outer loop
      vertex 45.698 155.587 10
      vertex 53.925 159.348 10
      vertex 53.168 159.521 10
    endloop
  endfacet
  facet normal 0 0 1
    outer loop
      vertex 27.351 110.394 10
      vertex 61.229 46.005 10
      vertex 29.136 107.517 10
    endloop
  endfacet
  facet normal 0 0 1
    outer loop
      vertex 14.204 133.367 10
      vertex 61.229 46.005 10
      vertex 27.351 110.394 10
    endloop
  endfacet
  facet normal 0 0 1
    outer loop
      vertex 22.219 119.725 10
      vertex 20.973 122.091 10
      vertex 14.204 133.367 10
    endloop
  endfacet
  facet normal 0 0 1
    outer loop
      vertex 14.204 133.367 10
      vertex 27.351 110.394 10
      vertex 25.662 113.51 10
    endloop
  endfacet
  facet normal 0 0 1
    outer loop
      vertex 25.662 113.51 10
      vertex 24.169 116.357 10
      vertex 14.204 133.367 10
    endloop
  endfacet
  facet normal 0 0 1
    outer loop
      vertex 22.219 119.725 10
      vertex 24.169 116.357 10
      vertex 23.302 117.938 10
    endloop
  endfacet
  facet normal 0 0 1
    outer loop
      vertex 20.099 124.223 10
      vertex 19.477 126.294 10
      vertex 14.204 133.367 10
    endloop
  endfacet
  facet normal 0 0 1
    outer loop
      vertex 14.204 133.367 10
      vertex 24.169 116.357 10
      vertex 22.219 119.725 10
    endloop
  endfacet
  facet normal 0 0 1
    outer loop
      vertex 18.489 128.79 10
      vertex 17.538 131.382 10
      vertex 14.204 133.367 10
    endloop
  endfacet
  facet normal 0 0 1
    outer loop
      vertex 36.897 100.85 10
      vertex 38.044 105.172 10
      vertex 30.197 113.065 10
    endloop
  endfacet
  facet normal 0 0 1
    outer loop
      vertex 42.977 151.955 10
      vertex 40.987 147.969 10
      vertex 56.198 158.829 10
    endloop
  endfacet
  facet normal 0 0 1
    outer loop
      vertex 37.184 140.502 10
      vertex 35.804 136.375 10
      vertex 68.779 141.901 10
    endloop
  endfacet
  facet normal 0 0 1
    outer loop
      vertex 32.002 122.389 10
      vertex 31.488 118.935 10
      vertex 42.436 114.613 10
    endloop
  endfacet
  facet normal 0 0 1
    outer loop
      vertex 33.524 129.21 10
      vertex 32.72 125.807 10
      vertex 47.651 120.966 10
    endloop
  endfacet
  facet normal 0 0 1
    outer loop
      vertex 14.204 133.367 10
      vertex 15.83 136.835 10
      vertex 14.332 135.559 10
    endloop
  endfacet
  facet normal 0 0 1
    outer loop
      vertex 36.569 50.026 10
      vertex 35.796 55.605 10
      vertex 27.288 82.771 10
    endloop
  endfacet
  facet normal 0 0 1
    outer loop
      vertex 35.064 61.003 10
      vertex 34.784 64.059 10
      vertex 14.204 133.367 10
    endloop
  endfacet
  facet normal 0 0 1
    outer loop
      vertex 48.51 12.33 10
      vertex 46.028 15.59 10
      vertex 49.609 6.567 10
    endloop
  endfacet
  facet normal 0 0 1
    outer loop
      vertex 17.538 131.382 10
      vertex 16.645 134.066 10
      vertex 14.204 133.367 10
    endloop
  endfacet
  facet normal 0 0 1
    outer loop
      vertex 19.477 126.294 10
      vertex 18.489 128.79 10
      vertex 14.204 133.367 10
    endloop
  endfacet
  facet normal 0 0 1
    outer loop
      vertex 37.014 96.516 10
      vertex 36.897 100.85 10
      vertex 29.65 110.164 10
    endloop
  endfacet
  facet normal -0.977266 -0.212016 0
    outer loop
      vertex 14.757 130.818 0
      vertex 14.757 130.818 10
      vertex 14.204 133.367 0
    endloop
  endfacet
  facet normal -0.977266 -0.212016 0
    outer loop
      vertex 14.204 133.367 0
      vertex 14.757 130.818 10
      vertex 14.204 133.367 10
    endloop
  endfacet
  facet normal -0.998299 0.0582949 0
    outer loop
      vertex 14.204 133.367 10
      vertex 14.332 135.559 10
      vertex 14.204 133.367 0
    endloop
  endfacet
  facet normal -0.998299 0.0582949 0
    outer loop
      vertex 14.204 133.367 0
      vertex 14.332 135.559 10
      vertex 14.332 135.559 0
    endloop
  endfacet
  facet normal -0.974061 -0.226284 0
    outer loop
      vertex 15.302 128.472 0
      vertex 15.302 128.472 10
      vertex 14.757 130.818 0
    endloop
  endfacet
  facet normal -0.974061 -0.226284 0
    outer loop
      vertex 14.757 130.818 0
      vertex 15.302 128.472 10
      vertex 14.757 130.818 10
    endloop
  endfacet
  facet normal -0.998589 -0.0531072 0
    outer loop
      vertex 15.485 125.031 0
      vertex 15.485 125.031 10
      vertex 15.302 128.472 0
    endloop
  endfacet
  facet normal -0.998589 -0.0531072 0
    outer loop
      vertex 15.302 128.472 0
      vertex 15.485 125.031 10
      vertex 15.302 128.472 10
    endloop
  endfacet
  facet normal -0.998226 -0.059534 0
    outer loop
      vertex 15.687 121.644 0
      vertex 15.687 121.644 10
      vertex 15.485 125.031 0
    endloop
  endfacet
  facet normal -0.998226 -0.059534 0
    outer loop
      vertex 15.485 125.031 0
      vertex 15.687 121.644 10
      vertex 15.485 125.031 10
    endloop
  endfacet
  facet normal -0.996299 -0.0859599 0
    outer loop
      vertex 15.975 118.306 0
      vertex 15.975 118.306 10
      vertex 15.687 121.644 0
    endloop
  endfacet
  facet normal -0.996299 -0.0859599 0
    outer loop
      vertex 15.687 121.644 0
      vertex 15.975 118.306 10
      vertex 15.687 121.644 10
    endloop
  endfacet
  facet normal -0.991123 -0.132952 0
    outer loop
      vertex 16.417 115.011 0
      vertex 16.417 115.011 10
      vertex 15.975 118.306 0
    endloop
  endfacet
  facet normal -0.991123 -0.132952 0
    outer loop
      vertex 15.975 118.306 0
      vertex 16.417 115.011 10
      vertex 15.975 118.306 10
    endloop
  endfacet
  facet normal -0.992909 -0.118879 0
    outer loop
      vertex 16.945 110.601 0
      vertex 16.945 110.601 10
      vertex 16.417 115.011 0
    endloop
  endfacet
  facet normal -0.992909 -0.118879 0
    outer loop
      vertex 16.417 115.011 0
      vertex 16.945 110.601 10
      vertex 16.417 115.011 10
    endloop
  endfacet
  facet normal -0.975557 -0.219745 0
    outer loop
      vertex 17.887 106.419 0
      vertex 17.887 106.419 10
      vertex 16.945 110.601 0
    endloop
  endfacet
  facet normal -0.975557 -0.219745 0
    outer loop
      vertex 16.945 110.601 0
      vertex 17.887 106.419 10
      vertex 16.945 110.601 10
    endloop
  endfacet
  facet normal -0.950889 -0.309533 0
    outer loop
      vertex 19.234 102.281 0
      vertex 19.234 102.281 10
      vertex 17.887 106.419 0
    endloop
  endfacet
  facet normal -0.950889 -0.309533 0
    outer loop
      vertex 17.887 106.419 0
      vertex 19.234 102.281 10
      vertex 17.887 106.419 10
    endloop
  endfacet
  facet normal -0.926022 -0.377469 0
    outer loop
      vertex 20.977 98.005 0
      vertex 20.977 98.005 10
      vertex 19.234 102.281 0
    endloop
  endfacet
  facet normal -0.926022 -0.377469 0
    outer loop
      vertex 19.234 102.281 0
      vertex 20.977 98.005 10
      vertex 19.234 102.281 10
    endloop
  endfacet
  facet normal -0.899182 -0.437575 0
    outer loop
      vertex 23.781 92.243 0
      vertex 23.781 92.243 10
      vertex 20.977 98.005 0
    endloop
  endfacet
  facet normal -0.899182 -0.437575 0
    outer loop
      vertex 20.977 98.005 0
      vertex 23.781 92.243 10
      vertex 20.977 98.005 10
    endloop
  endfacet
  facet normal -0.908172 -0.418597 0
    outer loop
      vertex 25.969 87.496 0
      vertex 25.969 87.496 10
      vertex 23.781 92.243 0
    endloop
  endfacet
  facet normal -0.908172 -0.418597 0
    outer loop
      vertex 23.781 92.243 0
      vertex 25.969 87.496 10
      vertex 23.781 92.243 10
    endloop
  endfacet
  facet normal -0.963175 -0.268874 0
    outer loop
      vertex 27.288 82.771 0
      vertex 27.288 82.771 10
      vertex 25.969 87.496 0
    endloop
  endfacet
  facet normal -0.963175 -0.268874 0
    outer loop
      vertex 25.969 87.496 0
      vertex 27.288 82.771 10
      vertex 25.969 87.496 10
    endloop
  endfacet
  facet normal -0.999414 -0.0342265 0
    outer loop
      vertex 27.483 77.077 0
      vertex 27.483 77.077 10
      vertex 27.288 82.771 0
    endloop
  endfacet
  facet normal -0.999414 -0.0342265 0
    outer loop
      vertex 27.288 82.771 0
      vertex 27.483 77.077 10
      vertex 27.288 82.771 10
    endloop
  endfacet
  facet normal -0.999813 -0.0193266 0
    outer loop
      vertex 27.569 72.628 0
      vertex 27.569 72.628 10
      vertex 27.483 77.077 0
    endloop
  endfacet
  facet normal -0.999813 -0.0193266 0
    outer loop
      vertex 27.483 77.077 0
      vertex 27.569 72.628 10
      vertex 27.483 77.077 10
    endloop
  endfacet
  facet normal -0.995051 -0.099368 0
    outer loop
      vertex 28.004 68.272 0
      vertex 28.004 68.272 10
      vertex 27.569 72.628 0
    endloop
  endfacet
  facet normal -0.995051 -0.099368 0
    outer loop
      vertex 27.569 72.628 0
      vertex 28.004 68.272 10
      vertex 27.569 72.628 10
    endloop
  endfacet
  facet normal -0.991228 -0.132164 0
    outer loop
      vertex 28.58 63.952 0
      vertex 28.58 63.952 10
      vertex 28.004 68.272 0
    endloop
  endfacet
  facet normal -0.991228 -0.132164 0
    outer loop
      vertex 28.004 68.272 0
      vertex 28.58 63.952 10
      vertex 28.004 68.272 10
    endloop
  endfacet
  facet normal -0.993301 -0.115553 0
    outer loop
      vertex 29.085 59.611 0
      vertex 29.085 59.611 10
      vertex 28.58 63.952 0
    endloop
  endfacet
  facet normal -0.993301 -0.115553 0
    outer loop
      vertex 28.58 63.952 0
      vertex 29.085 59.611 10
      vertex 28.58 63.952 10
    endloop
  endfacet
  facet normal -0.99948 -0.0322311 0
    outer loop
      vertex 29.187 56.448 0
      vertex 29.187 56.448 10
      vertex 29.085 59.611 0
    endloop
  endfacet
  facet normal -0.99948 -0.0322311 0
    outer loop
      vertex 29.085 59.611 0
      vertex 29.187 56.448 10
      vertex 29.085 59.611 10
    endloop
  endfacet
  facet normal -0.999168 -0.0407766 0
    outer loop
      vertex 29.33 52.944 0
      vertex 29.33 52.944 10
      vertex 29.187 56.448 0
    endloop
  endfacet
  facet normal -0.999168 -0.0407766 0
    outer loop
      vertex 29.187 56.448 0
      vertex 29.33 52.944 10
      vertex 29.187 56.448 10
    endloop
  endfacet
  facet normal -0.993753 -0.111606 0
    outer loop
      vertex 29.716 49.507 0
      vertex 29.716 49.507 10
      vertex 29.33 52.944 0
    endloop
  endfacet
  facet normal -0.993753 -0.111606 0
    outer loop
      vertex 29.33 52.944 0
      vertex 29.716 49.507 10
      vertex 29.33 52.944 10
    endloop
  endfacet
  facet normal -0.962487 -0.271329 0
    outer loop
      vertex 30.551 46.545 0
      vertex 30.551 46.545 10
      vertex 29.716 49.507 0
    endloop
  endfacet
  facet normal -0.962487 -0.271329 0
    outer loop
      vertex 29.716 49.507 0
      vertex 30.551 46.545 10
      vertex 29.716 49.507 10
    endloop
  endfacet
  facet normal -0.997025 -0.0770828 0
    outer loop
      vertex 30.963 41.216 0
      vertex 30.963 41.216 10
      vertex 30.551 46.545 0
    endloop
  endfacet
  facet normal -0.997025 -0.0770828 0
    outer loop
      vertex 30.551 46.545 0
      vertex 30.963 41.216 10
      vertex 30.551 46.545 10
    endloop
  endfacet
  facet normal -0.970143 -0.242536 0
    outer loop
      vertex 32.311 35.824 0
      vertex 32.311 35.824 10
      vertex 30.963 41.216 0
    endloop
  endfacet
  facet normal -0.970143 -0.242536 0
    outer loop
      vertex 30.963 41.216 0
      vertex 32.311 35.824 10
      vertex 30.963 41.216 10
    endloop
  endfacet
  facet normal -0.952961 -0.303094 0
    outer loop
      vertex 33.914 30.784 0
      vertex 33.914 30.784 10
      vertex 32.311 35.824 0
    endloop
  endfacet
  facet normal -0.952961 -0.303094 0
    outer loop
      vertex 32.311 35.824 0
      vertex 33.914 30.784 10
      vertex 32.311 35.824 10
    endloop
  endfacet
  facet normal -0.955752 -0.294174 0
    outer loop
      vertex 34.854 27.73 0
      vertex 34.854 27.73 10
      vertex 33.914 30.784 0
    endloop
  endfacet
  facet normal -0.955752 -0.294174 0
    outer loop
      vertex 33.914 30.784 0
      vertex 34.854 27.73 10
      vertex 33.914 30.784 10
    endloop
  endfacet
  facet normal -0.977145 -0.212575 0
    outer loop
      vertex 35.764 23.547 0
      vertex 35.764 23.547 10
      vertex 34.854 27.73 0
    endloop
  endfacet
  facet normal -0.977145 -0.212575 0
    outer loop
      vertex 34.854 27.73 0
      vertex 35.764 23.547 10
      vertex 34.854 27.73 10
    endloop
  endfacet
  facet normal -0.968425 -0.249307 0
    outer loop
      vertex 37.123 18.268 0
      vertex 37.123 18.268 10
      vertex 35.764 23.547 0
    endloop
  endfacet
  facet normal -0.968425 -0.249307 0
    outer loop
      vertex 35.764 23.547 0
      vertex 37.123 18.268 10
      vertex 35.764 23.547 10
    endloop
  endfacet
  facet normal -0.946172 -0.323663 0
    outer loop
      vertex 38.688 13.693 0
      vertex 38.688 13.693 10
      vertex 37.123 18.268 0
    endloop
  endfacet
  facet normal -0.946172 -0.323663 0
    outer loop
      vertex 37.123 18.268 0
      vertex 38.688 13.693 10
      vertex 37.123 18.268 10
    endloop
  endfacet
  facet normal -0.913083 -0.407775 0
    outer loop
      vertex 40.699 9.19 0
      vertex 40.699 9.19 10
      vertex 38.688 13.693 0
    endloop
  endfacet
  facet normal -0.913083 -0.407775 0
    outer loop
      vertex 38.688 13.693 0
      vertex 40.699 9.19 10
      vertex 38.688 13.693 10
    endloop
  endfacet
  facet normal -0.915677 -0.401916 0
    outer loop
      vertex 42.582 4.9 0
      vertex 42.582 4.9 10
      vertex 40.699 9.19 0
    endloop
  endfacet
  facet normal -0.915677 -0.401916 0
    outer loop
      vertex 40.699 9.19 0
      vertex 42.582 4.9 10
      vertex 40.699 9.19 10
    endloop
  endfacet
  facet normal -0.113715 -0.993513 0
    outer loop
      vertex 42.582 4.9 0
      vertex 46.234 4.482 0
      vertex 46.234 4.482 10
    endloop
  endfacet
  facet normal -0.113715 -0.993513 0
    outer loop
      vertex 42.582 4.9 10
      vertex 42.582 4.9 0
      vertex 46.234 4.482 10
    endloop
  endfacet
  facet normal 0.525573 -0.850748 0
    outer loop
      vertex 46.234 4.482 0
      vertex 49.609 6.567 0
      vertex 49.609 6.567 10
    endloop
  endfacet
  facet normal 0.525573 -0.850748 0
    outer loop
      vertex 46.234 4.482 10
      vertex 46.234 4.482 0
      vertex 49.609 6.567 10
    endloop
  endfacet
  facet normal 0.950788 -0.309841 0
    outer loop
      vertex 49.609 6.567 0
      vertex 50.658 9.786 0
      vertex 50.658 9.786 10
    endloop
  endfacet
  facet normal 0.950788 -0.309841 0
    outer loop
      vertex 49.609 6.567 10
      vertex 49.609 6.567 0
      vertex 50.658 9.786 10
    endloop
  endfacet
  facet normal 0.764069 0.645134 0
    outer loop
      vertex 48.51 12.33 0
      vertex 48.51 12.33 10
      vertex 50.658 9.786 10
    endloop
  endfacet
  facet normal 0.764069 0.645134 0
    outer loop
      vertex 50.658 9.786 0
      vertex 48.51 12.33 0
      vertex 50.658 9.786 10
    endloop
  endfacet
  facet normal 0.795645 0.605764 0
    outer loop
      vertex 46.028 15.59 0
      vertex 46.028 15.59 10
      vertex 48.51 12.33 10
    endloop
  endfacet
  facet normal 0.795645 0.605764 0
    outer loop
      vertex 48.51 12.33 0
      vertex 46.028 15.59 0
      vertex 48.51 12.33 10
    endloop
  endfacet
  facet normal 0.846075 0.533064 0
    outer loop
      vertex 43.889 18.985 0
      vertex 43.889 18.985 10
      vertex 46.028 15.59 10
    endloop
  endfacet
  facet normal 0.846075 0.533064 0
    outer loop
      vertex 46.028 15.59 0
      vertex 43.889 18.985 0
      vertex 46.028 15.59 10
    endloop
  endfacet
  facet normal 0.905954 0.423375 0
    outer loop
      vertex 42.895 21.112 0
      vertex 42.895 21.112 10
      vertex 43.889 18.985 10
    endloop
  endfacet
  facet normal 0.905954 0.423375 0
    outer loop
      vertex 43.889 18.985 0
      vertex 42.895 21.112 0
      vertex 43.889 18.985 10
    endloop
  endfacet
  facet normal 0.975031 0.222068 0
    outer loop
      vertex 42.186 24.225 0
      vertex 42.186 24.225 10
      vertex 42.895 21.112 10
    endloop
  endfacet
  facet normal 0.975031 0.222068 0
    outer loop
      vertex 42.895 21.112 0
      vertex 42.186 24.225 0
      vertex 42.895 21.112 10
    endloop
  endfacet
  facet normal 0.961252 0.275672 0
    outer loop
      vertex 41.038 28.228 0
      vertex 41.038 28.228 10
      vertex 42.186 24.225 10
    endloop
  endfacet
  facet normal 0.961252 0.275672 0
    outer loop
      vertex 42.186 24.225 0
      vertex 41.038 28.228 0
      vertex 42.186 24.225 10
    endloop
  endfacet
  facet normal 0.948026 0.318192 0
    outer loop
      vertex 39.969 31.413 0
      vertex 39.969 31.413 10
      vertex 41.038 28.228 10
    endloop
  endfacet
  facet normal 0.948026 0.318192 0
    outer loop
      vertex 41.038 28.228 0
      vertex 39.969 31.413 0
      vertex 41.038 28.228 10
    endloop
  endfacet
  facet normal 0.949333 0.314273 0
    outer loop
      vertex 39.39 33.162 0
      vertex 39.39 33.162 10
      vertex 39.969 31.413 10
    endloop
  endfacet
  facet normal 0.949333 0.314273 0
    outer loop
      vertex 39.969 31.413 0
      vertex 39.39 33.162 0
      vertex 39.969 31.413 10
    endloop
  endfacet
  facet normal 0.982837 0.184477 0
    outer loop
      vertex 39.036 35.048 0
      vertex 39.036 35.048 10
      vertex 39.39 33.162 10
    endloop
  endfacet
  facet normal 0.982837 0.184477 0
    outer loop
      vertex 39.39 33.162 0
      vertex 39.036 35.048 0
      vertex 39.39 33.162 10
    endloop
  endfacet
  facet normal 0.991018 0.133726 0
    outer loop
      vertex 38.722 37.375 0
      vertex 38.722 37.375 10
      vertex 39.036 35.048 10
    endloop
  endfacet
  facet normal 0.991018 0.133726 0
    outer loop
      vertex 39.036 35.048 0
      vertex 38.722 37.375 0
      vertex 39.036 35.048 10
    endloop
  endfacet
  facet normal 0.992387 0.12316 0
    outer loop
      vertex 38.462 39.47 0
      vertex 38.462 39.47 10
      vertex 38.722 37.375 10
    endloop
  endfacet
  facet normal 0.992387 0.12316 0
    outer loop
      vertex 38.722 37.375 0
      vertex 38.462 39.47 0
      vertex 38.722 37.375 10
    endloop
  endfacet
  facet normal 0.984975 0.172699 0
    outer loop
      vertex 38.199 40.97 0
      vertex 38.199 40.97 10
      vertex 38.462 39.47 10
    endloop
  endfacet
  facet normal 0.984975 0.172699 0
    outer loop
      vertex 38.462 39.47 0
      vertex 38.199 40.97 0
      vertex 38.462 39.47 10
    endloop
  endfacet
  facet normal 0.980069 0.198655 0
    outer loop
      vertex 37.477 44.532 0
      vertex 37.477 44.532 10
      vertex 38.199 40.97 10
    endloop
  endfacet
  facet normal 0.980069 0.198655 0
    outer loop
      vertex 38.199 40.97 0
      vertex 37.477 44.532 0
      vertex 38.199 40.97 10
    endloop
  endfacet
  facet normal 0.986616 0.163059 0
    outer loop
      vertex 36.569 50.026 0
      vertex 36.569 50.026 10
      vertex 37.477 44.532 10
    endloop
  endfacet
  facet normal 0.986616 0.163059 0
    outer loop
      vertex 37.477 44.532 0
      vertex 36.569 50.026 0
      vertex 37.477 44.532 10
    endloop
  endfacet
  facet normal 0.990537 0.137244 0
    outer loop
      vertex 35.796 55.605 0
      vertex 35.796 55.605 10
      vertex 36.569 50.026 10
    endloop
  endfacet
  facet normal 0.990537 0.137244 0
    outer loop
      vertex 36.569 50.026 0
      vertex 35.796 55.605 0
      vertex 36.569 50.026 10
    endloop
  endfacet
  facet normal 0.99093 0.134376 0
    outer loop
      vertex 35.064 61.003 0
      vertex 35.064 61.003 10
      vertex 35.796 55.605 10
    endloop
  endfacet
  facet normal 0.99093 0.134376 0
    outer loop
      vertex 35.796 55.605 0
      vertex 35.064 61.003 0
      vertex 35.796 55.605 10
    endloop
  endfacet
  facet normal 0.995829 0.0912409 0
    outer loop
      vertex 34.784 64.059 0
      vertex 34.784 64.059 10
      vertex 35.064 61.003 10
    endloop
  endfacet
  facet normal 0.995829 0.0912409 0
    outer loop
      vertex 35.064 61.003 0
      vertex 34.784 64.059 0
      vertex 35.064 61.003 10
    endloop
  endfacet
  facet normal 0.995481 0.0949636 0
    outer loop
      vertex 34.494 67.099 0
      vertex 34.494 67.099 10
      vertex 34.784 64.059 10
    endloop
  endfacet
  facet normal 0.995481 0.0949636 0
    outer loop
      vertex 34.784 64.059 0
      vertex 34.494 67.099 0
      vertex 34.784 64.059 10
    endloop
  endfacet
  facet normal 0.999452 0.0331144 0
    outer loop
      vertex 34.395 70.087 0
      vertex 34.395 70.087 10
      vertex 34.494 67.099 10
    endloop
  endfacet
  facet normal 0.999452 0.0331144 0
    outer loop
      vertex 34.494 67.099 0
      vertex 34.395 70.087 0
      vertex 34.494 67.099 10
    endloop
  endfacet
  facet normal 0.995 -0.0998775 0
    outer loop
      vertex 34.395 70.087 0
      vertex 34.686 72.986 0
      vertex 34.686 72.986 10
    endloop
  endfacet
  facet normal 0.995 -0.0998775 0
    outer loop
      vertex 34.395 70.087 10
      vertex 34.395 70.087 0
      vertex 34.686 72.986 10
    endloop
  endfacet
  facet normal 0.999736 -0.0229768 0
    outer loop
      vertex 34.686 72.986 0
      vertex 34.733 75.031 0
      vertex 34.733 75.031 10
    endloop
  endfacet
  facet normal 0.999736 -0.0229768 0
    outer loop
      vertex 34.686 72.986 10
      vertex 34.686 72.986 0
      vertex 34.733 75.031 10
    endloop
  endfacet
  facet normal -0.543232 -0.839582 0
    outer loop
      vertex 34.733 75.031 0
      vertex 36.566 73.845 0
      vertex 36.566 73.845 10
    endloop
  endfacet
  facet normal -0.543232 -0.839582 0
    outer loop
      vertex 34.733 75.031 10
      vertex 34.733 75.031 0
      vertex 36.566 73.845 10
    endloop
  endfacet
  facet normal -0.74227 -0.670101 0
    outer loop
      vertex 38.943 71.212 0
      vertex 38.943 71.212 10
      vertex 36.566 73.845 0
    endloop
  endfacet
  facet normal -0.74227 -0.670101 0
    outer loop
      vertex 36.566 73.845 0
      vertex 38.943 71.212 10
      vertex 36.566 73.845 10
    endloop
  endfacet
  facet normal -0.807108 -0.590404 0
    outer loop
      vertex 40.624 68.914 0
      vertex 40.624 68.914 10
      vertex 38.943 71.212 0
    endloop
  endfacet
  facet normal -0.807108 -0.590404 0
    outer loop
      vertex 38.943 71.212 0
      vertex 40.624 68.914 10
      vertex 38.943 71.212 10
    endloop
  endfacet
  facet normal -0.716252 -0.697842 0
    outer loop
      vertex 42.633 66.852 0
      vertex 42.633 66.852 10
      vertex 40.624 68.914 0
    endloop
  endfacet
  facet normal -0.716252 -0.697842 0
    outer loop
      vertex 40.624 68.914 0
      vertex 42.633 66.852 10
      vertex 40.624 68.914 10
    endloop
  endfacet
  facet normal -0.71226 -0.701916 0
    outer loop
      vertex 44.533 64.924 0
      vertex 44.533 64.924 10
      vertex 42.633 66.852 0
    endloop
  endfacet
  facet normal -0.71226 -0.701916 0
    outer loop
      vertex 42.633 66.852 0
      vertex 44.533 64.924 10
      vertex 42.633 66.852 10
    endloop
  endfacet
  facet normal -0.716406 -0.697684 0
    outer loop
      vertex 46.21 63.202 0
      vertex 46.21 63.202 10
      vertex 44.533 64.924 0
    endloop
  endfacet
  facet normal -0.716406 -0.697684 0
    outer loop
      vertex 44.533 64.924 0
      vertex 46.21 63.202 10
      vertex 44.533 64.924 10
    endloop
  endfacet
  facet normal -0.726602 -0.687059 0
    outer loop
      vertex 47.183 62.173 0
      vertex 47.183 62.173 10
      vertex 46.21 63.202 0
    endloop
  endfacet
  facet normal -0.726602 -0.687059 0
    outer loop
      vertex 46.21 63.202 0
      vertex 47.183 62.173 10
      vertex 46.21 63.202 10
    endloop
  endfacet
  facet normal -0.744138 -0.668026 0
    outer loop
      vertex 48.324 60.902 0
      vertex 48.324 60.902 10
      vertex 47.183 62.173 0
    endloop
  endfacet
  facet normal -0.744138 -0.668026 0
    outer loop
      vertex 47.183 62.173 0
      vertex 48.324 60.902 10
      vertex 47.183 62.173 10
    endloop
  endfacet
  facet normal -0.741588 -0.670855 0
    outer loop
      vertex 49.538 59.56 0
      vertex 49.538 59.56 10
      vertex 48.324 60.902 0
    endloop
  endfacet
  facet normal -0.741588 -0.670855 0
    outer loop
      vertex 48.324 60.902 0
      vertex 49.538 59.56 10
      vertex 48.324 60.902 10
    endloop
  endfacet
  facet normal -0.749515 -0.661987 0
    outer loop
      vertex 50.317 58.678 0
      vertex 50.317 58.678 10
      vertex 49.538 59.56 0
    endloop
  endfacet
  facet normal -0.749515 -0.661987 0
    outer loop
      vertex 49.538 59.56 0
      vertex 50.317 58.678 10
      vertex 49.538 59.56 10
    endloop
  endfacet
  facet normal -0.773615 -0.633656 0
    outer loop
      vertex 50.729 58.175 0
      vertex 50.729 58.175 10
      vertex 50.317 58.678 0
    endloop
  endfacet
  facet normal -0.773615 -0.633656 0
    outer loop
      vertex 50.317 58.678 0
      vertex 50.729 58.175 10
      vertex 50.317 58.678 10
    endloop
  endfacet
  facet normal -0.694046 -0.71993 0
    outer loop
      vertex 50.729 58.175 0
      vertex 51.925 57.022 0
      vertex 51.925 57.022 10
    endloop
  endfacet
  facet normal -0.694046 -0.71993 0
    outer loop
      vertex 50.729 58.175 10
      vertex 50.729 58.175 0
      vertex 51.925 57.022 10
    endloop
  endfacet
  facet normal -0.672482 -0.740114 0
    outer loop
      vertex 51.925 57.022 0
      vertex 54.048 55.093 0
      vertex 54.048 55.093 10
    endloop
  endfacet
  facet normal -0.672482 -0.740114 0
    outer loop
      vertex 51.925 57.022 10
      vertex 51.925 57.022 0
      vertex 54.048 55.093 10
    endloop
  endfacet
  facet normal -0.712663 -0.701506 0
    outer loop
      vertex 56.06 53.049 0
      vertex 56.06 53.049 10
      vertex 54.048 55.093 0
    endloop
  endfacet
  facet normal -0.712663 -0.701506 0
    outer loop
      vertex 54.048 55.093 0
      vertex 56.06 53.049 10
      vertex 54.048 55.093 10
    endloop
  endfacet
  facet normal -0.854984 -0.518655 0
    outer loop
      vertex 57.232 51.117 0
      vertex 57.232 51.117 10
      vertex 56.06 53.049 0
    endloop
  endfacet
  facet normal -0.854984 -0.518655 0
    outer loop
      vertex 56.06 53.049 0
      vertex 57.232 51.117 10
      vertex 56.06 53.049 10
    endloop
  endfacet
  facet normal -0.764317 -0.644841 0
    outer loop
      vertex 59.175 48.814 0
      vertex 59.175 48.814 10
      vertex 57.232 51.117 0
    endloop
  endfacet
  facet normal -0.764317 -0.644841 0
    outer loop
      vertex 57.232 51.117 0
      vertex 59.175 48.814 10
      vertex 57.232 51.117 10
    endloop
  endfacet
  facet normal -0.807217 -0.590254 0
    outer loop
      vertex 61.229 46.005 0
      vertex 61.229 46.005 10
      vertex 59.175 48.814 0
    endloop
  endfacet
  facet normal -0.807217 -0.590254 0
    outer loop
      vertex 59.175 48.814 0
      vertex 61.229 46.005 10
      vertex 59.175 48.814 10
    endloop
  endfacet
  facet normal 0.993094 -0.117321 0
    outer loop
      vertex 61.229 46.005 0
      vertex 64.039 69.791 0
      vertex 64.039 69.791 10
    endloop
  endfacet
  facet normal 0.993094 -0.117321 0
    outer loop
      vertex 61.229 46.005 10
      vertex 61.229 46.005 0
      vertex 64.039 69.791 10
    endloop
  endfacet
  facet normal 0.618753 0.785586 0
    outer loop
      vertex 61.209 72.02 10
      vertex 64.039 69.791 10
      vertex 61.209 72.02 0
    endloop
  endfacet
  facet normal 0.618753 0.785586 0
    outer loop
      vertex 61.209 72.02 0
      vertex 64.039 69.791 10
      vertex 64.039 69.791 0
    endloop
  endfacet
  facet normal 0.592512 0.805561 0
    outer loop
      vertex 57.927 74.434 10
      vertex 61.209 72.02 10
      vertex 57.927 74.434 0
    endloop
  endfacet
  facet normal 0.592512 0.805561 0
    outer loop
      vertex 57.927 74.434 0
      vertex 61.209 72.02 10
      vertex 61.209 72.02 0
    endloop
  endfacet
  facet normal 0.675307 0.737537 0
    outer loop
      vertex 54.727 77.364 10
      vertex 57.927 74.434 10
      vertex 54.727 77.364 0
    endloop
  endfacet
  facet normal 0.675307 0.737537 0
    outer loop
      vertex 54.727 77.364 0
      vertex 57.927 74.434 10
      vertex 57.927 74.434 0
    endloop
  endfacet
  facet normal 0.705219 0.708989 0
    outer loop
      vertex 51.906 80.17 10
      vertex 54.727 77.364 10
      vertex 51.906 80.17 0
    endloop
  endfacet
  facet normal 0.705219 0.708989 0
    outer loop
      vertex 51.906 80.17 0
      vertex 54.727 77.364 10
      vertex 54.727 77.364 0
    endloop
  endfacet
  facet normal 0.703746 0.710452 0
    outer loop
      vertex 50.317 81.744 10
      vertex 51.906 80.17 10
      vertex 50.317 81.744 0
    endloop
  endfacet
  facet normal 0.703746 0.710452 0
    outer loop
      vertex 50.317 81.744 0
      vertex 51.906 80.17 10
      vertex 51.906 80.17 0
    endloop
  endfacet
  facet normal 0.685316 0.728246 0
    outer loop
      vertex 48.468 83.484 10
      vertex 50.317 81.744 10
      vertex 48.468 83.484 0
    endloop
  endfacet
  facet normal 0.685316 0.728246 0
    outer loop
      vertex 48.468 83.484 0
      vertex 50.317 81.744 10
      vertex 50.317 81.744 0
    endloop
  endfacet
  facet normal 0.717049 0.697023 0
    outer loop
      vertex 46.31 85.704 0
      vertex 46.31 85.704 10
      vertex 48.468 83.484 10
    endloop
  endfacet
  facet normal 0.717049 0.697023 0
    outer loop
      vertex 48.468 83.484 0
      vertex 46.31 85.704 0
      vertex 48.468 83.484 10
    endloop
  endfacet
  facet normal 0.74431 0.667834 0
    outer loop
      vertex 44.677 87.524 0
      vertex 44.677 87.524 10
      vertex 46.31 85.704 10
    endloop
  endfacet
  facet normal 0.74431 0.667834 0
    outer loop
      vertex 46.31 85.704 0
      vertex 44.677 87.524 0
      vertex 46.31 85.704 10
    endloop
  endfacet
  facet normal 0.741715 0.670715 0
    outer loop
      vertex 43.704 88.6 0
      vertex 43.704 88.6 10
      vertex 44.677 87.524 10
    endloop
  endfacet
  facet normal 0.741715 0.670715 0
    outer loop
      vertex 44.677 87.524 0
      vertex 43.704 88.6 0
      vertex 44.677 87.524 10
    endloop
  endfacet
  facet normal 0.70961 0.704595 0
    outer loop
      vertex 42.58 89.732 0
      vertex 42.58 89.732 10
      vertex 43.704 88.6 10
    endloop
  endfacet
  facet normal 0.70961 0.704595 0
    outer loop
      vertex 43.704 88.6 0
      vertex 42.58 89.732 0
      vertex 43.704 88.6 10
    endloop
  endfacet
  facet normal 0.716376 0.697714 0
    outer loop
      vertex 41.421 90.922 0
      vertex 41.421 90.922 10
      vertex 42.58 89.732 10
    endloop
  endfacet
  facet normal 0.716376 0.697714 0
    outer loop
      vertex 42.58 89.732 0
      vertex 41.421 90.922 0
      vertex 42.58 89.732 10
    endloop
  endfacet
  facet normal 0.735117 0.677941 0
    outer loop
      vertex 40.508 91.912 0
      vertex 40.508 91.912 10
      vertex 41.421 90.922 10
    endloop
  endfacet
  facet normal 0.735117 0.677941 0
    outer loop
      vertex 41.421 90.922 0
      vertex 40.508 91.912 0
      vertex 41.421 90.922 10
    endloop
  endfacet
  facet normal 0.7494 0.662118 0
    outer loop
      vertex 39.317 93.26 0
      vertex 39.317 93.26 10
      vertex 40.508 91.912 10
    endloop
  endfacet
  facet normal 0.7494 0.662118 0
    outer loop
      vertex 40.508 91.912 0
      vertex 39.317 93.26 0
      vertex 40.508 91.912 10
    endloop
  endfacet
  facet normal 0.816419 0.577461 0
    outer loop
      vertex 37.014 96.516 0
      vertex 37.014 96.516 10
      vertex 39.317 93.26 10
    endloop
  endfacet
  facet normal 0.816419 0.577461 0
    outer loop
      vertex 39.317 93.26 0
      vertex 37.014 96.516 0
      vertex 39.317 93.26 10
    endloop
  endfacet
  facet normal 0.999636 0.026986 0
    outer loop
      vertex 36.897 100.85 0
      vertex 36.897 100.85 10
      vertex 37.014 96.516 10
    endloop
  endfacet
  facet normal 0.999636 0.026986 0
    outer loop
      vertex 37.014 96.516 0
      vertex 36.897 100.85 0
      vertex 37.014 96.516 10
    endloop
  endfacet
  facet normal 0.966542 -0.256507 0
    outer loop
      vertex 36.897 100.85 0
      vertex 38.044 105.172 0
      vertex 38.044 105.172 10
    endloop
  endfacet
  facet normal 0.966542 -0.256507 0
    outer loop
      vertex 36.897 100.85 10
      vertex 36.897 100.85 0
      vertex 38.044 105.172 10
    endloop
  endfacet
  facet normal 0.920411 -0.390951 0
    outer loop
      vertex 38.044 105.172 0
      vertex 39.094 107.644 0
      vertex 39.094 107.644 10
    endloop
  endfacet
  facet normal 0.920411 -0.390951 0
    outer loop
      vertex 38.044 105.172 10
      vertex 38.044 105.172 0
      vertex 39.094 107.644 10
    endloop
  endfacet
  facet normal 0.900217 -0.435441 0
    outer loop
      vertex 39.094 107.644 0
      vertex 40.519 110.59 0
      vertex 40.519 110.59 10
    endloop
  endfacet
  facet normal 0.900217 -0.435441 0
    outer loop
      vertex 39.094 107.644 10
      vertex 39.094 107.644 0
      vertex 40.519 110.59 10
    endloop
  endfacet
  facet normal 0.902748 -0.430169 0
    outer loop
      vertex 40.519 110.59 0
      vertex 42.436 114.613 0
      vertex 42.436 114.613 10
    endloop
  endfacet
  facet normal 0.902748 -0.430169 0
    outer loop
      vertex 40.519 110.59 10
      vertex 40.519 110.59 0
      vertex 42.436 114.613 10
    endloop
  endfacet
  facet normal 0.850001 -0.526782 0
    outer loop
      vertex 42.436 114.613 0
      vertex 44.602 118.108 0
      vertex 44.602 118.108 10
    endloop
  endfacet
  facet normal 0.850001 -0.526782 0
    outer loop
      vertex 42.436 114.613 10
      vertex 42.436 114.613 0
      vertex 44.602 118.108 10
    endloop
  endfacet
  facet normal 0.683885 -0.729589 0
    outer loop
      vertex 44.602 118.108 0
      vertex 47.651 120.966 0
      vertex 47.651 120.966 10
    endloop
  endfacet
  facet normal 0.683885 -0.729589 0
    outer loop
      vertex 44.602 118.108 10
      vertex 44.602 118.108 0
      vertex 47.651 120.966 10
    endloop
  endfacet
  facet normal 0.520761 -0.853702 0
    outer loop
      vertex 47.651 120.966 0
      vertex 50.51 122.71 0
      vertex 50.51 122.71 10
    endloop
  endfacet
  facet normal 0.520761 -0.853702 0
    outer loop
      vertex 47.651 120.966 10
      vertex 47.651 120.966 0
      vertex 50.51 122.71 10
    endloop
  endfacet
  facet normal 0.233028 -0.97247 0
    outer loop
      vertex 50.51 122.71 0
      vertex 53.811 123.501 0
      vertex 53.811 123.501 10
    endloop
  endfacet
  facet normal 0.233028 -0.97247 0
    outer loop
      vertex 50.51 122.71 10
      vertex 50.51 122.71 0
      vertex 53.811 123.501 10
    endloop
  endfacet
  facet normal -0.069557 -0.997578 0
    outer loop
      vertex 53.811 123.501 0
      vertex 57.167 123.267 0
      vertex 57.167 123.267 10
    endloop
  endfacet
  facet normal -0.069557 -0.997578 0
    outer loop
      vertex 53.811 123.501 10
      vertex 53.811 123.501 0
      vertex 57.167 123.267 10
    endloop
  endfacet
  facet normal -0.403975 -0.91477 0
    outer loop
      vertex 57.167 123.267 0
      vertex 60.19 121.932 0
      vertex 60.19 121.932 10
    endloop
  endfacet
  facet normal -0.403975 -0.91477 0
    outer loop
      vertex 57.167 123.267 10
      vertex 57.167 123.267 0
      vertex 60.19 121.932 10
    endloop
  endfacet
  facet normal -0.383958 -0.92335 0
    outer loop
      vertex 60.19 121.932 0
      vertex 62.186 121.102 0
      vertex 62.186 121.102 10
    endloop
  endfacet
  facet normal -0.383958 -0.92335 0
    outer loop
      vertex 60.19 121.932 10
      vertex 60.19 121.932 0
      vertex 62.186 121.102 10
    endloop
  endfacet
  facet normal -0.581034 -0.813879 0
    outer loop
      vertex 62.186 121.102 0
      vertex 64.07 119.757 0
      vertex 64.07 119.757 10
    endloop
  endfacet
  facet normal -0.581034 -0.813879 0
    outer loop
      vertex 62.186 121.102 10
      vertex 62.186 121.102 0
      vertex 64.07 119.757 10
    endloop
  endfacet
  facet normal -0.675368 -0.737481 0
    outer loop
      vertex 64.07 119.757 0
      vertex 65.851 118.126 0
      vertex 65.851 118.126 10
    endloop
  endfacet
  facet normal -0.675368 -0.737481 0
    outer loop
      vertex 64.07 119.757 10
      vertex 64.07 119.757 0
      vertex 65.851 118.126 10
    endloop
  endfacet
  facet normal -0.708572 -0.705639 0
    outer loop
      vertex 67.535 116.435 0
      vertex 67.535 116.435 10
      vertex 65.851 118.126 0
    endloop
  endfacet
  facet normal -0.708572 -0.705639 0
    outer loop
      vertex 65.851 118.126 0
      vertex 67.535 116.435 10
      vertex 65.851 118.126 10
    endloop
  endfacet
  facet normal -0.637416 -0.77052 0
    outer loop
      vertex 67.535 116.435 0
      vertex 69.098 115.142 0
      vertex 69.098 115.142 10
    endloop
  endfacet
  facet normal -0.637416 -0.77052 0
    outer loop
      vertex 67.535 116.435 10
      vertex 67.535 116.435 0
      vertex 69.098 115.142 10
    endloop
  endfacet
  facet normal -0.32621 -0.945297 0
    outer loop
      vertex 69.098 115.142 0
      vertex 70.828 114.545 0
      vertex 70.828 114.545 10
    endloop
  endfacet
  facet normal -0.32621 -0.945297 0
    outer loop
      vertex 69.098 115.142 10
      vertex 69.098 115.142 0
      vertex 70.828 114.545 10
    endloop
  endfacet
  facet normal 0.198486 -0.980104 0
    outer loop
      vertex 70.828 114.545 0
      vertex 72.418 114.867 0
      vertex 72.418 114.867 10
    endloop
  endfacet
  facet normal 0.198486 -0.980104 0
    outer loop
      vertex 70.828 114.545 10
      vertex 70.828 114.545 0
      vertex 72.418 114.867 10
    endloop
  endfacet
  facet normal 0.786971 -0.61699 0
    outer loop
      vertex 72.418 114.867 0
      vertex 73.565 116.33 0
      vertex 73.565 116.33 10
    endloop
  endfacet
  facet normal 0.786971 -0.61699 0
    outer loop
      vertex 72.418 114.867 10
      vertex 72.418 114.867 0
      vertex 73.565 116.33 10
    endloop
  endfacet
  facet normal 0.987165 0.159703 0
    outer loop
      vertex 73.096 119.229 0
      vertex 73.096 119.229 10
      vertex 73.565 116.33 10
    endloop
  endfacet
  facet normal 0.987165 0.159703 0
    outer loop
      vertex 73.565 116.33 0
      vertex 73.096 119.229 0
      vertex 73.565 116.33 10
    endloop
  endfacet
  facet normal 0.9994 -0.0346343 0
    outer loop
      vertex 73.096 119.229 0
      vertex 73.2 122.23 0
      vertex 73.2 122.23 10
    endloop
  endfacet
  facet normal 0.9994 -0.0346343 0
    outer loop
      vertex 73.096 119.229 10
      vertex 73.096 119.229 0
      vertex 73.2 122.23 10
    endloop
  endfacet
  facet normal 0.999981 0.00619183 0
    outer loop
      vertex 73.182 125.137 0
      vertex 73.182 125.137 10
      vertex 73.2 122.23 10
    endloop
  endfacet
  facet normal 0.999981 0.00619183 0
    outer loop
      vertex 73.2 122.23 0
      vertex 73.182 125.137 0
      vertex 73.2 122.23 10
    endloop
  endfacet
  facet normal 0.95261 0.304195 0
    outer loop
      vertex 72.346 127.755 0
      vertex 72.346 127.755 10
      vertex 73.182 125.137 10
    endloop
  endfacet
  facet normal 0.95261 0.304195 0
    outer loop
      vertex 73.182 125.137 0
      vertex 72.346 127.755 0
      vertex 73.182 125.137 10
    endloop
  endfacet
  facet normal 0.98451 0.175327 0
    outer loop
      vertex 71.704 131.36 0
      vertex 71.704 131.36 10
      vertex 72.346 127.755 10
    endloop
  endfacet
  facet normal 0.98451 0.175327 0
    outer loop
      vertex 72.346 127.755 0
      vertex 71.704 131.36 0
      vertex 72.346 127.755 10
    endloop
  endfacet
  facet normal 0.956905 0.2904 0
    outer loop
      vertex 70.657 134.81 0
      vertex 70.657 134.81 10
      vertex 71.704 131.36 10
    endloop
  endfacet
  facet normal 0.956905 0.2904 0
    outer loop
      vertex 71.704 131.36 0
      vertex 70.657 134.81 0
      vertex 71.704 131.36 10
    endloop
  endfacet
  facet normal 0.953395 0.301725 0
    outer loop
      vertex 69.562 138.27 0
      vertex 69.562 138.27 10
      vertex 70.657 134.81 10
    endloop
  endfacet
  facet normal 0.953395 0.301725 0
    outer loop
      vertex 70.657 134.81 0
      vertex 69.562 138.27 0
      vertex 70.657 134.81 10
    endloop
  endfacet
  facet normal 0.97753 0.210798 0
    outer loop
      vertex 68.779 141.901 0
      vertex 68.779 141.901 10
      vertex 69.562 138.27 10
    endloop
  endfacet
  facet normal 0.97753 0.210798 0
    outer loop
      vertex 69.562 138.27 0
      vertex 68.779 141.901 0
      vertex 69.562 138.27 10
    endloop
  endfacet
  facet normal 0.791635 0.610994 0
    outer loop
      vertex 67.629 143.391 0
      vertex 67.629 143.391 10
      vertex 68.779 141.901 10
    endloop
  endfacet
  facet normal 0.791635 0.610994 0
    outer loop
      vertex 68.779 141.901 0
      vertex 67.629 143.391 0
      vertex 68.779 141.901 10
    endloop
  endfacet
  facet normal 0.898768 0.438424 0
    outer loop
      vertex 66.689 145.318 0
      vertex 66.689 145.318 10
      vertex 67.629 143.391 10
    endloop
  endfacet
  facet normal 0.898768 0.438424 0
    outer loop
      vertex 67.629 143.391 0
      vertex 66.689 145.318 0
      vertex 67.629 143.391 10
    endloop
  endfacet
  facet normal 0.921693 0.38792 0
    outer loop
      vertex 65.806 147.416 0
      vertex 65.806 147.416 10
      vertex 66.689 145.318 10
    endloop
  endfacet
  facet normal 0.921693 0.38792 0
    outer loop
      vertex 66.689 145.318 0
      vertex 65.806 147.416 0
      vertex 66.689 145.318 10
    endloop
  endfacet
  facet normal 0.898777 0.438406 0
    outer loop
      vertex 64.828 149.421 0
      vertex 64.828 149.421 10
      vertex 65.806 147.416 10
    endloop
  endfacet
  facet normal 0.898777 0.438406 0
    outer loop
      vertex 65.806 147.416 0
      vertex 64.828 149.421 0
      vertex 65.806 147.416 10
    endloop
  endfacet
  facet normal 0.859389 0.511322 0
    outer loop
      vertex 63.215 152.132 0
      vertex 63.215 152.132 10
      vertex 64.828 149.421 10
    endloop
  endfacet
  facet normal 0.859389 0.511322 0
    outer loop
      vertex 64.828 149.421 0
      vertex 63.215 152.132 0
      vertex 64.828 149.421 10
    endloop
  endfacet
  facet normal 0.771439 0.636303 0
    outer loop
      vertex 61.195 154.581 0
      vertex 61.195 154.581 10
      vertex 63.215 152.132 10
    endloop
  endfacet
  facet normal 0.771439 0.636303 0
    outer loop
      vertex 63.215 152.132 0
      vertex 61.195 154.581 0
      vertex 63.215 152.132 10
    endloop
  endfacet
  facet normal 0.685182 0.728372 0
    outer loop
      vertex 58.834 156.802 10
      vertex 61.195 154.581 10
      vertex 58.834 156.802 0
    endloop
  endfacet
  facet normal 0.685182 0.728372 0
    outer loop
      vertex 58.834 156.802 0
      vertex 61.195 154.581 10
      vertex 61.195 154.581 0
    endloop
  endfacet
  facet normal 0.60958 0.792725 0
    outer loop
      vertex 56.198 158.829 10
      vertex 58.834 156.802 10
      vertex 56.198 158.829 0
    endloop
  endfacet
  facet normal 0.60958 0.792725 0
    outer loop
      vertex 56.198 158.829 0
      vertex 58.834 156.802 10
      vertex 58.834 156.802 0
    endloop
  endfacet
  facet normal 0.22279 0.974866 0
    outer loop
      vertex 55.441 159.002 10
      vertex 56.198 158.829 10
      vertex 55.441 159.002 0
    endloop
  endfacet
  facet normal 0.22279 0.974866 0
    outer loop
      vertex 55.441 159.002 0
      vertex 56.198 158.829 10
      vertex 56.198 158.829 0
    endloop
  endfacet
  facet normal 0.22251 0.97493 0
    outer loop
      vertex 54.683 159.175 10
      vertex 55.441 159.002 10
      vertex 54.683 159.175 0
    endloop
  endfacet
  facet normal 0.22251 0.97493 0
    outer loop
      vertex 54.683 159.175 0
      vertex 55.441 159.002 10
      vertex 55.441 159.002 0
    endloop
  endfacet
  facet normal 0.22251 0.97493 0
    outer loop
      vertex 53.925 159.348 10
      vertex 54.683 159.175 10
      vertex 53.925 159.348 0
    endloop
  endfacet
  facet normal 0.22251 0.97493 0
    outer loop
      vertex 53.925 159.348 0
      vertex 54.683 159.175 10
      vertex 54.683 159.175 0
    endloop
  endfacet
  facet normal 0.22279 0.974866 0
    outer loop
      vertex 53.168 159.521 10
      vertex 53.925 159.348 10
      vertex 53.168 159.521 0
    endloop
  endfacet
  facet normal 0.22279 0.974866 0
    outer loop
      vertex 53.168 159.521 0
      vertex 53.925 159.348 10
      vertex 53.925 159.348 0
    endloop
  endfacet
  facet normal -0.288278 0.957547 0
    outer loop
      vertex 49.109 158.299 10
      vertex 53.168 159.521 10
      vertex 49.109 158.299 0
    endloop
  endfacet
  facet normal -0.288278 0.957547 0
    outer loop
      vertex 49.109 158.299 0
      vertex 53.168 159.521 10
      vertex 53.168 159.521 0
    endloop
  endfacet
  facet normal -0.622341 0.782746 0
    outer loop
      vertex 45.698 155.587 10
      vertex 49.109 158.299 10
      vertex 45.698 155.587 0
    endloop
  endfacet
  facet normal -0.622341 0.782746 0
    outer loop
      vertex 45.698 155.587 0
      vertex 49.109 158.299 10
      vertex 49.109 158.299 0
    endloop
  endfacet
  facet normal -0.800317 0.599577 0
    outer loop
      vertex 42.977 151.955 10
      vertex 45.698 155.587 10
      vertex 42.977 151.955 0
    endloop
  endfacet
  facet normal -0.800317 0.599577 0
    outer loop
      vertex 42.977 151.955 0
      vertex 45.698 155.587 10
      vertex 45.698 155.587 0
    endloop
  endfacet
  facet normal -0.894696 0.446675 0
    outer loop
      vertex 40.987 147.969 10
      vertex 42.977 151.955 10
      vertex 40.987 147.969 0
    endloop
  endfacet
  facet normal -0.894696 0.446675 0
    outer loop
      vertex 40.987 147.969 0
      vertex 42.977 151.955 10
      vertex 42.977 151.955 0
    endloop
  endfacet
  facet normal -0.843359 0.537351 0
    outer loop
      vertex 38.792 144.524 10
      vertex 40.987 147.969 10
      vertex 38.792 144.524 0
    endloop
  endfacet
  facet normal -0.843359 0.537351 0
    outer loop
      vertex 38.792 144.524 0
      vertex 40.987 147.969 10
      vertex 40.987 147.969 0
    endloop
  endfacet
  facet normal -0.92854 0.371231 0
    outer loop
      vertex 37.184 140.502 10
      vertex 38.792 144.524 10
      vertex 37.184 140.502 0
    endloop
  endfacet
  facet normal -0.92854 0.371231 0
    outer loop
      vertex 37.184 140.502 0
      vertex 38.792 144.524 10
      vertex 38.792 144.524 0
    endloop
  endfacet
  facet normal -0.948384 0.317124 0
    outer loop
      vertex 35.804 136.375 10
      vertex 37.184 140.502 10
      vertex 35.804 136.375 0
    endloop
  endfacet
  facet normal -0.948384 0.317124 0
    outer loop
      vertex 35.804 136.375 0
      vertex 37.184 140.502 10
      vertex 37.184 140.502 0
    endloop
  endfacet
  facet normal -0.927777 0.373136 0
    outer loop
      vertex 34.293 132.618 10
      vertex 35.804 136.375 10
      vertex 34.293 132.618 0
    endloop
  endfacet
  facet normal -0.927777 0.373136 0
    outer loop
      vertex 34.293 132.618 0
      vertex 35.804 136.375 10
      vertex 35.804 136.375 0
    endloop
  endfacet
  facet normal -0.975475 0.220112 0
    outer loop
      vertex 33.524 129.21 10
      vertex 34.293 132.618 10
      vertex 33.524 129.21 0
    endloop
  endfacet
  facet normal -0.975475 0.220112 0
    outer loop
      vertex 33.524 129.21 0
      vertex 34.293 132.618 10
      vertex 34.293 132.618 0
    endloop
  endfacet
  facet normal -0.973207 0.229932 0
    outer loop
      vertex 32.72 125.807 10
      vertex 33.524 129.21 10
      vertex 32.72 125.807 0
    endloop
  endfacet
  facet normal -0.973207 0.229932 0
    outer loop
      vertex 32.72 125.807 0
      vertex 33.524 129.21 10
      vertex 33.524 129.21 0
    endloop
  endfacet
  facet normal -0.978641 0.205578 0
    outer loop
      vertex 32.002 122.389 10
      vertex 32.72 125.807 10
      vertex 32.002 122.389 0
    endloop
  endfacet
  facet normal -0.978641 0.205578 0
    outer loop
      vertex 32.002 122.389 0
      vertex 32.72 125.807 10
      vertex 32.72 125.807 0
    endloop
  endfacet
  facet normal -0.989108 0.147192 0
    outer loop
      vertex 31.488 118.935 10
      vertex 32.002 122.389 10
      vertex 31.488 118.935 0
    endloop
  endfacet
  facet normal -0.989108 0.147192 0
    outer loop
      vertex 31.488 118.935 0
      vertex 32.002 122.389 10
      vertex 32.002 122.389 0
    endloop
  endfacet
  facet normal -0.972947 0.231029 0
    outer loop
      vertex 30.802 116.046 10
      vertex 31.488 118.935 10
      vertex 30.802 116.046 0
    endloop
  endfacet
  facet normal -0.972947 0.231029 0
    outer loop
      vertex 30.802 116.046 0
      vertex 31.488 118.935 10
      vertex 31.488 118.935 0
    endloop
  endfacet
  facet normal -0.98002 0.198897 0
    outer loop
      vertex 30.197 113.065 10
      vertex 30.802 116.046 10
      vertex 30.197 113.065 0
    endloop
  endfacet
  facet normal -0.98002 0.198897 0
    outer loop
      vertex 30.197 113.065 0
      vertex 30.802 116.046 10
      vertex 30.802 116.046 0
    endloop
  endfacet
  facet normal -0.982684 0.185291 0
    outer loop
      vertex 29.65 110.164 10
      vertex 30.197 113.065 10
      vertex 29.65 110.164 0
    endloop
  endfacet
  facet normal -0.982684 0.185291 0
    outer loop
      vertex 29.65 110.164 0
      vertex 30.197 113.065 10
      vertex 30.197 113.065 0
    endloop
  endfacet
  facet normal -0.981664 0.190621 0
    outer loop
      vertex 29.136 107.517 10
      vertex 29.65 110.164 10
      vertex 29.136 107.517 0
    endloop
  endfacet
  facet normal -0.981664 0.190621 0
    outer loop
      vertex 29.136 107.517 0
      vertex 29.65 110.164 10
      vertex 29.65 110.164 0
    endloop
  endfacet
  facet normal 0.849736 0.527208 0
    outer loop
      vertex 27.351 110.394 0
      vertex 27.351 110.394 10
      vertex 29.136 107.517 10
    endloop
  endfacet
  facet normal 0.849736 0.527208 0
    outer loop
      vertex 29.136 107.517 0
      vertex 27.351 110.394 0
      vertex 29.136 107.517 10
    endloop
  endfacet
  facet normal 0.879154 0.476538 0
    outer loop
      vertex 25.662 113.51 0
      vertex 25.662 113.51 10
      vertex 27.351 110.394 10
    endloop
  endfacet
  facet normal 0.879154 0.476538 0
    outer loop
      vertex 27.351 110.394 0
      vertex 25.662 113.51 0
      vertex 27.351 110.394 10
    endloop
  endfacet
  facet normal 0.885612 0.464425 0
    outer loop
      vertex 24.169 116.357 0
      vertex 24.169 116.357 10
      vertex 25.662 113.51 10
    endloop
  endfacet
  facet normal 0.885612 0.464425 0
    outer loop
      vertex 25.662 113.51 0
      vertex 24.169 116.357 0
      vertex 25.662 113.51 10
    endloop
  endfacet
  facet normal 0.876812 0.480833 0
    outer loop
      vertex 23.302 117.938 0
      vertex 23.302 117.938 10
      vertex 24.169 116.357 10
    endloop
  endfacet
  facet normal 0.876812 0.480833 0
    outer loop
      vertex 24.169 116.357 0
      vertex 23.302 117.938 0
      vertex 24.169 116.357 10
    endloop
  endfacet
  facet normal 0.855204 0.518291 0
    outer loop
      vertex 22.219 119.725 0
      vertex 22.219 119.725 10
      vertex 23.302 117.938 10
    endloop
  endfacet
  facet normal 0.855204 0.518291 0
    outer loop
      vertex 23.302 117.938 0
      vertex 22.219 119.725 0
      vertex 23.302 117.938 10
    endloop
  endfacet
  facet normal 0.884805 0.465962 0
    outer loop
      vertex 20.973 122.091 0
      vertex 20.973 122.091 10
      vertex 22.219 119.725 10
    endloop
  endfacet
  facet normal 0.884805 0.465962 0
    outer loop
      vertex 22.219 119.725 0
      vertex 20.973 122.091 0
      vertex 22.219 119.725 10
    endloop
  endfacet
  facet normal 0.92527 0.379309 0
    outer loop
      vertex 20.099 124.223 0
      vertex 20.099 124.223 10
      vertex 20.973 122.091 10
    endloop
  endfacet
  facet normal 0.92527 0.379309 0
    outer loop
      vertex 20.973 122.091 0
      vertex 20.099 124.223 0
      vertex 20.973 122.091 10
    endloop
  endfacet
  facet normal 0.957737 0.287645 0
    outer loop
      vertex 19.477 126.294 0
      vertex 19.477 126.294 10
      vertex 20.099 124.223 10
    endloop
  endfacet
  facet normal 0.957737 0.287645 0
    outer loop
      vertex 20.099 124.223 0
      vertex 19.477 126.294 0
      vertex 20.099 124.223 10
    endloop
  endfacet
  facet normal 0.929807 0.368048 0
    outer loop
      vertex 18.489 128.79 0
      vertex 18.489 128.79 10
      vertex 19.477 126.294 10
    endloop
  endfacet
  facet normal 0.929807 0.368048 0
    outer loop
      vertex 19.477 126.294 0
      vertex 18.489 128.79 0
      vertex 19.477 126.294 10
    endloop
  endfacet
  facet normal 0.938806 0.344446 0
    outer loop
      vertex 17.538 131.382 0
      vertex 17.538 131.382 10
      vertex 18.489 128.79 10
    endloop
  endfacet
  facet normal 0.938806 0.344446 0
    outer loop
      vertex 18.489 128.79 0
      vertex 17.538 131.382 0
      vertex 18.489 128.79 10
    endloop
  endfacet
endsolid OpenSCAD_Model
