solid OpenSCAD_Model
  facet normal 0.998284 -0.0585555 0
    outer loop
      vertex 27.472 37.495 0
      vertex 27.74 42.064 0
      vertex 27.74 42.064 10
    endloop
  endfacet
  facet normal 0.998284 -0.0585555 0
    outer loop
      vertex 27.472 37.495 10
      vertex 27.472 37.495 0
      vertex 27.74 42.064 10
    endloop
  endfacet
  facet normal 0.997287 -0.0736059 0
    outer loop
      vertex 27.74 42.064 0
      vertex 28.046 46.21 0
      vertex 28.046 46.21 10
    endloop
  endfacet
  facet normal 0.997287 -0.0736059 0
    outer loop
      vertex 27.74 42.064 10
      vertex 27.74 42.064 0
      vertex 28.046 46.21 10
    endloop
  endfacet
  facet normal 0 0 -1
    outer loop
      vertex 10.622 34.709 0
      vertex 10.687 37.848 0
      vertex 10.615 32.751 0
    endloop
  endfacet
  facet normal 0 0 -1
    outer loop
      vertex 10.615 32.751 0
      vertex 10.687 37.848 0
      vertex 10.795 41.365 0
    endloop
  endfacet
  facet normal 0 0 -1
    outer loop
      vertex 10.615 32.751 0
      vertex 10.795 41.365 0
      vertex 10.874 43.955 0
    endloop
  endfacet
  facet normal 0 0 -1
    outer loop
      vertex 10.615 32.751 0
      vertex 10.874 43.955 0
      vertex 10.997 45.148 0
    endloop
  endfacet
  facet normal 0 0 -1
    outer loop
      vertex 10.615 32.751 0
      vertex 10.997 45.148 0
      vertex 11.243 47.002 0
    endloop
  endfacet
  facet normal 0 0 -1
    outer loop
      vertex 10.615 32.751 0
      vertex 11.243 47.002 0
      vertex 11.497 49.862 0
    endloop
  endfacet
  facet normal 0 0 -1
    outer loop
      vertex 11.616 61.219 0
      vertex 11.614 74.038 0
      vertex 11.641 55.812 0
    endloop
  endfacet
  facet normal 0 0 -1
    outer loop
      vertex 11.531 66.927 0
      vertex 11.375 71.908 0
      vertex 11.614 74.038 0
    endloop
  endfacet
  facet normal 0 0 -1
    outer loop
      vertex 11.531 66.927 0
      vertex 11.614 74.038 0
      vertex 11.616 61.219 0
    endloop
  endfacet
  facet normal 0 0 -1
    outer loop
      vertex 11.494 76.869 0
      vertex 11.326 79.966 0
      vertex 11.424 82.894 0
    endloop
  endfacet
  facet normal 0 0 -1
    outer loop
      vertex 11.494 76.869 0
      vertex 11.424 82.894 0
      vertex 11.614 74.038 0
    endloop
  endfacet
  facet normal 0 0 -1
    outer loop
      vertex 11.614 74.038 0
      vertex 11.424 82.894 0
      vertex 11.653 89.591 0
    endloop
  endfacet
  facet normal 0 0 -1
    outer loop
      vertex 11.614 74.038 0
      vertex 11.653 89.591 0
      vertex 11.641 55.812 0
    endloop
  endfacet
  facet normal 0 0 -1
    outer loop
      vertex 11.641 55.812 0
      vertex 11.653 89.591 0
      vertex 12.594 96.222 0
    endloop
  endfacet
  facet normal 0 0 -1
    outer loop
      vertex 11.641 55.812 0
      vertex 12.594 96.222 0
      vertex 11.633 52.731 0
    endloop
  endfacet
  facet normal 0 0 -1
    outer loop
      vertex 11.633 52.731 0
      vertex 12.594 96.222 0
      vertex 14.028 102.783 0
    endloop
  endfacet
  facet normal 0 0 -1
    outer loop
      vertex 11.633 52.731 0
      vertex 14.028 102.783 0
      vertex 11.497 49.862 0
    endloop
  endfacet
  facet normal 0 0 -1
    outer loop
      vertex 11.497 49.862 0
      vertex 14.028 102.783 0
      vertex 15.732 109.27 0
    endloop
  endfacet
  facet normal 0 0 -1
    outer loop
      vertex 11.497 49.862 0
      vertex 15.732 109.27 0
      vertex 10.615 32.751 0
    endloop
  endfacet
  facet normal 0 0 -1
    outer loop
      vertex 10.615 32.751 0
      vertex 15.732 109.27 0
      vertex 17.826 115.401 0
    endloop
  endfacet
  facet normal 0 0 -1
    outer loop
      vertex 10.615 32.751 0
      vertex 17.826 115.401 0
      vertex 20.655 121.268 0
    endloop
  endfacet
  facet normal 0 0 -1
    outer loop
      vertex 10.615 32.751 0
      vertex 20.655 121.268 0
      vertex 24.115 126.853 0
    endloop
  endfacet
  facet normal 0 0 -1
    outer loop
      vertex 10.615 32.751 0
      vertex 24.115 126.853 0
      vertex 28.104 132.136 0
    endloop
  endfacet
  facet normal 0 0 -1
    outer loop
      vertex 10.615 32.751 0
      vertex 28.104 132.136 0
      vertex 30.671 134.977 0
    endloop
  endfacet
  facet normal 0 0 -1
    outer loop
      vertex 10.615 32.751 0
      vertex 30.671 134.977 0
      vertex 33.244 137.556 0
    endloop
  endfacet
  facet normal 0 0 -1
    outer loop
      vertex 10.615 32.751 0
      vertex 33.244 137.556 0
      vertex 35.782 140.024 0
    endloop
  endfacet
  facet normal 0 0 -1
    outer loop
      vertex 33.741 124.724 0
      vertex 35.782 140.024 0
      vertex 38.246 142.536 0
    endloop
  endfacet
  facet normal 0 0 -1
    outer loop
      vertex 37.678 133.49 0
      vertex 38.246 142.536 0
      vertex 41.651 144.368 0
    endloop
  endfacet
  facet normal 0 0 -1
    outer loop
      vertex 40.485 136.284 0
      vertex 41.651 144.368 0
      vertex 45.441 145.047 0
    endloop
  endfacet
  facet normal 0 0 -1
    outer loop
      vertex 44.492 138.629 0
      vertex 45.441 145.047 0
      vertex 48.502 144.636 0
    endloop
  endfacet
  facet normal 0 0 -1
    outer loop
      vertex 48.104 140.832 0
      vertex 48.502 144.636 0
      vertex 49.723 143.197 0
    endloop
  endfacet
  facet normal 0 0 -1
    outer loop
      vertex 28.67 90.037 0
      vertex 10.615 32.751 0
      vertex 29.192 95.95 0
    endloop
  endfacet
  facet normal 0 0 -1
    outer loop
      vertex 27.472 37.495 0
      vertex 10.615 32.751 0
      vertex 27.74 42.064 0
    endloop
  endfacet
  facet normal 0 0 -1
    outer loop
      vertex 40.485 136.284 0
      vertex 45.441 145.047 0
      vertex 44.492 138.629 0
    endloop
  endfacet
  facet normal 0 0 -1
    outer loop
      vertex 37.678 133.49 0
      vertex 41.651 144.368 0
      vertex 40.485 136.284 0
    endloop
  endfacet
  facet normal 0 0 -1
    outer loop
      vertex 35.184 129.135 0
      vertex 38.246 142.536 0
      vertex 37.678 133.49 0
    endloop
  endfacet
  facet normal 0 0 -1
    outer loop
      vertex 33.741 124.724 0
      vertex 38.246 142.536 0
      vertex 35.184 129.135 0
    endloop
  endfacet
  facet normal 0 0 -1
    outer loop
      vertex 10.615 32.751 0
      vertex 35.782 140.024 0
      vertex 33.741 124.724 0
    endloop
  endfacet
  facet normal 0 0 -1
    outer loop
      vertex 32.902 120.147 0
      vertex 10.615 32.751 0
      vertex 33.741 124.724 0
    endloop
  endfacet
  facet normal 0 0 -1
    outer loop
      vertex 31.182 109.411 0
      vertex 10.615 32.751 0
      vertex 31.42 112.554 0
    endloop
  endfacet
  facet normal 0 0 -1
    outer loop
      vertex 31.42 112.554 0
      vertex 32.902 120.147 0
      vertex 32.22 115.293 0
    endloop
  endfacet
  facet normal 0 0 -1
    outer loop
      vertex 10.615 32.751 0
      vertex 32.902 120.147 0
      vertex 31.42 112.554 0
    endloop
  endfacet
  facet normal 0 0 -1
    outer loop
      vertex 30.935 105.726 0
      vertex 10.615 32.751 0
      vertex 31.182 109.411 0
    endloop
  endfacet
  facet normal 0 0 -1
    outer loop
      vertex 10.615 32.751 0
      vertex 30.935 105.726 0
      vertex 30.109 101.363 0
    endloop
  endfacet
  facet normal 0 0 -1
    outer loop
      vertex 28.466 84.13 0
      vertex 10.615 32.751 0
      vertex 28.67 90.037 0
    endloop
  endfacet
  facet normal 0 0 -1
    outer loop
      vertex 29.192 95.95 0
      vertex 10.615 32.751 0
      vertex 30.109 101.363 0
    endloop
  endfacet
  facet normal 0 0 -1
    outer loop
      vertex 28.505 78.735 0
      vertex 10.615 32.751 0
      vertex 28.466 84.13 0
    endloop
  endfacet
  facet normal 0 0 -1
    outer loop
      vertex 47.493 35.173 0
      vertex 52.32 34.322 0
      vertex 49.895 34.203 0
    endloop
  endfacet
  facet normal 0 0 -1
    outer loop
      vertex 47.493 35.173 0
      vertex 55.701 35.319 0
      vertex 52.32 34.322 0
    endloop
  endfacet
  facet normal 0 0 -1
    outer loop
      vertex 10.615 32.751 0
      vertex 28.505 78.735 0
      vertex 29.883 79.743 0
    endloop
  endfacet
  facet normal 0 0 -1
    outer loop
      vertex 29.883 79.743 0
      vertex 32.756 83.947 0
      vertex 10.615 32.751 0
    endloop
  endfacet
  facet normal 0 0 -1
    outer loop
      vertex 32.756 83.947 0
      vertex 35.99 89.144 0
      vertex 10.615 32.751 0
    endloop
  endfacet
  facet normal 0 0 -1
    outer loop
      vertex 35.99 89.144 0
      vertex 38.454 93.13 0
      vertex 10.615 32.751 0
    endloop
  endfacet
  facet normal 0 0 -1
    outer loop
      vertex 31.089 75.434 0
      vertex 38.454 93.13 0
      vertex 42.428 97.33 0
    endloop
  endfacet
  facet normal 0 0 -1
    outer loop
      vertex 36.31 82.036 0
      vertex 42.428 97.33 0
      vertex 46.64 101.691 0
    endloop
  endfacet
  facet normal 0 0 -1
    outer loop
      vertex 39.762 85.679 0
      vertex 46.64 101.691 0
      vertex 51.367 105.333 0
    endloop
  endfacet
  facet normal 0 0 -1
    outer loop
      vertex 41.764 85.311 0
      vertex 51.367 105.333 0
      vertex 56.887 107.375 0
    endloop
  endfacet
  facet normal 0 0 -1
    outer loop
      vertex 42.387 82.016 0
      vertex 56.887 107.375 0
      vertex 60.85 107.002 0
    endloop
  endfacet
  facet normal 0 0 -1
    outer loop
      vertex 41.699 76.877 0
      vertex 60.85 107.002 0
      vertex 63.265 104.276 0
    endloop
  endfacet
  facet normal 0 0 -1
    outer loop
      vertex 41.403 71.582 0
      vertex 64.209 100.384 0
      vertex 63.763 96.516 0
    endloop
  endfacet
  facet normal 0 0 -1
    outer loop
      vertex 40.579 66.36 0
      vertex 63.763 96.516 0
      vertex 63.568 91.22 0
    endloop
  endfacet
  facet normal 0 0 -1
    outer loop
      vertex 39.957 61.134 0
      vertex 62.79 85.93 0
      vertex 61.858 80.577 0
    endloop
  endfacet
  facet normal 0 0 -1
    outer loop
      vertex 39.957 61.134 0
      vertex 61.202 75.091 0
      vertex 40.271 55.825 0
    endloop
  endfacet
  facet normal 0 0 -1
    outer loop
      vertex 40.271 55.825 0
      vertex 60.546 68.721 0
      vertex 40.674 50.983 0
    endloop
  endfacet
  facet normal 0 0 -1
    outer loop
      vertex 28.046 46.21 0
      vertex 10.615 32.751 0
      vertex 28.249 48.585 0
    endloop
  endfacet
  facet normal 0 0 -1
    outer loop
      vertex 40.674 50.983 0
      vertex 60.289 62.07 0
      vertex 60.929 55.416 0
    endloop
  endfacet
  facet normal 0 0 -1
    outer loop
      vertex 69.188 55.137 0
      vertex 70.324 57.389 0
      vertex 71.391 58.894 0
    endloop
  endfacet
  facet normal 0 0 -1
    outer loop
      vertex 69.188 55.137 0
      vertex 74.269 60.696 0
      vertex 67.046 52.299 0
    endloop
  endfacet
  facet normal 0 0 -1
    outer loop
      vertex 71.391 58.894 0
      vertex 74.269 60.696 0
      vertex 69.188 55.137 0
    endloop
  endfacet
  facet normal 0 0 -1
    outer loop
      vertex 73.322 63.554 0
      vertex 74.895 69.445 0
      vertex 76.29 74.446 0
    endloop
  endfacet
  facet normal 0 0 -1
    outer loop
      vertex 76.29 74.446 0
      vertex 77.688 76.434 0
      vertex 73.322 63.554 0
    endloop
  endfacet
  facet normal 0 0 -1
    outer loop
      vertex 73.322 63.554 0
      vertex 77.688 76.434 0
      vertex 76.262 71.672 0
    endloop
  endfacet
  facet normal 0 0 -1
    outer loop
      vertex 73.322 63.554 0
      vertex 76.262 71.672 0
      vertex 75.249 66.329 0
    endloop
  endfacet
  facet normal 0 0 -1
    outer loop
      vertex 73.322 63.554 0
      vertex 75.249 66.329 0
      vertex 71.391 58.894 0
    endloop
  endfacet
  facet normal 0 0 -1
    outer loop
      vertex 75.249 66.329 0
      vertex 74.269 60.696 0
      vertex 71.391 58.894 0
    endloop
  endfacet
  facet normal 0 0 -1
    outer loop
      vertex 67.046 52.299 0
      vertex 74.269 60.696 0
      vertex 72.944 55.059 0
    endloop
  endfacet
  facet normal 0 0 -1
    outer loop
      vertex 67.046 52.299 0
      vertex 72.944 55.059 0
      vertex 62.962 49.036 0
    endloop
  endfacet
  facet normal 0 0 -1
    outer loop
      vertex 62.962 49.036 0
      vertex 72.944 55.059 0
      vertex 69.791 48.897 0
    endloop
  endfacet
  facet normal 0 0 -1
    outer loop
      vertex 40.922 46.046 0
      vertex 62.962 49.036 0
      vertex 41.822 41.403 0
    endloop
  endfacet
  facet normal 0 0 -1
    outer loop
      vertex 27.331 34.412 0
      vertex 10.615 32.751 0
      vertex 27.472 37.495 0
    endloop
  endfacet
  facet normal 0 0 -1
    outer loop
      vertex 44.179 37.445 0
      vertex 65.903 42.961 0
      vertex 61.225 38.14 0
    endloop
  endfacet
  facet normal 0 0 -1
    outer loop
      vertex 47.493 35.173 0
      vertex 61.225 38.14 0
      vertex 55.701 35.319 0
    endloop
  endfacet
  facet normal 0 0 -1
    outer loop
      vertex 27.167 32.743 0
      vertex 10.615 32.751 0
      vertex 27.331 34.412 0
    endloop
  endfacet
  facet normal 0 0 -1
    outer loop
      vertex 44.179 37.445 0
      vertex 61.225 38.14 0
      vertex 47.493 35.173 0
    endloop
  endfacet
  facet normal 0 0 -1
    outer loop
      vertex 41.822 41.403 0
      vertex 69.791 48.897 0
      vertex 65.903 42.961 0
    endloop
  endfacet
  facet normal 0 0 -1
    outer loop
      vertex 62.962 49.036 0
      vertex 69.791 48.897 0
      vertex 41.822 41.403 0
    endloop
  endfacet
  facet normal 0 0 -1
    outer loop
      vertex 60.929 55.416 0
      vertex 62.962 49.036 0
      vertex 40.922 46.046 0
    endloop
  endfacet
  facet normal 0 0 -1
    outer loop
      vertex 60.546 68.721 0
      vertex 60.289 62.07 0
      vertex 40.674 50.983 0
    endloop
  endfacet
  facet normal 0 0 -1
    outer loop
      vertex 61.202 75.091 0
      vertex 60.546 68.721 0
      vertex 40.271 55.825 0
    endloop
  endfacet
  facet normal 0 0 -1
    outer loop
      vertex 40.579 66.36 0
      vertex 63.568 91.22 0
      vertex 62.79 85.93 0
    endloop
  endfacet
  facet normal 0 0 -1
    outer loop
      vertex 41.699 76.877 0
      vertex 64.209 100.384 0
      vertex 41.403 71.582 0
    endloop
  endfacet
  facet normal 0 0 -1
    outer loop
      vertex 41.403 71.582 0
      vertex 63.763 96.516 0
      vertex 40.579 66.36 0
    endloop
  endfacet
  facet normal 0 0 -1
    outer loop
      vertex 41.699 76.877 0
      vertex 63.265 104.276 0
      vertex 64.209 100.384 0
    endloop
  endfacet
  facet normal 0 0 -1
    outer loop
      vertex 42.387 82.016 0
      vertex 60.85 107.002 0
      vertex 41.699 76.877 0
    endloop
  endfacet
  facet normal 0 0 -1
    outer loop
      vertex 41.764 85.311 0
      vertex 56.887 107.375 0
      vertex 42.387 82.016 0
    endloop
  endfacet
  facet normal 0 0 -1
    outer loop
      vertex 39.762 85.679 0
      vertex 51.367 105.333 0
      vertex 41.764 85.311 0
    endloop
  endfacet
  facet normal 0 0 -1
    outer loop
      vertex 28 66.277 0
      vertex 10.615 32.751 0
      vertex 28.019 67.879 0
    endloop
  endfacet
  facet normal 0 0 -1
    outer loop
      vertex 36.31 82.036 0
      vertex 46.64 101.691 0
      vertex 39.762 85.679 0
    endloop
  endfacet
  facet normal 0 0 -1
    outer loop
      vertex 33.852 78.868 0
      vertex 42.428 97.33 0
      vertex 36.31 82.036 0
    endloop
  endfacet
  facet normal 0 0 -1
    outer loop
      vertex 31.089 75.434 0
      vertex 42.428 97.33 0
      vertex 33.852 78.868 0
    endloop
  endfacet
  facet normal 0 0 -1
    outer loop
      vertex 28.854 72.174 0
      vertex 38.454 93.13 0
      vertex 31.089 75.434 0
    endloop
  endfacet
  facet normal 0 0 -1
    outer loop
      vertex 28.019 67.879 0
      vertex 10.615 32.751 0
      vertex 27.978 69.53 0
    endloop
  endfacet
  facet normal 0 0 -1
    outer loop
      vertex 10.615 32.751 0
      vertex 38.454 93.13 0
      vertex 28.854 72.174 0
    endloop
  endfacet
  facet normal 0 0 -1
    outer loop
      vertex 10.615 32.751 0
      vertex 28.854 72.174 0
      vertex 27.978 69.53 0
    endloop
  endfacet
  facet normal 0 0 -1
    outer loop
      vertex 28.019 64.04 0
      vertex 10.615 32.751 0
      vertex 28 66.277 0
    endloop
  endfacet
  facet normal 0 0 -1
    outer loop
      vertex 28.089 61.925 0
      vertex 10.615 32.751 0
      vertex 28.019 64.04 0
    endloop
  endfacet
  facet normal 0 0 -1
    outer loop
      vertex 28.211 59.771 0
      vertex 10.615 32.751 0
      vertex 28.089 61.925 0
    endloop
  endfacet
  facet normal 0 0 -1
    outer loop
      vertex 28.374 56.028 0
      vertex 10.615 32.751 0
      vertex 28.211 59.771 0
    endloop
  endfacet
  facet normal 0 0 -1
    outer loop
      vertex 28.384 51.706 0
      vertex 10.615 32.751 0
      vertex 28.374 56.028 0
    endloop
  endfacet
  facet normal 0 0 -1
    outer loop
      vertex 40.579 66.36 0
      vertex 62.79 85.93 0
      vertex 39.957 61.134 0
    endloop
  endfacet
  facet normal 0 0 -1
    outer loop
      vertex 28.249 48.585 0
      vertex 10.615 32.751 0
      vertex 28.384 51.706 0
    endloop
  endfacet
  facet normal 0 0 -1
    outer loop
      vertex 39.957 61.134 0
      vertex 61.858 80.577 0
      vertex 61.202 75.091 0
    endloop
  endfacet
  facet normal 0 0 -1
    outer loop
      vertex 27.74 42.064 0
      vertex 10.615 32.751 0
      vertex 28.046 46.21 0
    endloop
  endfacet
  facet normal 0 0 -1
    outer loop
      vertex 40.674 50.983 0
      vertex 60.929 55.416 0
      vertex 40.922 46.046 0
    endloop
  endfacet
  facet normal 0 0 -1
    outer loop
      vertex 41.822 41.403 0
      vertex 65.903 42.961 0
      vertex 44.179 37.445 0
    endloop
  endfacet
  facet normal 0 0 -1
    outer loop
      vertex 27.167 32.743 0
      vertex 26.929 30.072 0
      vertex 10.615 32.751 0
    endloop
  endfacet
  facet normal 0 0 -1
    outer loop
      vertex 26.929 30.072 0
      vertex 27.054 27.21 0
      vertex 10.615 32.751 0
    endloop
  endfacet
  facet normal 0 0 -1
    outer loop
      vertex 27.054 27.21 0
      vertex 27.494 25.224 0
      vertex 10.615 32.751 0
    endloop
  endfacet
  facet normal 0 0 -1
    outer loop
      vertex 27.494 25.224 0
      vertex 27.046 23.795 0
      vertex 10.615 32.751 0
    endloop
  endfacet
  facet normal 0 0 -1
    outer loop
      vertex 10.615 32.751 0
      vertex 27.046 23.795 0
      vertex 25.641 21.471 0
    endloop
  endfacet
  facet normal 0 0 -1
    outer loop
      vertex 10.615 32.751 0
      vertex 25.641 21.471 0
      vertex 24.059 19.487 0
    endloop
  endfacet
  facet normal 0 0 -1
    outer loop
      vertex 10.615 32.751 0
      vertex 24.059 19.487 0
      vertex 23.319 18.627 0
    endloop
  endfacet
  facet normal 0 0 -1
    outer loop
      vertex 23.319 18.627 0
      vertex 22.482 18.03 0
      vertex 10.615 32.751 0
    endloop
  endfacet
  facet normal 0 0 -1
    outer loop
      vertex 22.482 18.03 0
      vertex 21.644 17.432 0
      vertex 10.615 32.751 0
    endloop
  endfacet
  facet normal 0 0 -1
    outer loop
      vertex 10.615 32.751 0
      vertex 21.644 17.432 0
      vertex 20.806 16.835 0
    endloop
  endfacet
  facet normal 0 0 -1
    outer loop
      vertex 20.806 16.835 0
      vertex 19.968 16.237 0
      vertex 10.615 32.751 0
    endloop
  endfacet
  facet normal 0 0 -1
    outer loop
      vertex 10.615 32.751 0
      vertex 19.968 16.237 0
      vertex 19.707 16.067 0
    endloop
  endfacet
  facet normal 0 0 -1
    outer loop
      vertex 10.615 32.751 0
      vertex 19.707 16.067 0
      vertex 19.045 15.686 0
    endloop
  endfacet
  facet normal 0 0 -1
    outer loop
      vertex 10.615 32.751 0
      vertex 19.045 15.686 0
      vertex 18.165 15.291 0
    endloop
  endfacet
  facet normal 0 0 -1
    outer loop
      vertex 10.615 32.751 0
      vertex 18.165 15.291 0
      vertex 17.25 15.081 0
    endloop
  endfacet
  facet normal 0 0 -1
    outer loop
      vertex 10.615 32.751 0
      vertex 17.25 15.081 0
      vertex 14.004 12.977 0
    endloop
  endfacet
  facet normal 0 0 -1
    outer loop
      vertex 10.615 32.751 0
      vertex 14.004 12.977 0
      vertex 11.993 13.127 0
    endloop
  endfacet
  facet normal 0 0 -1
    outer loop
      vertex 10.615 32.751 0
      vertex 11.993 13.127 0
      vertex 10.964 15.857 0
    endloop
  endfacet
  facet normal 0 0 -1
    outer loop
      vertex 10.678 21.709 0
      vertex 10.964 15.857 0
      vertex 10.672 19.159 0
    endloop
  endfacet
  facet normal 0 0 -1
    outer loop
      vertex 10.689 25.534 0
      vertex 10.964 15.857 0
      vertex 10.678 21.709 0
    endloop
  endfacet
  facet normal 0 0 -1
    outer loop
      vertex 10.665 29.675 0
      vertex 10.964 15.857 0
      vertex 10.689 25.534 0
    endloop
  endfacet
  facet normal 0 0 -1
    outer loop
      vertex 10.615 32.751 0
      vertex 10.964 15.857 0
      vertex 10.665 29.675 0
    endloop
  endfacet
  facet normal 0 0 -1
    outer loop
      vertex 44.492 138.629 0
      vertex 48.502 144.636 0
      vertex 48.104 140.832 0
    endloop
  endfacet
  facet normal 0.998956 -0.0456869 0
    outer loop
      vertex 27.331 34.412 0
      vertex 27.472 37.495 0
      vertex 27.472 37.495 10
    endloop
  endfacet
  facet normal 0.998956 -0.0456869 0
    outer loop
      vertex 27.331 34.412 10
      vertex 27.331 34.412 0
      vertex 27.472 37.495 10
    endloop
  endfacet
  facet normal 0 0 1
    outer loop
      vertex 10.964 15.857 10
      vertex 10.665 29.675 10
      vertex 10.689 25.534 10
    endloop
  endfacet
  facet normal 0 0 1
    outer loop
      vertex 17.25 15.081 10
      vertex 18.165 15.291 10
      vertex 10.615 32.751 10
    endloop
  endfacet
  facet normal 0 0 1
    outer loop
      vertex 10.678 21.709 10
      vertex 10.672 19.159 10
      vertex 10.689 25.534 10
    endloop
  endfacet
  facet normal 0 0 1
    outer loop
      vertex 10.615 32.751 10
      vertex 10.665 29.675 10
      vertex 10.964 15.857 10
    endloop
  endfacet
  facet normal 0 0 1
    outer loop
      vertex 10.672 19.159 10
      vertex 10.964 15.857 10
      vertex 10.689 25.534 10
    endloop
  endfacet
  facet normal 0 0 1
    outer loop
      vertex 10.964 15.857 10
      vertex 11.993 13.127 10
      vertex 10.615 32.751 10
    endloop
  endfacet
  facet normal 0 0 1
    outer loop
      vertex 11.993 13.127 10
      vertex 14.004 12.977 10
      vertex 10.615 32.751 10
    endloop
  endfacet
  facet normal 0 0 1
    outer loop
      vertex 14.004 12.977 10
      vertex 17.25 15.081 10
      vertex 10.615 32.751 10
    endloop
  endfacet
  facet normal 0 0 1
    outer loop
      vertex 20.806 16.835 10
      vertex 21.644 17.432 10
      vertex 10.615 32.751 10
    endloop
  endfacet
  facet normal 0 0 1
    outer loop
      vertex 18.165 15.291 10
      vertex 19.045 15.686 10
      vertex 10.615 32.751 10
    endloop
  endfacet
  facet normal 0 0 1
    outer loop
      vertex 19.045 15.686 10
      vertex 19.707 16.067 10
      vertex 10.615 32.751 10
    endloop
  endfacet
  facet normal 0 0 1
    outer loop
      vertex 19.707 16.067 10
      vertex 19.968 16.237 10
      vertex 10.615 32.751 10
    endloop
  endfacet
  facet normal 0 0 1
    outer loop
      vertex 19.968 16.237 10
      vertex 20.806 16.835 10
      vertex 10.615 32.751 10
    endloop
  endfacet
  facet normal 0 0 1
    outer loop
      vertex 22.482 18.03 10
      vertex 23.319 18.627 10
      vertex 10.615 32.751 10
    endloop
  endfacet
  facet normal 0 0 1
    outer loop
      vertex 21.644 17.432 10
      vertex 22.482 18.03 10
      vertex 10.615 32.751 10
    endloop
  endfacet
  facet normal 0 0 1
    outer loop
      vertex 27.054 27.21 10
      vertex 26.929 30.072 10
      vertex 10.615 32.751 10
    endloop
  endfacet
  facet normal 0 0 1
    outer loop
      vertex 23.319 18.627 10
      vertex 24.059 19.487 10
      vertex 10.615 32.751 10
    endloop
  endfacet
  facet normal 0 0 1
    outer loop
      vertex 24.059 19.487 10
      vertex 25.641 21.471 10
      vertex 10.615 32.751 10
    endloop
  endfacet
  facet normal 0 0 1
    outer loop
      vertex 25.641 21.471 10
      vertex 27.046 23.795 10
      vertex 10.615 32.751 10
    endloop
  endfacet
  facet normal 0 0 1
    outer loop
      vertex 27.046 23.795 10
      vertex 27.494 25.224 10
      vertex 10.615 32.751 10
    endloop
  endfacet
  facet normal 0 0 1
    outer loop
      vertex 40.674 50.983 10
      vertex 40.922 46.046 10
      vertex 42.387 82.016 10
    endloop
  endfacet
  facet normal 0 0 1
    outer loop
      vertex 27.494 25.224 10
      vertex 27.054 27.21 10
      vertex 10.615 32.751 10
    endloop
  endfacet
  facet normal 0 0 1
    outer loop
      vertex 26.929 30.072 10
      vertex 27.167 32.743 10
      vertex 10.615 32.751 10
    endloop
  endfacet
  facet normal 0 0 1
    outer loop
      vertex 27.167 32.743 10
      vertex 27.331 34.412 10
      vertex 10.615 32.751 10
    endloop
  endfacet
  facet normal 0 0 1
    outer loop
      vertex 27.472 37.495 10
      vertex 27.74 42.064 10
      vertex 10.615 32.751 10
    endloop
  endfacet
  facet normal 0 0 1
    outer loop
      vertex 27.74 42.064 10
      vertex 28.046 46.21 10
      vertex 10.615 32.751 10
    endloop
  endfacet
  facet normal 0 0 1
    outer loop
      vertex 27.331 34.412 10
      vertex 27.472 37.495 10
      vertex 10.615 32.751 10
    endloop
  endfacet
  facet normal 0 0 1
    outer loop
      vertex 28.046 46.21 10
      vertex 28.249 48.585 10
      vertex 10.615 32.751 10
    endloop
  endfacet
  facet normal 0 0 1
    outer loop
      vertex 28.089 61.925 10
      vertex 28.019 64.04 10
      vertex 10.615 32.751 10
    endloop
  endfacet
  facet normal 0 0 1
    outer loop
      vertex 33.852 78.868 10
      vertex 36.31 82.036 10
      vertex 31.089 75.434 10
    endloop
  endfacet
  facet normal 0 0 1
    outer loop
      vertex 28.249 48.585 10
      vertex 28.384 51.706 10
      vertex 10.615 32.751 10
    endloop
  endfacet
  facet normal 0 0 1
    outer loop
      vertex 28.384 51.706 10
      vertex 28.374 56.028 10
      vertex 10.615 32.751 10
    endloop
  endfacet
  facet normal 0 0 1
    outer loop
      vertex 31.089 75.434 10
      vertex 51.367 105.333 10
      vertex 28.854 72.174 10
    endloop
  endfacet
  facet normal 0 0 1
    outer loop
      vertex 28.374 56.028 10
      vertex 28.211 59.771 10
      vertex 10.615 32.751 10
    endloop
  endfacet
  facet normal 0 0 1
    outer loop
      vertex 27.978 69.53 10
      vertex 28.854 72.174 10
      vertex 10.615 32.751 10
    endloop
  endfacet
  facet normal 0 0 1
    outer loop
      vertex 28.211 59.771 10
      vertex 28.089 61.925 10
      vertex 10.615 32.751 10
    endloop
  endfacet
  facet normal 0 0 1
    outer loop
      vertex 28.019 64.04 10
      vertex 28 66.277 10
      vertex 10.615 32.751 10
    endloop
  endfacet
  facet normal 0 0 1
    outer loop
      vertex 28 66.277 10
      vertex 28.019 67.879 10
      vertex 10.615 32.751 10
    endloop
  endfacet
  facet normal 0 0 1
    outer loop
      vertex 28.854 72.174 10
      vertex 38.454 93.13 10
      vertex 10.615 32.751 10
    endloop
  endfacet
  facet normal 0 0 1
    outer loop
      vertex 28.019 67.879 10
      vertex 27.978 69.53 10
      vertex 10.615 32.751 10
    endloop
  endfacet
  facet normal 0 0 1
    outer loop
      vertex 36.31 82.036 10
      vertex 51.367 105.333 10
      vertex 31.089 75.434 10
    endloop
  endfacet
  facet normal 0 0 1
    outer loop
      vertex 39.762 85.679 10
      vertex 56.887 107.375 10
      vertex 36.31 82.036 10
    endloop
  endfacet
  facet normal 0 0 1
    outer loop
      vertex 41.764 85.311 10
      vertex 62.79 85.93 10
      vertex 39.762 85.679 10
    endloop
  endfacet
  facet normal 0 0 1
    outer loop
      vertex 42.387 82.016 10
      vertex 52.32 34.322 10
      vertex 41.764 85.311 10
    endloop
  endfacet
  facet normal 0 0 1
    outer loop
      vertex 41.699 76.877 10
      vertex 41.403 71.582 10
      vertex 42.387 82.016 10
    endloop
  endfacet
  facet normal 0 0 1
    outer loop
      vertex 41.403 71.582 10
      vertex 40.271 55.825 10
      vertex 42.387 82.016 10
    endloop
  endfacet
  facet normal 0 0 1
    outer loop
      vertex 40.579 66.36 10
      vertex 39.957 61.134 10
      vertex 41.403 71.582 10
    endloop
  endfacet
  facet normal 0 0 1
    outer loop
      vertex 39.957 61.134 10
      vertex 40.271 55.825 10
      vertex 41.403 71.582 10
    endloop
  endfacet
  facet normal 0 0 1
    outer loop
      vertex 40.271 55.825 10
      vertex 40.674 50.983 10
      vertex 42.387 82.016 10
    endloop
  endfacet
  facet normal 0 0 1
    outer loop
      vertex 40.922 46.046 10
      vertex 41.822 41.403 10
      vertex 42.387 82.016 10
    endloop
  endfacet
  facet normal 0 0 1
    outer loop
      vertex 41.822 41.403 10
      vertex 44.179 37.445 10
      vertex 42.387 82.016 10
    endloop
  endfacet
  facet normal 0 0 1
    outer loop
      vertex 44.179 37.445 10
      vertex 47.493 35.173 10
      vertex 42.387 82.016 10
    endloop
  endfacet
  facet normal 0 0 1
    outer loop
      vertex 47.493 35.173 10
      vertex 49.895 34.203 10
      vertex 42.387 82.016 10
    endloop
  endfacet
  facet normal 0 0 1
    outer loop
      vertex 49.895 34.203 10
      vertex 52.32 34.322 10
      vertex 42.387 82.016 10
    endloop
  endfacet
  facet normal 0 0 1
    outer loop
      vertex 52.32 34.322 10
      vertex 55.701 35.319 10
      vertex 41.764 85.311 10
    endloop
  endfacet
  facet normal 0 0 1
    outer loop
      vertex 55.701 35.319 10
      vertex 61.225 38.14 10
      vertex 41.764 85.311 10
    endloop
  endfacet
  facet normal 0 0 1
    outer loop
      vertex 61.225 38.14 10
      vertex 65.903 42.961 10
      vertex 41.764 85.311 10
    endloop
  endfacet
  facet normal 0 0 1
    outer loop
      vertex 71.391 58.894 10
      vertex 70.324 57.389 10
      vertex 72.944 55.059 10
    endloop
  endfacet
  facet normal 0 0 1
    outer loop
      vertex 61.858 80.577 10
      vertex 62.79 85.93 10
      vertex 41.764 85.311 10
    endloop
  endfacet
  facet normal 0 0 1
    outer loop
      vertex 76.262 71.672 10
      vertex 77.688 76.434 10
      vertex 76.29 74.446 10
    endloop
  endfacet
  facet normal 0 0 1
    outer loop
      vertex 11.326 79.966 10
      vertex 11.494 76.869 10
      vertex 11.653 89.591 10
    endloop
  endfacet
  facet normal 0 0 1
    outer loop
      vertex 75.249 66.329 10
      vertex 76.262 71.672 10
      vertex 74.895 69.445 10
    endloop
  endfacet
  facet normal 0 0 1
    outer loop
      vertex 69.188 55.137 10
      vertex 67.046 52.299 10
      vertex 69.791 48.897 10
    endloop
  endfacet
  facet normal 0 0 1
    outer loop
      vertex 74.269 60.696 10
      vertex 75.249 66.329 10
      vertex 73.322 63.554 10
    endloop
  endfacet
  facet normal 0 0 1
    outer loop
      vertex 72.944 55.059 10
      vertex 74.269 60.696 10
      vertex 71.391 58.894 10
    endloop
  endfacet
  facet normal 0 0 1
    outer loop
      vertex 69.791 48.897 10
      vertex 72.944 55.059 10
      vertex 70.324 57.389 10
    endloop
  endfacet
  facet normal 0 0 1
    outer loop
      vertex 61.202 75.091 10
      vertex 61.858 80.577 10
      vertex 41.764 85.311 10
    endloop
  endfacet
  facet normal 0 0 1
    outer loop
      vertex 69.791 48.897 10
      vertex 70.324 57.389 10
      vertex 69.188 55.137 10
    endloop
  endfacet
  facet normal 0 0 1
    outer loop
      vertex 65.903 42.961 10
      vertex 69.791 48.897 10
      vertex 67.046 52.299 10
    endloop
  endfacet
  facet normal 0 0 1
    outer loop
      vertex 65.903 42.961 10
      vertex 62.962 49.036 10
      vertex 41.764 85.311 10
    endloop
  endfacet
  facet normal 0 0 1
    outer loop
      vertex 65.903 42.961 10
      vertex 67.046 52.299 10
      vertex 62.962 49.036 10
    endloop
  endfacet
  facet normal 0 0 1
    outer loop
      vertex 62.962 49.036 10
      vertex 60.929 55.416 10
      vertex 41.764 85.311 10
    endloop
  endfacet
  facet normal 0 0 1
    outer loop
      vertex 60.929 55.416 10
      vertex 60.289 62.07 10
      vertex 41.764 85.311 10
    endloop
  endfacet
  facet normal 0 0 1
    outer loop
      vertex 60.546 68.721 10
      vertex 61.202 75.091 10
      vertex 41.764 85.311 10
    endloop
  endfacet
  facet normal 0 0 1
    outer loop
      vertex 73.322 63.554 10
      vertex 71.391 58.894 10
      vertex 74.269 60.696 10
    endloop
  endfacet
  facet normal 0 0 1
    outer loop
      vertex 63.763 96.516 10
      vertex 64.209 100.384 10
      vertex 39.762 85.679 10
    endloop
  endfacet
  facet normal 0 0 1
    outer loop
      vertex 35.99 89.144 10
      vertex 32.756 83.947 10
      vertex 10.615 32.751 10
    endloop
  endfacet
  facet normal 0 0 1
    outer loop
      vertex 62.79 85.93 10
      vertex 63.568 91.22 10
      vertex 39.762 85.679 10
    endloop
  endfacet
  facet normal 0 0 1
    outer loop
      vertex 63.568 91.22 10
      vertex 63.763 96.516 10
      vertex 39.762 85.679 10
    endloop
  endfacet
  facet normal 0 0 1
    outer loop
      vertex 64.209 100.384 10
      vertex 63.265 104.276 10
      vertex 39.762 85.679 10
    endloop
  endfacet
  facet normal 0 0 1
    outer loop
      vertex 63.265 104.276 10
      vertex 60.85 107.002 10
      vertex 39.762 85.679 10
    endloop
  endfacet
  facet normal 0 0 1
    outer loop
      vertex 40.485 136.284 10
      vertex 48.502 144.636 10
      vertex 37.678 133.49 10
    endloop
  endfacet
  facet normal 0 0 1
    outer loop
      vertex 60.85 107.002 10
      vertex 56.887 107.375 10
      vertex 39.762 85.679 10
    endloop
  endfacet
  facet normal 0 0 1
    outer loop
      vertex 32.22 115.293 10
      vertex 32.902 120.147 10
      vertex 31.42 112.554 10
    endloop
  endfacet
  facet normal 0 0 1
    outer loop
      vertex 56.887 107.375 10
      vertex 51.367 105.333 10
      vertex 36.31 82.036 10
    endloop
  endfacet
  facet normal 0 0 1
    outer loop
      vertex 31.182 109.411 10
      vertex 31.42 112.554 10
      vertex 10.615 32.751 10
    endloop
  endfacet
  facet normal 0 0 1
    outer loop
      vertex 51.367 105.333 10
      vertex 46.64 101.691 10
      vertex 28.854 72.174 10
    endloop
  endfacet
  facet normal 0 0 1
    outer loop
      vertex 29.192 95.95 10
      vertex 30.109 101.363 10
      vertex 10.615 32.751 10
    endloop
  endfacet
  facet normal 0 0 1
    outer loop
      vertex 46.64 101.691 10
      vertex 42.428 97.33 10
      vertex 28.854 72.174 10
    endloop
  endfacet
  facet normal 0 0 1
    outer loop
      vertex 28.67 90.037 10
      vertex 29.192 95.95 10
      vertex 10.615 32.751 10
    endloop
  endfacet
  facet normal 0 0 1
    outer loop
      vertex 42.428 97.33 10
      vertex 38.454 93.13 10
      vertex 28.854 72.174 10
    endloop
  endfacet
  facet normal 0 0 1
    outer loop
      vertex 38.454 93.13 10
      vertex 35.99 89.144 10
      vertex 10.615 32.751 10
    endloop
  endfacet
  facet normal 0 0 1
    outer loop
      vertex 32.756 83.947 10
      vertex 29.883 79.743 10
      vertex 10.615 32.751 10
    endloop
  endfacet
  facet normal 0 0 1
    outer loop
      vertex 29.883 79.743 10
      vertex 28.505 78.735 10
      vertex 10.615 32.751 10
    endloop
  endfacet
  facet normal 0 0 1
    outer loop
      vertex 28.505 78.735 10
      vertex 28.466 84.13 10
      vertex 10.615 32.751 10
    endloop
  endfacet
  facet normal 0 0 1
    outer loop
      vertex 28.466 84.13 10
      vertex 28.67 90.037 10
      vertex 10.615 32.751 10
    endloop
  endfacet
  facet normal 0 0 1
    outer loop
      vertex 30.109 101.363 10
      vertex 30.935 105.726 10
      vertex 10.615 32.751 10
    endloop
  endfacet
  facet normal 0 0 1
    outer loop
      vertex 31.42 112.554 10
      vertex 32.902 120.147 10
      vertex 10.615 32.751 10
    endloop
  endfacet
  facet normal 0 0 1
    outer loop
      vertex 30.935 105.726 10
      vertex 31.182 109.411 10
      vertex 10.615 32.751 10
    endloop
  endfacet
  facet normal 0 0 1
    outer loop
      vertex 33.741 124.724 10
      vertex 35.782 140.024 10
      vertex 10.615 32.751 10
    endloop
  endfacet
  facet normal 0 0 1
    outer loop
      vertex 35.184 129.135 10
      vertex 38.246 142.536 10
      vertex 33.741 124.724 10
    endloop
  endfacet
  facet normal 0 0 1
    outer loop
      vertex 32.902 120.147 10
      vertex 33.741 124.724 10
      vertex 10.615 32.751 10
    endloop
  endfacet
  facet normal 0 0 1
    outer loop
      vertex 37.678 133.49 10
      vertex 41.651 144.368 10
      vertex 35.184 129.135 10
    endloop
  endfacet
  facet normal 0 0 1
    outer loop
      vertex 44.492 138.629 10
      vertex 48.104 140.832 10
      vertex 40.485 136.284 10
    endloop
  endfacet
  facet normal 0 0 1
    outer loop
      vertex 10.687 37.848 10
      vertex 10.622 34.709 10
      vertex 10.615 32.751 10
    endloop
  endfacet
  facet normal 0 0 1
    outer loop
      vertex 48.104 140.832 10
      vertex 49.723 143.197 10
      vertex 40.485 136.284 10
    endloop
  endfacet
  facet normal 0 0 1
    outer loop
      vertex 49.723 143.197 10
      vertex 48.502 144.636 10
      vertex 40.485 136.284 10
    endloop
  endfacet
  facet normal 0 0 1
    outer loop
      vertex 48.502 144.636 10
      vertex 45.441 145.047 10
      vertex 37.678 133.49 10
    endloop
  endfacet
  facet normal 0 0 1
    outer loop
      vertex 45.441 145.047 10
      vertex 41.651 144.368 10
      vertex 37.678 133.49 10
    endloop
  endfacet
  facet normal 0 0 1
    outer loop
      vertex 41.651 144.368 10
      vertex 38.246 142.536 10
      vertex 35.184 129.135 10
    endloop
  endfacet
  facet normal 0 0 1
    outer loop
      vertex 38.246 142.536 10
      vertex 35.782 140.024 10
      vertex 33.741 124.724 10
    endloop
  endfacet
  facet normal 0 0 1
    outer loop
      vertex 35.782 140.024 10
      vertex 33.244 137.556 10
      vertex 10.615 32.751 10
    endloop
  endfacet
  facet normal 0 0 1
    outer loop
      vertex 33.244 137.556 10
      vertex 30.671 134.977 10
      vertex 10.615 32.751 10
    endloop
  endfacet
  facet normal 0 0 1
    outer loop
      vertex 30.671 134.977 10
      vertex 28.104 132.136 10
      vertex 10.615 32.751 10
    endloop
  endfacet
  facet normal 0 0 1
    outer loop
      vertex 28.104 132.136 10
      vertex 24.115 126.853 10
      vertex 10.615 32.751 10
    endloop
  endfacet
  facet normal 0 0 1
    outer loop
      vertex 24.115 126.853 10
      vertex 20.655 121.268 10
      vertex 10.615 32.751 10
    endloop
  endfacet
  facet normal 0 0 1
    outer loop
      vertex 20.655 121.268 10
      vertex 17.826 115.401 10
      vertex 10.615 32.751 10
    endloop
  endfacet
  facet normal 0 0 1
    outer loop
      vertex 17.826 115.401 10
      vertex 15.732 109.27 10
      vertex 10.615 32.751 10
    endloop
  endfacet
  facet normal 0 0 1
    outer loop
      vertex 11.243 47.002 10
      vertex 10.997 45.148 10
      vertex 10.615 32.751 10
    endloop
  endfacet
  facet normal 0 0 1
    outer loop
      vertex 11.531 66.927 10
      vertex 11.616 61.219 10
      vertex 12.594 96.222 10
    endloop
  endfacet
  facet normal 0 0 1
    outer loop
      vertex 12.594 96.222 10
      vertex 11.653 89.591 10
      vertex 11.494 76.869 10
    endloop
  endfacet
  facet normal 0 0 1
    outer loop
      vertex 12.594 96.222 10
      vertex 11.494 76.869 10
      vertex 11.614 74.038 10
    endloop
  endfacet
  facet normal 0 0 1
    outer loop
      vertex 12.594 96.222 10
      vertex 11.614 74.038 10
      vertex 11.531 66.927 10
    endloop
  endfacet
  facet normal 0 0 1
    outer loop
      vertex 10.997 45.148 10
      vertex 10.874 43.955 10
      vertex 10.615 32.751 10
    endloop
  endfacet
  facet normal 0 0 1
    outer loop
      vertex 14.028 102.783 10
      vertex 12.594 96.222 10
      vertex 11.616 61.219 10
    endloop
  endfacet
  facet normal 0 0 1
    outer loop
      vertex 14.028 102.783 10
      vertex 11.616 61.219 10
      vertex 11.641 55.812 10
    endloop
  endfacet
  facet normal 0 0 1
    outer loop
      vertex 10.795 41.365 10
      vertex 10.687 37.848 10
      vertex 10.615 32.751 10
    endloop
  endfacet
  facet normal 0 0 1
    outer loop
      vertex 15.732 109.27 10
      vertex 14.028 102.783 10
      vertex 11.633 52.731 10
    endloop
  endfacet
  facet normal 0 0 1
    outer loop
      vertex 15.732 109.27 10
      vertex 11.497 49.862 10
      vertex 10.615 32.751 10
    endloop
  endfacet
  facet normal 0 0 1
    outer loop
      vertex 15.732 109.27 10
      vertex 11.633 52.731 10
      vertex 11.497 49.862 10
    endloop
  endfacet
  facet normal 0 0 1
    outer loop
      vertex 11.641 55.812 10
      vertex 11.633 52.731 10
      vertex 14.028 102.783 10
    endloop
  endfacet
  facet normal 0 0 1
    outer loop
      vertex 11.497 49.862 10
      vertex 11.243 47.002 10
      vertex 10.615 32.751 10
    endloop
  endfacet
  facet normal 0 0 1
    outer loop
      vertex 11.375 71.908 10
      vertex 11.531 66.927 10
      vertex 11.614 74.038 10
    endloop
  endfacet
  facet normal 0 0 1
    outer loop
      vertex 10.874 43.955 10
      vertex 10.795 41.365 10
      vertex 10.615 32.751 10
    endloop
  endfacet
  facet normal 0 0 1
    outer loop
      vertex 11.326 79.966 10
      vertex 11.653 89.591 10
      vertex 11.424 82.894 10
    endloop
  endfacet
  facet normal 0 0 1
    outer loop
      vertex 76.29 74.446 10
      vertex 74.895 69.445 10
      vertex 76.262 71.672 10
    endloop
  endfacet
  facet normal 0 0 1
    outer loop
      vertex 74.895 69.445 10
      vertex 73.322 63.554 10
      vertex 75.249 66.329 10
    endloop
  endfacet
  facet normal 0 0 1
    outer loop
      vertex 60.289 62.07 10
      vertex 60.546 68.721 10
      vertex 41.764 85.311 10
    endloop
  endfacet
  facet normal 0.996367 -0.0851632 0
    outer loop
      vertex 28.046 46.21 0
      vertex 28.249 48.585 0
      vertex 28.249 48.585 10
    endloop
  endfacet
  facet normal 0.996367 -0.0851632 0
    outer loop
      vertex 28.046 46.21 10
      vertex 28.046 46.21 0
      vertex 28.249 48.585 10
    endloop
  endfacet
  facet normal -0.999868 -0.0162527 0
    outer loop
      vertex 10.665 29.675 0
      vertex 10.665 29.675 10
      vertex 10.615 32.751 0
    endloop
  endfacet
  facet normal -0.999868 -0.0162527 0
    outer loop
      vertex 10.615 32.751 0
      vertex 10.665 29.675 10
      vertex 10.615 32.751 10
    endloop
  endfacet
  facet normal -0.999994 0.00357505 0
    outer loop
      vertex 10.615 32.751 10
      vertex 10.622 34.709 10
      vertex 10.615 32.751 0
    endloop
  endfacet
  facet normal -0.999994 0.00357505 0
    outer loop
      vertex 10.615 32.751 0
      vertex 10.622 34.709 10
      vertex 10.622 34.709 0
    endloop
  endfacet
  facet normal -0.999983 -0.0057956 0
    outer loop
      vertex 10.689 25.534 0
      vertex 10.689 25.534 10
      vertex 10.665 29.675 0
    endloop
  endfacet
  facet normal -0.999983 -0.0057956 0
    outer loop
      vertex 10.665 29.675 0
      vertex 10.689 25.534 10
      vertex 10.665 29.675 10
    endloop
  endfacet
  facet normal -0.999996 0.00287581 0
    outer loop
      vertex 10.678 21.709 10
      vertex 10.689 25.534 10
      vertex 10.678 21.709 0
    endloop
  endfacet
  facet normal -0.999996 0.00287581 0
    outer loop
      vertex 10.678 21.709 0
      vertex 10.689 25.534 10
      vertex 10.689 25.534 0
    endloop
  endfacet
  facet normal -0.999997 0.00235293 0
    outer loop
      vertex 10.672 19.159 10
      vertex 10.678 21.709 10
      vertex 10.672 19.159 0
    endloop
  endfacet
  facet normal -0.999997 0.00235293 0
    outer loop
      vertex 10.672 19.159 0
      vertex 10.678 21.709 10
      vertex 10.678 21.709 0
    endloop
  endfacet
  facet normal -0.996113 -0.0880875 0
    outer loop
      vertex 10.964 15.857 0
      vertex 10.964 15.857 10
      vertex 10.672 19.159 0
    endloop
  endfacet
  facet normal -0.996113 -0.0880875 0
    outer loop
      vertex 10.672 19.159 0
      vertex 10.964 15.857 10
      vertex 10.672 19.159 10
    endloop
  endfacet
  facet normal -0.935736 -0.352701 0
    outer loop
      vertex 11.993 13.127 0
      vertex 11.993 13.127 10
      vertex 10.964 15.857 0
    endloop
  endfacet
  facet normal -0.935736 -0.352701 0
    outer loop
      vertex 10.964 15.857 0
      vertex 11.993 13.127 10
      vertex 10.964 15.857 10
    endloop
  endfacet
  facet normal -0.0743831 -0.99723 0
    outer loop
      vertex 11.993 13.127 0
      vertex 14.004 12.977 0
      vertex 14.004 12.977 10
    endloop
  endfacet
  facet normal -0.0743831 -0.99723 0
    outer loop
      vertex 11.993 13.127 10
      vertex 11.993 13.127 0
      vertex 14.004 12.977 10
    endloop
  endfacet
  facet normal 0.543916 -0.83914 0
    outer loop
      vertex 14.004 12.977 0
      vertex 17.25 15.081 0
      vertex 17.25 15.081 10
    endloop
  endfacet
  facet normal 0.543916 -0.83914 0
    outer loop
      vertex 14.004 12.977 10
      vertex 14.004 12.977 0
      vertex 17.25 15.081 10
    endloop
  endfacet
  facet normal 0.223692 -0.97466 0
    outer loop
      vertex 17.25 15.081 0
      vertex 18.165 15.291 0
      vertex 18.165 15.291 10
    endloop
  endfacet
  facet normal 0.223692 -0.97466 0
    outer loop
      vertex 17.25 15.081 10
      vertex 17.25 15.081 0
      vertex 18.165 15.291 10
    endloop
  endfacet
  facet normal 0.409502 -0.912309 0
    outer loop
      vertex 18.165 15.291 0
      vertex 19.045 15.686 0
      vertex 19.045 15.686 10
    endloop
  endfacet
  facet normal 0.409502 -0.912309 0
    outer loop
      vertex 18.165 15.291 10
      vertex 18.165 15.291 0
      vertex 19.045 15.686 10
    endloop
  endfacet
  facet normal 0.498815 -0.866708 0
    outer loop
      vertex 19.045 15.686 0
      vertex 19.707 16.067 0
      vertex 19.707 16.067 10
    endloop
  endfacet
  facet normal 0.498815 -0.866708 0
    outer loop
      vertex 19.045 15.686 10
      vertex 19.045 15.686 0
      vertex 19.707 16.067 10
    endloop
  endfacet
  facet normal 0.545778 -0.83793 0
    outer loop
      vertex 19.707 16.067 0
      vertex 19.968 16.237 0
      vertex 19.968 16.237 10
    endloop
  endfacet
  facet normal 0.545778 -0.83793 0
    outer loop
      vertex 19.707 16.067 10
      vertex 19.707 16.067 0
      vertex 19.968 16.237 10
    endloop
  endfacet
  facet normal 0.580871 -0.813996 0
    outer loop
      vertex 19.968 16.237 0
      vertex 20.806 16.835 0
      vertex 20.806 16.835 10
    endloop
  endfacet
  facet normal 0.580871 -0.813996 0
    outer loop
      vertex 19.968 16.237 10
      vertex 19.968 16.237 0
      vertex 20.806 16.835 10
    endloop
  endfacet
  facet normal 0.580226 -0.814455 0
    outer loop
      vertex 20.806 16.835 0
      vertex 21.644 17.432 0
      vertex 21.644 17.432 10
    endloop
  endfacet
  facet normal 0.580226 -0.814455 0
    outer loop
      vertex 20.806 16.835 10
      vertex 20.806 16.835 0
      vertex 21.644 17.432 10
    endloop
  endfacet
  facet normal 0.580871 -0.813996 0
    outer loop
      vertex 21.644 17.432 0
      vertex 22.482 18.03 0
      vertex 22.482 18.03 10
    endloop
  endfacet
  facet normal 0.580871 -0.813996 0
    outer loop
      vertex 21.644 17.432 10
      vertex 21.644 17.432 0
      vertex 22.482 18.03 10
    endloop
  endfacet
  facet normal 0.580686 -0.814128 0
    outer loop
      vertex 22.482 18.03 0
      vertex 23.319 18.627 0
      vertex 23.319 18.627 10
    endloop
  endfacet
  facet normal 0.580686 -0.814128 0
    outer loop
      vertex 22.482 18.03 10
      vertex 22.482 18.03 0
      vertex 23.319 18.627 10
    endloop
  endfacet
  facet normal 0.758011 -0.652242 0
    outer loop
      vertex 23.319 18.627 0
      vertex 24.059 19.487 0
      vertex 24.059 19.487 10
    endloop
  endfacet
  facet normal 0.758011 -0.652242 0
    outer loop
      vertex 23.319 18.627 10
      vertex 23.319 18.627 0
      vertex 24.059 19.487 10
    endloop
  endfacet
  facet normal 0.781867 -0.623445 0
    outer loop
      vertex 24.059 19.487 0
      vertex 25.641 21.471 0
      vertex 25.641 21.471 10
    endloop
  endfacet
  facet normal 0.781867 -0.623445 0
    outer loop
      vertex 24.059 19.487 10
      vertex 24.059 19.487 0
      vertex 25.641 21.471 10
    endloop
  endfacet
  facet normal 0.855766 -0.517363 0
    outer loop
      vertex 25.641 21.471 0
      vertex 27.046 23.795 0
      vertex 27.046 23.795 10
    endloop
  endfacet
  facet normal 0.855766 -0.517363 0
    outer loop
      vertex 25.641 21.471 10
      vertex 25.641 21.471 0
      vertex 27.046 23.795 10
    endloop
  endfacet
  facet normal 0.954206 -0.299149 0
    outer loop
      vertex 27.046 23.795 0
      vertex 27.494 25.224 0
      vertex 27.494 25.224 10
    endloop
  endfacet
  facet normal 0.954206 -0.299149 0
    outer loop
      vertex 27.046 23.795 10
      vertex 27.046 23.795 0
      vertex 27.494 25.224 10
    endloop
  endfacet
  facet normal 0.976326 0.216306 0
    outer loop
      vertex 27.054 27.21 0
      vertex 27.054 27.21 10
      vertex 27.494 25.224 10
    endloop
  endfacet
  facet normal 0.976326 0.216306 0
    outer loop
      vertex 27.494 25.224 0
      vertex 27.054 27.21 0
      vertex 27.494 25.224 10
    endloop
  endfacet
  facet normal 0.999048 0.0436342 0
    outer loop
      vertex 26.929 30.072 0
      vertex 26.929 30.072 10
      vertex 27.054 27.21 10
    endloop
  endfacet
  facet normal 0.999048 0.0436342 0
    outer loop
      vertex 27.054 27.21 0
      vertex 26.929 30.072 0
      vertex 27.054 27.21 10
    endloop
  endfacet
  facet normal 0.996054 -0.0887536 0
    outer loop
      vertex 26.929 30.072 0
      vertex 27.167 32.743 0
      vertex 27.167 32.743 10
    endloop
  endfacet
  facet normal 0.996054 -0.0887536 0
    outer loop
      vertex 26.929 30.072 10
      vertex 26.929 30.072 0
      vertex 27.167 32.743 10
    endloop
  endfacet
  facet normal 0.995207 -0.0977915 0
    outer loop
      vertex 27.167 32.743 0
      vertex 27.331 34.412 0
      vertex 27.331 34.412 10
    endloop
  endfacet
  facet normal 0.995207 -0.0977915 0
    outer loop
      vertex 27.167 32.743 10
      vertex 27.167 32.743 0
      vertex 27.331 34.412 10
    endloop
  endfacet
  facet normal 0.999066 -0.043215 0
    outer loop
      vertex 28.249 48.585 0
      vertex 28.384 51.706 0
      vertex 28.384 51.706 10
    endloop
  endfacet
  facet normal 0.999066 -0.043215 0
    outer loop
      vertex 28.249 48.585 10
      vertex 28.249 48.585 0
      vertex 28.384 51.706 10
    endloop
  endfacet
  facet normal 0.999997 0.00231374 0
    outer loop
      vertex 28.374 56.028 0
      vertex 28.374 56.028 10
      vertex 28.384 51.706 10
    endloop
  endfacet
  facet normal 0.999997 0.00231374 0
    outer loop
      vertex 28.384 51.706 0
      vertex 28.374 56.028 0
      vertex 28.384 51.706 10
    endloop
  endfacet
  facet normal 0.999053 0.0435067 0
    outer loop
      vertex 28.211 59.771 0
      vertex 28.211 59.771 10
      vertex 28.374 56.028 10
    endloop
  endfacet
  facet normal 0.999053 0.0435067 0
    outer loop
      vertex 28.374 56.028 0
      vertex 28.211 59.771 0
      vertex 28.374 56.028 10
    endloop
  endfacet
  facet normal 0.9984 0.0565482 0
    outer loop
      vertex 28.089 61.925 0
      vertex 28.089 61.925 10
      vertex 28.211 59.771 10
    endloop
  endfacet
  facet normal 0.9984 0.0565482 0
    outer loop
      vertex 28.211 59.771 0
      vertex 28.089 61.925 0
      vertex 28.211 59.771 10
    endloop
  endfacet
  facet normal 0.999453 0.0330788 0
    outer loop
      vertex 28.019 64.04 0
      vertex 28.019 64.04 10
      vertex 28.089 61.925 10
    endloop
  endfacet
  facet normal 0.999453 0.0330788 0
    outer loop
      vertex 28.089 61.925 0
      vertex 28.019 64.04 0
      vertex 28.089 61.925 10
    endloop
  endfacet
  facet normal 0.999964 0.00849321 0
    outer loop
      vertex 28 66.277 0
      vertex 28 66.277 10
      vertex 28.019 64.04 10
    endloop
  endfacet
  facet normal 0.999964 0.00849321 0
    outer loop
      vertex 28.019 64.04 0
      vertex 28 66.277 0
      vertex 28.019 64.04 10
    endloop
  endfacet
  facet normal 0.99993 -0.0118593 0
    outer loop
      vertex 28 66.277 0
      vertex 28.019 67.879 0
      vertex 28.019 67.879 10
    endloop
  endfacet
  facet normal 0.99993 -0.0118593 0
    outer loop
      vertex 28 66.277 10
      vertex 28 66.277 0
      vertex 28.019 67.879 10
    endloop
  endfacet
  facet normal 0.999692 0.0248258 0
    outer loop
      vertex 27.978 69.53 0
      vertex 27.978 69.53 10
      vertex 28.019 67.879 10
    endloop
  endfacet
  facet normal 0.999692 0.0248258 0
    outer loop
      vertex 28.019 67.879 0
      vertex 27.978 69.53 0
      vertex 28.019 67.879 10
    endloop
  endfacet
  facet normal 0.949256 -0.314504 0
    outer loop
      vertex 27.978 69.53 0
      vertex 28.854 72.174 0
      vertex 28.854 72.174 10
    endloop
  endfacet
  facet normal 0.949256 -0.314504 0
    outer loop
      vertex 27.978 69.53 10
      vertex 27.978 69.53 0
      vertex 28.854 72.174 10
    endloop
  endfacet
  facet normal 0.824779 -0.565455 0
    outer loop
      vertex 28.854 72.174 0
      vertex 31.089 75.434 0
      vertex 31.089 75.434 10
    endloop
  endfacet
  facet normal 0.824779 -0.565455 0
    outer loop
      vertex 28.854 72.174 10
      vertex 28.854 72.174 0
      vertex 31.089 75.434 10
    endloop
  endfacet
  facet normal 0.779117 -0.626878 0
    outer loop
      vertex 31.089 75.434 0
      vertex 33.852 78.868 0
      vertex 33.852 78.868 10
    endloop
  endfacet
  facet normal 0.779117 -0.626878 0
    outer loop
      vertex 31.089 75.434 10
      vertex 31.089 75.434 0
      vertex 33.852 78.868 10
    endloop
  endfacet
  facet normal 0.790077 -0.613008 0
    outer loop
      vertex 33.852 78.868 0
      vertex 36.31 82.036 0
      vertex 36.31 82.036 10
    endloop
  endfacet
  facet normal 0.790077 -0.613008 0
    outer loop
      vertex 33.852 78.868 10
      vertex 33.852 78.868 0
      vertex 36.31 82.036 10
    endloop
  endfacet
  facet normal 0.725879 -0.687822 0
    outer loop
      vertex 36.31 82.036 0
      vertex 39.762 85.679 0
      vertex 39.762 85.679 10
    endloop
  endfacet
  facet normal 0.725879 -0.687822 0
    outer loop
      vertex 36.31 82.036 10
      vertex 36.31 82.036 0
      vertex 39.762 85.679 10
    endloop
  endfacet
  facet normal -0.180787 -0.983522 0
    outer loop
      vertex 39.762 85.679 0
      vertex 41.764 85.311 0
      vertex 41.764 85.311 10
    endloop
  endfacet
  facet normal -0.180787 -0.983522 0
    outer loop
      vertex 39.762 85.679 10
      vertex 39.762 85.679 0
      vertex 41.764 85.311 10
    endloop
  endfacet
  facet normal -0.982591 -0.185783 0
    outer loop
      vertex 42.387 82.016 0
      vertex 42.387 82.016 10
      vertex 41.764 85.311 0
    endloop
  endfacet
  facet normal -0.982591 -0.185783 0
    outer loop
      vertex 41.764 85.311 0
      vertex 42.387 82.016 10
      vertex 41.764 85.311 10
    endloop
  endfacet
  facet normal -0.991157 0.132694 0
    outer loop
      vertex 41.699 76.877 10
      vertex 42.387 82.016 10
      vertex 41.699 76.877 0
    endloop
  endfacet
  facet normal -0.991157 0.132694 0
    outer loop
      vertex 41.699 76.877 0
      vertex 42.387 82.016 10
      vertex 42.387 82.016 0
    endloop
  endfacet
  facet normal -0.998441 0.0558147 0
    outer loop
      vertex 41.403 71.582 10
      vertex 41.699 76.877 10
      vertex 41.403 71.582 0
    endloop
  endfacet
  facet normal -0.998441 0.0558147 0
    outer loop
      vertex 41.403 71.582 0
      vertex 41.699 76.877 10
      vertex 41.699 76.877 0
    endloop
  endfacet
  facet normal -0.987778 0.155865 0
    outer loop
      vertex 40.579 66.36 10
      vertex 41.403 71.582 10
      vertex 40.579 66.36 0
    endloop
  endfacet
  facet normal -0.987778 0.155865 0
    outer loop
      vertex 40.579 66.36 0
      vertex 41.403 71.582 10
      vertex 41.403 71.582 0
    endloop
  endfacet
  facet normal -0.992991 0.118186 0
    outer loop
      vertex 39.957 61.134 10
      vertex 40.579 66.36 10
      vertex 39.957 61.134 0
    endloop
  endfacet
  facet normal -0.992991 0.118186 0
    outer loop
      vertex 39.957 61.134 0
      vertex 40.579 66.36 10
      vertex 40.579 66.36 0
    endloop
  endfacet
  facet normal -0.998256 -0.0590417 0
    outer loop
      vertex 40.271 55.825 0
      vertex 40.271 55.825 10
      vertex 39.957 61.134 0
    endloop
  endfacet
  facet normal -0.998256 -0.0590417 0
    outer loop
      vertex 39.957 61.134 0
      vertex 40.271 55.825 10
      vertex 39.957 61.134 10
    endloop
  endfacet
  facet normal -0.996554 -0.0829433 0
    outer loop
      vertex 40.674 50.983 0
      vertex 40.674 50.983 10
      vertex 40.271 55.825 0
    endloop
  endfacet
  facet normal -0.996554 -0.0829433 0
    outer loop
      vertex 40.271 55.825 0
      vertex 40.674 50.983 10
      vertex 40.271 55.825 10
    endloop
  endfacet
  facet normal -0.998741 -0.0501697 0
    outer loop
      vertex 40.922 46.046 0
      vertex 40.922 46.046 10
      vertex 40.674 50.983 0
    endloop
  endfacet
  facet normal -0.998741 -0.0501697 0
    outer loop
      vertex 40.674 50.983 0
      vertex 40.922 46.046 10
      vertex 40.674 50.983 10
    endloop
  endfacet
  facet normal -0.981726 -0.190298 0
    outer loop
      vertex 41.822 41.403 0
      vertex 41.822 41.403 10
      vertex 40.922 46.046 0
    endloop
  endfacet
  facet normal -0.981726 -0.190298 0
    outer loop
      vertex 40.922 46.046 0
      vertex 41.822 41.403 10
      vertex 40.922 46.046 10
    endloop
  endfacet
  facet normal -0.859193 -0.511652 0
    outer loop
      vertex 44.179 37.445 0
      vertex 44.179 37.445 10
      vertex 41.822 41.403 0
    endloop
  endfacet
  facet normal -0.859193 -0.511652 0
    outer loop
      vertex 41.822 41.403 0
      vertex 44.179 37.445 10
      vertex 41.822 41.403 10
    endloop
  endfacet
  facet normal -0.565451 -0.824782 0
    outer loop
      vertex 44.179 37.445 0
      vertex 47.493 35.173 0
      vertex 47.493 35.173 10
    endloop
  endfacet
  facet normal -0.565451 -0.824782 0
    outer loop
      vertex 44.179 37.445 10
      vertex 44.179 37.445 0
      vertex 47.493 35.173 10
    endloop
  endfacet
  facet normal -0.37445 -0.927247 0
    outer loop
      vertex 47.493 35.173 0
      vertex 49.895 34.203 0
      vertex 49.895 34.203 10
    endloop
  endfacet
  facet normal -0.37445 -0.927247 0
    outer loop
      vertex 47.493 35.173 10
      vertex 47.493 35.173 0
      vertex 49.895 34.203 10
    endloop
  endfacet
  facet normal 0.0490132 -0.998798 0
    outer loop
      vertex 49.895 34.203 0
      vertex 52.32 34.322 0
      vertex 52.32 34.322 10
    endloop
  endfacet
  facet normal 0.0490132 -0.998798 0
    outer loop
      vertex 49.895 34.203 10
      vertex 49.895 34.203 0
      vertex 52.32 34.322 10
    endloop
  endfacet
  facet normal 0.282842 -0.959166 0
    outer loop
      vertex 52.32 34.322 0
      vertex 55.701 35.319 0
      vertex 55.701 35.319 10
    endloop
  endfacet
  facet normal 0.282842 -0.959166 0
    outer loop
      vertex 52.32 34.322 10
      vertex 52.32 34.322 0
      vertex 55.701 35.319 10
    endloop
  endfacet
  facet normal 0.454807 -0.89059 0
    outer loop
      vertex 55.701 35.319 0
      vertex 61.225 38.14 0
      vertex 61.225 38.14 10
    endloop
  endfacet
  facet normal 0.454807 -0.89059 0
    outer loop
      vertex 55.701 35.319 10
      vertex 55.701 35.319 0
      vertex 61.225 38.14 10
    endloop
  endfacet
  facet normal 0.71767 -0.696383 0
    outer loop
      vertex 61.225 38.14 0
      vertex 65.903 42.961 0
      vertex 65.903 42.961 10
    endloop
  endfacet
  facet normal 0.71767 -0.696383 0
    outer loop
      vertex 61.225 38.14 10
      vertex 61.225 38.14 0
      vertex 65.903 42.961 10
    endloop
  endfacet
  facet normal 0.836532 -0.547917 0
    outer loop
      vertex 65.903 42.961 0
      vertex 69.791 48.897 0
      vertex 69.791 48.897 10
    endloop
  endfacet
  facet normal 0.836532 -0.547917 0
    outer loop
      vertex 65.903 42.961 10
      vertex 65.903 42.961 0
      vertex 69.791 48.897 10
    endloop
  endfacet
  facet normal 0.890228 -0.455516 0
    outer loop
      vertex 69.791 48.897 0
      vertex 72.944 55.059 0
      vertex 72.944 55.059 10
    endloop
  endfacet
  facet normal 0.890228 -0.455516 0
    outer loop
      vertex 69.791 48.897 10
      vertex 69.791 48.897 0
      vertex 72.944 55.059 10
    endloop
  endfacet
  facet normal 0.973469 -0.228818 0
    outer loop
      vertex 72.944 55.059 0
      vertex 74.269 60.696 0
      vertex 74.269 60.696 10
    endloop
  endfacet
  facet normal 0.973469 -0.228818 0
    outer loop
      vertex 72.944 55.059 10
      vertex 72.944 55.059 0
      vertex 74.269 60.696 10
    endloop
  endfacet
  facet normal 0.985201 -0.1714 0
    outer loop
      vertex 74.269 60.696 0
      vertex 75.249 66.329 0
      vertex 75.249 66.329 10
    endloop
  endfacet
  facet normal 0.985201 -0.1714 0
    outer loop
      vertex 74.269 60.696 10
      vertex 74.269 60.696 0
      vertex 75.249 66.329 10
    endloop
  endfacet
  facet normal 0.982498 -0.186276 0
    outer loop
      vertex 75.249 66.329 0
      vertex 76.262 71.672 0
      vertex 76.262 71.672 10
    endloop
  endfacet
  facet normal 0.982498 -0.186276 0
    outer loop
      vertex 75.249 66.329 10
      vertex 75.249 66.329 0
      vertex 76.262 71.672 10
    endloop
  endfacet
  facet normal 0.95797 -0.286868 0
    outer loop
      vertex 76.262 71.672 0
      vertex 77.688 76.434 0
      vertex 77.688 76.434 10
    endloop
  endfacet
  facet normal 0.95797 -0.286868 0
    outer loop
      vertex 76.262 71.672 10
      vertex 76.262 71.672 0
      vertex 77.688 76.434 10
    endloop
  endfacet
  facet normal -0.817993 0.575228 0
    outer loop
      vertex 76.29 74.446 10
      vertex 77.688 76.434 10
      vertex 76.29 74.446 0
    endloop
  endfacet
  facet normal -0.817993 0.575228 0
    outer loop
      vertex 76.29 74.446 0
      vertex 77.688 76.434 10
      vertex 77.688 76.434 0
    endloop
  endfacet
  facet normal -0.963228 0.268687 0
    outer loop
      vertex 74.895 69.445 10
      vertex 76.29 74.446 10
      vertex 74.895 69.445 0
    endloop
  endfacet
  facet normal -0.963228 0.268687 0
    outer loop
      vertex 74.895 69.445 0
      vertex 76.29 74.446 10
      vertex 76.29 74.446 0
    endloop
  endfacet
  facet normal -0.966151 0.257979 0
    outer loop
      vertex 73.322 63.554 10
      vertex 74.895 69.445 10
      vertex 73.322 63.554 0
    endloop
  endfacet
  facet normal -0.966151 0.257979 0
    outer loop
      vertex 73.322 63.554 0
      vertex 74.895 69.445 10
      vertex 74.895 69.445 0
    endloop
  endfacet
  facet normal -0.923826 0.382813 0
    outer loop
      vertex 71.391 58.894 10
      vertex 73.322 63.554 10
      vertex 71.391 58.894 0
    endloop
  endfacet
  facet normal -0.923826 0.382813 0
    outer loop
      vertex 71.391 58.894 0
      vertex 73.322 63.554 10
      vertex 73.322 63.554 0
    endloop
  endfacet
  facet normal -0.815779 0.578363 0
    outer loop
      vertex 70.324 57.389 10
      vertex 71.391 58.894 10
      vertex 70.324 57.389 0
    endloop
  endfacet
  facet normal -0.815779 0.578363 0
    outer loop
      vertex 70.324 57.389 0
      vertex 71.391 58.894 10
      vertex 71.391 58.894 0
    endloop
  endfacet
  facet normal -0.892836 0.450382 0
    outer loop
      vertex 69.188 55.137 10
      vertex 70.324 57.389 10
      vertex 69.188 55.137 0
    endloop
  endfacet
  facet normal -0.892836 0.450382 0
    outer loop
      vertex 69.188 55.137 0
      vertex 70.324 57.389 10
      vertex 70.324 57.389 0
    endloop
  endfacet
  facet normal -0.798174 0.602427 0
    outer loop
      vertex 67.046 52.299 10
      vertex 69.188 55.137 10
      vertex 67.046 52.299 0
    endloop
  endfacet
  facet normal -0.798174 0.602427 0
    outer loop
      vertex 67.046 52.299 0
      vertex 69.188 55.137 10
      vertex 69.188 55.137 0
    endloop
  endfacet
  facet normal -0.624205 0.781261 0
    outer loop
      vertex 62.962 49.036 10
      vertex 67.046 52.299 10
      vertex 62.962 49.036 0
    endloop
  endfacet
  facet normal -0.624205 0.781261 0
    outer loop
      vertex 62.962 49.036 0
      vertex 67.046 52.299 10
      vertex 67.046 52.299 0
    endloop
  endfacet
  facet normal 0.952796 0.30361 0
    outer loop
      vertex 60.929 55.416 0
      vertex 60.929 55.416 10
      vertex 62.962 49.036 10
    endloop
  endfacet
  facet normal 0.952796 0.30361 0
    outer loop
      vertex 62.962 49.036 0
      vertex 60.929 55.416 0
      vertex 62.962 49.036 10
    endloop
  endfacet
  facet normal 0.995406 0.0957409 0
    outer loop
      vertex 60.289 62.07 0
      vertex 60.289 62.07 10
      vertex 60.929 55.416 10
    endloop
  endfacet
  facet normal 0.995406 0.0957409 0
    outer loop
      vertex 60.929 55.416 0
      vertex 60.289 62.07 0
      vertex 60.929 55.416 10
    endloop
  endfacet
  facet normal 0.999254 -0.038612 0
    outer loop
      vertex 60.289 62.07 0
      vertex 60.546 68.721 0
      vertex 60.546 68.721 10
    endloop
  endfacet
  facet normal 0.999254 -0.038612 0
    outer loop
      vertex 60.289 62.07 10
      vertex 60.289 62.07 0
      vertex 60.546 68.721 10
    endloop
  endfacet
  facet normal 0.994739 -0.102441 0
    outer loop
      vertex 60.546 68.721 0
      vertex 61.202 75.091 0
      vertex 61.202 75.091 10
    endloop
  endfacet
  facet normal 0.994739 -0.102441 0
    outer loop
      vertex 60.546 68.721 10
      vertex 60.546 68.721 0
      vertex 61.202 75.091 10
    endloop
  endfacet
  facet normal 0.992926 -0.118731 0
    outer loop
      vertex 61.202 75.091 0
      vertex 61.858 80.577 0
      vertex 61.858 80.577 10
    endloop
  endfacet
  facet normal 0.992926 -0.118731 0
    outer loop
      vertex 61.202 75.091 10
      vertex 61.202 75.091 0
      vertex 61.858 80.577 10
    endloop
  endfacet
  facet normal 0.985179 -0.171528 0
    outer loop
      vertex 61.858 80.577 0
      vertex 62.79 85.93 0
      vertex 62.79 85.93 10
    endloop
  endfacet
  facet normal 0.985179 -0.171528 0
    outer loop
      vertex 61.858 80.577 10
      vertex 61.858 80.577 0
      vertex 62.79 85.93 10
    endloop
  endfacet
  facet normal 0.989358 -0.145505 0
    outer loop
      vertex 62.79 85.93 0
      vertex 63.568 91.22 0
      vertex 63.568 91.22 10
    endloop
  endfacet
  facet normal 0.989358 -0.145505 0
    outer loop
      vertex 62.79 85.93 10
      vertex 62.79 85.93 0
      vertex 63.568 91.22 10
    endloop
  endfacet
  facet normal 0.999323 -0.0367953 0
    outer loop
      vertex 63.568 91.22 0
      vertex 63.763 96.516 0
      vertex 63.763 96.516 10
    endloop
  endfacet
  facet normal 0.999323 -0.0367953 0
    outer loop
      vertex 63.568 91.22 10
      vertex 63.568 91.22 0
      vertex 63.763 96.516 10
    endloop
  endfacet
  facet normal 0.993418 -0.114546 0
    outer loop
      vertex 63.763 96.516 0
      vertex 64.209 100.384 0
      vertex 64.209 100.384 10
    endloop
  endfacet
  facet normal 0.993418 -0.114546 0
    outer loop
      vertex 63.763 96.516 10
      vertex 63.763 96.516 0
      vertex 64.209 100.384 10
    endloop
  endfacet
  facet normal 0.971822 0.235714 0
    outer loop
      vertex 63.265 104.276 0
      vertex 63.265 104.276 10
      vertex 64.209 100.384 10
    endloop
  endfacet
  facet normal 0.971822 0.235714 0
    outer loop
      vertex 64.209 100.384 0
      vertex 63.265 104.276 0
      vertex 64.209 100.384 10
    endloop
  endfacet
  facet normal 0.748514 0.663119 0
    outer loop
      vertex 60.85 107.002 0
      vertex 60.85 107.002 10
      vertex 63.265 104.276 10
    endloop
  endfacet
  facet normal 0.748514 0.663119 0
    outer loop
      vertex 63.265 104.276 0
      vertex 60.85 107.002 0
      vertex 63.265 104.276 10
    endloop
  endfacet
  facet normal 0.0937065 0.9956 0
    outer loop
      vertex 56.887 107.375 10
      vertex 60.85 107.002 10
      vertex 56.887 107.375 0
    endloop
  endfacet
  facet normal 0.0937065 0.9956 0
    outer loop
      vertex 56.887 107.375 0
      vertex 60.85 107.002 10
      vertex 60.85 107.002 0
    endloop
  endfacet
  facet normal -0.346949 0.937884 0
    outer loop
      vertex 51.367 105.333 10
      vertex 56.887 107.375 10
      vertex 51.367 105.333 0
    endloop
  endfacet
  facet normal -0.346949 0.937884 0
    outer loop
      vertex 51.367 105.333 0
      vertex 56.887 107.375 10
      vertex 56.887 107.375 0
    endloop
  endfacet
  facet normal -0.610326 0.79215 0
    outer loop
      vertex 46.64 101.691 10
      vertex 51.367 105.333 10
      vertex 46.64 101.691 0
    endloop
  endfacet
  facet normal -0.610326 0.79215 0
    outer loop
      vertex 46.64 101.691 0
      vertex 51.367 105.333 10
      vertex 51.367 105.333 0
    endloop
  endfacet
  facet normal -0.719288 0.694712 0
    outer loop
      vertex 42.428 97.33 10
      vertex 46.64 101.691 10
      vertex 42.428 97.33 0
    endloop
  endfacet
  facet normal -0.719288 0.694712 0
    outer loop
      vertex 42.428 97.33 0
      vertex 46.64 101.691 10
      vertex 46.64 101.691 0
    endloop
  endfacet
  facet normal -0.72638 0.687294 0
    outer loop
      vertex 38.454 93.13 10
      vertex 42.428 97.33 10
      vertex 38.454 93.13 0
    endloop
  endfacet
  facet normal -0.72638 0.687294 0
    outer loop
      vertex 38.454 93.13 0
      vertex 42.428 97.33 10
      vertex 42.428 97.33 0
    endloop
  endfacet
  facet normal -0.850602 0.525811 0
    outer loop
      vertex 35.99 89.144 10
      vertex 38.454 93.13 10
      vertex 35.99 89.144 0
    endloop
  endfacet
  facet normal -0.850602 0.525811 0
    outer loop
      vertex 35.99 89.144 0
      vertex 38.454 93.13 10
      vertex 38.454 93.13 0
    endloop
  endfacet
  facet normal -0.849034 0.528339 0
    outer loop
      vertex 32.756 83.947 10
      vertex 35.99 89.144 10
      vertex 32.756 83.947 0
    endloop
  endfacet
  facet normal -0.849034 0.528339 0
    outer loop
      vertex 32.756 83.947 0
      vertex 35.99 89.144 10
      vertex 35.99 89.144 0
    endloop
  endfacet
  facet normal -0.82562 0.564226 0
    outer loop
      vertex 29.883 79.743 10
      vertex 32.756 83.947 10
      vertex 29.883 79.743 0
    endloop
  endfacet
  facet normal -0.82562 0.564226 0
    outer loop
      vertex 29.883 79.743 0
      vertex 32.756 83.947 10
      vertex 32.756 83.947 0
    endloop
  endfacet
  facet normal -0.590398 0.807112 0
    outer loop
      vertex 28.505 78.735 10
      vertex 29.883 79.743 10
      vertex 28.505 78.735 0
    endloop
  endfacet
  facet normal -0.590398 0.807112 0
    outer loop
      vertex 28.505 78.735 0
      vertex 29.883 79.743 10
      vertex 29.883 79.743 0
    endloop
  endfacet
  facet normal 0.999974 0.00722873 0
    outer loop
      vertex 28.466 84.13 0
      vertex 28.466 84.13 10
      vertex 28.505 78.735 10
    endloop
  endfacet
  facet normal 0.999974 0.00722873 0
    outer loop
      vertex 28.505 78.735 0
      vertex 28.466 84.13 0
      vertex 28.505 78.735 10
    endloop
  endfacet
  facet normal 0.999404 -0.0345147 0
    outer loop
      vertex 28.466 84.13 0
      vertex 28.67 90.037 0
      vertex 28.67 90.037 10
    endloop
  endfacet
  facet normal 0.999404 -0.0345147 0
    outer loop
      vertex 28.466 84.13 10
      vertex 28.466 84.13 0
      vertex 28.67 90.037 10
    endloop
  endfacet
  facet normal 0.996126 -0.0879381 0
    outer loop
      vertex 28.67 90.037 0
      vertex 29.192 95.95 0
      vertex 29.192 95.95 10
    endloop
  endfacet
  facet normal 0.996126 -0.0879381 0
    outer loop
      vertex 28.67 90.037 10
      vertex 28.67 90.037 0
      vertex 29.192 95.95 10
    endloop
  endfacet
  facet normal 0.985952 -0.167027 0
    outer loop
      vertex 29.192 95.95 0
      vertex 30.109 101.363 0
      vertex 30.109 101.363 10
    endloop
  endfacet
  facet normal 0.985952 -0.167027 0
    outer loop
      vertex 29.192 95.95 10
      vertex 29.192 95.95 0
      vertex 30.109 101.363 10
    endloop
  endfacet
  facet normal 0.982547 -0.186015 0
    outer loop
      vertex 30.109 101.363 0
      vertex 30.935 105.726 0
      vertex 30.935 105.726 10
    endloop
  endfacet
  facet normal 0.982547 -0.186015 0
    outer loop
      vertex 30.109 101.363 10
      vertex 30.109 101.363 0
      vertex 30.935 105.726 10
    endloop
  endfacet
  facet normal 0.997761 -0.0668784 0
    outer loop
      vertex 30.935 105.726 0
      vertex 31.182 109.411 0
      vertex 31.182 109.411 10
    endloop
  endfacet
  facet normal 0.997761 -0.0668784 0
    outer loop
      vertex 30.935 105.726 10
      vertex 30.935 105.726 0
      vertex 31.182 109.411 10
    endloop
  endfacet
  facet normal 0.997145 -0.0755077 0
    outer loop
      vertex 31.182 109.411 0
      vertex 31.42 112.554 0
      vertex 31.42 112.554 10
    endloop
  endfacet
  facet normal 0.997145 -0.0755077 0
    outer loop
      vertex 31.182 109.411 10
      vertex 31.182 109.411 0
      vertex 31.42 112.554 10
    endloop
  endfacet
  facet normal 0.959894 -0.280363 0
    outer loop
      vertex 31.42 112.554 0
      vertex 32.22 115.293 0
      vertex 32.22 115.293 10
    endloop
  endfacet
  facet normal 0.959894 -0.280363 0
    outer loop
      vertex 31.42 112.554 10
      vertex 31.42 112.554 0
      vertex 32.22 115.293 10
    endloop
  endfacet
  facet normal 0.990273 -0.139136 0
    outer loop
      vertex 32.22 115.293 0
      vertex 32.902 120.147 0
      vertex 32.902 120.147 10
    endloop
  endfacet
  facet normal 0.990273 -0.139136 0
    outer loop
      vertex 32.22 115.293 10
      vertex 32.22 115.293 0
      vertex 32.902 120.147 10
    endloop
  endfacet
  facet normal 0.983611 -0.180304 0
    outer loop
      vertex 32.902 120.147 0
      vertex 33.741 124.724 0
      vertex 33.741 124.724 10
    endloop
  endfacet
  facet normal 0.983611 -0.180304 0
    outer loop
      vertex 32.902 120.147 10
      vertex 32.902 120.147 0
      vertex 33.741 124.724 10
    endloop
  endfacet
  facet normal 0.950435 -0.310922 0
    outer loop
      vertex 33.741 124.724 0
      vertex 35.184 129.135 0
      vertex 35.184 129.135 10
    endloop
  endfacet
  facet normal 0.950435 -0.310922 0
    outer loop
      vertex 33.741 124.724 10
      vertex 33.741 124.724 0
      vertex 35.184 129.135 10
    endloop
  endfacet
  facet normal 0.867777 -0.496954 0
    outer loop
      vertex 35.184 129.135 0
      vertex 37.678 133.49 0
      vertex 37.678 133.49 10
    endloop
  endfacet
  facet normal 0.867777 -0.496954 0
    outer loop
      vertex 35.184 129.135 10
      vertex 35.184 129.135 0
      vertex 37.678 133.49 10
    endloop
  endfacet
  facet normal 0.705464 -0.708746 0
    outer loop
      vertex 37.678 133.49 0
      vertex 40.485 136.284 0
      vertex 40.485 136.284 10
    endloop
  endfacet
  facet normal 0.705464 -0.708746 0
    outer loop
      vertex 37.678 133.49 10
      vertex 37.678 133.49 0
      vertex 40.485 136.284 10
    endloop
  endfacet
  facet normal 0.505089 -0.863067 0
    outer loop
      vertex 40.485 136.284 0
      vertex 44.492 138.629 0
      vertex 44.492 138.629 10
    endloop
  endfacet
  facet normal 0.505089 -0.863067 0
    outer loop
      vertex 40.485 136.284 10
      vertex 40.485 136.284 0
      vertex 44.492 138.629 10
    endloop
  endfacet
  facet normal 0.520704 -0.853737 0
    outer loop
      vertex 44.492 138.629 0
      vertex 48.104 140.832 0
      vertex 48.104 140.832 10
    endloop
  endfacet
  facet normal 0.520704 -0.853737 0
    outer loop
      vertex 44.492 138.629 10
      vertex 44.492 138.629 0
      vertex 48.104 140.832 10
    endloop
  endfacet
  facet normal 0.82517 -0.564884 0
    outer loop
      vertex 48.104 140.832 0
      vertex 49.723 143.197 0
      vertex 49.723 143.197 10
    endloop
  endfacet
  facet normal 0.82517 -0.564884 0
    outer loop
      vertex 48.104 140.832 10
      vertex 48.104 140.832 0
      vertex 49.723 143.197 10
    endloop
  endfacet
  facet normal 0.762501 0.646987 0
    outer loop
      vertex 48.502 144.636 0
      vertex 48.502 144.636 10
      vertex 49.723 143.197 10
    endloop
  endfacet
  facet normal 0.762501 0.646987 0
    outer loop
      vertex 49.723 143.197 0
      vertex 48.502 144.636 0
      vertex 49.723 143.197 10
    endloop
  endfacet
  facet normal 0.133076 0.991106 0
    outer loop
      vertex 45.441 145.047 10
      vertex 48.502 144.636 10
      vertex 45.441 145.047 0
    endloop
  endfacet
  facet normal 0.133076 0.991106 0
    outer loop
      vertex 45.441 145.047 0
      vertex 48.502 144.636 10
      vertex 48.502 144.636 0
    endloop
  endfacet
  facet normal -0.176348 0.984328 0
    outer loop
      vertex 41.651 144.368 10
      vertex 45.441 145.047 10
      vertex 41.651 144.368 0
    endloop
  endfacet
  facet normal -0.176348 0.984328 0
    outer loop
      vertex 41.651 144.368 0
      vertex 45.441 145.047 10
      vertex 45.441 145.047 0
    endloop
  endfacet
  facet normal -0.473807 0.880629 0
    outer loop
      vertex 38.246 142.536 10
      vertex 41.651 144.368 10
      vertex 38.246 142.536 0
    endloop
  endfacet
  facet normal -0.473807 0.880629 0
    outer loop
      vertex 38.246 142.536 0
      vertex 41.651 144.368 10
      vertex 41.651 144.368 0
    endloop
  endfacet
  facet normal -0.713895 0.700253 0
    outer loop
      vertex 35.782 140.024 10
      vertex 38.246 142.536 10
      vertex 35.782 140.024 0
    endloop
  endfacet
  facet normal -0.713895 0.700253 0
    outer loop
      vertex 35.782 140.024 0
      vertex 38.246 142.536 10
      vertex 38.246 142.536 0
    endloop
  endfacet
  facet normal -0.697151 0.716924 0
    outer loop
      vertex 33.244 137.556 10
      vertex 35.782 140.024 10
      vertex 33.244 137.556 0
    endloop
  endfacet
  facet normal -0.697151 0.716924 0
    outer loop
      vertex 33.244 137.556 0
      vertex 35.782 140.024 10
      vertex 35.782 140.024 0
    endloop
  endfacet
  facet normal -0.70793 0.706283 0
    outer loop
      vertex 30.671 134.977 10
      vertex 33.244 137.556 10
      vertex 30.671 134.977 0
    endloop
  endfacet
  facet normal -0.70793 0.706283 0
    outer loop
      vertex 30.671 134.977 0
      vertex 33.244 137.556 10
      vertex 33.244 137.556 0
    endloop
  endfacet
  facet normal -0.741981 0.670421 0
    outer loop
      vertex 28.104 132.136 10
      vertex 30.671 134.977 10
      vertex 28.104 132.136 0
    endloop
  endfacet
  facet normal -0.741981 0.670421 0
    outer loop
      vertex 28.104 132.136 0
      vertex 30.671 134.977 10
      vertex 30.671 134.977 0
    endloop
  endfacet
  facet normal -0.798056 0.602583 0
    outer loop
      vertex 24.115 126.853 10
      vertex 28.104 132.136 10
      vertex 24.115 126.853 0
    endloop
  endfacet
  facet normal -0.798056 0.602583 0
    outer loop
      vertex 24.115 126.853 0
      vertex 28.104 132.136 10
      vertex 28.104 132.136 0
    endloop
  endfacet
  facet normal -0.850087 0.526643 0
    outer loop
      vertex 20.655 121.268 10
      vertex 24.115 126.853 10
      vertex 20.655 121.268 0
    endloop
  endfacet
  facet normal -0.850087 0.526643 0
    outer loop
      vertex 20.655 121.268 0
      vertex 24.115 126.853 10
      vertex 24.115 126.853 0
    endloop
  endfacet
  facet normal -0.900753 0.434333 0
    outer loop
      vertex 17.826 115.401 10
      vertex 20.655 121.268 10
      vertex 17.826 115.401 0
    endloop
  endfacet
  facet normal -0.900753 0.434333 0
    outer loop
      vertex 17.826 115.401 0
      vertex 20.655 121.268 10
      vertex 20.655 121.268 0
    endloop
  endfacet
  facet normal -0.946327 0.323211 0
    outer loop
      vertex 15.732 109.27 10
      vertex 17.826 115.401 10
      vertex 15.732 109.27 0
    endloop
  endfacet
  facet normal -0.946327 0.323211 0
    outer loop
      vertex 15.732 109.27 0
      vertex 17.826 115.401 10
      vertex 17.826 115.401 0
    endloop
  endfacet
  facet normal -0.967188 0.25406 0
    outer loop
      vertex 14.028 102.783 10
      vertex 15.732 109.27 10
      vertex 14.028 102.783 0
    endloop
  endfacet
  facet normal -0.967188 0.25406 0
    outer loop
      vertex 14.028 102.783 0
      vertex 15.732 109.27 10
      vertex 15.732 109.27 0
    endloop
  endfacet
  facet normal -0.976938 0.213524 0
    outer loop
      vertex 12.594 96.222 10
      vertex 14.028 102.783 10
      vertex 12.594 96.222 0
    endloop
  endfacet
  facet normal -0.976938 0.213524 0
    outer loop
      vertex 12.594 96.222 0
      vertex 14.028 102.783 10
      vertex 14.028 102.783 0
    endloop
  endfacet
  facet normal -0.99008 0.140502 0
    outer loop
      vertex 11.653 89.591 10
      vertex 12.594 96.222 10
      vertex 11.653 89.591 0
    endloop
  endfacet
  facet normal -0.99008 0.140502 0
    outer loop
      vertex 11.653 89.591 0
      vertex 12.594 96.222 10
      vertex 12.594 96.222 0
    endloop
  endfacet
  facet normal -0.999416 0.0341744 0
    outer loop
      vertex 11.424 82.894 10
      vertex 11.653 89.591 10
      vertex 11.424 82.894 0
    endloop
  endfacet
  facet normal -0.999416 0.0341744 0
    outer loop
      vertex 11.424 82.894 0
      vertex 11.653 89.591 10
      vertex 11.653 89.591 0
    endloop
  endfacet
  facet normal -0.99944 0.0334512 0
    outer loop
      vertex 11.326 79.966 10
      vertex 11.424 82.894 10
      vertex 11.326 79.966 0
    endloop
  endfacet
  facet normal -0.99944 0.0334512 0
    outer loop
      vertex 11.326 79.966 0
      vertex 11.424 82.894 10
      vertex 11.424 82.894 0
    endloop
  endfacet
  facet normal -0.998532 -0.0541664 0
    outer loop
      vertex 11.494 76.869 0
      vertex 11.494 76.869 10
      vertex 11.326 79.966 0
    endloop
  endfacet
  facet normal -0.998532 -0.0541664 0
    outer loop
      vertex 11.326 79.966 0
      vertex 11.494 76.869 10
      vertex 11.326 79.966 10
    endloop
  endfacet
  facet normal -0.999103 -0.0423498 0
    outer loop
      vertex 11.614 74.038 0
      vertex 11.614 74.038 10
      vertex 11.494 76.869 0
    endloop
  endfacet
  facet normal -0.999103 -0.0423498 0
    outer loop
      vertex 11.494 76.869 0
      vertex 11.614 74.038 10
      vertex 11.494 76.869 10
    endloop
  endfacet
  facet normal -0.993764 0.111507 0
    outer loop
      vertex 11.375 71.908 10
      vertex 11.614 74.038 10
      vertex 11.375 71.908 0
    endloop
  endfacet
  facet normal -0.993764 0.111507 0
    outer loop
      vertex 11.375 71.908 0
      vertex 11.614 74.038 10
      vertex 11.614 74.038 0
    endloop
  endfacet
  facet normal -0.99951 -0.0313037 0
    outer loop
      vertex 11.531 66.927 0
      vertex 11.531 66.927 10
      vertex 11.375 71.908 0
    endloop
  endfacet
  facet normal -0.99951 -0.0313037 0
    outer loop
      vertex 11.375 71.908 0
      vertex 11.531 66.927 10
      vertex 11.375 71.908 10
    endloop
  endfacet
  facet normal -0.999889 -0.0148897 0
    outer loop
      vertex 11.616 61.219 0
      vertex 11.616 61.219 10
      vertex 11.531 66.927 0
    endloop
  endfacet
  facet normal -0.999889 -0.0148897 0
    outer loop
      vertex 11.531 66.927 0
      vertex 11.616 61.219 10
      vertex 11.531 66.927 10
    endloop
  endfacet
  facet normal -0.999989 -0.00462359 0
    outer loop
      vertex 11.641 55.812 0
      vertex 11.641 55.812 10
      vertex 11.616 61.219 0
    endloop
  endfacet
  facet normal -0.999989 -0.00462359 0
    outer loop
      vertex 11.616 61.219 0
      vertex 11.641 55.812 10
      vertex 11.616 61.219 10
    endloop
  endfacet
  facet normal -0.999997 0.00259655 0
    outer loop
      vertex 11.633 52.731 10
      vertex 11.641 55.812 10
      vertex 11.633 52.731 0
    endloop
  endfacet
  facet normal -0.999997 0.00259655 0
    outer loop
      vertex 11.633 52.731 0
      vertex 11.641 55.812 10
      vertex 11.641 55.812 0
    endloop
  endfacet
  facet normal -0.998878 0.0473501 0
    outer loop
      vertex 11.497 49.862 10
      vertex 11.633 52.731 10
      vertex 11.497 49.862 0
    endloop
  endfacet
  facet normal -0.998878 0.0473501 0
    outer loop
      vertex 11.497 49.862 0
      vertex 11.633 52.731 10
      vertex 11.633 52.731 0
    endloop
  endfacet
  facet normal -0.996079 0.088463 0
    outer loop
      vertex 11.243 47.002 10
      vertex 11.497 49.862 10
      vertex 11.243 47.002 0
    endloop
  endfacet
  facet normal -0.996079 0.088463 0
    outer loop
      vertex 11.243 47.002 0
      vertex 11.497 49.862 10
      vertex 11.497 49.862 0
    endloop
  endfacet
  facet normal -0.991312 0.131533 0
    outer loop
      vertex 10.997 45.148 10
      vertex 11.243 47.002 10
      vertex 10.997 45.148 0
    endloop
  endfacet
  facet normal -0.991312 0.131533 0
    outer loop
      vertex 10.997 45.148 0
      vertex 11.243 47.002 10
      vertex 11.243 47.002 0
    endloop
  endfacet
  facet normal -0.994727 0.102558 0
    outer loop
      vertex 10.874 43.955 10
      vertex 10.997 45.148 10
      vertex 10.874 43.955 0
    endloop
  endfacet
  facet normal -0.994727 0.102558 0
    outer loop
      vertex 10.874 43.955 0
      vertex 10.997 45.148 10
      vertex 10.997 45.148 0
    endloop
  endfacet
  facet normal -0.999535 0.0304878 0
    outer loop
      vertex 10.795 41.365 10
      vertex 10.874 43.955 10
      vertex 10.795 41.365 0
    endloop
  endfacet
  facet normal -0.999535 0.0304878 0
    outer loop
      vertex 10.795 41.365 0
      vertex 10.874 43.955 10
      vertex 10.874 43.955 0
    endloop
  endfacet
  facet normal -0.999529 0.0306935 0
    outer loop
      vertex 10.687 37.848 10
      vertex 10.795 41.365 10
      vertex 10.687 37.848 0
    endloop
  endfacet
  facet normal -0.999529 0.0306935 0
    outer loop
      vertex 10.687 37.848 0
      vertex 10.795 41.365 10
      vertex 10.795 41.365 0
    endloop
  endfacet
  facet normal -0.999786 0.0207028 0
    outer loop
      vertex 10.622 34.709 10
      vertex 10.687 37.848 10
      vertex 10.622 34.709 0
    endloop
  endfacet
  facet normal -0.999786 0.0207028 0
    outer loop
      vertex 10.622 34.709 0
      vertex 10.687 37.848 10
      vertex 10.687 37.848 0
    endloop
  endfacet
endsolid OpenSCAD_Model
