solid OpenSCAD_Model
  facet normal -0.997676 0.0681361 0
    outer loop
      vertex 19.915 78.423 10
      vertex 20.382 85.261 10
      vertex 19.915 78.423 0
    endloop
  endfacet
  facet normal -0.997676 0.0681361 0
    outer loop
      vertex 19.915 78.423 0
      vertex 20.382 85.261 10
      vertex 20.382 85.261 0
    endloop
  endfacet
  facet normal 0 0 -1
    outer loop
      vertex 19.554 74.352 0
      vertex 19.915 78.423 0
      vertex 19.517 69.309 0
    endloop
  endfacet
  facet normal 0 0 -1
    outer loop
      vertex 19.517 69.309 0
      vertex 19.915 78.423 0
      vertex 20.382 85.261 0
    endloop
  endfacet
  facet normal 0 0 -1
    outer loop
      vertex 19.517 69.309 0
      vertex 20.382 85.261 0
      vertex 24.467 90.745 0
    endloop
  endfacet
  facet normal 0 0 -1
    outer loop
      vertex 19.517 69.309 0
      vertex 24.467 90.745 0
      vertex 29.007 90.301 0
    endloop
  endfacet
  facet normal 0 0 -1
    outer loop
      vertex 19.517 69.309 0
      vertex 29.007 90.301 0
      vertex 29.033 87.822 0
    endloop
  endfacet
  facet normal 0 0 -1
    outer loop
      vertex 19.517 69.309 0
      vertex 29.033 87.822 0
      vertex 28.777 83.854 0
    endloop
  endfacet
  facet normal 0 0 -1
    outer loop
      vertex 19.517 69.309 0
      vertex 28.777 83.854 0
      vertex 27.604 75.475 0
    endloop
  endfacet
  facet normal 0 0 -1
    outer loop
      vertex 19.517 69.309 0
      vertex 27.604 75.475 0
      vertex 26.375 64.632 0
    endloop
  endfacet
  facet normal 0 0 -1
    outer loop
      vertex 26.375 64.632 0
      vertex 25.946 57.951 0
      vertex 19.517 69.309 0
    endloop
  endfacet
  facet normal 0 0 -1
    outer loop
      vertex 25.946 57.951 0
      vertex 25.908 49.805 0
      vertex 19.517 69.309 0
    endloop
  endfacet
  facet normal 0 0 -1
    outer loop
      vertex 25.908 49.805 0
      vertex 26.998 44.31 0
      vertex 19.517 69.309 0
    endloop
  endfacet
  facet normal 0 0 -1
    outer loop
      vertex 26.998 44.31 0
      vertex 28.686 30.609 0
      vertex 19.517 69.309 0
    endloop
  endfacet
  facet normal 0 0 -1
    outer loop
      vertex 56.224 42.558 0
      vertex 61.318 42.939 0
      vertex 50.918 36.29 0
    endloop
  endfacet
  facet normal 0 0 -1
    outer loop
      vertex 55.973 53.736 0
      vertex 50.787 64.201 0
      vertex 48.566 69.445 0
    endloop
  endfacet
  facet normal 0 0 -1
    outer loop
      vertex 55.973 53.736 0
      vertex 48.566 69.445 0
      vertex 59.252 46.956 0
    endloop
  endfacet
  facet normal 0 0 -1
    outer loop
      vertex 59.252 46.956 0
      vertex 48.566 69.445 0
      vertex 46.263 76.159 0
    endloop
  endfacet
  facet normal 0 0 -1
    outer loop
      vertex 59.252 46.956 0
      vertex 46.263 76.159 0
      vertex 44.168 82.703 0
    endloop
  endfacet
  facet normal 0 0 -1
    outer loop
      vertex 59.252 46.956 0
      vertex 44.168 82.703 0
      vertex 42.216 91.046 0
    endloop
  endfacet
  facet normal 0 0 -1
    outer loop
      vertex 42.216 91.046 0
      vertex 41.267 95.467 0
      vertex 59.252 46.956 0
    endloop
  endfacet
  facet normal 0 0 -1
    outer loop
      vertex 59.252 46.956 0
      vertex 41.267 95.467 0
      vertex 40.279 100.613 0
    endloop
  endfacet
  facet normal 0 0 -1
    outer loop
      vertex 59.252 46.956 0
      vertex 40.279 100.613 0
      vertex 39.939 104.355 0
    endloop
  endfacet
  facet normal 0 0 -1
    outer loop
      vertex 59.252 46.956 0
      vertex 39.939 104.355 0
      vertex 39.602 108.443 0
    endloop
  endfacet
  facet normal 0 0 -1
    outer loop
      vertex 39.602 108.443 0
      vertex 39.226 111.441 0
      vertex 59.252 46.956 0
    endloop
  endfacet
  facet normal 0 0 -1
    outer loop
      vertex 39.226 111.441 0
      vertex 39.403 115.563 0
      vertex 59.252 46.956 0
    endloop
  endfacet
  facet normal 0 0 -1
    outer loop
      vertex 59.252 46.956 0
      vertex 39.403 115.563 0
      vertex 39.908 119.75 0
    endloop
  endfacet
  facet normal 0 0 -1
    outer loop
      vertex 39.908 119.75 0
      vertex 40.398 125.546 0
      vertex 59.252 46.956 0
    endloop
  endfacet
  facet normal 0 0 -1
    outer loop
      vertex 59.252 46.956 0
      vertex 40.398 125.546 0
      vertex 41.018 131.183 0
    endloop
  endfacet
  facet normal 0 0 -1
    outer loop
      vertex 59.252 46.956 0
      vertex 41.018 131.183 0
      vertex 42.596 138.152 0
    endloop
  endfacet
  facet normal 0 0 -1
    outer loop
      vertex 46.906 130.081 0
      vertex 42.596 138.152 0
      vertex 45.713 142.709 0
    endloop
  endfacet
  facet normal 0 0 -1
    outer loop
      vertex 48.906 135.349 0
      vertex 45.713 142.709 0
      vertex 50.95 146.016 0
    endloop
  endfacet
  facet normal 0 0 -1
    outer loop
      vertex 55.768 135.643 0
      vertex 50.95 146.016 0
      vertex 56.133 147.556 0
    endloop
  endfacet
  facet normal 0 0 -1
    outer loop
      vertex 63.016 126.336 0
      vertex 61.795 145.731 0
      vertex 64.574 141.753 0
    endloop
  endfacet
  facet normal 0 0 -1
    outer loop
      vertex 55.768 135.643 0
      vertex 61.795 145.731 0
      vertex 63.016 126.336 0
    endloop
  endfacet
  facet normal 0 0 -1
    outer loop
      vertex 65.532 117.163 0
      vertex 66.752 137.017 0
      vertex 68.627 130.129 0
    endloop
  endfacet
  facet normal 0 0 -1
    outer loop
      vertex 66.859 103.911 0
      vertex 68.627 130.129 0
      vertex 69.818 122.834 0
    endloop
  endfacet
  facet normal 0 0 -1
    outer loop
      vertex 67.901 92.539 0
      vertex 71.112 114.82 0
      vertex 71.52 106.528 0
    endloop
  endfacet
  facet normal 0 0 -1
    outer loop
      vertex 68.545 83.658 0
      vertex 71.426 100.257 0
      vertex 72.389 93.772 0
    endloop
  endfacet
  facet normal 0 0 -1
    outer loop
      vertex 68.227 77.931 0
      vertex 72.389 93.772 0
      vertex 71.827 81.287 0
    endloop
  endfacet
  facet normal 0 0 -1
    outer loop
      vertex 59.252 46.956 0
      vertex 71.827 81.287 0
      vertex 71.034 73.749 0
    endloop
  endfacet
  facet normal 0 0 -1
    outer loop
      vertex 59.252 46.956 0
      vertex 71.034 73.749 0
      vertex 66.176 58.344 0
    endloop
  endfacet
  facet normal 0 0 -1
    outer loop
      vertex 59.252 46.956 0
      vertex 66.176 58.344 0
      vertex 58.5 45.499 0
    endloop
  endfacet
  facet normal 0 0 -1
    outer loop
      vertex 58.5 45.499 0
      vertex 66.176 58.344 0
      vertex 61.318 42.939 0
    endloop
  endfacet
  facet normal 0 0 -1
    outer loop
      vertex 58.5 45.499 0
      vertex 61.318 42.939 0
      vertex 56.224 42.558 0
    endloop
  endfacet
  facet normal 0 0 -1
    outer loop
      vertex 50.918 36.29 0
      vertex 61.318 42.939 0
      vertex 56.726 38.616 0
    endloop
  endfacet
  facet normal 0 0 -1
    outer loop
      vertex 50.918 36.29 0
      vertex 56.726 38.616 0
      vertex 44.955 32.75 0
    endloop
  endfacet
  facet normal 0 0 -1
    outer loop
      vertex 44.955 32.75 0
      vertex 56.726 38.616 0
      vertex 49.845 31.854 0
    endloop
  endfacet
  facet normal 0 0 -1
    outer loop
      vertex 44.955 32.75 0
      vertex 49.845 31.854 0
      vertex 36.143 32.055 0
    endloop
  endfacet
  facet normal 0 0 -1
    outer loop
      vertex 36.143 32.055 0
      vertex 49.845 31.854 0
      vertex 45.712 29.007 0
    endloop
  endfacet
  facet normal 0 0 -1
    outer loop
      vertex 36.143 32.055 0
      vertex 45.712 29.007 0
      vertex 40.985 27.58 0
    endloop
  endfacet
  facet normal 0 0 -1
    outer loop
      vertex 36.143 32.055 0
      vertex 40.985 27.58 0
      vertex 29.106 37.526 0
    endloop
  endfacet
  facet normal 0 0 -1
    outer loop
      vertex 29.106 37.526 0
      vertex 40.985 27.58 0
      vertex 34.035 27.589 0
    endloop
  endfacet
  facet normal 0 0 -1
    outer loop
      vertex 29.106 37.526 0
      vertex 34.035 27.589 0
      vertex 28.686 30.609 0
    endloop
  endfacet
  facet normal 0 0 -1
    outer loop
      vertex 29.106 37.526 0
      vertex 28.686 30.609 0
      vertex 26.998 44.31 0
    endloop
  endfacet
  facet normal 0 0 -1
    outer loop
      vertex 19.517 69.309 0
      vertex 28.686 30.609 0
      vertex 24.872 35.57 0
    endloop
  endfacet
  facet normal 0 0 -1
    outer loop
      vertex 19.517 69.309 0
      vertex 24.872 35.57 0
      vertex 23.172 40.049 0
    endloop
  endfacet
  facet normal 0 0 -1
    outer loop
      vertex 19.517 69.309 0
      vertex 23.172 40.049 0
      vertex 21.765 47.993 0
    endloop
  endfacet
  facet normal 0 0 -1
    outer loop
      vertex 19.517 69.309 0
      vertex 21.765 47.993 0
      vertex 20.72 56.381 0
    endloop
  endfacet
  facet normal 0 0 -1
    outer loop
      vertex 19.791 65.866 0
      vertex 20.72 56.381 0
      vertex 20.206 60.647 0
    endloop
  endfacet
  facet normal 0 0 -1
    outer loop
      vertex 19.517 69.309 0
      vertex 20.72 56.381 0
      vertex 19.791 65.866 0
    endloop
  endfacet
  facet normal 0 0 -1
    outer loop
      vertex 47.994 120.415 0
      vertex 42.596 138.152 0
      vertex 46.906 130.081 0
    endloop
  endfacet
  facet normal 0 0 -1
    outer loop
      vertex 50.97 111.066 0
      vertex 59.252 46.956 0
      vertex 47.994 120.415 0
    endloop
  endfacet
  facet normal 0 0 -1
    outer loop
      vertex 59.252 46.956 0
      vertex 42.596 138.152 0
      vertex 47.994 120.415 0
    endloop
  endfacet
  facet normal 0 0 -1
    outer loop
      vertex 59.252 46.956 0
      vertex 50.97 111.066 0
      vertex 54.144 102.002 0
    endloop
  endfacet
  facet normal 0 0 -1
    outer loop
      vertex 61.875 87.677 0
      vertex 59.252 46.956 0
      vertex 58.377 93.63 0
    endloop
  endfacet
  facet normal 0 0 -1
    outer loop
      vertex 63.016 126.336 0
      vertex 66.752 137.017 0
      vertex 65.532 117.163 0
    endloop
  endfacet
  facet normal 0 0 -1
    outer loop
      vertex 66.145 80.124 0
      vertex 59.252 46.956 0
      vertex 61.875 87.677 0
    endloop
  endfacet
  facet normal 0 0 -1
    outer loop
      vertex 68.227 77.931 0
      vertex 59.252 46.956 0
      vertex 66.145 80.124 0
    endloop
  endfacet
  facet normal 0 0 -1
    outer loop
      vertex 67.901 92.539 0
      vertex 71.52 106.528 0
      vertex 71.426 100.257 0
    endloop
  endfacet
  facet normal 0 0 -1
    outer loop
      vertex 59.252 46.956 0
      vertex 68.227 77.931 0
      vertex 71.827 81.287 0
    endloop
  endfacet
  facet normal 0 0 -1
    outer loop
      vertex 67.901 92.539 0
      vertex 71.426 100.257 0
      vertex 68.545 83.658 0
    endloop
  endfacet
  facet normal 0 0 -1
    outer loop
      vertex 68.545 83.658 0
      vertex 72.389 93.772 0
      vertex 68.227 77.931 0
    endloop
  endfacet
  facet normal 0 0 -1
    outer loop
      vertex 66.737 109.757 0
      vertex 68.627 130.129 0
      vertex 66.859 103.911 0
    endloop
  endfacet
  facet normal 0 0 -1
    outer loop
      vertex 63.016 126.336 0
      vertex 64.574 141.753 0
      vertex 66.752 137.017 0
    endloop
  endfacet
  facet normal 0 0 -1
    outer loop
      vertex 55.768 135.643 0
      vertex 56.133 147.556 0
      vertex 61.795 145.731 0
    endloop
  endfacet
  facet normal 0 0 -1
    outer loop
      vertex 48.906 135.349 0
      vertex 50.95 146.016 0
      vertex 55.768 135.643 0
    endloop
  endfacet
  facet normal 0 0 -1
    outer loop
      vertex 46.906 130.081 0
      vertex 45.713 142.709 0
      vertex 48.906 135.349 0
    endloop
  endfacet
  facet normal 0 0 -1
    outer loop
      vertex 58.377 93.63 0
      vertex 59.252 46.956 0
      vertex 54.144 102.002 0
    endloop
  endfacet
  facet normal 0 0 -1
    outer loop
      vertex 66.859 103.911 0
      vertex 69.818 122.834 0
      vertex 71.112 114.82 0
    endloop
  endfacet
  facet normal 0 0 -1
    outer loop
      vertex 65.532 117.163 0
      vertex 68.627 130.129 0
      vertex 66.737 109.757 0
    endloop
  endfacet
  facet normal 0 0 -1
    outer loop
      vertex 66.859 103.911 0
      vertex 71.112 114.82 0
      vertex 67.901 92.539 0
    endloop
  endfacet
  facet normal -0.801961 0.597376 0
    outer loop
      vertex 20.382 85.261 10
      vertex 24.467 90.745 10
      vertex 20.382 85.261 0
    endloop
  endfacet
  facet normal -0.801961 0.597376 0
    outer loop
      vertex 20.382 85.261 0
      vertex 24.467 90.745 10
      vertex 24.467 90.745 0
    endloop
  endfacet
  facet normal -0.996091 0.0883294 0
    outer loop
      vertex 19.554 74.352 10
      vertex 19.915 78.423 10
      vertex 19.554 74.352 0
    endloop
  endfacet
  facet normal -0.996091 0.0883294 0
    outer loop
      vertex 19.554 74.352 0
      vertex 19.915 78.423 10
      vertex 19.915 78.423 0
    endloop
  endfacet
  facet normal 0 0 1
    outer loop
      vertex 19.517 69.309 10
      vertex 19.791 65.866 10
      vertex 20.72 56.381 10
    endloop
  endfacet
  facet normal 0 0 1
    outer loop
      vertex 20.72 56.381 10
      vertex 19.791 65.866 10
      vertex 20.206 60.647 10
    endloop
  endfacet
  facet normal 0 0 1
    outer loop
      vertex 19.517 69.309 10
      vertex 20.72 56.381 10
      vertex 21.765 47.993 10
    endloop
  endfacet
  facet normal 0 0 1
    outer loop
      vertex 19.517 69.309 10
      vertex 21.765 47.993 10
      vertex 23.172 40.049 10
    endloop
  endfacet
  facet normal 0 0 1
    outer loop
      vertex 19.517 69.309 10
      vertex 23.172 40.049 10
      vertex 24.872 35.57 10
    endloop
  endfacet
  facet normal 0 0 1
    outer loop
      vertex 19.517 69.309 10
      vertex 24.872 35.57 10
      vertex 28.686 30.609 10
    endloop
  endfacet
  facet normal 0 0 1
    outer loop
      vertex 29.106 37.526 10
      vertex 28.686 30.609 10
      vertex 34.035 27.589 10
    endloop
  endfacet
  facet normal 0 0 1
    outer loop
      vertex 36.143 32.055 10
      vertex 34.035 27.589 10
      vertex 40.985 27.58 10
    endloop
  endfacet
  facet normal 0 0 1
    outer loop
      vertex 36.143 32.055 10
      vertex 29.106 37.526 10
      vertex 34.035 27.589 10
    endloop
  endfacet
  facet normal 0 0 1
    outer loop
      vertex 44.955 32.75 10
      vertex 45.712 29.007 10
      vertex 49.845 31.854 10
    endloop
  endfacet
  facet normal 0 0 1
    outer loop
      vertex 56.224 42.558 10
      vertex 56.726 38.616 10
      vertex 61.318 42.939 10
    endloop
  endfacet
  facet normal 0 0 1
    outer loop
      vertex 50.918 36.29 10
      vertex 49.845 31.854 10
      vertex 56.726 38.616 10
    endloop
  endfacet
  facet normal 0 0 1
    outer loop
      vertex 55.973 53.736 10
      vertex 61.318 42.939 10
      vertex 66.176 58.344 10
    endloop
  endfacet
  facet normal 0 0 1
    outer loop
      vertex 48.566 69.445 10
      vertex 66.176 58.344 10
      vertex 71.034 73.749 10
    endloop
  endfacet
  facet normal 0 0 1
    outer loop
      vertex 68.227 77.931 10
      vertex 71.034 73.749 10
      vertex 71.827 81.287 10
    endloop
  endfacet
  facet normal 0 0 1
    outer loop
      vertex 68.545 83.658 10
      vertex 71.827 81.287 10
      vertex 72.389 93.772 10
    endloop
  endfacet
  facet normal 0 0 1
    outer loop
      vertex 67.901 92.539 10
      vertex 72.389 93.772 10
      vertex 71.426 100.257 10
    endloop
  endfacet
  facet normal 0 0 1
    outer loop
      vertex 66.737 109.757 10
      vertex 71.52 106.528 10
      vertex 71.112 114.82 10
    endloop
  endfacet
  facet normal 0 0 1
    outer loop
      vertex 65.532 117.163 10
      vertex 71.112 114.82 10
      vertex 69.818 122.834 10
    endloop
  endfacet
  facet normal 0 0 1
    outer loop
      vertex 65.532 117.163 10
      vertex 66.737 109.757 10
      vertex 71.112 114.82 10
    endloop
  endfacet
  facet normal 0 0 1
    outer loop
      vertex 63.016 126.336 10
      vertex 68.627 130.129 10
      vertex 66.752 137.017 10
    endloop
  endfacet
  facet normal 0 0 1
    outer loop
      vertex 63.016 126.336 10
      vertex 65.532 117.163 10
      vertex 69.818 122.834 10
    endloop
  endfacet
  facet normal 0 0 1
    outer loop
      vertex 55.768 135.643 10
      vertex 61.795 145.731 10
      vertex 56.133 147.556 10
    endloop
  endfacet
  facet normal 0 0 1
    outer loop
      vertex 48.906 135.349 10
      vertex 56.133 147.556 10
      vertex 50.95 146.016 10
    endloop
  endfacet
  facet normal 0 0 1
    outer loop
      vertex 40.398 125.546 10
      vertex 50.95 146.016 10
      vertex 45.713 142.709 10
    endloop
  endfacet
  facet normal 0 0 1
    outer loop
      vertex 41.018 131.183 10
      vertex 45.713 142.709 10
      vertex 42.596 138.152 10
    endloop
  endfacet
  facet normal 0 0 1
    outer loop
      vertex 39.908 119.75 10
      vertex 39.403 115.563 10
      vertex 50.95 146.016 10
    endloop
  endfacet
  facet normal 0 0 1
    outer loop
      vertex 47.994 120.415 10
      vertex 39.403 115.563 10
      vertex 39.226 111.441 10
    endloop
  endfacet
  facet normal 0 0 1
    outer loop
      vertex 39.908 119.75 10
      vertex 50.95 146.016 10
      vertex 40.398 125.546 10
    endloop
  endfacet
  facet normal 0 0 1
    outer loop
      vertex 47.994 120.415 10
      vertex 39.226 111.441 10
      vertex 39.602 108.443 10
    endloop
  endfacet
  facet normal 0 0 1
    outer loop
      vertex 48.906 135.349 10
      vertex 55.768 135.643 10
      vertex 56.133 147.556 10
    endloop
  endfacet
  facet normal 0 0 1
    outer loop
      vertex 66.859 103.911 10
      vertex 67.901 92.539 10
      vertex 71.426 100.257 10
    endloop
  endfacet
  facet normal 0 0 1
    outer loop
      vertex 28.777 83.854 10
      vertex 29.033 87.822 10
      vertex 19.517 69.309 10
    endloop
  endfacet
  facet normal 0 0 1
    outer loop
      vertex 54.144 102.002 10
      vertex 41.267 95.467 10
      vertex 42.216 91.046 10
    endloop
  endfacet
  facet normal 0 0 1
    outer loop
      vertex 29.033 87.822 10
      vertex 29.007 90.301 10
      vertex 19.517 69.309 10
    endloop
  endfacet
  facet normal 0 0 1
    outer loop
      vertex 46.263 76.159 10
      vertex 68.227 77.931 10
      vertex 66.145 80.124 10
    endloop
  endfacet
  facet normal 0 0 1
    outer loop
      vertex 66.145 80.124 10
      vertex 61.875 87.677 10
      vertex 46.263 76.159 10
    endloop
  endfacet
  facet normal 0 0 1
    outer loop
      vertex 50.787 64.201 10
      vertex 66.176 58.344 10
      vertex 48.566 69.445 10
    endloop
  endfacet
  facet normal 0 0 1
    outer loop
      vertex 27.604 75.475 10
      vertex 28.777 83.854 10
      vertex 19.517 69.309 10
    endloop
  endfacet
  facet normal 0 0 1
    outer loop
      vertex 59.252 46.956 10
      vertex 61.318 42.939 10
      vertex 55.973 53.736 10
    endloop
  endfacet
  facet normal 0 0 1
    outer loop
      vertex 29.007 90.301 10
      vertex 24.467 90.745 10
      vertex 19.517 69.309 10
    endloop
  endfacet
  facet normal 0 0 1
    outer loop
      vertex 58.5 45.499 10
      vertex 61.318 42.939 10
      vertex 59.252 46.956 10
    endloop
  endfacet
  facet normal 0 0 1
    outer loop
      vertex 55.768 135.643 10
      vertex 63.016 126.336 10
      vertex 66.752 137.017 10
    endloop
  endfacet
  facet normal 0 0 1
    outer loop
      vertex 50.918 36.29 10
      vertex 44.955 32.75 10
      vertex 49.845 31.854 10
    endloop
  endfacet
  facet normal 0 0 1
    outer loop
      vertex 26.998 44.31 10
      vertex 28.686 30.609 10
      vertex 29.106 37.526 10
    endloop
  endfacet
  facet normal 0 0 1
    outer loop
      vertex 25.908 49.805 10
      vertex 25.946 57.951 10
      vertex 19.517 69.309 10
    endloop
  endfacet
  facet normal 0 0 1
    outer loop
      vertex 19.517 69.309 10
      vertex 28.686 30.609 10
      vertex 26.998 44.31 10
    endloop
  endfacet
  facet normal 0 0 1
    outer loop
      vertex 26.998 44.31 10
      vertex 25.908 49.805 10
      vertex 19.517 69.309 10
    endloop
  endfacet
  facet normal 0 0 1
    outer loop
      vertex 25.946 57.951 10
      vertex 26.375 64.632 10
      vertex 19.517 69.309 10
    endloop
  endfacet
  facet normal 0 0 1
    outer loop
      vertex 56.224 42.558 10
      vertex 50.918 36.29 10
      vertex 56.726 38.616 10
    endloop
  endfacet
  facet normal 0 0 1
    outer loop
      vertex 26.375 64.632 10
      vertex 27.604 75.475 10
      vertex 19.517 69.309 10
    endloop
  endfacet
  facet normal 0 0 1
    outer loop
      vertex 46.263 76.159 10
      vertex 71.034 73.749 10
      vertex 68.227 77.931 10
    endloop
  endfacet
  facet normal 0 0 1
    outer loop
      vertex 63.016 126.336 10
      vertex 69.818 122.834 10
      vertex 68.627 130.129 10
    endloop
  endfacet
  facet normal 0 0 1
    outer loop
      vertex 47.994 120.415 10
      vertex 46.906 130.081 10
      vertex 39.403 115.563 10
    endloop
  endfacet
  facet normal 0 0 1
    outer loop
      vertex 19.517 69.309 10
      vertex 24.467 90.745 10
      vertex 20.382 85.261 10
    endloop
  endfacet
  facet normal 0 0 1
    outer loop
      vertex 19.517 69.309 10
      vertex 19.915 78.423 10
      vertex 19.554 74.352 10
    endloop
  endfacet
  facet normal 0 0 1
    outer loop
      vertex 19.517 69.309 10
      vertex 20.382 85.261 10
      vertex 19.915 78.423 10
    endloop
  endfacet
  facet normal 0 0 1
    outer loop
      vertex 39.403 115.563 10
      vertex 46.906 130.081 10
      vertex 50.95 146.016 10
    endloop
  endfacet
  facet normal 0 0 1
    outer loop
      vertex 46.906 130.081 10
      vertex 48.906 135.349 10
      vertex 50.95 146.016 10
    endloop
  endfacet
  facet normal 0 0 1
    outer loop
      vertex 55.768 135.643 10
      vertex 64.574 141.753 10
      vertex 61.795 145.731 10
    endloop
  endfacet
  facet normal 0 0 1
    outer loop
      vertex 50.97 111.066 10
      vertex 39.939 104.355 10
      vertex 40.279 100.613 10
    endloop
  endfacet
  facet normal 0 0 1
    outer loop
      vertex 66.859 103.911 10
      vertex 71.426 100.257 10
      vertex 71.52 106.528 10
    endloop
  endfacet
  facet normal 0 0 1
    outer loop
      vertex 66.859 103.911 10
      vertex 71.52 106.528 10
      vertex 66.737 109.757 10
    endloop
  endfacet
  facet normal 0 0 1
    outer loop
      vertex 46.263 76.159 10
      vertex 48.566 69.445 10
      vertex 71.034 73.749 10
    endloop
  endfacet
  facet normal 0 0 1
    outer loop
      vertex 61.875 87.677 10
      vertex 58.377 93.63 10
      vertex 44.168 82.703 10
    endloop
  endfacet
  facet normal 0 0 1
    outer loop
      vertex 58.377 93.63 10
      vertex 54.144 102.002 10
      vertex 42.216 91.046 10
    endloop
  endfacet
  facet normal 0 0 1
    outer loop
      vertex 58.5 45.499 10
      vertex 56.224 42.558 10
      vertex 61.318 42.939 10
    endloop
  endfacet
  facet normal 0 0 1
    outer loop
      vertex 50.787 64.201 10
      vertex 55.973 53.736 10
      vertex 66.176 58.344 10
    endloop
  endfacet
  facet normal 0 0 1
    outer loop
      vertex 44.955 32.75 10
      vertex 36.143 32.055 10
      vertex 40.985 27.58 10
    endloop
  endfacet
  facet normal 0 0 1
    outer loop
      vertex 44.955 32.75 10
      vertex 40.985 27.58 10
      vertex 45.712 29.007 10
    endloop
  endfacet
  facet normal 0 0 1
    outer loop
      vertex 44.168 82.703 10
      vertex 46.263 76.159 10
      vertex 61.875 87.677 10
    endloop
  endfacet
  facet normal 0 0 1
    outer loop
      vertex 68.545 83.658 10
      vertex 68.227 77.931 10
      vertex 71.827 81.287 10
    endloop
  endfacet
  facet normal 0 0 1
    outer loop
      vertex 50.97 111.066 10
      vertex 47.994 120.415 10
      vertex 39.939 104.355 10
    endloop
  endfacet
  facet normal 0 0 1
    outer loop
      vertex 41.018 131.183 10
      vertex 40.398 125.546 10
      vertex 45.713 142.709 10
    endloop
  endfacet
  facet normal 0 0 1
    outer loop
      vertex 55.768 135.643 10
      vertex 66.752 137.017 10
      vertex 64.574 141.753 10
    endloop
  endfacet
  facet normal 0 0 1
    outer loop
      vertex 39.602 108.443 10
      vertex 39.939 104.355 10
      vertex 47.994 120.415 10
    endloop
  endfacet
  facet normal 0 0 1
    outer loop
      vertex 40.279 100.613 10
      vertex 41.267 95.467 10
      vertex 50.97 111.066 10
    endloop
  endfacet
  facet normal 0 0 1
    outer loop
      vertex 67.901 92.539 10
      vertex 68.545 83.658 10
      vertex 72.389 93.772 10
    endloop
  endfacet
  facet normal 0 0 1
    outer loop
      vertex 54.144 102.002 10
      vertex 50.97 111.066 10
      vertex 41.267 95.467 10
    endloop
  endfacet
  facet normal 0 0 1
    outer loop
      vertex 42.216 91.046 10
      vertex 44.168 82.703 10
      vertex 58.377 93.63 10
    endloop
  endfacet
  facet normal -0.996848 -0.0793309 0
    outer loop
      vertex 19.791 65.866 0
      vertex 19.791 65.866 10
      vertex 19.517 69.309 0
    endloop
  endfacet
  facet normal -0.996848 -0.0793309 0
    outer loop
      vertex 19.517 69.309 0
      vertex 19.791 65.866 10
      vertex 19.517 69.309 10
    endloop
  endfacet
  facet normal -0.999973 0.00733671 0
    outer loop
      vertex 19.517 69.309 10
      vertex 19.554 74.352 10
      vertex 19.517 69.309 0
    endloop
  endfacet
  facet normal -0.999973 0.00733671 0
    outer loop
      vertex 19.517 69.309 0
      vertex 19.554 74.352 10
      vertex 19.554 74.352 0
    endloop
  endfacet
  facet normal -0.996853 -0.0792669 0
    outer loop
      vertex 20.206 60.647 0
      vertex 20.206 60.647 10
      vertex 19.791 65.866 0
    endloop
  endfacet
  facet normal -0.996853 -0.0792669 0
    outer loop
      vertex 19.791 65.866 0
      vertex 20.206 60.647 10
      vertex 19.791 65.866 10
    endloop
  endfacet
  facet normal -0.992819 -0.119622 0
    outer loop
      vertex 20.72 56.381 0
      vertex 20.72 56.381 10
      vertex 20.206 60.647 0
    endloop
  endfacet
  facet normal -0.992819 -0.119622 0
    outer loop
      vertex 20.206 60.647 0
      vertex 20.72 56.381 10
      vertex 20.206 60.647 10
    endloop
  endfacet
  facet normal -0.992329 -0.123627 0
    outer loop
      vertex 21.765 47.993 0
      vertex 21.765 47.993 10
      vertex 20.72 56.381 0
    endloop
  endfacet
  facet normal -0.992329 -0.123627 0
    outer loop
      vertex 20.72 56.381 0
      vertex 21.765 47.993 10
      vertex 20.72 56.381 10
    endloop
  endfacet
  facet normal -0.984675 -0.1744 0
    outer loop
      vertex 23.172 40.049 0
      vertex 23.172 40.049 10
      vertex 21.765 47.993 0
    endloop
  endfacet
  facet normal -0.984675 -0.1744 0
    outer loop
      vertex 21.765 47.993 0
      vertex 23.172 40.049 10
      vertex 21.765 47.993 10
    endloop
  endfacet
  facet normal -0.934924 -0.354849 0
    outer loop
      vertex 24.872 35.57 0
      vertex 24.872 35.57 10
      vertex 23.172 40.049 0
    endloop
  endfacet
  facet normal -0.934924 -0.354849 0
    outer loop
      vertex 23.172 40.049 0
      vertex 24.872 35.57 10
      vertex 23.172 40.049 10
    endloop
  endfacet
  facet normal -0.79279 -0.609494 0
    outer loop
      vertex 28.686 30.609 0
      vertex 28.686 30.609 10
      vertex 24.872 35.57 0
    endloop
  endfacet
  facet normal -0.79279 -0.609494 0
    outer loop
      vertex 24.872 35.57 0
      vertex 28.686 30.609 10
      vertex 24.872 35.57 10
    endloop
  endfacet
  facet normal -0.491644 -0.870796 0
    outer loop
      vertex 28.686 30.609 0
      vertex 34.035 27.589 0
      vertex 34.035 27.589 10
    endloop
  endfacet
  facet normal -0.491644 -0.870796 0
    outer loop
      vertex 28.686 30.609 10
      vertex 28.686 30.609 0
      vertex 34.035 27.589 10
    endloop
  endfacet
  facet normal -0.00129496 -0.999999 0
    outer loop
      vertex 34.035 27.589 0
      vertex 40.985 27.58 0
      vertex 40.985 27.58 10
    endloop
  endfacet
  facet normal -0.00129496 -0.999999 0
    outer loop
      vertex 34.035 27.589 10
      vertex 34.035 27.589 0
      vertex 40.985 27.58 10
    endloop
  endfacet
  facet normal 0.289001 -0.957329 0
    outer loop
      vertex 40.985 27.58 0
      vertex 45.712 29.007 0
      vertex 45.712 29.007 10
    endloop
  endfacet
  facet normal 0.289001 -0.957329 0
    outer loop
      vertex 40.985 27.58 10
      vertex 40.985 27.58 0
      vertex 45.712 29.007 10
    endloop
  endfacet
  facet normal 0.567281 -0.823524 0
    outer loop
      vertex 45.712 29.007 0
      vertex 49.845 31.854 0
      vertex 49.845 31.854 10
    endloop
  endfacet
  facet normal 0.567281 -0.823524 0
    outer loop
      vertex 45.712 29.007 10
      vertex 45.712 29.007 0
      vertex 49.845 31.854 10
    endloop
  endfacet
  facet normal 0.700912 -0.713247 0
    outer loop
      vertex 49.845 31.854 0
      vertex 56.726 38.616 0
      vertex 56.726 38.616 10
    endloop
  endfacet
  facet normal 0.700912 -0.713247 0
    outer loop
      vertex 49.845 31.854 10
      vertex 49.845 31.854 0
      vertex 56.726 38.616 10
    endloop
  endfacet
  facet normal 0.685459 -0.728112 0
    outer loop
      vertex 56.726 38.616 0
      vertex 61.318 42.939 0
      vertex 61.318 42.939 10
    endloop
  endfacet
  facet normal 0.685459 -0.728112 0
    outer loop
      vertex 56.726 38.616 10
      vertex 56.726 38.616 0
      vertex 61.318 42.939 10
    endloop
  endfacet
  facet normal 0.953702 -0.300752 0
    outer loop
      vertex 61.318 42.939 0
      vertex 66.176 58.344 0
      vertex 66.176 58.344 10
    endloop
  endfacet
  facet normal 0.953702 -0.300752 0
    outer loop
      vertex 61.318 42.939 10
      vertex 61.318 42.939 0
      vertex 66.176 58.344 10
    endloop
  endfacet
  facet normal 0.953702 -0.300752 0
    outer loop
      vertex 66.176 58.344 0
      vertex 71.034 73.749 0
      vertex 71.034 73.749 10
    endloop
  endfacet
  facet normal 0.953702 -0.300752 0
    outer loop
      vertex 66.176 58.344 10
      vertex 66.176 58.344 0
      vertex 71.034 73.749 10
    endloop
  endfacet
  facet normal 0.994512 -0.104623 0
    outer loop
      vertex 71.034 73.749 0
      vertex 71.827 81.287 0
      vertex 71.827 81.287 10
    endloop
  endfacet
  facet normal 0.994512 -0.104623 0
    outer loop
      vertex 71.034 73.749 10
      vertex 71.034 73.749 0
      vertex 71.827 81.287 10
    endloop
  endfacet
  facet normal 0.998988 -0.0449685 0
    outer loop
      vertex 71.827 81.287 0
      vertex 72.389 93.772 0
      vertex 72.389 93.772 10
    endloop
  endfacet
  facet normal 0.998988 -0.0449685 0
    outer loop
      vertex 71.827 81.287 10
      vertex 71.827 81.287 0
      vertex 72.389 93.772 10
    endloop
  endfacet
  facet normal 0.989153 0.146886 0
    outer loop
      vertex 71.426 100.257 0
      vertex 71.426 100.257 10
      vertex 72.389 93.772 10
    endloop
  endfacet
  facet normal 0.989153 0.146886 0
    outer loop
      vertex 72.389 93.772 0
      vertex 71.426 100.257 0
      vertex 72.389 93.772 10
    endloop
  endfacet
  facet normal 0.999888 -0.014988 0
    outer loop
      vertex 71.426 100.257 0
      vertex 71.52 106.528 0
      vertex 71.52 106.528 10
    endloop
  endfacet
  facet normal 0.999888 -0.014988 0
    outer loop
      vertex 71.426 100.257 10
      vertex 71.426 100.257 0
      vertex 71.52 106.528 10
    endloop
  endfacet
  facet normal 0.998792 0.0491446 0
    outer loop
      vertex 71.112 114.82 0
      vertex 71.112 114.82 10
      vertex 71.52 106.528 10
    endloop
  endfacet
  facet normal 0.998792 0.0491446 0
    outer loop
      vertex 71.52 106.528 0
      vertex 71.112 114.82 0
      vertex 71.52 106.528 10
    endloop
  endfacet
  facet normal 0.987214 0.159403 0
    outer loop
      vertex 69.818 122.834 0
      vertex 69.818 122.834 10
      vertex 71.112 114.82 10
    endloop
  endfacet
  facet normal 0.987214 0.159403 0
    outer loop
      vertex 71.112 114.82 0
      vertex 69.818 122.834 0
      vertex 71.112 114.82 10
    endloop
  endfacet
  facet normal 0.986933 0.161129 0
    outer loop
      vertex 68.627 130.129 0
      vertex 68.627 130.129 10
      vertex 69.818 122.834 10
    endloop
  endfacet
  facet normal 0.986933 0.161129 0
    outer loop
      vertex 69.818 122.834 0
      vertex 68.627 130.129 0
      vertex 69.818 122.834 10
    endloop
  endfacet
  facet normal 0.96489 0.262655 0
    outer loop
      vertex 66.752 137.017 0
      vertex 66.752 137.017 10
      vertex 68.627 130.129 10
    endloop
  endfacet
  facet normal 0.96489 0.262655 0
    outer loop
      vertex 68.627 130.129 0
      vertex 66.752 137.017 0
      vertex 68.627 130.129 10
    endloop
  endfacet
  facet normal 0.908531 0.417817 0
    outer loop
      vertex 64.574 141.753 0
      vertex 64.574 141.753 10
      vertex 66.752 137.017 10
    endloop
  endfacet
  facet normal 0.908531 0.417817 0
    outer loop
      vertex 66.752 137.017 0
      vertex 64.574 141.753 0
      vertex 66.752 137.017 10
    endloop
  endfacet
  facet normal 0.819774 0.572688 0
    outer loop
      vertex 61.795 145.731 0
      vertex 61.795 145.731 10
      vertex 64.574 141.753 10
    endloop
  endfacet
  facet normal 0.819774 0.572688 0
    outer loop
      vertex 64.574 141.753 0
      vertex 61.795 145.731 0
      vertex 64.574 141.753 10
    endloop
  endfacet
  facet normal 0.306782 0.95178 0
    outer loop
      vertex 56.133 147.556 10
      vertex 61.795 145.731 10
      vertex 56.133 147.556 0
    endloop
  endfacet
  facet normal 0.306782 0.95178 0
    outer loop
      vertex 56.133 147.556 0
      vertex 61.795 145.731 10
      vertex 61.795 145.731 0
    endloop
  endfacet
  facet normal -0.284819 0.958581 0
    outer loop
      vertex 50.95 146.016 10
      vertex 56.133 147.556 10
      vertex 50.95 146.016 0
    endloop
  endfacet
  facet normal -0.284819 0.958581 0
    outer loop
      vertex 50.95 146.016 0
      vertex 56.133 147.556 10
      vertex 56.133 147.556 0
    endloop
  endfacet
  facet normal -0.533926 0.845531 0
    outer loop
      vertex 45.713 142.709 10
      vertex 50.95 146.016 10
      vertex 45.713 142.709 0
    endloop
  endfacet
  facet normal -0.533926 0.845531 0
    outer loop
      vertex 45.713 142.709 0
      vertex 50.95 146.016 10
      vertex 50.95 146.016 0
    endloop
  endfacet
  facet normal -0.825387 0.564567 0
    outer loop
      vertex 42.596 138.152 10
      vertex 45.713 142.709 10
      vertex 42.596 138.152 0
    endloop
  endfacet
  facet normal -0.825387 0.564567 0
    outer loop
      vertex 42.596 138.152 0
      vertex 45.713 142.709 10
      vertex 45.713 142.709 0
    endloop
  endfacet
  facet normal -0.97531 0.220841 0
    outer loop
      vertex 41.018 131.183 10
      vertex 42.596 138.152 10
      vertex 41.018 131.183 0
    endloop
  endfacet
  facet normal -0.97531 0.220841 0
    outer loop
      vertex 41.018 131.183 0
      vertex 42.596 138.152 10
      vertex 42.596 138.152 0
    endloop
  endfacet
  facet normal -0.994006 0.109328 0
    outer loop
      vertex 40.398 125.546 10
      vertex 41.018 131.183 10
      vertex 40.398 125.546 0
    endloop
  endfacet
  facet normal -0.994006 0.109328 0
    outer loop
      vertex 40.398 125.546 0
      vertex 41.018 131.183 10
      vertex 41.018 131.183 0
    endloop
  endfacet
  facet normal -0.996445 0.0842406 0
    outer loop
      vertex 39.908 119.75 10
      vertex 40.398 125.546 10
      vertex 39.908 119.75 0
    endloop
  endfacet
  facet normal -0.996445 0.0842406 0
    outer loop
      vertex 39.908 119.75 0
      vertex 40.398 125.546 10
      vertex 40.398 125.546 0
    endloop
  endfacet
  facet normal -0.992805 0.119744 0
    outer loop
      vertex 39.403 115.563 10
      vertex 39.908 119.75 10
      vertex 39.403 115.563 0
    endloop
  endfacet
  facet normal -0.992805 0.119744 0
    outer loop
      vertex 39.403 115.563 0
      vertex 39.908 119.75 10
      vertex 39.908 119.75 0
    endloop
  endfacet
  facet normal -0.999079 0.0429008 0
    outer loop
      vertex 39.226 111.441 10
      vertex 39.403 115.563 10
      vertex 39.226 111.441 0
    endloop
  endfacet
  facet normal -0.999079 0.0429008 0
    outer loop
      vertex 39.226 111.441 0
      vertex 39.403 115.563 10
      vertex 39.403 115.563 0
    endloop
  endfacet
  facet normal -0.992227 -0.124442 0
    outer loop
      vertex 39.602 108.443 0
      vertex 39.602 108.443 10
      vertex 39.226 111.441 0
    endloop
  endfacet
  facet normal -0.992227 -0.124442 0
    outer loop
      vertex 39.226 111.441 0
      vertex 39.602 108.443 10
      vertex 39.226 111.441 10
    endloop
  endfacet
  facet normal -0.996619 -0.0821577 0
    outer loop
      vertex 39.939 104.355 0
      vertex 39.939 104.355 10
      vertex 39.602 108.443 0
    endloop
  endfacet
  facet normal -0.996619 -0.0821577 0
    outer loop
      vertex 39.602 108.443 0
      vertex 39.939 104.355 10
      vertex 39.602 108.443 10
    endloop
  endfacet
  facet normal -0.995898 -0.0904878 0
    outer loop
      vertex 40.279 100.613 0
      vertex 40.279 100.613 10
      vertex 39.939 104.355 0
    endloop
  endfacet
  facet normal -0.995898 -0.0904878 0
    outer loop
      vertex 39.939 104.355 0
      vertex 40.279 100.613 10
      vertex 39.939 104.355 10
    endloop
  endfacet
  facet normal -0.982064 -0.18855 0
    outer loop
      vertex 41.267 95.467 0
      vertex 41.267 95.467 10
      vertex 40.279 100.613 0
    endloop
  endfacet
  facet normal -0.982064 -0.18855 0
    outer loop
      vertex 40.279 100.613 0
      vertex 41.267 95.467 10
      vertex 40.279 100.613 10
    endloop
  endfacet
  facet normal -0.977728 -0.209876 0
    outer loop
      vertex 42.216 91.046 0
      vertex 42.216 91.046 10
      vertex 41.267 95.467 0
    endloop
  endfacet
  facet normal -0.977728 -0.209876 0
    outer loop
      vertex 41.267 95.467 0
      vertex 42.216 91.046 10
      vertex 41.267 95.467 10
    endloop
  endfacet
  facet normal -0.973704 -0.227816 0
    outer loop
      vertex 44.168 82.703 0
      vertex 44.168 82.703 10
      vertex 42.216 91.046 0
    endloop
  endfacet
  facet normal -0.973704 -0.227816 0
    outer loop
      vertex 42.216 91.046 0
      vertex 44.168 82.703 10
      vertex 42.216 91.046 10
    endloop
  endfacet
  facet normal -0.952385 -0.304897 0
    outer loop
      vertex 46.263 76.159 0
      vertex 46.263 76.159 10
      vertex 44.168 82.703 0
    endloop
  endfacet
  facet normal -0.952385 -0.304897 0
    outer loop
      vertex 44.168 82.703 0
      vertex 46.263 76.159 10
      vertex 44.168 82.703 10
    endloop
  endfacet
  facet normal -0.9459 -0.324458 0
    outer loop
      vertex 48.566 69.445 0
      vertex 48.566 69.445 10
      vertex 46.263 76.159 0
    endloop
  endfacet
  facet normal -0.9459 -0.324458 0
    outer loop
      vertex 46.263 76.159 0
      vertex 48.566 69.445 10
      vertex 46.263 76.159 10
    endloop
  endfacet
  facet normal -0.920817 -0.389995 0
    outer loop
      vertex 50.787 64.201 0
      vertex 50.787 64.201 10
      vertex 48.566 69.445 0
    endloop
  endfacet
  facet normal -0.920817 -0.389995 0
    outer loop
      vertex 48.566 69.445 0
      vertex 50.787 64.201 10
      vertex 48.566 69.445 10
    endloop
  endfacet
  facet normal -0.896014 -0.444026 0
    outer loop
      vertex 55.973 53.736 0
      vertex 55.973 53.736 10
      vertex 50.787 64.201 0
    endloop
  endfacet
  facet normal -0.896014 -0.444026 0
    outer loop
      vertex 50.787 64.201 0
      vertex 55.973 53.736 10
      vertex 50.787 64.201 10
    endloop
  endfacet
  facet normal -0.900245 -0.435384 0
    outer loop
      vertex 59.252 46.956 0
      vertex 59.252 46.956 10
      vertex 55.973 53.736 0
    endloop
  endfacet
  facet normal -0.900245 -0.435384 0
    outer loop
      vertex 55.973 53.736 0
      vertex 59.252 46.956 10
      vertex 55.973 53.736 10
    endloop
  endfacet
  facet normal -0.888621 0.458643 0
    outer loop
      vertex 58.5 45.499 10
      vertex 59.252 46.956 10
      vertex 58.5 45.499 0
    endloop
  endfacet
  facet normal -0.888621 0.458643 0
    outer loop
      vertex 58.5 45.499 0
      vertex 59.252 46.956 10
      vertex 59.252 46.956 0
    endloop
  endfacet
  facet normal -0.790841 0.612021 0
    outer loop
      vertex 56.224 42.558 10
      vertex 58.5 45.499 10
      vertex 56.224 42.558 0
    endloop
  endfacet
  facet normal -0.790841 0.612021 0
    outer loop
      vertex 56.224 42.558 0
      vertex 58.5 45.499 10
      vertex 58.5 45.499 0
    endloop
  endfacet
  facet normal -0.763248 0.646106 0
    outer loop
      vertex 50.918 36.29 10
      vertex 56.224 42.558 10
      vertex 50.918 36.29 0
    endloop
  endfacet
  facet normal -0.763248 0.646106 0
    outer loop
      vertex 50.918 36.29 0
      vertex 56.224 42.558 10
      vertex 56.224 42.558 0
    endloop
  endfacet
  facet normal -0.510482 0.859888 0
    outer loop
      vertex 44.955 32.75 10
      vertex 50.918 36.29 10
      vertex 44.955 32.75 0
    endloop
  endfacet
  facet normal -0.510482 0.859888 0
    outer loop
      vertex 44.955 32.75 0
      vertex 50.918 36.29 10
      vertex 50.918 36.29 0
    endloop
  endfacet
  facet normal -0.0786256 0.996904 0
    outer loop
      vertex 36.143 32.055 10
      vertex 44.955 32.75 10
      vertex 36.143 32.055 0
    endloop
  endfacet
  facet normal -0.0786256 0.996904 0
    outer loop
      vertex 36.143 32.055 0
      vertex 44.955 32.75 10
      vertex 44.955 32.75 0
    endloop
  endfacet
  facet normal 0.613785 0.789473 0
    outer loop
      vertex 29.106 37.526 10
      vertex 36.143 32.055 10
      vertex 29.106 37.526 0
    endloop
  endfacet
  facet normal 0.613785 0.789473 0
    outer loop
      vertex 29.106 37.526 0
      vertex 36.143 32.055 10
      vertex 36.143 32.055 0
    endloop
  endfacet
  facet normal 0.95496 0.296736 0
    outer loop
      vertex 26.998 44.31 0
      vertex 26.998 44.31 10
      vertex 29.106 37.526 10
    endloop
  endfacet
  facet normal 0.95496 0.296736 0
    outer loop
      vertex 29.106 37.526 0
      vertex 26.998 44.31 0
      vertex 29.106 37.526 10
    endloop
  endfacet
  facet normal 0.980888 0.194571 0
    outer loop
      vertex 25.908 49.805 0
      vertex 25.908 49.805 10
      vertex 26.998 44.31 10
    endloop
  endfacet
  facet normal 0.980888 0.194571 0
    outer loop
      vertex 26.998 44.31 0
      vertex 25.908 49.805 0
      vertex 26.998 44.31 10
    endloop
  endfacet
  facet normal 0.999989 -0.00466482 0
    outer loop
      vertex 25.908 49.805 0
      vertex 25.946 57.951 0
      vertex 25.946 57.951 10
    endloop
  endfacet
  facet normal 0.999989 -0.00466482 0
    outer loop
      vertex 25.908 49.805 10
      vertex 25.908 49.805 0
      vertex 25.946 57.951 10
    endloop
  endfacet
  facet normal 0.997945 -0.06408 0
    outer loop
      vertex 25.946 57.951 0
      vertex 26.375 64.632 0
      vertex 26.375 64.632 10
    endloop
  endfacet
  facet normal 0.997945 -0.06408 0
    outer loop
      vertex 25.946 57.951 10
      vertex 25.946 57.951 0
      vertex 26.375 64.632 10
    endloop
  endfacet
  facet normal 0.993638 -0.112624 0
    outer loop
      vertex 26.375 64.632 0
      vertex 27.604 75.475 0
      vertex 27.604 75.475 10
    endloop
  endfacet
  facet normal 0.993638 -0.112624 0
    outer loop
      vertex 26.375 64.632 10
      vertex 26.375 64.632 0
      vertex 27.604 75.475 10
    endloop
  endfacet
  facet normal 0.990343 -0.138641 0
    outer loop
      vertex 27.604 75.475 0
      vertex 28.777 83.854 0
      vertex 28.777 83.854 10
    endloop
  endfacet
  facet normal 0.990343 -0.138641 0
    outer loop
      vertex 27.604 75.475 10
      vertex 27.604 75.475 0
      vertex 28.777 83.854 10
    endloop
  endfacet
  facet normal 0.997925 -0.0643823 0
    outer loop
      vertex 28.777 83.854 0
      vertex 29.033 87.822 0
      vertex 29.033 87.822 10
    endloop
  endfacet
  facet normal 0.997925 -0.0643823 0
    outer loop
      vertex 28.777 83.854 10
      vertex 28.777 83.854 0
      vertex 29.033 87.822 10
    endloop
  endfacet
  facet normal 0.999945 0.0104875 0
    outer loop
      vertex 29.007 90.301 0
      vertex 29.007 90.301 10
      vertex 29.033 87.822 10
    endloop
  endfacet
  facet normal 0.999945 0.0104875 0
    outer loop
      vertex 29.033 87.822 0
      vertex 29.007 90.301 0
      vertex 29.033 87.822 10
    endloop
  endfacet
  facet normal 0.097333 0.995252 0
    outer loop
      vertex 24.467 90.745 10
      vertex 29.007 90.301 10
      vertex 24.467 90.745 0
    endloop
  endfacet
  facet normal 0.097333 0.995252 0
    outer loop
      vertex 24.467 90.745 0
      vertex 29.007 90.301 10
      vertex 29.007 90.301 0
    endloop
  endfacet
  facet normal 0.993725 0.111853 0
    outer loop
      vertex 46.906 130.081 0
      vertex 46.906 130.081 10
      vertex 47.994 120.415 10
    endloop
  endfacet
  facet normal 0.993725 0.111853 0
    outer loop
      vertex 47.994 120.415 0
      vertex 46.906 130.081 0
      vertex 47.994 120.415 10
    endloop
  endfacet
  facet normal 0.934892 -0.354932 0
    outer loop
      vertex 46.906 130.081 0
      vertex 48.906 135.349 0
      vertex 48.906 135.349 10
    endloop
  endfacet
  facet normal 0.934892 -0.354932 0
    outer loop
      vertex 46.906 130.081 10
      vertex 46.906 130.081 0
      vertex 48.906 135.349 10
    endloop
  endfacet
  facet normal 0.0428054 -0.999083 0
    outer loop
      vertex 48.906 135.349 0
      vertex 55.768 135.643 0
      vertex 55.768 135.643 10
    endloop
  endfacet
  facet normal 0.0428054 -0.999083 0
    outer loop
      vertex 48.906 135.349 10
      vertex 48.906 135.349 0
      vertex 55.768 135.643 10
    endloop
  endfacet
  facet normal -0.788973 -0.614428 0
    outer loop
      vertex 63.016 126.336 0
      vertex 63.016 126.336 10
      vertex 55.768 135.643 0
    endloop
  endfacet
  facet normal -0.788973 -0.614428 0
    outer loop
      vertex 55.768 135.643 0
      vertex 63.016 126.336 10
      vertex 55.768 135.643 10
    endloop
  endfacet
  facet normal -0.964382 -0.264514 0
    outer loop
      vertex 65.532 117.163 0
      vertex 65.532 117.163 10
      vertex 63.016 126.336 0
    endloop
  endfacet
  facet normal -0.964382 -0.264514 0
    outer loop
      vertex 63.016 126.336 0
      vertex 65.532 117.163 10
      vertex 63.016 126.336 10
    endloop
  endfacet
  facet normal -0.987021 -0.160594 0
    outer loop
      vertex 66.737 109.757 0
      vertex 66.737 109.757 10
      vertex 65.532 117.163 0
    endloop
  endfacet
  facet normal -0.987021 -0.160594 0
    outer loop
      vertex 65.532 117.163 0
      vertex 66.737 109.757 10
      vertex 65.532 117.163 10
    endloop
  endfacet
  facet normal -0.999782 -0.0208644 0
    outer loop
      vertex 66.859 103.911 0
      vertex 66.859 103.911 10
      vertex 66.737 109.757 0
    endloop
  endfacet
  facet normal -0.999782 -0.0208644 0
    outer loop
      vertex 66.737 109.757 0
      vertex 66.859 103.911 10
      vertex 66.737 109.757 10
    endloop
  endfacet
  facet normal -0.995828 -0.0912463 0
    outer loop
      vertex 67.901 92.539 0
      vertex 67.901 92.539 10
      vertex 66.859 103.911 0
    endloop
  endfacet
  facet normal -0.995828 -0.0912463 0
    outer loop
      vertex 66.859 103.911 0
      vertex 67.901 92.539 10
      vertex 66.859 103.911 10
    endloop
  endfacet
  facet normal -0.997381 -0.0723245 0
    outer loop
      vertex 68.545 83.658 0
      vertex 68.545 83.658 10
      vertex 67.901 92.539 0
    endloop
  endfacet
  facet normal -0.997381 -0.0723245 0
    outer loop
      vertex 67.901 92.539 0
      vertex 68.545 83.658 10
      vertex 67.901 92.539 10
    endloop
  endfacet
  facet normal -0.998462 0.0554411 0
    outer loop
      vertex 68.227 77.931 10
      vertex 68.545 83.658 10
      vertex 68.227 77.931 0
    endloop
  endfacet
  facet normal -0.998462 0.0554411 0
    outer loop
      vertex 68.227 77.931 0
      vertex 68.545 83.658 10
      vertex 68.545 83.658 0
    endloop
  endfacet
  facet normal 0.725222 0.688515 0
    outer loop
      vertex 66.145 80.124 0
      vertex 66.145 80.124 10
      vertex 68.227 77.931 10
    endloop
  endfacet
  facet normal 0.725222 0.688515 0
    outer loop
      vertex 68.227 77.931 0
      vertex 66.145 80.124 0
      vertex 68.227 77.931 10
    endloop
  endfacet
  facet normal 0.870518 0.492137 0
    outer loop
      vertex 61.875 87.677 0
      vertex 61.875 87.677 10
      vertex 66.145 80.124 10
    endloop
  endfacet
  facet normal 0.870518 0.492137 0
    outer loop
      vertex 66.145 80.124 0
      vertex 61.875 87.677 0
      vertex 66.145 80.124 10
    endloop
  endfacet
  facet normal 0.862172 0.506615 0
    outer loop
      vertex 58.377 93.63 0
      vertex 58.377 93.63 10
      vertex 61.875 87.677 10
    endloop
  endfacet
  facet normal 0.862172 0.506615 0
    outer loop
      vertex 61.875 87.677 0
      vertex 58.377 93.63 0
      vertex 61.875 87.677 10
    endloop
  endfacet
  facet normal 0.892414 0.451217 0
    outer loop
      vertex 54.144 102.002 0
      vertex 54.144 102.002 10
      vertex 58.377 93.63 10
    endloop
  endfacet
  facet normal 0.892414 0.451217 0
    outer loop
      vertex 58.377 93.63 0
      vertex 54.144 102.002 0
      vertex 58.377 93.63 10
    endloop
  endfacet
  facet normal 0.943806 0.330499 0
    outer loop
      vertex 50.97 111.066 0
      vertex 50.97 111.066 10
      vertex 54.144 102.002 10
    endloop
  endfacet
  facet normal 0.943806 0.330499 0
    outer loop
      vertex 54.144 102.002 0
      vertex 50.97 111.066 0
      vertex 54.144 102.002 10
    endloop
  endfacet
  facet normal 0.952887 0.303326 0
    outer loop
      vertex 47.994 120.415 0
      vertex 47.994 120.415 10
      vertex 50.97 111.066 10
    endloop
  endfacet
  facet normal 0.952887 0.303326 0
    outer loop
      vertex 50.97 111.066 0
      vertex 47.994 120.415 0
      vertex 50.97 111.066 10
    endloop
  endfacet
endsolid OpenSCAD_Model
