<?xml version="1.0" encoding="UTF-8" standalone="no"?>
<!-- Created with Inkscape (http://www.inkscape.org/) -->

<svg
   xmlns:dc="http://purl.org/dc/elements/1.1/"
   xmlns:cc="http://creativecommons.org/ns#"
   xmlns:rdf="http://www.w3.org/1999/02/22-rdf-syntax-ns#"
   xmlns:svg="http://www.w3.org/2000/svg"
   xmlns="http://www.w3.org/2000/svg"
   xmlns:sodipodi="http://sodipodi.sourceforge.net/DTD/sodipodi-0.dtd"
   xmlns:inkscape="http://www.inkscape.org/namespaces/inkscape"
   width="301.18109"
   height="602.36218"
   id="svg2"
   version="1.1"
   inkscape:version="0.48.4 r9939"
   sodipodi:docname="Letters.dxf">
  <defs
     id="defs4" />
  <sodipodi:namedview
     id="base"
     pagecolor="#ffffff"
     bordercolor="#666666"
     borderopacity="1.0"
     inkscape:pageopacity="0.0"
     inkscape:pageshadow="2"
     inkscape:zoom="1.5099346"
     inkscape:cx="218.56244"
     inkscape:cy="254.17271"
     inkscape:document-units="mm"
     inkscape:current-layer="layer9"
     showgrid="false"
     showguides="true"
     inkscape:guide-bbox="true"
     units="mm"
     inkscape:window-width="1205"
     inkscape:window-height="697"
     inkscape:window-x="67"
     inkscape:window-y="-8"
     inkscape:window-maximized="1" />
  <metadata
     id="metadata7">
    <rdf:RDF>
      <cc:Work
         rdf:about="">
        <dc:format>image/svg+xml</dc:format>
        <dc:type
           rdf:resource="http://purl.org/dc/dcmitype/StillImage" />
        <dc:title></dc:title>
      </cc:Work>
    </rdf:RDF>
  </metadata>
  <g
     inkscape:label="Scratch"
     inkscape:groupmode="layer"
     id="layer1"
     transform="translate(0,-449.99999)"
     style="display:none">
    <text
       xml:space="preserve"
       style="font-size:40px;font-style:normal;font-weight:normal;line-height:125%;letter-spacing:0px;word-spacing:0px;fill:#000000;fill-opacity:1;stroke:none;font-family:Sans"
       x="243.94502"
       y="97.0709"
       id="text2985"
       sodipodi:linespacing="125%"><tspan
         sodipodi:role="line"
         id="tspan2987"
         x="243.94502"
         y="97.0709"
         style="font-size:88px;font-style:normal;font-variant:normal;font-weight:normal;font-stretch:normal;font-family:ANGEL TEARS;-inkscape-font-specification:ANGEL TEARS">Freedom</tspan></text>
    <text
       xml:space="preserve"
       style="font-size:40px;font-style:normal;font-weight:normal;line-height:125%;letter-spacing:0px;word-spacing:0px;fill:#000000;fill-opacity:1;stroke:none;font-family:Sans"
       x="251.40468"
       y="171.95285"
       id="text3046"
       sodipodi:linespacing="125%"><tspan
         sodipodi:role="line"
         id="tspan3048"
         x="251.40468"
         y="171.95285"
         style="font-size:88px;font-style:normal;font-variant:normal;font-weight:normal;font-stretch:normal;font-family:ANGEL TEARS;-inkscape-font-specification:ANGEL TEARS">Beauty</tspan></text>
    <text
       xml:space="preserve"
       style="font-size:40px;font-style:normal;font-weight:normal;line-height:125%;letter-spacing:0px;word-spacing:0px;fill:#000000;fill-opacity:1;stroke:none;font-family:Sans"
       x="267.17908"
       y="253.78262"
       id="text3050"
       sodipodi:linespacing="125%"><tspan
         sodipodi:role="line"
         id="tspan3052"
         x="267.17908"
         y="253.78262"
         style="font-size:88px;font-style:normal;font-variant:normal;font-weight:normal;font-stretch:normal;font-family:ANGEL TEARS;-inkscape-font-specification:ANGEL TEARS">Truth</tspan></text>
    <text
       xml:space="preserve"
       style="font-size:40px;font-style:normal;font-weight:normal;line-height:125%;letter-spacing:0px;word-spacing:0px;fill:#000000;fill-opacity:1;stroke:none;font-family:Sans"
       x="87.745155"
       y="369.133"
       id="text3054"
       sodipodi:linespacing="125%"><tspan
         sodipodi:role="line"
         id="tspan3056"
         x="87.745155"
         y="369.133"
         style="font-size:88px;font-style:normal;font-variant:normal;font-weight:normal;font-stretch:normal;font-family:ANGEL TEARS;-inkscape-font-specification:ANGEL TEARS">Love</tspan></text>
    <flowRoot
       xml:space="preserve"
       id="flowRoot3088"
       style="font-size:40px;font-style:normal;font-weight:normal;line-height:125%;letter-spacing:0px;word-spacing:0px;fill:#000000;fill-opacity:1;stroke:none;font-family:Sans"><flowRegion
         id="flowRegion3090"><rect
           id="rect3092"
           width="239.57387"
           height="90.702866"
           x="-91.688766"
           y="234.06461" /></flowRegion><flowPara
         id="flowPara3094" /></flowRoot>    <text
       xml:space="preserve"
       style="font-size:40px;font-style:normal;font-weight:normal;line-height:125%;letter-spacing:0px;word-spacing:0px;fill:#000000;fill-opacity:1;stroke:none;font-family:Sans"
       x="392.04205"
       y="1143.1531"
       id="text3054-2"
       sodipodi:linespacing="125%"><tspan
         sodipodi:role="line"
         id="tspan3056-82"
         x="392.04205"
         y="1143.1531"
         style="font-size:1100px;font-style:normal;font-variant:normal;font-weight:normal;font-stretch:normal;font-family:ANGEL TEARS;-inkscape-font-specification:ANGEL TEARS">v</tspan></text>
  </g>
  <g
     inkscape:groupmode="layer"
     id="layer5"
     inkscape:label="E"
     style="display:none">
    <g
       transform="scale(0.99999672,1.0000033)"
       style="font-size:39.9998703px;font-style:normal;font-weight:normal;line-height:125%;letter-spacing:0px;word-spacing:0px;fill:#000000;fill-opacity:1;stroke:none;font-family:Sans"
       id="text3054-2-10">
      <path
         style="font-size:1099.99645996px;font-variant:normal;font-stretch:normal;font-family:ANGEL TEARS;-inkscape-font-specification:ANGEL TEARS"
         d="m 225.51807,494.56941 -3.27694,4.66035 -2.54113,4.97351 -3.03865,5.04039 -4.76953,4.861 -11.32574,11.45399 -11.6753,10.75043 -11.46926,10.13425 -10.70765,9.60541 -6.61103,6.12179 -7.24061,6.16164 -9.22863,6.50997 -7.80718,4.70257 -6.86475,3.14009 -11.96157,4.96356 -13.04927,4.72239 -12.511849,3.64871 -8.517158,2.30197 -8.719103,1.84531 -8.842522,1.16618 -8.88741,0.26452 -9.514286,-1.06906 -8.702206,-3.72782 -8.486404,-4.5149 -8.866885,-3.43031 L 12.649981,578.7662 7.1253321,566.96797 3.5839848,554.23848 1.2808629,541.35555 2.2469851,529.37824 4.2176336,517.4963 l 2.8310472,-11.72748 3.5473182,-11.51395 4.808403,-8.23738 4.470907,-8.409 4.080983,-8.59448 3.638631,-8.79384 5.906647,-8.67779 6.84593,-7.97558 6.883673,-7.94948 6.019882,-8.59946 6.359449,-6.12454 6.40741,-6.0836 6.575684,-5.94863 6.864271,-5.71964 7.574596,-5.15184 8.130242,-4.16343 8.487793,-3.40607 8.64723,-2.87979 15.03635,-4.74639 15.65934,-1.26009 15.8814,0.76475 15.70255,1.3281 6.7942,2.60564 6.48122,3.46377 6.01973,4.19712 5.4097,4.8057 2.17016,3.60805 2.14937,3.62355 2.151,3.62403 2.17505,3.60948 -2.24535,7.7829 -1.66746,7.95629 -2.17401,7.77067 -3.76501,7.22602 -3.80708,6.08229 -4.60531,5.47612 -5.0864,5.09502 -5.25036,4.93897 -20.29745,15.27863 -21.67466,13.9366 -22.09122,12.03238 -14.75097,6.92424 -6.371606,2.53861 -8.58876,3.70452 -7.759672,3.95673 -7.282438,4.61614 -6.369189,5.32399 -3.080574,6.70744 -0.861011,9.31451 0.289497,13.14518 3.807517,6.26332 4.453047,5.77773 5.487989,4.38362 6.912341,2.08096 19.624189,-4.14833 18.13707,-6.40789 16.68017,-8.40233 15.25352,-10.13165 12.60045,-9.51004 12.34354,-10.07036 11.65012,-10.43708 10.52019,-10.6102 5.30746,-6.04928 5.61201,-5.76019 6.27224,-4.43995 7.28818,-2.08856 1.62894,-0.40485 1.02463,-0.48037 0.46766,0.24933 -0.042,1.78425 z m -119.90928,98.99565 z m -28.600981,7.68735 z m 110.006361,-195.8093 -16.56928,-0.94412 -16.40791,6.31573 -14.38593,10.06375 -10.50338,10.29992 -13.19342,15.26104 -6.90601,7.31152 -6.1741,8.03011 -9.831033,13.45609 -9.188505,12.74163 -7.407085,12.90023 -6.258572,12.61801 4.80405,2.2458 10.16933,-6.13612 14.327379,-6.26686 13.927916,-7.45859 14.25155,-7.96236 13.07524,-9.663 13.12102,-10.41748 12.4847,-11.19497 11.19403,-12.07526 7.61284,-14.7683 3.32906,-11.91487 z"
         id="path3273"
         inkscape:connector-curvature="0"
         sodipodi:nodetypes="cccccccccccccccccccccccccccccccccccccccccccccccccccccccccccccccccccccccccccccccccccccccccccccccccccccccccccccccccccccccccccccccccc" />
    </g>
  </g>
  <g
     inkscape:groupmode="layer"
     id="layer4"
     inkscape:label="V"
     style="display:none">
    <g
       style="font-size:40px;font-style:normal;font-weight:normal;line-height:125%;letter-spacing:0px;word-spacing:0px;fill:#000000;fill-opacity:1;stroke:none;font-family:Sans"
       id="text3054-2-1">
      <path
         style="font-size:1100px;font-variant:normal;font-stretch:normal;fill:#000000;font-family:ANGEL TEARS;-inkscape-font-specification:ANGEL TEARS"
         d="m 292.59033,364.75842 -0.13516,6.36157 -0.64995,6.13657 -2.36136,6.85732 -2.95947,5.38686 -2.51866,4.80096 -3.86713,8.47454 -4.01352,9.13742 -4.11276,8.35812 -5.34877,7.91689 -5.28354,7.43262 -4.89684,7.22704 -4.18863,7.30014 -3.38843,5.19993 -3.7404,4.90233 -3.75136,4.90737 -3.42133,5.21506 -5.94294,7.476 -5.90643,8.17369 -4.02585,8.70578 -0.30119,9.07228 2.30072,2.04296 2.21211,1.69726 1.99063,1.64032 1.63631,1.87214 6.98036,2.64905 7.17241,2.05983 7.2581,0.4529 7.23742,-2.17174 5.96318,-2.00937 4.31644,0.71956 1.36363,3.36963 -2.8953,5.94088 -5.4055,7.76858 -7.65074,4.8557 -8.9556,2.5171 -9.32005,0.75277 -11.67033,-0.17368 -11.81037,-1.30995 -10.87226,-3.78842 -8.856,-7.60911 -6.1729,3.01779 -6.10218,6.71428 -6.35538,7.69138 -6.93245,5.94906 -6.52971,4.90063 -6.52041,5.32246 -6.63292,5.41209 -6.86723,5.16949 -11.18756,6.78598 -11.35187,6.54353 -11.30292,6.61641 -11.040674,7.00463 -11.948821,3.40171 -12.22355,1.90072 -12.371343,0.51431 -12.392202,-0.75755 -7.634869,0.10974 -7.506653,-1.25937 -7.45436,-1.59808 -7.477989,-0.90644 -5.549253,-5.26342 -4.852754,-6.05958 -3.6355998,-7.34584 -1.6203841,-5.82261 -0.54619464,-2.46313 -0.63307219,-3.50244 0.66679847,-6.21456 1.62025646,-6.98331 3.1969683,-8.92614 6.1899495,-15.84418 7.81065,-17.41698 5.898135,-11.54749 3.23951,-6.19703 4.778238,-10.29461 4.845163,-11.96406 3.351051,-8.97944 1.877087,-6.18298 2.683192,-10.27992 2.007783,-10.58139 0.635017,-9.38283 -0.848088,-4.12416 -3.569215,-2.38418 -3.916637,-2.11525 -1.890352,-3.31737 2.998201,-7.11066 7.478331,-3.66444 9.169613,-1.77849 8.072045,-1.45278 17.044948,-1.69181 17.069064,-1.52496 17.045,-1.6794 16.97275,-2.15515 5.51265,-0.19063 5.11629,-0.57684 5.19359,-0.0567 5.74455,1.36989 3.38136,7.08185 -3.36513,8.55535 -5.88858,8.96933 -4.18902,8.32382 -15.18393,26.48179 -14.30444,27.14234 -11.36043,28.26434 -6.351851,29.8478 0.408286,7.58015 3.016315,5.16933 7.48761,1.68518 8.11064,-1.08565 5.36447,-1.91327 7.35188,-3.15594 7.79908,-4.56613 6.10982,-4.26358 5.14257,-3.86362 8.81868,-6.74538 9.05382,-7.55932 7.57403,-7.69225 5.6869,-7.78093 1.71597,-8.35915 0.003,-11.14625 0.0379,-9.85797 1.04293,-8.99558 2.29935,-15.50583 3.84873,-18.29199 3.62522,-13.63919 2.40711,-7.90524 4.0696,-12.05106 5.35636,-11.55677 7.42788,-9.85092 6.8217,-7.69606 6.87538,-7.46776 6.93126,-6.8093 6.98934,-5.7207 7.20716,-4.83509 8.70309,-2.50243 8.55314,-0.87785 6.75729,0.0386 7.26722,3.95858 6.14384,5.29385 4.77198,6.51976 z"
         id="path3269"
         inkscape:connector-curvature="0"
         sodipodi:nodetypes="ccccccccccccccccccccccccccccccccccccccccccccccccccccccccccccccccccccccccccccccccccccccccccccccccccccccccccccccccccccccccccccccccccccccccccccc" />
    </g>
  </g>
  <g
     inkscape:groupmode="layer"
     id="layer3"
     inkscape:label="O"
     style="display:none">
    <g
       style="font-size:40px;font-style:normal;font-weight:normal;line-height:125%;letter-spacing:0px;word-spacing:0px;fill:#000000;fill-opacity:1;stroke:none;font-family:Sans"
       id="text3054-5-20">
      <path
         style="font-size:1100px;font-variant:normal;font-stretch:normal;font-family:ANGEL TEARS;-inkscape-font-specification:ANGEL TEARS"
         d="m 170.49866,506.68958 -11.48354,-10.27904 -7.30307,-13.46675 -4.00532,-15.15544 -1.59031,-15.34512 1.88924,-10.09256 3.87855,-9.48581 4.62671,-9.25008 4.13369,-9.3854 -7.01255,2.80583 -7.76485,6.60152 -7.79348,8.06111 -7.09845,7.18462 -7.28443,8.08281 -7.65794,7.73046 -7.18322,8.08845 -5.86028,9.15675 -6.553559,10.22652 -5.945982,10.02313 -5.885741,11.096 -6.372837,13.4451 -5.54989,10.34589 -2.901775,11.31954 -0.833156,11.75996 0.655967,11.66714 7.207019,8.50417 10.310673,2.87423 11.440514,-1.09043 10.596537,-3.3898 16.01292,-8.44717 14.22305,-11.13184 13.01896,-12.68688 12.40066,-13.11228 4.37117,-3.71041 3.91358,-4.20031 1.19268,-4.40861 z m 114.40429,-17.62391 -12.92522,8.81809 -12.6764,9.39494 -13.38096,7.95513 -15.03887,4.49864 -11.19027,1.83152 -11.35147,0.7046 -11.31704,0.72152 -11.08695,1.88229 -8.04991,6.47874 -7.09312,7.58126 -7.11265,7.60399 -8.1085,6.54694 -9.12511,8.36947 -9.41111,8.0555 -9.95655,7.3017 -10.76141,6.10811 -11.25726,6.35633 -11.714686,5.79199 -12.218651,4.14913 -12.769151,1.42778 -14.472443,0.58886 -14.291751,-2.43983 -12.9974,-5.9502 -10.589392,-9.94226 -7.2671853,-9.35655 -4.4465872,-10.71527 -1.6635213,-11.52303 1.0820125,-11.77986 2.3601551,-10.45996 3.6645414,-10.12813 4.2226898,-9.97245 4.034601,-9.99292 4.899388,-10.06643 5.696383,-9.62024 6.02857,-9.42167 5.89595,-9.4707 9.356531,-10.23054 9.318776,-10.30246 9.648628,-9.96097 10.346093,-9.2061 8.069231,-5.57527 8.234173,-5.35012 8.431045,-5.07505 8.65985,-4.75009 11.91025,-4.9294 12.31773,-3.78359 12.49404,-3.24438 12.43918,-3.31182 10.49826,-1.21686 10.42093,-1.68938 10.39051,-1.87305 10.40703,-1.76786 11.0144,-1.41923 11.1844,-0.56734 10.91889,1.46402 10.21788,4.67484 7.83878,8.1222 2.86402,10.40608 -0.74247,11.27672 -2.9807,10.73409 -5.53956,15.37929 -8.16916,14.12272 -9.53854,13.39742 -9.64772,13.20334 -4.83824,7.46358 -6.28578,7.45183 -5.32398,7.2213 -1.95288,6.77202 14.273,-0.98161 14.51656,-3.19381 14.0388,-5.65904 8.94791,-5.19218 4.89156,-3.82124 7.85334,-5.475 7.88025,-4.11778 6.91816,-1.3421 -1.62953,5.12421 0.15242,3.13359 1.668,1.75963 z"
         id="path3263"
         inkscape:connector-curvature="0"
         sodipodi:nodetypes="cccccccccccccccccccccccccccccccccccccccccccccccccccccccccccccccccccccccccccccccccccccccccccccccccccccccccccccccccccccc" />
    </g>
  </g>
  <g
     inkscape:groupmode="layer"
     id="layer2"
     inkscape:label="L1"
     style="display:none">
    <g
       transform="matrix(0.73492867,-0.67814442,0.67814442,0.73492867,0,0)"
       style="font-size:40px;font-style:normal;font-weight:normal;line-height:125%;letter-spacing:0px;word-spacing:0px;fill:#000000;fill-opacity:1;stroke:none;font-family:Sans"
       id="text3054-5-2">
      <path
         style="font-size:1100px;font-variant:normal;font-stretch:normal;font-family:ANGEL TEARS;-inkscape-font-specification:ANGEL TEARS"
         d="m -147.20517,220.25337 -0.41837,12.28002 -1.85539,19.88587 -1.03464,29.06354 -0.21893,31.42492 -0.92271,29.34295 0.6738,28.88008 -0.74892,22.68987 -1.183,22.58772 -1.2351,18.62121 -5.80102,15.87321 21.32611,-18.64527 19.64831,-19.81489 11.32424,-6.60887 8.823447,-5.57777 20.844447,-8.8206 20.656663,-9.37206 19.561205,-5.29907 19.426485,-5.89293 11.2374302,-4.50223 11.8536901,-5.30744 14.3945397,-6.98469 14.23413,-9.5311 17.819661,-15.13871 13.652249,-18.98166 6.585385,-30.53713 -13.297865,-27.72365 -17.309205,-6.71124 -18.748935,-1.16766 -24.8982149,22.80373 -16.6199551,28.72262 4.754066,-24.66608 5.5618543,-25.16328 12.5509237,-26.2083 22.899896,-20.49451 22.164588,-0.71676 20.164772,9.88745 16.464311,22.91709 8.427514,28.484 0.775722,31.93513 -10.523191,23.31586 -10.354239,15.58845 -12.301197,16.39488 -12.012431,11.36809 -12.000709,10.46769 -9.022822,7.30675 -12.682078,8.92919 -27.447467,18.71334 -23.831823,16.15903 -25.445952,12.67508 -23.288098,12.82816 -17.151997,9.40224 -20.40433,14.89118 -20.81201,14.90106 -19.1525,16.45366 -19.45259,24.1308 -17.09478,27.91722 -9.02899,15.25075 -0.80863,-4.13281 -8.28654,10.8871 -3.97403,-3.44326 1.62681,-15.35026 1.88332,-15.60895 -0.28998,-39.93759 -0.84607,-40.03931 -0.24177,-37.35447 -0.0641,-37.3781 -2.05715,-22.94367 -1.39709,-23.34859 -6.39346,-24.98437 -1.95041,-16.04637 41.63655,-39.27314 z"
         id="path3009"
         inkscape:connector-curvature="0"
         sodipodi:nodetypes="ccccccccccccccccccccccccccccccccccccccccccccccccccccccccccccccccccccccccc" />
    </g>
  </g>
  <g
     inkscape:groupmode="layer"
     id="layer7"
     inkscape:label="L2"
     style="display:none">
    <g
       transform="matrix(0.42478297,-0.90529522,0.90529522,0.42478297,-40.969359,179.36187)"
       style="font-size:40px;font-style:normal;font-weight:normal;line-height:125%;letter-spacing:0px;word-spacing:0px;fill:#000000;fill-opacity:1;stroke:none;display:inline;font-family:Sans"
       id="text3054-5-2-6">
      <path
         style="font-size:1100px;font-variant:normal;font-stretch:normal;font-family:ANGEL TEARS;-inkscape-font-specification:ANGEL TEARS"
         d="m 194.93861,195.64905 -8.57804,14.90268 -11.91228,14.11531 -19.27321,16.3821 -21.6083,14.79893 -23.75712,16.2146 -25.985548,13.78718 -20.256878,9.13984 -19.354938,12.84808 -40.8934919,16.98925 -25.3704051,8.80268 -56.72885,7.60333 -56.728849,7.60333 -20.77723,-8.22442 -32.04877,-11.89404 -15.3506,-8.97307 -11.69348,-13.01485 -10.43359,-22.30795 1.63842,-21.70145 10.17155,-19.7024 11.80954,-12.1953 23.36444,-16.46979 25.33464,-15.97618 12.90923,-8.071 16.11778,-9.18578 10.63226,-6.06343 16.231564,-7.47133 13.599575,-4.96877 22.640705,-8.79494 23.739298,4.84959 5.407116,15.23363 -7.913067,3.81387 -13.111906,5.15272 -28.644755,8.84656 -36.62933,12.37785 -22.07803,8.67994 -26.18732,12.14035 -15.98449,11.76802 -18.59007,16.97298 -6.95669,30.80556 15.49168,27.21899 20.33234,13.80093 28.09132,7.5871 12.85951,2.87211 5.8051,0.22028 16.81446,-20.7221 25.763744,-32.38647 13.477656,-15.01697 18.071029,-17.49578 17.836226,-16.56846 23.8258304,-18.81919 12.7528779,-9.69693 15.0175337,-10.91498 11.494364,-6.72237 12.605818,-7.23389 9.049638,-5.72069 13.490791,-5.63433 14.188658,-4.68303 19.330205,-7.15371 19.016919,-6.49347 24.72963,-5.42667 19.3086,3.13738 18.48887,11.82433 12.74242,14.30741 z m -41.43175,-4.14908 -11.27051,-21.56768 -19.90821,1.51327 -29.369293,18.03727 -25.508357,23.62043 -24.297542,23.8221 -20.484637,26.18113 -13.8304127,20.17932 -17.8000153,25.06325 -3.901689,9.98296 18.849498,-7.60071 27.520721,-15.43287 34.909374,-20.45933 18.567573,-9.19085 21.94265,-15.01264 25.63902,-21.87574 z"
         id="path3009-8"
         inkscape:connector-curvature="0"
         sodipodi:nodetypes="cccccccccccccccccccccccccccccccccccccccccccccccccccccccccccccccccccccccccccccccccc" />
    </g>
  </g>
  <g
     inkscape:groupmode="layer"
     id="layer6"
     inkscape:label="R"
     style="display:none">
    <g
       style="font-size:1100px;font-style:normal;font-variant:normal;font-weight:normal;font-stretch:normal;line-height:125%;letter-spacing:0px;word-spacing:0px;fill:#000000;fill-opacity:1;stroke:none;font-family:ANGEL TEARS;-inkscape-font-specification:ANGEL TEARS"
       id="text3012"
       transform="translate(-60.236218,192.51968)">
      <path
         d="m 339.53831,288.16388 -8.73507,6.42054 -9.56244,10.05372 -13.59847,14.18725 -15.45577,17.00179 -5.5462,5.58878 -1.53487,3.11934 -10.38093,8.72083 -11.36878,10.65517 -17.15576,11.01515 -17.74265,10.05139 -3.73781,2.96559 -5.96829,1.55708 -12.49162,3.29381 -13.65962,0.97875 -14.24837,-1.42581 -13.70959,-4.07962 -4.93694,-1.66813 -4.30771,-4.28672 -8.6217,-16.08554 1.15522,-19.23013 7.4995,-28.23497 12.95469,-26.13314 8.74255,-15.3549 8.42808,-15.5293 6.93231,-8.53494 3.93571,-4.8486 6.07959,-8.32358 -4.98332,-2.93059 -10.92747,1.13453 -10.93977,0.40748 -12.29016,3.30134 -6.64191,7.91562 -7.53024,10.90708 -6.53635,10.87462 -4.21617,3.40353 -4.57899,3.89511 -4.22903,3.3539 -5.99547,2.14468 -6.85639,2.75255 -6.0316,3.16513 -4.26485,1.57392 -4.12479,-0.48292 -9.30028,-2.5673 -1.220739,-7.82045 15.267229,-4.42521 11.69744,-14.00407 8.28569,-9.48445 -0.35569,-8.55336 -11.40818,-11.2412 -2.37704,-16.69644 4.48056,-16.01697 7.94746,-14.45094 3.83011,-5.7353 4.64715,-4.77632 6.02009,-6.92838 6.63554,-6.25596 16.62587,-2.79418 14.23483,4.82086 11.3321,4.78573 4.56297,12.28846 2.50439,10.27412 4.08994,7.19855 8.24127,-1.66168 8.24127,-1.66168 15.63301,-5.58637 16.09301,-6.05742 16.03222,-4.61569 15.69738,-5.52062 12.72702,-3.66487 11.83601,0.99834 7.69403,3.85033 3.31687,7.40355 -4.06518,15.75875 -8.84762,13.96394 -5.48716,11.26984 -8.01911,10.70425 -8.38691,11.14079 -8.09564,9.7729 -4.13122,8.90083 -4.69751,8.6895 -5.90852,8.57018 -6.15027,10.7674 -8.51676,14.695 -2.52015,4.47145 -9.58619,21.75642 -4.71435,23.36077 9.40035,-1.63834 8.79345,-4.24794 22.25208,-17.03044 21.73848,-17.72326 20.89327,-16.49488 21.73887,-15.32238 4.28972,1.77563 z"
         id="path3017"
         inkscape:connector-curvature="0"
         sodipodi:nodetypes="ccccccccccccccccccccccccccccccccccccccccccccccccccccccccccccccccccccccccccccccccccccccccccccccc" />
    </g>
  </g>
  <g
     inkscape:groupmode="layer"
     id="layer8"
     inkscape:label="U"
     style="display:none">
    <g
       transform="matrix(-4.5517492e-4,-0.9999999,0.9999999,-4.5517492e-4,0,0)"
       style="font-size:1100px;font-style:normal;font-variant:normal;font-weight:normal;font-stretch:normal;line-height:125%;letter-spacing:0px;word-spacing:0px;fill:#000000;fill-opacity:1;stroke:none;font-family:ANGEL TEARS;-inkscape-font-specification:ANGEL TEARS"
       id="text3021">
      <path
         d="m -240.01624,146.68661 -3.85208,4.40598 -3.85208,4.40598 -3.85208,4.40597 -3.85208,4.40598 -3.94288,3.94664 -4.10736,5.30093 -4.20288,5.62861 -4.22942,4.92972 -14.00761,16.69932 -16.38995,16.55797 -16.86805,14.49842 -15.44191,10.52066 -11.79146,8.1514 -7.10536,4.29587 -7.00602,2.47821 -11.4934,2.69842 -4.95148,1.0994 -4.95147,1.09939 -4.95148,1.0994 -4.95148,1.0994 -1.29881,-0.55384 -1.71416,-0.55388 -2.12953,-0.55391 -2.54488,-0.55395 -2.89125,-0.62097 -3.16814,-0.75529 -3.44502,-0.88961 -3.72191,-1.02392 -4.5802,-2.75839 -4.58738,-3.26396 -4.39013,-3.72268 -3.98844,-4.13454 -2.82075,-3.65514 -2.30342,-3.87368 -1.67422,-4.0666 -0.93317,-4.23388 0.20554,-2.33719 0.61682,-2.61418 1.02808,-2.89119 1.43936,-3.16818 -4.01685,2.78738 -4.36298,2.85657 -4.70913,2.92575 -5.05527,2.99494 -25.00122,13.46623 -15.55123,6.6228 -13.28915,2.21374 -18.21498,0.23904 -1.37634,0 -1.37634,0 -1.37635,0 -1.37634,0 -0.88331,-0.62097 -1.57567,-0.7553 -2.26802,-0.8896 -2.96038,-1.02393 -1.09939,-0.82245 -1.0994,-0.82245 -1.09939,-0.82244 -1.0994,-0.82245 -0.41333,-0.13841 -1.23998,-0.4154 -2.06661,-0.69239 -2.89324,-0.96938 -1.22948,-2.0613 -1.50643,-1.78649 -1.78337,-1.51169 -2.06031,-1.23689 -1.85681,-1.23675 -1.17282,-1.51165 -0.48886,-1.78654 0.19513,-2.06144 -0.20562,-2.33719 -0.61684,-2.61419 -1.02806,-2.89118 -1.43928,-3.16818 -0.45004,-2.19871 -0.24233,-2.19877 -0.0346,-2.19882 0.17309,-2.19887 0.65384,-6.92057 1.18061,-5.65428 1.77401,-5.41773 2.43402,-6.21091 1.10044,-2.81972 1.10254,-2.95407 1.10464,-3.08841 1.10674,-3.22276 2.19878,-3.64846 2.19879,-4.3325 2.1988,-5.01656 2.1988,-5.7006 0.89377,-1.72031 2.68135,-5.16124 4.46892,-8.60219 6.2565,-12.04312 5.57243,-10.6526 5.33121,-13.80265 5.37637,-13.399821 5.7079,-9.444118 0.5539,-1.644898 0.55389,-1.644897 0.5539,-1.644898 0.55389,-1.644897 0.82245,-2.198792 0.82245,-2.198791 0.82244,-2.198792 0.82245,-2.198791 0,-1.65329 0,-1.65329 0,-1.65329 0,-1.65329 -4.87177,-0.06907 -3.63809,-0.207653 -2.4044,-0.34624 -1.1707,-0.484829 -0.55389,-0.822449 -0.55389,-0.822449 -0.5539,-0.822448 -0.55389,-0.822449 3.71987,-1.43911 3.43875,-1.028003 3.15762,-0.616894 2.87651,-0.205787 15.18283,-2.697795 12.49793,-2.899225 12.68954,-4.229744 15.75763,-6.68935 3.70305,-0.343901 4.52973,-1.032195 5.35643,-1.72049 6.18312,-2.408785 3.30658,0 3.30658,0 3.30658,0 3.30658,0 0.46989,-0.539019 0.33566,-0.543341 0.20145,-0.547662 0.0672,-0.551985 0.0692,0.551985 0.20768,0.547662 0.34622,0.543341 0.48474,0.539019 2.40851,0.344273 1.7204,1.032319 1.03228,1.720366 0.34418,2.408413 -1.69261,10.188301 -2.68682,7.055638 -3.51834,6.683333 -4.18719,9.071386 -1.99326,1.380703 -1.58198,1.926095 -1.1707,2.471488 -0.75943,3.01688 -4.44265,5.46874 -4.65355,6.113982 -3.68058,6.096547 -1.52376,5.416434 -0.27695,0 -0.27694,0 -0.27695,0 -0.27695,0 0,-0.268555 0,-0.268555 0,-0.268554 0,-0.268555 -1.09939,2.475738 -1.0994,2.47574 -1.09939,2.47574 -1.0994,2.47574 -5.15847,7.07961 -7.10786,13.53518 -6.74861,14.49868 -4.08076,9.97014 -2.47542,7.4736 -4.04497,8.89726 -4.35991,8.68455 -3.42024,6.83546 -5.02071,9.73598 -5.19875,10.89475 -2.56475,10.75929 2.88126,9.32959 6.11377,-0.34401 6.25647,-1.03223 6.39916,-1.72046 6.54188,-2.40867 0.67762,-0.48458 0.95881,-0.34616 1.23998,-0.20773 1.52117,-0.0693 0.88323,-1.9931 1.57565,-1.58193 2.26804,-1.17075 2.96046,-0.75959 0,-0.5455 0,-0.54551 0,-0.5455 0,-0.5455 8.25425,-5.29884 7.77833,-4.75326 6.08985,-4.13319 3.18885,-3.43861 2.47574,-6.31943 2.47574,-6.31942 2.47573,-6.31943 2.47574,-6.31943 2.30353,-2.65117 3.77956,-5.71004 3.62498,-5.93122 1.83978,-3.31469 0.78879,-1.9983 0.72171,-1.58086 0.65463,-1.16343 0.58756,-0.74599 0.74473,-3.02951 1.16021,-2.4757 1.57569,-1.92188 1.99117,-1.36808 1.10779,-3.30658 1.10778,-3.30658 1.10779,-3.30658 1.10779,-3.30658 2.46735,-3.84369 2.46734,-3.84368 2.46735,-3.84369 2.46735,-3.84369 1.65329,-2.75269 1.65329,-2.75268 1.65328,-2.752689 1.65329,-2.752687 0.0691,-0.484508 0.20767,-0.346134 0.34622,-0.20776 0.48476,-0.06939 1.12657,-1.78322 1.19797,-2.060267 1.26938,-2.337315 1.34078,-2.614364 1.47904,-2.888904 1.68472,-3.161758 1.89041,-3.434615 2.09609,-3.707472 2.47574,-4.951477 2.47574,-4.951477 2.47574,-4.951478 2.47574,-4.951477 -1.64501,-0.06906 -1.64494,-0.207653 -1.64486,-0.346241 -1.64478,-0.484831 0,0.553894 0,0.553895 0,0.553894 0,0.553894 -2.47795,0.885563 -1.92817,0.474224 -1.37841,0.06289 -0.82863,-0.348454 0,-1.099396 0,-1.099395 0,-1.099396 0,-1.099396 1.23041,-0.60722 1.50954,-0.747908 1.78865,-0.888597 2.06777,-1.029285 9.17516,-4.593889 9.19734,-3.989867 9.1767,-3.396692 9.11318,-2.814366 6.51828,-1.676612 6.44665,-1.382594 6.35889,-1.092662 6.25498,-0.806818 10.81087,-0.741193 10.34095,0.125965 9.78038,0.970175 9.12917,1.791436 -0.48482,2.889245 -0.34624,3.161872 -0.20766,3.434501 -0.0691,3.707131 -4.39758,6.32782 -4.39759,6.32782 -4.39758,6.32782 -4.39759,6.32782 -0.62224,1.161453 -0.75851,1.301914 -0.89478,1.442378 -1.03105,1.582841 -5.53224,9.71034 -5.76315,10.05756 -5.89357,10.349316 -5.92352,10.5856 -0.26855,0 -0.26856,0 -0.26855,0 -0.26856,0 0,0.27695 0,0.27695 0,0.27694 0,0.27695 -1.09939,2.19879 -1.0994,2.1988 -1.0994,2.19879 -1.09939,2.19879 -4.06833,7.41895 -3.37586,5.77397 -2.6834,4.12898 -1.99094,2.48401 -0.5876,1.16141 -0.65465,1.3019 -0.72169,1.44239 -0.78875,1.58288 -0.99463,1.79083 -1.33862,2.06561 -1.68261,2.34037 -2.02662,2.61514 -0.65683,1.26421 -0.86236,1.61032 -1.06788,1.95642 -1.2734,2.30254 -3.9596,9.48507 -4.35215,9.08916 -4.18263,9.01263 -3.45106,9.25548 -1.50864,1.03235 -1.23581,3.0968 -0.96298,5.16126 -0.69015,7.22571 0,1.37634 0,1.37635 0,1.37634 0,1.37634 2.0581,-0.20764 2.88482,-0.6231 3.71155,-1.03858 4.53828,-1.45405 0.83084,-0.5455 0.83084,-0.5455 0.83084,-0.5455 0.83084,-0.5455 5.86068,-3.59653 7.15915,-4.46081 7.24561,-5.66056 6.12006,-7.1958 4.98728,-2.51106 5.31998,-4.2277 4.84087,-4.70201 3.54999,-3.93399 5.1003,-3.82101 4.39414,-4.29373 4.0445,-4.36539 4.05139,-4.03598 4.85165,-4.36705 3.54466,-3.19849 2.23766,-2.02993 0.93067,-0.86138 0.24216,-0.30935 0.17303,-0.37447 0.10391,-0.43959 0.0348,-0.5047 0.0691,0.95474 0.20765,0.68192 0.34624,0.40909 0.48483,0.13626 2.335,-0.48035 2.60785,-1.44134 2.88073,-2.40234 3.15359,-3.36335 0.83084,0 0.83084,0 0.83085,0 0.83084,0 0,-0.27695 0,-0.27694 0,-0.27695 0,-0.27695 0.53903,-0.48454 0.54334,-0.34614 0.54766,-0.20775 0.55197,-0.0694 0.62086,-0.0691 0.75525,-0.20767 0.88965,-0.34623 1.02404,-0.48478 0.27695,-0.26855 0.27694,-0.26855 0.27695,-0.26856 0.27695,-0.26855 0.27694,0.26855 0.27695,0.26856 0.27695,0.26855 z"
         id="path3026"
         inkscape:connector-curvature="0"
         sodipodi:nodetypes="ccccccccccccccccccccccccccccccccccccccccccccccccccccccccccccccccccccccccccccccccccccccccccccccccccccccccccccccccccccccccccccccccccccccccccccccccccccccccccccccccccccccccccccccccccccccccccccccccccccccccccccccccccccccccccccccccccccccccccccccccccccccccccccccccccccccccccccccccccccccccccccccccccccccccccccccccccccccccccccccccccccccccccccccccccccccccccccccccccccccccccccccccccccccccccccccccccccccccccccc" />
    </g>
  </g>
  <g
     inkscape:groupmode="layer"
     id="layer9"
     inkscape:label="T"
     style="display:inline">
    <g
       transform="matrix(0.92080238,-0.39002945,0.39002945,0.92080238,0,0)"
       style="font-size:1100px;font-style:normal;font-variant:normal;font-weight:normal;font-stretch:normal;line-height:125%;letter-spacing:0px;word-spacing:0px;fill:#000000;fill-opacity:1;stroke:none;font-family:ANGEL TEARS;-inkscape-font-specification:ANGEL TEARS"
       id="text3029">
      <path
         d="m 152.65961,179.1123 -2.93264,11.32134 -6.53825,9.5186 -6.86523,7.90219 -3.91361,6.47211 -6.78023,8.9334 -6.84527,8.4048 -6.79222,8.81355 -6.62111,10.15963 -4.81815,7.87655 -5.463969,8.00578 -5.000103,8.03999 -3.426536,7.97919 -2.434242,4.73907 10.450063,0.13885 15.411417,-1.51221 12.4498,-0.21408 7.54294,-1.84387 8.42999,-0.0947 4.87887,2.5583 -3.11042,6.11513 -4.13016,5.81953 -2.72159,5.82769 -2.49723,5.16394 -3.45712,3.82827 -4.17625,1.54999 -5.57391,0.31465 -6.56633,-0.62652 -7.15352,-1.27352 -10.454768,-0.44481 -11.080634,-0.342 -10.132851,1.72501 -7.611418,5.75621 -4.233758,7.39055 -4.217426,6.38281 -4.410447,5.86839 -4.812822,5.84728 -13.234964,23.90852 -6.462354,11.74698 -6.353684,12.04892 -5.683079,9.04313 -4.728499,9.33751 -4.5566825,9.40219 -5.16762819,9.23717 -5.89367091,11.27362 -5.6667744,11.41899 -6.215501,11.06779 -7.539848,10.22001 -7.160201,16.77107 -7.261985,16.73499 -7.201161,16.75824 -6.977728,16.84081 -1.409211,3.67335 -0.45485,7.0199 -0.193699,8.14358 -0.625759,7.04443 2.360715,10.86476 10.313044,3.28181 12.896709,-2.55763 10.111709,-6.65355 7.708989,-7.16457 7.9465249,-7.38658 7.2690362,-7.26128 5.6765237,-6.78865 7.3583442,-8.20718 5.985941,-9.10836 5.641617,-9.36511 6.325377,-8.9774 3.464814,-5.18972 5.408778,-3.64979 5.619967,-0.2629 4.098381,4.97096 -6.110679,6.77384 -6.204325,6.80701 -5.253173,7.35265 -3.257225,8.41075 -9.088836,12.82517 -11.079639,11.19834 -12.05623145,10.34878 -12.01861355,10.27648 -10.826037,8.53698 -10.640556,5.52168 -10.771142,3.20558 -11.217792,1.58866 -14.134351,-0.26409 -14.312139,-2.21354 -13.90266,-3.79037 -12.905918,-4.9946 -4.12336,-2.50112 -4.71237,-5.23184 -4.42248,-6.38604 -3.25371,-5.96375 -3.43331,-14.34914 -0.94468,-14.34465 1.8962,-14.16387 5.08937,-13.80677 3.74464,-8.59183 3.74464,-8.59183 3.74464,-8.59183 3.74464,-8.59183 8.36898,-13.32747 7.97747,-14.12354 7.823395,-14.50233 7.906767,-14.46383 5.687325,-10.63923 6.189406,-10.03288 6.327887,-9.84972 6.10277,-10.08979 4.550171,-8.12759 5.466587,-9.78727 6.167501,-10.72434 4.439796,-7.43442 3.226777,-5.76076 3.712708,-9.2329 -2.34618,-6.84318 -6.871371,-1.77787 -7.374985,0.65329 -10.384188,-0.14429 -8.854659,-1.40915 -6.272381,-2.42423 -1.835045,-2.58602 0.127785,-3.23467 1.417663,-3.63195 1.34743,-2.55612 1.086477,-2.26402 2.030296,-3.95908 2.418827,-3.69543 2.595647,-2.08396 4.716936,-0.36305 5.430992,0.79287 5.778366,0.94525 5.759055,0.0941 10.148574,-0.0546 10.144163,-0.29985 10.1423705,-0.39955 10.1431942,-0.35374 6.3413363,-11.11133 6.869145,-11.24694 7.183916,-11.15073 7.285647,-10.8227 3.139598,-6.09353 3.826023,-5.72512 3.88005,-5.23219 3.301677,-4.61478 5.363952,-11.35172 5.717765,-10.56206 7.595691,-8.20091 10.99773,-4.26832 7.072589,-3.22153 7.301939,-3.29549 7.818875,-2.98907 8.6234,-2.3023 11.967,-0.46416 12.82505,-2.13799 12.25383,-0.56836 z"
         id="path3034"
         inkscape:connector-curvature="0"
         sodipodi:nodetypes="cccccccccccccccccccccccccccccccccccccccccccccccccccccccccccccccccccccccccccccccccccccccccccccccccccccccccccccccccccccccccccccccccccccccccccccccccccccccccccc" />
    </g>
  </g>
</svg>
