  0
SECTION
  2
HEADER
  9
$ACADVER
  1
AC1014
  9
$HANDSEED
  5
FFFF
  9
$MEASUREMENT
 70
     1
  0
ENDSEC
  0
SECTION
  2
TABLES
  0
TABLE
  2
VPORT
  5
8
330
0
100
AcDbSymbolTable
 70
     4
  0
VPORT
  5
2E
330
8
100
AcDbSymbolTableRecord
100
AcDbViewportTableRecord
  2
*ACTIVE
 70
     0
 10
0.0
 20
0.0
 11
1.0
 21
1.0
 12
210.0
 22
148.5
 13
0.0
 23
0.0
 14
10.0
 24
10.0
 15
10.0
 25
10.0
 16
0.0
 26
0.0
 36
1.0
 17
0.0
 27
0.0
 37
0.0
 40
341.0
 41
1.24
 42
50.0
 43
0.0
 44
0.0
 50
0.0
 51
0.0
 71
     0
 72
   100
 73
     1
 74
     3
 75
     0
 76
     0
 77
     0
 78
     0
  0
ENDTAB
  0
TABLE
  2
LTYPE
  5
5
330
0
100
AcDbSymbolTable
 70
     1
  0
LTYPE
  5
14
330
5
100
AcDbSymbolTableRecord
100
AcDbLinetypeTableRecord
  2
BYBLOCK
 70
     0
  3

 72
    65
 73
     0
 40
0.0
  0
LTYPE
  5
15
330
5
100
AcDbSymbolTableRecord
100
AcDbLinetypeTableRecord
  2
BYLAYER
 70
     0
  3

 72
    65
 73
     0
 40
0.0
  0
LTYPE
  5
16
330
5
100
AcDbSymbolTableRecord
100
AcDbLinetypeTableRecord
  2
CONTINUOUS
 70
     0
  3
Solid line
 72
    65
 73
     0
 40
0.0
  0
ENDTAB
  0
TABLE
  2
LAYER
  5
2
100
AcDbSymbolTable
 70
20
  0
LAYER
  5
50
100
AcDbSymbolTableRecord
100
AcDbLayerTableRecord
  2
0
 70
0
  6
CONTINUOUS
  0
LAYER
  5
51
100
AcDbSymbolTableRecord
100
AcDbLayerTableRecord
  2
Scratch
 70
0
  6
CONTINUOUS
  0
LAYER
  5
52
100
AcDbSymbolTableRecord
100
AcDbLayerTableRecord
  2
E
 70
0
  6
CONTINUOUS
  0
LAYER
  5
53
100
AcDbSymbolTableRecord
100
AcDbLayerTableRecord
  2
V
 70
0
  6
CONTINUOUS
  0
LAYER
  5
54
100
AcDbSymbolTableRecord
100
AcDbLayerTableRecord
  2
O
 70
0
  6
CONTINUOUS
  0
LAYER
  5
55
100
AcDbSymbolTableRecord
100
AcDbLayerTableRecord
  2
L1
 70
0
  6
CONTINUOUS
  0
LAYER
  5
56
100
AcDbSymbolTableRecord
100
AcDbLayerTableRecord
  2
L2
 70
0
  6
CONTINUOUS
  0
LAYER
  5
57
100
AcDbSymbolTableRecord
100
AcDbLayerTableRecord
  2
R
 70
0
  6
CONTINUOUS
  0
LAYER
  5
58
100
AcDbSymbolTableRecord
100
AcDbLayerTableRecord
  2
U
 70
0
  6
CONTINUOUS
  0
LAYER
  5
59
100
AcDbSymbolTableRecord
100
AcDbLayerTableRecord
  2
t
 70
0
  6
CONTINUOUS
  0
LAYER
  5
5a
100
AcDbSymbolTableRecord
100
AcDbLayerTableRecord
  2
h
 70
0
  6
CONTINUOUS
  0
LAYER
  5
5b
100
AcDbSymbolTableRecord
100
AcDbLayerTableRecord
  2
a
 70
0
  6
CONTINUOUS
  0
LAYER
  5
5c
100
AcDbSymbolTableRecord
100
AcDbLayerTableRecord
  2
m
 70
0
  6
CONTINUOUS
  0
LAYER
  5
5d
100
AcDbSymbolTableRecord
100
AcDbLayerTableRecord
  2
_T1
 70
0
  6
CONTINUOUS
  0
LAYER
  5
5e
100
AcDbSymbolTableRecord
100
AcDbLayerTableRecord
  2
d
 70
0
  6
CONTINUOUS
  0
LAYER
  5
5f
100
AcDbSymbolTableRecord
100
AcDbLayerTableRecord
  2
_T2
 70
0
  6
CONTINUOUS
  0
LAYER
  5
60
100
AcDbSymbolTableRecord
100
AcDbLayerTableRecord
  2
_Y1
 70
0
  6
CONTINUOUS
  0
LAYER
  5
61
100
AcDbSymbolTableRecord
100
AcDbLayerTableRecord
  2
_Y2
 70
0
  6
CONTINUOUS
  0
LAYER
  5
62
100
AcDbSymbolTableRecord
100
AcDbLayerTableRecord
  2
_B1
 70
0
  6
CONTINUOUS
  0
LAYER
  5
63
100
AcDbSymbolTableRecord
100
AcDbLayerTableRecord
  2
_B2
 70
0
  6
CONTINUOUS
  0
ENDTAB
  0
TABLE
  2
STYLE
  5
3
330
0
100
AcDbSymbolTable
 70
     1
  0
STYLE
  5
11
330
3
100
AcDbSymbolTableRecord
100
AcDbTextStyleTableRecord
  2
STANDARD
 70
     0
 40
0.0
 41
1.0
 50
0.0
 71
     0
 42
2.5
  3
txt
  4

  0
ENDTAB
  0
TABLE
  2
VIEW
  5
6
330
0
100
AcDbSymbolTable
 70
     0
  0
ENDTAB
  0
TABLE
  2
UCS
  5
7
330
0
100
AcDbSymbolTable
 70
     0
  0
ENDTAB
  0
TABLE
  2
APPID
  5
9
330
0
100
AcDbSymbolTable
 70
     2
  0
APPID
  5
12
330
9
100
AcDbSymbolTableRecord
100
AcDbRegAppTableRecord
  2
ACAD
 70
     0
  0
ENDTAB
  0
TABLE
  2
DIMSTYLE
  5
A
330
0
100
AcDbSymbolTable
 70
     1
  0
DIMSTYLE
105
27
330
A
100
AcDbSymbolTableRecord
100
AcDbDimStyleTableRecord
  2
ISO-25
 70
     0
  3

  4

  5

  6

  7

 40
1.0
 41
2.5
 42
0.625
 43
3.75
 44
1.25
 45
0.0
 46
0.0
 47
0.0
 48
0.0
140
2.5
141
2.5
142
0.0
143
0.03937007874016
144
1.0
145
0.0
146
1.0
147
0.625
 71
     0
 72
     0
 73
     0
 74
     0
 75
     0
 76
     0
 77
     1
 78
     8
170
     0
171
     3
172
     1
173
     0
174
     0
175
     0
176
     0
177
     0
178
     0
270
     2
271
     2
272
     2
273
     2
274
     3
340
11
275
     0
280
     0
281
     0
282
     0
283
     0
284
     8
285
     0
286
     0
287
     3
288
     0
  0
ENDTAB
  0
TABLE
  2
BLOCK_RECORD
  5
1
330
0
100
AcDbSymbolTable
 70
     1
  0
BLOCK_RECORD
  5
1F
330
1
100
AcDbSymbolTableRecord
100
AcDbBlockTableRecord
  2
*MODEL_SPACE
  0
BLOCK_RECORD
  5
1B
330
1
100
AcDbSymbolTableRecord
100
AcDbBlockTableRecord
  2
*PAPER_SPACE
  0
ENDTAB
  0
ENDSEC
  0
SECTION
  2
BLOCKS
  0
BLOCK
  5
20
330
1F
100
AcDbEntity
  8
0
100
AcDbBlockBegin
  2
*MODEL_SPACE
 70
     0
 10
0.0
 20
0.0
 30
0.0
  3
*MODEL_SPACE
  1

  0
ENDBLK
  5
21
330
1F
100
AcDbEntity
  8
0
100
AcDbBlockEnd
  0
BLOCK
  5
1C
330
1B
100
AcDbEntity
 67
     1
  8
0
100
AcDbBlockBegin
  2
*PAPER_SPACE
  1

  0
ENDBLK
  5
1D
330
1B
100
AcDbEntity
 67
     1
  8
0
100
AcDbBlockEnd
  0
ENDSEC
  0
SECTION
  2
ENTITIES
  0
LWPOLYLINE
  5
100
100
AcDbEntity
  8
E
 62
7
100
AcDbPolyline
 90
102
 70
0
 10
63.646002
 20
30.421054
 30
0.0
 10
62.721180
 20
29.105796
 30
0.0
 10
62.004019
 20
27.702156
 30
0.0
 10
61.146447
 20
26.279641
 30
0.0
 10
59.800384
 20
24.907755
 30
0.0
 10
56.604019
 20
21.675173
 30
0.0
 10
53.309001
 20
18.641153
 30
0.0
 10
50.072131
 20
15.781033
 30
0.0
 10
47.050205
 20
13.070164
 30
0.0
 10
45.184431
 20
11.342453
 30
0.0
 10
43.140977
 20
9.603496
 30
0.0
 10
40.536461
 20
7.766231
 30
0.0
 10
38.333108
 20
6.439057
 30
0.0
 10
36.395730
 20
5.552851
 30
0.0
 10
33.019920
 20
4.152020
 30
0.0
 10
29.337138
 20
2.819252
 30
0.0
 10
25.806028
 20
1.789501
 30
0.0
 10
23.402304
 20
1.139832
 30
0.0
 10
20.941588
 20
0.619043
 30
0.0
 10
18.446040
 20
0.289920
 30
0.0
 10
15.937823
 20
0.215266
 30
0.0
 10
13.252689
 20
0.516980
 30
0.0
 10
10.796741
 20
1.569057
 30
0.0
 10
8.401698
 20
2.843266
 30
0.0
 10
5.899274
 20
3.811379
 30
0.0
 10
3.570094
 20
6.658771
 30
0.0
 10
2.010920
 20
9.988505
 30
0.0
 10
1.011477
 20
13.581061
 30
0.0
 10
0.361487
 20
17.216923
 30
0.0
 10
0.634147
 20
20.597197
 30
0.0
 10
1.190306
 20
23.950555
 30
0.0
 10
1.989288
 20
27.260322
 30
0.0
 10
2.990417
 20
30.509825
 30
0.0
 10
4.347450
 20
32.834604
 30
0.0
 10
5.609235
 20
35.207819
 30
0.0
 10
6.760976
 20
37.633380
 30
0.0
 10
7.787875
 20
40.115205
 30
0.0
 10
9.454857
 20
42.564279
 30
0.0
 10
11.386924
 20
44.815172
 30
0.0
 10
13.329643
 20
47.058699
 30
0.0
 10
15.028582
 20
49.485666
 30
0.0
 10
16.823354
 20
51.214153
 30
0.0
 10
18.631661
 20
52.931086
 30
0.0
 10
20.487459
 20
54.609927
 30
0.0
 10
22.424703
 20
56.224142
 30
0.0
 10
24.562415
 20
57.678110
 30
0.0
 10
26.856943
 20
58.853127
 30
0.0
 10
29.252378
 20
59.814398
 30
0.0
 10
31.692811
 20
60.627142
 30
0.0
 10
35.936389
 20
61.966683
 30
0.0
 10
40.355788
 20
62.322310
 30
0.0
 10
44.837858
 20
62.106479
 30
0.0
 10
49.269452
 20
61.731659
 30
0.0
 10
51.186920
 20
60.996287
 30
0.0
 10
53.016058
 20
60.018731
 30
0.0
 10
54.714954
 20
58.834206
 30
0.0
 10
56.241687
 20
57.477927
 30
0.0
 10
56.854152
 20
56.459651
 30
0.0
 10
57.460750
 20
55.437002
 30
0.0
 10
58.067808
 20
54.414216
 30
0.0
 10
58.681653
 20
53.395538
 30
0.0
 10
58.047968
 20
51.199023
 30
0.0
 10
57.577375
 20
48.953574
 30
0.0
 10
56.963823
 20
46.760511
 30
0.0
 10
55.901257
 20
44.721161
 30
0.0
 10
54.826818
 20
43.004597
 30
0.0
 10
53.527101
 20
41.459110
 30
0.0
 10
52.091611
 20
40.021177
 30
0.0
 10
50.609848
 20
38.627285
 30
0.0
 10
44.881475
 20
34.315302
 30
0.0
 10
38.764424
 20
30.382071
 30
0.0
 10
32.529812
 20
26.986255
 30
0.0
 10
28.366774
 20
25.032074
 30
0.0
 10
26.568571
 20
24.315619
 30
0.0
 10
24.144640
 20
23.270118
 30
0.0
 10
21.954695
 20
22.153437
 30
0.0
 10
19.899436
 20
20.850656
 30
0.0
 10
18.101915
 20
19.348102
 30
0.0
 10
17.232512
 20
17.455108
 30
0.0
 10
16.989516
 20
14.826337
 30
0.0
 10
17.071218
 20
11.116463
 30
0.0
 10
18.145781
 20
9.348809
 30
0.0
 10
19.402525
 20
7.718200
 30
0.0
 10
20.951353
 20
6.481041
 30
0.0
 10
22.902163
 20
5.893746
 30
0.0
 10
28.440527
 20
7.064501
 30
0.0
 10
33.559194
 20
8.872955
 30
0.0
 10
38.266693
 20
11.244288
 30
0.0
 10
42.571561
 20
14.103674
 30
0.0
 10
46.127677
 20
16.787627
 30
0.0
 10
49.611287
 20
19.629716
 30
0.0
 10
52.899199
 20
22.575302
 30
0.0
 10
55.868220
 20
25.569746
 30
0.0
 10
57.366098
 20
27.276993
 30
0.0
 10
58.949927
 20
28.902652
 30
0.0
 10
60.720087
 20
30.155708
 30
0.0
 10
62.776967
 20
30.745148
 30
0.0
 10
63.236688
 20
30.859406
 30
0.0
 10
63.525861
 20
30.994978
 30
0.0
 10
63.657844
 20
30.924611
 30
0.0
 10
63.645991
 20
30.421054
 30
0.0
 10
63.646002
 20
30.421054
 30
0.0
  0
LWPOLYLINE
  5
101
100
AcDbEntity
  8
E
 62
7
100
AcDbPolyline
 90
2
 70
0
 10
29.805050
 20
2.482190
 30
0.0
 10
29.805050
 20
2.482190
 30
0.0
  0
LWPOLYLINE
  5
102
100
AcDbEntity
  8
E
 62
7
100
AcDbPolyline
 90
2
 70
0
 10
21.733244
 20
0.312642
 30
0.0
 10
21.733244
 20
0.312642
 30
0.0
  0
LWPOLYLINE
  5
103
100
AcDbEntity
  8
E
 62
7
100
AcDbPolyline
 90
24
 70
0
 10
52.779382
 20
55.574560
 30
0.0
 10
48.103178
 20
55.841012
 30
0.0
 10
43.472516
 20
54.058567
 30
0.0
 10
39.412500
 20
51.218344
 30
0.0
 10
36.448223
 20
48.311468
 30
0.0
 10
32.724759
 20
44.004449
 30
0.0
 10
30.775736
 20
41.940969
 30
0.0
 10
29.033273
 20
39.674686
 30
0.0
 10
26.258746
 20
35.877066
 30
0.0
 10
23.665554
 20
32.281083
 30
0.0
 10
21.575117
 20
28.640339
 30
0.0
 10
19.808815
 20
25.079245
 30
0.0
 10
21.164620
 20
24.445428
 30
0.0
 10
24.034622
 20
26.177183
 30
0.0
 10
28.078113
 20
27.945836
 30
0.0
 10
32.008868
 20
30.050823
 30
0.0
 10
36.030959
 20
32.297985
 30
0.0
 10
39.721070
 20
35.025108
 30
0.0
 10
43.424101
 20
37.965162
 30
0.0
 10
46.947549
 20
41.124641
 30
0.0
 10
50.106743
 20
44.532559
 30
0.0
 10
52.255249
 20
48.700515
 30
0.0
 10
53.194780
 20
52.063168
 30
0.0
 10
52.779382
 20
55.574560
 30
0.0
  0
LWPOLYLINE
  5
104
100
AcDbEntity
  8
V
 62
7
100
AcDbPolyline
 90
141
 70
0
 10
82.575493
 20
67.057061
 30
0.0
 10
82.537348
 20
65.261685
 30
0.0
 10
82.353918
 20
63.529808
 30
0.0
 10
81.687489
 20
61.594520
 30
0.0
 10
80.852261
 20
60.074229
 30
0.0
 10
80.141439
 20
58.719291
 30
0.0
 10
79.050049
 20
56.327588
 30
0.0
 10
77.917345
 20
53.748805
 30
0.0
 10
76.756633
 20
51.389957
 30
0.0
 10
75.247091
 20
49.155635
 30
0.0
 10
73.755958
 20
47.057985
 30
0.0
 10
72.373961
 20
45.018353
 30
0.0
 10
71.191837
 20
42.958091
 30
0.0
 10
70.235547
 20
41.490556
 30
0.0
 10
69.179923
 20
40.107009
 30
0.0
 10
68.121205
 20
38.722040
 30
0.0
 10
67.155630
 20
37.250235
 30
0.0
 10
65.478400
 20
35.140341
 30
0.0
 10
63.811475
 20
32.833544
 30
0.0
 10
62.675290
 20
30.376580
 30
0.0
 10
62.590288
 20
27.816181
 30
0.0
 10
63.239602
 20
27.239612
 30
0.0
 10
63.863909
 20
26.760607
 30
0.0
 10
64.425709
 20
26.297673
 30
0.0
 10
64.887512
 20
25.769313
 30
0.0
 10
66.857524
 20
25.021692
 30
0.0
 10
68.881738
 20
24.440363
 30
0.0
 10
70.930135
 20
24.312544
 30
0.0
 10
72.972696
 20
24.925457
 30
0.0
 10
74.655638
 20
25.492546
 30
0.0
 10
75.873833
 20
25.289470
 30
0.0
 10
76.258680
 20
24.338486
 30
0.0
 10
75.441562
 20
22.661838
 30
0.0
 10
73.916009
 20
20.469372
 30
0.0
 10
71.756801
 20
19.098985
 30
0.0
 10
69.229331
 20
18.388604
 30
0.0
 10
66.599006
 20
18.176155
 30
0.0
 10
63.305380
 20
18.225172
 30
0.0
 10
59.972231
 20
18.594869
 30
0.0
 10
56.903837
 20
19.664045
 30
0.0
 10
54.404477
 20
21.811505
 30
0.0
 10
52.662348
 20
20.959818
 30
0.0
 10
50.940177
 20
19.064899
 30
0.0
 10
49.146547
 20
16.894220
 30
0.0
 10
47.190056
 20
15.215263
 30
0.0
 10
45.347227
 20
13.832197
 30
0.0
 10
43.507022
 20
12.330080
 30
0.0
 10
41.635065
 20
10.802668
 30
0.0
 10
39.696980
 20
9.343723
 30
0.0
 10
36.539602
 20
7.428569
 30
0.0
 10
33.335852
 20
5.581839
 30
0.0
 10
30.145917
 20
3.714541
 30
0.0
 10
27.029993
 20
1.737679
 30
0.0
 10
23.657770
 20
0.777641
 30
0.0
 10
20.208013
 20
0.241215
 30
0.0
 10
16.716545
 20
0.096066
 30
0.0
 10
13.219190
 20
0.309863
 30
0.0
 10
11.064460
 20
0.278892
 30
0.0
 10
8.945916
 20
0.634314
 30
0.0
 10
6.842130
 20
1.085328
 30
0.0
 10
4.731675
 20
1.341145
 30
0.0
 10
3.165553
 20
2.826599
 30
0.0
 10
1.795998
 20
4.536748
 30
0.0
 10
0.769951
 20
6.609907
 30
0.0
 10
0.312642
 20
8.253177
 30
0.0
 10
0.158494
 20
8.948327
 30
0.0
 10
-0.020173
 20
9.936793
 30
0.0
 10
0.168012
 20
11.690680
 30
0.0
 10
0.625285
 20
13.661525
 30
0.0
 10
1.527540
 20
16.180681
 30
0.0
 10
3.274482
 20
20.652260
 30
0.0
 10
5.478821
 20
25.567719
 30
0.0
 10
7.143405
 20
28.826677
 30
0.0
 10
8.057667
 20
30.575617
 30
0.0
 10
9.406192
 20
33.480985
 30
0.0
 10
10.773605
 20
36.857508
 30
0.0
 10
11.719346
 20
39.391706
 30
0.0
 10
12.249101
 20
41.136680
 30
0.0
 10
13.006358
 20
44.037902
 30
0.0
 10
13.572999
 20
47.024205
 30
0.0
 10
13.752215
 20
49.672248
 30
0.0
 10
13.512865
 20
50.836178
 30
0.0
 10
12.505554
 20
51.509047
 30
0.0
 10
11.400192
 20
52.106017
 30
0.0
 10
10.866692
 20
53.042253
 30
0.0
 10
11.712851
 20
55.049039
 30
0.0
 10
13.823402
 20
56.083225
 30
0.0
 10
16.411271
 20
56.585155
 30
0.0
 10
18.689382
 20
56.995162
 30
0.0
 10
23.499845
 20
57.472628
 30
0.0
 10
28.317114
 20
57.903006
 30
0.0
 10
33.127592
 20
58.376970
 30
0.0
 10
37.917679
 20
58.985201
 30
0.0
 10
39.473471
 20
59.039001
 30
0.0
 10
40.917402
 20
59.201798
 30
0.0
 10
42.383148
 20
59.217800
 30
0.0
 10
44.004388
 20
58.831186
 30
0.0
 10
44.958683
 20
56.832531
 30
0.0
 10
44.008969
 20
54.418021
 30
0.0
 10
42.347080
 20
51.886677
 30
0.0
 10
41.164846
 20
49.537510
 30
0.0
 10
36.879603
 20
42.063760
 30
0.0
 10
32.842573
 20
34.403589
 30
0.0
 10
29.636407
 20
26.426764
 30
0.0
 10
27.843773
 20
18.003052
 30
0.0
 10
27.959001
 20
15.863765
 30
0.0
 10
28.810272
 20
14.404865
 30
0.0
 10
30.923442
 20
13.929270
 30
0.0
 10
33.212445
 20
14.235664
 30
0.0
 10
34.726417
 20
14.775632
 30
0.0
 10
36.801281
 20
15.666308
 30
0.0
 10
39.002355
 20
16.954971
 30
0.0
 10
40.726682
 20
18.158248
 30
0.0
 10
42.178029
 20
19.248648
 30
0.0
 10
44.666857
 20
21.152344
 30
0.0
 10
47.222046
 20
23.285752
 30
0.0
 10
49.359606
 20
25.456676
 30
0.0
 10
50.964575
 20
27.652627
 30
0.0
 10
51.448860
 20
30.011765
 30
0.0
 10
51.449707
 20
33.157485
 30
0.0
 10
51.460403
 20
35.939623
 30
0.0
 10
51.754741
 20
38.478375
 30
0.0
 10
52.403669
 20
42.854465
 30
0.0
 10
53.489866
 20
48.016871
 30
0.0
 10
54.512983
 20
51.866154
 30
0.0
 10
55.192323
 20
54.097188
 30
0.0
 10
56.340855
 20
57.498265
 30
0.0
 10
57.852539
 20
60.759842
 30
0.0
 10
59.948851
 20
63.539991
 30
0.0
 10
61.874087
 20
65.711990
 30
0.0
 10
63.814472
 20
67.819558
 30
0.0
 10
65.770627
 20
69.741294
 30
0.0
 10
67.743174
 20
71.355802
 30
0.0
 10
69.777195
 20
72.720372
 30
0.0
 10
72.233401
 20
73.426614
 30
0.0
 10
74.647287
 20
73.674362
 30
0.0
 10
76.554344
 20
73.663469
 30
0.0
 10
78.605315
 20
72.546269
 30
0.0
 10
80.339243
 20
71.052227
 30
0.0
 10
81.686002
 20
69.212206
 30
0.0
 10
82.575493
 20
67.057061
 30
0.0
  0
LWPOLYLINE
  5
105
100
AcDbEntity
  8
O
 62
7
100
AcDbPolyline
 90
37
 70
0
 10
48.118511
 20
27.000934
 30
0.0
 10
44.877601
 20
29.901907
 30
0.0
 10
42.816512
 20
33.702523
 30
0.0
 10
41.686122
 20
37.979725
 30
0.0
 10
41.237301
 20
42.310459
 30
0.0
 10
41.770486
 20
45.158804
 30
0.0
 10
42.865099
 20
47.835910
 30
0.0
 10
44.170860
 20
50.446488
 30
0.0
 10
45.337479
 20
53.095257
 30
0.0
 10
43.358381
 20
52.303389
 30
0.0
 10
41.166968
 20
50.440294
 30
0.0
 10
38.967475
 20
48.165269
 30
0.0
 10
36.964135
 20
46.137610
 30
0.0
 10
34.908307
 20
43.856461
 30
0.0
 10
32.747066
 20
41.674754
 30
0.0
 10
30.719801
 20
39.392013
 30
0.0
 10
29.065900
 20
36.807775
 30
0.0
 10
27.216340
 20
33.921624
 30
0.0
 10
25.538252
 20
31.092874
 30
0.0
 10
23.877165
 20
27.961336
 30
0.0
 10
22.078609
 20
24.166830
 30
0.0
 10
20.512307
 20
21.246990
 30
0.0
 10
19.693361
 20
18.052364
 30
0.0
 10
19.458226
 20
14.733442
 30
0.0
 10
19.643354
 20
11.440716
 30
0.0
 10
21.677335
 20
9.040650
 30
0.0
 10
24.587236
 20
8.229479
 30
0.0
 10
27.816004
 20
8.537222
 30
0.0
 10
30.806582
 20
9.493899
 30
0.0
 10
35.325784
 20
11.877878
 30
0.0
 10
39.339845
 20
15.019531
 30
0.0
 10
43.014084
 20
18.600050
 30
0.0
 10
46.513826
 20
22.300627
 30
0.0
 10
47.747468
 20
23.347787
 30
0.0
 10
48.851967
 20
24.533208
 30
0.0
 10
49.188568
 20
25.777416
 30
0.0
 10
48.118511
 20
27.000934
 30
0.0
  0
LWPOLYLINE
  5
106
100
AcDbEntity
  8
O
 62
7
100
AcDbPolyline
 90
81
 70
0
 10
80.405944
 20
31.974793
 30
0.0
 10
76.758159
 20
29.486132
 30
0.0
 10
73.180598
 20
26.834671
 30
0.0
 10
69.404193
 20
24.589557
 30
0.0
 10
65.159890
 20
23.319940
 30
0.0
 10
62.001747
 20
22.803045
 30
0.0
 10
58.798110
 20
22.604191
 30
0.0
 10
55.604190
 20
22.400562
 30
0.0
 10
52.475206
 20
21.869338
 30
0.0
 10
50.203343
 20
20.040894
 30
0.0
 10
48.201507
 20
17.901293
 30
0.0
 10
46.194159
 20
15.755279
 30
0.0
 10
43.905760
 20
13.907587
 30
0.0
 10
41.330451
 20
11.545536
 30
0.0
 10
38.674427
 20
9.272095
 30
0.0
 10
35.864467
 20
7.211393
 30
0.0
 10
32.827358
 20
5.487549
 30
0.0
 10
29.650309
 20
3.693651
 30
0.0
 10
26.344164
 20
2.059023
 30
0.0
 10
22.895789
 20
0.888046
 30
0.0
 10
19.292051
 20
0.485095
 30
0.0
 10
15.207606
 20
0.318905
 30
0.0
 10
11.174157
 20
1.007480
 30
0.0
 10
7.506001
 20
2.686758
 30
0.0
 10
4.517440
 20
5.492685
 30
0.0
 10
2.466478
 20
8.133311
 30
0.0
 10
1.211553
 20
11.157399
 30
0.0
 10
0.742070
 20
14.409454
 30
0.0
 10
1.047438
 20
17.733992
 30
0.0
 10
1.713526
 20
20.686025
 30
0.0
 10
2.747741
 20
23.544409
 30
0.0
 10
3.939478
 20
26.358856
 30
0.0
 10
5.078132
 20
29.179080
 30
0.0
 10
6.460848
 20
32.020050
 30
0.0
 10
8.068494
 20
34.735095
 30
0.0
 10
9.769891
 20
37.394100
 30
0.0
 10
11.433859
 20
40.066942
 30
0.0
 10
14.074480
 20
42.954228
 30
0.0
 10
16.704445
 20
45.861811
 30
0.0
 10
19.427503
 20
48.673018
 30
0.0
 10
22.347400
 20
51.271184
 30
0.0
 10
24.624716
 20
52.844649
 30
0.0
 10
26.948583
 20
54.354572
 30
0.0
 10
29.328011
 20
55.786864
 30
0.0
 10
31.772013
 20
57.127445
 30
0.0
 10
35.133351
 20
58.518631
 30
0.0
 10
38.609688
 20
59.586444
 30
0.0
 10
42.135783
 20
60.502080
 30
0.0
 10
45.646396
 20
61.436750
 30
0.0
 10
48.609239
 20
61.780174
 30
0.0
 10
51.550257
 20
62.256955
 30
0.0
 10
54.482690
 20
62.785571
 30
0.0
 10
57.419785
 20
63.284501
 30
0.0
 10
60.528293
 20
63.685039
 30
0.0
 10
63.684779
 20
63.845155
 30
0.0
 10
66.766333
 20
63.431976
 30
0.0
 10
69.650046
 20
62.112632
 30
0.0
 10
71.862323
 20
59.820367
 30
0.0
 10
72.670614
 20
56.883540
 30
0.0
 10
72.461072
 20
53.700999
 30
0.0
 10
71.619852
 20
50.671600
 30
0.0
 10
70.056465
 20
46.331223
 30
0.0
 10
67.750947
 20
42.345477
 30
0.0
 10
65.058959
 20
38.564428
 30
0.0
 10
62.336158
 20
34.838152
 30
0.0
 10
60.970699
 20
32.731764
 30
0.0
 10
59.196712
 20
30.628692
 30
0.0
 10
57.694167
 20
28.590680
 30
0.0
 10
57.143021
 20
26.679466
 30
0.0
 10
61.171178
 20
26.956498
 30
0.0
 10
65.268074
 20
27.857862
 30
0.0
 10
69.230136
 20
29.454969
 30
0.0
 10
71.755435
 20
30.920317
 30
0.0
 10
73.135942
 20
31.998756
 30
0.0
 10
75.352329
 20
33.543923
 30
0.0
 10
77.576310
 20
34.706052
 30
0.0
 10
79.528769
 20
35.084822
 30
0.0
 10
79.068879
 20
33.638657
 30
0.0
 10
79.111896
 20
32.754288
 30
0.0
 10
79.582642
 20
32.257681
 30
0.0
 10
80.405944
 20
31.974793
 30
0.0
  0
LWPOLYLINE
  5
107
100
AcDbEntity
  8
L1
 62
7
100
AcDbPolyline
 90
73
 70
0
 10
11.621430
 20
96.143318
 30
0.0
 10
13.884896
 20
93.516209
 30
0.0
 10
17.305969
 20
89.036518
 30
0.0
 10
22.653767
 20
82.810339
 30
0.0
 10
28.622692
 20
76.250496
 30
0.0
 10
34.047182
 20
69.987785
 30
0.0
 10
39.714221
 20
64.126632
 30
0.0
 10
43.901441
 20
59.277120
 30
0.0
 10
47.979077
 20
54.365717
 30
0.0
 10
51.286766
 20
50.267050
 30
0.0
 10
53.121491
 20
45.864494
 30
0.0
 10
53.976337
 20
53.813319
 30
0.0
 10
54.259335
 20
61.683628
 30
0.0
 10
55.343278
 20
65.221712
 30
0.0
 10
56.105862
 20
68.067312
 30
0.0
 10
58.741123
 20
73.886186
 30
0.0
 10
61.231894
 20
79.783500
 30
0.0
 10
64.274970
 20
84.626366
 30
0.0
 10
67.176447
 20
89.566622
 30
0.0
 10
68.645568
 20
92.651147
 30
0.0
 10
70.088403
 20
96.020628
 30
0.0
 10
71.737239
 20
100.224278
 30
0.0
 10
72.865453
 20
104.925388
 30
0.0
 10
73.664127
 20
111.475815
 30
0.0
 10
72.862932
 20
118.025731
 30
0.0
 10
68.384406
 20
125.619895
 30
0.0
 10
60.320295
 20
128.825102
 30
0.0
 10
55.445690
 20
126.904337
 30
0.0
 10
51.333438
 20
123.558215
 30
0.0
 10
50.533567
 20
114.063215
 30
0.0
 10
52.583517
 20
104.924914
 30
0.0
 10
48.848795
 20
110.950853
 30
0.0
 10
45.186462
 20
117.234519
 30
0.0
 10
42.773750
 20
125.072555
 30
0.0
 10
43.601100
 20
133.706139
 30
0.0
 10
48.061149
 20
138.096828
 30
0.0
 10
54.135922
 20
139.905324
 30
0.0
 10
61.936881
 20
138.303079
 30
0.0
 10
69.136338
 20
134.008042
 30
0.0
 10
75.409215
 20
127.532738
 30
0.0
 10
77.688929
 20
120.682714
 30
0.0
 10
78.524756
 20
115.467792
 30
0.0
 10
79.111099
 20
109.712983
 30
0.0
 10
78.795272
 20
105.056063
 30
0.0
 10
78.309551
 20
100.588141
 30
0.0
 10
77.836519
 20
97.345770
 30
0.0
 10
76.915023
 20
93.066548
 30
0.0
 10
74.803554
 20
83.932054
 30
0.0
 10
72.953154
 20
76.019347
 30
0.0
 10
70.101179
 20
68.520333
 30
0.0
 10
67.726068
 20
61.402554
 30
0.0
 10
65.967988
 20
56.169729
 30
0.0
 10
64.585845
 20
49.175969
 30
0.0
 10
63.121035
 20
42.102136
 30
0.0
 10
62.297577
 20
35.023882
 30
0.0
 10
62.881185
 20
26.295854
 30
0.0
 10
64.678507
 20
17.233728
 30
0.0
 10
65.724577
 20
12.342486
 30
0.0
 10
64.765889
 20
13.044924
 30
0.0
 10
65.130805
 20
9.200856
 30
0.0
 10
63.647542
 20
9.154454
 30
0.0
 10
61.047117
 20
12.649652
 30
0.0
 10
58.450386
 20
16.247598
 30
0.0
 10
50.746687
 20
24.475683
 30
0.0
 10
42.908181
 20
32.618437
 30
0.0
 10
35.708859
 20
40.319976
 30
0.0
 10
28.541865
 20
48.060419
 30
0.0
 10
23.724055
 20
52.425526
 30
0.0
 10
18.965654
 20
57.000947
 30
0.0
 10
12.857872
 20
60.959407
 30
0.0
 10
9.382257
 20
63.914352
 30
0.0
 10
10.501842
 20
80.028832
 30
0.0
 10
11.621430
 20
96.143318
 30
0.0
  0
LWPOLYLINE
  5
108
100
AcDbEntity
  8
L2
 62
7
100
AcDbPolyline
 90
65
 70
0
 10
61.794642
 20
145.730783
 30
0.0
 10
64.573831
 20
141.752561
 30
0.0
 10
66.752132
 20
137.016851
 30
0.0
 10
68.627133
 20
130.128715
 30
0.0
 10
69.817705
 20
122.833772
 30
0.0
 10
71.112366
 20
114.820102
 30
0.0
 10
71.519683
 20
106.528088
 30
0.0
 10
71.426402
 20
100.256855
 30
0.0
 10
72.388683
 20
93.771508
 30
0.0
 10
71.826899
 20
81.286723
 30
0.0
 10
71.034450
 20
73.749432
 30
0.0
 10
66.176222
 20
58.344016
 30
0.0
 10
61.317995
 20
42.938599
 30
0.0
 10
56.725861
 20
38.616103
 30
0.0
 10
49.844891
 20
31.853716
 30
0.0
 10
45.712043
 20
29.007443
 30
0.0
 10
40.984970
 20
27.580086
 30
0.0
 10
34.034601
 20
27.588710
 30
0.0
 10
28.686420
 20
30.608957
 30
0.0
 10
24.871964
 20
35.569718
 30
0.0
 10
23.171899
 20
40.049001
 30
0.0
 10
21.764963
 20
47.992936
 30
0.0
 10
20.720335
 20
56.381071
 30
0.0
 10
20.205839
 20
60.646885
 30
0.0
 10
19.791175
 20
65.866108
 30
0.0
 10
19.516631
 20
69.309495
 30
0.0
 10
19.553640
 20
74.352256
 30
0.0
 10
19.914507
 20
78.422544
 30
0.0
 10
20.381689
 20
85.261483
 30
0.0
 10
24.466675
 20
90.745357
 30
0.0
 10
29.007005
 20
90.300589
 30
0.0
 10
29.032784
 20
87.821625
 30
0.0
 10
28.777378
 20
83.853882
 30
0.0
 10
27.603600
 20
75.474753
 30
0.0
 10
26.374831
 20
64.632267
 30
0.0
 10
25.945722
 20
57.950874
 30
0.0
 10
25.908095
 20
49.804736
 30
0.0
 10
26.998487
 20
44.310000
 30
0.0
 10
29.106351
 20
37.525566
 30
0.0
 10
36.143010
 20
32.055101
 30
0.0
 10
44.954503
 20
32.750040
 30
0.0
 10
50.918069
 20
36.290340
 30
0.0
 10
56.224208
 20
42.557950
 30
0.0
 10
58.499655
 20
45.499165
 30
0.0
 10
59.251870
 20
46.955928
 30
0.0
 10
55.973260
 20
53.736160
 30
0.0
 10
50.787337
 20
64.201247
 30
0.0
 10
48.566329
 20
69.444995
 30
0.0
 10
46.262667
 20
76.159492
 30
0.0
 10
44.167782
 20
82.702829
 30
0.0
 10
42.215900
 20
91.046300
 30
0.0
 10
41.267245
 20
95.467088
 30
0.0
 10
40.278878
 20
100.612507
 30
0.0
 10
39.939331
 20
104.355152
 30
0.0
 10
39.602338
 20
108.443090
 30
0.0
 10
39.225633
 20
111.441037
 30
0.0
 10
39.403412
 20
115.563321
 30
0.0
 10
39.907906
 20
119.749860
 30
0.0
 10
40.397540
 20
125.546230
 30
0.0
 10
41.018303
 20
131.183404
 30
0.0
 10
42.596486
 20
138.152254
 30
0.0
 10
45.712846
 20
142.709374
 30
0.0
 10
50.950401
 20
146.015639
 30
0.0
 10
56.133467
 20
147.556038
 30
0.0
 10
61.794642
 20
145.730783
 30
0.0
  0
LWPOLYLINE
  5
109
100
AcDbEntity
  8
L2
 62
7
100
AcDbPolyline
 90
17
 70
0
 10
55.767605
 20
135.642607
 30
0.0
 10
48.906038
 20
135.348657
 30
0.0
 10
46.906010
 20
130.080804
 30
0.0
 10
47.993547
 20
120.414748
 30
0.0
 10
50.970412
 20
111.065812
 30
0.0
 10
54.143959
 20
102.002056
 30
0.0
 10
58.377328
 20
93.629668
 30
0.0
 10
61.874998
 20
87.676914
 30
0.0
 10
66.144596
 20
80.124446
 30
0.0
 10
68.227440
 20
77.930797
 30
0.0
 10
68.545239
 20
83.657937
 30
0.0
 10
67.901499
 20
92.539469
 30
0.0
 10
66.859301
 20
103.911350
 30
0.0
 10
66.737030
 20
109.757090
 30
0.0
 10
65.531939
 20
117.163078
 30
0.0
 10
63.016497
 20
126.336238
 30
0.0
 10
55.767605
 20
135.642607
 30
0.0
  0
LWPOLYLINE
  5
10a
100
AcDbEntity
  8
R
 62
7
100
AcDbPolyline
 90
95
 70
0
 10
78.825257
 20
34.340411
 30
0.0
 10
76.360026
 20
32.528391
 30
0.0
 10
73.661293
 20
29.691008
 30
0.0
 10
69.823503
 20
25.687051
 30
0.0
 10
65.461541
 20
20.888768
 30
0.0
 10
63.896280
 20
19.311490
 30
0.0
 10
63.463106
 20
18.431143
 30
0.0
 10
60.533377
 20
15.969931
 30
0.0
 10
57.324854
 20
12.962805
 30
0.0
 10
52.483117
 20
9.854085
 30
0.0
 10
47.475747
 20
7.017360
 30
0.0
 10
46.420854
 20
6.180404
 30
0.0
 10
44.736470
 20
5.740962
 30
0.0
 10
41.211057
 20
4.811375
 30
0.0
 10
37.356009
 20
4.535150
 30
0.0
 10
33.334803
 20
4.937546
 30
0.0
 10
29.465652
 20
6.088905
 30
0.0
 10
28.072337
 20
6.559688
 30
0.0
 10
26.856606
 20
7.769496
 30
0.0
 10
24.423371
 20
12.309193
 30
0.0
 10
24.749399
 20
17.736363
 30
0.0
 10
26.865925
 20
25.704899
 30
0.0
 10
30.522026
 20
33.080252
 30
0.0
 10
32.989368
 20
37.413746
 30
0.0
 10
35.367960
 20
41.796459
 30
0.0
 10
37.324412
 20
44.205209
 30
0.0
 10
38.435156
 20
45.573592
 30
0.0
 10
40.150952
 20
47.922691
 30
0.0
 10
38.744548
 20
48.749768
 30
0.0
 10
35.660573
 20
48.429579
 30
0.0
 10
32.573127
 20
48.314579
 30
0.0
 10
29.104571
 20
47.382867
 30
0.0
 10
27.230076
 20
45.148904
 30
0.0
 10
25.104875
 20
42.070683
 30
0.0
 10
23.260172
 20
39.001624
 30
0.0
 10
22.070275
 20
38.041072
 30
0.0
 10
20.777982
 20
36.941785
 30
0.0
 10
19.584456
 20
35.995240
 30
0.0
 10
17.892401
 20
35.389964
 30
0.0
 10
15.957376
 20
34.613133
 30
0.0
 10
14.255124
 20
33.719863
 30
0.0
 10
13.051489
 20
33.275668
 30
0.0
 10
11.887381
 20
33.411959
 30
0.0
 10
9.262635
 20
34.136508
 30
0.0
 10
8.918116
 20
36.343613
 30
0.0
 10
13.226867
 20
37.592505
 30
0.0
 10
16.528145
 20
41.544765
 30
0.0
 10
18.866550
 20
44.221487
 30
0.0
 10
18.766167
 20
46.635436
 30
0.0
 10
15.546525
 20
49.807952
 30
0.0
 10
14.875671
 20
54.520059
 30
0.0
 10
16.140185
 20
59.040403
 30
0.0
 10
18.383135
 20
63.118780
 30
0.0
 10
19.464077
 20
64.737409
 30
0.0
 10
20.775606
 20
66.085393
 30
0.0
 10
22.474609
 20
68.040735
 30
0.0
 10
24.347306
 20
69.806306
 30
0.0
 10
29.039496
 20
70.594886
 30
0.0
 10
33.056881
 20
69.234332
 30
0.0
 10
36.255052
 20
67.883693
 30
0.0
 10
37.542823
 20
64.415616
 30
0.0
 10
38.249618
 20
61.516031
 30
0.0
 10
39.403890
 20
59.484441
 30
0.0
 10
41.729759
 20
59.953404
 30
0.0
 10
44.055629
 20
60.422367
 30
0.0
 10
48.467612
 20
61.998964
 30
0.0
 10
53.009417
 20
63.708503
 30
0.0
 10
57.534065
 20
65.011153
 30
0.0
 10
61.964215
 20
66.569195
 30
0.0
 10
65.556063
 20
67.603503
 30
0.0
 10
68.896448
 20
67.321749
 30
0.0
 10
71.067874
 20
66.235100
 30
0.0
 10
72.003969
 20
64.145654
 30
0.0
 10
70.856684
 20
59.698184
 30
0.0
 10
68.359689
 20
55.757250
 30
0.0
 10
66.811091
 20
52.576651
 30
0.0
 10
64.547920
 20
49.555674
 30
0.0
 10
62.180948
 20
46.411495
 30
0.0
 10
59.896178
 20
43.653366
 30
0.0
 10
58.730256
 20
41.141354
 30
0.0
 10
57.404514
 20
38.688984
 30
0.0
 10
55.736999
 20
36.270288
 30
0.0
 10
54.001256
 20
33.231489
 30
0.0
 10
51.597637
 20
29.084233
 30
0.0
 10
50.886394
 20
27.822291
 30
0.0
 10
48.180959
 20
21.682146
 30
0.0
 10
46.850464
 20
15.089217
 30
0.0
 10
49.503452
 20
15.551593
 30
0.0
 10
51.985159
 20
16.750456
 30
0.0
 10
58.265190
 20
21.556825
 30
0.0
 10
64.400273
 20
26.558723
 30
0.0
 10
70.296818
 20
31.213944
 30
0.0
 10
76.432010
 20
35.538260
 30
0.0
 10
77.642664
 20
35.037138
 30
0.0
 10
78.825257
 20
34.340411
 30
0.0
  0
LWPOLYLINE
  5
10b
100
AcDbEntity
  8
U
 62
7
100
AcDbPolyline
 90
397
 70
0
 10
41.429050
 20
102.280927
 30
0.0
 10
42.673010
 20
101.194350
 30
0.0
 10
43.916970
 20
100.107774
 30
0.0
 10
45.160927
 20
99.021197
 30
0.0
 10
46.404887
 20
97.934621
 30
0.0
 10
47.519223
 20
96.822359
 30
0.0
 10
49.015791
 20
95.663852
 30
0.0
 10
50.604850
 20
94.478429
 30
0.0
 10
51.996669
 20
93.285426
 30
0.0
 10
56.711387
 20
89.334313
 30
0.0
 10
61.386520
 20
84.710833
 30
0.0
 10
65.480462
 20
79.952157
 30
0.0
 10
68.451610
 20
75.595459
 30
0.0
 10
70.753630
 20
72.268694
 30
0.0
 10
71.966933
 20
70.263956
 30
0.0
 10
72.667239
 20
68.287020
 30
0.0
 10
73.430269
 20
65.043674
 30
0.0
 10
73.741181
 20
63.646397
 30
0.0
 10
74.052089
 20
62.249124
 30
0.0
 10
74.363000
 20
60.851848
 30
0.0
 10
74.673911
 20
59.454571
 30
0.0
 10
74.517772
 20
59.087947
 30
0.0
 10
74.361675
 20
58.604102
 30
0.0
 10
74.205623
 20
58.003030
 30
0.0
 10
74.049613
 20
57.284737
 30
0.0
 10
73.874733
 20
56.468683
 30
0.0
 10
73.661980
 20
55.574466
 30
0.0
 10
73.411355
 20
54.602091
 30
0.0
 10
73.122860
 20
53.551554
 30
0.0
 10
72.344970
 20
52.258565
 30
0.0
 10
71.424397
 20
50.963486
 30
0.0
 10
70.374338
 20
49.724015
 30
0.0
 10
69.207991
 20
48.597858
 30
0.0
 10
68.176792
 20
47.801310
 30
0.0
 10
67.083850
 20
47.150736
 30
0.0
 10
65.936380
 20
46.677712
 30
0.0
 10
64.741605
 20
46.413807
 30
0.0
 10
64.081972
 20
46.471514
 30
0.0
 10
63.344113
 20
46.645259
 30
0.0
 10
62.528023
 20
46.935034
 30
0.0
 10
61.633707
 20
47.340847
 30
0.0
 10
62.420884
 20
46.207561
 30
0.0
 10
63.227632
 20
44.976598
 30
0.0
 10
64.053948
 20
43.647953
 30
0.0
 10
64.899836
 20
42.221628
 30
0.0
 10
68.703517
 20
35.167459
 30
0.0
 10
70.574615
 20
30.779407
 30
0.0
 10
71.201089
 20
27.029198
 30
0.0
 10
71.270891
 20
21.888558
 30
0.0
 10
71.271068
 20
21.500124
 30
0.0
 10
71.271245
 20
21.111690
 30
0.0
 10
71.271422
 20
20.723254
 30
0.0
 10
71.271599
 20
20.334820
 30
0.0
 10
71.096461
 20
20.085451
 30
0.0
 10
70.883501
 20
19.640664
 30
0.0
 10
70.632727
 20
19.000465
 30
0.0
 10
70.344132
 20
18.164848
 30
0.0
 10
70.112159
 20
17.854470
 30
0.0
 10
69.880187
 20
17.544089
 30
0.0
 10
69.648217
 20
17.233712
 30
0.0
 10
69.416245
 20
16.923331
 30
0.0
 10
69.377236
 20
16.806662
 30
0.0
 10
69.260160
 20
16.456659
 30
0.0
 10
69.065017
 20
15.873327
 30
0.0
 10
68.791808
 20
15.056666
 30
0.0
 10
68.210222
 20
14.709414
 30
0.0
 10
67.706228
 20
14.284037
 30
0.0
 10
67.279825
 20
13.780536
 30
0.0
 10
66.931012
 20
13.198912
 30
0.0
 10
66.582212
 20
12.674720
 30
0.0
 10
66.155741
 20
12.343530
 30
0.0
 10
65.651603
 20
12.205333
 30
0.0
 10
65.069794
 20
12.260139
 30
0.0
 10
64.410213
 20
12.201808
 30
0.0
 10
63.672510
 20
12.027386
 30
0.0
 10
62.856687
 20
11.736873
 30
0.0
 10
61.962741
 20
11.330270
 30
0.0
 10
61.342274
 20
11.202976
 30
0.0
 10
60.721764
 20
11.134303
 30
0.0
 10
60.101212
 20
11.124255
 30
0.0
 10
59.480620
 20
11.172823
 30
0.0
 10
57.527398
 20
11.356462
 30
0.0
 10
55.931483
 20
11.688930
 30
0.0
 10
54.402251
 20
12.188899
 30
0.0
 10
52.649082
 20
12.875035
 30
0.0
 10
51.853153
 20
13.185242
 30
0.0
 10
51.019307
 20
13.496024
 30
0.0
 10
50.147547
 20
13.807381
 30
0.0
 10
49.237871
 20
14.119313
 30
0.0
 10
48.207912
 20
14.739389
 30
0.0
 10
46.984902
 20
15.359380
 30
0.0
 10
45.568835
 20
15.979286
 30
0.0
 10
43.959717
 20
16.599103
 30
0.0
 10
43.474092
 20
16.851124
 30
0.0
 10
42.017131
 20
17.607198
 30
0.0
 10
39.588828
 20
18.867321
 30
0.0
 10
36.189189
 20
20.631497
 30
0.0
 10
33.182073
 20
22.202792
 30
0.0
 10
29.285974
 20
23.705605
 30
0.0
 10
25.503556
 20
25.221214
 30
0.0
 10
22.837483
 20
26.830897
 30
0.0
 10
22.373185
 20
26.987009
 30
0.0
 10
21.908888
 20
27.143118
 30
0.0
 10
21.444590
 20
27.299229
 30
0.0
 10
20.980292
 20
27.455338
 30
0.0
 10
20.359639
 20
27.687169
 30
0.0
 10
19.738985
 20
27.919000
 30
0.0
 10
19.118332
 20
28.150829
 30
0.0
 10
18.497679
 20
28.382660
 30
0.0
 10
18.031084
 20
28.382447
 30
0.0
 10
17.564488
 20
28.382235
 30
0.0
 10
17.097893
 20
28.382023
 30
0.0
 10
16.631298
 20
28.381810
 30
0.0
 10
16.612431
 20
27.006880
 30
0.0
 10
16.554294
 20
25.980103
 30
0.0
 10
16.456886
 20
25.301484
 30
0.0
 10
16.320207
 20
24.971024
 30
0.0
 10
16.088165
 20
24.814598
 30
0.0
 10
15.856123
 20
24.658173
 30
0.0
 10
15.624081
 20
24.501744
 30
0.0
 10
15.392039
 20
24.345318
 30
0.0
 10
14.985412
 20
25.394963
 30
0.0
 10
14.694845
 20
26.365323
 30
0.0
 10
14.520338
 20
27.256394
 30
0.0
 10
14.461891
 20
28.068183
 30
0.0
 10
13.698563
 20
32.352768
 30
0.0
 10
12.878732
 20
35.879589
 30
0.0
 10
11.683374
 20
39.460315
 30
0.0
 10
9.793467
 20
43.906609
 30
0.0
 10
9.695935
 20
44.951647
 30
0.0
 10
9.404044
 20
46.229905
 30
0.0
 10
8.917796
 20
47.741387
 30
0.0
 10
8.237189
 20
49.486092
 30
0.0
 10
8.236764
 20
50.419282
 30
0.0
 10
8.236339
 20
51.352472
 30
0.0
 10
8.235915
 20
52.285662
 30
0.0
 10
8.235490
 20
53.218853
 30
0.0
 10
8.083306
 20
53.351397
 30
0.0
 10
7.929920
 20
53.446058
 30
0.0
 10
7.775332
 20
53.502841
 30
0.0
 10
7.619541
 20
53.521736
 30
0.0
 10
7.775315
 20
53.541336
 30
0.0
 10
7.929850
 20
53.600018
 30
0.0
 10
8.083149
 20
53.697799
 30
0.0
 10
8.235210
 20
53.834673
 30
0.0
 10
8.332062
 20
54.514452
 30
0.0
 10
8.623184
 20
55.000120
 30
0.0
 10
9.108577
 20
55.291673
 30
0.0
 10
9.788240
 20
55.389118
 30
0.0
 10
12.663822
 20
54.912734
 30
0.0
 10
14.655425
 20
54.155360
 30
0.0
 10
16.542062
 20
53.163265
 30
0.0
 10
19.102746
 20
51.982713
 30
0.0
 10
19.492667
 20
51.420348
 30
0.0
 10
20.036457
 20
50.974125
 30
0.0
 10
20.734117
 20
50.644045
 30
0.0
 10
21.585645
 20
50.430105
 30
0.0
 10
23.129615
 20
49.176993
 30
0.0
 10
24.855714
 20
47.864443
 30
0.0
 10
26.576768
 20
46.826485
 30
0.0
 10
28.105602
 20
46.397142
 30
0.0
 10
28.105637
 20
46.318981
 30
0.0
 10
28.105673
 20
46.240822
 30
0.0
 10
28.105708
 20
46.162661
 30
0.0
 10
28.105744
 20
46.084499
 30
0.0
 10
28.029952
 20
46.084465
 30
0.0
 10
27.954160
 20
46.084430
 30
0.0
 10
27.878368
 20
46.084396
 30
0.0
 10
27.802575
 20
46.084361
 30
0.0
 10
28.501425
 20
45.774407
 30
0.0
 10
29.200275
 20
45.464450
 30
0.0
 10
29.899125
 20
45.154496
 30
0.0
 10
30.597975
 20
44.844539
 30
0.0
 10
32.596661
 20
43.389613
 30
0.0
 10
36.417502
 20
41.385356
 30
0.0
 10
40.510218
 20
39.482611
 30
0.0
 10
43.324537
 20
38.332211
 30
0.0
 10
45.434071
 20
37.634553
 30
0.0
 10
47.945595
 20
36.494115
 30
0.0
 10
50.397128
 20
35.264767
 30
0.0
 10
52.326685
 20
34.300378
 30
0.0
 10
55.075040
 20
32.884673
 30
0.0
 10
58.150448
 20
31.418870
 30
0.0
 10
61.187288
 20
30.696423
 30
0.0
 10
63.819935
 20
31.510777
 30
0.0
 10
63.722063
 20
33.236174
 30
0.0
 10
63.429941
 20
35.001756
 30
0.0
 10
62.943567
 20
36.807520
 30
0.0
 10
62.262946
 20
38.653474
 30
0.0
 10
62.126100
 20
38.844651
 30
0.0
 10
62.028283
 20
39.115204
 30
0.0
 10
61.969497
 20
39.465128
 30
0.0
 10
61.949744
 20
39.894427
 30
0.0
 10
61.387133
 20
40.143438
 30
0.0
 10
60.940475
 20
40.587918
 30
0.0
 10
60.609772
 20
41.227859
 30
0.0
 10
60.395019
 20
42.063269
 30
0.0
 10
60.241067
 20
42.063199
 30
0.0
 10
60.087112
 20
42.063129
 30
0.0
 10
59.933159
 20
42.063058
 30
0.0
 10
59.779207
 20
42.062988
 30
0.0
 10
58.282697
 20
44.391840
 30
0.0
 10
56.940222
 20
46.586447
 30
0.0
 10
55.772962
 20
48.304607
 30
0.0
 10
54.802100
 20
49.204129
 30
0.0
 10
53.018299
 20
49.902026
 30
0.0
 10
51.234500
 20
50.599923
 30
0.0
 10
49.450699
 20
51.297817
 30
0.0
 10
47.666897
 20
51.995714
 30
0.0
 10
46.918382
 20
52.645481
 30
0.0
 10
45.306397
 20
53.711423
 30
0.0
 10
43.632009
 20
54.733711
 30
0.0
 10
42.696294
 20
55.252512
 30
0.0
 10
42.132228
 20
55.474870
 30
0.0
 10
41.685981
 20
55.678349
 30
0.0
 10
41.357551
 20
55.862951
 30
0.0
 10
41.146941
 20
56.028677
 30
0.0
 10
40.291850
 20
56.238468
 30
0.0
 10
39.593004
 20
56.565586
 30
0.0
 10
39.050404
 20
57.010034
 30
0.0
 10
38.664046
 20
57.571811
 30
0.0
 10
37.730713
 20
57.884029
 30
0.0
 10
36.797381
 20
58.196244
 30
0.0
 10
35.864048
 20
58.508463
 30
0.0
 10
34.930716
 20
58.820681
 30
0.0
 10
33.845624
 20
59.516528
 30
0.0
 10
32.760535
 20
60.212372
 30
0.0
 10
31.675444
 20
60.908219
 30
0.0
 10
30.590352
 20
61.604067
 30
0.0
 10
29.813269
 20
62.070308
 30
0.0
 10
29.036190
 20
62.536550
 30
0.0
 10
28.259107
 20
63.002788
 30
0.0
 10
27.482026
 20
63.469030
 30
0.0
 10
27.345278
 20
63.488469
 30
0.0
 10
27.247564
 20
63.547034
 30
0.0
 10
27.188886
 20
63.644718
 30
0.0
 10
27.169240
 20
63.781519
 30
0.0
 10
26.665831
 20
64.099233
 30
0.0
 10
26.084224
 20
64.437062
 30
0.0
 10
25.424419
 20
64.795009
 30
0.0
 10
24.686415
 20
65.173071
 30
0.0
 10
23.870912
 20
65.590118
 30
0.0
 10
22.978377
 20
66.065177
 30
0.0
 10
22.008810
 20
66.598252
 30
0.0
 10
20.962210
 20
67.189339
 30
0.0
 10
19.564475
 20
67.887411
 30
0.0
 10
18.166740
 20
68.585484
 30
0.0
 10
16.769005
 20
69.283557
 30
0.0
 10
15.371271
 20
69.981629
 30
0.0
 10
15.351992
 20
69.517362
 30
0.0
 10
15.293599
 20
69.053097
 30
0.0
 10
15.196093
 20
68.588836
 30
0.0
 10
15.059474
 20
68.124581
 30
0.0
 10
15.215795
 20
68.124652
 30
0.0
 10
15.372117
 20
68.124723
 30
0.0
 10
15.528438
 20
68.124794
 30
0.0
 10
15.684759
 20
68.124865
 30
0.0
 10
15.935003
 20
67.425647
 30
0.0
 10
16.069087
 20
66.881535
 30
0.0
 10
16.087013
 20
66.492525
 30
0.0
 10
15.988778
 20
66.258623
 30
0.0
 10
15.678504
 20
66.258482
 30
0.0
 10
15.368231
 20
66.258340
 30
0.0
 10
15.057957
 20
66.258199
 30
0.0
 10
14.747683
 20
66.258058
 30
0.0
 10
14.576154
 20
66.605229
 30
0.0
 10
14.364884
 20
67.031158
 30
0.0
 10
14.113872
 20
67.535841
 30
0.0
 10
13.823119
 20
68.119279
 30
0.0
 10
12.525443
 20
70.708123
 30
0.0
 10
11.398233
 20
73.303304
 30
0.0
 10
10.438432
 20
75.892736
 30
0.0
 10
9.642985
 20
78.464316
 30
0.0
 10
9.168970
 20
80.303704
 30
0.0
 10
8.777944
 20
82.122914
 30
0.0
 10
8.468753
 20
83.917394
 30
0.0
 10
8.240248
 20
85.682584
 30
0.0
 10
8.029678
 20
88.733557
 30
0.0
 10
8.063900
 20
91.652018
 30
0.0
 10
8.336448
 20
94.412383
 30
0.0
 10
8.840858
 20
96.989068
 30
0.0
 10
9.656330
 20
96.852612
 30
0.0
 10
10.548725
 20
96.755301
 30
0.0
 10
11.518044
 20
96.697136
 30
0.0
 10
12.564287
 20
96.678111
 30
0.0
 10
14.350703
 20
95.437829
 30
0.0
 10
16.137120
 20
94.197545
 30
0.0
 10
17.923536
 20
92.957263
 30
0.0
 10
19.709952
 20
91.716978
 30
0.0
 10
20.037820
 20
91.541518
 30
0.0
 10
20.405346
 20
91.327616
 30
0.0
 10
20.812532
 20
91.075275
 30
0.0
 10
21.259377
 20
90.784493
 30
0.0
 10
24.000562
 20
89.224420
 30
0.0
 10
26.839769
 20
87.599223
 30
0.0
 10
29.761332
 20
85.937256
 30
0.0
 10
32.749585
 20
84.266867
 30
0.0
 10
32.749619
 20
84.191076
 30
0.0
 10
32.749654
 20
84.115283
 30
0.0
 10
32.749688
 20
84.039492
 30
0.0
 10
32.749723
 20
83.963698
 30
0.0
 10
32.827884
 20
83.963734
 30
0.0
 10
32.906045
 20
83.963769
 30
0.0
 10
32.984204
 20
83.963805
 30
0.0
 10
33.062365
 20
83.963841
 30
0.0
 10
33.683054
 20
83.653851
 30
0.0
 10
34.303745
 20
83.343858
 30
0.0
 10
34.924434
 20
83.033865
 30
0.0
 10
35.545123
 20
82.723876
 30
0.0
 10
37.639437
 20
81.576656
 30
0.0
 10
39.269414
 20
80.624655
 30
0.0
 10
40.435048
 20
79.867870
 30
0.0
 10
41.136347
 20
79.306302
 30
0.0
 10
41.464198
 20
79.140617
 30
0.0
 10
41.831707
 20
78.956028
 30
0.0
 10
42.238874
 20
78.752536
 30
0.0
 10
42.685699
 20
78.530137
 30
0.0
 10
43.191239
 20
78.249660
 30
0.0
 10
43.774372
 20
77.872137
 30
0.0
 10
44.435093
 20
77.397568
 30
0.0
 10
45.173403
 20
76.825947
 30
0.0
 10
45.530276
 20
76.640737
 30
0.0
 10
45.984855
 20
76.397567
 30
0.0
 10
46.537137
 20
76.096439
 30
0.0
 10
47.187129
 20
75.737353
 30
0.0
 10
49.864534
 20
74.621084
 30
0.0
 10
52.430256
 20
73.393978
 30
0.0
 10
54.974358
 20
72.214705
 30
0.0
 10
57.586903
 20
71.241928
 30
0.0
 10
57.878449
 20
70.816289
 30
0.0
 10
58.752593
 20
70.467914
 30
0.0
 10
60.209339
 20
70.196803
 30
0.0
 10
62.248683
 20
70.002955
 30
0.0
 10
62.637117
 20
70.003132
 30
0.0
 10
63.025554
 20
70.003309
 30
0.0
 10
63.413987
 20
70.003486
 30
0.0
 10
63.802421
 20
70.003663
 30
0.0
 10
63.743556
 20
70.584478
 30
0.0
 10
63.567333
 20
71.398558
 30
0.0
 10
63.273746
 20
72.445906
 30
0.0
 10
62.862798
 20
73.726523
 30
0.0
 10
62.708739
 20
73.960934
 30
0.0
 10
62.554680
 20
74.195345
 30
0.0
 10
62.400621
 20
74.429757
 30
0.0
 10
62.246562
 20
74.664168
 30
0.0
 10
61.230788
 20
76.317720
 30
0.0
 10
59.970929
 20
78.337618
 30
0.0
 10
58.372463
 20
80.381763
 30
0.0
 10
56.340862
 20
82.108055
 30
0.0
 10
55.631544
 20
83.515254
 30
0.0
 10
54.437710
 20
85.016127
 30
0.0
 10
53.110077
 20
86.381724
 30
0.0
 10
51.999362
 20
87.383105
 30
0.0
 10
50.920333
 20
88.822032
 30
0.0
 10
49.707982
 20
90.061604
 30
0.0
 10
48.475453
 20
91.202491
 30
0.0
 10
47.335889
 20
92.345365
 30
0.0
 10
46.102787
 20
93.714047
 30
0.0
 10
45.199647
 20
94.714018
 30
0.0
 10
44.626468
 20
95.345274
 30
0.0
 10
44.383248
 20
95.607819
 30
0.0
 10
44.295912
 20
95.676123
 30
0.0
 10
44.190206
 20
95.724907
 30
0.0
 10
44.066130
 20
95.754177
 30
0.0
 10
43.923688
 20
95.763933
 30
0.0
 10
44.193128
 20
95.783557
 30
0.0
 10
44.385555
 20
95.842248
 30
0.0
 10
44.500964
 20
95.940018
 30
0.0
 10
44.539358
 20
96.076865
 30
0.0
 10
44.403492
 20
96.735792
 30
0.0
 10
43.996379
 20
97.471600
 30
0.0
 10
43.318015
 20
98.284297
 30
0.0
 10
42.368398
 20
99.173878
 30
0.0
 10
42.368292
 20
99.408360
 30
0.0
 10
42.368185
 20
99.642841
 30
0.0
 10
42.368078
 20
99.877326
 30
0.0
 10
42.367971
 20
100.111807
 30
0.0
 10
42.289810
 20
100.111772
 30
0.0
 10
42.211651
 20
100.111736
 30
0.0
 10
42.133490
 20
100.111700
 30
0.0
 10
42.055329
 20
100.111665
 30
0.0
 10
41.918511
 20
100.263729
 30
0.0
 10
41.820753
 20
100.417027
 30
0.0
 10
41.762051
 20
100.571562
 30
0.0
 10
41.742394
 20
100.727331
 30
0.0
 10
41.722813
 20
100.902543
 30
0.0
 10
41.664107
 20
101.115665
 30
0.0
 10
41.566279
 20
101.366699
 30
0.0
 10
41.429331
 20
101.655644
 30
0.0
 10
41.353505
 20
101.733771
 30
0.0
 10
41.277679
 20
101.811895
 30
0.0
 10
41.201849
 20
101.890022
 30
0.0
 10
41.126023
 20
101.968149
 30
0.0
 10
41.201778
 20
102.046342
 30
0.0
 10
41.277536
 20
102.124538
 30
0.0
 10
41.353291
 20
102.202733
 30
0.0
 10
41.429050
 20
102.280927
 30
0.0
  0
LWPOLYLINE
  5
10c
100
AcDbEntity
  8
t
 62
7
100
AcDbPolyline
 90
156
 70
0
 10
59.387572
 20
140.257923
 30
0.0
 10
59.871660
 20
136.993026
 30
0.0
 10
59.220319
 20
133.799721
 30
0.0
 10
58.306079
 20
130.990482
 30
0.0
 10
58.001463
 20
128.877778
 30
0.0
 10
57.222822
 20
125.809914
 30
0.0
 10
56.369094
 20
122.872258
 30
0.0
 10
55.574145
 20
119.834219
 30
0.0
 10
54.971833
 20
116.465209
 30
0.0
 10
54.586747
 20
113.887965
 30
0.0
 10
54.048056
 20
111.206049
 30
0.0
 10
53.633677
 20
108.566304
 30
0.0
 10
53.621529
 20
106.115569
 30
0.0
 10
53.510593
 20
104.616073
 30
0.0
 10
56.241544
 20
105.730281
 30
0.0
 10
60.080067
 20
107.819671
 30
0.0
 10
63.291842
 20
109.245716
 30
0.0
 10
65.049069
 20
110.555173
 30
0.0
 10
67.229354
 20
111.507714
 30
0.0
 10
68.778835
 20
111.379928
 30
0.0
 10
68.643650
 20
109.448404
 30
0.0
 10
68.210927
 20
107.481450
 30
0.0
 10
68.145147
 20
105.667424
 30
0.0
 10
68.064611
 20
104.050584
 30
0.0
 10
67.587602
 20
102.675186
 30
0.0
 10
66.672932
 20
101.812688
 30
0.0
 10
65.259070
 20
101.117371
 30
0.0
 10
63.483708
 20
100.557397
 30
0.0
 10
61.484533
 20
100.100924
 30
0.0
 10
58.718681
 20
99.065709
 30
0.0
 10
55.801501
 20
97.934884
 30
0.0
 10
53.358148
 20
96.371231
 30
0.0
 10
52.013777
 20
94.037533
 30
0.0
 10
51.727061
 20
91.650913
 30
0.0
 10
51.333663
 20
89.527974
 30
0.0
 10
50.833479
 20
87.517470
 30
0.0
 10
50.226406
 20
85.468161
 30
0.0
 10
49.418753
 20
77.798194
 30
0.0
 10
49.032424
 20
74.034152
 30
0.0
 10
48.707571
 20
70.203607
 30
0.0
 10
48.226127
 20
67.227996
 30
0.0
 10
48.025154
 20
64.280960
 30
0.0
 10
47.875951
 20
61.336027
 30
0.0
 10
47.549816
 20
58.366729
 30
0.0
 10
47.259166
 20
54.788298
 30
0.0
 10
47.043481
 20
51.197065
 30
0.0
 10
46.646540
 20
47.636697
 30
0.0
 10
45.812120
 20
44.150865
 30
0.0
 10
45.797468
 20
39.004393
 30
0.0
 10
45.752393
 20
33.856094
 30
0.0
 10
45.725683
 20
28.708447
 30
0.0
 10
45.766127
 20
23.563938
 30
0.0
 10
45.804258
 20
22.454222
 30
0.0
 10
46.458771
 20
20.579887
 30
0.0
 10
47.304839
 20
18.442286
 30
0.0
 10
47.917638
 20
16.542763
 30
0.0
 10
49.727057
 20
13.979184
 30
0.0
 10
52.768362
 20
14.261545
 30
0.0
 10
55.838310
 20
16.345804
 30
0.0
 10
57.733660
 20
19.187914
 30
0.0
 10
58.948362
 20
21.898344
 30
0.0
 10
60.200355
 20
24.692614
 30
0.0
 10
61.290080
 20
27.379749
 30
0.0
 10
62.017983
 20
29.768765
 30
0.0
 10
63.026797
 20
32.711541
 30
0.0
 10
63.579767
 20
35.737441
 30
0.0
 10
64.014994
 20
38.792162
 30
0.0
 10
64.670589
 20
41.821392
 30
0.0
 10
64.999735
 20
43.551439
 30
0.0
 10
66.003568
 20
45.095284
 30
0.0
 10
67.435095
 20
45.782222
 30
0.0
 10
69.047324
 20
44.941543
 30
0.0
 10
68.204966
 20
42.508587
 30
0.0
 10
67.341924
 20
40.056702
 30
0.0
 10
66.786120
 20
37.567719
 30
0.0
 10
66.865475
 20
35.023471
 30
0.0
 10
65.915282
 20
30.690129
 30
0.0
 10
64.268663
 20
26.560416
 30
0.0
 10
62.274741
 20
22.543980
 30
0.0
 10
60.282637
 20
18.550473
 30
0.0
 10
58.408973
 20
15.140285
 30
0.0
 10
56.251601
 20
12.534102
 30
0.0
 10
53.805348
 20
10.515431
 30
0.0
 10
51.065043
 20
8.867787
 30
0.0
 10
47.362866
 20
7.380578
 30
0.0
 10
43.399903
 20
6.380404
 30
0.0
 10
39.369781
 20
5.835076
 30
0.0
 10
35.466128
 20
5.712408
 30
0.0
 10
34.119276
 20
5.908498
 30
0.0
 10
32.318774
 20
6.749387
 30
0.0
 10
30.466557
 20
7.922128
 30
0.0
 10
28.964553
 20
9.113781
 30
0.0
 10
26.492854
 20
12.464784
 30
0.0
 10
24.668372
 20
16.088555
 30
0.0
 10
23.602052
 20
19.978057
 30
0.0
 10
23.404851
 20
24.126247
 30
0.0
 10
23.432228
 20
26.771204
 30
0.0
 10
23.459606
 20
29.416162
 30
0.0
 10
23.486983
 20
32.061120
 30
0.0
 10
23.514361
 20
34.706078
 30
0.0
 10
24.222194
 20
39.090714
 30
0.0
 10
24.740658
 20
43.639131
 30
0.0
 10
25.177387
 20
48.269025
 30
0.0
 10
25.640020
 20
52.898090
 30
0.0
 10
25.946877
 20
56.288949
 30
0.0
 10
26.450954
 20
59.577501
 30
0.0
 10
27.011180
 20
62.833698
 30
0.0
 10
27.486479
 20
66.127503
 30
0.0
 10
27.774292
 20
68.740488
 30
0.0
 10
28.117565
 20
71.885649
 30
0.0
 10
28.539838
 20
75.351480
 30
0.0
 10
28.875268
 20
77.772180
 30
0.0
 10
29.079698
 20
79.624421
 30
0.0
 10
29.028211
 20
82.432459
 30
0.0
 10
27.665244
 20
83.952547
 30
0.0
 10
25.683876
 20
83.658197
 30
0.0
 10
23.839243
 20
82.676625
 30
0.0
 10
21.124812
 20
81.571083
 30
0.0
 10
18.668632
 20
80.962603
 30
0.0
 10
16.771775
 20
80.902158
 30
0.0
 10
16.010245
 20
81.372197
 30
0.0
 10
15.687396
 20
82.226859
 30
0.0
 10
15.656018
 20
83.326747
 30
0.0
 10
15.724811
 20
84.139326
 30
0.0
 10
15.757943
 20
84.847273
 30
0.0
 10
15.849762
 20
86.099607
 30
0.0
 10
16.071571
 20
87.326194
 30
0.0
 10
16.516712
 20
88.153471
 30
0.0
 10
17.702544
 20
88.767033
 30
0.0
 10
19.201176
 20
89.158806
 30
0.0
 10
20.806853
 20
89.549216
 30
0.0
 10
22.313822
 20
90.158690
 30
0.0
 10
24.945131
 20
91.289983
 30
0.0
 10
27.548298
 20
92.484524
 30
0.0
 10
30.140024
 20
93.704777
 30
0.0
 10
32.737007
 20
94.913216
 30
0.0
 10
33.161856
 20
98.498749
 30
0.0
 10
33.708940
 20
102.177623
 30
0.0
 10
34.348415
 20
105.866142
 30
0.0
 10
35.050434
 20
109.480614
 30
0.0
 10
35.195579
 20
111.409737
 30
0.0
 10
35.559658
 20
113.318678
 30
0.0
 10
35.992037
 20
115.105468
 30
0.0
 10
36.342075
 20
116.668147
 30
0.0
 10
36.486470
 20
120.208566
 30
0.0
 10
36.809732
 20
123.582721
 30
0.0
 10
37.880916
 20
126.549994
 30
0.0
 10
40.269071
 20
128.869781
 30
0.0
 10
41.752421
 20
130.485478
 30
0.0
 10
43.287231
 20
132.145641
 30
0.0
 10
44.990108
 20
133.783076
 30
0.0
 10
46.977653
 20
135.330597
 30
0.0
 10
50.036435
 20
136.768486
 30
0.0
 10
53.133953
 20
138.735804
 30
0.0
 10
56.255805
 20
140.232345
 30
0.0
 10
59.387572
 20
140.257923
 30
0.0
  0
LWPOLYLINE
  5
10d
100
AcDbEntity
  8
h
 62
7
100
AcDbPolyline
 90
141
 70
0
 10
49.723249
 20
143.196877
 30
0.0
 10
48.103581
 20
140.832058
 30
0.0
 10
44.492198
 20
138.629336
 30
0.0
 10
40.484973
 20
136.283686
 30
0.0
 10
37.677779
 20
133.490078
 30
0.0
 10
35.184136
 20
129.135166
 30
0.0
 10
33.741236
 20
124.724118
 30
0.0
 10
32.902248
 20
120.146753
 30
0.0
 10
32.220340
 20
115.292892
 30
0.0
 10
31.420491
 20
112.553708
 30
0.0
 10
31.182064
 20
109.410627
 30
0.0
 10
30.934948
 20
105.726188
 30
0.0
 10
30.109025
 20
101.362936
 30
0.0
 10
29.192265
 20
95.949773
 30
0.0
 10
28.669694
 20
90.036867
 30
0.0
 10
28.465805
 20
84.129934
 30
0.0
 10
28.505091
 20
78.734689
 30
0.0
 10
29.883196
 20
79.743170
 30
0.0
 10
32.755575
 20
83.947356
 30
0.0
 10
35.990014
 20
89.143961
 30
0.0
 10
38.454293
 20
93.129695
 30
0.0
 10
42.427723
 20
97.330342
 30
0.0
 10
46.639613
 20
101.691395
 30
0.0
 10
51.366962
 20
105.332897
 30
0.0
 10
56.886769
 20
107.374879
 30
0.0
 10
60.850091
 20
107.002436
 30
0.0
 10
63.264692
 20
104.276003
 30
0.0
 10
64.209303
 20
100.384195
 30
0.0
 10
63.762656
 20
96.515628
 30
0.0
 10
63.568306
 20
91.219757
 30
0.0
 10
62.789966
 20
85.930040
 30
0.0
 10
61.857690
 20
80.576982
 30
0.0
 10
61.201540
 20
75.091092
 30
0.0
 10
60.546186
 20
68.720767
 30
0.0
 10
60.289333
 20
62.069895
 30
0.0
 10
60.928747
 20
55.415773
 30
0.0
 10
62.962195
 20
49.035699
 30
0.0
 10
67.046176
 20
52.299176
 30
0.0
 10
69.187898
 20
55.137329
 30
0.0
 10
70.323930
 20
57.389355
 30
0.0
 10
71.390840
 20
58.894461
 30
0.0
 10
73.322290
 20
63.553540
 30
0.0
 10
74.895233
 20
69.445099
 30
0.0
 10
76.290274
 20
74.446280
 30
0.0
 10
77.688019
 20
76.434219
 30
0.0
 10
76.261781
 20
71.671742
 30
0.0
 10
75.248728
 20
66.329360
 30
0.0
 10
74.269281
 20
60.695696
 30
0.0
 10
72.943864
 20
55.059360
 30
0.0
 10
69.790866
 20
48.896877
 30
0.0
 10
65.903348
 20
42.961464
 30
0.0
 10
61.225255
 20
38.139791
 30
0.0
 10
55.700526
 20
35.318528
 30
0.0
 10
52.319611
 20
34.321798
 30
0.0
 10
49.895032
 20
34.202655
 30
0.0
 10
47.492866
 20
35.173014
 30
0.0
 10
44.179199
 20
37.444796
 30
0.0
 10
41.822020
 20
41.403270
 30
0.0
 10
40.922321
 20
46.045989
 30
0.0
 10
40.673982
 20
50.983159
 30
0.0
 10
40.270884
 20
55.824989
 30
0.0
 10
39.956918
 20
61.133598
 30
0.0
 10
40.578518
 20
66.360096
 30
0.0
 10
41.403451
 20
71.581964
 30
0.0
 10
41.699488
 20
76.876679
 30
0.0
 10
42.386956
 20
82.015751
 30
0.0
 10
41.764238
 20
85.311062
 30
0.0
 10
39.761691
 20
85.678953
 30
0.0
 10
36.309664
 20
82.035757
 30
0.0
 10
33.852104
 20
78.868078
 30
0.0
 10
31.089419
 20
75.433702
 30
0.0
 10
28.853929
 20
72.173959
 30
0.0
 10
27.977945
 20
69.530174
 30
0.0
 10
28.018583
 20
67.879279
 30
0.0
 10
28.000490
 20
66.276954
 30
0.0
 10
28.018984
 20
64.039885
 30
0.0
 10
28.088911
 20
61.925383
 30
0.0
 10
28.210968
 20
59.770603
 30
0.0
 10
28.374125
 20
56.028059
 30
0.0
 10
28.383551
 20
51.706032
 30
0.0
 10
28.249411
 20
48.585445
 30
0.0
 10
28.045975
 20
46.209650
 30
0.0
 10
27.740189
 20
42.064170
 30
0.0
 10
27.471878
 20
37.494560
 30
0.0
 10
27.330902
 20
34.411883
 30
0.0
 10
27.166910
 20
32.743481
 30
0.0
 10
26.928795
 20
30.071782
 30
0.0
 10
27.053500
 20
27.209575
 30
0.0
 10
27.494209
 20
25.223656
 30
0.0
 10
27.046443
 20
23.794861
 30
0.0
 10
25.640551
 20
21.470518
 30
0.0
 10
24.059322
 20
19.487428
 30
0.0
 10
23.319329
 20
18.627386
 30
0.0
 10
22.481541
 20
18.029913
 30
0.0
 10
21.643752
 20
17.432441
 30
0.0
 10
20.805964
 20
16.834968
 30
0.0
 10
19.968175
 20
16.237495
 30
0.0
 10
19.707036
 20
16.066705
 30
0.0
 10
19.045251
 20
15.685691
 30
0.0
 10
18.165266
 20
15.291491
 30
0.0
 10
17.249529
 20
15.081143
 30
0.0
 10
14.003976
 20
12.976773
 30
0.0
 10
11.992985
 20
13.126785
 30
0.0
 10
10.964382
 20
15.857212
 30
0.0
 10
10.671617
 20
19.159341
 30
0.0
 10
10.678455
 20
21.708861
 30
0.0
 10
10.688892
 20
25.534219
 30
0.0
 10
10.665191
 20
29.675322
 30
0.0
 10
10.615130
 20
32.751082
 30
0.0
 10
10.621897
 20
34.709487
 30
0.0
 10
10.686944
 20
37.848218
 30
0.0
 10
10.795084
 20
41.365435
 30
0.0
 10
10.873673
 20
43.954644
 30
0.0
 10
10.996746
 20
45.147941
 30
0.0
 10
11.242970
 20
47.002220
 30
0.0
 10
11.497051
 20
49.861814
 30
0.0
 10
11.633220
 20
52.730637
 30
0.0
 10
11.641433
 20
55.811832
 30
0.0
 10
11.615533
 20
61.218705
 30
0.0
 10
11.530558
 20
66.927135
 30
0.0
 10
11.375110
 20
71.907911
 30
0.0
 10
11.614322
 20
74.037500
 30
0.0
 10
11.493954
 20
76.868901
 30
0.0
 10
11.326311
 20
79.966202
 30
0.0
 10
11.423700
 20
82.893507
 30
0.0
 10
11.652613
 20
89.590626
 30
0.0
 10
12.594268
 20
96.221973
 30
0.0
 10
14.027812
 20
102.783251
 30
0.0
 10
15.732390
 20
109.270157
 30
0.0
 10
17.826395
 20
115.400957
 30
0.0
 10
20.655118
 20
121.268047
 30
0.0
 10
24.115421
 20
126.852686
 30
0.0
 10
28.104162
 20
132.136134
 30
0.0
 10
30.670576
 20
134.977375
 30
0.0
 10
33.243650
 20
137.555913
 30
0.0
 10
35.782346
 20
140.024440
 30
0.0
 10
38.245627
 20
142.535657
 30
0.0
 10
41.650593
 20
144.368191
 30
0.0
 10
45.440532
 20
145.047323
 30
0.0
 10
48.502423
 20
144.635926
 30
0.0
 10
49.723249
 20
143.196877
 30
0.0
  0
LWPOLYLINE
  5
10e
100
AcDbEntity
  8
a
 62
7
100
AcDbPolyline
 90
165
 70
0
 10
43.016352
 20
100.149331
 30
0.0
 10
45.051806
 20
98.178264
 30
0.0
 10
46.959687
 20
96.000805
 30
0.0
 10
48.827150
 20
93.753232
 30
0.0
 10
50.741337
 20
91.571822
 30
0.0
 10
52.464300
 20
89.513672
 30
0.0
 10
54.367753
 20
87.654858
 30
0.0
 10
56.296308
 20
85.789952
 30
0.0
 10
58.094573
 20
83.713532
 30
0.0
 10
59.055091
 20
82.722001
 30
0.0
 10
60.141511
 20
81.684264
 30
0.0
 10
61.505205
 20
80.160113
 30
0.0
 10
62.630370
 20
78.702040
 30
0.0
 10
63.869869
 20
77.153407
 30
0.0
 10
66.106806
 20
74.407817
 30
0.0
 10
68.507887
 20
71.164407
 30
0.0
 10
70.020967
 20
68.786067
 30
0.0
 10
70.635413
 20
67.258956
 30
0.0
 10
71.567939
 20
64.656037
 30
0.0
 10
72.488177
 20
61.769729
 30
0.0
 10
73.341981
 20
58.812388
 30
0.0
 10
73.729808
 20
56.917377
 30
0.0
 10
74.072831
 20
55.014641
 30
0.0
 10
74.129688
 20
53.120972
 30
0.0
 10
73.659030
 20
51.253161
 30
0.0
 10
73.313124
 20
50.279058
 30
0.0
 10
72.794765
 20
49.379689
 30
0.0
 10
72.211738
 20
48.508344
 30
0.0
 10
71.671836
 20
47.618309
 30
0.0
 10
71.152499
 20
46.639146
 30
0.0
 10
70.592910
 20
45.596794
 30
0.0
 10
69.817987
 20
44.842704
 30
0.0
 10
68.652647
 20
44.728325
 30
0.0
 10
69.832783
 20
43.507328
 30
0.0
 10
70.908981
 20
42.330652
 30
0.0
 10
71.510193
 20
41.352747
 30
0.0
 10
71.265370
 20
40.728063
 30
0.0
 10
72.131693
 20
38.622320
 30
0.0
 10
72.855630
 20
36.352186
 30
0.0
 10
73.350750
 20
34.206817
 30
0.0
 10
73.530628
 20
32.475366
 30
0.0
 10
73.930961
 20
29.434067
 30
0.0
 10
73.208708
 20
26.471334
 30
0.0
 10
71.668924
 20
23.273936
 30
0.0
 10
70.332387
 20
20.866045
 30
0.0
 10
69.423046
 20
19.631215
 30
0.0
 10
67.744867
 20
18.019833
 30
0.0
 10
65.128384
 20
16.540917
 30
0.0
 10
62.655211
 20
15.526864
 30
0.0
 10
60.679784
 20
14.943113
 30
0.0
 10
57.384559
 20
14.120384
 30
0.0
 10
53.202720
 20
13.552134
 30
0.0
 10
49.749604
 20
13.392515
 30
0.0
 10
46.884757
 20
13.942252
 30
0.0
 10
42.045468
 20
15.159330
 30
0.0
 10
37.139719
 20
16.570428
 30
0.0
 10
33.082179
 20
17.748858
 30
0.0
 10
31.583865
 20
18.424910
 30
0.0
 10
30.000313
 20
19.524759
 30
0.0
 10
28.035170
 20
20.931763
 30
0.0
 10
26.391278
 20
21.992885
 30
0.0
 10
25.143076
 20
22.969330
 30
0.0
 10
23.108782
 20
24.801545
 30
0.0
 10
20.980382
 20
26.849595
 30
0.0
 10
18.950269
 20
28.741747
 30
0.0
 10
17.750972
 20
29.997102
 30
0.0
 10
16.844005
 20
31.494045
 30
0.0
 10
15.911188
 20
32.940757
 30
0.0
 10
14.634348
 20
34.045418
 30
0.0
 10
13.602906
 20
36.442479
 30
0.0
 10
12.357317
 20
38.801966
 30
0.0
 10
11.280683
 20
41.253028
 30
0.0
 10
10.756109
 20
43.924816
 30
0.0
 10
10.001188
 20
46.832147
 30
0.0
 10
9.545226
 20
49.774445
 30
0.0
 10
9.003097
 20
53.243144
 30
0.0
 10
8.436410
 20
56.056407
 30
0.0
 10
8.552328
 20
57.969717
 30
0.0
 10
9.318757
 20
60.770001
 30
0.0
 10
10.662712
 20
63.306380
 30
0.0
 10
11.741181
 20
64.779847
 30
0.0
 10
12.907136
 20
65.250558
 30
0.0
 10
14.700406
 20
65.908093
 30
0.0
 10
15.589102
 20
66.529503
 30
0.0
 10
14.314667
 20
67.134208
 30
0.0
 10
14.070933
 20
67.809729
 30
0.0
 10
13.595012
 20
68.350514
 30
0.0
 10
13.125454
 20
68.926312
 30
0.0
 10
12.900822
 20
69.706864
 30
0.0
 10
12.446632
 20
71.086661
 30
0.0
 10
11.838044
 20
72.580451
 30
0.0
 10
11.304576
 20
73.777747
 30
0.0
 10
11.075749
 20
74.268066
 30
0.0
 10
10.901830
 20
74.743516
 30
0.0
 10
10.488448
 20
76.263475
 30
0.0
 10
9.998171
 20
78.968377
 30
0.0
 10
9.593561
 20
82.998637
 30
0.0
 10
9.613174
 20
85.250543
 30
0.0
 10
9.084361
 20
87.747869
 30
0.0
 10
8.698252
 20
89.821135
 30
0.0
 10
9.145973
 20
90.800866
 30
0.0
 10
10.032254
 20
90.790500
 30
0.0
 10
10.910222
 20
90.547825
 30
0.0
 10
11.750935
 20
90.111608
 30
0.0
 10
12.525452
 20
89.520615
 30
0.0
 10
15.153493
 20
87.743264
 30
0.0
 10
17.768818
 20
85.946770
 30
0.0
 10
20.439510
 20
84.259175
 30
0.0
 10
23.233651
 20
82.808532
 30
0.0
 10
24.825454
 20
81.826844
 30
0.0
 10
26.202863
 20
80.872755
 30
0.0
 10
27.225228
 20
79.880873
 30
0.0
 10
27.751894
 20
78.785819
 30
0.0
 10
29.093090
 20
77.897571
 30
0.0
 10
30.420631
 20
76.962132
 30
0.0
 10
31.760029
 20
76.067668
 30
0.0
 10
33.136786
 20
75.302337
 30
0.0
 10
34.893151
 20
74.139129
 30
0.0
 10
36.847188
 20
72.897874
 30
0.0
 10
38.889738
 20
71.676949
 30
0.0
 10
40.911633
 20
70.574730
 30
0.0
 10
42.242001
 20
69.794320
 30
0.0
 10
43.606759
 20
69.022772
 30
0.0
 10
45.074868
 20
68.300501
 30
0.0
 10
46.715300
 20
67.667916
 30
0.0
 10
48.658940
 20
66.966293
 30
0.0
 10
50.613597
 20
66.222878
 30
0.0
 10
52.419966
 20
65.359820
 30
0.0
 10
53.918731
 20
64.299268
 30
0.0
 10
56.444143
 20
63.553346
 30
0.0
 10
59.037871
 20
62.763887
 30
0.0
 10
61.660799
 20
62.343871
 30
0.0
 10
64.273804
 20
62.706284
 30
0.0
 10
64.569494
 20
64.272963
 30
0.0
 10
64.446111
 20
66.037218
 30
0.0
 10
63.871081
 20
68.107054
 30
0.0
 10
63.237419
 20
69.706295
 30
0.0
 10
62.676678
 20
71.062344
 30
0.0
 10
61.683189
 20
73.386779
 30
0.0
 10
60.313486
 20
75.892950
 30
0.0
 10
59.125724
 20
77.551898
 30
0.0
 10
58.494677
 20
78.363240
 30
0.0
 10
57.623786
 20
79.639495
 30
0.0
 10
56.706887
 20
80.927288
 30
0.0
 10
55.580632
 20
82.115437
 30
0.0
 10
52.722167
 20
85.002373
 30
0.0
 10
49.863703
 20
87.889310
 30
0.0
 10
47.005235
 20
90.776249
 30
0.0
 10
44.146771
 20
93.663186
 30
0.0
 10
43.094692
 20
95.627446
 30
0.0
 10
41.468976
 20
97.489495
 30
0.0
 10
39.910424
 20
99.057906
 30
0.0
 10
39.059836
 20
100.141252
 30
0.0
 10
40.081496
 20
99.673295
 30
0.0
 10
40.815680
 20
99.965091
 30
0.0
 10
41.609117
 20
100.352835
 30
0.0
 10
42.808536
 20
100.172717
 30
0.0
 10
42.860490
 20
100.166876
 30
0.0
 10
42.912448
 20
100.161036
 30
0.0
 10
42.964403
 20
100.155196
 30
0.0
 10
43.016357
 20
100.149356
 30
0.0
 10
43.016354
 20
100.149356
 30
0.0
 10
43.016354
 20
100.149356
 30
0.0
 10
43.016352
 20
100.149356
 30
0.0
 10
43.016352
 20
100.149331
 30
0.0
  0
LWPOLYLINE
  5
10f
100
AcDbEntity
  8
a
 62
7
100
AcDbPolyline
 90
69
 70
0
 10
18.719332
 20
62.427989
 30
0.0
 10
18.361517
 20
62.016508
 30
0.0
 10
18.023938
 20
61.540916
 30
0.0
 10
17.662651
 20
60.954674
 30
0.0
 10
17.233715
 20
60.211237
 30
0.0
 10
16.694292
 20
59.355656
 30
0.0
 10
16.626789
 20
58.321559
 30
0.0
 10
16.740202
 20
57.219022
 30
0.0
 10
16.743529
 20
56.158133
 30
0.0
 10
17.876590
 20
54.203527
 30
0.0
 10
19.374396
 20
52.399976
 30
0.0
 10
20.940196
 20
50.721493
 30
0.0
 10
21.912780
 20
49.641069
 30
0.0
 10
22.519641
 20
48.961798
 30
0.0
 10
23.627433
 20
47.823355
 30
0.0
 10
24.976190
 20
46.522785
 30
0.0
 10
25.984662
 20
45.573303
 30
0.0
 10
26.965341
 20
44.865381
 30
0.0
 10
28.789466
 20
43.585493
 30
0.0
 10
30.724249
 20
42.126348
 30
0.0
 10
32.288665
 20
40.647825
 30
0.0
 10
33.379149
 20
40.044026
 30
0.0
 10
34.399748
 20
39.196976
 30
0.0
 10
35.525702
 20
38.391425
 30
0.0
 10
36.932256
 20
37.912117
 30
0.0
 10
38.018146
 20
37.283231
 30
0.0
 10
39.088327
 20
36.593971
 30
0.0
 10
40.172438
 20
35.958250
 30
0.0
 10
41.300120
 20
35.489984
 30
0.0
 10
42.809935
 20
34.686214
 30
0.0
 10
44.664189
 20
34.063369
 30
0.0
 10
46.614221
 20
33.401363
 30
0.0
 10
48.411378
 20
32.480108
 30
0.0
 10
50.872424
 20
31.276682
 30
0.0
 10
53.249805
 20
30.835262
 30
0.0
 10
54.887285
 20
30.678050
 30
0.0
 10
55.128634
 20
30.327247
 30
0.0
 10
60.302304
 20
31.677774
 30
0.0
 10
63.820026
 20
33.113735
 30
0.0
 10
65.843450
 20
34.449408
 30
0.0
 10
66.534224
 20
35.499072
 30
0.0
 10
66.525404
 20
37.579010
 30
0.0
 10
66.218044
 20
40.024627
 30
0.0
 10
65.457433
 20
42.168909
 30
0.0
 10
64.088868
 20
43.344843
 30
0.0
 10
62.611959
 20
43.288849
 30
0.0
 10
61.141914
 20
43.251394
 30
0.0
 10
59.703371
 20
43.410248
 30
0.0
 10
58.320965
 20
43.943174
 30
0.0
 10
56.704402
 20
45.055005
 30
0.0
 10
54.793224
 20
45.754483
 30
0.0
 10
52.799804
 20
46.375703
 30
0.0
 10
50.936497
 20
47.252756
 30
0.0
 10
48.357482
 20
48.436402
 30
0.0
 10
45.785755
 20
49.628725
 30
0.0
 10
43.281788
 20
50.941041
 30
0.0
 10
40.906045
 20
52.484667
 30
0.0
 10
38.735789
 20
53.910496
 30
0.0
 10
36.548752
 20
55.081837
 30
0.0
 10
34.390739
 20
56.237652
 30
0.0
 10
32.307558
 20
57.616903
 30
0.0
 10
29.819102
 20
58.683877
 30
0.0
 10
27.578849
 20
60.156888
 30
0.0
 10
25.356214
 20
61.659283
 30
0.0
 10
22.920602
 20
62.814408
 30
0.0
 10
21.841489
 20
63.089468
 30
0.0
 10
20.799663
 20
63.010763
 30
0.0
 10
19.767988
 20
62.737274
 30
0.0
 10
18.719332
 20
62.427989
 30
0.0
  0
LWPOLYLINE
  5
110
100
AcDbEntity
  8
m
 62
7
100
AcDbPolyline
 90
6
 70
0
 10
48.521079
 20
3.243273
 30
0.0
 10
48.795352
 20
3.037555
 30
0.0
 10
48.709606
 20
2.906611
 30
0.0
 10
48.529595
 20
2.943998
 30
0.0
 10
48.521073
 20
3.243273
 30
0.0
 10
48.521079
 20
3.243273
 30
0.0
  0
LWPOLYLINE
  5
111
100
AcDbEntity
  8
m
 62
7
100
AcDbPolyline
 90
248
 70
0
 10
40.583932
 20
145.969181
 30
0.0
 10
42.361584
 20
145.141298
 30
0.0
 10
43.936443
 20
143.900325
 30
0.0
 10
45.480412
 20
142.587326
 30
0.0
 10
47.165392
 20
141.543357
 30
0.0
 10
49.577144
 20
139.456271
 30
0.0
 10
52.087051
 20
137.208146
 30
0.0
 10
54.592525
 20
134.769588
 30
0.0
 10
56.990982
 20
132.111200
 30
0.0
 10
59.371516
 20
129.066601
 30
0.0
 10
61.725155
 20
126.030410
 30
0.0
 10
63.884846
 20
122.904308
 30
0.0
 10
65.683541
 20
119.589985
 30
0.0
 10
66.646338
 20
117.568816
 30
0.0
 10
67.851280
 20
115.814548
 30
0.0
 10
68.824176
 20
114.402350
 30
0.0
 10
69.090849
 20
113.407398
 30
0.0
 10
70.076690
 20
111.137812
 30
0.0
 10
70.715878
 20
109.972113
 30
0.0
 10
71.151966
 20
108.922251
 30
0.0
 10
71.528506
 20
107.000176
 30
0.0
 10
72.422662
 20
104.426333
 30
0.0
 10
73.180944
 20
101.822505
 30
0.0
 10
73.508010
 20
99.167397
 30
0.0
 10
73.108519
 20
96.439720
 30
0.0
 10
72.018769
 20
92.781321
 30
0.0
 10
69.488310
 20
90.290242
 30
0.0
 10
66.108292
 20
89.365436
 30
0.0
 10
62.469864
 20
90.405842
 30
0.0
 10
60.293028
 20
91.315000
 30
0.0
 10
58.790807
 20
92.037528
 30
0.0
 10
57.214780
 20
92.955009
 30
0.0
 10
54.816522
 20
94.449021
 30
0.0
 10
51.786689
 20
96.918479
 30
0.0
 10
48.830684
 20
99.448000
 30
0.0
 10
45.720101
 20
101.757268
 30
0.0
 10
42.226541
 20
103.565957
 30
0.0
 10
40.455494
 20
104.730048
 30
0.0
 10
38.561304
 20
105.715965
 30
0.0
 10
36.618346
 20
106.670676
 30
0.0
 10
34.700995
 20
107.741152
 30
0.0
 10
32.703764
 20
108.873582
 30
0.0
 10
30.706532
 20
110.006013
 30
0.0
 10
28.709300
 20
111.138440
 30
0.0
 10
26.712068
 20
112.270871
 30
0.0
 10
24.874430
 20
113.047721
 30
0.0
 10
23.592665
 20
112.646461
 30
0.0
 10
22.786365
 20
111.809828
 30
0.0
 10
22.375126
 20
111.280559
 30
0.0
 10
22.527869
 20
108.818998
 30
0.0
 10
23.198425
 20
106.522634
 30
0.0
 10
24.078119
 20
104.243413
 30
0.0
 10
24.858274
 20
101.833279
 30
0.0
 10
25.575937
 20
99.764418
 30
0.0
 10
26.183514
 20
97.630566
 30
0.0
 10
26.920239
 20
95.572960
 30
0.0
 10
28.025344
 20
93.732822
 30
0.0
 10
29.527912
 20
92.425881
 30
0.0
 10
30.654464
 20
91.173538
 30
0.0
 10
31.661686
 20
89.976177
 30
0.0
 10
32.806265
 20
88.834172
 30
0.0
 10
36.740277
 20
86.004779
 30
0.0
 10
40.275557
 20
83.320053
 30
0.0
 10
43.779250
 20
80.699736
 30
0.0
 10
47.618501
 20
78.063581
 30
0.0
 10
50.178156
 20
76.263076
 30
0.0
 10
52.694583
 20
74.397537
 30
0.0
 10
55.235609
 20
72.571451
 30
0.0
 10
57.869065
 20
70.889308
 30
0.0
 10
59.276950
 20
70.044342
 30
0.0
 10
60.707545
 20
69.221939
 30
0.0
 10
62.187187
 20
68.533075
 30
0.0
 10
63.742215
 20
68.088741
 30
0.0
 10
64.529423
 20
68.198552
 30
0.0
 10
65.354332
 20
68.535391
 30
0.0
 10
66.116369
 20
68.717940
 30
0.0
 10
66.714967
 20
68.364887
 30
0.0
 10
69.163307
 20
65.889012
 30
0.0
 10
70.799398
 20
63.021530
 30
0.0
 10
71.835815
 20
59.848051
 30
0.0
 10
72.485139
 20
56.454181
 30
0.0
 10
72.979185
 20
52.821560
 30
0.0
 10
72.355485
 20
49.108237
 30
0.0
 10
70.412645
 20
46.567262
 30
0.0
 10
66.949267
 20
46.451690
 30
0.0
 10
64.781145
 20
47.668674
 30
0.0
 10
62.658254
 20
48.681399
 30
0.0
 10
59.975067
 20
50.081594
 30
0.0
 10
57.628898
 20
51.466535
 30
0.0
 10
55.343972
 20
53.008935
 30
0.0
 10
51.331187
 20
55.742267
 30
0.0
 10
46.612551
 20
58.984142
 30
0.0
 10
43.151205
 20
61.374120
 30
0.0
 10
40.967345
 20
62.749774
 30
0.0
 10
37.415942
 20
64.906481
 30
0.0
 10
33.485941
 20
67.327573
 30
0.0
 10
30.671086
 20
69.143865
 30
0.0
 10
28.602061
 20
70.889908
 30
0.0
 10
25.092134
 20
73.422036
 30
0.0
 10
21.653760
 20
74.444034
 30
0.0
 10
19.123855
 20
72.129768
 30
0.0
 10
20.386962
 20
69.162972
 30
0.0
 10
21.549910
 20
65.791573
 30
0.0
 10
22.713549
 20
62.338537
 30
0.0
 10
23.978729
 20
59.126842
 30
0.0
 10
24.942069
 20
56.149577
 30
0.0
 10
26.771571
 20
53.980198
 30
0.0
 10
29.239509
 20
52.240321
 30
0.0
 10
32.118158
 20
50.551555
 30
0.0
 10
33.933542
 20
49.193654
 30
0.0
 10
35.957989
 20
47.410339
 30
0.0
 10
38.175782
 20
45.593474
 30
0.0
 10
40.571200
 20
44.134932
 30
0.0
 10
41.515562
 20
43.729195
 30
0.0
 10
41.997016
 20
43.541449
 30
0.0
 10
42.264353
 20
43.366000
 30
0.0
 10
42.566368
 20
42.997145
 30
0.0
 10
44.208199
 20
41.302363
 30
0.0
 10
45.804020
 20
40.283434
 30
0.0
 10
47.289107
 20
39.493119
 30
0.0
 10
48.598740
 20
38.484168
 30
0.0
 10
50.217437
 20
37.115624
 30
0.0
 10
51.962717
 20
36.062903
 30
0.0
 10
53.776337
 20
35.040124
 30
0.0
 10
55.600047
 20
33.761411
 30
0.0
 10
56.801749
 20
32.814541
 30
0.0
 10
58.179242
 20
31.817935
 30
0.0
 10
59.597555
 20
30.875856
 30
0.0
 10
60.921714
 20
30.092575
 30
0.0
 10
62.818102
 20
28.948787
 30
0.0
 10
64.279185
 20
28.183917
 30
0.0
 10
65.519329
 20
28.236997
 30
0.0
 10
66.752893
 20
29.547053
 30
0.0
 10
67.674090
 20
29.624608
 30
0.0
 10
68.842697
 20
28.278792
 30
0.0
 10
70.007015
 20
26.570607
 30
0.0
 10
70.915340
 20
25.561053
 30
0.0
 10
73.319944
 20
23.080544
 30
0.0
 10
74.062037
 20
19.225395
 30
0.0
 10
73.741462
 20
14.837852
 30
0.0
 10
72.958058
 20
10.760158
 30
0.0
 10
70.954702
 20
7.790864
 30
0.0
 10
67.969630
 20
7.686037
 30
0.0
 10
64.268114
 20
9.318443
 30
0.0
 10
61.506725
 20
10.856518
 30
0.0
 10
59.735472
 20
11.838428
 30
0.0
 10
56.853240
 20
13.505171
 30
0.0
 10
53.601571
 20
15.434388
 30
0.0
 10
51.214589
 20
16.853755
 30
0.0
 10
50.212722
 20
17.506151
 30
0.0
 10
48.833602
 20
18.488795
 30
0.0
 10
46.983469
 20
19.880470
 30
0.0
 10
45.196583
 20
21.214577
 30
0.0
 10
43.228932
 20
22.670233
 30
0.0
 10
39.695154
 20
25.222860
 30
0.0
 10
35.476442
 20
28.027974
 30
0.0
 10
32.367230
 20
29.904448
 30
0.0
 10
30.101237
 20
31.703862
 30
0.0
 10
26.276184
 20
34.464855
 30
0.0
 10
22.493372
 20
35.703181
 30
0.0
 10
19.591943
 20
33.327035
 30
0.0
 10
20.494536
 20
31.171002
 30
0.0
 10
21.874507
 20
28.665864
 30
0.0
 10
22.496067
 20
26.211350
 30
0.0
 10
21.123432
 20
24.207187
 30
0.0
 10
19.041510
 20
24.856096
 30
0.0
 10
17.727744
 20
27.293022
 30
0.0
 10
16.779223
 20
30.359045
 30
0.0
 10
15.793037
 20
32.895261
 30
0.0
 10
13.367150
 20
38.668609
 30
0.0
 10
11.555857
 20
44.680519
 30
0.0
 10
10.569039
 20
50.856843
 30
0.0
 10
10.616579
 20
57.123438
 30
0.0
 10
12.960152
 20
59.047500
 30
0.0
 10
16.037403
 20
59.255833
 30
0.0
 10
18.760582
 20
58.860103
 30
0.0
 10
20.041937
 20
58.971986
 30
0.0
 10
18.099450
 20
63.605530
 30
0.0
 10
16.422226
 20
68.352502
 30
0.0
 10
14.686371
 20
73.075769
 30
0.0
 10
12.567996
 20
77.638200
 30
0.0
 10
11.168323
 20
81.839264
 30
0.0
 10
10.429289
 20
85.998019
 30
0.0
 10
10.126094
 20
90.186835
 30
0.0
 10
10.033936
 20
94.478094
 30
0.0
 10
10.630315
 20
96.509753
 30
0.0
 10
12.036837
 20
98.202864
 30
0.0
 10
13.980111
 20
99.272575
 30
0.0
 10
15.457930
 20
99.559749
 30
0.0
 10
16.367954
 20
99.251268
 30
0.0
 10
17.861202
 20
98.580377
 30
0.0
 10
19.448971
 20
97.693202
 30
0.0
 10
21.006965
 20
96.673013
 30
0.0
 10
22.977678
 20
95.265341
 30
0.0
 10
22.579442
 20
96.591975
 30
0.0
 10
21.344227
 20
99.221006
 30
0.0
 10
20.804000
 20
101.720533
 30
0.0
 10
19.740777
 20
103.512455
 30
0.0
 10
18.999721
 20
104.899466
 30
0.0
 10
18.393262
 20
106.306172
 30
0.0
 10
17.976568
 20
107.438908
 30
0.0
 10
17.643454
 20
108.323630
 30
0.0
 10
17.085551
 20
109.788956
 30
0.0
 10
16.455483
 20
111.605169
 30
0.0
 10
16.002096
 20
113.074695
 30
0.0
 10
15.621943
 20
114.624722
 30
0.0
 10
14.932008
 20
117.469808
 30
0.0
 10
14.138312
 20
120.677200
 30
0.0
 10
13.585226
 20
122.831071
 30
0.0
 10
13.241685
 20
124.236833
 30
0.0
 10
12.672563
 20
126.736083
 30
0.0
 10
12.062019
 20
129.699693
 30
0.0
 10
11.649444
 20
131.879385
 30
0.0
 10
11.913569
 20
133.259893
 30
0.0
 10
12.744940
 20
135.402139
 30
0.0
 10
13.866806
 20
137.308627
 30
0.0
 10
14.913016
 20
138.515580
 30
0.0
 10
18.445449
 20
138.120245
 30
0.0
 10
21.838729
 20
136.916401
 30
0.0
 10
25.109892
 20
135.109690
 30
0.0
 10
28.275979
 20
132.905730
 30
0.0
 10
34.361075
 20
128.128574
 30
0.0
 10
40.230323
 20
124.229951
 30
0.0
 10
43.341840
 20
122.456010
 30
0.0
 10
46.367682
 20
120.548384
 30
0.0
 10
49.220195
 20
118.498931
 30
0.0
 10
51.811735
 20
116.299508
 30
0.0
 10
53.956299
 20
114.682003
 30
0.0
 10
56.660507
 20
113.106826
 30
0.0
 10
59.562288
 20
111.527493
 30
0.0
 10
62.299579
 20
109.897522
 30
0.0
 10
64.559185
 20
109.826723
 30
0.0
 10
65.185471
 20
111.279175
 30
0.0
 10
64.700346
 20
113.366627
 30
0.0
 10
63.625720
 20
115.200838
 30
0.0
 10
62.366921
 20
118.355293
 30
0.0
 10
60.970722
 20
121.525140
 30
0.0
 10
59.209655
 20
124.521810
 30
0.0
 10
56.856239
 20
127.156736
 30
0.0
 10
52.698347
 20
131.755075
 30
0.0
 10
48.426445
 20
136.246058
 30
0.0
 10
44.072096
 20
140.658227
 30
0.0
 10
39.666860
 20
145.020124
 30
0.0
 10
40.420637
 20
145.023516
 30
0.0
 10
40.969902
 20
145.040133
 30
0.0
 10
41.096913
 20
145.284016
 30
0.0
 10
40.583932
 20
145.969170
 30
0.0
 10
40.583932
 20
145.969181
 30
0.0
  0
LWPOLYLINE
  5
112
100
AcDbEntity
  8
m
 62
7
100
AcDbPolyline
 90
10
 70
0
 10
63.358962
 20
8.699675
 30
0.0
 10
63.309976
 20
8.405560
 30
0.0
 10
63.153963
 20
8.402549
 30
0.0
 10
63.137314
 20
8.549659
 30
0.0
 10
63.297495
 20
8.668804
 30
0.0
 10
63.398486
 20
8.689666
 30
0.0
 10
63.432674
 20
8.702525
 30
0.0
 10
63.388533
 20
8.701711
 30
0.0
 10
63.358973
 20
8.699661
 30
0.0
 10
63.358962
 20
8.699675
 30
0.0
  0
LWPOLYLINE
  5
113
100
AcDbEntity
  8
_T1
 62
7
100
AcDbPolyline
 90
204
 70
0
 10
32.957794
 20
165.765213
 30
0.0
 10
37.099213
 20
164.019908
 30
0.0
 10
40.932732
 20
161.746920
 30
0.0
 10
44.766848
 20
158.712287
 30
0.0
 10
47.482839
 20
156.175894
 30
0.0
 10
49.095730
 20
154.187488
 30
0.0
 10
51.510577
 20
150.908694
 30
0.0
 10
53.956391
 20
147.257224
 30
0.0
 10
55.620896
 20
144.647689
 30
0.0
 10
56.272472
 20
143.475075
 30
0.0
 10
57.105978
 20
141.790889
 30
0.0
 10
57.954345
 20
139.733579
 30
0.0
 10
58.630683
 20
137.939095
 30
0.0
 10
59.299816
 20
136.300860
 30
0.0
 10
60.421032
 20
133.428613
 30
0.0
 10
61.418255
 20
129.942642
 30
0.0
 10
61.880733
 20
127.281536
 30
0.0
 10
62.011200
 20
125.962462
 30
0.0
 10
62.225326
 20
123.997272
 30
0.0
 10
62.265975
 20
121.410955
 30
0.0
 10
62.107315
 20
119.056675
 30
0.0
 10
61.960307
 20
116.756706
 30
0.0
 10
61.820832
 20
112.773347
 30
0.0
 10
61.738710
 20
108.636747
 30
0.0
 10
61.656448
 20
105.118463
 30
0.0
 10
60.592868
 20
103.208399
 30
0.0
 10
59.840881
 20
101.277848
 30
0.0
 10
45.227785
 20
79.436414
 30
0.0
 10
43.707410
 20
77.922922
 30
0.0
 10
42.345283
 20
76.368932
 30
0.0
 10
41.062955
 20
74.808821
 30
0.0
 10
39.781982
 20
73.276976
 30
0.0
 10
38.362353
 20
71.687050
 30
0.0
 10
36.973210
 20
70.122431
 30
0.0
 10
35.675330
 20
68.497994
 30
0.0
 10
34.529506
 20
66.728603
 30
0.0
 10
32.272036
 20
62.808207
 30
0.0
 10
30.090524
 20
58.864143
 30
0.0
 10
28.234401
 20
54.795315
 30
0.0
 10
26.953101
 20
50.500626
 30
0.0
 10
26.558132
 20
47.718894
 30
0.0
 10
26.232777
 20
44.893602
 30
0.0
 10
26.259567
 20
42.036545
 30
0.0
 10
26.921032
 20
39.159518
 30
0.0
 10
27.939930
 20
35.059094
 30
0.0
 10
29.626344
 20
31.398165
 30
0.0
 10
31.611580
 20
27.958635
 30
0.0
 10
33.526947
 20
24.522408
 30
0.0
 10
35.461045
 20
22.108566
 30
0.0
 10
37.359446
 20
19.826241
 30
0.0
 10
39.128393
 20
18.098525
 30
0.0
 10
40.674131
 20
17.348507
 30
0.0
 10
42.213196
 20
15.849124
 30
0.0
 10
44.672297
 20
15.067370
 30
0.0
 10
47.481814
 20
14.633493
 30
0.0
 10
50.072133
 20
14.177742
 30
0.0
 10
52.263460
 20
14.287512
 30
0.0
 10
54.431457
 20
14.997888
 30
0.0
 10
56.566912
 20
15.843492
 30
0.0
 10
58.660611
 20
16.358947
 30
0.0
 10
62.053481
 20
18.919482
 30
0.0
 10
64.270129
 20
22.406001
 30
0.0
 10
65.357521
 20
26.429825
 30
0.0
 10
65.362611
 20
30.602278
 30
0.0
 10
64.214770
 20
34.125968
 30
0.0
 10
61.884582
 20
37.141944
 30
0.0
 10
58.825725
 20
39.617188
 30
0.0
 10
55.491878
 20
41.518682
 30
0.0
 10
51.555691
 20
41.838261
 30
0.0
 10
47.988805
 20
42.937308
 30
0.0
 10
44.859082
 20
44.835852
 30
0.0
 10
42.996395
 20
46.537323
 30
0.0
 10
42.557775
 20
48.443673
 30
0.0
 10
42.533552
 20
51.883396
 30
0.0
 10
43.432383
 20
55.343614
 30
0.0
 10
45.381915
 20
57.819753
 30
0.0
 10
48.028609
 20
58.117415
 30
0.0
 10
50.742059
 20
58.526226
 30
0.0
 10
53.256273
 20
58.445825
 30
0.0
 10
55.305259
 20
57.275842
 30
0.0
 10
56.661467
 20
57.030390
 30
0.0
 10
57.591108
 20
56.369794
 30
0.0
 10
58.587246
 20
55.550360
 30
0.0
 10
60.142944
 20
54.828391
 30
0.0
 10
61.819939
 20
52.587443
 30
0.0
 10
63.999776
 20
50.489101
 30
0.0
 10
66.232131
 20
48.411848
 30
0.0
 10
68.066669
 20
46.234165
 30
0.0
 10
69.344723
 20
43.687627
 30
0.0
 10
70.411908
 20
41.267623
 30
0.0
 10
71.258674
 20
38.828730
 30
0.0
 10
71.875484
 20
36.225523
 30
0.0
 10
72.205247
 20
34.096677
 30
0.0
 10
72.112924
 20
31.282817
 30
0.0
 10
71.689340
 20
28.203864
 30
0.0
 10
71.025331
 20
25.279741
 30
0.0
 10
69.566671
 20
22.514430
 30
0.0
 10
67.938561
 20
19.731523
 30
0.0
 10
65.888072
 20
17.278927
 30
0.0
 10
63.162269
 20
15.504549
 30
0.0
 10
61.411273
 20
13.748691
 30
0.0
 10
59.595489
 20
12.610618
 30
0.0
 10
57.620127
 20
11.430684
 30
0.0
 10
56.165045
 20
10.344512
 30
0.0
 10
54.690808
 20
9.732891
 30
0.0
 10
51.950238
 20
9.113528
 30
0.0
 10
49.014075
 20
8.818555
 30
0.0
 10
46.565730
 20
8.782466
 30
0.0
 10
42.842055
 20
10.107957
 30
0.0
 10
38.485504
 20
11.526962
 30
0.0
 10
33.935491
 20
13.533954
 30
0.0
 10
30.939948
 20
15.392434
 30
0.0
 10
29.627993
 20
16.874049
 30
0.0
 10
27.658889
 20
19.194755
 30
0.0
 10
25.529293
 20
21.476428
 30
0.0
 10
23.081598
 20
23.456432
 30
0.0
 10
21.103113
 20
27.112152
 30
0.0
 10
19.099931
 20
30.847668
 30
0.0
 10
17.460209
 20
34.625580
 30
0.0
 10
16.572102
 20
38.408485
 30
0.0
 10
15.614221
 20
42.490480
 30
0.0
 10
14.812263
 20
46.610525
 30
0.0
 10
14.149028
 20
50.743546
 30
0.0
 10
13.607319
 20
54.864474
 30
0.0
 10
13.487161
 20
57.046760
 30
0.0
 10
13.328142
 20
59.059108
 30
0.0
 10
13.301222
 20
61.068245
 30
0.0
 10
13.577357
 20
63.240896
 30
0.0
 10
13.982194
 20
67.403442
 30
0.0
 10
14.718925
 20
71.496504
 30
0.0
 10
15.674206
 20
75.549137
 30
0.0
 10
16.734698
 20
79.590392
 30
0.0
 10
18.401121
 20
82.735668
 30
0.0
 10
19.896575
 20
86.024260
 30
0.0
 10
21.558134
 20
89.265877
 30
0.0
 10
23.722870
 20
92.270218
 30
0.0
 10
26.713631
 20
95.228479
 30
0.0
 10
26.633138
 20
98.286122
 30
0.0
 10
24.621313
 20
101.354264
 30
0.0
 10
21.818086
 20
104.344020
 30
0.0
 10
20.161808
 20
107.536428
 30
0.0
 10
18.580745
 20
110.971534
 30
0.0
 10
17.094324
 20
114.480119
 30
0.0
 10
15.721969
 20
117.892968
 30
0.0
 10
14.935648
 20
120.935211
 30
0.0
 10
14.192338
 20
123.954543
 30
0.0
 10
13.603802
 20
127.008014
 30
0.0
 10
13.281799
 20
130.152679
 30
0.0
 10
15.400028
 20
132.422949
 30
0.0
 10
15.258671
 20
136.181588
 30
0.0
 10
14.551829
 20
140.011146
 30
0.0
 10
14.973607
 20
142.494172
 30
0.0
 10
15.608823
 20
139.974929
 30
0.0
 10
16.230157
 20
139.132780
 30
0.0
 10
16.928980
 20
138.854802
 30
0.0
 10
17.477991
 20
138.505504
 30
0.0
 10
18.069295
 20
137.145744
 30
0.0
 10
19.107417
 20
134.364417
 30
0.0
 10
20.086181
 20
131.213282
 30
0.0
 10
20.658748
 20
128.505381
 30
0.0
 10
22.814901
 20
125.396292
 30
0.0
 10
25.402313
 20
122.637899
 30
0.0
 10
28.285586
 20
120.062227
 30
0.0
 10
31.329314
 20
117.501307
 30
0.0
 10
33.294550
 20
116.306836
 30
0.0
 10
35.354209
 20
114.808272
 30
0.0
 10
37.295659
 20
114.125708
 30
0.0
 10
38.906265
 20
115.379250
 30
0.0
 10
39.676883
 20
117.924298
 30
0.0
 10
40.498291
 20
120.538908
 30
0.0
 10
41.466818
 20
123.251113
 30
0.0
 10
42.235832
 20
125.145166
 30
0.0
 10
42.518369
 20
125.995636
 30
0.0
 10
42.794265
 20
127.193112
 30
0.0
 10
43.102742
 20
128.696104
 30
0.0
 10
43.439579
 20
130.055763
 30
0.0
 10
43.560530
 20
131.720568
 30
0.0
 10
43.481373
 20
134.851182
 30
0.0
 10
42.902295
 20
138.624661
 30
0.0
 10
42.190047
 20
141.360916
 30
0.0
 10
41.596944
 20
143.359939
 30
0.0
 10
40.467993
 20
146.736264
 30
0.0
 10
38.777305
 20
149.990225
 30
0.0
 10
36.231943
 20
152.270556
 30
0.0
 10
33.304992
 20
153.621286
 30
0.0
 10
30.402093
 20
153.105694
 30
0.0
 10
28.036097
 20
151.199482
 30
0.0
 10
26.719844
 20
148.378357
 30
0.0
 10
26.560955
 20
146.523082
 30
0.0
 10
27.563226
 20
146.616934
 30
0.0
 10
28.170969
 20
146.658979
 30
0.0
 10
26.828506
 20
144.648271
 30
0.0
 10
25.099130
 20
141.870432
 30
0.0
 10
23.626907
 20
143.663301
 30
0.0
 10
22.824364
 20
147.396833
 30
0.0
 10
23.104024
 20
150.440984
 30
0.0
 10
22.748611
 20
153.614937
 30
0.0
 10
23.026498
 20
156.668292
 30
0.0
 10
23.822896
 20
159.691467
 30
0.0
 10
25.023019
 20
162.774876
 30
0.0
 10
26.957644
 20
163.854295
 30
0.0
 10
29.043808
 20
164.890282
 30
0.0
 10
31.103268
 20
165.616149
 30
0.0
 10
32.957794
 20
165.765213
 30
0.0
  0
LWPOLYLINE
  5
114
100
AcDbEntity
  8
d
 62
7
100
AcDbPolyline
 90
185
 70
0
 10
64.879023
 20
137.526721
 30
0.0
 10
64.585497
 20
136.026880
 30
0.0
 10
64.206954
 20
134.508181
 30
0.0
 10
63.904026
 20
133.006252
 30
0.0
 10
63.837343
 20
131.556722
 30
0.0
 10
63.124525
 20
130.237633
 30
0.0
 10
61.779094
 20
129.950773
 30
0.0
 10
60.211345
 20
130.190782
 30
0.0
 10
58.831581
 20
130.452303
 30
0.0
 10
58.006672
 20
130.829499
 30
0.0
 10
57.324648
 20
130.383820
 30
0.0
 10
56.688190
 20
129.446740
 30
0.0
 10
55.999976
 20
128.349718
 30
0.0
 10
54.757609
 20
125.429362
 30
0.0
 10
54.300815
 20
122.036778
 30
0.0
 10
54.390684
 20
118.600490
 30
0.0
 10
54.635269
 20
116.429960
 30
0.0
 10
54.711814
 20
115.251524
 30
0.0
 10
54.732713
 20
113.320374
 30
0.0
 10
54.659591
 20
111.226717
 30
0.0
 10
54.579435
 20
109.777430
 30
0.0
 10
54.489979
 20
108.722988
 30
0.0
 10
54.319640
 20
106.892181
 30
0.0
 10
54.123868
 20
105.051630
 30
0.0
 10
53.933709
 20
103.639382
 30
0.0
 10
53.997981
 20
99.238234
 30
0.0
 10
54.123642
 20
94.836044
 30
0.0
 10
54.243638
 20
91.067050
 30
0.0
 10
54.290923
 20
88.565490
 30
0.0
 10
54.689387
 20
83.546849
 30
0.0
 10
54.901986
 20
78.287846
 30
0.0
 10
55.216877
 20
72.981249
 30
0.0
 10
55.922217
 20
67.819834
 30
0.0
 10
56.201954
 20
65.037814
 30
0.0
 10
56.160222
 20
62.561672
 30
0.0
 10
56.280798
 20
60.095253
 30
0.0
 10
57.047450
 20
57.342387
 30
0.0
 10
57.655259
 20
55.586474
 30
0.0
 10
58.237978
 20
53.749836
 30
0.0
 10
59.004078
 20
52.024602
 30
0.0
 10
60.162030
 20
50.602915
 30
0.0
 10
62.266718
 20
49.764932
 30
0.0
 10
64.439771
 20
50.291927
 30
0.0
 10
66.576811
 20
51.932364
 30
0.0
 10
67.959952
 20
53.510555
 30
0.0
 10
68.655357
 20
54.528571
 30
0.0
 10
69.622397
 20
56.059221
 30
0.0
 10
70.319285
 20
57.703555
 30
0.0
 10
70.564438
 20
58.911053
 30
0.0
 10
70.633371
 20
59.685246
 30
0.0
 10
70.835750
 20
60.954336
 30
0.0
 10
71.068018
 20
62.436382
 30
0.0
 10
71.186763
 20
63.565495
 30
0.0
 10
71.265886
 20
64.464146
 30
0.0
 10
71.428368
 20
66.117575
 30
0.0
 10
71.586763
 20
68.329784
 30
0.0
 10
71.659073
 20
70.159736
 30
0.0
 10
71.890706
 20
71.562476
 30
0.0
 10
72.328190
 20
73.878569
 30
0.0
 10
72.587484
 20
76.220636
 30
0.0
 10
72.285101
 20
78.221494
 30
0.0
 10
72.500794
 20
78.268544
 30
0.0
 10
72.918763
 20
77.808340
 30
0.0
 10
73.494472
 20
77.667992
 30
0.0
 10
74.183380
 20
78.674612
 30
0.0
 10
74.100896
 20
74.577805
 30
0.0
 10
74.168508
 20
70.365254
 30
0.0
 10
74.110507
 20
66.036850
 30
0.0
 10
73.895035
 20
63.052717
 30
0.0
 10
73.704599
 20
61.628788
 30
0.0
 10
73.462242
 20
59.616100
 30
0.0
 10
73.150583
 20
57.422525
 30
0.0
 10
72.844644
 20
55.697126
 30
0.0
 10
72.711619
 20
54.385097
 30
0.0
 10
72.483101
 20
52.106319
 30
0.0
 10
71.852097
 20
49.192503
 30
0.0
 10
71.048264
 20
46.822075
 30
0.0
 10
70.082117
 20
45.070865
 30
0.0
 10
68.319620
 20
42.183275
 30
0.0
 10
66.257542
 20
39.210182
 30
0.0
 10
64.070748
 20
36.536277
 30
0.0
 10
62.790864
 20
35.267754
 30
0.0
 10
61.537406
 20
34.487395
 30
0.0
 10
60.182219
 20
34.063287
 30
0.0
 10
58.597145
 20
33.863507
 30
0.0
 10
56.636849
 20
33.564347
 30
0.0
 10
54.757375
 20
33.254398
 30
0.0
 10
52.905744
 20
33.183389
 30
0.0
 10
51.028979
 20
33.601037
 30
0.0
 10
50.596069
 20
33.134636
 30
0.0
 10
50.247875
 20
32.823581
 30
0.0
 10
49.953600
 20
32.570312
 30
0.0
 10
49.682429
 20
32.277304
 30
0.0
 10
48.820163
 20
30.972779
 30
0.0
 10
47.980670
 20
29.559855
 30
0.0
 10
47.218089
 20
28.122546
 30
0.0
 10
46.586560
 20
26.744858
 30
0.0
 10
44.387610
 20
23.649116
 30
0.0
 10
41.723692
 20
20.918239
 30
0.0
 10
38.732730
 20
18.533834
 30
0.0
 10
35.552641
 20
16.477511
 30
0.0
 10
33.510906
 20
16.141270
 30
0.0
 10
31.085492
 20
16.006192
 30
0.0
 10
28.222167
 20
16.037592
 30
0.0
 10
24.866699
 20
16.200798
 30
0.0
 10
23.251250
 20
17.177940
 30
0.0
 10
21.684286
 20
18.184312
 30
0.0
 10
20.189854
 20
19.319174
 30
0.0
 10
18.792001
 20
20.681783
 30
0.0
 10
16.444780
 20
22.755044
 30
0.0
 10
14.778169
 20
25.517444
 30
0.0
 10
13.577360
 20
28.605694
 30
0.0
 10
12.627539
 20
31.656508
 30
0.0
 10
11.699257
 20
34.021855
 30
0.0
 10
10.941870
 20
36.440159
 30
0.0
 10
10.474308
 20
38.942632
 30
0.0
 10
10.415512
 20
41.560484
 30
0.0
 10
10.208171
 20
43.505063
 30
0.0
 10
10.124661
 20
45.447483
 30
0.0
 10
10.082378
 20
47.383815
 30
0.0
 10
9.998714
 20
49.310118
 30
0.0
 10
10.345544
 20
53.243665
 30
0.0
 10
10.707254
 20
57.332729
 30
0.0
 10
11.048038
 20
61.626275
 30
0.0
 10
11.253035
 20
64.652173
 30
0.0
 10
11.447078
 20
66.088743
 30
0.0
 10
11.816258
 20
68.026650
 30
0.0
 10
12.206143
 20
69.943284
 30
0.0
 10
12.434701
 20
71.344400
 30
0.0
 10
12.733296
 20
72.142891
 30
0.0
 10
13.396995
 20
73.336694
 30
0.0
 10
14.203540
 20
74.496137
 30
0.0
 10
14.964255
 20
75.557642
 30
0.0
 10
16.683760
 20
77.983444
 30
0.0
 10
18.522128
 20
80.310139
 30
0.0
 10
20.654305
 20
82.322883
 30
0.0
 10
23.255241
 20
83.806832
 30
0.0
 10
25.125454
 20
84.375508
 30
0.0
 10
27.061192
 20
84.867119
 30
0.0
 10
29.031227
 20
85.222058
 30
0.0
 10
31.004329
 20
85.380717
 30
0.0
 10
33.104131
 20
83.757626
 30
0.0
 10
35.203932
 20
82.134535
 30
0.0
 10
37.303735
 20
80.511441
 30
0.0
 10
39.403537
 20
78.888350
 30
0.0
 10
39.639130
 20
81.360747
 30
0.0
 10
39.562939
 20
83.877435
 30
0.0
 10
39.479090
 20
86.383884
 30
0.0
 10
39.691713
 20
88.825552
 30
0.0
 10
39.653604
 20
91.092175
 30
0.0
 10
39.915338
 20
93.465697
 30
0.0
 10
40.234603
 20
95.925894
 30
0.0
 10
40.369095
 20
98.452532
 30
0.0
 10
40.868635
 20
101.839990
 30
0.0
 10
41.115707
 20
105.279536
 30
0.0
 10
41.358936
 20
108.733364
 30
0.0
 10
41.846955
 20
112.163665
 30
0.0
 10
42.064759
 20
113.644386
 30
0.0
 10
42.241637
 20
115.137291
 30
0.0
 10
42.506979
 20
116.590348
 30
0.0
 10
42.990178
 20
117.951533
 30
0.0
 10
43.227824
 20
119.937970
 30
0.0
 10
43.607365
 20
121.907905
 30
0.0
 10
44.037220
 20
123.871986
 30
0.0
 10
44.425803
 20
125.840869
 30
0.0
 10
44.900115
 20
127.076039
 30
0.0
 10
45.233381
 20
128.473605
 30
0.0
 10
45.574596
 20
129.922312
 30
0.0
 10
46.072763
 20
131.310915
 30
0.0
 10
46.575178
 20
133.216420
 30
0.0
 10
47.390162
 20
134.890841
 30
0.0
 10
48.671336
 20
136.792680
 30
0.0
 10
49.838669
 20
138.380369
 30
0.0
 10
50.881628
 20
139.682104
 30
0.0
 10
52.638023
 20
141.742177
 30
0.0
 10
54.577444
 20
143.788419
 30
0.0
 10
55.925450
 20
145.067111
 30
0.0
 10
57.061780
 20
145.833673
 30
0.0
 10
59.118198
 20
146.878275
 30
0.0
 10
61.211227
 20
147.221301
 30
0.0
 10
62.762818
 20
146.123934
 30
0.0
 10
64.526381
 20
144.237951
 30
0.0
 10
65.503504
 20
142.378531
 30
0.0
 10
65.639336
 20
140.242508
 30
0.0
 10
64.879023
 20
137.526721
 30
0.0
  0
LWPOLYLINE
  5
115
100
AcDbEntity
  8
d
 62
7
100
AcDbPolyline
 90
53
 70
0
 10
38.442434
 20
70.377920
 30
0.0
 10
36.279115
 20
72.254098
 30
0.0
 10
33.734172
 20
74.469316
 30
0.0
 10
31.662228
 20
75.179485
 30
0.0
 10
29.567798
 20
73.414086
 30
0.0
 10
28.157793
 20
71.235437
 30
0.0
 10
27.326777
 20
68.755123
 30
0.0
 10
26.757120
 20
66.156619
 30
0.0
 10
26.131180
 20
63.623384
 30
0.0
 10
26.391745
 20
62.489987
 30
0.0
 10
26.292961
 20
61.449681
 30
0.0
 10
26.140805
 20
60.396974
 30
0.0
 10
26.241252
 20
59.226375
 30
0.0
 10
26.265778
 20
57.371573
 30
0.0
 10
26.264058
 20
55.553762
 30
0.0
 10
26.492646
 20
53.832206
 30
0.0
 10
27.208088
 20
52.266177
 30
0.0
 10
27.031515
 20
50.833133
 30
0.0
 10
27.274960
 20
49.677016
 30
0.0
 10
27.499581
 20
48.541605
 30
0.0
 10
27.266532
 20
47.170672
 30
0.0
 10
27.826042
 20
43.996656
 30
0.0
 10
28.633855
 20
40.717761
 30
0.0
 10
29.703760
 20
37.436303
 30
0.0
 10
31.049532
 20
34.254602
 30
0.0
 10
32.782952
 20
31.068431
 30
0.0
 10
35.677508
 20
28.945226
 30
0.0
 10
38.972040
 20
28.079070
 30
0.0
 10
41.905392
 20
28.664047
 30
0.0
 10
43.230543
 20
29.743069
 30
0.0
 10
44.391544
 20
30.701529
 30
0.0
 10
45.396772
 20
31.653697
 30
0.0
 10
46.254612
 20
32.713845
 30
0.0
 10
47.472051
 20
34.322650
 30
0.0
 10
47.869876
 20
36.448305
 30
0.0
 10
47.353875
 20
38.705645
 30
0.0
 10
45.829836
 20
40.709490
 30
0.0
 10
45.302435
 20
42.279403
 30
0.0
 10
44.752477
 20
43.410765
 30
0.0
 10
44.210128
 20
44.810597
 30
0.0
 10
43.859816
 20
46.180920
 30
0.0
 10
43.580373
 20
47.752152
 30
0.0
 10
43.048458
 20
50.569527
 30
0.0
 10
42.434452
 20
53.672919
 30
0.0
 10
41.831620
 20
56.604703
 30
0.0
 10
41.749800
 20
58.228164
 30
0.0
 10
41.593074
 20
59.526101
 30
0.0
 10
41.402622
 20
60.724525
 30
0.0
 10
41.219630
 20
62.049437
 30
0.0
 10
40.409043
 20
64.013793
 30
0.0
 10
39.946265
 20
66.511847
 30
0.0
 10
39.257107
 20
68.970013
 30
0.0
 10
38.442434
 20
70.377920
 30
0.0
  0
LWPOLYLINE
  5
116
100
AcDbEntity
  8
_T2
 62
7
100
AcDbPolyline
 90
120
 70
0
 10
50.243940
 20
142.937865
 30
0.0
 10
49.250326
 20
141.539053
 30
0.0
 10
49.829633
 20
139.295519
 30
0.0
 10
50.220239
 20
136.604883
 30
0.0
 10
50.954556
 20
134.019708
 30
0.0
 10
51.798138
 20
131.455874
 30
0.0
 10
52.516538
 20
128.829277
 30
0.0
 10
53.388082
 20
125.364172
 30
0.0
 10
54.348420
 20
121.922246
 30
0.0
 10
55.270324
 20
118.341095
 30
0.0
 10
56.026575
 20
114.458313
 30
0.0
 10
57.011093
 20
109.859346
 30
0.0
 10
57.868670
 20
105.594175
 30
0.0
 10
58.749692
 20
101.576646
 30
0.0
 10
59.417980
 20
98.954342
 30
0.0
 10
59.763406
 20
97.906874
 30
0.0
 10
60.209568
 20
96.496948
 30
0.0
 10
60.638738
 20
94.740211
 30
0.0
 10
60.955843
 20
93.114724
 30
0.0
 10
61.314161
 20
91.357094
 30
0.0
 10
61.969904
 20
88.272372
 30
0.0
 10
62.640464
 20
84.882547
 30
0.0
 10
63.023471
 20
82.616407
 30
0.0
 10
63.083282
 20
81.714560
 30
0.0
 10
63.143045
 20
80.367688
 30
0.0
 10
63.248698
 20
78.570940
 30
0.0
 10
63.384980
 20
76.919294
 30
0.0
 10
63.559323
 20
75.340484
 30
0.0
 10
63.909417
 20
72.532288
 30
0.0
 10
64.475171
 20
68.999368
 30
0.0
 10
65.008952
 20
66.212683
 30
0.0
 10
64.954181
 20
64.274576
 30
0.0
 10
64.539614
 20
61.069347
 30
0.0
 10
64.035621
 20
57.692843
 30
0.0
 10
63.884773
 20
54.489488
 30
0.0
 10
63.340925
 20
52.518149
 30
0.0
 10
61.975836
 20
47.894260
 30
0.0
 10
60.189175
 20
42.553007
 30
0.0
 10
58.380607
 20
38.429576
 30
0.0
 10
57.103687
 20
35.900278
 30
0.0
 10
55.488967
 20
33.102214
 30
0.0
 10
54.103959
 20
30.836148
 30
0.0
 10
53.516177
 20
29.902844
 30
0.0
 10
52.943410
 20
29.124264
 30
0.0
 10
52.370643
 20
28.345683
 30
0.0
 10
51.797879
 20
27.567103
 30
0.0
 10
51.225114
 20
26.788522
 30
0.0
 10
49.924456
 20
25.830736
 30
0.0
 10
46.699972
 20
23.647191
 30
0.0
 10
42.567911
 20
21.272627
 30
0.0
 10
38.544511
 20
19.741766
 30
0.0
 10
36.198737
 20
19.354475
 30
0.0
 10
33.759061
 20
19.233281
 30
0.0
 10
31.275161
 20
19.343889
 30
0.0
 10
28.796722
 20
19.652008
 30
0.0
 10
25.885943
 20
19.781054
 30
0.0
 10
23.540241
 20
20.153207
 30
0.0
 10
21.362764
 20
21.081368
 30
0.0
 10
18.956665
 20
22.878440
 30
0.0
 10
16.024195
 20
24.999086
 30
0.0
 10
14.219785
 20
27.595443
 30
0.0
 10
13.204657
 20
30.676856
 30
0.0
 10
12.640037
 20
34.252687
 30
0.0
 10
12.926245
 20
37.873641
 30
0.0
 10
13.761518
 20
41.397309
 30
0.0
 10
15.523186
 20
44.348750
 30
0.0
 10
18.588588
 20
46.253022
 30
0.0
 10
20.687454
 20
46.929644
 30
0.0
 10
22.962659
 20
47.696656
 30
0.0
 10
24.381408
 20
47.558534
 30
0.0
 10
23.910904
 20
45.519758
 30
0.0
 10
20.854115
 20
42.439138
 30
0.0
 10
19.730069
 20
38.328123
 30
0.0
 10
20.028505
 20
33.816900
 30
0.0
 10
21.239154
 20
29.535659
 30
0.0
 10
21.617636
 20
28.634721
 30
0.0
 10
22.035574
 20
27.881295
 30
0.0
 10
22.525844
 20
27.267225
 30
0.0
 10
22.907581
 20
26.920571
 30
0.0
 10
23.221765
 20
26.767240
 30
0.0
 10
23.985755
 20
26.481236
 30
0.0
 10
25.663938
 20
25.979058
 30
0.0
 10
27.501778
 20
25.465439
 30
0.0
 10
29.438846
 20
25.226628
 30
0.0
 10
32.736742
 20
25.308027
 30
0.0
 10
36.111378
 20
26.238237
 30
0.0
 10
38.941567
 20
28.367696
 30
0.0
 10
40.782353
 20
32.170054
 30
0.0
 10
42.101609
 20
36.409884
 30
0.0
 10
43.019368
 20
40.921672
 30
0.0
 10
43.655666
 20
45.539928
 30
0.0
 10
43.821579
 20
48.843782
 30
0.0
 10
44.115660
 20
52.102820
 30
0.0
 10
44.227298
 20
55.281110
 30
0.0
 10
43.845884
 20
58.342730
 30
0.0
 10
43.703835
 20
61.012361
 30
0.0
 10
43.619654
 20
63.672788
 30
0.0
 10
43.667522
 20
66.342774
 30
0.0
 10
43.921621
 20
69.041092
 30
0.0
 10
42.645550
 20
73.644023
 30
0.0
 10
41.681747
 20
78.357555
 30
0.0
 10
40.542520
 20
83.024334
 30
0.0
 10
38.740176
 20
87.487015
 30
0.0
 10
38.621121
 20
89.249690
 30
0.0
 10
38.171955
 20
91.233995
 30
0.0
 10
37.638228
 20
93.310196
 30
0.0
 10
37.265494
 20
95.348560
 30
0.0
 10
36.509585
 20
99.007803
 30
0.0
 10
35.433373
 20
102.532205
 30
0.0
 10
34.303349
 20
106.018703
 30
0.0
 10
33.386017
 20
109.564218
 30
0.0
 10
33.067247
 20
112.377533
 30
0.0
 10
32.467666
 20
115.112721
 30
0.0
 10
31.580717
 20
117.767952
 30
0.0
 10
30.399838
 20
120.341404
 30
0.0
 10
29.583984
 20
124.946227
 30
0.0
 10
28.726615
 20
129.794962
 30
0.0
 10
27.241594
 20
134.195783
 30
0.0
 10
24.542785
 20
137.456864
 30
0.0
 10
50.243940
 20
142.937865
 30
0.0
  0
LWPOLYLINE
  5
117
100
AcDbEntity
  8
_Y1
 62
7
100
AcDbPolyline
 90
155
 70
0
 10
36.028041
 20
164.812354
 30
0.0
 10
39.209919
 20
164.190700
 30
0.0
 10
41.876224
 20
162.971670
 30
0.0
 10
44.048431
 20
161.244565
 30
0.0
 10
45.748010
 20
159.098680
 30
0.0
 10
46.997728
 20
157.973813
 30
0.0
 10
48.089093
 20
156.309447
 30
0.0
 10
49.281149
 20
154.434032
 30
0.0
 10
50.832933
 20
152.676006
 30
0.0
 10
53.069835
 20
148.946288
 30
0.0
 10
54.768817
 20
144.935995
 30
0.0
 10
55.977001
 20
140.612012
 30
0.0
 10
56.741507
 20
135.941219
 30
0.0
 10
57.721409
 20
131.160358
 30
0.0
 10
58.080173
 20
126.294084
 30
0.0
 10
58.034113
 20
121.023128
 30
0.0
 10
57.882805
 20
117.124424
 30
0.0
 10
57.519958
 20
114.408969
 30
0.0
 10
56.789678
 20
110.233035
 30
0.0
 10
56.064576
 20
106.511219
 30
0.0
 10
55.710353
 20
104.552625
 30
0.0
 10
55.649758
 20
104.095901
 30
0.0
 10
55.526653
 20
103.426363
 30
0.0
 10
55.337525
 20
102.686196
 30
0.0
 10
55.166906
 20
102.111754
 30
0.0
 10
55.040317
 20
101.518424
 30
0.0
 10
54.824703
 20
100.352612
 30
0.0
 10
54.528706
 20
98.763546
 30
0.0
 10
54.268145
 20
97.464789
 30
0.0
 10
54.114392
 20
96.782928
 30
0.0
 10
53.881530
 20
95.798069
 30
0.0
 10
53.564270
 20
94.579111
 30
0.0
 10
53.269860
 20
93.507079
 30
0.0
 10
52.945174
 20
92.698916
 30
0.0
 10
52.398521
 20
91.480225
 30
0.0
 10
51.903187
 20
90.339247
 30
0.0
 10
51.664032
 20
89.660606
 30
0.0
 10
51.506804
 20
89.200517
 30
0.0
 10
51.139415
 20
88.303870
 30
0.0
 10
50.608009
 20
87.141623
 30
0.0
 10
50.177424
 20
86.238866
 30
0.0
 10
49.919092
 20
85.621249
 30
0.0
 10
49.413315
 20
84.433645
 30
0.0
 10
48.444334
 20
82.476024
 30
0.0
 10
47.413998
 20
80.575041
 30
0.0
 10
46.549013
 20
79.168954
 30
0.0
 10
45.233782
 20
77.038443
 30
0.0
 10
44.011827
 20
74.948879
 30
0.0
 10
43.059726
 20
73.034640
 30
0.0
 10
42.773079
 20
71.543914
 30
0.0
 10
43.031985
 20
69.846541
 30
0.0
 10
43.897267
 20
67.918367
 30
0.0
 10
44.817959
 20
66.487238
 30
0.0
 10
45.262930
 20
65.952359
 30
0.0
 10
45.788544
 20
65.334017
 30
0.0
 10
46.449559
 20
64.553660
 30
0.0
 10
47.120204
 20
63.748750
 30
0.0
 10
47.685640
 20
62.948897
 30
0.0
 10
48.564722
 20
61.556389
 30
0.0
 10
49.534828
 20
59.764707
 30
0.0
 10
50.251971
 20
58.299561
 30
0.0
 10
50.637242
 20
57.054901
 30
0.0
 10
51.206716
 20
54.820212
 30
0.0
 10
51.826962
 20
51.989140
 30
0.0
 10
52.296861
 20
49.750510
 30
0.0
 10
52.492587
 20
48.729871
 30
0.0
 10
52.760240
 20
47.323925
 30
0.0
 10
53.166838
 20
45.438048
 30
0.0
 10
53.594131
 20
43.617525
 30
0.0
 10
54.015242
 20
42.119143
 30
0.0
 10
54.654581
 20
39.858534
 30
0.0
 10
55.148019
 20
37.748618
 30
0.0
 10
55.325960
 20
36.501393
 30
0.0
 10
55.267767
 20
35.242612
 30
0.0
 10
55.133463
 20
32.651958
 30
0.0
 10
54.857387
 20
29.467241
 30
0.0
 10
54.562901
 20
27.218355
 30
0.0
 10
54.408272
 20
25.987833
 30
0.0
 10
54.153630
 20
23.898320
 30
0.0
 10
53.593570
 20
21.116658
 30
0.0
 10
52.929908
 20
18.732554
 30
0.0
 10
52.127066
 20
16.913128
 30
0.0
 10
50.578289
 20
13.974354
 30
0.0
 10
48.310253
 20
10.752700
 30
0.0
 10
46.308644
 20
8.461808
 30
0.0
 10
44.855843
 20
7.325364
 30
0.0
 10
42.472402
 20
5.794314
 30
0.0
 10
39.492220
 20
4.629601
 30
0.0
 10
37.044851
 20
4.103719
 30
0.0
 10
35.192980
 20
4.096552
 30
0.0
 10
32.210425
 20
4.304197
 30
0.0
 10
29.326021
 20
4.965007
 30
0.0
 10
27.067088
 20
6.289235
 30
0.0
 10
25.150476
 20
7.426474
 30
0.0
 10
23.610914
 20
8.906595
 30
0.0
 10
22.034643
 20
10.476261
 30
0.0
 10
20.007898
 20
11.882136
 30
0.0
 10
18.048853
 20
13.591096
 30
0.0
 10
16.336241
 20
15.380358
 30
0.0
 10
15.031747
 20
17.245159
 30
0.0
 10
14.297039
 20
19.180737
 30
0.0
 10
12.942899
 20
21.998474
 30
0.0
 10
11.940339
 20
25.145117
 30
0.0
 10
11.575010
 20
28.478796
 30
0.0
 10
12.132580
 20
31.857639
 30
0.0
 10
13.560564
 20
36.430003
 30
0.0
 10
15.296708
 20
40.946822
 30
0.0
 10
17.665372
 20
45.489932
 30
0.0
 10
19.722118
 20
48.606278
 30
0.0
 10
21.239020
 20
50.434598
 30
0.0
 10
23.647835
 20
53.287881
 30
0.0
 10
26.381616
 20
56.361999
 30
0.0
 10
28.440131
 20
58.558377
 30
0.0
 10
29.652710
 20
59.955477
 30
0.0
 10
30.952670
 20
62.280239
 30
0.0
 10
30.835260
 20
64.723891
 30
0.0
 10
40.065411
 20
73.687913
 30
0.0
 10
40.858051
 20
74.119983
 30
0.0
 10
41.789252
 20
75.422139
 30
0.0
 10
42.890818
 20
77.357382
 30
0.0
 10
44.786047
 20
80.753329
 30
0.0
 10
46.907561
 20
84.853196
 30
0.0
 10
48.386269
 20
87.961642
 30
0.0
 10
49.145192
 20
89.875873
 30
0.0
 10
50.290045
 20
92.942351
 30
0.0
 10
51.475644
 20
96.498846
 30
0.0
 10
52.302488
 20
99.229768
 30
0.0
 10
52.683847
 20
101.213250
 30
0.0
 10
53.141488
 20
104.527124
 30
0.0
 10
53.336404
 20
108.255911
 30
0.0
 10
53.279892
 20
110.930913
 30
0.0
 10
53.154880
 20
112.408406
 30
0.0
 10
52.988014
 20
114.760781
 30
0.0
 10
52.759550
 20
117.580687
 30
0.0
 10
52.531866
 20
119.837401
 30
0.0
 10
52.162012
 20
121.743590
 30
0.0
 10
51.393177
 20
125.101986
 30
0.0
 10
50.436438
 20
128.739756
 30
0.0
 10
49.422874
 20
132.115374
 30
0.0
 10
48.590976
 20
133.777775
 30
0.0
 10
47.882410
 20
135.578844
 30
0.0
 10
47.013881
 20
137.444077
 30
0.0
 10
45.702099
 20
139.298962
 30
0.0
 10
43.775716
 20
143.011620
 30
0.0
 10
41.479854
 20
146.590455
 30
0.0
 10
38.906925
 20
150.013399
 30
0.0
 10
36.149341
 20
153.258396
 30
0.0
 10
34.402819
 20
156.492627
 30
0.0
 10
32.100165
 20
159.805105
 30
0.0
 10
31.295243
 20
162.541772
 30
0.0
 10
34.041911
 20
164.048563
 30
0.0
 10
34.538437
 20
164.239514
 30
0.0
 10
35.034964
 20
164.430461
 30
0.0
 10
35.531493
 20
164.621411
 30
0.0
 10
36.028041
 20
164.812354
 30
0.0
  0
LWPOLYLINE
  5
118
100
AcDbEntity
  8
_Y1
 62
7
100
AcDbPolyline
 90
49
 70
0
 10
34.085095
 20
62.061263
 30
0.0
 10
32.471195
 20
59.723463
 30
0.0
 10
31.040679
 20
58.113315
 30
0.0
 10
29.739239
 20
56.977937
 30
0.0
 10
28.904155
 20
56.352071
 30
0.0
 10
28.495139
 20
56.101103
 30
0.0
 10
27.759527
 20
55.559328
 30
0.0
 10
26.465015
 20
54.193514
 30
0.0
 10
25.124499
 20
52.569147
 30
0.0
 10
24.164532
 20
51.386595
 30
0.0
 10
22.829370
 20
49.791838
 30
0.0
 10
21.584108
 20
48.245199
 30
0.0
 10
20.773979
 20
47.142843
 30
0.0
 10
19.942565
 20
44.882631
 30
0.0
 10
18.844039
 20
40.006508
 30
0.0
 10
18.914548
 20
34.326660
 30
0.0
 10
21.414932
 20
29.376720
 30
0.0
 10
23.672042
 20
27.309795
 30
0.0
 10
25.796867
 20
25.066424
 30
0.0
 10
27.970936
 20
22.868843
 30
0.0
 10
30.375780
 20
20.939290
 30
0.0
 10
33.352410
 20
19.526595
 30
0.0
 10
36.895337
 20
18.567387
 30
0.0
 10
40.420105
 20
18.030634
 30
0.0
 10
42.555442
 20
17.872318
 30
0.0
 10
43.409785
 20
17.994025
 30
0.0
 10
44.717625
 20
18.382264
 30
0.0
 10
46.241999
 20
19.261260
 30
0.0
 10
47.457229
 20
20.200898
 30
0.0
 10
48.236868
 20
21.149741
 30
0.0
 10
49.317729
 20
22.890082
 30
0.0
 10
50.066132
 20
25.311251
 30
0.0
 10
50.291684
 20
27.394806
 30
0.0
 10
50.250343
 20
29.297891
 30
0.0
 10
50.139375
 20
32.591991
 30
0.0
 10
49.646720
 20
36.253079
 30
0.0
 10
48.969232
 20
38.767810
 30
0.0
 10
48.313205
 20
40.458302
 30
0.0
 10
47.187601
 20
43.442783
 30
0.0
 10
45.573157
 20
46.997739
 30
0.0
 10
44.102396
 20
49.639024
 30
0.0
 10
42.530403
 20
51.663818
 30
0.0
 10
39.715538
 20
55.141652
 30
0.0
 10
36.762334
 20
58.643032
 30
0.0
 10
34.309437
 20
61.395876
 30
0.0
 10
34.064636
 20
61.391429
 30
0.0
 10
34.015046
 20
61.558695
 30
0.0
 10
34.056566
 20
61.810900
 30
0.0
 10
34.085095
 20
62.061263
 30
0.0
  0
LWPOLYLINE
  5
119
100
AcDbEntity
  8
_Y2
 62
7
100
AcDbPolyline
 90
157
 70
0
 10
43.616869
 20
21.395981
 30
0.0
 10
44.162032
 20
24.742805
 30
0.0
 10
44.399783
 20
28.353198
 30
0.0
 10
44.562107
 20
31.989471
 30
0.0
 10
44.868990
 20
36.024017
 30
0.0
 10
45.239764
 20
39.105559
 30
0.0
 10
45.445943
 20
41.338735
 30
0.0
 10
45.698413
 20
45.016608
 30
0.0
 10
46.098644
 20
49.233863
 30
0.0
 10
46.551094
 20
52.366005
 30
0.0
 10
46.776167
 20
54.356253
 30
0.0
 10
46.989246
 20
57.593547
 30
0.0
 10
47.148404
 20
60.942116
 30
0.0
 10
47.385386
 20
64.056702
 30
0.0
 10
47.366203
 20
66.156151
 30
0.0
 10
47.284674
 20
68.414186
 30
0.0
 10
47.341144
 20
70.462234
 30
0.0
 10
47.735952
 20
71.931733
 30
0.0
 10
45.749454
 20
69.658421
 30
0.0
 10
43.502190
 20
67.297634
 30
0.0
 10
40.999481
 20
64.885737
 30
0.0
 10
38.246640
 20
62.459091
 30
0.0
 10
33.773975
 20
60.106188
 30
0.0
 10
28.683618
 20
58.887522
 30
0.0
 10
23.585924
 20
59.361813
 30
0.0
 10
19.091265
 20
62.087765
 30
0.0
 10
17.169436
 20
64.655183
 30
0.0
 10
15.309399
 20
67.637797
 30
0.0
 10
13.859906
 20
70.891129
 30
0.0
 10
13.169715
 20
74.270702
 30
0.0
 10
13.173859
 20
77.422758
 30
0.0
 10
13.001872
 20
80.629478
 30
0.0
 10
12.937994
 20
83.803819
 30
0.0
 10
13.266448
 20
86.858733
 30
0.0
 10
13.017197
 20
91.543398
 30
0.0
 10
13.455734
 20
96.765621
 30
0.0
 10
13.178446
 20
101.463554
 30
0.0
 10
10.781707
 20
104.575345
 30
0.0
 10
8.931207
 20
102.848630
 30
0.0
 10
7.041851
 20
102.093961
 30
0.0
 10
6.144836
 20
102.668941
 30
0.0
 10
7.271356
 20
104.931170
 30
0.0
 10
10.431413
 20
107.633470
 30
0.0
 10
13.444142
 20
110.665476
 30
0.0
 10
16.611474
 20
113.816259
 30
0.0
 10
18.953355
 20
115.920647
 30
0.0
 10
20.457971
 20
117.070552
 30
0.0
 10
22.855658
 20
118.872000
 30
0.0
 10
25.677527
 20
120.804879
 30
0.0
 10
27.889116
 20
122.173836
 30
0.0
 10
29.875422
 20
122.663114
 30
0.0
 10
33.042563
 20
123.047397
 30
0.0
 10
35.465180
 20
122.924539
 30
0.0
 10
35.821206
 20
122.218575
 30
0.0
 10
35.514744
 20
119.056536
 30
0.0
 10
35.228283
 20
115.827387
 30
0.0
 10
34.919281
 20
112.660787
 30
0.0
 10
34.545201
 20
109.686398
 30
0.0
 10
33.616433
 20
106.065950
 30
0.0
 10
33.062931
 20
102.297394
 30
0.0
 10
32.809349
 20
98.429114
 30
0.0
 10
32.780355
 20
94.509499
 30
0.0
 10
32.638906
 20
90.953500
 30
0.0
 10
32.721913
 20
87.427673
 30
0.0
 10
33.236852
 20
83.968732
 30
0.0
 10
34.391221
 20
80.613387
 30
0.0
 10
35.968440
 20
76.935918
 30
0.0
 10
38.649154
 20
74.474835
 30
0.0
 10
41.998531
 20
73.885372
 30
0.0
 10
45.581739
 20
75.822754
 30
0.0
 10
47.091843
 20
79.810218
 30
0.0
 10
47.275077
 20
84.539177
 30
0.0
 10
47.006071
 20
89.506548
 30
0.0
 10
47.159462
 20
94.209247
 30
0.0
 10
47.007885
 20
97.030102
 30
0.0
 10
47.138122
 20
100.100792
 30
0.0
 10
47.193803
 20
103.244567
 30
0.0
 10
46.818543
 20
106.284667
 30
0.0
 10
46.961639
 20
107.793554
 30
0.0
 10
47.188588
 20
109.877411
 30
0.0
 10
47.405032
 20
112.173033
 30
0.0
 10
47.516611
 20
114.317212
 30
0.0
 10
47.835841
 20
117.209796
 30
0.0
 10
47.608502
 20
120.855078
 30
0.0
 10
46.276997
 20
123.243475
 30
0.0
 10
43.283718
 20
122.365395
 30
0.0
 10
41.792211
 20
123.149106
 30
0.0
 10
43.069590
 20
125.008955
 30
0.0
 10
45.496015
 20
127.036104
 30
0.0
 10
47.451647
 20
128.321717
 30
0.0
 10
48.909415
 20
130.032341
 30
0.0
 10
50.375668
 20
131.544229
 30
0.0
 10
51.913200
 20
132.973114
 30
0.0
 10
53.584805
 20
134.434727
 30
0.0
 10
56.940829
 20
136.711040
 30
0.0
 10
60.561533
 20
139.127173
 30
0.0
 10
64.192145
 20
141.513392
 30
0.0
 10
67.577894
 20
143.699959
 30
0.0
 10
69.217762
 20
138.559388
 30
0.0
 10
68.988024
 20
133.058047
 30
0.0
 10
68.239469
 20
127.418349
 30
0.0
 10
68.322885
 20
121.862708
 30
0.0
 10
68.092781
 20
118.672532
 30
0.0
 10
67.994578
 20
115.791549
 30
0.0
 10
67.886728
 20
112.946076
 30
0.0
 10
67.627682
 20
109.862431
 30
0.0
 10
67.731205
 20
107.129378
 30
0.0
 10
67.620738
 20
104.602728
 30
0.0
 10
67.480455
 20
102.159249
 30
0.0
 10
67.494527
 20
99.675713
 30
0.0
 10
67.265411
 20
95.952972
 30
0.0
 10
67.048319
 20
92.646839
 30
0.0
 10
66.941672
 20
89.432339
 30
0.0
 10
67.043900
 20
85.984499
 30
0.0
 10
66.953417
 20
84.262219
 30
0.0
 10
66.708070
 20
82.841040
 30
0.0
 10
66.421303
 20
81.486402
 30
0.0
 10
66.206561
 20
79.963748
 30
0.0
 10
66.041561
 20
78.488592
 30
0.0
 10
65.922130
 20
76.975517
 30
0.0
 10
65.845807
 20
75.597455
 30
0.0
 10
65.810137
 20
74.527323
 30
0.0
 10
65.639087
 20
73.370345
 30
0.0
 10
65.529471
 20
71.379429
 30
0.0
 10
65.341694
 20
68.649738
 30
0.0
 10
65.118088
 20
66.464557
 30
0.0
 10
64.830086
 20
64.775311
 30
0.0
 10
64.366782
 20
62.055653
 30
0.0
 10
63.996338
 20
59.509154
 30
0.0
 10
63.863099
 20
58.108507
 30
0.0
 10
63.872844
 20
57.325554
 30
0.0
 10
63.826981
 20
55.776753
 30
0.0
 10
63.627272
 20
53.789739
 30
0.0
 10
63.380607
 20
52.276434
 30
0.0
 10
63.159843
 20
51.133315
 30
0.0
 10
62.802277
 20
49.180400
 30
0.0
 10
62.359008
 20
47.037144
 30
0.0
 10
61.995409
 20
45.576798
 30
0.0
 10
61.857982
 20
44.880612
 30
0.0
 10
61.707630
 20
43.742099
 30
0.0
 10
61.501359
 20
42.167520
 30
0.0
 10
61.270733
 20
40.744565
 30
0.0
 10
61.064792
 20
39.791172
 30
0.0
 10
60.771006
 20
38.405424
 30
0.0
 10
60.537910
 20
36.989291
 30
0.0
 10
60.433121
 20
35.985256
 30
0.0
 10
60.349708
 20
35.202754
 30
0.0
 10
60.087868
 20
33.694466
 30
0.0
 10
59.506715
 20
31.514544
 30
0.0
 10
58.891114
 20
29.612649
 30
0.0
 10
58.526893
 20
28.133035
 30
0.0
 10
58.049115
 20
25.644873
 30
0.0
 10
57.573835
 20
22.935332
 30
0.0
 10
57.002116
 20
20.221232
 30
0.0
 10
56.554723
 20
19.304542
 30
0.0
 10
56.167158
 20
18.560558
 30
0.0
 10
43.616869
 20
21.395981
 30
0.0
  0
LWPOLYLINE
  5
11a
100
AcDbEntity
  8
_B1
 62
7
100
AcDbPolyline
 90
100
 70
0
 10
40.116270
 20
143.529664
 30
0.0
 10
42.864474
 20
142.423795
 30
0.0
 10
46.698826
 20
140.280391
 30
0.0
 10
50.312993
 20
137.383349
 30
0.0
 10
52.694222
 20
135.021416
 30
0.0
 10
53.896725
 20
133.357399
 30
0.0
 10
55.780645
 20
130.571869
 30
0.0
 10
57.964711
 20
127.134535
 30
0.0
 10
59.667460
 20
124.384182
 30
0.0
 10
60.874915
 20
122.446020
 30
0.0
 10
62.765099
 20
119.230166
 30
0.0
 10
64.476389
 20
115.775616
 30
0.0
 10
65.610269
 20
112.358988
 30
0.0
 10
67.078919
 20
109.132516
 30
0.0
 10
67.832637
 20
47.381531
 30
0.0
 10
64.633501
 20
50.590952
 30
0.0
 10
60.083340
 20
54.223688
 30
0.0
 10
55.510314
 20
57.737662
 30
0.0
 10
51.190692
 20
61.348831
 30
0.0
 10
47.400748
 20
65.273163
 30
0.0
 10
43.853101
 20
68.219669
 30
0.0
 10
40.786469
 20
71.460748
 30
0.0
 10
37.984123
 20
74.901062
 30
0.0
 10
35.229335
 20
78.445271
 30
0.0
 10
32.824365
 20
80.481035
 30
0.0
 10
30.746420
 20
83.028915
 30
0.0
 10
29.491140
 20
84.168986
 30
0.0
 10
29.554169
 20
81.981327
 30
0.0
 10
30.327852
 20
78.714453
 30
0.0
 10
30.948867
 20
75.657285
 30
0.0
 10
31.777959
 20
72.670581
 30
0.0
 10
33.175875
 20
69.615103
 30
0.0
 10
34.661498
 20
64.691316
 30
0.0
 10
37.148272
 20
60.203689
 30
0.0
 10
40.345900
 20
56.004522
 30
0.0
 10
43.964088
 20
51.946112
 30
0.0
 10
46.120628
 20
48.999433
 30
0.0
 10
48.860941
 20
46.376632
 30
0.0
 10
52.150713
 20
44.304427
 30
0.0
 10
55.955630
 20
43.009535
 30
0.0
 10
59.187037
 20
42.470629
 30
0.0
 10
62.388949
 20
43.208166
 30
0.0
 10
64.991849
 20
43.451137
 30
0.0
 10
66.426212
 20
41.428519
 30
0.0
 10
65.870497
 20
37.628102
 30
0.0
 10
64.088978
 20
33.595793
 30
0.0
 10
61.189594
 20
30.423231
 30
0.0
 10
57.280291
 20
29.202065
 30
0.0
 10
55.031876
 20
29.512005
 30
0.0
 10
52.800262
 20
29.779496
 30
0.0
 10
50.531116
 20
30.106817
 30
0.0
 10
48.170107
 20
30.596235
 30
0.0
 10
43.970060
 20
32.763703
 30
0.0
 10
41.341556
 20
35.280812
 30
0.0
 10
39.260952
 20
38.054321
 30
0.0
 10
36.704599
 20
40.990980
 30
0.0
 10
34.627938
 20
45.919702
 30
0.0
 10
32.477202
 20
50.776053
 30
0.0
 10
30.546772
 20
55.621407
 30
0.0
 10
29.131024
 20
60.517142
 30
0.0
 10
28.862863
 20
62.216647
 30
0.0
 10
28.778281
 20
63.907846
 30
0.0
 10
28.471630
 20
65.976165
 30
0.0
 10
27.537261
 20
68.807034
 30
0.0
 10
26.988497
 20
70.729612
 30
0.0
 10
26.389264
 20
72.370642
 30
0.0
 10
26.116653
 20
73.730932
 30
0.0
 10
26.547756
 20
74.811289
 30
0.0
 10
25.620700
 20
78.467514
 30
0.0
 10
25.013685
 20
80.874551
 30
0.0
 10
24.819798
 20
83.112084
 30
0.0
 10
25.132129
 20
86.259803
 30
0.0
 10
24.236722
 20
90.623785
 30
0.0
 10
23.649343
 20
93.158239
 30
0.0
 10
22.772560
 20
95.520667
 30
0.0
 10
21.008946
 20
99.368577
 30
0.0
 10
18.594335
 20
103.724357
 30
0.0
 10
16.277993
 20
108.201642
 30
0.0
 10
14.467270
 20
112.757275
 30
0.0
 10
13.569516
 20
117.348088
 30
0.0
 10
11.993626
 20
121.257729
 30
0.0
 10
11.201816
 20
125.495556
 30
0.0
 10
10.951610
 20
129.750919
 30
0.0
 10
11.000529
 20
133.713168
 30
0.0
 10
13.595915
 20
137.194256
 30
0.0
 10
15.109946
 20
133.760147
 30
0.0
 10
16.344098
 20
127.563845
 30
0.0
 10
18.099849
 20
122.758355
 30
0.0
 10
20.451378
 20
118.279127
 30
0.0
 10
22.965067
 20
114.495775
 30
0.0
 10
24.806079
 20
113.842611
 30
0.0
 10
25.139571
 20
118.753949
 30
0.0
 10
25.937765
 20
125.651357
 30
0.0
 10
27.225809
 20
132.869147
 30
0.0
 10
30.226577
 20
139.157374
 30
0.0
 10
36.162941
 20
143.266084
 30
0.0
 10
37.182320
 20
143.582603
 30
0.0
 10
38.048110
 20
143.744802
 30
0.0
 10
39.127850
 20
143.695225
 30
0.0
 10
40.116270
 20
143.529664
 30
0.0
  0
LWPOLYLINE
  5
11b
100
AcDbEntity
  8
_B1
 62
7
100
AcDbPolyline
 90
30
 70
0
 10
42.520455
 20
115.977542
 30
0.0
 10
35.925678
 20
113.976213
 30
0.0
 10
31.754346
 20
109.979464
 30
0.0
 10
31.467918
 20
105.048149
 30
0.0
 10
36.527851
 20
100.243113
 30
0.0
 10
40.317347
 20
96.243507
 30
0.0
 10
44.006863
 20
92.384646
 30
0.0
 10
47.776803
 20
88.603294
 30
0.0
 10
51.807575
 20
84.836210
 30
0.0
 10
55.244513
 20
81.728697
 30
0.0
 10
58.482114
 20
78.395147
 30
0.0
 10
61.777955
 20
75.184750
 30
0.0
 10
65.389615
 20
72.446691
 30
0.0
 10
65.999425
 20
72.557493
 30
0.0
 10
67.454998
 20
76.720497
 30
0.0
 10
66.963357
 20
80.259087
 30
0.0
 10
66.301375
 20
83.743362
 30
0.0
 10
65.527000
 20
87.487077
 30
0.0
 10
64.407580
 20
90.669766
 30
0.0
 10
63.200765
 20
94.020337
 30
0.0
 10
61.810685
 20
97.348042
 30
0.0
 10
60.141462
 20
100.462120
 30
0.0
 10
58.051913
 20
103.790513
 30
0.0
 10
55.359167
 20
107.160912
 30
0.0
 10
52.412896
 20
110.409967
 30
0.0
 10
49.562770
 20
113.374324
 30
0.0
 10
47.984567
 20
114.410272
 30
0.0
 10
46.216466
 20
115.012846
 30
0.0
 10
44.360939
 20
115.446963
 30
0.0
 10
42.520455
 20
115.977542
 30
0.0
  0
LWPOLYLINE
  5
11c
100
AcDbEntity
  8
_B1
 62
7
100
AcDbPolyline
 90
29
 70
0
 10
35.718753
 20
9.113216
 30
0.0
 10
34.129588
 20
11.882639
 30
0.0
 10
31.230738
 20
15.011290
 30
0.0
 10
29.221886
 20
17.949180
 30
0.0
 10
27.416916
 20
21.326499
 30
0.0
 10
25.838261
 20
24.777854
 30
0.0
 10
24.160811
 20
28.027149
 30
0.0
 10
22.059452
 20
30.798288
 30
0.0
 10
21.113910
 20
35.448454
 30
0.0
 10
19.946675
 20
39.293833
 30
0.0
 10
18.728139
 20
43.015655
 30
0.0
 10
17.628680
 20
47.295160
 30
0.0
 10
17.284766
 20
50.810514
 30
0.0
 10
17.068019
 20
54.411225
 30
0.0
 10
17.263766
 20
57.990191
 30
0.0
 10
18.157329
 20
61.440311
 30
0.0
 10
17.111189
 20
63.720380
 30
0.0
 10
17.747551
 20
64.059382
 30
0.0
 10
19.027391
 20
64.425626
 30
0.0
 10
19.911681
 20
66.787419
 30
0.0
 10
20.864331
 20
59.627655
 30
0.0
 10
23.585536
 20
52.785604
 30
0.0
 10
27.029811
 20
46.155116
 30
0.0
 10
30.151672
 20
39.630043
 30
0.0
 10
33.773625
 20
35.010987
 30
0.0
 10
37.457511
 20
30.172216
 30
0.0
 10
41.283960
 20
25.522632
 30
0.0
 10
45.333610
 20
21.471127
 30
0.0
 10
35.718753
 20
9.113216
 30
0.0
  0
LWPOLYLINE
  5
11d
100
AcDbEntity
  8
_B2
 62
7
100
AcDbPolyline
 90
63
 70
0
 10
18.631437
 20
127.501957
 30
0.0
 10
20.010259
 20
128.331253
 30
0.0
 10
21.687997
 20
131.329764
 30
0.0
 10
23.475520
 20
134.406147
 30
0.0
 10
25.651282
 20
137.287654
 30
0.0
 10
28.321692
 20
139.990220
 30
0.0
 10
31.455034
 20
141.998719
 30
0.0
 10
35.019593
 20
142.798017
 30
0.0
 10
40.802789
 20
142.333498
 30
0.0
 10
46.107275
 20
140.024146
 30
0.0
 10
50.827581
 20
136.547016
 30
0.0
 10
54.858231
 20
132.579165
 30
0.0
 10
58.316242
 20
129.553475
 30
0.0
 10
61.369499
 20
126.117587
 30
0.0
 10
63.936896
 20
122.645485
 30
0.0
 10
65.937310
 20
119.511155
 30
0.0
 10
67.841367
 20
115.279778
 30
0.0
 10
69.768219
 20
111.191884
 30
0.0
 10
71.386281
 20
107.086169
 30
0.0
 10
72.363968
 20
102.801331
 30
0.0
 10
73.489118
 20
99.568507
 30
0.0
 10
74.493177
 20
95.983247
 30
0.0
 10
75.180673
 20
91.711107
 30
0.0
 10
75.403388
 20
88.336217
 30
0.0
 10
75.544642
 20
86.350826
 30
0.0
 10
75.915651
 20
83.333766
 30
0.0
 10
76.348683
 20
80.096387
 30
0.0
 10
76.652367
 20
76.490750
 30
0.0
 10
76.918073
 20
70.948741
 30
0.0
 10
76.467306
 20
65.271814
 30
0.0
 10
75.450438
 20
59.469319
 30
0.0
 10
74.017842
 20
53.550607
 30
0.0
 10
72.144312
 20
49.477519
 30
0.0
 10
70.476507
 20
45.637808
 30
0.0
 10
68.708828
 20
42.040438
 30
0.0
 10
66.535671
 20
38.694362
 30
0.0
 10
64.435719
 20
35.574667
 30
0.0
 10
62.616604
 20
32.813159
 30
0.0
 10
61.580357
 20
30.799144
 30
0.0
 10
61.829024
 20
29.921926
 30
0.0
 10
59.598754
 20
28.447674
 30
0.0
 10
47.870139
 20
18.074482
 30
0.0
 10
43.320663
 20
16.536415
 30
0.0
 10
38.323228
 20
14.949721
 30
0.0
 10
33.097430
 20
13.513168
 30
0.0
 10
27.862874
 20
12.425520
 30
0.0
 10
23.061480
 20
12.250662
 30
0.0
 10
18.845345
 20
13.923401
 30
0.0
 10
15.380051
 20
16.883460
 30
0.0
 10
12.831183
 20
20.570559
 30
0.0
 10
10.361984
 20
24.506903
 30
0.0
 10
8.720592
 20
28.702915
 30
0.0
 10
8.071155
 20
33.054383
 30
0.0
 10
8.577836
 20
37.457090
 30
0.0
 10
9.275037
 20
42.395810
 30
0.0
 10
10.722670
 20
47.066470
 30
0.0
 10
12.635597
 20
51.646560
 30
0.0
 10
14.728677
 20
56.313570
 30
0.0
 10
15.239362
 20
59.534587
 30
0.0
 10
12.505011
 20
62.957659
 30
0.0
 10
8.734326
 20
66.544600
 30
0.0
 10
6.136009
 20
70.257227
 30
0.0
 10
18.631437
 20
127.501957
 30
0.0
  0
LWPOLYLINE
  5
11e
100
AcDbEntity
  8
_B2
 62
7
100
AcDbPolyline
 90
65
 70
0
 10
48.181874
 20
115.136820
 30
0.0
 10
43.343236
 20
116.278322
 30
0.0
 10
38.312182
 20
116.343175
 30
0.0
 10
33.606440
 20
115.106259
 30
0.0
 10
29.743726
 20
112.342446
 30
0.0
 10
26.504217
 20
109.484708
 30
0.0
 10
23.643019
 20
105.975651
 30
0.0
 10
21.282265
 20
102.025993
 30
0.0
 10
19.544078
 20
97.846465
 30
0.0
 10
18.581824
 20
95.226385
 30
0.0
 10
17.795917
 20
92.548645
 30
0.0
 10
17.203129
 20
89.865460
 30
0.0
 10
16.820219
 20
87.229052
 30
0.0
 10
17.637277
 20
82.340188
 30
0.0
 10
20.414660
 20
77.996183
 30
0.0
 10
23.989884
 20
73.940248
 30
0.0
 10
27.200470
 20
69.915604
 30
0.0
 10
31.641948
 20
70.570324
 30
0.0
 10
36.063407
 20
72.526374
 30
0.0
 10
40.755016
 20
73.563555
 30
0.0
 10
46.006945
 20
71.461672
 30
0.0
 10
49.001484
 20
69.115705
 30
0.0
 10
52.157589
 20
65.739346
 30
0.0
 10
53.297250
 20
63.626396
 30
0.0
 10
50.242450
 20
65.070658
 30
0.0
 10
47.582599
 20
64.248831
 30
0.0
 10
44.694872
 20
64.241087
 30
0.0
 10
41.718213
 20
64.553442
 30
0.0
 10
38.791565
 20
64.691913
 30
0.0
 10
35.198074
 20
63.085117
 30
0.0
 10
35.323929
 20
60.082368
 30
0.0
 10
37.799287
 20
56.395346
 30
0.0
 10
41.254309
 20
52.735731
 30
0.0
 10
44.103123
 20
49.460818
 30
0.0
 10
46.859369
 20
46.211083
 30
0.0
 10
49.517579
 20
42.911916
 30
0.0
 10
52.072282
 20
39.488708
 30
0.0
 10
54.305052
 20
35.677606
 30
0.0
 10
56.797070
 20
33.752189
 30
0.0
 10
59.403170
 20
34.373311
 30
0.0
 10
61.978190
 20
38.201822
 30
0.0
 10
66.041010
 20
43.962168
 30
0.0
 10
69.122764
 20
50.392238
 30
0.0
 10
71.414218
 20
57.349533
 30
0.0
 10
73.106124
 20
64.691560
 30
0.0
 10
73.812845
 20
69.235204
 30
0.0
 10
73.992347
 20
73.825899
 30
0.0
 10
73.679332
 20
78.319071
 30
0.0
 10
72.908497
 20
82.570142
 30
0.0
 10
72.065091
 20
85.832009
 30
0.0
 10
71.416085
 20
88.948947
 30
0.0
 10
70.614387
 20
91.958736
 30
0.0
 10
69.312910
 20
94.899159
 30
0.0
 10
68.390145
 20
97.841719
 30
0.0
 10
66.758743
 20
100.752009
 30
0.0
 10
64.680946
 20
103.103725
 30
0.0
 10
62.419006
 20
104.370566
 30
0.0
 10
61.373436
 20
106.863975
 30
0.0
 10
58.472277
 20
109.382623
 30
0.0
 10
54.877755
 20
111.779525
 30
0.0
 10
51.752094
 20
113.907697
 30
0.0
 10
50.835698
 20
114.146214
 30
0.0
 10
49.754912
 20
114.657661
 30
0.0
 10
48.780163
 20
115.101407
 30
0.0
 10
48.181874
 20
115.136820
 30
0.0
  0
LWPOLYLINE
  5
11f
100
AcDbEntity
  8
_B2
 62
7
100
AcDbPolyline
 90
33
 70
0
 10
21.724740
 20
52.059918
 30
0.0
 10
19.216531
 20
47.650845
 30
0.0
 10
17.306380
 20
42.610767
 30
0.0
 10
16.193874
 20
37.460041
 30
0.0
 10
16.078597
 20
32.719027
 30
0.0
 10
17.308894
 20
28.008351
 30
0.0
 10
19.640519
 20
23.634280
 30
0.0
 10
23.235172
 20
20.132871
 30
0.0
 10
28.254548
 20
18.040183
 30
0.0
 10
32.584494
 20
17.527413
 30
0.0
 10
36.091847
 20
17.985372
 30
0.0
 10
39.129612
 20
19.048933
 30
0.0
 10
42.050788
 20
20.352970
 30
0.0
 10
43.647921
 20
20.965470
 30
0.0
 10
44.875332
 20
21.451900
 30
0.0
 10
45.473191
 20
22.014374
 30
0.0
 10
45.181667
 20
22.855011
 30
0.0
 10
43.937425
 20
25.059752
 30
0.0
 10
42.309254
 20
27.196772
 30
0.0
 10
40.660424
 20
29.322482
 30
0.0
 10
39.354204
 20
31.493290
 30
0.0
 10
37.452466
 20
33.772527
 30
0.0
 10
35.653935
 20
36.112477
 30
0.0
 10
33.838515
 20
38.391939
 30
0.0
 10
31.886125
 20
40.489708
 30
0.0
 10
29.576021
 20
42.956087
 30
0.0
 10
27.478150
 20
45.089170
 30
0.0
 10
25.582347
 20
47.166077
 30
0.0
 10
23.878442
 20
49.463934
 30
0.0
 10
23.243812
 20
50.026665
 30
0.0
 10
22.904932
 20
50.721590
 30
0.0
 10
22.514382
 20
51.436683
 30
0.0
 10
21.724740
 20
52.059918
 30
0.0
  0
ENDSEC
  0
SECTION
  2
OBJECTS
  0
DICTIONARY
  5
C
330
0
100
AcDbDictionary
  3
ACAD_GROUP
350
D
  3
ACAD_MLINESTYLE
350
17
  0
DICTIONARY
  5
D
330
C
100
AcDbDictionary
  0
DICTIONARY
  5
1A
330
C
100
AcDbDictionary
  0
DICTIONARY
  5
17
330
C
100
AcDbDictionary
  3
STANDARD
350
18
  0
DICTIONARY
  5
19
330
C
100
AcDbDictionary
  0
ENDSEC
  0
EOF
