<?xml version="1.0" encoding="UTF-8" standalone="no"?>
<!-- Created with Inkscape (http://www.inkscape.org/) -->

<svg
   xmlns:dc="http://purl.org/dc/elements/1.1/"
   xmlns:cc="http://creativecommons.org/ns#"
   xmlns:rdf="http://www.w3.org/1999/02/22-rdf-syntax-ns#"
   xmlns:svg="http://www.w3.org/2000/svg"
   xmlns="http://www.w3.org/2000/svg"
   xmlns:sodipodi="http://sodipodi.sourceforge.net/DTD/sodipodi-0.dtd"
   xmlns:inkscape="http://www.inkscape.org/namespaces/inkscape"
   width="301.18109"
   height="602.36218"
   id="svg2"
   version="1.1"
   inkscape:version="0.48.4 r9939"
   sodipodi:docname="Letters.svg">
  <defs
     id="defs4" />
  <sodipodi:namedview
     id="base"
     pagecolor="#ffffff"
     bordercolor="#666666"
     borderopacity="1.0"
     inkscape:pageopacity="0.0"
     inkscape:pageshadow="2"
     inkscape:zoom="1.1973675"
     inkscape:cx="126.16448"
     inkscape:cy="213.83181"
     inkscape:document-units="mm"
     inkscape:current-layer="layer18"
     showgrid="false"
     showguides="true"
     inkscape:guide-bbox="true"
     units="mm"
     inkscape:window-width="1205"
     inkscape:window-height="697"
     inkscape:window-x="67"
     inkscape:window-y="-8"
     inkscape:window-maximized="1">
    <sodipodi:guide
       orientation="1,0"
       position="-20.043971,192.92322"
       id="guide3238" />
  </sodipodi:namedview>
  <metadata
     id="metadata7">
    <rdf:RDF>
      <cc:Work
         rdf:about="">
        <dc:format>image/svg+xml</dc:format>
        <dc:type
           rdf:resource="http://purl.org/dc/dcmitype/StillImage" />
        <dc:title></dc:title>
      </cc:Work>
    </rdf:RDF>
  </metadata>
  <g
     inkscape:label="Scratch"
     inkscape:groupmode="layer"
     id="layer1"
     transform="translate(0,-449.99999)"
     style="display:none">
    <text
       xml:space="preserve"
       style="font-size:40px;font-style:normal;font-weight:normal;line-height:125%;letter-spacing:0px;word-spacing:0px;fill:#000000;fill-opacity:1;stroke:none;font-family:Sans"
       x="243.94502"
       y="97.0709"
       id="text2985"
       sodipodi:linespacing="125%"><tspan
         sodipodi:role="line"
         id="tspan2987"
         x="243.94502"
         y="97.0709"
         style="font-size:88px;font-style:normal;font-variant:normal;font-weight:normal;font-stretch:normal;font-family:ANGEL TEARS;-inkscape-font-specification:ANGEL TEARS">Freedom</tspan></text>
    <text
       xml:space="preserve"
       style="font-size:40px;font-style:normal;font-weight:normal;line-height:125%;letter-spacing:0px;word-spacing:0px;fill:#000000;fill-opacity:1;stroke:none;font-family:Sans"
       x="251.40468"
       y="171.95285"
       id="text3046"
       sodipodi:linespacing="125%"><tspan
         sodipodi:role="line"
         id="tspan3048"
         x="251.40468"
         y="171.95285"
         style="font-size:88px;font-style:normal;font-variant:normal;font-weight:normal;font-stretch:normal;font-family:ANGEL TEARS;-inkscape-font-specification:ANGEL TEARS">Beauty</tspan></text>
    <text
       xml:space="preserve"
       style="font-size:40px;font-style:normal;font-weight:normal;line-height:125%;letter-spacing:0px;word-spacing:0px;fill:#000000;fill-opacity:1;stroke:none;font-family:Sans"
       x="267.17908"
       y="253.78262"
       id="text3050"
       sodipodi:linespacing="125%"><tspan
         sodipodi:role="line"
         id="tspan3052"
         x="267.17908"
         y="253.78262"
         style="font-size:88px;font-style:normal;font-variant:normal;font-weight:normal;font-stretch:normal;font-family:ANGEL TEARS;-inkscape-font-specification:ANGEL TEARS">Truth</tspan></text>
    <text
       xml:space="preserve"
       style="font-size:40px;font-style:normal;font-weight:normal;line-height:125%;letter-spacing:0px;word-spacing:0px;fill:#000000;fill-opacity:1;stroke:none;font-family:Sans"
       x="87.745155"
       y="369.133"
       id="text3054"
       sodipodi:linespacing="125%"><tspan
         sodipodi:role="line"
         id="tspan3056"
         x="87.745155"
         y="369.133"
         style="font-size:88px;font-style:normal;font-variant:normal;font-weight:normal;font-stretch:normal;font-family:ANGEL TEARS;-inkscape-font-specification:ANGEL TEARS">Love</tspan></text>
    <flowRoot
       xml:space="preserve"
       id="flowRoot3088"
       style="font-size:40px;font-style:normal;font-weight:normal;line-height:125%;letter-spacing:0px;word-spacing:0px;fill:#000000;fill-opacity:1;stroke:none;font-family:Sans"><flowRegion
         id="flowRegion3090"><rect
           id="rect3092"
           width="239.57387"
           height="90.702866"
           x="-91.688766"
           y="234.06461" /></flowRegion><flowPara
         id="flowPara3094" /></flowRoot>    <text
       xml:space="preserve"
       style="font-size:40px;font-style:normal;font-weight:normal;line-height:125%;letter-spacing:0px;word-spacing:0px;fill:#000000;fill-opacity:1;stroke:none;font-family:Sans"
       x="392.04205"
       y="1143.1531"
       id="text3054-2"
       sodipodi:linespacing="125%"><tspan
         sodipodi:role="line"
         id="tspan3056-82"
         x="392.04205"
         y="1143.1531"
         style="font-size:1100px;font-style:normal;font-variant:normal;font-weight:normal;font-stretch:normal;font-family:ANGEL TEARS;-inkscape-font-specification:ANGEL TEARS">v</tspan></text>
  </g>
  <g
     inkscape:groupmode="layer"
     id="layer5"
     inkscape:label="E"
     style="display:none">
    <g
       transform="scale(0.99999672,1.0000033)"
       style="font-size:39.9998703px;font-style:normal;font-weight:normal;line-height:125%;letter-spacing:0px;word-spacing:0px;fill:#000000;fill-opacity:1;stroke:none;font-family:Sans"
       id="text3054-2-10">
      <path
         style="font-size:1099.99645996px;font-variant:normal;font-stretch:normal;font-family:ANGEL TEARS;-inkscape-font-specification:ANGEL TEARS"
         d="m 225.51807,494.56941 -3.27694,4.66035 -2.54113,4.97351 -3.03865,5.04039 -4.76953,4.861 -11.32574,11.45399 -11.6753,10.75043 -11.46926,10.13425 -10.70765,9.60541 -6.61103,6.12179 -7.24061,6.16164 -9.22863,6.50997 -7.80718,4.70257 -6.86475,3.14009 -11.96157,4.96356 -13.04927,4.72239 -12.511849,3.64871 -8.517158,2.30197 -8.719103,1.84531 -8.842522,1.16618 -8.88741,0.26452 -9.514286,-1.06906 -8.702206,-3.72782 -8.486404,-4.5149 -8.866885,-3.43031 L 12.649981,578.7662 7.1253321,566.96797 3.5839848,554.23848 1.2808629,541.35555 2.2469851,529.37824 4.2176336,517.4963 l 2.8310472,-11.72748 3.5473182,-11.51395 4.808403,-8.23738 4.470907,-8.409 4.080983,-8.59448 3.638631,-8.79384 5.906647,-8.67779 6.84593,-7.97558 6.883673,-7.94948 6.019882,-8.59946 6.359449,-6.12454 6.40741,-6.0836 6.575684,-5.94863 6.864271,-5.71964 7.574596,-5.15184 8.130242,-4.16343 8.487793,-3.40607 8.64723,-2.87979 15.03635,-4.74639 15.65934,-1.26009 15.8814,0.76475 15.70255,1.3281 6.7942,2.60564 6.48122,3.46377 6.01973,4.19712 5.4097,4.8057 2.17016,3.60805 2.14937,3.62355 2.151,3.62403 2.17505,3.60948 -2.24535,7.7829 -1.66746,7.95629 -2.17401,7.77067 -3.76501,7.22602 -3.80708,6.08229 -4.60531,5.47612 -5.0864,5.09502 -5.25036,4.93897 -20.29745,15.27863 -21.67466,13.9366 -22.09122,12.03238 -14.75097,6.92424 -6.371606,2.53861 -8.58876,3.70452 -7.759672,3.95673 -7.282438,4.61614 -6.369189,5.32399 -3.080574,6.70744 -0.861011,9.31451 0.289497,13.14518 3.807517,6.26332 4.453047,5.77773 5.487989,4.38362 6.912341,2.08096 19.624189,-4.14833 18.13707,-6.40789 16.68017,-8.40233 15.25352,-10.13165 12.60045,-9.51004 12.34354,-10.07036 11.65012,-10.43708 10.52019,-10.6102 5.30746,-6.04928 5.61201,-5.76019 6.27224,-4.43995 7.28818,-2.08856 1.62894,-0.40485 1.02463,-0.48037 0.46766,0.24933 -0.042,1.78425 z m -119.90928,98.99565 z m -28.600981,7.68735 z m 110.006361,-195.8093 -16.56928,-0.94412 -16.40791,6.31573 -14.38593,10.06375 -10.50338,10.29992 -13.19342,15.26104 -6.90601,7.31152 -6.1741,8.03011 -9.831033,13.45609 -9.188505,12.74163 -7.407085,12.90023 -6.258572,12.61801 4.80405,2.2458 10.16933,-6.13612 14.327379,-6.26686 13.927916,-7.45859 14.25155,-7.96236 13.07524,-9.663 13.12102,-10.41748 12.4847,-11.19497 11.19403,-12.07526 7.61284,-14.7683 3.32906,-11.91487 z"
         id="path3273"
         inkscape:connector-curvature="0"
         sodipodi:nodetypes="cccccccccccccccccccccccccccccccccccccccccccccccccccccccccccccccccccccccccccccccccccccccccccccccccccccccccccccccccccccccccccccccccc" />
    </g>
  </g>
  <g
     inkscape:groupmode="layer"
     id="layer4"
     inkscape:label="V"
     style="display:none">
    <g
       style="font-size:40px;font-style:normal;font-weight:normal;line-height:125%;letter-spacing:0px;word-spacing:0px;fill:#000000;fill-opacity:1;stroke:none;font-family:Sans"
       id="text3054-2-1">
      <path
         style="font-size:1100px;font-variant:normal;font-stretch:normal;fill:#000000;font-family:ANGEL TEARS;-inkscape-font-specification:ANGEL TEARS"
         d="m 292.59033,364.75842 -0.13516,6.36157 -0.64995,6.13657 -2.36136,6.85732 -2.95947,5.38686 -2.51866,4.80096 -3.86713,8.47454 -4.01352,9.13742 -4.11276,8.35812 -5.34877,7.91689 -5.28354,7.43262 -4.89684,7.22704 -4.18863,7.30014 -3.38843,5.19993 -3.7404,4.90233 -3.75136,4.90737 -3.42133,5.21506 -5.94294,7.476 -5.90643,8.17369 -4.02585,8.70578 -0.30119,9.07228 2.30072,2.04296 2.21211,1.69726 1.99063,1.64032 1.63631,1.87214 6.98036,2.64905 7.17241,2.05983 7.2581,0.4529 7.23742,-2.17174 5.96318,-2.00937 4.31644,0.71956 1.36363,3.36963 -2.8953,5.94088 -5.4055,7.76858 -7.65074,4.8557 -8.9556,2.5171 -9.32005,0.75277 -11.67033,-0.17368 -11.81037,-1.30995 -10.87226,-3.78842 -8.856,-7.60911 -6.1729,3.01779 -6.10218,6.71428 -6.35538,7.69138 -6.93245,5.94906 -6.52971,4.90063 -6.52041,5.32246 -6.63292,5.41209 -6.86723,5.16949 -11.18756,6.78598 -11.35187,6.54353 -11.30292,6.61641 -11.040674,7.00463 -11.948821,3.40171 -12.22355,1.90072 -12.371343,0.51431 -12.392202,-0.75755 -7.634869,0.10974 -7.506653,-1.25937 -7.45436,-1.59808 -7.477989,-0.90644 -5.549253,-5.26342 -4.852754,-6.05958 -3.6355998,-7.34584 -1.6203841,-5.82261 -0.54619464,-2.46313 -0.63307219,-3.50244 0.66679847,-6.21456 1.62025646,-6.98331 3.1969683,-8.92614 6.1899495,-15.84418 7.81065,-17.41698 5.898135,-11.54749 3.23951,-6.19703 4.778238,-10.29461 4.845163,-11.96406 3.351051,-8.97944 1.877087,-6.18298 2.683192,-10.27992 2.007783,-10.58139 0.635017,-9.38283 -0.848088,-4.12416 -3.569215,-2.38418 -3.916637,-2.11525 -1.890352,-3.31737 2.998201,-7.11066 7.478331,-3.66444 9.169613,-1.77849 8.072045,-1.45278 17.044948,-1.69181 17.069064,-1.52496 17.045,-1.6794 16.97275,-2.15515 5.51265,-0.19063 5.11629,-0.57684 5.19359,-0.0567 5.74455,1.36989 3.38136,7.08185 -3.36513,8.55535 -5.88858,8.96933 -4.18902,8.32382 -15.18393,26.48179 -14.30444,27.14234 -11.36043,28.26434 -6.351851,29.8478 0.408286,7.58015 3.016315,5.16933 7.48761,1.68518 8.11064,-1.08565 5.36447,-1.91327 7.35188,-3.15594 7.79908,-4.56613 6.10982,-4.26358 5.14257,-3.86362 8.81868,-6.74538 9.05382,-7.55932 7.57403,-7.69225 5.6869,-7.78093 1.71597,-8.35915 0.003,-11.14625 0.0379,-9.85797 1.04293,-8.99558 2.29935,-15.50583 3.84873,-18.29199 3.62522,-13.63919 2.40711,-7.90524 4.0696,-12.05106 5.35636,-11.55677 7.42788,-9.85092 6.8217,-7.69606 6.87538,-7.46776 6.93126,-6.8093 6.98934,-5.7207 7.20716,-4.83509 8.70309,-2.50243 8.55314,-0.87785 6.75729,0.0386 7.26722,3.95858 6.14384,5.29385 4.77198,6.51976 z"
         id="path3269"
         inkscape:connector-curvature="0"
         sodipodi:nodetypes="ccccccccccccccccccccccccccccccccccccccccccccccccccccccccccccccccccccccccccccccccccccccccccccccccccccccccccccccccccccccccccccccccccccccccccccc" />
    </g>
  </g>
  <g
     inkscape:groupmode="layer"
     id="layer3"
     inkscape:label="O"
     style="display:none">
    <g
       style="font-size:40px;font-style:normal;font-weight:normal;line-height:125%;letter-spacing:0px;word-spacing:0px;fill:#000000;fill-opacity:1;stroke:none;font-family:Sans"
       id="text3054-5-20">
      <path
         style="font-size:1100px;font-variant:normal;font-stretch:normal;font-family:ANGEL TEARS;-inkscape-font-specification:ANGEL TEARS"
         d="m 170.49866,506.68958 -11.48354,-10.27904 -7.30307,-13.46675 -4.00532,-15.15544 -1.59031,-15.34512 1.88924,-10.09256 3.87855,-9.48581 4.62671,-9.25008 4.13369,-9.3854 -7.01255,2.80583 -7.76485,6.60152 -7.79348,8.06111 -7.09845,7.18462 -7.28443,8.08281 -7.65794,7.73046 -7.18322,8.08845 -5.86028,9.15675 -6.553559,10.22652 -5.945982,10.02313 -5.885741,11.096 -6.372837,13.4451 -5.54989,10.34589 -2.901775,11.31954 -0.833156,11.75996 0.655967,11.66714 7.207019,8.50417 10.310673,2.87423 11.440514,-1.09043 10.596537,-3.3898 16.01292,-8.44717 14.22305,-11.13184 13.01896,-12.68688 12.40066,-13.11228 4.37117,-3.71041 3.91358,-4.20031 1.19268,-4.40861 z m 114.40429,-17.62391 -12.92522,8.81809 -12.6764,9.39494 -13.38096,7.95513 -15.03887,4.49864 -11.19027,1.83152 -11.35147,0.7046 -11.31704,0.72152 -11.08695,1.88229 -8.04991,6.47874 -7.09312,7.58126 -7.11265,7.60399 -8.1085,6.54694 -9.12511,8.36947 -9.41111,8.0555 -9.95655,7.3017 -10.76141,6.10811 -11.25726,6.35633 -11.714686,5.79199 -12.218651,4.14913 -12.769151,1.42778 -14.472443,0.58886 -14.291751,-2.43983 -12.9974,-5.9502 -10.589392,-9.94226 -7.2671853,-9.35655 -4.4465872,-10.71527 -1.6635213,-11.52303 1.0820125,-11.77986 2.3601551,-10.45996 3.6645414,-10.12813 4.2226898,-9.97245 4.034601,-9.99292 4.899388,-10.06643 5.696383,-9.62024 6.02857,-9.42167 5.89595,-9.4707 9.356531,-10.23054 9.318776,-10.30246 9.648628,-9.96097 10.346093,-9.2061 8.069231,-5.57527 8.234173,-5.35012 8.431045,-5.07505 8.65985,-4.75009 11.91025,-4.9294 12.31773,-3.78359 12.49404,-3.24438 12.43918,-3.31182 10.49826,-1.21686 10.42093,-1.68938 10.39051,-1.87305 10.40703,-1.76786 11.0144,-1.41923 11.1844,-0.56734 10.91889,1.46402 10.21788,4.67484 7.83878,8.1222 2.86402,10.40608 -0.74247,11.27672 -2.9807,10.73409 -5.53956,15.37929 -8.16916,14.12272 -9.53854,13.39742 -9.64772,13.20334 -4.83824,7.46358 -6.28578,7.45183 -5.32398,7.2213 -1.95288,6.77202 14.273,-0.98161 14.51656,-3.19381 14.0388,-5.65904 8.94791,-5.19218 4.89156,-3.82124 7.85334,-5.475 7.88025,-4.11778 6.91816,-1.3421 -1.62953,5.12421 0.15242,3.13359 1.668,1.75963 z"
         id="path3263"
         inkscape:connector-curvature="0"
         sodipodi:nodetypes="cccccccccccccccccccccccccccccccccccccccccccccccccccccccccccccccccccccccccccccccccccccccccccccccccccccccccccccccccccccc" />
    </g>
  </g>
  <g
     inkscape:groupmode="layer"
     id="layer2"
     inkscape:label="L1"
     style="display:none">
    <g
       transform="matrix(0.73492867,-0.67814442,0.67814442,0.73492867,0,0)"
       style="font-size:40px;font-style:normal;font-weight:normal;line-height:125%;letter-spacing:0px;word-spacing:0px;fill:#000000;fill-opacity:1;stroke:none;font-family:Sans"
       id="text3054-5-2">
      <path
         style="font-size:1100px;font-variant:normal;font-stretch:normal;font-family:ANGEL TEARS;-inkscape-font-specification:ANGEL TEARS"
         d="m -147.20517,220.25337 -0.41837,12.28002 -1.85539,19.88587 -1.03464,29.06354 -0.21893,31.42492 -0.92271,29.34295 0.6738,28.88008 -0.74892,22.68987 -1.183,22.58772 -1.2351,18.62121 -5.80102,15.87321 21.32611,-18.64527 19.64831,-19.81489 11.32424,-6.60887 8.823447,-5.57777 20.844447,-8.8206 20.656663,-9.37206 19.561205,-5.29907 19.426485,-5.89293 11.2374302,-4.50223 11.8536901,-5.30744 14.3945397,-6.98469 14.23413,-9.5311 17.819661,-15.13871 13.652249,-18.98166 6.585385,-30.53713 -13.297865,-27.72365 -17.309205,-6.71124 -18.748935,-1.16766 -24.8982149,22.80373 -16.6199551,28.72262 4.754066,-24.66608 5.5618543,-25.16328 12.5509237,-26.2083 22.899896,-20.49451 22.164588,-0.71676 20.164772,9.88745 16.464311,22.91709 8.427514,28.484 0.775722,31.93513 -10.523191,23.31586 -10.354239,15.58845 -12.301197,16.39488 -12.012431,11.36809 -12.000709,10.46769 -9.022822,7.30675 -12.682078,8.92919 -27.447467,18.71334 -23.831823,16.15903 -25.445952,12.67508 -23.288098,12.82816 -17.151997,9.40224 -20.40433,14.89118 -20.81201,14.90106 -19.1525,16.45366 -19.45259,24.1308 -17.09478,27.91722 -9.02899,15.25075 -0.80863,-4.13281 -8.28654,10.8871 -3.97403,-3.44326 1.62681,-15.35026 1.88332,-15.60895 -0.28998,-39.93759 -0.84607,-40.03931 -0.24177,-37.35447 -0.0641,-37.3781 -2.05715,-22.94367 -1.39709,-23.34859 -6.39346,-24.98437 -1.95041,-16.04637 41.63655,-39.27314 z"
         id="path3009"
         inkscape:connector-curvature="0"
         sodipodi:nodetypes="ccccccccccccccccccccccccccccccccccccccccccccccccccccccccccccccccccccccccc" />
    </g>
  </g>
  <g
     inkscape:groupmode="layer"
     id="layer7"
     inkscape:label="L2"
     style="display:none">
    <g
       transform="matrix(0.42478297,-0.90529522,0.90529522,0.42478297,-40.969359,179.36187)"
       style="font-size:40px;font-style:normal;font-weight:normal;line-height:125%;letter-spacing:0px;word-spacing:0px;fill:#000000;fill-opacity:1;stroke:none;display:inline;font-family:Sans"
       id="text3054-5-2-6">
      <path
         style="font-size:1100px;font-variant:normal;font-stretch:normal;font-family:ANGEL TEARS;-inkscape-font-specification:ANGEL TEARS"
         d="m 194.93861,195.64905 -8.57804,14.90268 -11.91228,14.11531 -19.27321,16.3821 -21.6083,14.79893 -23.75712,16.2146 -25.985548,13.78718 -20.256878,9.13984 -19.354938,12.84808 -40.8934919,16.98925 -25.3704051,8.80268 -56.72885,7.60333 -56.728849,7.60333 -20.77723,-8.22442 -32.04877,-11.89404 -15.3506,-8.97307 -11.69348,-13.01485 -10.43359,-22.30795 1.63842,-21.70145 10.17155,-19.7024 11.80954,-12.1953 23.36444,-16.46979 25.33464,-15.97618 12.90923,-8.071 16.11778,-9.18578 10.63226,-6.06343 16.231564,-7.47133 13.599575,-4.96877 22.640705,-8.79494 23.739298,4.84959 5.407116,15.23363 -7.913067,3.81387 -13.111906,5.15272 -28.644755,8.84656 -36.62933,12.37785 -22.07803,8.67994 -26.18732,12.14035 -15.98449,11.76802 -18.59007,16.97298 -6.95669,30.80556 15.49168,27.21899 20.33234,13.80093 28.09132,7.5871 12.85951,2.87211 5.8051,0.22028 16.81446,-20.7221 25.763744,-32.38647 13.477656,-15.01697 18.071029,-17.49578 17.836226,-16.56846 23.8258304,-18.81919 12.7528779,-9.69693 15.0175337,-10.91498 11.494364,-6.72237 12.605818,-7.23389 9.049638,-5.72069 13.490791,-5.63433 14.188658,-4.68303 19.330205,-7.15371 19.016919,-6.49347 24.72963,-5.42667 19.3086,3.13738 18.48887,11.82433 12.74242,14.30741 z m -41.43175,-4.14908 -11.27051,-21.56768 -19.90821,1.51327 -29.369293,18.03727 -25.508357,23.62043 -24.297542,23.8221 -20.484637,26.18113 -13.8304127,20.17932 -17.8000153,25.06325 -3.901689,9.98296 18.849498,-7.60071 27.520721,-15.43287 34.909374,-20.45933 18.567573,-9.19085 21.94265,-15.01264 25.63902,-21.87574 z"
         id="path3009-8"
         inkscape:connector-curvature="0"
         sodipodi:nodetypes="cccccccccccccccccccccccccccccccccccccccccccccccccccccccccccccccccccccccccccccccccc" />
    </g>
  </g>
  <g
     inkscape:groupmode="layer"
     id="layer6"
     inkscape:label="R"
     style="display:none">
    <g
       style="font-size:1100px;font-style:normal;font-variant:normal;font-weight:normal;font-stretch:normal;line-height:125%;letter-spacing:0px;word-spacing:0px;fill:#000000;fill-opacity:1;stroke:none;font-family:ANGEL TEARS;-inkscape-font-specification:ANGEL TEARS"
       id="text3012"
       transform="translate(-60.236218,192.51968)">
      <path
         d="m 339.53831,288.16388 -8.73507,6.42054 -9.56244,10.05372 -13.59847,14.18725 -15.45577,17.00179 -5.5462,5.58878 -1.53487,3.11934 -10.38093,8.72083 -11.36878,10.65517 -17.15576,11.01515 -17.74265,10.05139 -3.73781,2.96559 -5.96829,1.55708 -12.49162,3.29381 -13.65962,0.97875 -14.24837,-1.42581 -13.70959,-4.07962 -4.93694,-1.66813 -4.30771,-4.28672 -8.6217,-16.08554 1.15522,-19.23013 7.4995,-28.23497 12.95469,-26.13314 8.74255,-15.3549 8.42808,-15.5293 6.93231,-8.53494 3.93571,-4.8486 6.07959,-8.32358 -4.98332,-2.93059 -10.92747,1.13453 -10.93977,0.40748 -12.29016,3.30134 -6.64191,7.91562 -7.53024,10.90708 -6.53635,10.87462 -4.21617,3.40353 -4.57899,3.89511 -4.22903,3.3539 -5.99547,2.14468 -6.85639,2.75255 -6.0316,3.16513 -4.26485,1.57392 -4.12479,-0.48292 -9.30028,-2.5673 -1.220739,-7.82045 15.267229,-4.42521 11.69744,-14.00407 8.28569,-9.48445 -0.35569,-8.55336 -11.40818,-11.2412 -2.37704,-16.69644 4.48056,-16.01697 7.94746,-14.45094 3.83011,-5.7353 4.64715,-4.77632 6.02009,-6.92838 6.63554,-6.25596 16.62587,-2.79418 14.23483,4.82086 11.3321,4.78573 4.56297,12.28846 2.50439,10.27412 4.08994,7.19855 8.24127,-1.66168 8.24127,-1.66168 15.63301,-5.58637 16.09301,-6.05742 16.03222,-4.61569 15.69738,-5.52062 12.72702,-3.66487 11.83601,0.99834 7.69403,3.85033 3.31687,7.40355 -4.06518,15.75875 -8.84762,13.96394 -5.48716,11.26984 -8.01911,10.70425 -8.38691,11.14079 -8.09564,9.7729 -4.13122,8.90083 -4.69751,8.6895 -5.90852,8.57018 -6.15027,10.7674 -8.51676,14.695 -2.52015,4.47145 -9.58619,21.75642 -4.71435,23.36077 9.40035,-1.63834 8.79345,-4.24794 22.25208,-17.03044 21.73848,-17.72326 20.89327,-16.49488 21.73887,-15.32238 4.28972,1.77563 z"
         id="path3017"
         inkscape:connector-curvature="0"
         sodipodi:nodetypes="ccccccccccccccccccccccccccccccccccccccccccccccccccccccccccccccccccccccccccccccccccccccccccccccc" />
    </g>
  </g>
  <g
     inkscape:groupmode="layer"
     id="layer8"
     inkscape:label="U"
     style="display:none">
    <g
       transform="matrix(-4.5517492e-4,-0.9999999,0.9999999,-4.5517492e-4,0,0)"
       style="font-size:1100px;font-style:normal;font-variant:normal;font-weight:normal;font-stretch:normal;line-height:125%;letter-spacing:0px;word-spacing:0px;fill:#000000;fill-opacity:1;stroke:none;font-family:ANGEL TEARS;-inkscape-font-specification:ANGEL TEARS"
       id="text3021">
      <path
         d="m -240.01624,146.68661 -3.85208,4.40598 -3.85208,4.40598 -3.85208,4.40597 -3.85208,4.40598 -3.94288,3.94664 -4.10736,5.30093 -4.20288,5.62861 -4.22942,4.92972 -14.00761,16.69932 -16.38995,16.55797 -16.86805,14.49842 -15.44191,10.52066 -11.79146,8.1514 -7.10536,4.29587 -7.00602,2.47821 -11.4934,2.69842 -4.95148,1.0994 -4.95147,1.09939 -4.95148,1.0994 -4.95148,1.0994 -1.29881,-0.55384 -1.71416,-0.55388 -2.12953,-0.55391 -2.54488,-0.55395 -2.89125,-0.62097 -3.16814,-0.75529 -3.44502,-0.88961 -3.72191,-1.02392 -4.5802,-2.75839 -4.58738,-3.26396 -4.39013,-3.72268 -3.98844,-4.13454 -2.82075,-3.65514 -2.30342,-3.87368 -1.67422,-4.0666 -0.93317,-4.23388 0.20554,-2.33719 0.61682,-2.61418 1.02808,-2.89119 1.43936,-3.16818 -4.01685,2.78738 -4.36298,2.85657 -4.70913,2.92575 -5.05527,2.99494 -25.00122,13.46623 -15.55123,6.6228 -13.28915,2.21374 -18.21498,0.23904 -1.37634,0 -1.37634,0 -1.37635,0 -1.37634,0 -0.88331,-0.62097 -1.57567,-0.7553 -2.26802,-0.8896 -2.96038,-1.02393 -1.09939,-0.82245 -1.0994,-0.82245 -1.09939,-0.82244 -1.0994,-0.82245 -0.41333,-0.13841 -1.23998,-0.4154 -2.06661,-0.69239 -2.89324,-0.96938 -1.22948,-2.0613 -1.50643,-1.78649 -1.78337,-1.51169 -2.06031,-1.23689 -1.85681,-1.23675 -1.17282,-1.51165 -0.48886,-1.78654 0.19513,-2.06144 -0.20562,-2.33719 -0.61684,-2.61419 -1.02806,-2.89118 -1.43928,-3.16818 -0.45004,-2.19871 -0.24233,-2.19877 -0.0346,-2.19882 0.17309,-2.19887 0.65384,-6.92057 1.18061,-5.65428 1.77401,-5.41773 2.43402,-6.21091 1.10044,-2.81972 1.10254,-2.95407 1.10464,-3.08841 1.10674,-3.22276 2.19878,-3.64846 2.19879,-4.3325 2.1988,-5.01656 2.1988,-5.7006 0.89377,-1.72031 2.68135,-5.16124 4.46892,-8.60219 6.2565,-12.04312 5.57243,-10.6526 5.33121,-13.80265 5.37637,-13.399821 5.7079,-9.444118 0.5539,-1.644898 0.55389,-1.644897 0.5539,-1.644898 0.55389,-1.644897 0.82245,-2.198792 0.82245,-2.198791 0.82244,-2.198792 0.82245,-2.198791 0,-1.65329 0,-1.65329 0,-1.65329 0,-1.65329 -4.87177,-0.06907 -3.63809,-0.207653 -2.4044,-0.34624 -1.1707,-0.484829 -0.55389,-0.822449 -0.55389,-0.822449 -0.5539,-0.822448 -0.55389,-0.822449 3.71987,-1.43911 3.43875,-1.028003 3.15762,-0.616894 2.87651,-0.205787 15.18283,-2.697795 12.49793,-2.899225 12.68954,-4.229744 15.75763,-6.68935 3.70305,-0.343901 4.52973,-1.032195 5.35643,-1.72049 6.18312,-2.408785 3.30658,0 3.30658,0 3.30658,0 3.30658,0 0.46989,-0.539019 0.33566,-0.543341 0.20145,-0.547662 0.0672,-0.551985 0.0692,0.551985 0.20768,0.547662 0.34622,0.543341 0.48474,0.539019 2.40851,0.344273 1.7204,1.032319 1.03228,1.720366 0.34418,2.408413 -1.69261,10.188301 -2.68682,7.055638 -3.51834,6.683333 -4.18719,9.071386 -1.99326,1.380703 -1.58198,1.926095 -1.1707,2.471488 -0.75943,3.01688 -4.44265,5.46874 -4.65355,6.113982 -3.68058,6.096547 -1.52376,5.416434 -0.27695,0 -0.27694,0 -0.27695,0 -0.27695,0 0,-0.268555 0,-0.268555 0,-0.268554 0,-0.268555 -1.09939,2.475738 -1.0994,2.47574 -1.09939,2.47574 -1.0994,2.47574 -5.15847,7.07961 -7.10786,13.53518 -6.74861,14.49868 -4.08076,9.97014 -2.47542,7.4736 -4.04497,8.89726 -4.35991,8.68455 -3.42024,6.83546 -5.02071,9.73598 -5.19875,10.89475 -2.56475,10.75929 2.88126,9.32959 6.11377,-0.34401 6.25647,-1.03223 6.39916,-1.72046 6.54188,-2.40867 0.67762,-0.48458 0.95881,-0.34616 1.23998,-0.20773 1.52117,-0.0693 0.88323,-1.9931 1.57565,-1.58193 2.26804,-1.17075 2.96046,-0.75959 0,-0.5455 0,-0.54551 0,-0.5455 0,-0.5455 8.25425,-5.29884 7.77833,-4.75326 6.08985,-4.13319 3.18885,-3.43861 2.47574,-6.31943 2.47574,-6.31942 2.47573,-6.31943 2.47574,-6.31943 2.30353,-2.65117 3.77956,-5.71004 3.62498,-5.93122 1.83978,-3.31469 0.78879,-1.9983 0.72171,-1.58086 0.65463,-1.16343 0.58756,-0.74599 0.74473,-3.02951 1.16021,-2.4757 1.57569,-1.92188 1.99117,-1.36808 1.10779,-3.30658 1.10778,-3.30658 1.10779,-3.30658 1.10779,-3.30658 2.46735,-3.84369 2.46734,-3.84368 2.46735,-3.84369 2.46735,-3.84369 1.65329,-2.75269 1.65329,-2.75268 1.65328,-2.752689 1.65329,-2.752687 0.0691,-0.484508 0.20767,-0.346134 0.34622,-0.20776 0.48476,-0.06939 1.12657,-1.78322 1.19797,-2.060267 1.26938,-2.337315 1.34078,-2.614364 1.47904,-2.888904 1.68472,-3.161758 1.89041,-3.434615 2.09609,-3.707472 2.47574,-4.951477 2.47574,-4.951477 2.47574,-4.951478 2.47574,-4.951477 -1.64501,-0.06906 -1.64494,-0.207653 -1.64486,-0.346241 -1.64478,-0.484831 0,0.553894 0,0.553895 0,0.553894 0,0.553894 -2.47795,0.885563 -1.92817,0.474224 -1.37841,0.06289 -0.82863,-0.348454 0,-1.099396 0,-1.099395 0,-1.099396 0,-1.099396 1.23041,-0.60722 1.50954,-0.747908 1.78865,-0.888597 2.06777,-1.029285 9.17516,-4.593889 9.19734,-3.989867 9.1767,-3.396692 9.11318,-2.814366 6.51828,-1.676612 6.44665,-1.382594 6.35889,-1.092662 6.25498,-0.806818 10.81087,-0.741193 10.34095,0.125965 9.78038,0.970175 9.12917,1.791436 -0.48482,2.889245 -0.34624,3.161872 -0.20766,3.434501 -0.0691,3.707131 -4.39758,6.32782 -4.39759,6.32782 -4.39758,6.32782 -4.39759,6.32782 -0.62224,1.161453 -0.75851,1.301914 -0.89478,1.442378 -1.03105,1.582841 -5.53224,9.71034 -5.76315,10.05756 -5.89357,10.349316 -5.92352,10.5856 -0.26855,0 -0.26856,0 -0.26855,0 -0.26856,0 0,0.27695 0,0.27695 0,0.27694 0,0.27695 -1.09939,2.19879 -1.0994,2.1988 -1.0994,2.19879 -1.09939,2.19879 -4.06833,7.41895 -3.37586,5.77397 -2.6834,4.12898 -1.99094,2.48401 -0.5876,1.16141 -0.65465,1.3019 -0.72169,1.44239 -0.78875,1.58288 -0.99463,1.79083 -1.33862,2.06561 -1.68261,2.34037 -2.02662,2.61514 -0.65683,1.26421 -0.86236,1.61032 -1.06788,1.95642 -1.2734,2.30254 -3.9596,9.48507 -4.35215,9.08916 -4.18263,9.01263 -3.45106,9.25548 -1.50864,1.03235 -1.23581,3.0968 -0.96298,5.16126 -0.69015,7.22571 0,1.37634 0,1.37635 0,1.37634 0,1.37634 2.0581,-0.20764 2.88482,-0.6231 3.71155,-1.03858 4.53828,-1.45405 0.83084,-0.5455 0.83084,-0.5455 0.83084,-0.5455 0.83084,-0.5455 5.86068,-3.59653 7.15915,-4.46081 7.24561,-5.66056 6.12006,-7.1958 4.98728,-2.51106 5.31998,-4.2277 4.84087,-4.70201 3.54999,-3.93399 5.1003,-3.82101 4.39414,-4.29373 4.0445,-4.36539 4.05139,-4.03598 4.85165,-4.36705 3.54466,-3.19849 2.23766,-2.02993 0.93067,-0.86138 0.24216,-0.30935 0.17303,-0.37447 0.10391,-0.43959 0.0348,-0.5047 0.0691,0.95474 0.20765,0.68192 0.34624,0.40909 0.48483,0.13626 2.335,-0.48035 2.60785,-1.44134 2.88073,-2.40234 3.15359,-3.36335 0.83084,0 0.83084,0 0.83085,0 0.83084,0 0,-0.27695 0,-0.27694 0,-0.27695 0,-0.27695 0.53903,-0.48454 0.54334,-0.34614 0.54766,-0.20775 0.55197,-0.0694 0.62086,-0.0691 0.75525,-0.20767 0.88965,-0.34623 1.02404,-0.48478 0.27695,-0.26855 0.27694,-0.26855 0.27695,-0.26856 0.27695,-0.26855 0.27694,0.26855 0.27695,0.26856 0.27695,0.26855 z"
         id="path3026"
         inkscape:connector-curvature="0"
         sodipodi:nodetypes="ccccccccccccccccccccccccccccccccccccccccccccccccccccccccccccccccccccccccccccccccccccccccccccccccccccccccccccccccccccccccccccccccccccccccccccccccccccccccccccccccccccccccccccccccccccccccccccccccccccccccccccccccccccccccccccccccccccccccccccccccccccccccccccccccccccccccccccccccccccccccccccccccccccccccccccccccccccccccccccccccccccccccccccccccccccccccccccccccccccccccccccccccccccccccccccccccccccccccccccc" />
    </g>
  </g>
  <g
     inkscape:groupmode="layer"
     id="layer9"
     inkscape:label="t"
     style="display:none">
    <g
       transform="matrix(0.92080238,-0.39002945,0.39002945,0.92080238,0,0)"
       style="font-size:1100px;font-style:normal;font-variant:normal;font-weight:normal;font-stretch:normal;line-height:125%;letter-spacing:0px;word-spacing:0px;fill:#000000;fill-opacity:1;stroke:none;font-family:ANGEL TEARS;-inkscape-font-specification:ANGEL TEARS"
       id="text3029">
      <path
         d="m 152.65961,179.1123 -2.93264,11.32134 -6.53825,9.5186 -6.86523,7.90219 -3.91361,6.47211 -6.78023,8.9334 -6.84527,8.4048 -6.79222,8.81355 -6.62111,10.15963 -4.81815,7.87655 -5.463969,8.00578 -5.000103,8.03999 -3.426536,7.97919 -2.434242,4.73907 10.450063,0.13885 15.411417,-1.51221 12.4498,-0.21408 7.54294,-1.84387 8.42999,-0.0947 4.87887,2.5583 -3.11042,6.11513 -4.13016,5.81953 -2.72159,5.82769 -2.49723,5.16394 -3.45712,3.82827 -4.17625,1.54999 -5.57391,0.31465 -6.56633,-0.62652 -7.15352,-1.27352 -10.454768,-0.44481 -11.080634,-0.342 -10.132851,1.72501 -7.611418,5.75621 -4.233758,7.39055 -4.217426,6.38281 -4.410447,5.86839 -4.812822,5.84728 -13.234964,23.90852 -6.462354,11.74698 -6.353684,12.04892 -5.683079,9.04313 -4.728499,9.33751 -4.5566825,9.40219 -5.16762819,9.23717 -5.89367091,11.27362 -5.6667744,11.41899 -6.215501,11.06779 -7.539848,10.22001 -7.160201,16.77107 -7.261985,16.73499 -7.201161,16.75824 -6.977728,16.84081 -1.409211,3.67335 -0.45485,7.0199 -0.193699,8.14358 -0.625759,7.04443 2.360715,10.86476 10.313044,3.28181 12.896709,-2.55763 10.111709,-6.65355 7.708989,-7.16457 7.9465249,-7.38658 7.2690362,-7.26128 5.6765237,-6.78865 7.3583442,-8.20718 5.985941,-9.10836 5.641617,-9.36511 6.325377,-8.9774 3.464814,-5.18972 5.408778,-3.64979 5.619967,-0.2629 4.098381,4.97096 -6.110679,6.77384 -6.204325,6.80701 -5.253173,7.35265 -3.257225,8.41075 -9.088836,12.82517 -11.079639,11.19834 -12.05623145,10.34878 -12.01861355,10.27648 -10.826037,8.53698 -10.640556,5.52168 -10.771142,3.20558 -11.217792,1.58866 -14.134351,-0.26409 -14.312139,-2.21354 -13.90266,-3.79037 -12.905918,-4.9946 -4.12336,-2.50112 -4.71237,-5.23184 -4.42248,-6.38604 -3.25371,-5.96375 -3.43331,-14.34914 -0.94468,-14.34465 1.8962,-14.16387 5.08937,-13.80677 3.74464,-8.59183 3.74464,-8.59183 3.74464,-8.59183 3.74464,-8.59183 8.36898,-13.32747 7.97747,-14.12354 7.823395,-14.50233 7.906767,-14.46383 5.687325,-10.63923 6.189406,-10.03288 6.327887,-9.84972 6.10277,-10.08979 4.550171,-8.12759 5.466587,-9.78727 6.167501,-10.72434 4.439796,-7.43442 3.226777,-5.76076 3.712708,-9.2329 -2.34618,-6.84318 -6.871371,-1.77787 -7.374985,0.65329 -10.384188,-0.14429 -8.854659,-1.40915 -6.272381,-2.42423 -1.835045,-2.58602 0.127785,-3.23467 1.417663,-3.63195 1.34743,-2.55612 1.086477,-2.26402 2.030296,-3.95908 2.418827,-3.69543 2.595647,-2.08396 4.716936,-0.36305 5.430992,0.79287 5.778366,0.94525 5.759055,0.0941 10.148574,-0.0546 10.144163,-0.29985 10.1423705,-0.39955 10.1431942,-0.35374 6.3413363,-11.11133 6.869145,-11.24694 7.183916,-11.15073 7.285647,-10.8227 3.139598,-6.09353 3.826023,-5.72512 3.88005,-5.23219 3.301677,-4.61478 5.363952,-11.35172 5.717765,-10.56206 7.595691,-8.20091 10.99773,-4.26832 7.072589,-3.22153 7.301939,-3.29549 7.818875,-2.98907 8.6234,-2.3023 11.967,-0.46416 12.82505,-2.13799 12.25383,-0.56836 z"
         id="path3034"
         inkscape:connector-curvature="0"
         sodipodi:nodetypes="cccccccccccccccccccccccccccccccccccccccccccccccccccccccccccccccccccccccccccccccccccccccccccccccccccccccccccccccccccccccccccccccccccccccccccccccccccccccccccc" />
    </g>
  </g>
  <g
     inkscape:groupmode="layer"
     id="layer10"
     inkscape:label="h"
     style="display:none">
    <g
       style="font-size:1100px;font-style:normal;font-variant:normal;font-weight:normal;font-stretch:normal;line-height:125%;letter-spacing:0px;word-spacing:0px;fill:#000000;fill-opacity:1;stroke:none;font-family:ANGEL TEARS;-inkscape-font-specification:ANGEL TEARS"
       id="text3038">
      <path
         d="m 176.18474,94.97167 -5.73898,8.37928 -12.79624,7.80492 -14.19883,8.31136 -9.94675,9.89861 -8.83574,15.43079 -5.11264,15.6297 -2.97279,16.21901 -2.41621,17.19872 -2.83411,9.70577 -0.84482,11.1369 -0.87561,13.0551 -2.9265,15.46034 -3.24836,19.1805 -1.85163,20.95124 -0.72244,20.93008 0.1392,19.11701 4.88305,-3.57336 10.17772,-14.89672 11.46061,-18.41317 8.7317,-14.12268 14.07908,-14.88418 14.92402,-15.45255 16.75045,-12.90296 19.55837,-7.23537 14.04327,1.31968 8.55567,9.66059 3.34705,13.78987 -1.58261,13.70752 -0.68864,18.7649 -2.7579,18.74309 -3.30334,18.96753 -2.32494,19.43819 -2.32212,22.57202 -0.91011,23.56608 2.26564,23.5776 7.20513,22.60656 14.4708,-11.5635 7.58878,-10.05645 4.02531,-7.97962 3.78039,-5.33305 6.84372,-16.50855 5.57342,-20.8756 4.94306,-17.72072 4.95264,-7.04388 -5.0536,16.87492 -3.58956,18.9297 -3.47048,19.9618 -4.69636,19.97127 -11.17204,21.83557 -13.77467,21.03099 -16.57592,17.08467 -19.57581,9.9966 -11.97962,3.53172 -8.59103,0.42216 -8.51161,-3.43828 -11.74134,-8.04962 -8.35221,-14.02609 -3.18791,-16.45058 -0.87994,-17.49391 -1.4283,-17.15609 -1.11248,-18.81003 2.20252,-18.51909 2.92299,-18.50268 1.04895,-18.7608 2.43591,-18.20931 -2.20648,-11.6763 -7.09564,-1.30355 -12.23159,12.90896 -8.70789,11.22406 -9.78904,12.16905 -7.92103,11.55027 -3.10388,9.36774 0.143993,5.84963 -0.06411,5.67753 0.06553,7.92662 0.247773,7.49233 0.432488,7.63505 0.578113,13.26098 0.0334,15.31427 -0.4753,11.0572 -0.720834,8.41817 -1.083496,14.68871 -0.950708,16.19153 -0.499521,10.92287 -0.581073,5.91166 -0.843715,9.46665 0.441868,10.14168 1.561566,7.03672 -1.586572,5.06266 -4.981507,8.23586 -5.602778,7.0267 -2.622023,3.04739 -2.968542,2.11703 -2.968541,2.11703 -2.968542,2.11703 -2.968542,2.11703 -0.925296,0.60516 -2.344909,1.35005 -3.118056,1.39677 -3.244738,0.74533 -11.49999,7.45643 -7.125561,-0.53154 -3.644656,-9.67474 -1.037354,-11.70046 0.02423,-9.03373 0.03698,-13.55442 -0.08398,-14.6732 -0.177383,-10.89836 0.02398,-6.93923 0.230481,-11.12149 0.383171,-12.46258 0.278466,-9.17436 0.436087,-4.22822 0.872447,-6.57028 0.900287,-10.13242 0.482488,-10.16512 0.0291,-10.91762 -0.09177,-19.15821 -0.301092,-20.22672 -0.5508,-17.64842 0.847601,-7.54579 -0.426503,-10.03252 -0.59401,-10.97469 0.34508,-10.37234 0.811108,-23.72995 3.336573,-23.4969 5.079486,-23.24862 6.039846,-22.9851 7.4197,-21.72331 10.023037,-20.7889 12.260915,-19.78809 14.133334,-18.72088 9.093594,-10.06739 9.11719,-9.13655 8.99538,-8.74675 8.72816,-8.898012 12.06484,-6.493234 13.42892,-2.40637 10.84922,1.457705 z"
         id="path3043"
         inkscape:connector-curvature="0"
         sodipodi:nodetypes="ccccccccccccccccccccccccccccccccccccccccccccccccccccccccccccccccccccccccccccccccccccccccccccccccccccccccccccccccccccccccccccccccccccccccccccc" />
    </g>
  </g>
  <g
     inkscape:groupmode="layer"
     id="layer12"
     inkscape:label="a"
     style="display:none">
    <g
       style="font-size:1100px;font-style:normal;font-variant:normal;font-weight:normal;font-stretch:normal;line-height:125%;letter-spacing:0px;word-spacing:0px;fill:#000000;fill-opacity:1;stroke:none;font-family:ANGEL TEARS;-inkscape-font-specification:ANGEL TEARS"
       id="text3048"
       transform="matrix(-0.03105324,-0.99951773,0.99951773,-0.03105324,-248.34883,575.11747)">
      <path
         d="m 315.01195,410.74921 -7.20469,6.99188 -7.92161,6.51736 -8.16548,6.3665 -7.9363,6.53926 -7.47872,5.87558 -6.79261,6.53674 -6.81695,6.62497 -7.55171,6.14026 -3.61729,3.29267 -3.79479,3.73348 -5.54798,4.66195 -5.28771,3.82445 -5.62102,4.21941 -9.96991,7.62023 -11.75105,8.14679 -8.58961,5.09703 -5.47602,2.00809 -9.3211,3.01623 -10.3234,2.94153 -10.56766,2.69843 -6.75404,1.16502 -6.77647,1.00549 -6.71287,-0.007 -6.56325,-1.8724 -3.41182,-1.33224 -3.12817,-1.93478 -3.0218,-2.16072 -3.09274,-2.01005 -3.41066,-1.94702 -3.63002,-2.09653 -2.58542,-2.82744 -0.27686,-4.13975 -4.45413,4.04522 -4.28573,3.68199 -3.5295,2.02165 -2.18544,-0.9358 -7.55302,2.83647 -8.119557,2.31411 -7.652515,1.51746 -6.151897,0.44654 -10.815105,1.08318 -10.413342,-2.88392 -11.154474,-5.80511 -8.380723,-4.99842 -4.273215,-3.35639 -5.522216,-6.12074 -4.949831,-9.42926 -3.319242,-8.87056 -1.850053,-7.0604 -2.5511985,-11.76089 -1.5523798,-14.87292 -0.185356,-12.24711 2.2621685,-10.08565 4.8428748,-17.0049 5.537328,-17.21893 4.619979,-14.24051 2.559168,-5.23204 4.069461,-5.48729 5.199271,-6.80493 3.938946,-5.70525 3.59552,-4.31319 6.712804,-7.00305 7.487561,-7.31259 6.924618,-6.98165 4.577922,-4.1093 5.401366,-3.0474 5.226311,-3.14448 4.052758,-4.40051 8.602917,-3.3892 8.493411,-4.15176 8.79914,-3.54331 9.52012,-1.56385 10.37966,-2.35373 10.47061,-1.29109 12.34439,-1.53834 10.0258,-1.69743 6.76342,0.62106 9.83315,3.0225 8.83496,5.03883 5.09976,3.98163 1.53878,4.18114 2.13141,6.42339 2.103,3.21578 2.28185,-4.447 2.41924,-0.78888 1.96761,-1.62602 2.09091,-1.59963 2.78912,-0.70967 4.93666,-1.45674 5.35737,-1.99101 4.29904,-1.75759 1.76169,-0.75646 1.70299,-0.56364 5.42857,-1.29679 9.63362,-1.43874 14.31808,-0.98951 7.97319,0.31724 8.90271,-1.59806 7.38516,-1.13932 3.42055,1.69345 -0.13423,3.13771 -0.95606,3.08271 -1.63741,2.92947 -2.17828,2.678 -6.58383,9.1119 -6.65023,9.06476 -6.27064,9.27283 -5.44504,9.73611 -3.65189,5.52951 -3.53056,4.77325 -3.62534,3.51167 -3.93619,1.74475 -3.29339,4.65224 -3.45902,4.59869 -3.31521,4.64519 -2.86198,4.79171 -4.31287,6.09235 -4.61103,6.78384 -4.54877,7.09955 -4.12609,7.03946 -2.91028,4.62576 -2.88268,4.74853 -2.71953,5.11998 -2.42086,5.74015 -2.69873,6.80639 -2.84795,6.84081 -3.25536,6.30247 -3.92096,5.19133 -2.91963,8.86192 -3.08134,9.09908 -1.77613,9.24314 0.99601,9.29409 5.51601,1.2196 6.26186,-0.24285 7.3938,-1.80878 5.73359,-2.06821 4.86428,-1.83671 8.34153,-3.26278 9.02656,-4.57518 6.00602,-4.02404 2.94288,-2.14564 4.61581,-2.94392 4.66173,-3.10559 4.33187,-3.85801 10.53889,-9.80588 10.53889,-9.80588 10.5389,-9.80589 10.53889,-9.80588 7.07238,-3.50991 6.77351,-5.55275 5.72617,-5.34719 3.93037,-2.89324 -1.76973,3.56682 0.95264,2.63229 1.28593,2.8527 -0.76988,4.22804 -0.0264,0.18336 -0.0264,0.18337 -0.0264,0.18336 -0.0264,0.18336 0,-10e-6 0,0 0,-1e-5 z m -130.92041,-90.20081 -1.41793,-1.31251 -1.64721,-1.2479 -2.03648,-1.34404 -2.58576,-1.60092 -2.97077,-2.00456 -3.65493,-0.35285 -3.91722,0.28035 -3.75761,-0.10495 -7.0471,3.79778 -6.55226,5.10618 -6.1168,5.36075 -3.93344,3.32562 -2.47248,2.07452 -4.1538,3.79809 -4.7545,4.63365 -3.47365,3.46713 -2.61508,3.39528 -4.73356,6.31949 -5.38059,6.69167 -5.40847,5.37785 -2.2584,3.79562 -3.11221,3.52135 -2.976825,3.89904 -1.852282,4.92871 -2.346743,3.77659 -2.558837,3.71431 -2.370754,3.76954 -1.78249,3.94227 -3.012759,5.25872 -2.409892,6.49849 -2.559124,6.83339 -3.460456,6.26344 -4.532845,8.58362 -1.824917,8.37116 -0.736955,5.782 -1.26896,0.81616 4.21376,18.47166 4.698538,12.61636 4.507778,7.31312 3.641481,2.56194 7.367274,0.19762 8.695212,-0.81945 7.677876,-2.45784 4.31527,-4.71752 -0.0358,-5.23678 0.0291,-5.21043 0.72088,-5.07726 2.03952,-4.83729 4.11553,-5.60288 2.68756,-6.69166 2.41945,-6.99154 3.31119,-6.50258 4.47577,-9.0036 4.5057,-8.97683 4.92321,-8.72365 5.72831,-8.24408 5.28851,-7.52929 4.38906,-7.61672 4.33088,-7.51564 5.11397,-7.22603 4.0526,-8.69571 5.46331,-7.772 5.56544,-7.70637 4.35898,-8.49886 1.09289,-3.79152 -0.16411,-3.69839 -0.85507,-3.68387 z"
         id="path3053"
         inkscape:connector-curvature="0"
         sodipodi:nodetypes="cccccccccccccccccccccccccccccccccccccccccccccccccccccccccccccccccccccccccccccccccccccccccccccccccccccccccccccccccccccccccccccccccccccccccccccccccccccccccccccccccccccccccccccccccccccccccccccccccccccccccccccccccccccccccccccccccccccccccc" />
    </g>
  </g>
  <g
     inkscape:groupmode="layer"
     id="layer14"
     inkscape:label="m"
     style="display:none">
    <g
       style="font-size:1100px;font-style:normal;font-variant:normal;font-weight:normal;font-stretch:normal;line-height:125%;letter-spacing:0px;word-spacing:0px;fill:#000000;fill-opacity:1;stroke:none;font-family:ANGEL TEARS;-inkscape-font-specification:ANGEL TEARS"
       id="text3066"
       transform="matrix(-0.0120624,-0.99992725,0.99992725,-0.0120624,67.777842,680.80727)">
      <path
         d="m 88.674194,105.22452 -0.740594,0.96297 -0.460276,-0.3094 0.140159,-0.63619 1.060711,-0.0174 z m 506.024166,-22.021487 -3.00921,6.262927 -4.46414,5.526763 -4.71801,5.414237 -3.77085,5.92535 -7.49773,8.45575 -8.07249,8.79664 -8.74702,8.77279 -9.52131,8.38423 -10.88891,8.30422 -10.85797,8.20929 -11.16824,7.51828 -11.81969,6.23121 -7.20225,3.32485 -6.26696,4.19419 -5.04507,3.38666 -3.53656,0.90231 -8.08339,3.39588 -4.15745,2.21485 -3.73835,1.50021 -6.8261,1.25195 -9.15747,3.05803 -9.2579,2.57534 -9.42116,1.04533 -9.64722,-1.532 -12.91531,-4.0174 -8.71786,-9.07201 -3.13217,-12.0151 3.84172,-12.84666 3.31423,-7.67378 2.62416,-5.29156 3.31804,-5.54473 5.39586,-8.43329 8.87891,-10.6293 9.08856,-10.36516 8.3148,-10.922248 6.55759,-12.30055 4.20013,-6.225153 3.57411,-6.669069 3.46563,-6.843191 3.8747,-6.747515 4.09762,-7.02789 4.09762,-7.02789 4.09761,-7.02789 4.09762,-7.02789 2.83096,-6.477637 -1.3669,-4.55851 -2.92977,-2.892518 -1.85765,-1.47966 -8.72796,0.435967 -8.16479,2.277664 -8.11299,3.019382 -8.57257,2.661118 -7.36075,2.454289 -7.58631,2.061473 -7.32169,2.522309 -6.56693,3.836794 -4.69478,5.267813 -4.48526,3.937902 -4.28536,3.517461 -4.0951,4.006492 -10.19282,13.817467 -9.66322,12.410923 -9.43366,12.301762 -9.50412,13.489985 -6.48868,8.99203 -6.71725,8.83609 -6.57852,8.92493 -6.07247,9.25857 -3.05393,4.95209 -2.97496,5.03352 -2.50392,5.213 -1.64076,5.49055 0.35542,2.79381 1.15818,2.93709 0.61421,2.70774 -1.27647,2.10577 -8.87679,8.56877 -10.22956,5.67419 -11.28809,3.53644 -12.0524,2.15553 -12.89167,1.59517 -13.12983,-2.36851 -8.91976,-6.99218 -0.26145,-12.27586 4.4045,-7.62975 3.67887,-7.47822 5.07564,-9.44682 5.00719,-8.2534 5.56246,-8.02968 9.85584,-14.10067 11.6878,-16.5798 8.61575,-12.161569 4.96735,-7.678727 7.79311,-12.490619 8.74602,-13.820706 6.55552,-9.89554 6.27475,-7.25603 9.12147,-12.327619 3.76795,-12.138649 -8.09143,-9.062491 -10.56549,4.3484466 -11.99474,3.9762844 -12.28401,3.975245 -11.43327,4.345326 -10.58977,3.28591 -7.76441,6.389294 -6.26995,8.669664 -6.10642,10.127017 -4.8887,6.373955 -6.4049,7.096497 -6.53203,7.780094 -5.27007,8.424747 -1.47791,3.328579 -0.68577,1.697788 -0.63305,0.939691 -1.31978,1.054289 -6.07487,5.744652 -3.67832,5.610524 -2.8636,5.227957 -3.63074,4.59697 -4.918,5.67663 -3.80444,6.13862 -3.70127,6.38203 -4.60849,6.40684 -3.40617,4.21722 -3.5899,4.83793 -3.39845,4.98489 -2.8318,4.65808 -4.13355,6.67011 -2.77242,5.144 0.13506,4.39616 4.58887,4.42657 0.23541,3.26716 -4.81824,4.08291 -6.10195,4.05223 -3.61572,3.17509 -8.89134,8.41361 -13.6907,2.4645 -15.53158,-1.32334 -14.41399,-2.94992 -10.43473,-7.2249 -0.24382,-10.58074 5.9419,-13.04488 5.5675,-9.718 3.55466,-6.23367 6.02854,-10.14065 6.97429,-11.43837 5.13091,-8.39653 2.35429,-3.52178 3.5405,-4.84429 5.00985,-6.49563 4.80318,-6.274004 5.24156,-6.909272 9.19512,-12.411245 10.11897,-14.827215 6.78133,-10.935887 6.47226,-7.951616 9.94582,-13.434344 4.54913,-13.349763 -8.29479,-10.381464 -7.67751,3.1057813 -8.93481,4.7822307 -8.72303,2.097312 -7.04218,-4.9489736 2.3881,-7.3486184 8.6903,-4.5505815 10.90361,-3.2296106 9.02809,-3.3857058 20.55894,-8.3482801 21.37791,-6.160548 21.9252,-3.232362 22.20082,0.436275 6.71688,8.385629 0.60661,10.9117578 -1.51848,9.6314434 0.34164,4.5446855 16.4999,-6.68428424 16.89044,-5.73960086 16.80896,-5.9483406 16.25546,-7.310505 14.9444,-4.779556 14.76626,-2.440684 14.85414,-0.895201 15.20808,-0.143109 7.17278,2.199835 5.93866,5.055741 3.70698,6.930836 0.95431,5.2482577 -1.13186,3.2110758 -2.44082,5.26197847 -3.21117,5.58762433 -3.68117,5.4764447 -5.07168,6.922169 4.71735,-1.354267 9.36758,-4.264062 8.87904,-1.807217 6.39431,-3.6904645 4.94592,-2.5663177 5.00995,-2.0885909 4.03115,-1.427953 3.14885,-1.14242413 5.21557,-1.91405047 6.46186,-2.1547339 5.22598,-1.543563 5.50807,-1.2806506 10.10977,-2.3228745 11.39787,-2.6750163 7.65491,-1.867554 4.99537,-1.157098 8.87929,-1.909609 10.52631,-2.036519 7.74039,-1.368614 4.87992,0.994812 7.55455,3.037152 6.70683,4.056312 4.23158,3.7583587 -1.55167,12.4986873 -4.41031,11.971103 -6.54108,11.512674 -7.94406,11.123402 -17.18578,21.355615 -14.06387,20.628404 -6.41815,10.948441 -6.88814,10.639172 -7.38323,10.019 -7.90343,9.08795 -5.82256,7.52916 -5.69651,9.51382 -5.71968,10.21365 -5.89206,9.62869 -0.34742,8.00287 5.11934,2.28104 7.41668,-1.6296 6.54463,-3.72906 11.23019,-4.32516 11.2906,-4.81132 10.69262,-6.11147 9.43626,-8.22565 16.46985,-14.53508 16.09436,-14.94361 15.81864,-15.239092 15.6427,-15.421539 -0.0202,2.670815 0.0354,1.946782 0.85866,0.460432 2.44946,-1.788235 z m -487.32605,74.826047 -1.03997,-0.18613 -0.004,-0.55289 0.52193,-0.0527 0.41529,0.57262 0.0696,0.35871 0.0441,0.12168 -0.001,-0.15643 -0.006,-0.10482 z"
         id="path3071"
         inkscape:connector-curvature="0"
         sodipodi:nodetypes="cccccccccccccccccccccccccccccccccccccccccccccccccccccccccccccccccccccccccccccccccccccccccccccccccccccccccccccccccccccccccccccccccccccccccccccccccccccccccccccccccccccccccccccccccccccccccccccccccccccccccccccccccccccccccccccccccccccccccccccccccccccccccccccccccccccccc" />
    </g>
  </g>
  <g
     inkscape:groupmode="layer"
     id="layer15"
     inkscape:label="_T1"
     style="display:none">
    <g
       style="font-size:1100px;font-style:normal;font-variant:normal;font-weight:normal;font-stretch:normal;line-height:125%;letter-spacing:0px;word-spacing:0px;fill:#000000;fill-opacity:1;stroke:none;font-family:ANGEL TEARS;-inkscape-font-specification:ANGEL TEARS"
       id="text3075" />
    <g
       transform="matrix(0.0547291,-0.99850124,0.99850124,0.0547291,-38.454051,521.1369)"
       style="font-size:1100px;font-style:normal;font-variant:normal;font-weight:normal;font-stretch:normal;line-height:125%;letter-spacing:0px;word-spacing:0px;fill:#000000;fill-opacity:1;stroke:none;font-family:ANGEL TEARS;-inkscape-font-specification:ANGEL TEARS"
       id="text3075-2">
      <path
         d="m 513.869,127.30084 -5.37177,14.99078 -7.29842,14.00376 -9.993,14.15357 -8.44706,10.10103 -6.7222,6.092 -11.13207,9.17955 -12.44459,9.36138 -8.90974,6.39506 -4.02235,2.53267 -5.79701,3.27554 -7.11424,3.40048 -6.21772,2.74087 -5.66631,2.68508 -9.94457,4.52385 -12.13997,4.20418 -9.3253,2.15229 -4.64158,0.71739 -6.91131,1.13867 -9.1425,0.64536 -8.3602,-0.10479 -8.16579,-0.0741 -14.12016,0.279 -14.6512,0.51163 -12.46363,0.39123 -6.96405,-3.39254 -6.97611,-2.28615 -80.10872,-47.46555 -5.64956,-5.08558 -5.76216,-4.51785 -5.76834,-4.23433 -5.66807,-4.23502 -5.90045,-4.71432 -5.805,-4.61137 -5.99894,-4.27688 -6.4823,-3.7108 -14.30812,-7.22667 -14.37713,-6.95334 -14.75544,-5.77792 -15.44307,-3.7004 -9.918351,-0.85796 -10.058967,-0.60322 -10.103062,0.64883 -10.050638,2.89818 -14.309698,4.40002 -12.625323,6.67646 -11.784065,7.69076 -11.785926,7.44292 -8.1651016,7.31093 -7.7067152,7.15913 -5.7696171,6.59357 -2.3538078,5.61426 -5.0063523,5.73597 -2.288969,8.85189 -0.990227,10.0242 -1.110126,9.25292 0.813313,7.73162 2.933729,7.53261 3.405855,7.39125 2.2296927,7.30754 9.71711624,11.50742 12.76514806,7.16638 14.447146,3.06688 14.763111,-0.79112 12.244211,-4.74438 10.218638,-8.82906 8.164224,-11.30223 6.080974,-12.16388 0.367356,-13.98819 3.196728,-12.83276 6.110118,-11.44112 5.658583,-6.92013 6.659603,-1.92152 12.16503,-0.75274 12.41654,2.50905 9.13863,6.41726 1.56638,9.30627 1.97257,9.5209 0.2031,8.91087 -3.74205,7.47619 -0.60541,4.84586 -2.15691,3.41717 -2.70598,3.68324 -2.25264,5.64406 -7.60326,6.36777 -7.00121,8.11917 -6.91641,8.30089 -7.348877,6.91289 -8.761801,5.01558 -8.355014,4.24499 -8.464589,3.46881 -9.090525,2.68709 -7.4679,1.57953 -9.973332,0.21903 -10.975465,-0.90156 -10.474302,-1.78221 -10.06653,-4.62448 -10.1616412,-5.22058 -9.0749096,-6.77901 -6.8063362,-9.29979 -6.551778,-5.85452 -4.378618,-6.20354 -4.557667,-6.76001 -4.125045,-4.93744 -2.449803,-5.09724 -2.722758,-9.57602 -1.613001,-10.33093 -0.602471,-8.65524 3.96748,-13.43139 4.175602,-15.68864 6.218386,-16.48713 5.994393,-10.95862 4.987531,-4.92901 7.8287983,-7.41672 7.6595755,-7.97697 6.5305853,-9.0439 12.5502519,-7.7088 12.827783,-7.81165 13.04826,-6.533949 13.211681,-3.875708 14.256331,-4.180567 14.421186,-3.636295 14.493999,-3.148006 14.47478,-2.715703 7.69762,-0.84831 7.08884,-0.952847 7.1031,-0.484862 7.74038,0.555642 14.80558,0.625103 14.62411,1.812814 14.52345,2.593889 14.5036,2.968326 11.45113,5.285862 11.92503,4.65318 11.79104,5.249971 11.04914,7.07622 11.04629,10.00763 10.80232,-0.87773 10.46494,-7.71281 10.03414,-10.497585 10.97354,-6.478984 11.84679,-6.259938 12.12511,-5.939346 11.80852,-5.517212 10.61096,-3.37196 10.53824,-3.215341 10.68904,-2.674376 11.06337,-1.749065 8.44298,7.054033 13.27064,-1.229005 13.41189,-3.243438 8.86673,1.010733 -8.78989,2.73593 -2.85903,2.361588 -0.84797,2.526339 -1.12935,2.010138 -4.69616,2.355719 -9.63901,4.212231 -10.9589,4.073939 -9.46951,2.55086 -10.58182,8.231384 -9.25743,9.689166 -8.55359,10.70049 -8.47028,11.26532 -3.84493,7.18463 -4.9025,7.57767 -2.03842,7.00121 4.74736,5.45523 9.15381,2.2329 9.40977,2.39911 9.78359,2.90069 6.85028,2.35347 3.06375,0.83469 4.29017,0.7439 5.3774,0.79993 4.87579,0.92806 5.91353,0.10508 11.06075,-0.88715 13.23826,-2.78054 9.54274,-3.05055 6.95752,-2.48605 11.7265,-4.64897 11.18464,-6.61266 7.5742,-9.44769 4.21128,-10.61748 -2.3871,-10.17046 -7.20299,-8.00123 -10.23638,-4.10982 -6.59477,-0.20237 0.52641,3.52783 0.26661,2.14204 -7.37421,-4.35971 -10.16335,-5.57984 6.05767,-5.556398 13.05359,-3.563408 10.82443,0.399109 11.16051,-1.872949 10.85665,0.391049 10.85042,2.231395 11.14182,3.648088 4.19415,6.635374 4.06987,7.17994 2.96749,7.1456 z"
         id="path3080-4"
         inkscape:connector-curvature="0"
         sodipodi:nodetypes="cccccccccccccccccccccccccccccccccccccccccccccccccccccccccccccccccccccccccccccccccccccccccccccccccccccccccccccccccccccccccccccccccccccccccccccccccccccccccccccccccccccccccccccccccccccccccccccccccccccccccccc" />
    </g>
  </g>
  <g
     inkscape:groupmode="layer"
     id="layer13"
     inkscape:label="d"
     style="display:none">
    <g
       style="font-size:1100px;font-style:normal;font-variant:normal;font-weight:normal;font-stretch:normal;line-height:125%;letter-spacing:0px;word-spacing:0px;fill:#000000;fill-opacity:1;stroke:none;font-family:ANGEL TEARS;-inkscape-font-specification:ANGEL TEARS"
       id="text3057"
       transform="matrix(0.79829062,-0.60227244,0.60227244,0.79829062,-237.94397,276.77968)">
      <path
         d="m 470.86215,152.66419 -4.03098,3.61604 -4.3117,3.48795 -4.06203,3.60188 -3.28197,3.95782 -4.83125,2.20998 -4.41784,-2.05979 -3.92233,-4.02452 -3.34469,-3.6842 -1.52838,-2.82732 -2.88026,-0.19482 -3.80004,1.29239 -4.28776,1.63435 -9.74629,5.60923 -8.53198,8.62141 -7.07896,9.91163 -3.94016,6.66149 -2.29831,3.49666 -4.06203,5.50703 -4.67477,5.76605 -3.31956,3.92838 -2.50325,2.79168 -4.38883,4.81509 -4.48156,4.78838 -3.55167,3.58886 -9.21041,12.5862 -9.03899,12.72015 -7.70375,10.91701 -5.20467,7.17679 -9.58287,15.04601 -10.62155,15.32925 -10.43377,15.68217 -9.01953,16.10474 -5.14567,8.46616 -5.40222,6.91493 -4.92237,7.2338 -3.70617,9.42279 -2.02794,6.26384 -2.27118,6.43864 -1.51473,6.51486 0.24144,6.49248 4.16501,6.86179 7.2713,3.14672 9.54556,-0.0796 7.28025,-1.51238 4.1395,-1.39553 6.00182,-2.26588 5.48028,-3.16396 3.27028,-2.89235 1.84714,-2.04277 3.28073,-3.15785 3.81973,-3.69643 2.74545,-2.94039 2.14156,-2.37306 3.98807,-4.33013 5.16897,-5.91941 4.10972,-5.02187 3.64869,-3.47346 6.18009,-5.61767 5.73149,-6.0714 3.41459,-6.3049 0.71051,0.32721 0.20017,2.19369 1.32894,1.62557 4.0968,-1.37716 -8.97605,11.41216 -8.79849,12.05986 -9.40103,12.1195 -6.97773,7.98106 -3.57738,3.62131 -4.98068,5.17587 -5.56272,5.53963 -4.54744,4.22756 -3.17619,3.42731 -5.50938,5.95806 -8.00304,6.8954 -7.33229,4.98956 -6.46998,2.89166 -11.1476,4.40657 -12.17746,4.00911 -11.89175,2.89668 -6.32734,0.85681 -5.21083,-0.46761 -4.73833,-1.69239 -4.90986,-2.81751 -6.18329,-3.33714 -5.9777,-3.13415 -5.38904,-3.75059 -4.41732,-5.18644 -2.21984,0.39541 -1.6487,0.13679 -1.37287,0.0884 -1.39232,0.25011 -5.2229,1.84986 -5.38981,2.20507 -5.2243,2.43818 -4.72637,2.54921 -12.82635,4.06394 -13.36292,2.03963 -13.54861,0.36168 -13.38343,-0.96993 -6.49278,-3.40605 -7.14876,-4.79384 -8.03216,-6.19926 -9.142951,-7.62233 -2.484186,-6.21136 -2.284662,-6.19057 -1.805298,-6.39923 -1.046092,-6.83733 -2.214911,-10.87346 1.180907,-11.3703 3.193842,-11.29796 3.823893,-10.65645 2.422009,-8.67158 3.018409,-8.45668 4.01783,-8.07626 5.42028,-7.5303 3.56332,-5.94289 3.90898,-5.67252 4.0126,-5.56732 3.87415,-5.62726 9.37537,-10.38624 9.74934,-10.79438 10.12652,-11.41743 7.03723,-8.12155 3.61456,-3.64937 5.17982,-4.6937 5.19299,-4.58934 3.63653,-3.47543 2.54861,-1.62139 4.42495,-1.96042 4.75568,-1.55839 4.41704,-1.37917 10.04052,-3.19211 10.16524,-2.65812 10.32632,-1.14308 10.52378,1.35301 6.50364,2.38255 6.52452,2.74037 6.32987,3.20015 5.91968,3.76189 2.47574,9.07211 2.47574,9.07211 2.47574,9.07212 2.47574,9.07211 5.94258,-6.49063 5.15519,-7.28127 5.11168,-7.26865 5.81203,-6.45273 4.72926,-6.49267 5.80552,-6.15517 6.15322,-6.27756 5.77236,-6.85981 8.64195,-8.51569 8.03898,-9.2018 8.05859,-9.2504 8.70079,-8.66146 3.77599,-3.72355 3.68623,-3.84535 3.85142,-3.54385 4.27159,-2.81907 4.91133,-5.11167 5.27748,-4.76218 5.4073,-4.63825 5.30081,-4.73991 3.97753,-2.48159 3.92513,-3.24194 4.05675,-3.36963 4.37244,-2.86468 5.48754,-4.31772 5.87853,-2.99704 7.68251,-2.64545 6.69009,-1.99979 5.72805,-1.45636 9.36439,-2.07889 9.85258,-1.64918 6.54173,-0.7402 4.85008,0.25668 8.04598,1.43372 6.65235,3.49632 2.04699,6.41515 0.96364,9.09818 -1.20419,7.34475 -4.17414,6.3318 z m -218.07621,133.51971 -2.11531,-9.92354 -2.47124,-11.69694 -4.34515,-6.43038 -9.69171,0.524 -8.63764,3.1535 -7.64368,5.24237 -7.15663,6.13443 -7.17654,5.8297 -1.68168,3.76197 -2.49947,2.73179 -2.6769,2.65297 -2.21398,3.5255 -3.88884,5.29881 -3.88414,5.13817 -3.02728,5.35739 -1.31827,5.95643 -3.55762,3.67668 -1.77859,3.7897 -1.78765,3.69096 -3.58482,3.38047 -5.19084,10.172 -4.71231,10.99855 -3.97643,11.56511 -2.98323,11.87165 -1.89627,12.71155 3.65651,12.18276 7.47047,9.48065 9.54561,4.60522 6.05098,-0.22419 5.32938,-0.23347 4.87534,-0.5481 4.68887,-1.16806 6.87688,-1.95259 5.66151,-5.16363 3.35769,-7.48625 -0.0346,-8.92041 1.85845,-5.56613 0.85876,-4.37379 1.45321,-5.11694 1.93343,-4.62366 2.56264,-5.04071 4.50781,-9.10432 4.88598,-10.08853 4.55137,-9.57928 3.23309,-4.76671 2.32653,-4.00579 2.01877,-3.79628 2.3098,-4.13814 1.89919,-7.28618 4.02193,-8.05355 3.29647,-8.42383 z"
         id="path3062"
         inkscape:connector-curvature="0"
         sodipodi:nodetypes="cccccccccccccccccccccccccccccccccccccccccccccccccccccccccccccccccccccccccccccccccccccccccccccccccccccccccccccccccccccccccccccccccccccccccccccccccccccccccccccccccccccccccccccccccccccccccccccccccccccccccccccccccccccccccccccccccccccccccccccc" />
    </g>
  </g>
  <g
     inkscape:groupmode="layer"
     id="layer16"
     inkscape:label="_T2"
     style="display:none">
    <path
       style="font-size:1100px;font-style:normal;font-variant:normal;font-weight:normal;font-stretch:normal;line-height:125%;letter-spacing:0px;word-spacing:0px;fill:#000000;fill-opacity:1;stroke:none;font-family:ANGEL TEARS;-inkscape-font-specification:ANGEL TEARS"
       d="m 178.02971,95.889431 -3.52068,4.956419 2.05266,7.94953 1.38404,9.53375 2.60191,9.16007 2.98907,9.08445 2.54551,9.30684 3.08815,12.27793 3.40277,12.1958 3.26659,12.68912 2.67963,13.75789 3.48845,16.29555 3.03866,15.11281 3.12173,14.23534 2.36795,9.29163 1.22395,3.7115 1.58089,4.9958 1.52068,6.22466 1.1236,5.7596 1.26963,6.22782 2.3235,10.93012 2.376,12.01119 1.35711,8.02963 0.21193,3.19552 0.21176,4.77238 0.37436,6.36643 0.48289,5.85229 0.61775,5.59421 1.24049,9.9503 2.00464,12.51822 1.89135,9.87408 -0.19407,6.86731 -1.46894,11.35711 -1.7858,11.96399 -0.5345,11.35047 -1.92702,6.98506 -4.83693,16.38386 -6.33069,18.9257 -6.40831,14.61058 -4.52452,8.96208 -5.72145,9.9144 -4.90751,8.02937 -2.08269,3.30698 -2.02949,2.75875 -2.02949,2.75875 -2.02948,2.75875 -2.02948,2.75875 -4.60863,3.39373 -11.42534,7.73697 -14.64116,8.41381 -14.25614,5.42431 -8.3118,1.37229 -8.64452,0.42943 -8.80122,-0.39192 -8.78187,-1.09176 -10.313786,-0.45725 -8.31154,-1.31865 -7.71547,-3.28876 -8.52555,-6.36758 -10.39064,-7.5141 -6.39358,-9.19969 -3.59691,-10.91839 -2.00062,-12.67027 1.01412,-12.83015 2.95963,-12.48544 6.24213,-10.45786 10.86166,-6.74742 7.43693,-2.39748 8.06175,-2.71776 5.02706,0.48941 -1.66714,7.22401 -10.83114,10.91558 -3.98284,14.56659 1.05745,15.98465 4.2897,15.16975 1.34108,3.1923 1.48088,2.66962 1.73718,2.17584 1.35261,1.2283 1.11325,0.5433 2.70705,1.0134 5.94632,1.77937 6.51203,1.81991 6.863626,0.84618 11.68546,-0.28842 11.95737,-3.29602 10.02823,-7.54533 6.52247,-13.47292 4.67453,-15.02302 3.2519,-15.98665 2.2546,-16.3639 0.58788,-11.70657 1.04202,-11.54777 0.39557,-11.26166 -1.35147,-10.84826 -0.50332,-9.45932 -0.29828,-9.42671 0.16961,-9.46058 0.90035,-9.56097 -4.52151,-16.3096 -3.41505,-16.70149 -4.03663,-16.53583 -6.38626,-15.81265 -0.42185,-6.2457 -1.59153,-7.031 -1.89116,-7.35662 -1.32071,-7.22255 -2.67842,-12.96582 -3.81335,-12.48804 -4.00402,-12.35373 -3.25039,-12.56285 -1.1295,-9.96844 -2.1245,-9.69161 -3.14273,-9.4083 -4.18422,-9.11853 -2.89082,-16.3163 -3.03792,-17.18056 -5.261886,-15.59346 -9.56271,-11.55501 z"
       id="path3080"
       inkscape:connector-curvature="0"
       sodipodi:nodetypes="cccccccccccccccccccccccccccccccccccccccccccccccccccccccccccccccccccccccccccccccccccccccccccccccccccccccccccccccccccccccc" />
  </g>
  <g
     inkscape:groupmode="layer"
     id="layer17"
     inkscape:label="_Y1"
     style="display:none">
    <g
       transform="matrix(0.09737681,-0.99524759,0.99524759,0.09737681,-240.52057,461.89597)"
       style="font-size:1100px;font-style:normal;font-variant:normal;font-weight:normal;font-stretch:normal;line-height:125%;letter-spacing:0px;word-spacing:0px;fill:#000000;fill-opacity:1;stroke:none;font-family:ANGEL TEARS;-inkscape-font-specification:ANGEL TEARS"
       id="text3124">
      <path
         d="m 477.2589,323.24121 -1.09438,11.43528 -3.3789,9.82325 -5.34109,8.25613 -6.98098,6.73392 -3.53561,4.79521 -5.49277,4.42293 -6.20229,4.85083 -5.6642,6.0789 -12.38092,9.17525 -13.55596,7.3751 -14.83152,5.75255 -16.20762,4.3076 -16.52145,5.10516 -17.03697,2.94421 -18.60375,1.65624 -13.80086,0.81161 -9.70116,-0.34264 -14.97827,-1.13446 -13.37505,-1.27289 -7.02914,-0.57337 -1.63153,-0.0561 -2.40358,-0.20311 -2.67543,-0.41157 -2.08462,-0.40348 -2.13604,-0.24169 -4.18559,-0.35811 -5.70592,-0.49554 -4.66993,-0.47074 -2.45761,-0.30694 -3.55342,-0.48137 -4.40808,-0.69822 -3.88207,-0.66834 -2.96199,-0.86615 -4.48629,-1.50726 -4.19453,-1.3531 -2.47572,-0.60922 -1.67674,-0.39571 -3.28876,-0.98621 -4.28198,-1.47297 -3.33211,-1.20696 -2.26714,-0.6979 -4.36256,-1.37384 -7.23782,-2.74163 -7.05926,-2.97754 -5.25697,-2.56519 -7.96698,-3.90302 -7.7904,-3.58821 -7.07901,-2.69707 -5.3559,-0.4965 -5.8964,1.49868 -6.50109,3.71668 -4.72916,3.74058 -1.7327,1.75373 -1.99921,2.06691 -2.52383,2.6003 -2.60709,2.64273 -2.62556,2.26997 -4.60732,3.58052 -5.98359,4.03924 -4.91935,3.03451 -4.25632,1.7881 -7.684071,2.77928 -9.769676,3.1641 -7.732326,2.42949 -3.531716,1.04238 -4.865674,1.42897 -6.510195,2.08455 -6.272584,2.13498 -5.138697,2.00203 -7.751371,3.0346 -7.270294,2.46809 -4.336903,1.05784 -4.459132,0.22911 -9.182197,0.42025 -11.3260571,0.12527 -8.0322329,-0.26255 -4.3927483,-0.12072 -7.4564597,-0.17703 -10.002683,-1.01526 -8.636454,-1.51778 -6.693156,-2.20343 -10.897877,-4.44773 -12.143614,-6.88657 -8.769382,-6.26817 -4.508901,-4.73114 -6.221573,-7.87686 -5.135593,-10.10765 -2.698935,-8.44912 -0.664238,-6.52809 -0.296834,-10.58953 1.335104,-10.39976 3.890433,-8.42296 3.349136,-7.15126 4.688395,-5.93991 4.991506,-6.10026 4.258472,-7.63233 5.350655,-7.49816 5.718862,-6.65683 6.126061,-5.24368 6.572252,-3.25877 9.469435,-5.74755 10.750615,-4.6212 11.630058,-2.43856 12.1077659,0.80043 16.6169981,3.45811 16.527449,4.56399 16.838404,6.78548 11.699346,6.1778 6.9709,4.71847 10.893137,7.51012 11.784029,8.57991 8.455719,6.50146 5.345212,3.79407 8.64673,3.78214 8.57695,-1.25719 34.79607,29.45692 1.79717,2.64614 4.91331,2.83456 7.20465,3.21691 12.62962,5.51174 15.19005,6.06685 11.47204,4.14209 7.01233,2.01584 11.20885,2.97924 12.95094,2.95386 9.9158,1.97357 7.12627,0.66048 11.84417,0.47045 13.2167,-0.5992 9.41381,-1.12226 5.1672,-0.95064 8.238,-1.4001 9.86548,-1.77864 7.87967,-1.58157 6.5945,-1.96198 11.578,-3.87004 12.49837,-4.62907 11.55429,-4.73901 5.57537,-3.50725 6.10693,-3.12017 6.27801,-3.70641 6.08858,-5.26596 12.4279,-8.07433 11.82849,-9.33111 11.18315,-10.25439 10.49191,-10.84417 10.8028,-7.27498 10.88685,-9.26316 9.37304,-3.78278 6.26135,9.16614 0.8447,1.6851 0.84469,1.6851 0.8447,1.68511 z m -363.0188,28.60108 -8.80103,-4.88474 -6.171714,-4.48911 -4.452919,-4.19774 -2.49523,-2.72895 -1.026156,-1.35579 -2.164364,-2.40718 -5.263153,-4.0938 -6.190805,-4.16682 -4.501453,-2.97727 -6.084538,-4.15816 -5.883835,-3.85773 -4.166947,-2.47654 -8.257431,-2.1521 -17.574522,-2.19148 -20.005473,2.2084 -16.593083,10.52543 -6.510158,8.67279 -7.178037,8.26717 -6.999567,8.42503 -5.974746,9.14637 -3.954782,10.98442 -2.160178,12.82498 -0.676671,12.61518 0.178471,7.58482 0.723978,2.97082 1.820363,4.4781 3.625715,5.07237 3.732899,3.96126 3.61507,2.42199 6.510192,3.21114 8.7963996,1.80383 7.4254158,0.0765 6.6969029,-0.80242 11.5782497,-1.52791 12.740724,-3.00054 8.63436,-3.25681 5.735112,-2.89674 10.136303,-4.99916 11.979399,-6.91987 8.806941,-6.09793 6.597977,-6.24221 11.29324,-11.12651 11.32854,-11.62248 8.86148,-9.59989 -0.10015,-0.86175 0.57275,-0.23259 0.90372,0.0594 z"
         id="path3129"
         inkscape:connector-curvature="0"
         sodipodi:nodetypes="cccccccccccccccccccccccccccccccccccccccccccccccccccccccccccccccccccccccccccccccccccccccccccccccccccccccccccccccccccccccccccccccccccccccccccccccccccccccccccccccccccccccccccccccccccccccccccccccccccccccccccc" />
    </g>
  </g>
  <g
     inkscape:label="_Y2"
     id="g3132"
     inkscape:groupmode="layer"
     style="display:none">
    <g
       transform="matrix(0.88685715,-0.46204372,0.46204372,0.88685715,-110.94636,282.09859)"
       style="font-size:1100px;font-style:normal;font-variant:normal;font-weight:normal;font-stretch:normal;line-height:125%;letter-spacing:0px;word-spacing:0px;fill:#000000;fill-opacity:1;stroke:none;display:inline;font-family:ANGEL TEARS;-inkscape-font-specification:ANGEL TEARS"
       id="text3124-8">
      <path
         d="m 122.50846,339.46315 7.19242,-9.62456 6.65791,-10.95609 6.46326,-11.1609 7.56956,-12.17577 6.21011,-9.07644 4.30397,-6.68 6.81464,-11.14404 8.16202,-12.59709 6.54961,-9.10173 3.96563,-5.88569 5.96956,-9.82405 5.98229,-10.262 5.84378,-9.39932 3.37686,-6.62873 3.44057,-7.22914 3.53044,-6.34335 3.64646,-3.9714 -9.96417,3.89145 -10.92681,3.73942 -11.8132,3.48182 -12.62336,3.11866 -17.90702,0.0713 -17.99113,-4.5042 -15.24254,-9.83617 -9.66122,-15.92454 -1.83589,-11.21422 -0.96197,-12.41777 0.77134,-12.59635 3.36405,-11.74995 5.17345,-9.89826 4.70947,-10.35839 4.99618,-10.079651 6.03353,-9.062049 6.88631,-15.129192 9.92769,-15.692393 6.81993,-15.216785 -2.43702,-13.702368 -8.64194,2.396472 -7.17264,-0.721706 -1.87745,-3.27538 7.24362,-5.264548 14.35429,-3.3182 14.43111,-4.5954705 15.11139,-4.7156048 10.80437,-2.7788011 6.6107,-1.15017046 10.48377,-1.73548014 12.0319,-1.4540321 9.19092,-0.6810905 7.04281,1.7143982 10.58158,3.9775496 7.41171,4.3522889 -0.037,2.8012973 -6.1398,9.4346876 -6.18682,9.678318 -6.15525,9.444861 -6.04507,8.734311 -8.84583,9.856379 -7.90907,10.936162 -7.12986,11.740557 -6.50816,12.269559 -6.26624,10.942821 -5.51151,11.21548 -4.0447,11.71244 -1.86575,12.43375 -1.06435,14.13827 4.3947,12.12249 9.56006,7.33581 14.43171,-0.22175 11.27349,-10.05795 8.31787,-14.56033 7.28707,-16.04991 8.1811,-14.52667 4.14188,-9.11243 5.43648,-9.43614 5.32184,-9.787861 3.79792,-10.167596 2.91996,-4.507264 4.12478,-6.176775 4.43846,-6.859426 3.861,-6.555211 5.73878,-8.567043 5.25353,-11.827153 -0.27394,-9.685206 -10.84366,-2.141199 -3.40386,-4.90458 7.05892,-3.753126 10.94359,-2.397676 8.25015,-0.8382314 7.38147,-2.9888706 7.08277,-2.3504736 7.17087,-1.9729486 7.64576,-1.85629556 14.27269,-1.65874454 15.33333,-1.6647932 15.31549,-1.5545662 14.21917,-1.3280635 -3.26282,18.8384972 -9.72852,16.911336 -11.58537,16.496721 -8.83336,17.594652 -5.94592,9.648115 -5.02523,8.892448 -4.99741,8.765066 -5.86246,9.265968 -4.14914,8.75785 -4.48367,7.75891 -4.4412,7.44874 -4.02173,7.82732 -6.81471,11.32327 -6.09487,10.0338 -5.59779,9.92667 -5.32343,11.00188 -3.10399,5.26397 -3.09768,4.06425 -3.1189,3.78734 -3.16764,4.43323 -2.93357,4.36541 -2.85245,4.55917 -2.49595,4.20548 -1.86407,3.30439 -2.43167,3.35566 -3.60391,6.07681 -5.05902,8.27038 -4.28016,6.50065 -3.67059,4.83679 -5.90841,7.78777 -5.33312,7.39566 -2.71178,4.18327 -1.2512,2.47631 -2.67976,4.79188 -3.88063,5.91705 -3.25265,4.35159 -2.5652,3.23072 -4.32086,5.55146 -4.90179,6.00928 -3.5334,3.99373 -1.57162,1.96271 -2.3364,3.33152 -3.22603,4.61027 -3.05433,4.09393 -2.20801,2.65879 -3.19189,3.87361 -3.05092,4.06845 -1.97306,2.98353 -1.5432,2.32238 -3.29212,4.31098 -5.39511,5.89876 -5.04818,4.96869 -3.5669,4.05326 -5.5749,7.03662 -5.92948,7.73637 -6.24,7.59281 -2.90666,2.14816 -2.43591,1.70339 z"
         id="path3129-2"
         inkscape:connector-curvature="0"
         sodipodi:nodetypes="ccccccccccccccccccccccccccccccccccccccccccccccccccccccccccccccccccccccccccccccccccccccccccccccccccccccccccccccccccccccccccccccccccccccccccccccccccccccccccccc" />
    </g>
  </g>
  <g
     inkscape:groupmode="layer"
     id="layer18"
     inkscape:label="_B1">
    <g
       transform="matrix(0.15057947,-0.94266358,1.034429,0.16523793,87.213444,619.07582)"
       style="font-size:1082.61779785px;font-style:normal;font-variant:normal;font-weight:normal;font-stretch:normal;line-height:125%;letter-spacing:0px;word-spacing:0px;fill:#000000;fill-opacity:1;stroke:none;font-family:ANGEL TEARS;-inkscape-font-specification:ANGEL TEARS"
       id="text3188">
      <path
         d="m 552.44496,-27.315599 -2.4443,9.769438 -5.61125,13.9509087 -8.50247,13.6175633 -7.26301,9.213862 -5.39507,4.904371 -9.10679,7.778786 -11.32011,9.12909 -9.08393,7.15488 -6.39699,5.067181 -10.68039,8.029308 -11.66002,7.559131 -11.85909,5.610265 -10.96611,6.62699 -225.89457,35.464725 9.89043,-12.39797 10.651,-17.136448 10.20231,-17.149456 10.70693,-16.354906 12.16488,-14.752795 8.72272,-13.421765 10.08405,-11.972277 10.96904,-11.1958231 11.37769,-11.0924065 6.0536,-9.1191324 8.12213,-8.300062 3.44375,-4.801101 -7.98152,1.377749 -11.52109,4.327253 -10.84184,3.70543 -10.46174,4.362844 -10.38078,6.299493 -17.17734,7.5892824 -14.99252,10.7005572 -13.51903,12.9210094 -12.75688,14.25064 -9.53783,8.775358 -8.00893,10.552443 -5.66913,12.093945 -2.51843,13.399867 -0.0833,11.080908 4.57798,10.301343 2.41453,8.56443 -6.5737,5.87015 -14.25503,0.17154 -15.82268,-3.7991 -13.32595,-7.99165 -6.76479,-12.406091 -0.1804,-7.675404 -0.32615,-7.59664 -0.12883,-7.75392 0.41152,-8.147246 5.48534,-15.185225 7.687,-10.122589 8.94757,-8.429327 9.26702,-10.105444 16.84938,-9.566071 16.54075,-9.7748738 16.62943,-9.0331572 17.11543,-7.34092 6.07219,-1.802467 6.14923,-1.184853 7.40147,-2.12781 9.82892,-4.631338 6.72553,-2.858744 5.66402,-2.877097 4.82626,-1.636342 4.21224,0.863525 12.85838,-5.047279 8.46711,-3.311793 8.08771,-1.841445 11.7202,-0.636233 15.47105,-5.31919 8.94563,-3.314189 8.14566,-4.189053 13.07117,-7.943779 14.55151,-10.389178 15.0544,-10.125775 15.6376,-8.478734 16.30108,-5.448058 13.40734,-7.34969 15.06931,-4.90585 15.45069,-3.10617 14.55147,-1.95066 14.2788,6.81164 -11.70059,6.88935 -21.98872,7.428281 -16.58559,8.428431 -15.04092,10.244341 -12.39538,10.414697 -1.31615,6.497742 18.19678,-1.506526 25.7484,-1.014024 27.2095,0.451211 24.80515,6.667926 18.53533,17.636125 1.75697,3.235997 1.10142,2.805325 0.45046,3.632942 z m -99.57916,22.7307448 -11.19664,-20.9597138 -17.09155,-11.800399 -18.24245,1.674388 -14.64936,19.464644 -12.44105,14.7914593 -11.98371,14.3824137 -11.65253,14.609692 -11.44752,15.473295 -9.37768,13.137888 -10.32288,12.592674 -9.83739,12.721499 -7.92122,13.524363 0.76316,1.977734 16.11088,2.64066 12.68214,-3.530164 12.38333,-4.070149 13.26845,-4.583983 11.0101,-5.43715 11.57427,-5.818631 11.38316,-6.418568 10.43672,-7.236962 10.97615,-8.755262 10.77695,-10.792442 10.18375,-11.574509 9.19654,-11.101467 2.87304,-5.824161 1.17341,-6.2272164 0.50478,-6.4293553 z"
         id="path3193"
         inkscape:connector-curvature="0"
         sodipodi:nodetypes="cccccccccccccccccccccccccccccccccccccccccccccccccccccccccccccccccccccccccccccccccccccccccccccccccccccccccccccccccccccccccccccccccc" />
    </g>
    <g
       transform="matrix(-0.13898864,0.94444215,-1.0363807,-0.15251876,424.48634,304.41102)"
       style="font-size:1082.61779785px;font-style:normal;font-variant:normal;font-weight:normal;font-stretch:normal;line-height:125%;letter-spacing:0px;word-spacing:0px;fill:#000000;fill-opacity:1;stroke:none;font-family:ANGEL TEARS;-inkscape-font-specification:ANGEL TEARS"
       id="text3188-4">
      <path
         d="m 320.76412,244.44807 -9.3111,6.68194 -9.92248,11.24165 -9.70294,8.16937 -11.4268,7.7035 -11.82098,6.98261 -11.02558,7.21371 -9.0406,8.39682 -16.56542,5.45432 -13.49026,5.79986 -13.00881,5.91069 -15.12109,5.78685 -12.72328,2.88213 -13.10545,2.49861 -13.24852,1.10751 -13.15248,-1.29115 -7.80755,4.62374 -1.58879,-1.9626 -2.03658,-4.10255 -9.1509,-1.7961 25.77736,-6.71403 23.65489,-12.47594 22.48722,-14.79147 22.27435,-13.66061 15.00479,-14.39547 15.77816,-14.71093 15.00638,-15.09484 12.68948,-15.54723 z"
         id="path3193-2"
         inkscape:connector-curvature="0"
         sodipodi:nodetypes="ccccccccccccccccccccccccccccc" />
    </g>
  </g>
  <g
     inkscape:groupmode="layer"
     id="layer19"
     inkscape:label="_B2"
     style="display:none">
    <g
       transform="matrix(0.31074638,-0.90262146,0.99048893,0.34099661,-151.70616,522.02905)"
       style="font-size:1082.61779785px;font-style:normal;font-variant:normal;font-weight:normal;font-stretch:normal;line-height:125%;letter-spacing:0px;word-spacing:0px;fill:#000000;fill-opacity:1;stroke:none;font-family:ANGEL TEARS;-inkscape-font-specification:ANGEL TEARS"
       id="text3188-3">
      <path
         d="m 442.15543,81.096175 4.57647,3.496725 12.55073,2.064282 12.95668,2.32966 12.74183,3.785923 12.71148,5.564964 10.83492,7.809761 7.11212,10.52032 5.3573,19.00766 -1.69574,19.50791 -6.50002,18.92535 -9.05554,17.25997 -6.44082,14.39113 -8.3695,13.54828 -9.08364,12.03424 -8.58325,9.84897 -12.54988,10.74872 -12.01877,10.66364 -12.45441,9.69567 -13.8568,7.84481 -9.98647,7.15809 -11.36969,7.15887 -14.16286,6.90272 -11.57544,4.42829 -6.79727,2.63782 -10.14042,4.50858 -10.83871,4.94953 -12.28744,4.94132 -19.12923,6.95194 -20.46842,4.80902 -21.59311,3.13674 -22.50329,1.93509 -16.55864,-1.50729 -15.49101,-1.10629 -14.76116,-1.69255 -14.36914,-3.26607 -13.48618,-3.2812 -11.88976,-2.7774 -8.32045,-1.09662 -2.77824,1.76118 -7.86878,-5.50974 -50.576984,-26.08961 -10.894943,-12.85691 -11.606848,-14.23606 -11.355834,-15.13174 -10.1419,-15.54392 -6.414993,-15.1636 0.776486,-15.32612 6.201679,-14.34216 9.860583,-12.21171 10.831592,-12.23134 12.74313,-9.86971 14.487255,-6.86834 16.063967,-3.22719 18.17536,-3.20804 18.14129,-0.51281 18.38562,1.07505 18.90834,1.55552 11.92154,-1.91326 8.70984,-12.51422 8.0328,-16.00912 9.89043,-12.39797 z m -7.69228,108.125005 -1.84009,-16.73212 -5.85119,-16.16205 -10.02683,-13.68828 -14.36704,-9.31083 -13.94369,-7.21424 -15.77247,-5.28715 -16.71414,-3.20147 -16.76867,-0.95723 -10.3581,-0.19265 -10.34739,0.43484 -10.13316,1.05848 -9.71541,1.67822 -16.17077,7.99615 -11.88996,13.66586 -9.91495,15.90038 -10.24571,14.69972 7.66425,13.48413 12.20722,11.98725 9.30876,13.863 -1.03111,19.11138 -4.61525,12.1604 -8.03631,13.81167 -6.03862,5.97144 1.37781,-11.36029 -6.09807,-7.60202 -3.51629,-9.22719 -2.50032,-9.86407 -3.05016,-9.51266 -9.98108,-9.72374 -10.3864,3.70875 -9.94913,11.97652 -8.66926,15.07957 -8.05156,12.71717 -8.07504,12.39339 -8.36698,12.13427 -8.92738,11.93981 -10.67771,11.33728 -3.74646,10.09015 5.32873,7.6511 16.54785,4.02014 25.12547,6.65143 26.29056,2.77631 27.18603,-0.33179 27.81188,-2.67292 16.8003,-2.74259 16.32842,-4.48058 15.39106,-5.9484 13.98822,-7.14606 10.42882,-6.28898 10.15506,-5.50766 9.59452,-5.87803 8.74721,-7.40008 9.21229,-6.19121 8.24282,-8.42209 5.74309,-9.23475 1.71311,-8.62916 7.48757,-6.08943 5.33412,-12.05188 4.06908,-14.13539 3.69245,-12.33996 -0.27014,-3.1935 0.48911,-4.01978 0.37963,-3.6061 z m -253.34208,-15.16485 -18.50467,-3.16722 -19.99664,-0.55969 -19.42121,2.11322 -16.77838,4.8515 -15.046104,9.1216 -12.534068,12.27331 -7.945308,15.35195 -1.279822,18.35749 3.432062,14.41291 5.845037,10.7132 7.403076,8.54452 8.106183,7.90686 4.079382,4.43365 3.190202,3.38999 2.69643,1.29279 2.59807,-1.85797 6.23441,-6.40699 5.53285,-7.56033 5.4682,-7.61395 6.04043,-6.56785 5.70144,-8.59186 6.03922,-8.32863 5.80652,-8.31604 5.00336,-8.55405 5.86482,-10.10398 4.95152,-9.05822 4.99851,-8.3501 6.00582,-7.97964 1.20817,-2.64932 2.02946,-1.84899 2.03781,-2.03645 z"
         id="path3193-4"
         inkscape:connector-curvature="0"
         sodipodi:nodetypes="ccccccccccccccccccccccccccccccccccccccccccccccccccccccccccccccccccccccccccccccccccccccccccccccccccccccccccccccccccccccccccccccccccccccccccccccccccccccccccccccccc" />
    </g>
  </g>
</svg>
