  0
SECTION
  2
HEADER
  9
$ACADVER
  1
AC1014
  9
$HANDSEED
  5
FFFF
  9
$MEASUREMENT
 70
     1
  0
ENDSEC
  0
SECTION
  2
TABLES
  0
TABLE
  2
VPORT
  5
8
330
0
100
AcDbSymbolTable
 70
     4
  0
VPORT
  5
2E
330
8
100
AcDbSymbolTableRecord
100
AcDbViewportTableRecord
  2
*ACTIVE
 70
     0
 10
0.0
 20
0.0
 11
1.0
 21
1.0
 12
210.0
 22
148.5
 13
0.0
 23
0.0
 14
10.0
 24
10.0
 15
10.0
 25
10.0
 16
0.0
 26
0.0
 36
1.0
 17
0.0
 27
0.0
 37
0.0
 40
341.0
 41
1.24
 42
50.0
 43
0.0
 44
0.0
 50
0.0
 51
0.0
 71
     0
 72
   100
 73
     1
 74
     3
 75
     0
 76
     0
 77
     0
 78
     0
  0
ENDTAB
  0
TABLE
  2
LTYPE
  5
5
330
0
100
AcDbSymbolTable
 70
     1
  0
LTYPE
  5
14
330
5
100
AcDbSymbolTableRecord
100
AcDbLinetypeTableRecord
  2
BYBLOCK
 70
     0
  3

 72
    65
 73
     0
 40
0.0
  0
LTYPE
  5
15
330
5
100
AcDbSymbolTableRecord
100
AcDbLinetypeTableRecord
  2
BYLAYER
 70
     0
  3

 72
    65
 73
     0
 40
0.0
  0
LTYPE
  5
16
330
5
100
AcDbSymbolTableRecord
100
AcDbLinetypeTableRecord
  2
CONTINUOUS
 70
     0
  3
Solid line
 72
    65
 73
     0
 40
0.0
  0
ENDTAB
  0
TABLE
  2
LAYER
  5
2
100
AcDbSymbolTable
 70
7
  0
LAYER
  5
50
100
AcDbSymbolTableRecord
100
AcDbLayerTableRecord
  2
0
 70
0
  6
CONTINUOUS
  0
LAYER
  5
51
100
AcDbSymbolTableRecord
100
AcDbLayerTableRecord
  2
Scratch
 70
0
  6
CONTINUOUS
  0
LAYER
  5
52
100
AcDbSymbolTableRecord
100
AcDbLayerTableRecord
  2
E
 70
0
  6
CONTINUOUS
  0
LAYER
  5
53
100
AcDbSymbolTableRecord
100
AcDbLayerTableRecord
  2
V
 70
0
  6
CONTINUOUS
  0
LAYER
  5
54
100
AcDbSymbolTableRecord
100
AcDbLayerTableRecord
  2
O
 70
0
  6
CONTINUOUS
  0
LAYER
  5
55
100
AcDbSymbolTableRecord
100
AcDbLayerTableRecord
  2
L1
 70
0
  6
CONTINUOUS
  0
LAYER
  5
56
100
AcDbSymbolTableRecord
100
AcDbLayerTableRecord
  2
L2
 70
0
  6
CONTINUOUS
  0
ENDTAB
  0
TABLE
  2
STYLE
  5
3
330
0
100
AcDbSymbolTable
 70
     1
  0
STYLE
  5
11
330
3
100
AcDbSymbolTableRecord
100
AcDbTextStyleTableRecord
  2
STANDARD
 70
     0
 40
0.0
 41
1.0
 50
0.0
 71
     0
 42
2.5
  3
txt
  4

  0
ENDTAB
  0
TABLE
  2
VIEW
  5
6
330
0
100
AcDbSymbolTable
 70
     0
  0
ENDTAB
  0
TABLE
  2
UCS
  5
7
330
0
100
AcDbSymbolTable
 70
     0
  0
ENDTAB
  0
TABLE
  2
APPID
  5
9
330
0
100
AcDbSymbolTable
 70
     2
  0
APPID
  5
12
330
9
100
AcDbSymbolTableRecord
100
AcDbRegAppTableRecord
  2
ACAD
 70
     0
  0
ENDTAB
  0
TABLE
  2
DIMSTYLE
  5
A
330
0
100
AcDbSymbolTable
 70
     1
  0
DIMSTYLE
105
27
330
A
100
AcDbSymbolTableRecord
100
AcDbDimStyleTableRecord
  2
ISO-25
 70
     0
  3

  4

  5

  6

  7

 40
1.0
 41
2.5
 42
0.625
 43
3.75
 44
1.25
 45
0.0
 46
0.0
 47
0.0
 48
0.0
140
2.5
141
2.5
142
0.0
143
0.03937007874016
144
1.0
145
0.0
146
1.0
147
0.625
 71
     0
 72
     0
 73
     0
 74
     0
 75
     0
 76
     0
 77
     1
 78
     8
170
     0
171
     3
172
     1
173
     0
174
     0
175
     0
176
     0
177
     0
178
     0
270
     2
271
     2
272
     2
273
     2
274
     3
340
11
275
     0
280
     0
281
     0
282
     0
283
     0
284
     8
285
     0
286
     0
287
     3
288
     0
  0
ENDTAB
  0
TABLE
  2
BLOCK_RECORD
  5
1
330
0
100
AcDbSymbolTable
 70
     1
  0
BLOCK_RECORD
  5
1F
330
1
100
AcDbSymbolTableRecord
100
AcDbBlockTableRecord
  2
*MODEL_SPACE
  0
BLOCK_RECORD
  5
1B
330
1
100
AcDbSymbolTableRecord
100
AcDbBlockTableRecord
  2
*PAPER_SPACE
  0
ENDTAB
  0
ENDSEC
  0
SECTION
  2
BLOCKS
  0
BLOCK
  5
20
330
1F
100
AcDbEntity
  8
0
100
AcDbBlockBegin
  2
*MODEL_SPACE
 70
     0
 10
0.0
 20
0.0
 30
0.0
  3
*MODEL_SPACE
  1

  0
ENDBLK
  5
21
330
1F
100
AcDbEntity
  8
0
100
AcDbBlockEnd
  0
BLOCK
  5
1C
330
1B
100
AcDbEntity
 67
     1
  8
0
100
AcDbBlockBegin
  2
*PAPER_SPACE
  1

  0
ENDBLK
  5
1D
330
1B
100
AcDbEntity
 67
     1
  8
0
100
AcDbBlockEnd
  0
ENDSEC
  0
SECTION
  2
ENTITIES
  0
LWPOLYLINE
  5
100
100
AcDbEntity
  8
E
 62
7
100
AcDbPolyline
 90
102
 70
0
 10
63.646002
 20
30.421054
 30
0.0
 10
62.721180
 20
29.105796
 30
0.0
 10
62.004019
 20
27.702156
 30
0.0
 10
61.146447
 20
26.279641
 30
0.0
 10
59.800384
 20
24.907755
 30
0.0
 10
56.604019
 20
21.675173
 30
0.0
 10
53.309001
 20
18.641153
 30
0.0
 10
50.072131
 20
15.781033
 30
0.0
 10
47.050205
 20
13.070164
 30
0.0
 10
45.184431
 20
11.342453
 30
0.0
 10
43.140977
 20
9.603496
 30
0.0
 10
40.536461
 20
7.766231
 30
0.0
 10
38.333108
 20
6.439057
 30
0.0
 10
36.395730
 20
5.552851
 30
0.0
 10
33.019920
 20
4.152020
 30
0.0
 10
29.337138
 20
2.819252
 30
0.0
 10
25.806028
 20
1.789501
 30
0.0
 10
23.402304
 20
1.139832
 30
0.0
 10
20.941588
 20
0.619043
 30
0.0
 10
18.446040
 20
0.289920
 30
0.0
 10
15.937823
 20
0.215266
 30
0.0
 10
13.252689
 20
0.516980
 30
0.0
 10
10.796741
 20
1.569057
 30
0.0
 10
8.401698
 20
2.843266
 30
0.0
 10
5.899274
 20
3.811379
 30
0.0
 10
3.570094
 20
6.658771
 30
0.0
 10
2.010920
 20
9.988505
 30
0.0
 10
1.011477
 20
13.581061
 30
0.0
 10
0.361487
 20
17.216923
 30
0.0
 10
0.634147
 20
20.597197
 30
0.0
 10
1.190306
 20
23.950555
 30
0.0
 10
1.989288
 20
27.260322
 30
0.0
 10
2.990417
 20
30.509825
 30
0.0
 10
4.347450
 20
32.834604
 30
0.0
 10
5.609235
 20
35.207819
 30
0.0
 10
6.760976
 20
37.633380
 30
0.0
 10
7.787875
 20
40.115205
 30
0.0
 10
9.454857
 20
42.564279
 30
0.0
 10
11.386924
 20
44.815172
 30
0.0
 10
13.329643
 20
47.058699
 30
0.0
 10
15.028582
 20
49.485666
 30
0.0
 10
16.823354
 20
51.214153
 30
0.0
 10
18.631661
 20
52.931086
 30
0.0
 10
20.487459
 20
54.609927
 30
0.0
 10
22.424703
 20
56.224142
 30
0.0
 10
24.562415
 20
57.678110
 30
0.0
 10
26.856943
 20
58.853127
 30
0.0
 10
29.252378
 20
59.814398
 30
0.0
 10
31.692811
 20
60.627142
 30
0.0
 10
35.936389
 20
61.966683
 30
0.0
 10
40.355788
 20
62.322310
 30
0.0
 10
44.837858
 20
62.106479
 30
0.0
 10
49.269452
 20
61.731659
 30
0.0
 10
51.186920
 20
60.996287
 30
0.0
 10
53.016058
 20
60.018731
 30
0.0
 10
54.714954
 20
58.834206
 30
0.0
 10
56.241687
 20
57.477927
 30
0.0
 10
56.854152
 20
56.459651
 30
0.0
 10
57.460750
 20
55.437002
 30
0.0
 10
58.067808
 20
54.414216
 30
0.0
 10
58.681653
 20
53.395538
 30
0.0
 10
58.047968
 20
51.199023
 30
0.0
 10
57.577375
 20
48.953574
 30
0.0
 10
56.963823
 20
46.760511
 30
0.0
 10
55.901257
 20
44.721161
 30
0.0
 10
54.826818
 20
43.004597
 30
0.0
 10
53.527101
 20
41.459110
 30
0.0
 10
52.091611
 20
40.021177
 30
0.0
 10
50.609848
 20
38.627285
 30
0.0
 10
44.881475
 20
34.315302
 30
0.0
 10
38.764424
 20
30.382071
 30
0.0
 10
32.529812
 20
26.986255
 30
0.0
 10
28.366774
 20
25.032074
 30
0.0
 10
26.568571
 20
24.315619
 30
0.0
 10
24.144640
 20
23.270118
 30
0.0
 10
21.954695
 20
22.153437
 30
0.0
 10
19.899436
 20
20.850656
 30
0.0
 10
18.101915
 20
19.348102
 30
0.0
 10
17.232512
 20
17.455108
 30
0.0
 10
16.989516
 20
14.826337
 30
0.0
 10
17.071218
 20
11.116463
 30
0.0
 10
18.145781
 20
9.348809
 30
0.0
 10
19.402525
 20
7.718200
 30
0.0
 10
20.951353
 20
6.481041
 30
0.0
 10
22.902163
 20
5.893746
 30
0.0
 10
28.440527
 20
7.064501
 30
0.0
 10
33.559194
 20
8.872955
 30
0.0
 10
38.266693
 20
11.244288
 30
0.0
 10
42.571561
 20
14.103674
 30
0.0
 10
46.127677
 20
16.787627
 30
0.0
 10
49.611287
 20
19.629716
 30
0.0
 10
52.899199
 20
22.575302
 30
0.0
 10
55.868220
 20
25.569746
 30
0.0
 10
57.366098
 20
27.276993
 30
0.0
 10
58.949927
 20
28.902652
 30
0.0
 10
60.720087
 20
30.155708
 30
0.0
 10
62.776967
 20
30.745148
 30
0.0
 10
63.236688
 20
30.859406
 30
0.0
 10
63.525861
 20
30.994978
 30
0.0
 10
63.657844
 20
30.924611
 30
0.0
 10
63.645991
 20
30.421054
 30
0.0
 10
63.646002
 20
30.421054
 30
0.0
  0
LWPOLYLINE
  5
101
100
AcDbEntity
  8
E
 62
7
100
AcDbPolyline
 90
2
 70
0
 10
29.805050
 20
2.482190
 30
0.0
 10
29.805050
 20
2.482190
 30
0.0
  0
LWPOLYLINE
  5
102
100
AcDbEntity
  8
E
 62
7
100
AcDbPolyline
 90
2
 70
0
 10
21.733244
 20
0.312642
 30
0.0
 10
21.733244
 20
0.312642
 30
0.0
  0
LWPOLYLINE
  5
103
100
AcDbEntity
  8
E
 62
7
100
AcDbPolyline
 90
24
 70
0
 10
52.779382
 20
55.574560
 30
0.0
 10
48.103178
 20
55.841012
 30
0.0
 10
43.472516
 20
54.058567
 30
0.0
 10
39.412500
 20
51.218344
 30
0.0
 10
36.448223
 20
48.311468
 30
0.0
 10
32.724759
 20
44.004449
 30
0.0
 10
30.775736
 20
41.940969
 30
0.0
 10
29.033273
 20
39.674686
 30
0.0
 10
26.258746
 20
35.877066
 30
0.0
 10
23.665554
 20
32.281083
 30
0.0
 10
21.575117
 20
28.640339
 30
0.0
 10
19.808815
 20
25.079245
 30
0.0
 10
21.164620
 20
24.445428
 30
0.0
 10
24.034622
 20
26.177183
 30
0.0
 10
28.078113
 20
27.945836
 30
0.0
 10
32.008868
 20
30.050823
 30
0.0
 10
36.030959
 20
32.297985
 30
0.0
 10
39.721070
 20
35.025108
 30
0.0
 10
43.424101
 20
37.965162
 30
0.0
 10
46.947549
 20
41.124641
 30
0.0
 10
50.106743
 20
44.532559
 30
0.0
 10
52.255249
 20
48.700515
 30
0.0
 10
53.194780
 20
52.063168
 30
0.0
 10
52.779382
 20
55.574560
 30
0.0
  0
LWPOLYLINE
  5
104
100
AcDbEntity
  8
V
 62
7
100
AcDbPolyline
 90
141
 70
0
 10
82.575493
 20
67.057061
 30
0.0
 10
82.537348
 20
65.261685
 30
0.0
 10
82.353918
 20
63.529808
 30
0.0
 10
81.687489
 20
61.594520
 30
0.0
 10
80.852261
 20
60.074229
 30
0.0
 10
80.141439
 20
58.719291
 30
0.0
 10
79.050049
 20
56.327588
 30
0.0
 10
77.917345
 20
53.748805
 30
0.0
 10
76.756633
 20
51.389957
 30
0.0
 10
75.247091
 20
49.155635
 30
0.0
 10
73.755958
 20
47.057985
 30
0.0
 10
72.373961
 20
45.018353
 30
0.0
 10
71.191837
 20
42.958091
 30
0.0
 10
70.235547
 20
41.490556
 30
0.0
 10
69.179923
 20
40.107009
 30
0.0
 10
68.121205
 20
38.722040
 30
0.0
 10
67.155630
 20
37.250235
 30
0.0
 10
65.478400
 20
35.140341
 30
0.0
 10
63.811475
 20
32.833544
 30
0.0
 10
62.675290
 20
30.376580
 30
0.0
 10
62.590288
 20
27.816181
 30
0.0
 10
63.239602
 20
27.239612
 30
0.0
 10
63.863909
 20
26.760607
 30
0.0
 10
64.425709
 20
26.297673
 30
0.0
 10
64.887512
 20
25.769313
 30
0.0
 10
66.857524
 20
25.021692
 30
0.0
 10
68.881738
 20
24.440363
 30
0.0
 10
70.930135
 20
24.312544
 30
0.0
 10
72.972696
 20
24.925457
 30
0.0
 10
74.655638
 20
25.492546
 30
0.0
 10
75.873833
 20
25.289470
 30
0.0
 10
76.258680
 20
24.338486
 30
0.0
 10
75.441562
 20
22.661838
 30
0.0
 10
73.916009
 20
20.469372
 30
0.0
 10
71.756801
 20
19.098985
 30
0.0
 10
69.229331
 20
18.388604
 30
0.0
 10
66.599006
 20
18.176155
 30
0.0
 10
63.305380
 20
18.225172
 30
0.0
 10
59.972231
 20
18.594869
 30
0.0
 10
56.903837
 20
19.664045
 30
0.0
 10
54.404477
 20
21.811505
 30
0.0
 10
52.662348
 20
20.959818
 30
0.0
 10
50.940177
 20
19.064899
 30
0.0
 10
49.146547
 20
16.894220
 30
0.0
 10
47.190056
 20
15.215263
 30
0.0
 10
45.347227
 20
13.832197
 30
0.0
 10
43.507022
 20
12.330080
 30
0.0
 10
41.635065
 20
10.802668
 30
0.0
 10
39.696980
 20
9.343723
 30
0.0
 10
36.539602
 20
7.428569
 30
0.0
 10
33.335852
 20
5.581839
 30
0.0
 10
30.145917
 20
3.714541
 30
0.0
 10
27.029993
 20
1.737679
 30
0.0
 10
23.657770
 20
0.777641
 30
0.0
 10
20.208013
 20
0.241215
 30
0.0
 10
16.716545
 20
0.096066
 30
0.0
 10
13.219190
 20
0.309863
 30
0.0
 10
11.064460
 20
0.278892
 30
0.0
 10
8.945916
 20
0.634314
 30
0.0
 10
6.842130
 20
1.085328
 30
0.0
 10
4.731675
 20
1.341145
 30
0.0
 10
3.165553
 20
2.826599
 30
0.0
 10
1.795998
 20
4.536748
 30
0.0
 10
0.769951
 20
6.609907
 30
0.0
 10
0.312642
 20
8.253177
 30
0.0
 10
0.158494
 20
8.948327
 30
0.0
 10
-0.020173
 20
9.936793
 30
0.0
 10
0.168012
 20
11.690680
 30
0.0
 10
0.625285
 20
13.661525
 30
0.0
 10
1.527540
 20
16.180681
 30
0.0
 10
3.274482
 20
20.652260
 30
0.0
 10
5.478821
 20
25.567719
 30
0.0
 10
7.143405
 20
28.826677
 30
0.0
 10
8.057667
 20
30.575617
 30
0.0
 10
9.406192
 20
33.480985
 30
0.0
 10
10.773605
 20
36.857508
 30
0.0
 10
11.719346
 20
39.391706
 30
0.0
 10
12.249101
 20
41.136680
 30
0.0
 10
13.006358
 20
44.037902
 30
0.0
 10
13.572999
 20
47.024205
 30
0.0
 10
13.752215
 20
49.672248
 30
0.0
 10
13.512865
 20
50.836178
 30
0.0
 10
12.505554
 20
51.509047
 30
0.0
 10
11.400192
 20
52.106017
 30
0.0
 10
10.866692
 20
53.042253
 30
0.0
 10
11.712851
 20
55.049039
 30
0.0
 10
13.823402
 20
56.083225
 30
0.0
 10
16.411271
 20
56.585155
 30
0.0
 10
18.689382
 20
56.995162
 30
0.0
 10
23.499845
 20
57.472628
 30
0.0
 10
28.317114
 20
57.903006
 30
0.0
 10
33.127592
 20
58.376970
 30
0.0
 10
37.917679
 20
58.985201
 30
0.0
 10
39.473471
 20
59.039001
 30
0.0
 10
40.917402
 20
59.201798
 30
0.0
 10
42.383148
 20
59.217800
 30
0.0
 10
44.004388
 20
58.831186
 30
0.0
 10
44.958683
 20
56.832531
 30
0.0
 10
44.008969
 20
54.418021
 30
0.0
 10
42.347080
 20
51.886677
 30
0.0
 10
41.164846
 20
49.537510
 30
0.0
 10
36.879603
 20
42.063760
 30
0.0
 10
32.842573
 20
34.403589
 30
0.0
 10
29.636407
 20
26.426764
 30
0.0
 10
27.843773
 20
18.003052
 30
0.0
 10
27.959001
 20
15.863765
 30
0.0
 10
28.810272
 20
14.404865
 30
0.0
 10
30.923442
 20
13.929270
 30
0.0
 10
33.212445
 20
14.235664
 30
0.0
 10
34.726417
 20
14.775632
 30
0.0
 10
36.801281
 20
15.666308
 30
0.0
 10
39.002355
 20
16.954971
 30
0.0
 10
40.726682
 20
18.158248
 30
0.0
 10
42.178029
 20
19.248648
 30
0.0
 10
44.666857
 20
21.152344
 30
0.0
 10
47.222046
 20
23.285752
 30
0.0
 10
49.359606
 20
25.456676
 30
0.0
 10
50.964575
 20
27.652627
 30
0.0
 10
51.448860
 20
30.011765
 30
0.0
 10
51.449707
 20
33.157485
 30
0.0
 10
51.460403
 20
35.939623
 30
0.0
 10
51.754741
 20
38.478375
 30
0.0
 10
52.403669
 20
42.854465
 30
0.0
 10
53.489866
 20
48.016871
 30
0.0
 10
54.512983
 20
51.866154
 30
0.0
 10
55.192323
 20
54.097188
 30
0.0
 10
56.340855
 20
57.498265
 30
0.0
 10
57.852539
 20
60.759842
 30
0.0
 10
59.948851
 20
63.539991
 30
0.0
 10
61.874087
 20
65.711990
 30
0.0
 10
63.814472
 20
67.819558
 30
0.0
 10
65.770627
 20
69.741294
 30
0.0
 10
67.743174
 20
71.355802
 30
0.0
 10
69.777195
 20
72.720372
 30
0.0
 10
72.233401
 20
73.426614
 30
0.0
 10
74.647287
 20
73.674362
 30
0.0
 10
76.554344
 20
73.663469
 30
0.0
 10
78.605315
 20
72.546269
 30
0.0
 10
80.339243
 20
71.052227
 30
0.0
 10
81.686002
 20
69.212206
 30
0.0
 10
82.575493
 20
67.057061
 30
0.0
  0
LWPOLYLINE
  5
105
100
AcDbEntity
  8
O
 62
7
100
AcDbPolyline
 90
37
 70
0
 10
48.118511
 20
27.000934
 30
0.0
 10
44.877601
 20
29.901907
 30
0.0
 10
42.816512
 20
33.702523
 30
0.0
 10
41.686122
 20
37.979725
 30
0.0
 10
41.237301
 20
42.310459
 30
0.0
 10
41.770486
 20
45.158804
 30
0.0
 10
42.865099
 20
47.835910
 30
0.0
 10
44.170860
 20
50.446488
 30
0.0
 10
45.337479
 20
53.095257
 30
0.0
 10
43.358381
 20
52.303389
 30
0.0
 10
41.166968
 20
50.440294
 30
0.0
 10
38.967475
 20
48.165269
 30
0.0
 10
36.964135
 20
46.137610
 30
0.0
 10
34.908307
 20
43.856461
 30
0.0
 10
32.747066
 20
41.674754
 30
0.0
 10
30.719801
 20
39.392013
 30
0.0
 10
29.065900
 20
36.807775
 30
0.0
 10
27.216340
 20
33.921624
 30
0.0
 10
25.538252
 20
31.092874
 30
0.0
 10
23.877165
 20
27.961336
 30
0.0
 10
22.078609
 20
24.166830
 30
0.0
 10
20.512307
 20
21.246990
 30
0.0
 10
19.693361
 20
18.052364
 30
0.0
 10
19.458226
 20
14.733442
 30
0.0
 10
19.643354
 20
11.440716
 30
0.0
 10
21.677335
 20
9.040650
 30
0.0
 10
24.587236
 20
8.229479
 30
0.0
 10
27.816004
 20
8.537222
 30
0.0
 10
30.806582
 20
9.493899
 30
0.0
 10
35.325784
 20
11.877878
 30
0.0
 10
39.339845
 20
15.019531
 30
0.0
 10
43.014084
 20
18.600050
 30
0.0
 10
46.513826
 20
22.300627
 30
0.0
 10
47.747468
 20
23.347787
 30
0.0
 10
48.851967
 20
24.533208
 30
0.0
 10
49.188568
 20
25.777416
 30
0.0
 10
48.118511
 20
27.000934
 30
0.0
  0
LWPOLYLINE
  5
106
100
AcDbEntity
  8
O
 62
7
100
AcDbPolyline
 90
81
 70
0
 10
80.405944
 20
31.974793
 30
0.0
 10
76.758159
 20
29.486132
 30
0.0
 10
73.180598
 20
26.834671
 30
0.0
 10
69.404193
 20
24.589557
 30
0.0
 10
65.159890
 20
23.319940
 30
0.0
 10
62.001747
 20
22.803045
 30
0.0
 10
58.798110
 20
22.604191
 30
0.0
 10
55.604190
 20
22.400562
 30
0.0
 10
52.475206
 20
21.869338
 30
0.0
 10
50.203343
 20
20.040894
 30
0.0
 10
48.201507
 20
17.901293
 30
0.0
 10
46.194159
 20
15.755279
 30
0.0
 10
43.905760
 20
13.907587
 30
0.0
 10
41.330451
 20
11.545536
 30
0.0
 10
38.674427
 20
9.272095
 30
0.0
 10
35.864467
 20
7.211393
 30
0.0
 10
32.827358
 20
5.487549
 30
0.0
 10
29.650309
 20
3.693651
 30
0.0
 10
26.344164
 20
2.059023
 30
0.0
 10
22.895789
 20
0.888046
 30
0.0
 10
19.292051
 20
0.485095
 30
0.0
 10
15.207606
 20
0.318905
 30
0.0
 10
11.174157
 20
1.007480
 30
0.0
 10
7.506001
 20
2.686758
 30
0.0
 10
4.517440
 20
5.492685
 30
0.0
 10
2.466478
 20
8.133311
 30
0.0
 10
1.211553
 20
11.157399
 30
0.0
 10
0.742070
 20
14.409454
 30
0.0
 10
1.047438
 20
17.733992
 30
0.0
 10
1.713526
 20
20.686025
 30
0.0
 10
2.747741
 20
23.544409
 30
0.0
 10
3.939478
 20
26.358856
 30
0.0
 10
5.078132
 20
29.179080
 30
0.0
 10
6.460848
 20
32.020050
 30
0.0
 10
8.068494
 20
34.735095
 30
0.0
 10
9.769891
 20
37.394100
 30
0.0
 10
11.433859
 20
40.066942
 30
0.0
 10
14.074480
 20
42.954228
 30
0.0
 10
16.704445
 20
45.861811
 30
0.0
 10
19.427503
 20
48.673018
 30
0.0
 10
22.347400
 20
51.271184
 30
0.0
 10
24.624716
 20
52.844649
 30
0.0
 10
26.948583
 20
54.354572
 30
0.0
 10
29.328011
 20
55.786864
 30
0.0
 10
31.772013
 20
57.127445
 30
0.0
 10
35.133351
 20
58.518631
 30
0.0
 10
38.609688
 20
59.586444
 30
0.0
 10
42.135783
 20
60.502080
 30
0.0
 10
45.646396
 20
61.436750
 30
0.0
 10
48.609239
 20
61.780174
 30
0.0
 10
51.550257
 20
62.256955
 30
0.0
 10
54.482690
 20
62.785571
 30
0.0
 10
57.419785
 20
63.284501
 30
0.0
 10
60.528293
 20
63.685039
 30
0.0
 10
63.684779
 20
63.845155
 30
0.0
 10
66.766333
 20
63.431976
 30
0.0
 10
69.650046
 20
62.112632
 30
0.0
 10
71.862323
 20
59.820367
 30
0.0
 10
72.670614
 20
56.883540
 30
0.0
 10
72.461072
 20
53.700999
 30
0.0
 10
71.619852
 20
50.671600
 30
0.0
 10
70.056465
 20
46.331223
 30
0.0
 10
67.750947
 20
42.345477
 30
0.0
 10
65.058959
 20
38.564428
 30
0.0
 10
62.336158
 20
34.838152
 30
0.0
 10
60.970699
 20
32.731764
 30
0.0
 10
59.196712
 20
30.628692
 30
0.0
 10
57.694167
 20
28.590680
 30
0.0
 10
57.143021
 20
26.679466
 30
0.0
 10
61.171178
 20
26.956498
 30
0.0
 10
65.268074
 20
27.857862
 30
0.0
 10
69.230136
 20
29.454969
 30
0.0
 10
71.755435
 20
30.920317
 30
0.0
 10
73.135942
 20
31.998756
 30
0.0
 10
75.352329
 20
33.543923
 30
0.0
 10
77.576310
 20
34.706052
 30
0.0
 10
79.528769
 20
35.084822
 30
0.0
 10
79.068879
 20
33.638657
 30
0.0
 10
79.111896
 20
32.754288
 30
0.0
 10
79.582642
 20
32.257681
 30
0.0
 10
80.405944
 20
31.974793
 30
0.0
  0
LWPOLYLINE
  5
107
100
AcDbEntity
  8
L1
 62
7
100
AcDbPolyline
 90
73
 70
0
 10
11.621430
 20
96.143318
 30
0.0
 10
13.884896
 20
93.516209
 30
0.0
 10
17.305969
 20
89.036518
 30
0.0
 10
22.653767
 20
82.810339
 30
0.0
 10
28.622692
 20
76.250496
 30
0.0
 10
34.047182
 20
69.987785
 30
0.0
 10
39.714221
 20
64.126632
 30
0.0
 10
43.901441
 20
59.277120
 30
0.0
 10
47.979077
 20
54.365717
 30
0.0
 10
51.286766
 20
50.267050
 30
0.0
 10
53.121491
 20
45.864494
 30
0.0
 10
53.976337
 20
53.813319
 30
0.0
 10
54.259335
 20
61.683628
 30
0.0
 10
55.343278
 20
65.221712
 30
0.0
 10
56.105862
 20
68.067312
 30
0.0
 10
58.741123
 20
73.886186
 30
0.0
 10
61.231894
 20
79.783500
 30
0.0
 10
64.274970
 20
84.626366
 30
0.0
 10
67.176447
 20
89.566622
 30
0.0
 10
68.645568
 20
92.651147
 30
0.0
 10
70.088403
 20
96.020628
 30
0.0
 10
71.737239
 20
100.224278
 30
0.0
 10
72.865453
 20
104.925388
 30
0.0
 10
73.664127
 20
111.475815
 30
0.0
 10
72.862932
 20
118.025731
 30
0.0
 10
68.384406
 20
125.619895
 30
0.0
 10
60.320295
 20
128.825102
 30
0.0
 10
55.445690
 20
126.904337
 30
0.0
 10
51.333438
 20
123.558215
 30
0.0
 10
50.533567
 20
114.063215
 30
0.0
 10
52.583517
 20
104.924914
 30
0.0
 10
48.848795
 20
110.950853
 30
0.0
 10
45.186462
 20
117.234519
 30
0.0
 10
42.773750
 20
125.072555
 30
0.0
 10
43.601100
 20
133.706139
 30
0.0
 10
48.061149
 20
138.096828
 30
0.0
 10
54.135922
 20
139.905324
 30
0.0
 10
61.936881
 20
138.303079
 30
0.0
 10
69.136338
 20
134.008042
 30
0.0
 10
75.409215
 20
127.532738
 30
0.0
 10
77.688929
 20
120.682714
 30
0.0
 10
78.524756
 20
115.467792
 30
0.0
 10
79.111099
 20
109.712983
 30
0.0
 10
78.795272
 20
105.056063
 30
0.0
 10
78.309551
 20
100.588141
 30
0.0
 10
77.836519
 20
97.345770
 30
0.0
 10
76.915023
 20
93.066548
 30
0.0
 10
74.803554
 20
83.932054
 30
0.0
 10
72.953154
 20
76.019347
 30
0.0
 10
70.101179
 20
68.520333
 30
0.0
 10
67.726068
 20
61.402554
 30
0.0
 10
65.967988
 20
56.169729
 30
0.0
 10
64.585845
 20
49.175969
 30
0.0
 10
63.121035
 20
42.102136
 30
0.0
 10
62.297577
 20
35.023882
 30
0.0
 10
62.881185
 20
26.295854
 30
0.0
 10
64.678507
 20
17.233728
 30
0.0
 10
65.724577
 20
12.342486
 30
0.0
 10
64.765889
 20
13.044924
 30
0.0
 10
65.130805
 20
9.200856
 30
0.0
 10
63.647542
 20
9.154454
 30
0.0
 10
61.047117
 20
12.649652
 30
0.0
 10
58.450386
 20
16.247598
 30
0.0
 10
50.746687
 20
24.475683
 30
0.0
 10
42.908181
 20
32.618437
 30
0.0
 10
35.708859
 20
40.319976
 30
0.0
 10
28.541865
 20
48.060419
 30
0.0
 10
23.724055
 20
52.425526
 30
0.0
 10
18.965654
 20
57.000947
 30
0.0
 10
12.857872
 20
60.959407
 30
0.0
 10
9.382257
 20
63.914352
 30
0.0
 10
10.501842
 20
80.028832
 30
0.0
 10
11.621430
 20
96.143318
 30
0.0
  0
LWPOLYLINE
  5
108
100
AcDbEntity
  8
L2
 62
7
100
AcDbPolyline
 90
65
 70
0
 10
61.794642
 20
145.730783
 30
0.0
 10
64.573831
 20
141.752561
 30
0.0
 10
66.752132
 20
137.016851
 30
0.0
 10
68.627133
 20
130.128715
 30
0.0
 10
69.817705
 20
122.833772
 30
0.0
 10
71.112366
 20
114.820102
 30
0.0
 10
71.519683
 20
106.528088
 30
0.0
 10
71.426402
 20
100.256855
 30
0.0
 10
72.388683
 20
93.771508
 30
0.0
 10
71.826899
 20
81.286723
 30
0.0
 10
71.034450
 20
73.749432
 30
0.0
 10
66.176222
 20
58.344016
 30
0.0
 10
61.317995
 20
42.938599
 30
0.0
 10
56.725861
 20
38.616103
 30
0.0
 10
49.844891
 20
31.853716
 30
0.0
 10
45.712043
 20
29.007443
 30
0.0
 10
40.984970
 20
27.580086
 30
0.0
 10
34.034601
 20
27.588710
 30
0.0
 10
28.686420
 20
30.608957
 30
0.0
 10
24.871964
 20
35.569718
 30
0.0
 10
23.171899
 20
40.049001
 30
0.0
 10
21.764963
 20
47.992936
 30
0.0
 10
20.720335
 20
56.381071
 30
0.0
 10
20.205839
 20
60.646885
 30
0.0
 10
19.791175
 20
65.866108
 30
0.0
 10
19.516631
 20
69.309495
 30
0.0
 10
19.553640
 20
74.352256
 30
0.0
 10
19.914507
 20
78.422544
 30
0.0
 10
20.381689
 20
85.261483
 30
0.0
 10
24.466675
 20
90.745357
 30
0.0
 10
29.007005
 20
90.300589
 30
0.0
 10
29.032784
 20
87.821625
 30
0.0
 10
28.777378
 20
83.853882
 30
0.0
 10
27.603600
 20
75.474753
 30
0.0
 10
26.374831
 20
64.632267
 30
0.0
 10
25.945722
 20
57.950874
 30
0.0
 10
25.908095
 20
49.804736
 30
0.0
 10
26.998487
 20
44.310000
 30
0.0
 10
29.106351
 20
37.525566
 30
0.0
 10
36.143010
 20
32.055101
 30
0.0
 10
44.954503
 20
32.750040
 30
0.0
 10
50.918069
 20
36.290340
 30
0.0
 10
56.224208
 20
42.557950
 30
0.0
 10
58.499655
 20
45.499165
 30
0.0
 10
59.251870
 20
46.955928
 30
0.0
 10
55.973260
 20
53.736160
 30
0.0
 10
50.787337
 20
64.201247
 30
0.0
 10
48.566329
 20
69.444995
 30
0.0
 10
46.262667
 20
76.159492
 30
0.0
 10
44.167782
 20
82.702829
 30
0.0
 10
42.215900
 20
91.046300
 30
0.0
 10
41.267245
 20
95.467088
 30
0.0
 10
40.278878
 20
100.612507
 30
0.0
 10
39.939331
 20
104.355152
 30
0.0
 10
39.602338
 20
108.443090
 30
0.0
 10
39.225633
 20
111.441037
 30
0.0
 10
39.403412
 20
115.563321
 30
0.0
 10
39.907906
 20
119.749860
 30
0.0
 10
40.397540
 20
125.546230
 30
0.0
 10
41.018303
 20
131.183404
 30
0.0
 10
42.596486
 20
138.152254
 30
0.0
 10
45.712846
 20
142.709374
 30
0.0
 10
50.950401
 20
146.015639
 30
0.0
 10
56.133467
 20
147.556038
 30
0.0
 10
61.794642
 20
145.730783
 30
0.0
  0
LWPOLYLINE
  5
109
100
AcDbEntity
  8
L2
 62
7
100
AcDbPolyline
 90
17
 70
0
 10
55.767605
 20
135.642607
 30
0.0
 10
48.906038
 20
135.348657
 30
0.0
 10
46.906010
 20
130.080804
 30
0.0
 10
47.993547
 20
120.414748
 30
0.0
 10
50.970412
 20
111.065812
 30
0.0
 10
54.143959
 20
102.002056
 30
0.0
 10
58.377328
 20
93.629668
 30
0.0
 10
61.874998
 20
87.676914
 30
0.0
 10
66.144596
 20
80.124446
 30
0.0
 10
68.227440
 20
77.930797
 30
0.0
 10
68.545239
 20
83.657937
 30
0.0
 10
67.901499
 20
92.539469
 30
0.0
 10
66.859301
 20
103.911350
 30
0.0
 10
66.737030
 20
109.757090
 30
0.0
 10
65.531939
 20
117.163078
 30
0.0
 10
63.016497
 20
126.336238
 30
0.0
 10
55.767605
 20
135.642607
 30
0.0
  0
ENDSEC
  0
SECTION
  2
OBJECTS
  0
DICTIONARY
  5
C
330
0
100
AcDbDictionary
  3
ACAD_GROUP
350
D
  3
ACAD_MLINESTYLE
350
17
  0
DICTIONARY
  5
D
330
C
100
AcDbDictionary
  0
DICTIONARY
  5
1A
330
C
100
AcDbDictionary
  0
DICTIONARY
  5
17
330
C
100
AcDbDictionary
  3
STANDARD
350
18
  0
DICTIONARY
  5
19
330
C
100
AcDbDictionary
  0
ENDSEC
  0
EOF
