<?xml version="1.0" encoding="UTF-8" standalone="no"?>
<!-- Created with Inkscape (http://www.inkscape.org/) -->

<svg
   xmlns:dc="http://purl.org/dc/elements/1.1/"
   xmlns:cc="http://creativecommons.org/ns#"
   xmlns:rdf="http://www.w3.org/1999/02/22-rdf-syntax-ns#"
   xmlns:svg="http://www.w3.org/2000/svg"
   xmlns="http://www.w3.org/2000/svg"
   xmlns:sodipodi="http://sodipodi.sourceforge.net/DTD/sodipodi-0.dtd"
   xmlns:inkscape="http://www.inkscape.org/namespaces/inkscape"
   width="301.18109"
   height="602.36218"
   id="svg2"
   version="1.1"
   inkscape:version="0.48.4 r9939"
   sodipodi:docname="Letters.svg">
  <defs
     id="defs4" />
  <sodipodi:namedview
     id="base"
     pagecolor="#ffffff"
     bordercolor="#666666"
     borderopacity="1.0"
     inkscape:pageopacity="0.0"
     inkscape:pageshadow="2"
     inkscape:zoom="0.82203418"
     inkscape:cx="368.68092"
     inkscape:cy="287.92817"
     inkscape:document-units="mm"
     inkscape:current-layer="layer7"
     showgrid="false"
     showguides="true"
     inkscape:guide-bbox="true"
     units="mm"
     inkscape:window-width="1205"
     inkscape:window-height="697"
     inkscape:window-x="67"
     inkscape:window-y="-8"
     inkscape:window-maximized="1" />
  <metadata
     id="metadata7">
    <rdf:RDF>
      <cc:Work
         rdf:about="">
        <dc:format>image/svg+xml</dc:format>
        <dc:type
           rdf:resource="http://purl.org/dc/dcmitype/StillImage" />
        <dc:title />
      </cc:Work>
    </rdf:RDF>
  </metadata>
  <g
     inkscape:label="Scratch"
     inkscape:groupmode="layer"
     id="layer1"
     transform="translate(0,-449.99999)"
     style="display:none">
    <text
       xml:space="preserve"
       style="font-size:40px;font-style:normal;font-weight:normal;line-height:125%;letter-spacing:0px;word-spacing:0px;fill:#000000;fill-opacity:1;stroke:none;font-family:Sans"
       x="243.94502"
       y="97.0709"
       id="text2985"
       sodipodi:linespacing="125%"><tspan
         sodipodi:role="line"
         id="tspan2987"
         x="243.94502"
         y="97.0709"
         style="font-size:88px;font-style:normal;font-variant:normal;font-weight:normal;font-stretch:normal;font-family:ANGEL TEARS;-inkscape-font-specification:ANGEL TEARS">Freedom</tspan></text>
    <text
       xml:space="preserve"
       style="font-size:40px;font-style:normal;font-weight:normal;line-height:125%;letter-spacing:0px;word-spacing:0px;fill:#000000;fill-opacity:1;stroke:none;font-family:Sans"
       x="251.40468"
       y="171.95285"
       id="text3046"
       sodipodi:linespacing="125%"><tspan
         sodipodi:role="line"
         id="tspan3048"
         x="251.40468"
         y="171.95285"
         style="font-size:88px;font-style:normal;font-variant:normal;font-weight:normal;font-stretch:normal;font-family:ANGEL TEARS;-inkscape-font-specification:ANGEL TEARS">Beauty</tspan></text>
    <text
       xml:space="preserve"
       style="font-size:40px;font-style:normal;font-weight:normal;line-height:125%;letter-spacing:0px;word-spacing:0px;fill:#000000;fill-opacity:1;stroke:none;font-family:Sans"
       x="267.17908"
       y="253.78262"
       id="text3050"
       sodipodi:linespacing="125%"><tspan
         sodipodi:role="line"
         id="tspan3052"
         x="267.17908"
         y="253.78262"
         style="font-size:88px;font-style:normal;font-variant:normal;font-weight:normal;font-stretch:normal;font-family:ANGEL TEARS;-inkscape-font-specification:ANGEL TEARS">Truth</tspan></text>
    <text
       xml:space="preserve"
       style="font-size:40px;font-style:normal;font-weight:normal;line-height:125%;letter-spacing:0px;word-spacing:0px;fill:#000000;fill-opacity:1;stroke:none;font-family:Sans"
       x="87.745155"
       y="369.133"
       id="text3054"
       sodipodi:linespacing="125%"><tspan
         sodipodi:role="line"
         id="tspan3056"
         x="87.745155"
         y="369.133"
         style="font-size:88px;font-style:normal;font-variant:normal;font-weight:normal;font-stretch:normal;font-family:ANGEL TEARS;-inkscape-font-specification:ANGEL TEARS">Love</tspan></text>
    <flowRoot
       xml:space="preserve"
       id="flowRoot3088"
       style="font-size:40px;font-style:normal;font-weight:normal;line-height:125%;letter-spacing:0px;word-spacing:0px;fill:#000000;fill-opacity:1;stroke:none;font-family:Sans"><flowRegion
         id="flowRegion3090"><rect
           id="rect3092"
           width="239.57387"
           height="90.702866"
           x="-91.688766"
           y="234.06461" /></flowRegion><flowPara
         id="flowPara3094" /></flowRoot>    <text
       xml:space="preserve"
       style="font-size:40px;font-style:normal;font-weight:normal;line-height:125%;letter-spacing:0px;word-spacing:0px;fill:#000000;fill-opacity:1;stroke:none;font-family:Sans"
       x="392.04205"
       y="1143.1531"
       id="text3054-2"
       sodipodi:linespacing="125%"><tspan
         sodipodi:role="line"
         id="tspan3056-82"
         x="392.04205"
         y="1143.1531"
         style="font-size:1100px;font-style:normal;font-variant:normal;font-weight:normal;font-stretch:normal;font-family:ANGEL TEARS;-inkscape-font-specification:ANGEL TEARS">v</tspan></text>
  </g>
  <g
     inkscape:groupmode="layer"
     id="layer5"
     inkscape:label="E"
     style="display:none">
    <g
       transform="scale(0.99999672,1.0000033)"
       style="font-size:39.9998703px;font-style:normal;font-weight:normal;line-height:125%;letter-spacing:0px;word-spacing:0px;fill:#000000;fill-opacity:1;stroke:none;font-family:Sans"
       id="text3054-2-10">
      <path
         style="font-size:1099.99645996px;font-variant:normal;font-stretch:normal;font-family:ANGEL TEARS;-inkscape-font-specification:ANGEL TEARS"
         d="m 225.51807,494.56941 -3.27694,4.66035 -2.54113,4.97351 -3.03865,5.04039 -4.76953,4.861 -11.32574,11.45399 -11.6753,10.75043 -11.46926,10.13425 -10.70765,9.60541 -6.61103,6.12179 -7.24061,6.16164 -9.22863,6.50997 -7.80718,4.70257 -6.86475,3.14009 -11.96157,4.96356 -13.04927,4.72239 -12.511849,3.64871 -8.517158,2.30197 -8.719103,1.84531 -8.842522,1.16618 -8.88741,0.26452 -9.514286,-1.06906 -8.702206,-3.72782 -8.486404,-4.5149 -8.866885,-3.43031 L 12.649981,578.7662 7.1253321,566.96797 3.5839848,554.23848 1.2808629,541.35555 2.2469851,529.37824 4.2176336,517.4963 l 2.8310472,-11.72748 3.5473182,-11.51395 4.808403,-8.23738 4.470907,-8.409 4.080983,-8.59448 3.638631,-8.79384 5.906647,-8.67779 6.84593,-7.97558 6.883673,-7.94948 6.019882,-8.59946 6.359449,-6.12454 6.40741,-6.0836 6.575684,-5.94863 6.864271,-5.71964 7.574596,-5.15184 8.130242,-4.16343 8.487793,-3.40607 8.64723,-2.87979 15.03635,-4.74639 15.65934,-1.26009 15.8814,0.76475 15.70255,1.3281 6.7942,2.60564 6.48122,3.46377 6.01973,4.19712 5.4097,4.8057 2.17016,3.60805 2.14937,3.62355 2.151,3.62403 2.17505,3.60948 -2.24535,7.7829 -1.66746,7.95629 -2.17401,7.77067 -3.76501,7.22602 -3.80708,6.08229 -4.60531,5.47612 -5.0864,5.09502 -5.25036,4.93897 -20.29745,15.27863 -21.67466,13.9366 -22.09122,12.03238 -14.75097,6.92424 -6.371606,2.53861 -8.58876,3.70452 -7.759672,3.95673 -7.282438,4.61614 -6.369189,5.32399 -3.080574,6.70744 -0.861011,9.31451 0.289497,13.14518 3.807517,6.26332 4.453047,5.77773 5.487989,4.38362 6.912341,2.08096 19.624189,-4.14833 18.13707,-6.40789 16.68017,-8.40233 15.25352,-10.13165 12.60045,-9.51004 12.34354,-10.07036 11.65012,-10.43708 10.52019,-10.6102 5.30746,-6.04928 5.61201,-5.76019 6.27224,-4.43995 7.28818,-2.08856 1.62894,-0.40485 1.02463,-0.48037 0.46766,0.24933 -0.042,1.78425 z m -119.90928,98.99565 z m -28.600981,7.68735 z m 110.006361,-195.8093 -16.56928,-0.94412 -16.40791,6.31573 -14.38593,10.06375 -10.50338,10.29992 -13.19342,15.26104 -6.90601,7.31152 -6.1741,8.03011 -9.831033,13.45609 -9.188505,12.74163 -7.407085,12.90023 -6.258572,12.61801 4.80405,2.2458 10.16933,-6.13612 14.327379,-6.26686 13.927916,-7.45859 14.25155,-7.96236 13.07524,-9.663 13.12102,-10.41748 12.4847,-11.19497 11.19403,-12.07526 7.61284,-14.7683 3.32906,-11.91487 z"
         id="path3273"
         inkscape:connector-curvature="0"
         sodipodi:nodetypes="cccccccccccccccccccccccccccccccccccccccccccccccccccccccccccccccccccccccccccccccccccccccccccccccccccccccccccccccccccccccccccccccccc" />
    </g>
  </g>
  <g
     inkscape:groupmode="layer"
     id="layer4"
     inkscape:label="V"
     style="display:none">
    <g
       style="font-size:40px;font-style:normal;font-weight:normal;line-height:125%;letter-spacing:0px;word-spacing:0px;fill:#000000;fill-opacity:1;stroke:none;font-family:Sans"
       id="text3054-2-1">
      <path
         style="font-size:1100px;font-variant:normal;font-stretch:normal;fill:#000000;font-family:ANGEL TEARS;-inkscape-font-specification:ANGEL TEARS"
         d="m 292.59033,364.75842 -0.13516,6.36157 -0.64995,6.13657 -2.36136,6.85732 -2.95947,5.38686 -2.51866,4.80096 -3.86713,8.47454 -4.01352,9.13742 -4.11276,8.35812 -5.34877,7.91689 -5.28354,7.43262 -4.89684,7.22704 -4.18863,7.30014 -3.38843,5.19993 -3.7404,4.90233 -3.75136,4.90737 -3.42133,5.21506 -5.94294,7.476 -5.90643,8.17369 -4.02585,8.70578 -0.30119,9.07228 2.30072,2.04296 2.21211,1.69726 1.99063,1.64032 1.63631,1.87214 6.98036,2.64905 7.17241,2.05983 7.2581,0.4529 7.23742,-2.17174 5.96318,-2.00937 4.31644,0.71956 1.36363,3.36963 -2.8953,5.94088 -5.4055,7.76858 -7.65074,4.8557 -8.9556,2.5171 -9.32005,0.75277 -11.67033,-0.17368 -11.81037,-1.30995 -10.87226,-3.78842 -8.856,-7.60911 -6.1729,3.01779 -6.10218,6.71428 -6.35538,7.69138 -6.93245,5.94906 -6.52971,4.90063 -6.52041,5.32246 -6.63292,5.41209 -6.86723,5.16949 -11.18756,6.78598 -11.35187,6.54353 -11.30292,6.61641 -11.040674,7.00463 -11.948821,3.40171 -12.22355,1.90072 -12.371343,0.51431 -12.392202,-0.75755 -7.634869,0.10974 -7.506653,-1.25937 -7.45436,-1.59808 -7.477989,-0.90644 -5.549253,-5.26342 -4.852754,-6.05958 -3.6355998,-7.34584 -1.6203841,-5.82261 -0.54619464,-2.46313 -0.63307219,-3.50244 0.66679847,-6.21456 1.62025646,-6.98331 3.1969683,-8.92614 6.1899495,-15.84418 7.81065,-17.41698 5.898135,-11.54749 3.23951,-6.19703 4.778238,-10.29461 4.845163,-11.96406 3.351051,-8.97944 1.877087,-6.18298 2.683192,-10.27992 2.007783,-10.58139 0.635017,-9.38283 -0.848088,-4.12416 -3.569215,-2.38418 -3.916637,-2.11525 -1.890352,-3.31737 2.998201,-7.11066 7.478331,-3.66444 9.169613,-1.77849 8.072045,-1.45278 17.044948,-1.69181 17.069064,-1.52496 17.045,-1.6794 16.97275,-2.15515 5.51265,-0.19063 5.11629,-0.57684 5.19359,-0.0567 5.74455,1.36989 3.38136,7.08185 -3.36513,8.55535 -5.88858,8.96933 -4.18902,8.32382 -15.18393,26.48179 -14.30444,27.14234 -11.36043,28.26434 -6.351851,29.8478 0.408286,7.58015 3.016315,5.16933 7.48761,1.68518 8.11064,-1.08565 5.36447,-1.91327 7.35188,-3.15594 7.79908,-4.56613 6.10982,-4.26358 5.14257,-3.86362 8.81868,-6.74538 9.05382,-7.55932 7.57403,-7.69225 5.6869,-7.78093 1.71597,-8.35915 0.003,-11.14625 0.0379,-9.85797 1.04293,-8.99558 2.29935,-15.50583 3.84873,-18.29199 3.62522,-13.63919 2.40711,-7.90524 4.0696,-12.05106 5.35636,-11.55677 7.42788,-9.85092 6.8217,-7.69606 6.87538,-7.46776 6.93126,-6.8093 6.98934,-5.7207 7.20716,-4.83509 8.70309,-2.50243 8.55314,-0.87785 6.75729,0.0386 7.26722,3.95858 6.14384,5.29385 4.77198,6.51976 z"
         id="path3269"
         inkscape:connector-curvature="0"
         sodipodi:nodetypes="ccccccccccccccccccccccccccccccccccccccccccccccccccccccccccccccccccccccccccccccccccccccccccccccccccccccccccccccccccccccccccccccccccccccccccccc" />
    </g>
  </g>
  <g
     inkscape:groupmode="layer"
     id="layer3"
     inkscape:label="O"
     style="display:none">
    <g
       style="font-size:40px;font-style:normal;font-weight:normal;line-height:125%;letter-spacing:0px;word-spacing:0px;fill:#000000;fill-opacity:1;stroke:none;font-family:Sans"
       id="text3054-5-20">
      <path
         style="font-size:1100px;font-variant:normal;font-stretch:normal;font-family:ANGEL TEARS;-inkscape-font-specification:ANGEL TEARS"
         d="m 170.49866,506.68958 -11.48354,-10.27904 -7.30307,-13.46675 -4.00532,-15.15544 -1.59031,-15.34512 1.88924,-10.09256 3.87855,-9.48581 4.62671,-9.25008 4.13369,-9.3854 -7.01255,2.80583 -7.76485,6.60152 -7.79348,8.06111 -7.09845,7.18462 -7.28443,8.08281 -7.65794,7.73046 -7.18322,8.08845 -5.86028,9.15675 -6.553559,10.22652 -5.945982,10.02313 -5.885741,11.096 -6.372837,13.4451 -5.54989,10.34589 -2.901775,11.31954 -0.833156,11.75996 0.655967,11.66714 7.207019,8.50417 10.310673,2.87423 11.440514,-1.09043 10.596537,-3.3898 16.01292,-8.44717 14.22305,-11.13184 13.01896,-12.68688 12.40066,-13.11228 4.37117,-3.71041 3.91358,-4.20031 1.19268,-4.40861 z m 114.40429,-17.62391 -12.92522,8.81809 -12.6764,9.39494 -13.38096,7.95513 -15.03887,4.49864 -11.19027,1.83152 -11.35147,0.7046 -11.31704,0.72152 -11.08695,1.88229 -8.04991,6.47874 -7.09312,7.58126 -7.11265,7.60399 -8.1085,6.54694 -9.12511,8.36947 -9.41111,8.0555 -9.95655,7.3017 -10.76141,6.10811 -11.25726,6.35633 -11.714686,5.79199 -12.218651,4.14913 -12.769151,1.42778 -14.472443,0.58886 -14.291751,-2.43983 -12.9974,-5.9502 -10.589392,-9.94226 -7.2671853,-9.35655 -4.4465872,-10.71527 -1.6635213,-11.52303 1.0820125,-11.77986 2.3601551,-10.45996 3.6645414,-10.12813 4.2226898,-9.97245 4.034601,-9.99292 4.899388,-10.06643 5.696383,-9.62024 6.02857,-9.42167 5.89595,-9.4707 9.356531,-10.23054 9.318776,-10.30246 9.648628,-9.96097 10.346093,-9.2061 8.069231,-5.57527 8.234173,-5.35012 8.431045,-5.07505 8.65985,-4.75009 11.91025,-4.9294 12.31773,-3.78359 12.49404,-3.24438 12.43918,-3.31182 10.49826,-1.21686 10.42093,-1.68938 10.39051,-1.87305 10.40703,-1.76786 11.0144,-1.41923 11.1844,-0.56734 10.91889,1.46402 10.21788,4.67484 7.83878,8.1222 2.86402,10.40608 -0.74247,11.27672 -2.9807,10.73409 -5.53956,15.37929 -8.16916,14.12272 -9.53854,13.39742 -9.64772,13.20334 -4.83824,7.46358 -6.28578,7.45183 -5.32398,7.2213 -1.95288,6.77202 14.273,-0.98161 14.51656,-3.19381 14.0388,-5.65904 8.94791,-5.19218 4.89156,-3.82124 7.85334,-5.475 7.88025,-4.11778 6.91816,-1.3421 -1.62953,5.12421 0.15242,3.13359 1.668,1.75963 z"
         id="path3263"
         inkscape:connector-curvature="0"
         sodipodi:nodetypes="cccccccccccccccccccccccccccccccccccccccccccccccccccccccccccccccccccccccccccccccccccccccccccccccccccccccccccccccccccccc" />
    </g>
  </g>
  <g
     inkscape:groupmode="layer"
     id="layer2"
     inkscape:label="L1"
     style="display:inline">
    <g
       transform="matrix(0.73492867,-0.67814442,0.67814442,0.73492867,0,0)"
       style="font-size:40px;font-style:normal;font-weight:normal;line-height:125%;letter-spacing:0px;word-spacing:0px;fill:#000000;fill-opacity:1;stroke:none;font-family:Sans"
       id="text3054-5-2">
      <path
         style="font-size:1100px;font-variant:normal;font-stretch:normal;font-family:ANGEL TEARS;-inkscape-font-specification:ANGEL TEARS"
         d="m -147.20517,220.25337 -0.41837,12.28002 -1.85539,19.88587 -1.03464,29.06354 -0.21893,31.42492 -0.92271,29.34295 0.6738,28.88008 -0.74892,22.68987 -1.183,22.58772 -1.2351,18.62121 -5.80102,15.87321 21.32611,-18.64527 19.64831,-19.81489 11.32424,-6.60887 8.823447,-5.57777 20.844447,-8.8206 20.656663,-9.37206 19.561205,-5.29907 19.426485,-5.89293 11.2374302,-4.50223 11.8536901,-5.30744 14.3945397,-6.98469 14.23413,-9.5311 17.819661,-15.13871 13.652249,-18.98166 6.585385,-30.53713 -13.297865,-27.72365 -17.309205,-6.71124 -18.748935,-1.16766 -24.8982149,22.80373 -16.6199551,28.72262 4.754066,-24.66608 5.5618543,-25.16328 12.5509237,-26.2083 22.899896,-20.49451 22.164588,-0.71676 20.164772,9.88745 16.464311,22.91709 8.427514,28.484 0.775722,31.93513 -10.523191,23.31586 -10.354239,15.58845 -12.301197,16.39488 -12.012431,11.36809 -12.000709,10.46769 -9.022822,7.30675 -12.682078,8.92919 -27.447467,18.71334 -23.831823,16.15903 -25.445952,12.67508 -23.288098,12.82816 -17.151997,9.40224 -20.40433,14.89118 -20.81201,14.90106 -19.1525,16.45366 -19.45259,24.1308 -17.09478,27.91722 -9.02899,15.25075 -0.80863,-4.13281 -8.28654,10.8871 -3.97403,-3.44326 1.62681,-15.35026 1.88332,-15.60895 -0.28998,-39.93759 -0.84607,-40.03931 -0.24177,-37.35447 -0.0641,-37.3781 -2.05715,-22.94367 -1.39709,-23.34859 -6.39346,-24.98437 -1.95041,-16.04637 41.63655,-39.27314 z"
         id="path3009"
         inkscape:connector-curvature="0"
         sodipodi:nodetypes="ccccccccccccccccccccccccccccccccccccccccccccccccccccccccccccccccccccccccc" />
    </g>
  </g>
  <g
     inkscape:groupmode="layer"
     id="layer7"
     inkscape:label="L2"
     style="display:inline">
    <g
       transform="matrix(0.42478297,-0.90529522,0.90529522,0.42478297,-40.969359,179.36187)"
       style="font-size:40px;font-style:normal;font-weight:normal;line-height:125%;letter-spacing:0px;word-spacing:0px;fill:#000000;fill-opacity:1;stroke:none;display:inline;font-family:Sans"
       id="text3054-5-2-6">
      <path
         style="font-size:1100px;font-variant:normal;font-stretch:normal;font-family:ANGEL TEARS;-inkscape-font-specification:ANGEL TEARS"
         d="m 194.93861,195.64905 -8.57804,14.90268 -11.91228,14.11531 -19.27321,16.3821 -21.6083,14.79893 -23.75712,16.2146 -25.985548,13.78718 -20.256878,9.13984 -19.354938,12.84808 -40.8934919,16.98925 -25.3704051,8.80268 -56.72885,7.60333 -56.728849,7.60333 -20.77723,-8.22442 -32.04877,-11.89404 -15.3506,-8.97307 -11.69348,-13.01485 -10.43359,-22.30795 1.63842,-21.70145 10.17155,-19.7024 11.80954,-12.1953 23.36444,-16.46979 25.33464,-15.97618 12.90923,-8.071 16.11778,-9.18578 10.63226,-6.06343 16.231564,-7.47133 13.599575,-4.96877 22.640705,-8.79494 23.739298,4.84959 5.407116,15.23363 -7.913067,3.81387 -13.111906,5.15272 -28.644755,8.84656 -36.62933,12.37785 -22.07803,8.67994 -26.18732,12.14035 -15.98449,11.76802 -18.59007,16.97298 -6.95669,30.80556 15.49168,27.21899 20.33234,13.80093 28.09132,7.5871 12.85951,2.87211 5.8051,0.22028 16.81446,-20.7221 25.763744,-32.38647 13.477656,-15.01697 18.071029,-17.49578 17.836226,-16.56846 23.8258304,-18.81919 12.7528779,-9.69693 15.0175337,-10.91498 11.494364,-6.72237 12.605818,-7.23389 9.049638,-5.72069 13.490791,-5.63433 14.188658,-4.68303 19.330205,-7.15371 19.016919,-6.49347 24.72963,-5.42667 19.3086,3.13738 18.48887,11.82433 12.74242,14.30741 z m -41.43175,-4.14908 -11.27051,-21.56768 -19.90821,1.51327 -29.369293,18.03727 -25.508357,23.62043 -24.297542,23.8221 -20.484637,26.18113 -13.8304127,20.17932 -17.8000153,25.06325 -3.901689,9.98296 18.849498,-7.60071 27.520721,-15.43287 34.909374,-20.45933 18.567573,-9.19085 21.94265,-15.01264 25.63902,-21.87574 z"
         id="path3009-8"
         inkscape:connector-curvature="0"
         sodipodi:nodetypes="cccccccccccccccccccccccccccccccccccccccccccccccccccccccccccccccccccccccccccccccccc" />
    </g>
  </g>
</svg>
