solid OpenSCAD_Model
  facet normal -0.989717 -0.14304 0
    outer loop
      vertex 1.212 11.157 0
      vertex 1.212 11.157 10
      vertex 0.742 14.409 0
    endloop
  endfacet
  facet normal -0.989717 -0.14304 0
    outer loop
      vertex 0.742 14.409 0
      vertex 1.212 11.157 10
      vertex 0.742 14.409 10
    endloop
  endfacet
  facet normal 0 0 -1
    outer loop
      vertex 1.047 17.734 0
      vertex 1.714 20.686 0
      vertex 0.742 14.409 0
    endloop
  endfacet
  facet normal 0 0 -1
    outer loop
      vertex 0.742 14.409 0
      vertex 1.714 20.686 0
      vertex 2.748 23.544 0
    endloop
  endfacet
  facet normal 0 0 -1
    outer loop
      vertex 0.742 14.409 0
      vertex 2.748 23.544 0
      vertex 3.939 26.359 0
    endloop
  endfacet
  facet normal 0 0 -1
    outer loop
      vertex 0.742 14.409 0
      vertex 3.939 26.359 0
      vertex 5.078 29.179 0
    endloop
  endfacet
  facet normal 0 0 -1
    outer loop
      vertex 0.742 14.409 0
      vertex 5.078 29.179 0
      vertex 6.461 32.02 0
    endloop
  endfacet
  facet normal 0 0 -1
    outer loop
      vertex 0.742 14.409 0
      vertex 6.461 32.02 0
      vertex 8.068 34.735 0
    endloop
  endfacet
  facet normal 0 0 -1
    outer loop
      vertex 0.742 14.409 0
      vertex 8.068 34.735 0
      vertex 9.77 37.394 0
    endloop
  endfacet
  facet normal 0 0 -1
    outer loop
      vertex 0.742 14.409 0
      vertex 9.77 37.394 0
      vertex 11.434 40.067 0
    endloop
  endfacet
  facet normal 0 0 -1
    outer loop
      vertex 0.742 14.409 0
      vertex 11.434 40.067 0
      vertex 14.074 42.954 0
    endloop
  endfacet
  facet normal 0 0 -1
    outer loop
      vertex 0.742 14.409 0
      vertex 14.074 42.954 0
      vertex 16.704 45.862 0
    endloop
  endfacet
  facet normal 0 0 -1
    outer loop
      vertex 0.742 14.409 0
      vertex 16.704 45.862 0
      vertex 19.428 48.673 0
    endloop
  endfacet
  facet normal 0 0 -1
    outer loop
      vertex 0.742 14.409 0
      vertex 19.428 48.673 0
      vertex 22.347 51.271 0
    endloop
  endfacet
  facet normal 0 0 -1
    outer loop
      vertex 0.742 14.409 0
      vertex 22.347 51.271 0
      vertex 24.625 52.845 0
    endloop
  endfacet
  facet normal 0 0 -1
    outer loop
      vertex 0.742 14.409 0
      vertex 24.625 52.845 0
      vertex 26.949 54.355 0
    endloop
  endfacet
  facet normal 0 0 -1
    outer loop
      vertex 0.742 14.409 0
      vertex 26.949 54.355 0
      vertex 29.328 55.787 0
    endloop
  endfacet
  facet normal 0 0 -1
    outer loop
      vertex 0.742 14.409 0
      vertex 29.328 55.787 0
      vertex 31.772 57.127 0
    endloop
  endfacet
  facet normal 0 0 -1
    outer loop
      vertex 0.742 14.409 0
      vertex 31.772 57.127 0
      vertex 35.133 58.519 0
    endloop
  endfacet
  facet normal 0 0 -1
    outer loop
      vertex 0.742 14.409 0
      vertex 35.133 58.519 0
      vertex 38.61 59.586 0
    endloop
  endfacet
  facet normal 0 0 -1
    outer loop
      vertex 0.742 14.409 0
      vertex 38.61 59.586 0
      vertex 42.136 60.502 0
    endloop
  endfacet
  facet normal 0 0 -1
    outer loop
      vertex 0.742 14.409 0
      vertex 42.136 60.502 0
      vertex 45.646 61.437 0
    endloop
  endfacet
  facet normal 0 0 -1
    outer loop
      vertex 0.742 14.409 0
      vertex 45.646 61.437 0
      vertex 48.609 61.78 0
    endloop
  endfacet
  facet normal 0 0 -1
    outer loop
      vertex 0.742 14.409 0
      vertex 48.609 61.78 0
      vertex 51.55 62.257 0
    endloop
  endfacet
  facet normal 0 0 -1
    outer loop
      vertex 51.55 62.257 0
      vertex 54.483 62.786 0
      vertex 0.742 14.409 0
    endloop
  endfacet
  facet normal 0 0 -1
    outer loop
      vertex 45.337 53.095 0
      vertex 54.483 62.786 0
      vertex 57.42 63.285 0
    endloop
  endfacet
  facet normal 0 0 -1
    outer loop
      vertex 44.171 50.446 0
      vertex 57.42 63.285 0
      vertex 60.528 63.685 0
    endloop
  endfacet
  facet normal 0 0 -1
    outer loop
      vertex 42.865 47.836 0
      vertex 60.528 63.685 0
      vertex 63.685 63.845 0
    endloop
  endfacet
  facet normal 0 0 -1
    outer loop
      vertex 41.77 45.159 0
      vertex 63.685 63.845 0
      vertex 66.766 63.432 0
    endloop
  endfacet
  facet normal 0 0 -1
    outer loop
      vertex 41.237 42.31 0
      vertex 69.65 62.113 0
      vertex 71.862 59.82 0
    endloop
  endfacet
  facet normal 0 0 -1
    outer loop
      vertex 41.686 37.98 0
      vertex 72.671 56.884 0
      vertex 72.461 53.701 0
    endloop
  endfacet
  facet normal 0 0 -1
    outer loop
      vertex 41.237 42.31 0
      vertex 72.671 56.884 0
      vertex 41.686 37.98 0
    endloop
  endfacet
  facet normal 0 0 -1
    outer loop
      vertex 23.877 27.961 0
      vertex 0.742 14.409 0
      vertex 25.538 31.093 0
    endloop
  endfacet
  facet normal 0 0 -1
    outer loop
      vertex 42.817 33.703 0
      vertex 70.056 46.331 0
      vertex 67.751 42.345 0
    endloop
  endfacet
  facet normal 0 0 -1
    outer loop
      vertex 41.686 37.98 0
      vertex 70.056 46.331 0
      vertex 42.817 33.703 0
    endloop
  endfacet
  facet normal 0 0 -1
    outer loop
      vertex 44.878 29.902 0
      vertex 65.059 38.564 0
      vertex 62.336 34.838 0
    endloop
  endfacet
  facet normal 0 0 -1
    outer loop
      vertex 48.119 27.001 0
      vertex 59.197 30.629 0
      vertex 57.694 28.591 0
    endloop
  endfacet
  facet normal 0 0 -1
    outer loop
      vertex 48.119 27.001 0
      vertex 57.694 28.591 0
      vertex 49.189 25.777 0
    endloop
  endfacet
  facet normal 0 0 -1
    outer loop
      vertex 49.189 25.777 0
      vertex 57.143 26.679 0
      vertex 48.852 24.533 0
    endloop
  endfacet
  facet normal 0 0 -1
    outer loop
      vertex 71.755 30.92 0
      vertex 73.136 31.999 0
      vertex 75.352 33.544 0
    endloop
  endfacet
  facet normal 0 0 -1
    outer loop
      vertex 71.755 30.92 0
      vertex 75.352 33.544 0
      vertex 77.576 34.706 0
    endloop
  endfacet
  facet normal 0 0 -1
    outer loop
      vertex 71.755 30.92 0
      vertex 77.576 34.706 0
      vertex 79.529 35.085 0
    endloop
  endfacet
  facet normal 0 0 -1
    outer loop
      vertex 71.755 30.92 0
      vertex 79.529 35.085 0
      vertex 69.23 29.455 0
    endloop
  endfacet
  facet normal 0 0 -1
    outer loop
      vertex 69.23 29.455 0
      vertex 79.529 35.085 0
      vertex 79.069 33.639 0
    endloop
  endfacet
  facet normal 0 0 -1
    outer loop
      vertex 69.23 29.455 0
      vertex 79.069 33.639 0
      vertex 79.112 32.754 0
    endloop
  endfacet
  facet normal 0 0 -1
    outer loop
      vertex 69.23 29.455 0
      vertex 79.112 32.754 0
      vertex 65.268 27.858 0
    endloop
  endfacet
  facet normal 0 0 -1
    outer loop
      vertex 79.112 32.754 0
      vertex 79.583 32.258 0
      vertex 65.268 27.858 0
    endloop
  endfacet
  facet normal 0 0 -1
    outer loop
      vertex 79.583 32.258 0
      vertex 80.406 31.975 0
      vertex 65.268 27.858 0
    endloop
  endfacet
  facet normal 0 0 -1
    outer loop
      vertex 65.268 27.858 0
      vertex 80.406 31.975 0
      vertex 76.758 29.486 0
    endloop
  endfacet
  facet normal 0 0 -1
    outer loop
      vertex 65.268 27.858 0
      vertex 76.758 29.486 0
      vertex 61.171 26.956 0
    endloop
  endfacet
  facet normal 0 0 -1
    outer loop
      vertex 46.514 22.301 0
      vertex 76.758 29.486 0
      vertex 73.181 26.835 0
    endloop
  endfacet
  facet normal 0 0 -1
    outer loop
      vertex 58.798 22.604 0
      vertex 69.404 24.59 0
      vertex 65.16 23.32 0
    endloop
  endfacet
  facet normal 0 0 -1
    outer loop
      vertex 55.604 22.401 0
      vertex 69.404 24.59 0
      vertex 58.798 22.604 0
    endloop
  endfacet
  facet normal 0 0 -1
    outer loop
      vertex 39.34 15.02 0
      vertex 41.33 11.546 0
      vertex 35.326 11.878 0
    endloop
  endfacet
  facet normal 0 0 -1
    outer loop
      vertex 46.514 22.301 0
      vertex 73.181 26.835 0
      vertex 69.404 24.59 0
    endloop
  endfacet
  facet normal 0 0 -1
    outer loop
      vertex 19.458 14.733 0
      vertex 0.742 14.409 0
      vertex 19.693 18.052 0
    endloop
  endfacet
  facet normal 0 0 -1
    outer loop
      vertex 43.014 18.6 0
      vertex 46.194 15.755 0
      vertex 39.34 15.02 0
    endloop
  endfacet
  facet normal 0 0 -1
    outer loop
      vertex 39.34 15.02 0
      vertex 46.194 15.755 0
      vertex 43.906 13.908 0
    endloop
  endfacet
  facet normal 0 0 -1
    outer loop
      vertex 35.326 11.878 0
      vertex 41.33 11.546 0
      vertex 38.674 9.272 0
    endloop
  endfacet
  facet normal 0 0 -1
    outer loop
      vertex 30.807 9.494 0
      vertex 38.674 9.272 0
      vertex 35.864 7.211 0
    endloop
  endfacet
  facet normal 0 0 -1
    outer loop
      vertex 24.587 8.229 0
      vertex 35.864 7.211 0
      vertex 32.827 5.488 0
    endloop
  endfacet
  facet normal 0 0 -1
    outer loop
      vertex 0.742 14.409 0
      vertex 32.827 5.488 0
      vertex 29.65 3.694 0
    endloop
  endfacet
  facet normal 0 0 -1
    outer loop
      vertex 0.742 14.409 0
      vertex 29.65 3.694 0
      vertex 26.344 2.059 0
    endloop
  endfacet
  facet normal 0 0 -1
    outer loop
      vertex 0.742 14.409 0
      vertex 26.344 2.059 0
      vertex 22.896 0.888 0
    endloop
  endfacet
  facet normal 0 0 -1
    outer loop
      vertex 0.742 14.409 0
      vertex 22.896 0.888 0
      vertex 19.292 0.485 0
    endloop
  endfacet
  facet normal 0 0 -1
    outer loop
      vertex 0.742 14.409 0
      vertex 19.292 0.485 0
      vertex 15.208 0.319 0
    endloop
  endfacet
  facet normal 0 0 -1
    outer loop
      vertex 0.742 14.409 0
      vertex 15.208 0.319 0
      vertex 11.174 1.007 0
    endloop
  endfacet
  facet normal 0 0 -1
    outer loop
      vertex 0.742 14.409 0
      vertex 11.174 1.007 0
      vertex 7.506 2.687 0
    endloop
  endfacet
  facet normal 0 0 -1
    outer loop
      vertex 0.742 14.409 0
      vertex 7.506 2.687 0
      vertex 4.517 5.493 0
    endloop
  endfacet
  facet normal 0 0 -1
    outer loop
      vertex 0.742 14.409 0
      vertex 4.517 5.493 0
      vertex 2.466 8.133 0
    endloop
  endfacet
  facet normal 0 0 -1
    outer loop
      vertex 0.742 14.409 0
      vertex 2.466 8.133 0
      vertex 1.212 11.157 0
    endloop
  endfacet
  facet normal 0 0 -1
    outer loop
      vertex 19.643 11.441 0
      vertex 0.742 14.409 0
      vertex 19.458 14.733 0
    endloop
  endfacet
  facet normal 0 0 -1
    outer loop
      vertex 21.677 9.041 0
      vertex 0.742 14.409 0
      vertex 19.643 11.441 0
    endloop
  endfacet
  facet normal 0 0 -1
    outer loop
      vertex 30.807 9.494 0
      vertex 35.864 7.211 0
      vertex 27.816 8.537 0
    endloop
  endfacet
  facet normal 0 0 -1
    outer loop
      vertex 0.742 14.409 0
      vertex 21.677 9.041 0
      vertex 32.827 5.488 0
    endloop
  endfacet
  facet normal 0 0 -1
    outer loop
      vertex 21.677 9.041 0
      vertex 24.587 8.229 0
      vertex 32.827 5.488 0
    endloop
  endfacet
  facet normal 0 0 -1
    outer loop
      vertex 27.816 8.537 0
      vertex 35.864 7.211 0
      vertex 24.587 8.229 0
    endloop
  endfacet
  facet normal 0 0 -1
    outer loop
      vertex 35.326 11.878 0
      vertex 38.674 9.272 0
      vertex 30.807 9.494 0
    endloop
  endfacet
  facet normal 0 0 -1
    outer loop
      vertex 46.514 22.301 0
      vertex 50.203 20.041 0
      vertex 43.014 18.6 0
    endloop
  endfacet
  facet normal 0 0 -1
    outer loop
      vertex 43.014 18.6 0
      vertex 48.202 17.901 0
      vertex 46.194 15.755 0
    endloop
  endfacet
  facet normal 0 0 -1
    outer loop
      vertex 50.203 20.041 0
      vertex 48.202 17.901 0
      vertex 43.014 18.6 0
    endloop
  endfacet
  facet normal 0 0 -1
    outer loop
      vertex 39.34 15.02 0
      vertex 43.906 13.908 0
      vertex 41.33 11.546 0
    endloop
  endfacet
  facet normal 0 0 -1
    outer loop
      vertex 47.747 23.348 0
      vertex 76.758 29.486 0
      vertex 46.514 22.301 0
    endloop
  endfacet
  facet normal 0 0 -1
    outer loop
      vertex 57.143 26.679 0
      vertex 61.171 26.956 0
      vertex 48.852 24.533 0
    endloop
  endfacet
  facet normal 0 0 -1
    outer loop
      vertex 57.694 28.591 0
      vertex 57.143 26.679 0
      vertex 49.189 25.777 0
    endloop
  endfacet
  facet normal 0 0 -1
    outer loop
      vertex 44.878 29.902 0
      vertex 60.971 32.732 0
      vertex 59.197 30.629 0
    endloop
  endfacet
  facet normal 0 0 -1
    outer loop
      vertex 44.878 29.902 0
      vertex 62.336 34.838 0
      vertex 60.971 32.732 0
    endloop
  endfacet
  facet normal 0 0 -1
    outer loop
      vertex 42.817 33.703 0
      vertex 67.751 42.345 0
      vertex 65.059 38.564 0
    endloop
  endfacet
  facet normal 0 0 -1
    outer loop
      vertex 41.686 37.98 0
      vertex 72.461 53.701 0
      vertex 71.62 50.672 0
    endloop
  endfacet
  facet normal 0 0 -1
    outer loop
      vertex 41.237 42.31 0
      vertex 71.862 59.82 0
      vertex 72.671 56.884 0
    endloop
  endfacet
  facet normal 0 0 -1
    outer loop
      vertex 41.77 45.159 0
      vertex 66.766 63.432 0
      vertex 69.65 62.113 0
    endloop
  endfacet
  facet normal 0 0 -1
    outer loop
      vertex 42.865 47.836 0
      vertex 63.685 63.845 0
      vertex 41.77 45.159 0
    endloop
  endfacet
  facet normal 0 0 -1
    outer loop
      vertex 29.066 36.808 0
      vertex 0.742 14.409 0
      vertex 30.72 39.392 0
    endloop
  endfacet
  facet normal 0 0 -1
    outer loop
      vertex 44.171 50.446 0
      vertex 60.528 63.685 0
      vertex 42.865 47.836 0
    endloop
  endfacet
  facet normal 0 0 -1
    outer loop
      vertex 45.337 53.095 0
      vertex 57.42 63.285 0
      vertex 44.171 50.446 0
    endloop
  endfacet
  facet normal 0 0 -1
    outer loop
      vertex 43.358 52.303 0
      vertex 54.483 62.786 0
      vertex 45.337 53.095 0
    endloop
  endfacet
  facet normal 0 0 -1
    outer loop
      vertex 38.967 48.165 0
      vertex 0.742 14.409 0
      vertex 41.167 50.44 0
    endloop
  endfacet
  facet normal 0 0 -1
    outer loop
      vertex 41.167 50.44 0
      vertex 54.483 62.786 0
      vertex 43.358 52.303 0
    endloop
  endfacet
  facet normal 0 0 -1
    outer loop
      vertex 0.742 14.409 0
      vertex 54.483 62.786 0
      vertex 41.167 50.44 0
    endloop
  endfacet
  facet normal 0 0 -1
    outer loop
      vertex 34.908 43.856 0
      vertex 0.742 14.409 0
      vertex 36.964 46.138 0
    endloop
  endfacet
  facet normal 0 0 -1
    outer loop
      vertex 0.742 14.409 0
      vertex 38.967 48.165 0
      vertex 36.964 46.138 0
    endloop
  endfacet
  facet normal 0 0 -1
    outer loop
      vertex 0.742 14.409 0
      vertex 34.908 43.856 0
      vertex 32.747 41.675 0
    endloop
  endfacet
  facet normal 0 0 -1
    outer loop
      vertex 0.742 14.409 0
      vertex 32.747 41.675 0
      vertex 30.72 39.392 0
    endloop
  endfacet
  facet normal 0 0 -1
    outer loop
      vertex 27.216 33.922 0
      vertex 0.742 14.409 0
      vertex 29.066 36.808 0
    endloop
  endfacet
  facet normal 0 0 -1
    outer loop
      vertex 22.079 24.167 0
      vertex 0.742 14.409 0
      vertex 23.877 27.961 0
    endloop
  endfacet
  facet normal 0 0 -1
    outer loop
      vertex 41.77 45.159 0
      vertex 69.65 62.113 0
      vertex 41.237 42.31 0
    endloop
  endfacet
  facet normal 0 0 -1
    outer loop
      vertex 25.538 31.093 0
      vertex 0.742 14.409 0
      vertex 27.216 33.922 0
    endloop
  endfacet
  facet normal 0 0 -1
    outer loop
      vertex 20.512 21.247 0
      vertex 0.742 14.409 0
      vertex 22.079 24.167 0
    endloop
  endfacet
  facet normal 0 0 -1
    outer loop
      vertex 41.686 37.98 0
      vertex 71.62 50.672 0
      vertex 70.056 46.331 0
    endloop
  endfacet
  facet normal 0 0 -1
    outer loop
      vertex 19.693 18.052 0
      vertex 0.742 14.409 0
      vertex 20.512 21.247 0
    endloop
  endfacet
  facet normal 0 0 -1
    outer loop
      vertex 42.817 33.703 0
      vertex 65.059 38.564 0
      vertex 44.878 29.902 0
    endloop
  endfacet
  facet normal 0 0 -1
    outer loop
      vertex 44.878 29.902 0
      vertex 59.197 30.629 0
      vertex 48.119 27.001 0
    endloop
  endfacet
  facet normal 0 0 -1
    outer loop
      vertex 58.798 22.604 0
      vertex 65.16 23.32 0
      vertex 62.002 22.803 0
    endloop
  endfacet
  facet normal 0 0 -1
    outer loop
      vertex 48.852 24.533 0
      vertex 61.171 26.956 0
      vertex 76.758 29.486 0
    endloop
  endfacet
  facet normal 0 0 -1
    outer loop
      vertex 48.852 24.533 0
      vertex 76.758 29.486 0
      vertex 47.747 23.348 0
    endloop
  endfacet
  facet normal 0 0 -1
    outer loop
      vertex 46.514 22.301 0
      vertex 69.404 24.59 0
      vertex 55.604 22.401 0
    endloop
  endfacet
  facet normal 0 0 -1
    outer loop
      vertex 46.514 22.301 0
      vertex 55.604 22.401 0
      vertex 52.475 21.869 0
    endloop
  endfacet
  facet normal 0 0 -1
    outer loop
      vertex 46.514 22.301 0
      vertex 52.475 21.869 0
      vertex 50.203 20.041 0
    endloop
  endfacet
  facet normal -0.995819 0.0913458 0
    outer loop
      vertex 0.742 14.409 10
      vertex 1.047 17.734 10
      vertex 0.742 14.409 0
    endloop
  endfacet
  facet normal -0.995819 0.0913458 0
    outer loop
      vertex 0.742 14.409 0
      vertex 1.047 17.734 10
      vertex 1.047 17.734 0
    endloop
  endfacet
  facet normal 0 0 1
    outer loop
      vertex 0.742 14.409 10
      vertex 1.212 11.157 10
      vertex 2.466 8.133 10
    endloop
  endfacet
  facet normal 0 0 1
    outer loop
      vertex 7.506 2.687 10
      vertex 0.742 14.409 10
      vertex 4.517 5.493 10
    endloop
  endfacet
  facet normal 0 0 1
    outer loop
      vertex 4.517 5.493 10
      vertex 0.742 14.409 10
      vertex 2.466 8.133 10
    endloop
  endfacet
  facet normal 0 0 1
    outer loop
      vertex 11.174 1.007 10
      vertex 0.742 14.409 10
      vertex 7.506 2.687 10
    endloop
  endfacet
  facet normal 0 0 1
    outer loop
      vertex 15.208 0.319 10
      vertex 0.742 14.409 10
      vertex 11.174 1.007 10
    endloop
  endfacet
  facet normal 0 0 1
    outer loop
      vertex 19.292 0.485 10
      vertex 0.742 14.409 10
      vertex 15.208 0.319 10
    endloop
  endfacet
  facet normal 0 0 1
    outer loop
      vertex 22.896 0.888 10
      vertex 0.742 14.409 10
      vertex 19.292 0.485 10
    endloop
  endfacet
  facet normal 0 0 1
    outer loop
      vertex 26.344 2.059 10
      vertex 0.742 14.409 10
      vertex 22.896 0.888 10
    endloop
  endfacet
  facet normal 0 0 1
    outer loop
      vertex 29.65 3.694 10
      vertex 0.742 14.409 10
      vertex 26.344 2.059 10
    endloop
  endfacet
  facet normal 0 0 1
    outer loop
      vertex 32.827 5.488 10
      vertex 0.742 14.409 10
      vertex 29.65 3.694 10
    endloop
  endfacet
  facet normal 0 0 1
    outer loop
      vertex 24.587 8.229 10
      vertex 0.742 14.409 10
      vertex 32.827 5.488 10
    endloop
  endfacet
  facet normal 0 0 1
    outer loop
      vertex 43.014 18.6 10
      vertex 46.194 15.755 10
      vertex 48.202 17.901 10
    endloop
  endfacet
  facet normal 0 0 1
    outer loop
      vertex 46.514 22.301 10
      vertex 69.404 24.59 10
      vertex 73.181 26.835 10
    endloop
  endfacet
  facet normal 0 0 1
    outer loop
      vertex 47.747 23.348 10
      vertex 46.514 22.301 10
      vertex 73.181 26.835 10
    endloop
  endfacet
  facet normal 0 0 1
    outer loop
      vertex 48.852 24.533 10
      vertex 76.758 29.486 10
      vertex 61.171 26.956 10
    endloop
  endfacet
  facet normal 0 0 1
    outer loop
      vertex 48.852 24.533 10
      vertex 47.747 23.348 10
      vertex 76.758 29.486 10
    endloop
  endfacet
  facet normal 0 0 1
    outer loop
      vertex 49.189 25.777 10
      vertex 48.852 24.533 10
      vertex 57.143 26.679 10
    endloop
  endfacet
  facet normal 0 0 1
    outer loop
      vertex 65.16 23.32 10
      vertex 55.604 22.401 10
      vertex 58.798 22.604 10
    endloop
  endfacet
  facet normal 0 0 1
    outer loop
      vertex 65.16 23.32 10
      vertex 58.798 22.604 10
      vertex 62.002 22.803 10
    endloop
  endfacet
  facet normal 0 0 1
    outer loop
      vertex 69.404 24.59 10
      vertex 55.604 22.401 10
      vertex 65.16 23.32 10
    endloop
  endfacet
  facet normal 0 0 1
    outer loop
      vertex 48.119 27.001 10
      vertex 49.189 25.777 10
      vertex 57.694 28.591 10
    endloop
  endfacet
  facet normal 0 0 1
    outer loop
      vertex 61.171 26.956 10
      vertex 57.143 26.679 10
      vertex 48.852 24.533 10
    endloop
  endfacet
  facet normal 0 0 1
    outer loop
      vertex 71.755 30.92 10
      vertex 80.406 31.975 10
      vertex 79.583 32.258 10
    endloop
  endfacet
  facet normal 0 0 1
    outer loop
      vertex 41.237 42.31 10
      vertex 41.686 37.98 10
      vertex 72.671 56.884 10
    endloop
  endfacet
  facet normal 0 0 1
    outer loop
      vertex 79.529 35.085 10
      vertex 75.352 33.544 10
      vertex 79.069 33.639 10
    endloop
  endfacet
  facet normal 0 0 1
    outer loop
      vertex 79.069 33.639 10
      vertex 73.136 31.999 10
      vertex 79.112 32.754 10
    endloop
  endfacet
  facet normal 0 0 1
    outer loop
      vertex 57.694 28.591 10
      vertex 59.197 30.629 10
      vertex 48.119 27.001 10
    endloop
  endfacet
  facet normal 0 0 1
    outer loop
      vertex 79.112 32.754 10
      vertex 71.755 30.92 10
      vertex 79.583 32.258 10
    endloop
  endfacet
  facet normal 0 0 1
    outer loop
      vertex 19.643 11.441 10
      vertex 19.458 14.733 10
      vertex 0.742 14.409 10
    endloop
  endfacet
  facet normal 0 0 1
    outer loop
      vertex 80.406 31.975 10
      vertex 69.23 29.455 10
      vertex 76.758 29.486 10
    endloop
  endfacet
  facet normal 0 0 1
    outer loop
      vertex 69.23 29.455 10
      vertex 65.268 27.858 10
      vertex 76.758 29.486 10
    endloop
  endfacet
  facet normal 0 0 1
    outer loop
      vertex 65.268 27.858 10
      vertex 61.171 26.956 10
      vertex 76.758 29.486 10
    endloop
  endfacet
  facet normal 0 0 1
    outer loop
      vertex 73.136 31.999 10
      vertex 71.755 30.92 10
      vertex 79.112 32.754 10
    endloop
  endfacet
  facet normal 0 0 1
    outer loop
      vertex 30.807 9.494 10
      vertex 27.816 8.537 10
      vertex 35.864 7.211 10
    endloop
  endfacet
  facet normal 0 0 1
    outer loop
      vertex 20.512 21.247 10
      vertex 22.079 24.167 10
      vertex 0.742 14.409 10
    endloop
  endfacet
  facet normal 0 0 1
    outer loop
      vertex 44.878 29.902 10
      vertex 60.971 32.732 10
      vertex 62.336 34.838 10
    endloop
  endfacet
  facet normal 0 0 1
    outer loop
      vertex 44.878 29.902 10
      vertex 59.197 30.629 10
      vertex 60.971 32.732 10
    endloop
  endfacet
  facet normal 0 0 1
    outer loop
      vertex 42.817 33.703 10
      vertex 65.059 38.564 10
      vertex 67.751 42.345 10
    endloop
  endfacet
  facet normal 0 0 1
    outer loop
      vertex 42.817 33.703 10
      vertex 44.878 29.902 10
      vertex 65.059 38.564 10
    endloop
  endfacet
  facet normal 0 0 1
    outer loop
      vertex 23.877 27.961 10
      vertex 25.538 31.093 10
      vertex 0.742 14.409 10
    endloop
  endfacet
  facet normal 0 0 1
    outer loop
      vertex 41.686 37.98 10
      vertex 71.62 50.672 10
      vertex 72.461 53.701 10
    endloop
  endfacet
  facet normal 0 0 1
    outer loop
      vertex 34.908 43.856 10
      vertex 36.964 46.138 10
      vertex 0.742 14.409 10
    endloop
  endfacet
  facet normal 0 0 1
    outer loop
      vertex 42.865 47.836 10
      vertex 41.77 45.159 10
      vertex 63.685 63.845 10
    endloop
  endfacet
  facet normal 0 0 1
    outer loop
      vertex 41.237 42.31 10
      vertex 72.671 56.884 10
      vertex 71.862 59.82 10
    endloop
  endfacet
  facet normal 0 0 1
    outer loop
      vertex 51.55 62.257 10
      vertex 0.742 14.409 10
      vertex 54.483 62.786 10
    endloop
  endfacet
  facet normal 0 0 1
    outer loop
      vertex 48.609 61.78 10
      vertex 0.742 14.409 10
      vertex 51.55 62.257 10
    endloop
  endfacet
  facet normal 0 0 1
    outer loop
      vertex 45.646 61.437 10
      vertex 0.742 14.409 10
      vertex 48.609 61.78 10
    endloop
  endfacet
  facet normal 0 0 1
    outer loop
      vertex 42.136 60.502 10
      vertex 0.742 14.409 10
      vertex 45.646 61.437 10
    endloop
  endfacet
  facet normal 0 0 1
    outer loop
      vertex 38.61 59.586 10
      vertex 0.742 14.409 10
      vertex 42.136 60.502 10
    endloop
  endfacet
  facet normal 0 0 1
    outer loop
      vertex 35.133 58.519 10
      vertex 0.742 14.409 10
      vertex 38.61 59.586 10
    endloop
  endfacet
  facet normal 0 0 1
    outer loop
      vertex 31.772 57.127 10
      vertex 0.742 14.409 10
      vertex 35.133 58.519 10
    endloop
  endfacet
  facet normal 0 0 1
    outer loop
      vertex 29.328 55.787 10
      vertex 0.742 14.409 10
      vertex 31.772 57.127 10
    endloop
  endfacet
  facet normal 0 0 1
    outer loop
      vertex 26.949 54.355 10
      vertex 0.742 14.409 10
      vertex 29.328 55.787 10
    endloop
  endfacet
  facet normal 0 0 1
    outer loop
      vertex 24.625 52.845 10
      vertex 0.742 14.409 10
      vertex 26.949 54.355 10
    endloop
  endfacet
  facet normal 0 0 1
    outer loop
      vertex 22.347 51.271 10
      vertex 0.742 14.409 10
      vertex 24.625 52.845 10
    endloop
  endfacet
  facet normal 0 0 1
    outer loop
      vertex 19.428 48.673 10
      vertex 0.742 14.409 10
      vertex 22.347 51.271 10
    endloop
  endfacet
  facet normal 0 0 1
    outer loop
      vertex 16.704 45.862 10
      vertex 0.742 14.409 10
      vertex 19.428 48.673 10
    endloop
  endfacet
  facet normal 0 0 1
    outer loop
      vertex 14.074 42.954 10
      vertex 0.742 14.409 10
      vertex 16.704 45.862 10
    endloop
  endfacet
  facet normal 0 0 1
    outer loop
      vertex 11.434 40.067 10
      vertex 0.742 14.409 10
      vertex 14.074 42.954 10
    endloop
  endfacet
  facet normal 0 0 1
    outer loop
      vertex 9.77 37.394 10
      vertex 0.742 14.409 10
      vertex 11.434 40.067 10
    endloop
  endfacet
  facet normal 0 0 1
    outer loop
      vertex 8.068 34.735 10
      vertex 0.742 14.409 10
      vertex 9.77 37.394 10
    endloop
  endfacet
  facet normal 0 0 1
    outer loop
      vertex 6.461 32.02 10
      vertex 0.742 14.409 10
      vertex 8.068 34.735 10
    endloop
  endfacet
  facet normal 0 0 1
    outer loop
      vertex 5.078 29.179 10
      vertex 0.742 14.409 10
      vertex 6.461 32.02 10
    endloop
  endfacet
  facet normal 0 0 1
    outer loop
      vertex 3.939 26.359 10
      vertex 0.742 14.409 10
      vertex 5.078 29.179 10
    endloop
  endfacet
  facet normal 0 0 1
    outer loop
      vertex 2.748 23.544 10
      vertex 0.742 14.409 10
      vertex 3.939 26.359 10
    endloop
  endfacet
  facet normal 0 0 1
    outer loop
      vertex 1.714 20.686 10
      vertex 0.742 14.409 10
      vertex 2.748 23.544 10
    endloop
  endfacet
  facet normal 0 0 1
    outer loop
      vertex 1.047 17.734 10
      vertex 0.742 14.409 10
      vertex 1.714 20.686 10
    endloop
  endfacet
  facet normal 0 0 1
    outer loop
      vertex 35.326 11.878 10
      vertex 30.807 9.494 10
      vertex 38.674 9.272 10
    endloop
  endfacet
  facet normal 0 0 1
    outer loop
      vertex 46.514 22.301 10
      vertex 55.604 22.401 10
      vertex 69.404 24.59 10
    endloop
  endfacet
  facet normal 0 0 1
    outer loop
      vertex 46.514 22.301 10
      vertex 50.203 20.041 10
      vertex 52.475 21.869 10
    endloop
  endfacet
  facet normal 0 0 1
    outer loop
      vertex 44.878 29.902 10
      vertex 48.119 27.001 10
      vertex 59.197 30.629 10
    endloop
  endfacet
  facet normal 0 0 1
    outer loop
      vertex 27.216 33.922 10
      vertex 29.066 36.808 10
      vertex 0.742 14.409 10
    endloop
  endfacet
  facet normal 0 0 1
    outer loop
      vertex 46.514 22.301 10
      vertex 43.014 18.6 10
      vertex 50.203 20.041 10
    endloop
  endfacet
  facet normal 0 0 1
    outer loop
      vertex 25.538 31.093 10
      vertex 27.216 33.922 10
      vertex 0.742 14.409 10
    endloop
  endfacet
  facet normal 0 0 1
    outer loop
      vertex 41.686 37.98 10
      vertex 70.056 46.331 10
      vertex 71.62 50.672 10
    endloop
  endfacet
  facet normal 0 0 1
    outer loop
      vertex 43.358 52.303 10
      vertex 45.337 53.095 10
      vertex 57.42 63.285 10
    endloop
  endfacet
  facet normal 0 0 1
    outer loop
      vertex 41.77 45.159 10
      vertex 69.65 62.113 10
      vertex 66.766 63.432 10
    endloop
  endfacet
  facet normal 0 0 1
    outer loop
      vertex 41.77 45.159 10
      vertex 41.237 42.31 10
      vertex 69.65 62.113 10
    endloop
  endfacet
  facet normal 0 0 1
    outer loop
      vertex 32.747 41.675 10
      vertex 0.742 14.409 10
      vertex 30.72 39.392 10
    endloop
  endfacet
  facet normal 0 0 1
    outer loop
      vertex 34.908 43.856 10
      vertex 0.742 14.409 10
      vertex 32.747 41.675 10
    endloop
  endfacet
  facet normal 0 0 1
    outer loop
      vertex 44.171 50.446 10
      vertex 42.865 47.836 10
      vertex 60.528 63.685 10
    endloop
  endfacet
  facet normal 0 0 1
    outer loop
      vertex 43.358 52.303 10
      vertex 57.42 63.285 10
      vertex 54.483 62.786 10
    endloop
  endfacet
  facet normal 0 0 1
    outer loop
      vertex 38.967 48.165 10
      vertex 0.742 14.409 10
      vertex 36.964 46.138 10
    endloop
  endfacet
  facet normal 0 0 1
    outer loop
      vertex 41.167 50.44 10
      vertex 0.742 14.409 10
      vertex 38.967 48.165 10
    endloop
  endfacet
  facet normal 0 0 1
    outer loop
      vertex 54.483 62.786 10
      vertex 0.742 14.409 10
      vertex 41.167 50.44 10
    endloop
  endfacet
  facet normal 0 0 1
    outer loop
      vertex 45.337 53.095 10
      vertex 44.171 50.446 10
      vertex 57.42 63.285 10
    endloop
  endfacet
  facet normal 0 0 1
    outer loop
      vertex 54.483 62.786 10
      vertex 41.167 50.44 10
      vertex 43.358 52.303 10
    endloop
  endfacet
  facet normal 0 0 1
    outer loop
      vertex 57.42 63.285 10
      vertex 44.171 50.446 10
      vertex 60.528 63.685 10
    endloop
  endfacet
  facet normal 0 0 1
    outer loop
      vertex 60.528 63.685 10
      vertex 42.865 47.836 10
      vertex 63.685 63.845 10
    endloop
  endfacet
  facet normal 0 0 1
    outer loop
      vertex 63.685 63.845 10
      vertex 41.77 45.159 10
      vertex 66.766 63.432 10
    endloop
  endfacet
  facet normal 0 0 1
    outer loop
      vertex 29.066 36.808 10
      vertex 30.72 39.392 10
      vertex 0.742 14.409 10
    endloop
  endfacet
  facet normal 0 0 1
    outer loop
      vertex 41.686 37.98 10
      vertex 42.817 33.703 10
      vertex 70.056 46.331 10
    endloop
  endfacet
  facet normal 0 0 1
    outer loop
      vertex 41.237 42.31 10
      vertex 71.862 59.82 10
      vertex 69.65 62.113 10
    endloop
  endfacet
  facet normal 0 0 1
    outer loop
      vertex 72.671 56.884 10
      vertex 41.686 37.98 10
      vertex 72.461 53.701 10
    endloop
  endfacet
  facet normal 0 0 1
    outer loop
      vertex 70.056 46.331 10
      vertex 42.817 33.703 10
      vertex 67.751 42.345 10
    endloop
  endfacet
  facet normal 0 0 1
    outer loop
      vertex 65.059 38.564 10
      vertex 44.878 29.902 10
      vertex 62.336 34.838 10
    endloop
  endfacet
  facet normal 0 0 1
    outer loop
      vertex 22.079 24.167 10
      vertex 23.877 27.961 10
      vertex 0.742 14.409 10
    endloop
  endfacet
  facet normal 0 0 1
    outer loop
      vertex 71.755 30.92 10
      vertex 69.23 29.455 10
      vertex 80.406 31.975 10
    endloop
  endfacet
  facet normal 0 0 1
    outer loop
      vertex 76.758 29.486 10
      vertex 47.747 23.348 10
      vertex 73.181 26.835 10
    endloop
  endfacet
  facet normal 0 0 1
    outer loop
      vertex 46.514 22.301 10
      vertex 52.475 21.869 10
      vertex 55.604 22.401 10
    endloop
  endfacet
  facet normal 0 0 1
    outer loop
      vertex 50.203 20.041 10
      vertex 43.014 18.6 10
      vertex 48.202 17.901 10
    endloop
  endfacet
  facet normal 0 0 1
    outer loop
      vertex 46.194 15.755 10
      vertex 39.34 15.02 10
      vertex 43.906 13.908 10
    endloop
  endfacet
  facet normal 0 0 1
    outer loop
      vertex 41.33 11.546 10
      vertex 35.326 11.878 10
      vertex 38.674 9.272 10
    endloop
  endfacet
  facet normal 0 0 1
    outer loop
      vertex 43.014 18.6 10
      vertex 39.34 15.02 10
      vertex 46.194 15.755 10
    endloop
  endfacet
  facet normal 0 0 1
    outer loop
      vertex 38.674 9.272 10
      vertex 30.807 9.494 10
      vertex 35.864 7.211 10
    endloop
  endfacet
  facet normal 0 0 1
    outer loop
      vertex 35.864 7.211 10
      vertex 27.816 8.537 10
      vertex 32.827 5.488 10
    endloop
  endfacet
  facet normal 0 0 1
    outer loop
      vertex 27.816 8.537 10
      vertex 24.587 8.229 10
      vertex 32.827 5.488 10
    endloop
  endfacet
  facet normal 0 0 1
    outer loop
      vertex 21.677 9.041 10
      vertex 0.742 14.409 10
      vertex 24.587 8.229 10
    endloop
  endfacet
  facet normal 0 0 1
    outer loop
      vertex 21.677 9.041 10
      vertex 19.643 11.441 10
      vertex 0.742 14.409 10
    endloop
  endfacet
  facet normal 0 0 1
    outer loop
      vertex 77.576 34.706 10
      vertex 75.352 33.544 10
      vertex 79.529 35.085 10
    endloop
  endfacet
  facet normal 0 0 1
    outer loop
      vertex 75.352 33.544 10
      vertex 73.136 31.999 10
      vertex 79.069 33.639 10
    endloop
  endfacet
  facet normal 0 0 1
    outer loop
      vertex 57.143 26.679 10
      vertex 57.694 28.591 10
      vertex 49.189 25.777 10
    endloop
  endfacet
  facet normal 0 0 1
    outer loop
      vertex 39.34 15.02 10
      vertex 35.326 11.878 10
      vertex 41.33 11.546 10
    endloop
  endfacet
  facet normal 0 0 1
    outer loop
      vertex 39.34 15.02 10
      vertex 41.33 11.546 10
      vertex 43.906 13.908 10
    endloop
  endfacet
  facet normal 0 0 1
    outer loop
      vertex 19.458 14.733 10
      vertex 19.693 18.052 10
      vertex 0.742 14.409 10
    endloop
  endfacet
  facet normal 0 0 1
    outer loop
      vertex 19.693 18.052 10
      vertex 20.512 21.247 10
      vertex 0.742 14.409 10
    endloop
  endfacet
  facet normal -0.923726 -0.383053 0
    outer loop
      vertex 2.466 8.133 0
      vertex 2.466 8.133 10
      vertex 1.212 11.157 0
    endloop
  endfacet
  facet normal -0.923726 -0.383053 0
    outer loop
      vertex 1.212 11.157 0
      vertex 2.466 8.133 10
      vertex 1.212 11.157 10
    endloop
  endfacet
  facet normal -0.78969 -0.613506 0
    outer loop
      vertex 4.517 5.493 0
      vertex 4.517 5.493 10
      vertex 2.466 8.133 0
    endloop
  endfacet
  facet normal -0.78969 -0.613506 0
    outer loop
      vertex 2.466 8.133 0
      vertex 4.517 5.493 10
      vertex 2.466 8.133 10
    endloop
  endfacet
  facet normal -0.684436 -0.729073 0
    outer loop
      vertex 4.517 5.493 0
      vertex 7.506 2.687 0
      vertex 7.506 2.687 10
    endloop
  endfacet
  facet normal -0.684436 -0.729073 0
    outer loop
      vertex 4.517 5.493 10
      vertex 4.517 5.493 0
      vertex 7.506 2.687 10
    endloop
  endfacet
  facet normal -0.416416 -0.909174 0
    outer loop
      vertex 7.506 2.687 0
      vertex 11.174 1.007 0
      vertex 11.174 1.007 10
    endloop
  endfacet
  facet normal -0.416416 -0.909174 0
    outer loop
      vertex 7.506 2.687 10
      vertex 7.506 2.687 0
      vertex 11.174 1.007 10
    endloop
  endfacet
  facet normal -0.168123 -0.985766 0
    outer loop
      vertex 11.174 1.007 0
      vertex 15.208 0.319 0
      vertex 15.208 0.319 10
    endloop
  endfacet
  facet normal -0.168123 -0.985766 0
    outer loop
      vertex 11.174 1.007 10
      vertex 11.174 1.007 0
      vertex 15.208 0.319 10
    endloop
  endfacet
  facet normal 0.0406129 -0.999175 0
    outer loop
      vertex 15.208 0.319 0
      vertex 19.292 0.485 0
      vertex 19.292 0.485 10
    endloop
  endfacet
  facet normal 0.0406129 -0.999175 0
    outer loop
      vertex 15.208 0.319 10
      vertex 15.208 0.319 0
      vertex 19.292 0.485 10
    endloop
  endfacet
  facet normal 0.111128 -0.993806 0
    outer loop
      vertex 19.292 0.485 0
      vertex 22.896 0.888 0
      vertex 22.896 0.888 10
    endloop
  endfacet
  facet normal 0.111128 -0.993806 0
    outer loop
      vertex 19.292 0.485 10
      vertex 19.292 0.485 0
      vertex 22.896 0.888 10
    endloop
  endfacet
  facet normal 0.321578 -0.946883 0
    outer loop
      vertex 22.896 0.888 0
      vertex 26.344 2.059 0
      vertex 26.344 2.059 10
    endloop
  endfacet
  facet normal 0.321578 -0.946883 0
    outer loop
      vertex 22.896 0.888 10
      vertex 22.896 0.888 0
      vertex 26.344 2.059 10
    endloop
  endfacet
  facet normal 0.443305 -0.896371 0
    outer loop
      vertex 26.344 2.059 0
      vertex 29.65 3.694 0
      vertex 29.65 3.694 10
    endloop
  endfacet
  facet normal 0.443305 -0.896371 0
    outer loop
      vertex 26.344 2.059 10
      vertex 26.344 2.059 0
      vertex 29.65 3.694 10
    endloop
  endfacet
  facet normal 0.491705 -0.870762 0
    outer loop
      vertex 29.65 3.694 0
      vertex 32.827 5.488 0
      vertex 32.827 5.488 10
    endloop
  endfacet
  facet normal 0.491705 -0.870762 0
    outer loop
      vertex 29.65 3.694 10
      vertex 29.65 3.694 0
      vertex 32.827 5.488 10
    endloop
  endfacet
  facet normal 0.493453 -0.869772 0
    outer loop
      vertex 32.827 5.488 0
      vertex 35.864 7.211 0
      vertex 35.864 7.211 10
    endloop
  endfacet
  facet normal 0.493453 -0.869772 0
    outer loop
      vertex 32.827 5.488 10
      vertex 32.827 5.488 0
      vertex 35.864 7.211 10
    endloop
  endfacet
  facet normal 0.591426 -0.806359 0
    outer loop
      vertex 35.864 7.211 0
      vertex 38.674 9.272 0
      vertex 38.674 9.272 10
    endloop
  endfacet
  facet normal 0.591426 -0.806359 0
    outer loop
      vertex 35.864 7.211 10
      vertex 35.864 7.211 0
      vertex 38.674 9.272 10
    endloop
  endfacet
  facet normal 0.650367 -0.75962 0
    outer loop
      vertex 38.674 9.272 0
      vertex 41.33 11.546 0
      vertex 41.33 11.546 10
    endloop
  endfacet
  facet normal 0.650367 -0.75962 0
    outer loop
      vertex 38.674 9.272 10
      vertex 38.674 9.272 0
      vertex 41.33 11.546 10
    endloop
  endfacet
  facet normal 0.675828 -0.737059 0
    outer loop
      vertex 41.33 11.546 0
      vertex 43.906 13.908 0
      vertex 43.906 13.908 10
    endloop
  endfacet
  facet normal 0.675828 -0.737059 0
    outer loop
      vertex 41.33 11.546 10
      vertex 41.33 11.546 0
      vertex 43.906 13.908 10
    endloop
  endfacet
  facet normal 0.628131 -0.778107 0
    outer loop
      vertex 43.906 13.908 0
      vertex 46.194 15.755 0
      vertex 46.194 15.755 10
    endloop
  endfacet
  facet normal 0.628131 -0.778107 0
    outer loop
      vertex 43.906 13.908 10
      vertex 43.906 13.908 0
      vertex 46.194 15.755 10
    endloop
  endfacet
  facet normal 0.730195 -0.683239 0
    outer loop
      vertex 46.194 15.755 0
      vertex 48.202 17.901 0
      vertex 48.202 17.901 10
    endloop
  endfacet
  facet normal 0.730195 -0.683239 0
    outer loop
      vertex 46.194 15.755 10
      vertex 46.194 15.755 0
      vertex 48.202 17.901 10
    endloop
  endfacet
  facet normal 0.730431 -0.682987 0
    outer loop
      vertex 48.202 17.901 0
      vertex 50.203 20.041 0
      vertex 50.203 20.041 10
    endloop
  endfacet
  facet normal 0.730431 -0.682987 0
    outer loop
      vertex 48.202 17.901 10
      vertex 48.202 17.901 0
      vertex 50.203 20.041 10
    endloop
  endfacet
  facet normal 0.626867 -0.779126 0
    outer loop
      vertex 50.203 20.041 0
      vertex 52.475 21.869 0
      vertex 52.475 21.869 10
    endloop
  endfacet
  facet normal 0.626867 -0.779126 0
    outer loop
      vertex 50.203 20.041 10
      vertex 50.203 20.041 0
      vertex 52.475 21.869 10
    endloop
  endfacet
  facet normal 0.167617 -0.985852 0
    outer loop
      vertex 52.475 21.869 0
      vertex 55.604 22.401 0
      vertex 55.604 22.401 10
    endloop
  endfacet
  facet normal 0.167617 -0.985852 0
    outer loop
      vertex 52.475 21.869 10
      vertex 52.475 21.869 0
      vertex 55.604 22.401 10
    endloop
  endfacet
  facet normal 0.0634287 -0.997986 0
    outer loop
      vertex 55.604 22.401 0
      vertex 58.798 22.604 0
      vertex 58.798 22.604 10
    endloop
  endfacet
  facet normal 0.0634287 -0.997986 0
    outer loop
      vertex 55.604 22.401 10
      vertex 55.604 22.401 0
      vertex 58.798 22.604 10
    endloop
  endfacet
  facet normal 0.0619904 -0.998077 0
    outer loop
      vertex 58.798 22.604 0
      vertex 62.002 22.803 0
      vertex 62.002 22.803 10
    endloop
  endfacet
  facet normal 0.0619904 -0.998077 0
    outer loop
      vertex 58.798 22.604 10
      vertex 58.798 22.604 0
      vertex 62.002 22.803 10
    endloop
  endfacet
  facet normal 0.161561 -0.986863 0
    outer loop
      vertex 62.002 22.803 0
      vertex 65.16 23.32 0
      vertex 65.16 23.32 10
    endloop
  endfacet
  facet normal 0.161561 -0.986863 0
    outer loop
      vertex 62.002 22.803 10
      vertex 62.002 22.803 0
      vertex 65.16 23.32 10
    endloop
  endfacet
  facet normal 0.286685 -0.958025 0
    outer loop
      vertex 65.16 23.32 0
      vertex 69.404 24.59 0
      vertex 69.404 24.59 10
    endloop
  endfacet
  facet normal 0.286685 -0.958025 0
    outer loop
      vertex 65.16 23.32 10
      vertex 65.16 23.32 0
      vertex 69.404 24.59 10
    endloop
  endfacet
  facet normal 0.510944 -0.859614 0
    outer loop
      vertex 69.404 24.59 0
      vertex 73.181 26.835 0
      vertex 73.181 26.835 10
    endloop
  endfacet
  facet normal 0.510944 -0.859614 0
    outer loop
      vertex 69.404 24.59 10
      vertex 69.404 24.59 0
      vertex 73.181 26.835 10
    endloop
  endfacet
  facet normal 0.595426 -0.80341 0
    outer loop
      vertex 73.181 26.835 0
      vertex 76.758 29.486 0
      vertex 76.758 29.486 10
    endloop
  endfacet
  facet normal 0.595426 -0.80341 0
    outer loop
      vertex 73.181 26.835 10
      vertex 73.181 26.835 0
      vertex 76.758 29.486 10
    endloop
  endfacet
  facet normal 0.563604 -0.826045 0
    outer loop
      vertex 76.758 29.486 0
      vertex 80.406 31.975 0
      vertex 80.406 31.975 10
    endloop
  endfacet
  facet normal 0.563604 -0.826045 0
    outer loop
      vertex 76.758 29.486 10
      vertex 76.758 29.486 0
      vertex 80.406 31.975 10
    endloop
  endfacet
  facet normal 0.325176 0.945653 0
    outer loop
      vertex 79.583 32.258 10
      vertex 80.406 31.975 10
      vertex 79.583 32.258 0
    endloop
  endfacet
  facet normal 0.325176 0.945653 0
    outer loop
      vertex 79.583 32.258 0
      vertex 80.406 31.975 10
      vertex 80.406 31.975 0
    endloop
  endfacet
  facet normal 0.725145 0.688596 0
    outer loop
      vertex 79.112 32.754 0
      vertex 79.112 32.754 10
      vertex 79.583 32.258 10
    endloop
  endfacet
  facet normal 0.725145 0.688596 0
    outer loop
      vertex 79.583 32.258 0
      vertex 79.112 32.754 0
      vertex 79.583 32.258 10
    endloop
  endfacet
  facet normal 0.998822 0.0485303 0
    outer loop
      vertex 79.069 33.639 0
      vertex 79.069 33.639 10
      vertex 79.112 32.754 10
    endloop
  endfacet
  facet normal 0.998822 0.0485303 0
    outer loop
      vertex 79.112 32.754 0
      vertex 79.069 33.639 0
      vertex 79.112 32.754 10
    endloop
  endfacet
  facet normal 0.952943 -0.303149 0
    outer loop
      vertex 79.069 33.639 0
      vertex 79.529 35.085 0
      vertex 79.529 35.085 10
    endloop
  endfacet
  facet normal 0.952943 -0.303149 0
    outer loop
      vertex 79.069 33.639 10
      vertex 79.069 33.639 0
      vertex 79.529 35.085 10
    endloop
  endfacet
  facet normal -0.190506 0.981686 0
    outer loop
      vertex 77.576 34.706 10
      vertex 79.529 35.085 10
      vertex 77.576 34.706 0
    endloop
  endfacet
  facet normal -0.190506 0.981686 0
    outer loop
      vertex 77.576 34.706 0
      vertex 79.529 35.085 10
      vertex 79.529 35.085 0
    endloop
  endfacet
  facet normal -0.463083 0.886315 0
    outer loop
      vertex 75.352 33.544 10
      vertex 77.576 34.706 10
      vertex 75.352 33.544 0
    endloop
  endfacet
  facet normal -0.463083 0.886315 0
    outer loop
      vertex 75.352 33.544 0
      vertex 77.576 34.706 10
      vertex 77.576 34.706 0
    endloop
  endfacet
  facet normal -0.571921 0.820309 0
    outer loop
      vertex 73.136 31.999 10
      vertex 75.352 33.544 10
      vertex 73.136 31.999 0
    endloop
  endfacet
  facet normal -0.571921 0.820309 0
    outer loop
      vertex 73.136 31.999 0
      vertex 75.352 33.544 10
      vertex 75.352 33.544 0
    endloop
  endfacet
  facet normal -0.615677 0.787998 0
    outer loop
      vertex 71.755 30.92 10
      vertex 73.136 31.999 10
      vertex 71.755 30.92 0
    endloop
  endfacet
  facet normal -0.615677 0.787998 0
    outer loop
      vertex 71.755 30.92 0
      vertex 73.136 31.999 10
      vertex 73.136 31.999 0
    endloop
  endfacet
  facet normal -0.501846 0.864957 0
    outer loop
      vertex 69.23 29.455 10
      vertex 71.755 30.92 10
      vertex 69.23 29.455 0
    endloop
  endfacet
  facet normal -0.501846 0.864957 0
    outer loop
      vertex 69.23 29.455 0
      vertex 71.755 30.92 10
      vertex 71.755 30.92 0
    endloop
  endfacet
  facet normal -0.373851 0.927489 0
    outer loop
      vertex 65.268 27.858 10
      vertex 69.23 29.455 10
      vertex 65.268 27.858 0
    endloop
  endfacet
  facet normal -0.373851 0.927489 0
    outer loop
      vertex 65.268 27.858 0
      vertex 69.23 29.455 10
      vertex 69.23 29.455 0
    endloop
  endfacet
  facet normal -0.215012 0.976611 0
    outer loop
      vertex 61.171 26.956 10
      vertex 65.268 27.858 10
      vertex 61.171 26.956 0
    endloop
  endfacet
  facet normal -0.215012 0.976611 0
    outer loop
      vertex 61.171 26.956 0
      vertex 65.268 27.858 10
      vertex 65.268 27.858 0
    endloop
  endfacet
  facet normal -0.0686066 0.997644 0
    outer loop
      vertex 57.143 26.679 10
      vertex 61.171 26.956 10
      vertex 57.143 26.679 0
    endloop
  endfacet
  facet normal -0.0686066 0.997644 0
    outer loop
      vertex 57.143 26.679 0
      vertex 61.171 26.956 10
      vertex 61.171 26.956 0
    endloop
  endfacet
  facet normal 0.960896 -0.276911 0
    outer loop
      vertex 57.143 26.679 0
      vertex 57.694 28.591 0
      vertex 57.694 28.591 10
    endloop
  endfacet
  facet normal 0.960896 -0.276911 0
    outer loop
      vertex 57.143 26.679 10
      vertex 57.143 26.679 0
      vertex 57.694 28.591 10
    endloop
  endfacet
  facet normal 0.804808 -0.593536 0
    outer loop
      vertex 57.694 28.591 0
      vertex 59.197 30.629 0
      vertex 59.197 30.629 10
    endloop
  endfacet
  facet normal 0.804808 -0.593536 0
    outer loop
      vertex 57.694 28.591 10
      vertex 57.694 28.591 0
      vertex 59.197 30.629 10
    endloop
  endfacet
  facet normal 0.764364 -0.644785 0
    outer loop
      vertex 59.197 30.629 0
      vertex 60.971 32.732 0
      vertex 60.971 32.732 10
    endloop
  endfacet
  facet normal 0.764364 -0.644785 0
    outer loop
      vertex 59.197 30.629 10
      vertex 59.197 30.629 0
      vertex 60.971 32.732 10
    endloop
  endfacet
  facet normal 0.839153 -0.543895 0
    outer loop
      vertex 60.971 32.732 0
      vertex 62.336 34.838 0
      vertex 62.336 34.838 10
    endloop
  endfacet
  facet normal 0.839153 -0.543895 0
    outer loop
      vertex 60.971 32.732 10
      vertex 60.971 32.732 0
      vertex 62.336 34.838 10
    endloop
  endfacet
  facet normal 0.807375 -0.590038 0
    outer loop
      vertex 62.336 34.838 0
      vertex 65.059 38.564 0
      vertex 65.059 38.564 10
    endloop
  endfacet
  facet normal 0.807375 -0.590038 0
    outer loop
      vertex 62.336 34.838 10
      vertex 62.336 34.838 0
      vertex 65.059 38.564 10
    endloop
  endfacet
  facet normal 0.814621 -0.579994 0
    outer loop
      vertex 65.059 38.564 0
      vertex 67.751 42.345 0
      vertex 67.751 42.345 10
    endloop
  endfacet
  facet normal 0.814621 -0.579994 0
    outer loop
      vertex 65.059 38.564 10
      vertex 65.059 38.564 0
      vertex 67.751 42.345 10
    endloop
  endfacet
  facet normal 0.865679 -0.5006 0
    outer loop
      vertex 67.751 42.345 0
      vertex 70.056 46.331 0
      vertex 70.056 46.331 10
    endloop
  endfacet
  facet normal 0.865679 -0.5006 0
    outer loop
      vertex 67.751 42.345 10
      vertex 67.751 42.345 0
      vertex 70.056 46.331 10
    endloop
  endfacet
  facet normal 0.940802 -0.338957 0
    outer loop
      vertex 70.056 46.331 0
      vertex 71.62 50.672 0
      vertex 71.62 50.672 10
    endloop
  endfacet
  facet normal 0.940802 -0.338957 0
    outer loop
      vertex 70.056 46.331 10
      vertex 70.056 46.331 0
      vertex 71.62 50.672 10
    endloop
  endfacet
  facet normal 0.96355 -0.267529 0
    outer loop
      vertex 71.62 50.672 0
      vertex 72.461 53.701 0
      vertex 72.461 53.701 10
    endloop
  endfacet
  facet normal 0.96355 -0.267529 0
    outer loop
      vertex 71.62 50.672 10
      vertex 71.62 50.672 0
      vertex 72.461 53.701 10
    endloop
  endfacet
  facet normal 0.997831 -0.0658324 0
    outer loop
      vertex 72.461 53.701 0
      vertex 72.671 56.884 0
      vertex 72.671 56.884 10
    endloop
  endfacet
  facet normal 0.997831 -0.0658324 0
    outer loop
      vertex 72.461 53.701 10
      vertex 72.461 53.701 0
      vertex 72.671 56.884 10
    endloop
  endfacet
  facet normal 0.964071 0.265645 0
    outer loop
      vertex 71.862 59.82 0
      vertex 71.862 59.82 10
      vertex 72.671 56.884 10
    endloop
  endfacet
  facet normal 0.964071 0.265645 0
    outer loop
      vertex 72.671 56.884 0
      vertex 71.862 59.82 0
      vertex 72.671 56.884 10
    endloop
  endfacet
  facet normal 0.719704 0.694281 0
    outer loop
      vertex 69.65 62.113 0
      vertex 69.65 62.113 10
      vertex 71.862 59.82 10
    endloop
  endfacet
  facet normal 0.719704 0.694281 0
    outer loop
      vertex 71.862 59.82 0
      vertex 69.65 62.113 0
      vertex 71.862 59.82 10
    endloop
  endfacet
  facet normal 0.415916 0.909403 0
    outer loop
      vertex 66.766 63.432 10
      vertex 69.65 62.113 10
      vertex 66.766 63.432 0
    endloop
  endfacet
  facet normal 0.415916 0.909403 0
    outer loop
      vertex 66.766 63.432 0
      vertex 69.65 62.113 10
      vertex 69.65 62.113 0
    endloop
  endfacet
  facet normal 0.132859 0.991135 0
    outer loop
      vertex 63.685 63.845 10
      vertex 66.766 63.432 10
      vertex 63.685 63.845 0
    endloop
  endfacet
  facet normal 0.132859 0.991135 0
    outer loop
      vertex 63.685 63.845 0
      vertex 66.766 63.432 10
      vertex 66.766 63.432 0
    endloop
  endfacet
  facet normal -0.0506161 0.998718 0
    outer loop
      vertex 60.528 63.685 10
      vertex 63.685 63.845 10
      vertex 60.528 63.685 0
    endloop
  endfacet
  facet normal -0.0506161 0.998718 0
    outer loop
      vertex 60.528 63.685 0
      vertex 63.685 63.845 10
      vertex 63.685 63.845 0
    endloop
  endfacet
  facet normal -0.127647 0.99182 0
    outer loop
      vertex 57.42 63.285 10
      vertex 60.528 63.685 10
      vertex 57.42 63.285 0
    endloop
  endfacet
  facet normal -0.127647 0.99182 0
    outer loop
      vertex 57.42 63.285 0
      vertex 60.528 63.685 10
      vertex 60.528 63.685 0
    endloop
  endfacet
  facet normal -0.167501 0.985872 0
    outer loop
      vertex 54.483 62.786 10
      vertex 57.42 63.285 10
      vertex 54.483 62.786 0
    endloop
  endfacet
  facet normal -0.167501 0.985872 0
    outer loop
      vertex 54.483 62.786 0
      vertex 57.42 63.285 10
      vertex 57.42 63.285 0
    endloop
  endfacet
  facet normal -0.177497 0.984121 0
    outer loop
      vertex 51.55 62.257 10
      vertex 54.483 62.786 10
      vertex 51.55 62.257 0
    endloop
  endfacet
  facet normal -0.177497 0.984121 0
    outer loop
      vertex 51.55 62.257 0
      vertex 54.483 62.786 10
      vertex 54.483 62.786 0
    endloop
  endfacet
  facet normal -0.160098 0.987101 0
    outer loop
      vertex 48.609 61.78 10
      vertex 51.55 62.257 10
      vertex 48.609 61.78 0
    endloop
  endfacet
  facet normal -0.160098 0.987101 0
    outer loop
      vertex 48.609 61.78 0
      vertex 51.55 62.257 10
      vertex 51.55 62.257 0
    endloop
  endfacet
  facet normal -0.114993 0.993366 0
    outer loop
      vertex 45.646 61.437 10
      vertex 48.609 61.78 10
      vertex 45.646 61.437 0
    endloop
  endfacet
  facet normal -0.114993 0.993366 0
    outer loop
      vertex 45.646 61.437 0
      vertex 48.609 61.78 10
      vertex 48.609 61.78 0
    endloop
  endfacet
  facet normal -0.257406 0.966303 0
    outer loop
      vertex 42.136 60.502 10
      vertex 45.646 61.437 10
      vertex 42.136 60.502 0
    endloop
  endfacet
  facet normal -0.257406 0.966303 0
    outer loop
      vertex 42.136 60.502 0
      vertex 45.646 61.437 10
      vertex 45.646 61.437 0
    endloop
  endfacet
  facet normal -0.251438 0.967873 0
    outer loop
      vertex 38.61 59.586 10
      vertex 42.136 60.502 10
      vertex 38.61 59.586 0
    endloop
  endfacet
  facet normal -0.251438 0.967873 0
    outer loop
      vertex 38.61 59.586 0
      vertex 42.136 60.502 10
      vertex 42.136 60.502 0
    endloop
  endfacet
  facet normal -0.293371 0.955999 0
    outer loop
      vertex 35.133 58.519 10
      vertex 38.61 59.586 10
      vertex 35.133 58.519 0
    endloop
  endfacet
  facet normal -0.293371 0.955999 0
    outer loop
      vertex 35.133 58.519 0
      vertex 38.61 59.586 10
      vertex 38.61 59.586 0
    endloop
  endfacet
  facet normal -0.382643 0.923896 0
    outer loop
      vertex 31.772 57.127 10
      vertex 35.133 58.519 10
      vertex 31.772 57.127 0
    endloop
  endfacet
  facet normal -0.382643 0.923896 0
    outer loop
      vertex 31.772 57.127 0
      vertex 35.133 58.519 10
      vertex 35.133 58.519 0
    endloop
  endfacet
  facet normal -0.480761 0.876851 0
    outer loop
      vertex 29.328 55.787 10
      vertex 31.772 57.127 10
      vertex 29.328 55.787 0
    endloop
  endfacet
  facet normal -0.480761 0.876851 0
    outer loop
      vertex 29.328 55.787 0
      vertex 31.772 57.127 10
      vertex 31.772 57.127 0
    endloop
  endfacet
  facet normal -0.515713 0.856761 0
    outer loop
      vertex 26.949 54.355 10
      vertex 29.328 55.787 10
      vertex 26.949 54.355 0
    endloop
  endfacet
  facet normal -0.515713 0.856761 0
    outer loop
      vertex 26.949 54.355 0
      vertex 29.328 55.787 10
      vertex 29.328 55.787 0
    endloop
  endfacet
  facet normal -0.544836 0.838543 0
    outer loop
      vertex 24.625 52.845 10
      vertex 26.949 54.355 10
      vertex 24.625 52.845 0
    endloop
  endfacet
  facet normal -0.544836 0.838543 0
    outer loop
      vertex 24.625 52.845 0
      vertex 26.949 54.355 10
      vertex 26.949 54.355 0
    endloop
  endfacet
  facet normal -0.568459 0.822712 0
    outer loop
      vertex 22.347 51.271 10
      vertex 24.625 52.845 10
      vertex 22.347 51.271 0
    endloop
  endfacet
  facet normal -0.568459 0.822712 0
    outer loop
      vertex 22.347 51.271 0
      vertex 24.625 52.845 10
      vertex 24.625 52.845 0
    endloop
  endfacet
  facet normal -0.66484 0.746986 0
    outer loop
      vertex 19.428 48.673 10
      vertex 22.347 51.271 10
      vertex 19.428 48.673 0
    endloop
  endfacet
  facet normal -0.66484 0.746986 0
    outer loop
      vertex 19.428 48.673 0
      vertex 22.347 51.271 10
      vertex 22.347 51.271 0
    endloop
  endfacet
  facet normal -0.718132 0.695906 0
    outer loop
      vertex 16.704 45.862 10
      vertex 19.428 48.673 10
      vertex 16.704 45.862 0
    endloop
  endfacet
  facet normal -0.718132 0.695906 0
    outer loop
      vertex 16.704 45.862 0
      vertex 19.428 48.673 10
      vertex 19.428 48.673 0
    endloop
  endfacet
  facet normal -0.741669 0.670766 0
    outer loop
      vertex 14.074 42.954 10
      vertex 16.704 45.862 10
      vertex 14.074 42.954 0
    endloop
  endfacet
  facet normal -0.741669 0.670766 0
    outer loop
      vertex 14.074 42.954 0
      vertex 16.704 45.862 10
      vertex 16.704 45.862 0
    endloop
  endfacet
  facet normal -0.737971 0.674833 0
    outer loop
      vertex 11.434 40.067 10
      vertex 14.074 42.954 10
      vertex 11.434 40.067 0
    endloop
  endfacet
  facet normal -0.737971 0.674833 0
    outer loop
      vertex 11.434 40.067 0
      vertex 14.074 42.954 10
      vertex 14.074 42.954 0
    endloop
  endfacet
  facet normal -0.848943 0.528485 0
    outer loop
      vertex 9.77 37.394 10
      vertex 11.434 40.067 10
      vertex 9.77 37.394 0
    endloop
  endfacet
  facet normal -0.848943 0.528485 0
    outer loop
      vertex 9.77 37.394 0
      vertex 11.434 40.067 10
      vertex 11.434 40.067 0
    endloop
  endfacet
  facet normal -0.842237 0.539108 0
    outer loop
      vertex 8.068 34.735 10
      vertex 9.77 37.394 10
      vertex 8.068 34.735 0
    endloop
  endfacet
  facet normal -0.842237 0.539108 0
    outer loop
      vertex 8.068 34.735 0
      vertex 9.77 37.394 10
      vertex 9.77 37.394 0
    endloop
  endfacet
  facet normal -0.860554 0.509359 0
    outer loop
      vertex 6.461 32.02 10
      vertex 8.068 34.735 10
      vertex 6.461 32.02 0
    endloop
  endfacet
  facet normal -0.860554 0.509359 0
    outer loop
      vertex 6.461 32.02 0
      vertex 8.068 34.735 10
      vertex 8.068 34.735 0
    endloop
  endfacet
  facet normal -0.899124 0.437694 0
    outer loop
      vertex 5.078 29.179 10
      vertex 6.461 32.02 10
      vertex 5.078 29.179 0
    endloop
  endfacet
  facet normal -0.899124 0.437694 0
    outer loop
      vertex 5.078 29.179 0
      vertex 6.461 32.02 10
      vertex 6.461 32.02 0
    endloop
  endfacet
  facet normal -0.927224 0.374507 0
    outer loop
      vertex 3.939 26.359 10
      vertex 5.078 29.179 10
      vertex 3.939 26.359 0
    endloop
  endfacet
  facet normal -0.927224 0.374507 0
    outer loop
      vertex 3.939 26.359 0
      vertex 5.078 29.179 10
      vertex 5.078 29.179 0
    endloop
  endfacet
  facet normal -0.920963 0.389651 0
    outer loop
      vertex 2.748 23.544 10
      vertex 3.939 26.359 10
      vertex 2.748 23.544 0
    endloop
  endfacet
  facet normal -0.920963 0.389651 0
    outer loop
      vertex 2.748 23.544 0
      vertex 3.939 26.359 10
      vertex 3.939 26.359 0
    endloop
  endfacet
  facet normal -0.940349 0.34021 0
    outer loop
      vertex 1.714 20.686 10
      vertex 2.748 23.544 10
      vertex 1.714 20.686 0
    endloop
  endfacet
  facet normal -0.940349 0.34021 0
    outer loop
      vertex 1.714 20.686 0
      vertex 2.748 23.544 10
      vertex 2.748 23.544 0
    endloop
  endfacet
  facet normal -0.975411 0.220393 0
    outer loop
      vertex 1.047 17.734 10
      vertex 1.714 20.686 10
      vertex 1.047 17.734 0
    endloop
  endfacet
  facet normal -0.975411 0.220393 0
    outer loop
      vertex 1.047 17.734 0
      vertex 1.714 20.686 10
      vertex 1.714 20.686 0
    endloop
  endfacet
  facet normal 0.998425 0.0561083 0
    outer loop
      vertex 19.458 14.733 0
      vertex 19.458 14.733 10
      vertex 19.643 11.441 10
    endloop
  endfacet
  facet normal 0.998425 0.0561083 0
    outer loop
      vertex 19.643 11.441 0
      vertex 19.458 14.733 0
      vertex 19.643 11.441 10
    endloop
  endfacet
  facet normal 0.997503 -0.0706276 0
    outer loop
      vertex 19.458 14.733 0
      vertex 19.693 18.052 0
      vertex 19.693 18.052 10
    endloop
  endfacet
  facet normal 0.997503 -0.0706276 0
    outer loop
      vertex 19.458 14.733 10
      vertex 19.458 14.733 0
      vertex 19.693 18.052 10
    endloop
  endfacet
  facet normal 0.968681 -0.24831 0
    outer loop
      vertex 19.693 18.052 0
      vertex 20.512 21.247 0
      vertex 20.512 21.247 10
    endloop
  endfacet
  facet normal 0.968681 -0.24831 0
    outer loop
      vertex 19.693 18.052 10
      vertex 19.693 18.052 0
      vertex 20.512 21.247 10
    endloop
  endfacet
  facet normal 0.881139 -0.472858 0
    outer loop
      vertex 20.512 21.247 0
      vertex 22.079 24.167 0
      vertex 22.079 24.167 10
    endloop
  endfacet
  facet normal 0.881139 -0.472858 0
    outer loop
      vertex 20.512 21.247 10
      vertex 20.512 21.247 0
      vertex 22.079 24.167 10
    endloop
  endfacet
  facet normal 0.90366 -0.42825 0
    outer loop
      vertex 22.079 24.167 0
      vertex 23.877 27.961 0
      vertex 23.877 27.961 10
    endloop
  endfacet
  facet normal 0.90366 -0.42825 0
    outer loop
      vertex 22.079 24.167 10
      vertex 22.079 24.167 0
      vertex 23.877 27.961 10
    endloop
  endfacet
  facet normal 0.883451 -0.468523 0
    outer loop
      vertex 23.877 27.961 0
      vertex 25.538 31.093 0
      vertex 25.538 31.093 10
    endloop
  endfacet
  facet normal 0.883451 -0.468523 0
    outer loop
      vertex 23.877 27.961 10
      vertex 23.877 27.961 0
      vertex 25.538 31.093 10
    endloop
  endfacet
  facet normal 0.860084 -0.510152 0
    outer loop
      vertex 25.538 31.093 0
      vertex 27.216 33.922 0
      vertex 27.216 33.922 10
    endloop
  endfacet
  facet normal 0.860084 -0.510152 0
    outer loop
      vertex 25.538 31.093 10
      vertex 25.538 31.093 0
      vertex 27.216 33.922 10
    endloop
  endfacet
  facet normal 0.841879 -0.539666 0
    outer loop
      vertex 27.216 33.922 0
      vertex 29.066 36.808 0
      vertex 29.066 36.808 10
    endloop
  endfacet
  facet normal 0.841879 -0.539666 0
    outer loop
      vertex 27.216 33.922 10
      vertex 27.216 33.922 0
      vertex 29.066 36.808 10
    endloop
  endfacet
  facet normal 0.842236 -0.539109 0
    outer loop
      vertex 29.066 36.808 0
      vertex 30.72 39.392 0
      vertex 30.72 39.392 10
    endloop
  endfacet
  facet normal 0.842236 -0.539109 0
    outer loop
      vertex 29.066 36.808 10
      vertex 29.066 36.808 0
      vertex 30.72 39.392 10
    endloop
  endfacet
  facet normal 0.747789 -0.663937 0
    outer loop
      vertex 30.72 39.392 0
      vertex 32.747 41.675 0
      vertex 32.747 41.675 10
    endloop
  endfacet
  facet normal 0.747789 -0.663937 0
    outer loop
      vertex 30.72 39.392 10
      vertex 30.72 39.392 0
      vertex 32.747 41.675 10
    endloop
  endfacet
  facet normal 0.710356 -0.703842 0
    outer loop
      vertex 32.747 41.675 0
      vertex 34.908 43.856 0
      vertex 34.908 43.856 10
    endloop
  endfacet
  facet normal 0.710356 -0.703842 0
    outer loop
      vertex 32.747 41.675 10
      vertex 32.747 41.675 0
      vertex 34.908 43.856 10
    endloop
  endfacet
  facet normal 0.742938 -0.66936 0
    outer loop
      vertex 34.908 43.856 0
      vertex 36.964 46.138 0
      vertex 36.964 46.138 10
    endloop
  endfacet
  facet normal 0.742938 -0.66936 0
    outer loop
      vertex 34.908 43.856 10
      vertex 34.908 43.856 0
      vertex 36.964 46.138 10
    endloop
  endfacet
  facet normal 0.711305 -0.702883 0
    outer loop
      vertex 36.964 46.138 0
      vertex 38.967 48.165 0
      vertex 38.967 48.165 10
    endloop
  endfacet
  facet normal 0.711305 -0.702883 0
    outer loop
      vertex 36.964 46.138 10
      vertex 36.964 46.138 0
      vertex 38.967 48.165 10
    endloop
  endfacet
  facet normal 0.718857 -0.695158 0
    outer loop
      vertex 38.967 48.165 0
      vertex 41.167 50.44 0
      vertex 41.167 50.44 10
    endloop
  endfacet
  facet normal 0.718857 -0.695158 0
    outer loop
      vertex 38.967 48.165 10
      vertex 38.967 48.165 0
      vertex 41.167 50.44 10
    endloop
  endfacet
  facet normal 0.64778 -0.761828 0
    outer loop
      vertex 41.167 50.44 0
      vertex 43.358 52.303 0
      vertex 43.358 52.303 10
    endloop
  endfacet
  facet normal 0.64778 -0.761828 0
    outer loop
      vertex 41.167 50.44 10
      vertex 41.167 50.44 0
      vertex 43.358 52.303 10
    endloop
  endfacet
  facet normal 0.371552 -0.928412 0
    outer loop
      vertex 43.358 52.303 0
      vertex 45.337 53.095 0
      vertex 45.337 53.095 10
    endloop
  endfacet
  facet normal 0.371552 -0.928412 0
    outer loop
      vertex 43.358 52.303 10
      vertex 43.358 52.303 0
      vertex 45.337 53.095 10
    endloop
  endfacet
  facet normal -0.915259 0.402866 0
    outer loop
      vertex 44.171 50.446 10
      vertex 45.337 53.095 10
      vertex 44.171 50.446 0
    endloop
  endfacet
  facet normal -0.915259 0.402866 0
    outer loop
      vertex 44.171 50.446 0
      vertex 45.337 53.095 10
      vertex 45.337 53.095 0
    endloop
  endfacet
  facet normal -0.89429 0.447488 0
    outer loop
      vertex 42.865 47.836 10
      vertex 44.171 50.446 10
      vertex 42.865 47.836 0
    endloop
  endfacet
  facet normal -0.89429 0.447488 0
    outer loop
      vertex 42.865 47.836 0
      vertex 44.171 50.446 10
      vertex 44.171 50.446 0
    endloop
  endfacet
  facet normal -0.925563 0.378592 0
    outer loop
      vertex 41.77 45.159 10
      vertex 42.865 47.836 10
      vertex 41.77 45.159 0
    endloop
  endfacet
  facet normal -0.925563 0.378592 0
    outer loop
      vertex 41.77 45.159 0
      vertex 42.865 47.836 10
      vertex 42.865 47.836 0
    endloop
  endfacet
  facet normal -0.982946 0.183893 0
    outer loop
      vertex 41.237 42.31 10
      vertex 41.77 45.159 10
      vertex 41.237 42.31 0
    endloop
  endfacet
  facet normal -0.982946 0.183893 0
    outer loop
      vertex 41.237 42.31 0
      vertex 41.77 45.159 10
      vertex 41.77 45.159 0
    endloop
  endfacet
  facet normal -0.994667 -0.103142 0
    outer loop
      vertex 41.686 37.98 0
      vertex 41.686 37.98 10
      vertex 41.237 42.31 0
    endloop
  endfacet
  facet normal -0.994667 -0.103142 0
    outer loop
      vertex 41.237 42.31 0
      vertex 41.686 37.98 10
      vertex 41.237 42.31 10
    endloop
  endfacet
  facet normal -0.966769 -0.25565 0
    outer loop
      vertex 42.817 33.703 0
      vertex 42.817 33.703 10
      vertex 41.686 37.98 0
    endloop
  endfacet
  facet normal -0.966769 -0.25565 0
    outer loop
      vertex 41.686 37.98 0
      vertex 42.817 33.703 10
      vertex 41.686 37.98 10
    endloop
  endfacet
  facet normal -0.879086 -0.476663 0
    outer loop
      vertex 44.878 29.902 0
      vertex 44.878 29.902 10
      vertex 42.817 33.703 0
    endloop
  endfacet
  facet normal -0.879086 -0.476663 0
    outer loop
      vertex 42.817 33.703 0
      vertex 44.878 29.902 10
      vertex 42.817 33.703 10
    endloop
  endfacet
  facet normal -0.666943 -0.745109 0
    outer loop
      vertex 44.878 29.902 0
      vertex 48.119 27.001 0
      vertex 48.119 27.001 10
    endloop
  endfacet
  facet normal -0.666943 -0.745109 0
    outer loop
      vertex 44.878 29.902 10
      vertex 44.878 29.902 0
      vertex 48.119 27.001 10
    endloop
  endfacet
  facet normal -0.752881 -0.658156 0
    outer loop
      vertex 49.189 25.777 0
      vertex 49.189 25.777 10
      vertex 48.119 27.001 0
    endloop
  endfacet
  facet normal -0.752881 -0.658156 0
    outer loop
      vertex 48.119 27.001 0
      vertex 49.189 25.777 10
      vertex 48.119 27.001 10
    endloop
  endfacet
  facet normal -0.96521 0.261476 0
    outer loop
      vertex 48.852 24.533 10
      vertex 49.189 25.777 10
      vertex 48.852 24.533 0
    endloop
  endfacet
  facet normal -0.96521 0.261476 0
    outer loop
      vertex 48.852 24.533 0
      vertex 49.189 25.777 10
      vertex 49.189 25.777 0
    endloop
  endfacet
  facet normal -0.731363 0.681988 0
    outer loop
      vertex 47.747 23.348 10
      vertex 48.852 24.533 10
      vertex 47.747 23.348 0
    endloop
  endfacet
  facet normal -0.731363 0.681988 0
    outer loop
      vertex 47.747 23.348 0
      vertex 48.852 24.533 10
      vertex 48.852 24.533 0
    endloop
  endfacet
  facet normal -0.647271 0.76226 0
    outer loop
      vertex 46.514 22.301 10
      vertex 47.747 23.348 10
      vertex 46.514 22.301 0
    endloop
  endfacet
  facet normal -0.647271 0.76226 0
    outer loop
      vertex 46.514 22.301 0
      vertex 47.747 23.348 10
      vertex 47.747 23.348 0
    endloop
  endfacet
  facet normal -0.726561 0.687102 0
    outer loop
      vertex 43.014 18.6 10
      vertex 46.514 22.301 10
      vertex 43.014 18.6 0
    endloop
  endfacet
  facet normal -0.726561 0.687102 0
    outer loop
      vertex 43.014 18.6 0
      vertex 46.514 22.301 10
      vertex 46.514 22.301 0
    endloop
  endfacet
  facet normal -0.697885 0.71621 0
    outer loop
      vertex 39.34 15.02 10
      vertex 43.014 18.6 10
      vertex 39.34 15.02 0
    endloop
  endfacet
  facet normal -0.697885 0.71621 0
    outer loop
      vertex 39.34 15.02 0
      vertex 43.014 18.6 10
      vertex 43.014 18.6 0
    endloop
  endfacet
  facet normal -0.616382 0.787447 0
    outer loop
      vertex 35.326 11.878 10
      vertex 39.34 15.02 10
      vertex 35.326 11.878 0
    endloop
  endfacet
  facet normal -0.616382 0.787447 0
    outer loop
      vertex 35.326 11.878 0
      vertex 39.34 15.02 10
      vertex 39.34 15.02 0
    endloop
  endfacet
  facet normal -0.466601 0.884468 0
    outer loop
      vertex 30.807 9.494 10
      vertex 35.326 11.878 10
      vertex 30.807 9.494 0
    endloop
  endfacet
  facet normal -0.466601 0.884468 0
    outer loop
      vertex 30.807 9.494 0
      vertex 35.326 11.878 10
      vertex 35.326 11.878 0
    endloop
  endfacet
  facet normal -0.304741 0.952435 0
    outer loop
      vertex 27.816 8.537 10
      vertex 30.807 9.494 10
      vertex 27.816 8.537 0
    endloop
  endfacet
  facet normal -0.304741 0.952435 0
    outer loop
      vertex 27.816 8.537 0
      vertex 30.807 9.494 10
      vertex 30.807 9.494 0
    endloop
  endfacet
  facet normal -0.0949546 0.995482 0
    outer loop
      vertex 24.587 8.229 10
      vertex 27.816 8.537 10
      vertex 24.587 8.229 0
    endloop
  endfacet
  facet normal -0.0949546 0.995482 0
    outer loop
      vertex 24.587 8.229 0
      vertex 27.816 8.537 10
      vertex 27.816 8.537 0
    endloop
  endfacet
  facet normal 0.26877 0.963204 0
    outer loop
      vertex 21.677 9.041 10
      vertex 24.587 8.229 10
      vertex 21.677 9.041 0
    endloop
  endfacet
  facet normal 0.26877 0.963204 0
    outer loop
      vertex 21.677 9.041 0
      vertex 24.587 8.229 10
      vertex 24.587 8.229 0
    endloop
  endfacet
  facet normal 0.76288 0.646541 0
    outer loop
      vertex 19.643 11.441 0
      vertex 19.643 11.441 10
      vertex 21.677 9.041 10
    endloop
  endfacet
  facet normal 0.76288 0.646541 0
    outer loop
      vertex 21.677 9.041 0
      vertex 19.643 11.441 0
      vertex 21.677 9.041 10
    endloop
  endfacet
endsolid OpenSCAD_Model
