solid OpenSCAD_Model
  facet normal 0.964596 -0.263733 0
    outer loop
      vertex 19.73 38.328 0
      vertex 20.854 42.439 0
      vertex 20.854 42.439 10
    endloop
  endfacet
  facet normal 0.964596 -0.263733 0
    outer loop
      vertex 19.73 38.328 10
      vertex 19.73 38.328 0
      vertex 20.854 42.439 10
    endloop
  endfacet
  facet normal 0 0 -1
    outer loop
      vertex 12.926 37.874 0
      vertex 13.762 41.397 0
      vertex 12.64 34.253 0
    endloop
  endfacet
  facet normal 0 0 -1
    outer loop
      vertex 12.64 34.253 0
      vertex 13.762 41.397 0
      vertex 15.523 44.349 0
    endloop
  endfacet
  facet normal 0 0 -1
    outer loop
      vertex 12.64 34.253 0
      vertex 15.523 44.349 0
      vertex 18.589 46.253 0
    endloop
  endfacet
  facet normal 0 0 -1
    outer loop
      vertex 12.64 34.253 0
      vertex 18.589 46.253 0
      vertex 20.687 46.93 0
    endloop
  endfacet
  facet normal 0 0 -1
    outer loop
      vertex 12.64 34.253 0
      vertex 20.687 46.93 0
      vertex 22.963 47.697 0
    endloop
  endfacet
  facet normal 0 0 -1
    outer loop
      vertex 12.64 34.253 0
      vertex 22.963 47.697 0
      vertex 24.381 47.559 0
    endloop
  endfacet
  facet normal 0 0 -1
    outer loop
      vertex 12.64 34.253 0
      vertex 24.381 47.559 0
      vertex 23.911 45.52 0
    endloop
  endfacet
  facet normal 0 0 -1
    outer loop
      vertex 12.64 34.253 0
      vertex 23.911 45.52 0
      vertex 20.854 42.439 0
    endloop
  endfacet
  facet normal 0 0 -1
    outer loop
      vertex 12.64 34.253 0
      vertex 20.854 42.439 0
      vertex 19.73 38.328 0
    endloop
  endfacet
  facet normal 0 0 -1
    outer loop
      vertex 19.73 38.328 0
      vertex 20.029 33.817 0
      vertex 12.64 34.253 0
    endloop
  endfacet
  facet normal 0 0 -1
    outer loop
      vertex 20.029 33.817 0
      vertex 21.239 29.536 0
      vertex 12.64 34.253 0
    endloop
  endfacet
  facet normal 0 0 -1
    outer loop
      vertex 21.239 29.536 0
      vertex 21.618 28.635 0
      vertex 12.64 34.253 0
    endloop
  endfacet
  facet normal 0 0 -1
    outer loop
      vertex 21.618 28.635 0
      vertex 22.036 27.881 0
      vertex 12.64 34.253 0
    endloop
  endfacet
  facet normal 0 0 -1
    outer loop
      vertex 22.036 27.881 0
      vertex 22.526 27.267 0
      vertex 12.64 34.253 0
    endloop
  endfacet
  facet normal 0 0 -1
    outer loop
      vertex 22.526 27.267 0
      vertex 22.908 26.921 0
      vertex 12.64 34.253 0
    endloop
  endfacet
  facet normal 0 0 -1
    outer loop
      vertex 23.986 26.481 0
      vertex 38.545 19.742 0
      vertex 23.222 26.767 0
    endloop
  endfacet
  facet normal 0 0 -1
    outer loop
      vertex 25.664 25.979 0
      vertex 38.545 19.742 0
      vertex 23.986 26.481 0
    endloop
  endfacet
  facet normal 0 0 -1
    outer loop
      vertex 43.822 48.844 0
      vertex 44.116 52.103 0
      vertex 43.656 45.54 0
    endloop
  endfacet
  facet normal 0 0 -1
    outer loop
      vertex 44.227 55.281 0
      vertex 43.846 58.343 0
      vertex 43.704 61.012 0
    endloop
  endfacet
  facet normal 0 0 -1
    outer loop
      vertex 44.227 55.281 0
      vertex 43.704 61.012 0
      vertex 43.62 63.673 0
    endloop
  endfacet
  facet normal 0 0 -1
    outer loop
      vertex 43.62 63.673 0
      vertex 43.668 66.343 0
      vertex 44.227 55.281 0
    endloop
  endfacet
  facet normal 0 0 -1
    outer loop
      vertex 44.227 55.281 0
      vertex 43.668 66.343 0
      vertex 43.922 69.041 0
    endloop
  endfacet
  facet normal 0 0 -1
    outer loop
      vertex 43.922 69.041 0
      vertex 42.646 73.644 0
      vertex 41.682 78.358 0
    endloop
  endfacet
  facet normal 0 0 -1
    outer loop
      vertex 38.74 87.487 0
      vertex 38.621 89.25 0
      vertex 40.543 83.024 0
    endloop
  endfacet
  facet normal 0 0 -1
    outer loop
      vertex 38.621 89.25 0
      vertex 38.172 91.234 0
      vertex 40.543 83.024 0
    endloop
  endfacet
  facet normal 0 0 -1
    outer loop
      vertex 38.172 91.234 0
      vertex 37.638 93.31 0
      vertex 40.543 83.024 0
    endloop
  endfacet
  facet normal 0 0 -1
    outer loop
      vertex 40.543 83.024 0
      vertex 37.638 93.31 0
      vertex 37.265 95.349 0
    endloop
  endfacet
  facet normal 0 0 -1
    outer loop
      vertex 50.22 136.605 0
      vertex 44.227 55.281 0
      vertex 43.922 69.041 0
    endloop
  endfacet
  facet normal 0 0 -1
    outer loop
      vertex 37.265 95.349 0
      vertex 36.51 99.008 0
      vertex 40.543 83.024 0
    endloop
  endfacet
  facet normal 0 0 -1
    outer loop
      vertex 35.433 102.532 0
      vertex 34.303 106.019 0
      vertex 33.386 109.564 0
    endloop
  endfacet
  facet normal 0 0 -1
    outer loop
      vertex 35.433 102.532 0
      vertex 33.386 109.564 0
      vertex 36.51 99.008 0
    endloop
  endfacet
  facet normal 0 0 -1
    outer loop
      vertex 36.51 99.008 0
      vertex 33.386 109.564 0
      vertex 33.067 112.378 0
    endloop
  endfacet
  facet normal 0 0 -1
    outer loop
      vertex 36.51 99.008 0
      vertex 32.468 115.113 0
      vertex 40.543 83.024 0
    endloop
  endfacet
  facet normal 0 0 -1
    outer loop
      vertex 33.067 112.378 0
      vertex 32.468 115.113 0
      vertex 36.51 99.008 0
    endloop
  endfacet
  facet normal 0 0 -1
    outer loop
      vertex 31.581 117.768 0
      vertex 30.4 120.341 0
      vertex 29.584 124.946 0
    endloop
  endfacet
  facet normal 0 0 -1
    outer loop
      vertex 31.581 117.768 0
      vertex 29.584 124.946 0
      vertex 32.468 115.113 0
    endloop
  endfacet
  facet normal 0 0 -1
    outer loop
      vertex 32.468 115.113 0
      vertex 29.584 124.946 0
      vertex 28.727 129.795 0
    endloop
  endfacet
  facet normal 0 0 -1
    outer loop
      vertex 50.22 136.605 0
      vertex 43.922 69.041 0
      vertex 49.83 139.296 0
    endloop
  endfacet
  facet normal 0 0 -1
    outer loop
      vertex 27.242 134.196 0
      vertex 24.543 137.457 0
      vertex 50.244 142.938 0
    endloop
  endfacet
  facet normal 0 0 -1
    outer loop
      vertex 27.242 134.196 0
      vertex 50.244 142.938 0
      vertex 28.727 129.795 0
    endloop
  endfacet
  facet normal 0 0 -1
    outer loop
      vertex 28.727 129.795 0
      vertex 50.244 142.938 0
      vertex 49.25 141.539 0
    endloop
  endfacet
  facet normal 0 0 -1
    outer loop
      vertex 28.727 129.795 0
      vertex 49.25 141.539 0
      vertex 32.468 115.113 0
    endloop
  endfacet
  facet normal 0 0 -1
    outer loop
      vertex 50.22 136.605 0
      vertex 44.116 52.103 0
      vertex 44.227 55.281 0
    endloop
  endfacet
  facet normal 0 0 -1
    outer loop
      vertex 41.682 78.358 0
      vertex 49.83 139.296 0
      vertex 43.922 69.041 0
    endloop
  endfacet
  facet normal 0 0 -1
    outer loop
      vertex 44.116 52.103 0
      vertex 50.22 136.605 0
      vertex 43.656 45.54 0
    endloop
  endfacet
  facet normal 0 0 -1
    outer loop
      vertex 43.656 45.54 0
      vertex 50.22 136.605 0
      vertex 50.955 134.02 0
    endloop
  endfacet
  facet normal 0 0 -1
    outer loop
      vertex 50.955 134.02 0
      vertex 51.798 131.456 0
      vertex 43.656 45.54 0
    endloop
  endfacet
  facet normal 0 0 -1
    outer loop
      vertex 43.656 45.54 0
      vertex 51.798 131.456 0
      vertex 52.517 128.829 0
    endloop
  endfacet
  facet normal 0 0 -1
    outer loop
      vertex 43.656 45.54 0
      vertex 52.517 128.829 0
      vertex 53.388 125.364 0
    endloop
  endfacet
  facet normal 0 0 -1
    outer loop
      vertex 43.656 45.54 0
      vertex 54.348 121.922 0
      vertex 43.019 40.922 0
    endloop
  endfacet
  facet normal 0 0 -1
    outer loop
      vertex 53.388 125.364 0
      vertex 54.348 121.922 0
      vertex 43.656 45.54 0
    endloop
  endfacet
  facet normal 0 0 -1
    outer loop
      vertex 43.019 40.922 0
      vertex 54.348 121.922 0
      vertex 55.27 118.341 0
    endloop
  endfacet
  facet normal 0 0 -1
    outer loop
      vertex 43.019 40.922 0
      vertex 55.27 118.341 0
      vertex 56.027 114.458 0
    endloop
  endfacet
  facet normal 0 0 -1
    outer loop
      vertex 43.019 40.922 0
      vertex 56.027 114.458 0
      vertex 57.011 109.859 0
    endloop
  endfacet
  facet normal 0 0 -1
    outer loop
      vertex 43.019 40.922 0
      vertex 57.011 109.859 0
      vertex 57.869 105.594 0
    endloop
  endfacet
  facet normal 0 0 -1
    outer loop
      vertex 43.019 40.922 0
      vertex 57.869 105.594 0
      vertex 42.102 36.41 0
    endloop
  endfacet
  facet normal 0 0 -1
    outer loop
      vertex 42.102 36.41 0
      vertex 57.869 105.594 0
      vertex 58.75 101.577 0
    endloop
  endfacet
  facet normal 0 0 -1
    outer loop
      vertex 58.75 101.577 0
      vertex 59.418 98.954 0
      vertex 42.102 36.41 0
    endloop
  endfacet
  facet normal 0 0 -1
    outer loop
      vertex 59.418 98.954 0
      vertex 59.763 97.907 0
      vertex 42.102 36.41 0
    endloop
  endfacet
  facet normal 0 0 -1
    outer loop
      vertex 42.102 36.41 0
      vertex 59.763 97.907 0
      vertex 60.21 96.497 0
    endloop
  endfacet
  facet normal 0 0 -1
    outer loop
      vertex 42.102 36.41 0
      vertex 60.21 96.497 0
      vertex 60.639 94.74 0
    endloop
  endfacet
  facet normal 0 0 -1
    outer loop
      vertex 42.102 36.41 0
      vertex 60.639 94.74 0
      vertex 40.782 32.17 0
    endloop
  endfacet
  facet normal 0 0 -1
    outer loop
      vertex 40.782 32.17 0
      vertex 60.639 94.74 0
      vertex 60.956 93.115 0
    endloop
  endfacet
  facet normal 0 0 -1
    outer loop
      vertex 40.782 32.17 0
      vertex 60.956 93.115 0
      vertex 61.314 91.357 0
    endloop
  endfacet
  facet normal 0 0 -1
    outer loop
      vertex 61.314 91.357 0
      vertex 61.97 88.272 0
      vertex 40.782 32.17 0
    endloop
  endfacet
  facet normal 0 0 -1
    outer loop
      vertex 40.782 32.17 0
      vertex 61.97 88.272 0
      vertex 62.64 84.883 0
    endloop
  endfacet
  facet normal 0 0 -1
    outer loop
      vertex 40.782 32.17 0
      vertex 62.64 84.883 0
      vertex 63.023 82.616 0
    endloop
  endfacet
  facet normal 0 0 -1
    outer loop
      vertex 40.782 32.17 0
      vertex 63.023 82.616 0
      vertex 63.083 81.715 0
    endloop
  endfacet
  facet normal 0 0 -1
    outer loop
      vertex 40.782 32.17 0
      vertex 63.083 81.715 0
      vertex 63.143 80.368 0
    endloop
  endfacet
  facet normal 0 0 -1
    outer loop
      vertex 40.782 32.17 0
      vertex 63.143 80.368 0
      vertex 63.249 78.571 0
    endloop
  endfacet
  facet normal 0 0 -1
    outer loop
      vertex 40.782 32.17 0
      vertex 63.249 78.571 0
      vertex 38.942 28.368 0
    endloop
  endfacet
  facet normal 0 0 -1
    outer loop
      vertex 63.249 78.571 0
      vertex 63.385 76.919 0
      vertex 38.942 28.368 0
    endloop
  endfacet
  facet normal 0 0 -1
    outer loop
      vertex 63.385 76.919 0
      vertex 63.559 75.34 0
      vertex 38.942 28.368 0
    endloop
  endfacet
  facet normal 0 0 -1
    outer loop
      vertex 63.559 75.34 0
      vertex 63.909 72.532 0
      vertex 38.942 28.368 0
    endloop
  endfacet
  facet normal 0 0 -1
    outer loop
      vertex 63.909 72.532 0
      vertex 64.475 68.999 0
      vertex 38.942 28.368 0
    endloop
  endfacet
  facet normal 0 0 -1
    outer loop
      vertex 64.475 68.999 0
      vertex 65.009 66.213 0
      vertex 38.942 28.368 0
    endloop
  endfacet
  facet normal 0 0 -1
    outer loop
      vertex 38.942 28.368 0
      vertex 65.009 66.213 0
      vertex 64.954 64.275 0
    endloop
  endfacet
  facet normal 0 0 -1
    outer loop
      vertex 38.942 28.368 0
      vertex 64.954 64.275 0
      vertex 64.54 61.069 0
    endloop
  endfacet
  facet normal 0 0 -1
    outer loop
      vertex 38.942 28.368 0
      vertex 64.54 61.069 0
      vertex 64.036 57.693 0
    endloop
  endfacet
  facet normal 0 0 -1
    outer loop
      vertex 38.942 28.368 0
      vertex 64.036 57.693 0
      vertex 63.885 54.489 0
    endloop
  endfacet
  facet normal 0 0 -1
    outer loop
      vertex 38.942 28.368 0
      vertex 63.885 54.489 0
      vertex 63.341 52.518 0
    endloop
  endfacet
  facet normal 0 0 -1
    outer loop
      vertex 38.942 28.368 0
      vertex 63.341 52.518 0
      vertex 61.976 47.894 0
    endloop
  endfacet
  facet normal 0 0 -1
    outer loop
      vertex 38.942 28.368 0
      vertex 61.976 47.894 0
      vertex 60.189 42.553 0
    endloop
  endfacet
  facet normal 0 0 -1
    outer loop
      vertex 38.942 28.368 0
      vertex 60.189 42.553 0
      vertex 36.111 26.238 0
    endloop
  endfacet
  facet normal 0 0 -1
    outer loop
      vertex 36.111 26.238 0
      vertex 60.189 42.553 0
      vertex 58.381 38.43 0
    endloop
  endfacet
  facet normal 0 0 -1
    outer loop
      vertex 36.111 26.238 0
      vertex 58.381 38.43 0
      vertex 57.104 35.9 0
    endloop
  endfacet
  facet normal 0 0 -1
    outer loop
      vertex 36.111 26.238 0
      vertex 57.104 35.9 0
      vertex 55.489 33.102 0
    endloop
  endfacet
  facet normal 0 0 -1
    outer loop
      vertex 36.111 26.238 0
      vertex 55.489 33.102 0
      vertex 54.104 30.836 0
    endloop
  endfacet
  facet normal 0 0 -1
    outer loop
      vertex 36.111 26.238 0
      vertex 54.104 30.836 0
      vertex 32.737 25.308 0
    endloop
  endfacet
  facet normal 0 0 -1
    outer loop
      vertex 32.737 25.308 0
      vertex 54.104 30.836 0
      vertex 53.516 29.903 0
    endloop
  endfacet
  facet normal 0 0 -1
    outer loop
      vertex 32.737 25.308 0
      vertex 53.516 29.903 0
      vertex 52.943 29.124 0
    endloop
  endfacet
  facet normal 0 0 -1
    outer loop
      vertex 32.737 25.308 0
      vertex 52.943 29.124 0
      vertex 52.371 28.346 0
    endloop
  endfacet
  facet normal 0 0 -1
    outer loop
      vertex 32.737 25.308 0
      vertex 52.371 28.346 0
      vertex 51.798 27.567 0
    endloop
  endfacet
  facet normal 0 0 -1
    outer loop
      vertex 32.737 25.308 0
      vertex 51.798 27.567 0
      vertex 51.225 26.789 0
    endloop
  endfacet
  facet normal 0 0 -1
    outer loop
      vertex 32.737 25.308 0
      vertex 51.225 26.789 0
      vertex 49.924 25.831 0
    endloop
  endfacet
  facet normal 0 0 -1
    outer loop
      vertex 32.737 25.308 0
      vertex 49.924 25.831 0
      vertex 46.7 23.647 0
    endloop
  endfacet
  facet normal 0 0 -1
    outer loop
      vertex 32.737 25.308 0
      vertex 46.7 23.647 0
      vertex 29.439 25.227 0
    endloop
  endfacet
  facet normal 0 0 -1
    outer loop
      vertex 29.439 25.227 0
      vertex 46.7 23.647 0
      vertex 42.568 21.273 0
    endloop
  endfacet
  facet normal 0 0 -1
    outer loop
      vertex 29.439 25.227 0
      vertex 42.568 21.273 0
      vertex 27.502 25.465 0
    endloop
  endfacet
  facet normal 0 0 -1
    outer loop
      vertex 27.502 25.465 0
      vertex 42.568 21.273 0
      vertex 38.545 19.742 0
    endloop
  endfacet
  facet normal 0 0 -1
    outer loop
      vertex 27.502 25.465 0
      vertex 38.545 19.742 0
      vertex 25.664 25.979 0
    endloop
  endfacet
  facet normal 0 0 -1
    outer loop
      vertex 23.222 26.767 0
      vertex 38.545 19.742 0
      vertex 36.199 19.354 0
    endloop
  endfacet
  facet normal 0 0 -1
    outer loop
      vertex 23.222 26.767 0
      vertex 36.199 19.354 0
      vertex 22.908 26.921 0
    endloop
  endfacet
  facet normal 0 0 -1
    outer loop
      vertex 22.908 26.921 0
      vertex 36.199 19.354 0
      vertex 33.759 19.233 0
    endloop
  endfacet
  facet normal 0 0 -1
    outer loop
      vertex 22.908 26.921 0
      vertex 33.759 19.233 0
      vertex 31.275 19.344 0
    endloop
  endfacet
  facet normal 0 0 -1
    outer loop
      vertex 22.908 26.921 0
      vertex 31.275 19.344 0
      vertex 12.64 34.253 0
    endloop
  endfacet
  facet normal 0 0 -1
    outer loop
      vertex 12.64 34.253 0
      vertex 31.275 19.344 0
      vertex 28.797 19.652 0
    endloop
  endfacet
  facet normal 0 0 -1
    outer loop
      vertex 12.64 34.253 0
      vertex 28.797 19.652 0
      vertex 25.886 19.781 0
    endloop
  endfacet
  facet normal 0 0 -1
    outer loop
      vertex 12.64 34.253 0
      vertex 25.886 19.781 0
      vertex 23.54 20.153 0
    endloop
  endfacet
  facet normal 0 0 -1
    outer loop
      vertex 12.64 34.253 0
      vertex 23.54 20.153 0
      vertex 21.363 21.081 0
    endloop
  endfacet
  facet normal 0 0 -1
    outer loop
      vertex 12.64 34.253 0
      vertex 21.363 21.081 0
      vertex 18.957 22.878 0
    endloop
  endfacet
  facet normal 0 0 -1
    outer loop
      vertex 12.64 34.253 0
      vertex 18.957 22.878 0
      vertex 16.024 24.999 0
    endloop
  endfacet
  facet normal 0 0 -1
    outer loop
      vertex 12.64 34.253 0
      vertex 16.024 24.999 0
      vertex 14.22 27.595 0
    endloop
  endfacet
  facet normal 0 0 -1
    outer loop
      vertex 12.64 34.253 0
      vertex 14.22 27.595 0
      vertex 13.205 30.677 0
    endloop
  endfacet
  facet normal 0 0 -1
    outer loop
      vertex 49.83 139.296 0
      vertex 41.682 78.358 0
      vertex 40.543 83.024 0
    endloop
  endfacet
  facet normal 0 0 -1
    outer loop
      vertex 49.83 139.296 0
      vertex 40.543 83.024 0
      vertex 32.468 115.113 0
    endloop
  endfacet
  facet normal 0 0 -1
    outer loop
      vertex 49.83 139.296 0
      vertex 32.468 115.113 0
      vertex 49.25 141.539 0
    endloop
  endfacet
  facet normal 0.997811 0.0661373 0
    outer loop
      vertex 19.73 38.328 0
      vertex 19.73 38.328 10
      vertex 20.029 33.817 10
    endloop
  endfacet
  facet normal 0.997811 0.0661373 0
    outer loop
      vertex 20.029 33.817 0
      vertex 19.73 38.328 0
      vertex 20.029 33.817 10
    endloop
  endfacet
  facet normal 0 0 1
    outer loop
      vertex 12.64 34.253 10
      vertex 13.205 30.677 10
      vertex 14.22 27.595 10
    endloop
  endfacet
  facet normal 0 0 1
    outer loop
      vertex 18.957 22.878 10
      vertex 12.64 34.253 10
      vertex 16.024 24.999 10
    endloop
  endfacet
  facet normal 0 0 1
    outer loop
      vertex 16.024 24.999 10
      vertex 12.64 34.253 10
      vertex 14.22 27.595 10
    endloop
  endfacet
  facet normal 0 0 1
    outer loop
      vertex 21.363 21.081 10
      vertex 12.64 34.253 10
      vertex 18.957 22.878 10
    endloop
  endfacet
  facet normal 0 0 1
    outer loop
      vertex 23.54 20.153 10
      vertex 12.64 34.253 10
      vertex 21.363 21.081 10
    endloop
  endfacet
  facet normal 0 0 1
    outer loop
      vertex 25.886 19.781 10
      vertex 12.64 34.253 10
      vertex 23.54 20.153 10
    endloop
  endfacet
  facet normal 0 0 1
    outer loop
      vertex 28.797 19.652 10
      vertex 12.64 34.253 10
      vertex 25.886 19.781 10
    endloop
  endfacet
  facet normal 0 0 1
    outer loop
      vertex 31.275 19.344 10
      vertex 12.64 34.253 10
      vertex 28.797 19.652 10
    endloop
  endfacet
  facet normal 0 0 1
    outer loop
      vertex 22.908 26.921 10
      vertex 12.64 34.253 10
      vertex 31.275 19.344 10
    endloop
  endfacet
  facet normal 0 0 1
    outer loop
      vertex 22.908 26.921 10
      vertex 22.526 27.267 10
      vertex 12.64 34.253 10
    endloop
  endfacet
  facet normal 0 0 1
    outer loop
      vertex 23.222 26.767 10
      vertex 22.908 26.921 10
      vertex 33.759 19.233 10
    endloop
  endfacet
  facet normal 0 0 1
    outer loop
      vertex 36.111 26.238 10
      vertex 32.737 25.308 10
      vertex 42.568 21.273 10
    endloop
  endfacet
  facet normal 0 0 1
    outer loop
      vertex 29.439 25.227 10
      vertex 27.502 25.465 10
      vertex 38.545 19.742 10
    endloop
  endfacet
  facet normal 0 0 1
    outer loop
      vertex 38.942 28.368 10
      vertex 46.7 23.647 10
      vertex 49.924 25.831 10
    endloop
  endfacet
  facet normal 0 0 1
    outer loop
      vertex 38.942 28.368 10
      vertex 36.111 26.238 10
      vertex 46.7 23.647 10
    endloop
  endfacet
  facet normal 0 0 1
    outer loop
      vertex 21.239 29.536 10
      vertex 20.029 33.817 10
      vertex 12.64 34.253 10
    endloop
  endfacet
  facet normal 0 0 1
    outer loop
      vertex 40.782 32.17 10
      vertex 52.943 29.124 10
      vertex 53.516 29.903 10
    endloop
  endfacet
  facet normal 0 0 1
    outer loop
      vertex 40.782 32.17 10
      vertex 52.371 28.346 10
      vertex 52.943 29.124 10
    endloop
  endfacet
  facet normal 0 0 1
    outer loop
      vertex 42.102 36.41 10
      vertex 55.489 33.102 10
      vertex 57.104 35.9 10
    endloop
  endfacet
  facet normal 0 0 1
    outer loop
      vertex 43.019 40.922 10
      vertex 58.381 38.43 10
      vertex 60.189 42.553 10
    endloop
  endfacet
  facet normal 0 0 1
    outer loop
      vertex 43.019 40.922 10
      vertex 42.102 36.41 10
      vertex 58.381 38.43 10
    endloop
  endfacet
  facet normal 0 0 1
    outer loop
      vertex 43.656 45.54 10
      vertex 61.976 47.894 10
      vertex 63.341 52.518 10
    endloop
  endfacet
  facet normal 0 0 1
    outer loop
      vertex 43.656 45.54 10
      vertex 43.019 40.922 10
      vertex 61.976 47.894 10
    endloop
  endfacet
  facet normal 0 0 1
    outer loop
      vertex 43.822 48.844 10
      vertex 63.885 54.489 10
      vertex 64.036 57.693 10
    endloop
  endfacet
  facet normal 0 0 1
    outer loop
      vertex 44.116 52.103 10
      vertex 43.822 48.844 10
      vertex 64.54 61.069 10
    endloop
  endfacet
  facet normal 0 0 1
    outer loop
      vertex 40.782 32.17 10
      vertex 51.798 27.567 10
      vertex 52.371 28.346 10
    endloop
  endfacet
  facet normal 0 0 1
    outer loop
      vertex 43.846 58.343 10
      vertex 64.475 68.999 10
      vertex 63.909 72.532 10
    endloop
  endfacet
  facet normal 0 0 1
    outer loop
      vertex 43.846 58.343 10
      vertex 44.227 55.281 10
      vertex 64.475 68.999 10
    endloop
  endfacet
  facet normal 0 0 1
    outer loop
      vertex 43.704 61.012 10
      vertex 63.559 75.34 10
      vertex 63.385 76.919 10
    endloop
  endfacet
  facet normal 0 0 1
    outer loop
      vertex 43.704 61.012 10
      vertex 43.846 58.343 10
      vertex 63.559 75.34 10
    endloop
  endfacet
  facet normal 0 0 1
    outer loop
      vertex 44.227 55.281 10
      vertex 64.954 64.275 10
      vertex 65.009 66.213 10
    endloop
  endfacet
  facet normal 0 0 1
    outer loop
      vertex 43.62 63.673 10
      vertex 63.143 80.368 10
      vertex 63.083 81.715 10
    endloop
  endfacet
  facet normal 0 0 1
    outer loop
      vertex 40.782 32.17 10
      vertex 38.942 28.368 10
      vertex 51.225 26.789 10
    endloop
  endfacet
  facet normal 0 0 1
    outer loop
      vertex 23.911 45.52 10
      vertex 12.64 34.253 10
      vertex 20.854 42.439 10
    endloop
  endfacet
  facet normal 0 0 1
    outer loop
      vertex 22.963 47.697 10
      vertex 20.687 46.93 10
      vertex 12.64 34.253 10
    endloop
  endfacet
  facet normal 0 0 1
    outer loop
      vertex 41.682 78.358 10
      vertex 59.763 97.907 10
      vertex 59.418 98.954 10
    endloop
  endfacet
  facet normal 0 0 1
    outer loop
      vertex 41.682 78.358 10
      vertex 42.646 73.644 10
      vertex 59.763 97.907 10
    endloop
  endfacet
  facet normal 0 0 1
    outer loop
      vertex 40.543 83.024 10
      vertex 57.869 105.594 10
      vertex 57.011 109.859 10
    endloop
  endfacet
  facet normal 0 0 1
    outer loop
      vertex 38.621 89.25 10
      vertex 38.74 87.487 10
      vertex 54.348 121.922 10
    endloop
  endfacet
  facet normal 0 0 1
    outer loop
      vertex 37.638 93.31 10
      vertex 38.172 91.234 10
      vertex 53.388 125.364 10
    endloop
  endfacet
  facet normal 0 0 1
    outer loop
      vertex 37.265 95.349 10
      vertex 37.638 93.31 10
      vertex 52.517 128.829 10
    endloop
  endfacet
  facet normal 0 0 1
    outer loop
      vertex 38.74 87.487 10
      vertex 56.027 114.458 10
      vertex 55.27 118.341 10
    endloop
  endfacet
  facet normal 0 0 1
    outer loop
      vertex 36.51 99.008 10
      vertex 51.798 131.456 10
      vertex 50.955 134.02 10
    endloop
  endfacet
  facet normal 0 0 1
    outer loop
      vertex 36.51 99.008 10
      vertex 37.265 95.349 10
      vertex 51.798 131.456 10
    endloop
  endfacet
  facet normal 0 0 1
    outer loop
      vertex 38.74 87.487 10
      vertex 40.543 83.024 10
      vertex 56.027 114.458 10
    endloop
  endfacet
  facet normal 0 0 1
    outer loop
      vertex 50.244 142.938 10
      vertex 24.543 137.457 10
      vertex 49.25 141.539 10
    endloop
  endfacet
  facet normal 0 0 1
    outer loop
      vertex 24.543 137.457 10
      vertex 27.242 134.196 10
      vertex 49.25 141.539 10
    endloop
  endfacet
  facet normal 0 0 1
    outer loop
      vertex 27.242 134.196 10
      vertex 28.727 129.795 10
      vertex 49.25 141.539 10
    endloop
  endfacet
  facet normal 0 0 1
    outer loop
      vertex 28.727 129.795 10
      vertex 29.584 124.946 10
      vertex 49.25 141.539 10
    endloop
  endfacet
  facet normal 0 0 1
    outer loop
      vertex 29.584 124.946 10
      vertex 30.4 120.341 10
      vertex 49.25 141.539 10
    endloop
  endfacet
  facet normal 0 0 1
    outer loop
      vertex 13.762 41.397 10
      vertex 12.926 37.874 10
      vertex 12.64 34.253 10
    endloop
  endfacet
  facet normal 0 0 1
    outer loop
      vertex 30.4 120.341 10
      vertex 31.581 117.768 10
      vertex 49.25 141.539 10
    endloop
  endfacet
  facet normal 0 0 1
    outer loop
      vertex 31.581 117.768 10
      vertex 32.468 115.113 10
      vertex 49.25 141.539 10
    endloop
  endfacet
  facet normal 0 0 1
    outer loop
      vertex 32.468 115.113 10
      vertex 33.067 112.378 10
      vertex 49.25 141.539 10
    endloop
  endfacet
  facet normal 0 0 1
    outer loop
      vertex 33.067 112.378 10
      vertex 33.386 109.564 10
      vertex 49.25 141.539 10
    endloop
  endfacet
  facet normal 0 0 1
    outer loop
      vertex 33.386 109.564 10
      vertex 34.303 106.019 10
      vertex 49.25 141.539 10
    endloop
  endfacet
  facet normal 0 0 1
    outer loop
      vertex 34.303 106.019 10
      vertex 35.433 102.532 10
      vertex 49.25 141.539 10
    endloop
  endfacet
  facet normal 0 0 1
    outer loop
      vertex 50.22 136.605 10
      vertex 36.51 99.008 10
      vertex 50.955 134.02 10
    endloop
  endfacet
  facet normal 0 0 1
    outer loop
      vertex 51.798 131.456 10
      vertex 37.265 95.349 10
      vertex 52.517 128.829 10
    endloop
  endfacet
  facet normal 0 0 1
    outer loop
      vertex 52.517 128.829 10
      vertex 37.638 93.31 10
      vertex 53.388 125.364 10
    endloop
  endfacet
  facet normal 0 0 1
    outer loop
      vertex 53.388 125.364 10
      vertex 38.172 91.234 10
      vertex 54.348 121.922 10
    endloop
  endfacet
  facet normal 0 0 1
    outer loop
      vertex 15.523 44.349 10
      vertex 13.762 41.397 10
      vertex 12.64 34.253 10
    endloop
  endfacet
  facet normal 0 0 1
    outer loop
      vertex 38.172 91.234 10
      vertex 38.621 89.25 10
      vertex 54.348 121.922 10
    endloop
  endfacet
  facet normal 0 0 1
    outer loop
      vertex 54.348 121.922 10
      vertex 38.74 87.487 10
      vertex 55.27 118.341 10
    endloop
  endfacet
  facet normal 0 0 1
    outer loop
      vertex 56.027 114.458 10
      vertex 40.543 83.024 10
      vertex 57.011 109.859 10
    endloop
  endfacet
  facet normal 0 0 1
    outer loop
      vertex 57.869 105.594 10
      vertex 41.682 78.358 10
      vertex 58.75 101.577 10
    endloop
  endfacet
  facet normal 0 0 1
    outer loop
      vertex 59.763 97.907 10
      vertex 42.646 73.644 10
      vertex 60.21 96.497 10
    endloop
  endfacet
  facet normal 0 0 1
    outer loop
      vertex 24.381 47.559 10
      vertex 22.963 47.697 10
      vertex 12.64 34.253 10
    endloop
  endfacet
  facet normal 0 0 1
    outer loop
      vertex 61.314 91.357 10
      vertex 43.922 69.041 10
      vertex 61.97 88.272 10
    endloop
  endfacet
  facet normal 0 0 1
    outer loop
      vertex 61.97 88.272 10
      vertex 43.668 66.343 10
      vertex 62.64 84.883 10
    endloop
  endfacet
  facet normal 0 0 1
    outer loop
      vertex 63.023 82.616 10
      vertex 43.62 63.673 10
      vertex 63.083 81.715 10
    endloop
  endfacet
  facet normal 0 0 1
    outer loop
      vertex 63.249 78.571 10
      vertex 43.704 61.012 10
      vertex 63.385 76.919 10
    endloop
  endfacet
  facet normal 0 0 1
    outer loop
      vertex 23.911 45.52 10
      vertex 24.381 47.559 10
      vertex 12.64 34.253 10
    endloop
  endfacet
  facet normal 0 0 1
    outer loop
      vertex 63.559 75.34 10
      vertex 43.846 58.343 10
      vertex 63.909 72.532 10
    endloop
  endfacet
  facet normal 0 0 1
    outer loop
      vertex 64.475 68.999 10
      vertex 44.227 55.281 10
      vertex 65.009 66.213 10
    endloop
  endfacet
  facet normal 0 0 1
    outer loop
      vertex 64.954 64.275 10
      vertex 44.116 52.103 10
      vertex 64.54 61.069 10
    endloop
  endfacet
  facet normal 0 0 1
    outer loop
      vertex 64.54 61.069 10
      vertex 43.822 48.844 10
      vertex 64.036 57.693 10
    endloop
  endfacet
  facet normal 0 0 1
    outer loop
      vertex 63.885 54.489 10
      vertex 43.656 45.54 10
      vertex 63.341 52.518 10
    endloop
  endfacet
  facet normal 0 0 1
    outer loop
      vertex 61.976 47.894 10
      vertex 43.019 40.922 10
      vertex 60.189 42.553 10
    endloop
  endfacet
  facet normal 0 0 1
    outer loop
      vertex 19.73 38.328 10
      vertex 20.854 42.439 10
      vertex 12.64 34.253 10
    endloop
  endfacet
  facet normal 0 0 1
    outer loop
      vertex 58.381 38.43 10
      vertex 42.102 36.41 10
      vertex 57.104 35.9 10
    endloop
  endfacet
  facet normal 0 0 1
    outer loop
      vertex 55.489 33.102 10
      vertex 40.782 32.17 10
      vertex 54.104 30.836 10
    endloop
  endfacet
  facet normal 0 0 1
    outer loop
      vertex 51.225 26.789 10
      vertex 38.942 28.368 10
      vertex 49.924 25.831 10
    endloop
  endfacet
  facet normal 0 0 1
    outer loop
      vertex 46.7 23.647 10
      vertex 36.111 26.238 10
      vertex 42.568 21.273 10
    endloop
  endfacet
  facet normal 0 0 1
    outer loop
      vertex 42.568 21.273 10
      vertex 32.737 25.308 10
      vertex 38.545 19.742 10
    endloop
  endfacet
  facet normal 0 0 1
    outer loop
      vertex 32.737 25.308 10
      vertex 29.439 25.227 10
      vertex 38.545 19.742 10
    endloop
  endfacet
  facet normal 0 0 1
    outer loop
      vertex 38.545 19.742 10
      vertex 27.502 25.465 10
      vertex 36.199 19.354 10
    endloop
  endfacet
  facet normal 0 0 1
    outer loop
      vertex 36.199 19.354 10
      vertex 25.664 25.979 10
      vertex 33.759 19.233 10
    endloop
  endfacet
  facet normal 0 0 1
    outer loop
      vertex 22.526 27.267 10
      vertex 22.036 27.881 10
      vertex 12.64 34.253 10
    endloop
  endfacet
  facet normal 0 0 1
    outer loop
      vertex 25.664 25.979 10
      vertex 23.986 26.481 10
      vertex 33.759 19.233 10
    endloop
  endfacet
  facet normal 0 0 1
    outer loop
      vertex 23.986 26.481 10
      vertex 23.222 26.767 10
      vertex 33.759 19.233 10
    endloop
  endfacet
  facet normal 0 0 1
    outer loop
      vertex 33.759 19.233 10
      vertex 22.908 26.921 10
      vertex 31.275 19.344 10
    endloop
  endfacet
  facet normal 0 0 1
    outer loop
      vertex 22.036 27.881 10
      vertex 21.618 28.635 10
      vertex 12.64 34.253 10
    endloop
  endfacet
  facet normal 0 0 1
    outer loop
      vertex 21.618 28.635 10
      vertex 21.239 29.536 10
      vertex 12.64 34.253 10
    endloop
  endfacet
  facet normal 0 0 1
    outer loop
      vertex 27.502 25.465 10
      vertex 25.664 25.979 10
      vertex 36.199 19.354 10
    endloop
  endfacet
  facet normal 0 0 1
    outer loop
      vertex 20.029 33.817 10
      vertex 19.73 38.328 10
      vertex 12.64 34.253 10
    endloop
  endfacet
  facet normal 0 0 1
    outer loop
      vertex 40.782 32.17 10
      vertex 53.516 29.903 10
      vertex 54.104 30.836 10
    endloop
  endfacet
  facet normal 0 0 1
    outer loop
      vertex 43.822 48.844 10
      vertex 43.656 45.54 10
      vertex 63.885 54.489 10
    endloop
  endfacet
  facet normal 0 0 1
    outer loop
      vertex 42.102 36.41 10
      vertex 40.782 32.17 10
      vertex 55.489 33.102 10
    endloop
  endfacet
  facet normal 0 0 1
    outer loop
      vertex 43.62 63.673 10
      vertex 63.249 78.571 10
      vertex 63.143 80.368 10
    endloop
  endfacet
  facet normal 0 0 1
    outer loop
      vertex 40.782 32.17 10
      vertex 51.225 26.789 10
      vertex 51.798 27.567 10
    endloop
  endfacet
  facet normal 0 0 1
    outer loop
      vertex 43.62 63.673 10
      vertex 43.704 61.012 10
      vertex 63.249 78.571 10
    endloop
  endfacet
  facet normal 0 0 1
    outer loop
      vertex 44.227 55.281 10
      vertex 44.116 52.103 10
      vertex 64.954 64.275 10
    endloop
  endfacet
  facet normal 0 0 1
    outer loop
      vertex 43.922 69.041 10
      vertex 43.668 66.343 10
      vertex 61.97 88.272 10
    endloop
  endfacet
  facet normal 0 0 1
    outer loop
      vertex 43.668 66.343 10
      vertex 63.023 82.616 10
      vertex 62.64 84.883 10
    endloop
  endfacet
  facet normal 0 0 1
    outer loop
      vertex 43.668 66.343 10
      vertex 43.62 63.673 10
      vertex 63.023 82.616 10
    endloop
  endfacet
  facet normal 0 0 1
    outer loop
      vertex 20.687 46.93 10
      vertex 18.589 46.253 10
      vertex 12.64 34.253 10
    endloop
  endfacet
  facet normal 0 0 1
    outer loop
      vertex 41.682 78.358 10
      vertex 59.418 98.954 10
      vertex 58.75 101.577 10
    endloop
  endfacet
  facet normal 0 0 1
    outer loop
      vertex 40.543 83.024 10
      vertex 41.682 78.358 10
      vertex 57.869 105.594 10
    endloop
  endfacet
  facet normal 0 0 1
    outer loop
      vertex 35.433 102.532 10
      vertex 49.83 139.296 10
      vertex 49.25 141.539 10
    endloop
  endfacet
  facet normal 0 0 1
    outer loop
      vertex 35.433 102.532 10
      vertex 50.22 136.605 10
      vertex 49.83 139.296 10
    endloop
  endfacet
  facet normal 0 0 1
    outer loop
      vertex 35.433 102.532 10
      vertex 36.51 99.008 10
      vertex 50.22 136.605 10
    endloop
  endfacet
  facet normal 0 0 1
    outer loop
      vertex 42.646 73.644 10
      vertex 60.639 94.74 10
      vertex 60.21 96.497 10
    endloop
  endfacet
  facet normal 0 0 1
    outer loop
      vertex 42.646 73.644 10
      vertex 60.956 93.115 10
      vertex 60.639 94.74 10
    endloop
  endfacet
  facet normal 0 0 1
    outer loop
      vertex 42.646 73.644 10
      vertex 61.314 91.357 10
      vertex 60.956 93.115 10
    endloop
  endfacet
  facet normal 0 0 1
    outer loop
      vertex 42.646 73.644 10
      vertex 43.922 69.041 10
      vertex 61.314 91.357 10
    endloop
  endfacet
  facet normal 0 0 1
    outer loop
      vertex 18.589 46.253 10
      vertex 15.523 44.349 10
      vertex 12.64 34.253 10
    endloop
  endfacet
  facet normal 0.709866 -0.704337 0
    outer loop
      vertex 20.854 42.439 0
      vertex 23.911 45.52 0
      vertex 23.911 45.52 10
    endloop
  endfacet
  facet normal 0.709866 -0.704337 0
    outer loop
      vertex 20.854 42.439 10
      vertex 20.854 42.439 0
      vertex 23.911 45.52 10
    endloop
  endfacet
  facet normal -0.987747 -0.156062 0
    outer loop
      vertex 13.205 30.677 0
      vertex 13.205 30.677 10
      vertex 12.64 34.253 0
    endloop
  endfacet
  facet normal -0.987747 -0.156062 0
    outer loop
      vertex 12.64 34.253 0
      vertex 13.205 30.677 10
      vertex 12.64 34.253 10
    endloop
  endfacet
  facet normal -0.996895 0.0787385 0
    outer loop
      vertex 12.64 34.253 10
      vertex 12.926 37.874 10
      vertex 12.64 34.253 0
    endloop
  endfacet
  facet normal -0.996895 0.0787385 0
    outer loop
      vertex 12.64 34.253 0
      vertex 12.926 37.874 10
      vertex 12.926 37.874 0
    endloop
  endfacet
  facet normal -0.949817 -0.312805 0
    outer loop
      vertex 14.22 27.595 0
      vertex 14.22 27.595 10
      vertex 13.205 30.677 0
    endloop
  endfacet
  facet normal -0.949817 -0.312805 0
    outer loop
      vertex 13.205 30.677 0
      vertex 14.22 27.595 10
      vertex 13.205 30.677 10
    endloop
  endfacet
  facet normal -0.821189 -0.570657 0
    outer loop
      vertex 16.024 24.999 0
      vertex 16.024 24.999 10
      vertex 14.22 27.595 0
    endloop
  endfacet
  facet normal -0.821189 -0.570657 0
    outer loop
      vertex 14.22 27.595 0
      vertex 16.024 24.999 10
      vertex 14.22 27.595 10
    endloop
  endfacet
  facet normal -0.585985 -0.810322 0
    outer loop
      vertex 16.024 24.999 0
      vertex 18.957 22.878 0
      vertex 18.957 22.878 10
    endloop
  endfacet
  facet normal -0.585985 -0.810322 0
    outer loop
      vertex 16.024 24.999 10
      vertex 16.024 24.999 0
      vertex 18.957 22.878 10
    endloop
  endfacet
  facet normal -0.5984 -0.801197 0
    outer loop
      vertex 18.957 22.878 0
      vertex 21.363 21.081 0
      vertex 21.363 21.081 10
    endloop
  endfacet
  facet normal -0.5984 -0.801197 0
    outer loop
      vertex 18.957 22.878 10
      vertex 18.957 22.878 0
      vertex 21.363 21.081 10
    endloop
  endfacet
  facet normal -0.392134 -0.919908 0
    outer loop
      vertex 21.363 21.081 0
      vertex 23.54 20.153 0
      vertex 23.54 20.153 10
    endloop
  endfacet
  facet normal -0.392134 -0.919908 0
    outer loop
      vertex 21.363 21.081 10
      vertex 21.363 21.081 0
      vertex 23.54 20.153 10
    endloop
  endfacet
  facet normal -0.156611 -0.98766 0
    outer loop
      vertex 23.54 20.153 0
      vertex 25.886 19.781 0
      vertex 25.886 19.781 10
    endloop
  endfacet
  facet normal -0.156611 -0.98766 0
    outer loop
      vertex 23.54 20.153 10
      vertex 23.54 20.153 0
      vertex 25.886 19.781 10
    endloop
  endfacet
  facet normal -0.0442712 -0.99902 0
    outer loop
      vertex 25.886 19.781 0
      vertex 28.797 19.652 0
      vertex 28.797 19.652 10
    endloop
  endfacet
  facet normal -0.0442712 -0.99902 0
    outer loop
      vertex 25.886 19.781 10
      vertex 25.886 19.781 0
      vertex 28.797 19.652 10
    endloop
  endfacet
  facet normal -0.123345 -0.992364 0
    outer loop
      vertex 28.797 19.652 0
      vertex 31.275 19.344 0
      vertex 31.275 19.344 10
    endloop
  endfacet
  facet normal -0.123345 -0.992364 0
    outer loop
      vertex 28.797 19.652 10
      vertex 28.797 19.652 0
      vertex 31.275 19.344 10
    endloop
  endfacet
  facet normal -0.0446414 -0.999003 0
    outer loop
      vertex 31.275 19.344 0
      vertex 33.759 19.233 0
      vertex 33.759 19.233 10
    endloop
  endfacet
  facet normal -0.0446414 -0.999003 0
    outer loop
      vertex 31.275 19.344 10
      vertex 31.275 19.344 0
      vertex 33.759 19.233 10
    endloop
  endfacet
  facet normal 0.0495293 -0.998773 0
    outer loop
      vertex 33.759 19.233 0
      vertex 36.199 19.354 0
      vertex 36.199 19.354 10
    endloop
  endfacet
  facet normal 0.0495293 -0.998773 0
    outer loop
      vertex 33.759 19.233 10
      vertex 33.759 19.233 0
      vertex 36.199 19.354 10
    endloop
  endfacet
  facet normal 0.163171 -0.986598 0
    outer loop
      vertex 36.199 19.354 0
      vertex 38.545 19.742 0
      vertex 38.545 19.742 10
    endloop
  endfacet
  facet normal 0.163171 -0.986598 0
    outer loop
      vertex 36.199 19.354 10
      vertex 36.199 19.354 0
      vertex 38.545 19.742 10
    endloop
  endfacet
  facet normal 0.355677 -0.934609 0
    outer loop
      vertex 38.545 19.742 0
      vertex 42.568 21.273 0
      vertex 42.568 21.273 10
    endloop
  endfacet
  facet normal 0.355677 -0.934609 0
    outer loop
      vertex 38.545 19.742 10
      vertex 38.545 19.742 0
      vertex 42.568 21.273 10
    endloop
  endfacet
  facet normal 0.498171 -0.867079 0
    outer loop
      vertex 42.568 21.273 0
      vertex 46.7 23.647 0
      vertex 46.7 23.647 10
    endloop
  endfacet
  facet normal 0.498171 -0.867079 0
    outer loop
      vertex 42.568 21.273 10
      vertex 42.568 21.273 0
      vertex 46.7 23.647 10
    endloop
  endfacet
  facet normal 0.560848 -0.827919 0
    outer loop
      vertex 46.7 23.647 0
      vertex 49.924 25.831 0
      vertex 49.924 25.831 10
    endloop
  endfacet
  facet normal 0.560848 -0.827919 0
    outer loop
      vertex 46.7 23.647 10
      vertex 46.7 23.647 0
      vertex 49.924 25.831 10
    endloop
  endfacet
  facet normal 0.592946 -0.805242 0
    outer loop
      vertex 49.924 25.831 0
      vertex 51.225 26.789 0
      vertex 51.225 26.789 10
    endloop
  endfacet
  facet normal 0.592946 -0.805242 0
    outer loop
      vertex 49.924 25.831 10
      vertex 49.924 25.831 0
      vertex 51.225 26.789 10
    endloop
  endfacet
  facet normal 0.805186 -0.593023 0
    outer loop
      vertex 51.225 26.789 0
      vertex 51.798 27.567 0
      vertex 51.798 27.567 10
    endloop
  endfacet
  facet normal 0.805186 -0.593023 0
    outer loop
      vertex 51.225 26.789 10
      vertex 51.225 26.789 0
      vertex 51.798 27.567 10
    endloop
  endfacet
  facet normal 0.805549 -0.592529 0
    outer loop
      vertex 51.798 27.567 0
      vertex 52.371 28.346 0
      vertex 52.371 28.346 10
    endloop
  endfacet
  facet normal 0.805549 -0.592529 0
    outer loop
      vertex 51.798 27.567 10
      vertex 51.798 27.567 0
      vertex 52.371 28.346 10
    endloop
  endfacet
  facet normal 0.80568 -0.592351 0
    outer loop
      vertex 52.371 28.346 0
      vertex 52.943 29.124 0
      vertex 52.943 29.124 10
    endloop
  endfacet
  facet normal 0.80568 -0.592351 0
    outer loop
      vertex 52.371 28.346 10
      vertex 52.371 28.346 0
      vertex 52.943 29.124 10
    endloop
  endfacet
  facet normal 0.805549 -0.592529 0
    outer loop
      vertex 52.943 29.124 0
      vertex 53.516 29.903 0
      vertex 53.516 29.903 10
    endloop
  endfacet
  facet normal 0.805549 -0.592529 0
    outer loop
      vertex 52.943 29.124 10
      vertex 52.943 29.124 0
      vertex 53.516 29.903 10
    endloop
  endfacet
  facet normal 0.846006 -0.533174 0
    outer loop
      vertex 53.516 29.903 0
      vertex 54.104 30.836 0
      vertex 54.104 30.836 10
    endloop
  endfacet
  facet normal 0.846006 -0.533174 0
    outer loop
      vertex 53.516 29.903 10
      vertex 53.516 29.903 0
      vertex 54.104 30.836 10
    endloop
  endfacet
  facet normal 0.853245 -0.521511 0
    outer loop
      vertex 54.104 30.836 0
      vertex 55.489 33.102 0
      vertex 55.489 33.102 10
    endloop
  endfacet
  facet normal 0.853245 -0.521511 0
    outer loop
      vertex 54.104 30.836 10
      vertex 54.104 30.836 0
      vertex 55.489 33.102 10
    endloop
  endfacet
  facet normal 0.866083 -0.499901 0
    outer loop
      vertex 55.489 33.102 0
      vertex 57.104 35.9 0
      vertex 57.104 35.9 10
    endloop
  endfacet
  facet normal 0.866083 -0.499901 0
    outer loop
      vertex 55.489 33.102 10
      vertex 55.489 33.102 0
      vertex 57.104 35.9 10
    endloop
  endfacet
  facet normal 0.892727 -0.450598 0
    outer loop
      vertex 57.104 35.9 0
      vertex 58.381 38.43 0
      vertex 58.381 38.43 10
    endloop
  endfacet
  facet normal 0.892727 -0.450598 0
    outer loop
      vertex 57.104 35.9 10
      vertex 57.104 35.9 0
      vertex 58.381 38.43 10
    endloop
  endfacet
  facet normal 0.915815 -0.401599 0
    outer loop
      vertex 58.381 38.43 0
      vertex 60.189 42.553 0
      vertex 60.189 42.553 10
    endloop
  endfacet
  facet normal 0.915815 -0.401599 0
    outer loop
      vertex 58.381 38.43 10
      vertex 58.381 38.43 0
      vertex 60.189 42.553 10
    endloop
  endfacet
  facet normal 0.948328 -0.317293 0
    outer loop
      vertex 60.189 42.553 0
      vertex 61.976 47.894 0
      vertex 61.976 47.894 10
    endloop
  endfacet
  facet normal 0.948328 -0.317293 0
    outer loop
      vertex 60.189 42.553 10
      vertex 60.189 42.553 0
      vertex 61.976 47.894 10
    endloop
  endfacet
  facet normal 0.959084 -0.283121 0
    outer loop
      vertex 61.976 47.894 0
      vertex 63.341 52.518 0
      vertex 63.341 52.518 10
    endloop
  endfacet
  facet normal 0.959084 -0.283121 0
    outer loop
      vertex 61.976 47.894 10
      vertex 61.976 47.894 0
      vertex 63.341 52.518 10
    endloop
  endfacet
  facet normal 0.963958 -0.266054 0
    outer loop
      vertex 63.341 52.518 0
      vertex 63.885 54.489 0
      vertex 63.885 54.489 10
    endloop
  endfacet
  facet normal 0.963958 -0.266054 0
    outer loop
      vertex 63.341 52.518 10
      vertex 63.341 52.518 0
      vertex 63.885 54.489 10
    endloop
  endfacet
  facet normal 0.998891 -0.0470763 0
    outer loop
      vertex 63.885 54.489 0
      vertex 64.036 57.693 0
      vertex 64.036 57.693 10
    endloop
  endfacet
  facet normal 0.998891 -0.0470763 0
    outer loop
      vertex 63.885 54.489 10
      vertex 63.885 54.489 0
      vertex 64.036 57.693 10
    endloop
  endfacet
  facet normal 0.989039 -0.147653 0
    outer loop
      vertex 64.036 57.693 0
      vertex 64.54 61.069 0
      vertex 64.54 61.069 10
    endloop
  endfacet
  facet normal 0.989039 -0.147653 0
    outer loop
      vertex 64.036 57.693 10
      vertex 64.036 57.693 0
      vertex 64.54 61.069 10
    endloop
  endfacet
  facet normal 0.991765 -0.128069 0
    outer loop
      vertex 64.54 61.069 0
      vertex 64.954 64.275 0
      vertex 64.954 64.275 10
    endloop
  endfacet
  facet normal 0.991765 -0.128069 0
    outer loop
      vertex 64.54 61.069 10
      vertex 64.54 61.069 0
      vertex 64.954 64.275 10
    endloop
  endfacet
  facet normal 0.999598 -0.0283684 0
    outer loop
      vertex 64.954 64.275 0
      vertex 65.009 66.213 0
      vertex 65.009 66.213 10
    endloop
  endfacet
  facet normal 0.999598 -0.0283684 0
    outer loop
      vertex 64.954 64.275 10
      vertex 64.954 64.275 0
      vertex 65.009 66.213 10
    endloop
  endfacet
  facet normal 0.982122 0.188246 0
    outer loop
      vertex 64.475 68.999 0
      vertex 64.475 68.999 10
      vertex 65.009 66.213 10
    endloop
  endfacet
  facet normal 0.982122 0.188246 0
    outer loop
      vertex 65.009 66.213 0
      vertex 64.475 68.999 0
      vertex 65.009 66.213 10
    endloop
  endfacet
  facet normal 0.987409 0.158187 0
    outer loop
      vertex 63.909 72.532 0
      vertex 63.909 72.532 10
      vertex 64.475 68.999 10
    endloop
  endfacet
  facet normal 0.987409 0.158187 0
    outer loop
      vertex 64.475 68.999 0
      vertex 63.909 72.532 0
      vertex 64.475 68.999 10
    endloop
  endfacet
  facet normal 0.992321 0.123687 0
    outer loop
      vertex 63.559 75.34 0
      vertex 63.559 75.34 10
      vertex 63.909 72.532 10
    endloop
  endfacet
  facet normal 0.992321 0.123687 0
    outer loop
      vertex 63.909 72.532 0
      vertex 63.559 75.34 0
      vertex 63.909 72.532 10
    endloop
  endfacet
  facet normal 0.993983 0.109533 0
    outer loop
      vertex 63.385 76.919 0
      vertex 63.385 76.919 10
      vertex 63.559 75.34 10
    endloop
  endfacet
  facet normal 0.993983 0.109533 0
    outer loop
      vertex 63.559 75.34 0
      vertex 63.385 76.919 0
      vertex 63.559 75.34 10
    endloop
  endfacet
  facet normal 0.996628 0.0820469 0
    outer loop
      vertex 63.249 78.571 0
      vertex 63.249 78.571 10
      vertex 63.385 76.919 10
    endloop
  endfacet
  facet normal 0.996628 0.0820469 0
    outer loop
      vertex 63.385 76.919 0
      vertex 63.249 78.571 0
      vertex 63.385 76.919 10
    endloop
  endfacet
  facet normal 0.998265 0.0588848 0
    outer loop
      vertex 63.143 80.368 0
      vertex 63.143 80.368 10
      vertex 63.249 78.571 10
    endloop
  endfacet
  facet normal 0.998265 0.0588848 0
    outer loop
      vertex 63.249 78.571 0
      vertex 63.143 80.368 0
      vertex 63.249 78.571 10
    endloop
  endfacet
  facet normal 0.999009 0.0444993 0
    outer loop
      vertex 63.083 81.715 0
      vertex 63.083 81.715 10
      vertex 63.143 80.368 10
    endloop
  endfacet
  facet normal 0.999009 0.0444993 0
    outer loop
      vertex 63.143 80.368 0
      vertex 63.083 81.715 0
      vertex 63.143 80.368 10
    endloop
  endfacet
  facet normal 0.99779 0.0664455 0
    outer loop
      vertex 63.023 82.616 0
      vertex 63.023 82.616 10
      vertex 63.083 81.715 10
    endloop
  endfacet
  facet normal 0.99779 0.0664455 0
    outer loop
      vertex 63.083 81.715 0
      vertex 63.023 82.616 0
      vertex 63.083 81.715 10
    endloop
  endfacet
  facet normal 0.986027 0.166585 0
    outer loop
      vertex 62.64 84.883 0
      vertex 62.64 84.883 10
      vertex 63.023 82.616 10
    endloop
  endfacet
  facet normal 0.986027 0.166585 0
    outer loop
      vertex 63.023 82.616 0
      vertex 62.64 84.883 0
      vertex 63.023 82.616 10
    endloop
  endfacet
  facet normal 0.981012 0.193945 0
    outer loop
      vertex 61.97 88.272 0
      vertex 61.97 88.272 10
      vertex 62.64 84.883 10
    endloop
  endfacet
  facet normal 0.981012 0.193945 0
    outer loop
      vertex 62.64 84.883 0
      vertex 61.97 88.272 0
      vertex 62.64 84.883 10
    endloop
  endfacet
  facet normal 0.978131 0.207991 0
    outer loop
      vertex 61.314 91.357 0
      vertex 61.314 91.357 10
      vertex 61.97 88.272 10
    endloop
  endfacet
  facet normal 0.978131 0.207991 0
    outer loop
      vertex 61.97 88.272 0
      vertex 61.314 91.357 0
      vertex 61.97 88.272 10
    endloop
  endfacet
  facet normal 0.979889 0.199545 0
    outer loop
      vertex 60.956 93.115 0
      vertex 60.956 93.115 10
      vertex 61.314 91.357 10
    endloop
  endfacet
  facet normal 0.979889 0.199545 0
    outer loop
      vertex 61.314 91.357 0
      vertex 60.956 93.115 0
      vertex 61.314 91.357 10
    endloop
  endfacet
  facet normal 0.981499 0.191468 0
    outer loop
      vertex 60.639 94.74 0
      vertex 60.639 94.74 10
      vertex 60.956 93.115 10
    endloop
  endfacet
  facet normal 0.981499 0.191468 0
    outer loop
      vertex 60.956 93.115 0
      vertex 60.639 94.74 0
      vertex 60.956 93.115 10
    endloop
  endfacet
  facet normal 0.971461 0.237198 0
    outer loop
      vertex 60.21 96.497 0
      vertex 60.21 96.497 10
      vertex 60.639 94.74 10
    endloop
  endfacet
  facet normal 0.971461 0.237198 0
    outer loop
      vertex 60.639 94.74 0
      vertex 60.21 96.497 0
      vertex 60.639 94.74 10
    endloop
  endfacet
  facet normal 0.953245 0.302199 0
    outer loop
      vertex 59.763 97.907 0
      vertex 59.763 97.907 10
      vertex 60.21 96.497 10
    endloop
  endfacet
  facet normal 0.953245 0.302199 0
    outer loop
      vertex 60.21 96.497 0
      vertex 59.763 97.907 0
      vertex 60.21 96.497 10
    endloop
  endfacet
  facet normal 0.949766 0.31296 0
    outer loop
      vertex 59.418 98.954 0
      vertex 59.418 98.954 10
      vertex 59.763 97.907 10
    endloop
  endfacet
  facet normal 0.949766 0.31296 0
    outer loop
      vertex 59.763 97.907 0
      vertex 59.418 98.954 0
      vertex 59.763 97.907 10
    endloop
  endfacet
  facet normal 0.969068 0.246793 0
    outer loop
      vertex 58.75 101.577 0
      vertex 58.75 101.577 10
      vertex 59.418 98.954 10
    endloop
  endfacet
  facet normal 0.969068 0.246793 0
    outer loop
      vertex 59.418 98.954 0
      vertex 58.75 101.577 0
      vertex 59.418 98.954 10
    endloop
  endfacet
  facet normal 0.976784 0.214226 0
    outer loop
      vertex 57.869 105.594 0
      vertex 57.869 105.594 10
      vertex 58.75 101.577 10
    endloop
  endfacet
  facet normal 0.976784 0.214226 0
    outer loop
      vertex 58.75 101.577 0
      vertex 57.869 105.594 0
      vertex 58.75 101.577 10
    endloop
  endfacet
  facet normal 0.980359 0.197221 0
    outer loop
      vertex 57.011 109.859 0
      vertex 57.011 109.859 10
      vertex 57.869 105.594 10
    endloop
  endfacet
  facet normal 0.980359 0.197221 0
    outer loop
      vertex 57.869 105.594 0
      vertex 57.011 109.859 0
      vertex 57.869 105.594 10
    endloop
  endfacet
  facet normal 0.977868 0.209224 0
    outer loop
      vertex 56.027 114.458 0
      vertex 56.027 114.458 10
      vertex 57.011 109.859 10
    endloop
  endfacet
  facet normal 0.977868 0.209224 0
    outer loop
      vertex 57.011 109.859 0
      vertex 56.027 114.458 0
      vertex 57.011 109.859 10
    endloop
  endfacet
  facet normal 0.981522 0.19135 0
    outer loop
      vertex 55.27 118.341 0
      vertex 55.27 118.341 10
      vertex 56.027 114.458 10
    endloop
  endfacet
  facet normal 0.981522 0.19135 0
    outer loop
      vertex 56.027 114.458 0
      vertex 55.27 118.341 0
      vertex 56.027 114.458 10
    endloop
  endfacet
  facet normal 0.968416 0.249338 0
    outer loop
      vertex 54.348 121.922 0
      vertex 54.348 121.922 10
      vertex 55.27 118.341 10
    endloop
  endfacet
  facet normal 0.968416 0.249338 0
    outer loop
      vertex 55.27 118.341 0
      vertex 54.348 121.922 0
      vertex 55.27 118.341 10
    endloop
  endfacet
  facet normal 0.963237 0.268654 0
    outer loop
      vertex 53.388 125.364 0
      vertex 53.388 125.364 10
      vertex 54.348 121.922 10
    endloop
  endfacet
  facet normal 0.963237 0.268654 0
    outer loop
      vertex 54.348 121.922 0
      vertex 53.388 125.364 0
      vertex 54.348 121.922 10
    endloop
  endfacet
  facet normal 0.969829 0.243787 0
    outer loop
      vertex 52.517 128.829 0
      vertex 52.517 128.829 10
      vertex 53.388 125.364 10
    endloop
  endfacet
  facet normal 0.969829 0.243787 0
    outer loop
      vertex 53.388 125.364 0
      vertex 52.517 128.829 0
      vertex 53.388 125.364 10
    endloop
  endfacet
  facet normal 0.964526 0.263987 0
    outer loop
      vertex 51.798 131.456 0
      vertex 51.798 131.456 10
      vertex 52.517 128.829 10
    endloop
  endfacet
  facet normal 0.964526 0.263987 0
    outer loop
      vertex 52.517 128.829 0
      vertex 51.798 131.456 0
      vertex 52.517 128.829 10
    endloop
  endfacet
  facet normal 0.949972 0.312335 0
    outer loop
      vertex 50.955 134.02 0
      vertex 50.955 134.02 10
      vertex 51.798 131.456 10
    endloop
  endfacet
  facet normal 0.949972 0.312335 0
    outer loop
      vertex 51.798 131.456 0
      vertex 50.955 134.02 0
      vertex 51.798 131.456 10
    endloop
  endfacet
  facet normal 0.961874 0.273492 0
    outer loop
      vertex 50.22 136.605 0
      vertex 50.22 136.605 10
      vertex 50.955 134.02 10
    endloop
  endfacet
  facet normal 0.961874 0.273492 0
    outer loop
      vertex 50.955 134.02 0
      vertex 50.22 136.605 0
      vertex 50.955 134.02 10
    endloop
  endfacet
  facet normal 0.989661 0.143429 0
    outer loop
      vertex 49.83 139.296 0
      vertex 49.83 139.296 10
      vertex 50.22 136.605 10
    endloop
  endfacet
  facet normal 0.989661 0.143429 0
    outer loop
      vertex 50.22 136.605 0
      vertex 49.83 139.296 0
      vertex 50.22 136.605 10
    endloop
  endfacet
  facet normal 0.968156 0.250348 0
    outer loop
      vertex 49.25 141.539 0
      vertex 49.25 141.539 10
      vertex 49.83 139.296 10
    endloop
  endfacet
  facet normal 0.968156 0.250348 0
    outer loop
      vertex 49.83 139.296 0
      vertex 49.25 141.539 0
      vertex 49.83 139.296 10
    endloop
  endfacet
  facet normal 0.815188 -0.579197 0
    outer loop
      vertex 49.25 141.539 0
      vertex 50.244 142.938 0
      vertex 50.244 142.938 10
    endloop
  endfacet
  facet normal 0.815188 -0.579197 0
    outer loop
      vertex 49.25 141.539 10
      vertex 49.25 141.539 0
      vertex 50.244 142.938 10
    endloop
  endfacet
  facet normal -0.20857 0.978007 0
    outer loop
      vertex 24.543 137.457 10
      vertex 50.244 142.938 10
      vertex 24.543 137.457 0
    endloop
  endfacet
  facet normal -0.20857 0.978007 0
    outer loop
      vertex 24.543 137.457 0
      vertex 50.244 142.938 10
      vertex 50.244 142.938 0
    endloop
  endfacet
  facet normal -0.770366 -0.637602 0
    outer loop
      vertex 27.242 134.196 0
      vertex 27.242 134.196 10
      vertex 24.543 137.457 0
    endloop
  endfacet
  facet normal -0.770366 -0.637602 0
    outer loop
      vertex 24.543 137.457 0
      vertex 27.242 134.196 10
      vertex 24.543 137.457 10
    endloop
  endfacet
  facet normal -0.947514 -0.319713 0
    outer loop
      vertex 28.727 129.795 0
      vertex 28.727 129.795 10
      vertex 27.242 134.196 0
    endloop
  endfacet
  facet normal -0.947514 -0.319713 0
    outer loop
      vertex 27.242 134.196 0
      vertex 28.727 129.795 10
      vertex 27.242 134.196 10
    endloop
  endfacet
  facet normal -0.984739 -0.17404 0
    outer loop
      vertex 29.584 124.946 0
      vertex 29.584 124.946 10
      vertex 28.727 129.795 0
    endloop
  endfacet
  facet normal -0.984739 -0.17404 0
    outer loop
      vertex 28.727 129.795 0
      vertex 29.584 124.946 10
      vertex 28.727 129.795 10
    endloop
  endfacet
  facet normal -0.984661 -0.174481 0
    outer loop
      vertex 30.4 120.341 0
      vertex 30.4 120.341 10
      vertex 29.584 124.946 0
    endloop
  endfacet
  facet normal -0.984661 -0.174481 0
    outer loop
      vertex 29.584 124.946 0
      vertex 30.4 120.341 10
      vertex 29.584 124.946 10
    endloop
  endfacet
  facet normal -0.908836 -0.417153 0
    outer loop
      vertex 31.581 117.768 0
      vertex 31.581 117.768 10
      vertex 30.4 120.341 0
    endloop
  endfacet
  facet normal -0.908836 -0.417153 0
    outer loop
      vertex 30.4 120.341 0
      vertex 31.581 117.768 10
      vertex 30.4 120.341 10
    endloop
  endfacet
  facet normal -0.948469 -0.316871 0
    outer loop
      vertex 32.468 115.113 0
      vertex 32.468 115.113 10
      vertex 31.581 117.768 0
    endloop
  endfacet
  facet normal -0.948469 -0.316871 0
    outer loop
      vertex 31.581 117.768 0
      vertex 32.468 115.113 10
      vertex 31.581 117.768 10
    endloop
  endfacet
  facet normal -0.976846 -0.213942 0
    outer loop
      vertex 33.067 112.378 0
      vertex 33.067 112.378 10
      vertex 32.468 115.113 0
    endloop
  endfacet
  facet normal -0.976846 -0.213942 0
    outer loop
      vertex 32.468 115.113 0
      vertex 33.067 112.378 10
      vertex 32.468 115.113 10
    endloop
  endfacet
  facet normal -0.993636 -0.11264 0
    outer loop
      vertex 33.386 109.564 0
      vertex 33.386 109.564 10
      vertex 33.067 112.378 0
    endloop
  endfacet
  facet normal -0.993636 -0.11264 0
    outer loop
      vertex 33.067 112.378 0
      vertex 33.386 109.564 10
      vertex 33.067 112.378 10
    endloop
  endfacet
  facet normal -0.968134 -0.250431 0
    outer loop
      vertex 34.303 106.019 0
      vertex 34.303 106.019 10
      vertex 33.386 109.564 0
    endloop
  endfacet
  facet normal -0.968134 -0.250431 0
    outer loop
      vertex 33.386 109.564 0
      vertex 34.303 106.019 10
      vertex 33.386 109.564 10
    endloop
  endfacet
  facet normal -0.951296 -0.308278 0
    outer loop
      vertex 35.433 102.532 0
      vertex 35.433 102.532 10
      vertex 34.303 106.019 0
    endloop
  endfacet
  facet normal -0.951296 -0.308278 0
    outer loop
      vertex 34.303 106.019 0
      vertex 35.433 102.532 10
      vertex 34.303 106.019 10
    endloop
  endfacet
  facet normal -0.956335 -0.292274 0
    outer loop
      vertex 36.51 99.008 0
      vertex 36.51 99.008 10
      vertex 35.433 102.532 0
    endloop
  endfacet
  facet normal -0.956335 -0.292274 0
    outer loop
      vertex 35.433 102.532 0
      vertex 36.51 99.008 10
      vertex 35.433 102.532 10
    endloop
  endfacet
  facet normal -0.979368 -0.202083 0
    outer loop
      vertex 37.265 95.349 0
      vertex 37.265 95.349 10
      vertex 36.51 99.008 0
    endloop
  endfacet
  facet normal -0.979368 -0.202083 0
    outer loop
      vertex 36.51 99.008 0
      vertex 37.265 95.349 10
      vertex 36.51 99.008 10
    endloop
  endfacet
  facet normal -0.983676 -0.179947 0
    outer loop
      vertex 37.638 93.31 0
      vertex 37.638 93.31 10
      vertex 37.265 95.349 0
    endloop
  endfacet
  facet normal -0.983676 -0.179947 0
    outer loop
      vertex 37.265 95.349 0
      vertex 37.638 93.31 10
      vertex 37.265 95.349 10
    endloop
  endfacet
  facet normal -0.968474 -0.249116 0
    outer loop
      vertex 38.172 91.234 0
      vertex 38.172 91.234 10
      vertex 37.638 93.31 0
    endloop
  endfacet
  facet normal -0.968474 -0.249116 0
    outer loop
      vertex 37.638 93.31 0
      vertex 38.172 91.234 10
      vertex 37.638 93.31 10
    endloop
  endfacet
  facet normal -0.975335 -0.220729 0
    outer loop
      vertex 38.621 89.25 0
      vertex 38.621 89.25 10
      vertex 38.172 91.234 0
    endloop
  endfacet
  facet normal -0.975335 -0.220729 0
    outer loop
      vertex 38.172 91.234 0
      vertex 38.621 89.25 10
      vertex 38.172 91.234 10
    endloop
  endfacet
  facet normal -0.99773 -0.0673453 0
    outer loop
      vertex 38.74 87.487 0
      vertex 38.74 87.487 10
      vertex 38.621 89.25 0
    endloop
  endfacet
  facet normal -0.99773 -0.0673453 0
    outer loop
      vertex 38.621 89.25 0
      vertex 38.74 87.487 10
      vertex 38.621 89.25 10
    endloop
  endfacet
  facet normal -0.927196 -0.374576 0
    outer loop
      vertex 40.543 83.024 0
      vertex 40.543 83.024 10
      vertex 38.74 87.487 0
    endloop
  endfacet
  facet normal -0.927196 -0.374576 0
    outer loop
      vertex 38.74 87.487 0
      vertex 40.543 83.024 10
      vertex 38.74 87.487 10
    endloop
  endfacet
  facet normal -0.971475 -0.237143 0
    outer loop
      vertex 41.682 78.358 0
      vertex 41.682 78.358 10
      vertex 40.543 83.024 0
    endloop
  endfacet
  facet normal -0.971475 -0.237143 0
    outer loop
      vertex 40.543 83.024 0
      vertex 41.682 78.358 10
      vertex 40.543 83.024 10
    endloop
  endfacet
  facet normal -0.979724 -0.200351 0
    outer loop
      vertex 42.646 73.644 0
      vertex 42.646 73.644 10
      vertex 41.682 78.358 0
    endloop
  endfacet
  facet normal -0.979724 -0.200351 0
    outer loop
      vertex 41.682 78.358 0
      vertex 42.646 73.644 10
      vertex 41.682 78.358 10
    endloop
  endfacet
  facet normal -0.963659 -0.267136 0
    outer loop
      vertex 43.922 69.041 0
      vertex 43.922 69.041 10
      vertex 42.646 73.644 0
    endloop
  endfacet
  facet normal -0.963659 -0.267136 0
    outer loop
      vertex 42.646 73.644 0
      vertex 43.922 69.041 10
      vertex 42.646 73.644 10
    endloop
  endfacet
  facet normal -0.995598 0.0937294 0
    outer loop
      vertex 43.668 66.343 10
      vertex 43.922 69.041 10
      vertex 43.668 66.343 0
    endloop
  endfacet
  facet normal -0.995598 0.0937294 0
    outer loop
      vertex 43.668 66.343 0
      vertex 43.922 69.041 10
      vertex 43.922 69.041 0
    endloop
  endfacet
  facet normal -0.999838 0.0179746 0
    outer loop
      vertex 43.62 63.673 10
      vertex 43.668 66.343 10
      vertex 43.62 63.673 0
    endloop
  endfacet
  facet normal -0.999838 0.0179746 0
    outer loop
      vertex 43.62 63.673 0
      vertex 43.668 66.343 10
      vertex 43.668 66.343 0
    endloop
  endfacet
  facet normal -0.999502 -0.0315514 0
    outer loop
      vertex 43.704 61.012 0
      vertex 43.704 61.012 10
      vertex 43.62 63.673 0
    endloop
  endfacet
  facet normal -0.999502 -0.0315514 0
    outer loop
      vertex 43.62 63.673 0
      vertex 43.704 61.012 10
      vertex 43.62 63.673 10
    endloop
  endfacet
  facet normal -0.998588 -0.0531283 0
    outer loop
      vertex 43.846 58.343 0
      vertex 43.846 58.343 10
      vertex 43.704 61.012 0
    endloop
  endfacet
  facet normal -0.998588 -0.0531283 0
    outer loop
      vertex 43.704 61.012 0
      vertex 43.846 58.343 10
      vertex 43.704 61.012 10
    endloop
  endfacet
  facet normal -0.992348 -0.123476 0
    outer loop
      vertex 44.227 55.281 0
      vertex 44.227 55.281 10
      vertex 43.846 58.343 0
    endloop
  endfacet
  facet normal -0.992348 -0.123476 0
    outer loop
      vertex 43.846 58.343 0
      vertex 44.227 55.281 10
      vertex 43.846 58.343 10
    endloop
  endfacet
  facet normal -0.999391 0.0349063 0
    outer loop
      vertex 44.116 52.103 10
      vertex 44.227 55.281 10
      vertex 44.116 52.103 0
    endloop
  endfacet
  facet normal -0.999391 0.0349063 0
    outer loop
      vertex 44.116 52.103 0
      vertex 44.227 55.281 10
      vertex 44.227 55.281 0
    endloop
  endfacet
  facet normal -0.995956 0.0898469 0
    outer loop
      vertex 43.822 48.844 10
      vertex 44.116 52.103 10
      vertex 43.822 48.844 0
    endloop
  endfacet
  facet normal -0.995956 0.0898469 0
    outer loop
      vertex 43.822 48.844 0
      vertex 44.116 52.103 10
      vertex 44.116 52.103 0
    endloop
  endfacet
  facet normal -0.99874 0.0501788 0
    outer loop
      vertex 43.656 45.54 10
      vertex 43.822 48.844 10
      vertex 43.656 45.54 0
    endloop
  endfacet
  facet normal -0.99874 0.0501788 0
    outer loop
      vertex 43.656 45.54 0
      vertex 43.822 48.844 10
      vertex 43.822 48.844 0
    endloop
  endfacet
  facet normal -0.99062 0.136645 0
    outer loop
      vertex 43.019 40.922 10
      vertex 43.656 45.54 10
      vertex 43.019 40.922 0
    endloop
  endfacet
  facet normal -0.99062 0.136645 0
    outer loop
      vertex 43.019 40.922 0
      vertex 43.656 45.54 10
      vertex 43.656 45.54 0
    endloop
  endfacet
  facet normal -0.979966 0.199164 0
    outer loop
      vertex 42.102 36.41 10
      vertex 43.019 40.922 10
      vertex 42.102 36.41 0
    endloop
  endfacet
  facet normal -0.979966 0.199164 0
    outer loop
      vertex 42.102 36.41 0
      vertex 43.019 40.922 10
      vertex 43.019 40.922 0
    endloop
  endfacet
  facet normal -0.9548 0.297249 0
    outer loop
      vertex 40.782 32.17 10
      vertex 42.102 36.41 10
      vertex 40.782 32.17 0
    endloop
  endfacet
  facet normal -0.9548 0.297249 0
    outer loop
      vertex 40.782 32.17 0
      vertex 42.102 36.41 10
      vertex 42.102 36.41 0
    endloop
  endfacet
  facet normal -0.900129 0.435623 0
    outer loop
      vertex 38.942 28.368 10
      vertex 40.782 32.17 10
      vertex 38.942 28.368 0
    endloop
  endfacet
  facet normal -0.900129 0.435623 0
    outer loop
      vertex 38.942 28.368 0
      vertex 40.782 32.17 10
      vertex 40.782 32.17 0
    endloop
  endfacet
  facet normal -0.601219 0.799085 0
    outer loop
      vertex 36.111 26.238 10
      vertex 38.942 28.368 10
      vertex 36.111 26.238 0
    endloop
  endfacet
  facet normal -0.601219 0.799085 0
    outer loop
      vertex 36.111 26.238 0
      vertex 38.942 28.368 10
      vertex 38.942 28.368 0
    endloop
  endfacet
  facet normal -0.265728 0.964048 0
    outer loop
      vertex 32.737 25.308 10
      vertex 36.111 26.238 10
      vertex 32.737 25.308 0
    endloop
  endfacet
  facet normal -0.265728 0.964048 0
    outer loop
      vertex 32.737 25.308 0
      vertex 36.111 26.238 10
      vertex 36.111 26.238 0
    endloop
  endfacet
  facet normal -0.0245529 0.999699 0
    outer loop
      vertex 29.439 25.227 10
      vertex 32.737 25.308 10
      vertex 29.439 25.227 0
    endloop
  endfacet
  facet normal -0.0245529 0.999699 0
    outer loop
      vertex 29.439 25.227 0
      vertex 32.737 25.308 10
      vertex 32.737 25.308 0
    endloop
  endfacet
  facet normal 0.121953 0.992536 0
    outer loop
      vertex 27.502 25.465 10
      vertex 29.439 25.227 10
      vertex 27.502 25.465 0
    endloop
  endfacet
  facet normal 0.121953 0.992536 0
    outer loop
      vertex 27.502 25.465 0
      vertex 29.439 25.227 10
      vertex 29.439 25.227 0
    endloop
  endfacet
  facet normal 0.269319 0.963051 0
    outer loop
      vertex 25.664 25.979 10
      vertex 27.502 25.465 10
      vertex 25.664 25.979 0
    endloop
  endfacet
  facet normal 0.269319 0.963051 0
    outer loop
      vertex 25.664 25.979 0
      vertex 27.502 25.465 10
      vertex 27.502 25.465 0
    endloop
  endfacet
  facet normal 0.286614 0.958046 0
    outer loop
      vertex 23.986 26.481 10
      vertex 25.664 25.979 10
      vertex 23.986 26.481 0
    endloop
  endfacet
  facet normal 0.286614 0.958046 0
    outer loop
      vertex 23.986 26.481 0
      vertex 25.664 25.979 10
      vertex 25.664 25.979 0
    endloop
  endfacet
  facet normal 0.350586 0.936531 0
    outer loop
      vertex 23.222 26.767 10
      vertex 23.986 26.481 10
      vertex 23.222 26.767 0
    endloop
  endfacet
  facet normal 0.350586 0.936531 0
    outer loop
      vertex 23.222 26.767 0
      vertex 23.986 26.481 10
      vertex 23.986 26.481 0
    endloop
  endfacet
  facet normal 0.440338 0.897832 0
    outer loop
      vertex 22.908 26.921 10
      vertex 23.222 26.767 10
      vertex 22.908 26.921 0
    endloop
  endfacet
  facet normal 0.440338 0.897832 0
    outer loop
      vertex 22.908 26.921 0
      vertex 23.222 26.767 10
      vertex 23.222 26.767 0
    endloop
  endfacet
  facet normal 0.67132 0.741168 0
    outer loop
      vertex 22.526 27.267 10
      vertex 22.908 26.921 10
      vertex 22.526 27.267 0
    endloop
  endfacet
  facet normal 0.67132 0.741168 0
    outer loop
      vertex 22.526 27.267 0
      vertex 22.908 26.921 10
      vertex 22.908 26.921 0
    endloop
  endfacet
  facet normal 0.781613 0.623763 0
    outer loop
      vertex 22.036 27.881 0
      vertex 22.036 27.881 10
      vertex 22.526 27.267 10
    endloop
  endfacet
  facet normal 0.781613 0.623763 0
    outer loop
      vertex 22.526 27.267 0
      vertex 22.036 27.881 0
      vertex 22.526 27.267 10
    endloop
  endfacet
  facet normal 0.874595 0.484855 0
    outer loop
      vertex 21.618 28.635 0
      vertex 21.618 28.635 10
      vertex 22.036 27.881 10
    endloop
  endfacet
  facet normal 0.874595 0.484855 0
    outer loop
      vertex 22.036 27.881 0
      vertex 21.618 28.635 0
      vertex 22.036 27.881 10
    endloop
  endfacet
  facet normal 0.92177 0.387737 0
    outer loop
      vertex 21.239 29.536 0
      vertex 21.239 29.536 10
      vertex 21.618 28.635 10
    endloop
  endfacet
  facet normal 0.92177 0.387737 0
    outer loop
      vertex 21.618 28.635 0
      vertex 21.239 29.536 0
      vertex 21.618 28.635 10
    endloop
  endfacet
  facet normal 0.9623 0.271989 0
    outer loop
      vertex 20.029 33.817 0
      vertex 20.029 33.817 10
      vertex 21.239 29.536 10
    endloop
  endfacet
  facet normal 0.9623 0.271989 0
    outer loop
      vertex 21.239 29.536 0
      vertex 20.029 33.817 0
      vertex 21.239 29.536 10
    endloop
  endfacet
  facet normal 0.974448 -0.224615 0
    outer loop
      vertex 23.911 45.52 0
      vertex 24.381 47.559 0
      vertex 24.381 47.559 10
    endloop
  endfacet
  facet normal 0.974448 -0.224615 0
    outer loop
      vertex 23.911 45.52 10
      vertex 23.911 45.52 0
      vertex 24.381 47.559 10
    endloop
  endfacet
  facet normal 0.0968625 0.995298 0
    outer loop
      vertex 22.963 47.697 10
      vertex 24.381 47.559 10
      vertex 22.963 47.697 0
    endloop
  endfacet
  facet normal 0.0968625 0.995298 0
    outer loop
      vertex 22.963 47.697 0
      vertex 24.381 47.559 10
      vertex 24.381 47.559 0
    endloop
  endfacet
  facet normal -0.319349 0.947637 0
    outer loop
      vertex 20.687 46.93 10
      vertex 22.963 47.697 10
      vertex 20.687 46.93 0
    endloop
  endfacet
  facet normal -0.319349 0.947637 0
    outer loop
      vertex 20.687 46.93 0
      vertex 22.963 47.697 10
      vertex 22.963 47.697 0
    endloop
  endfacet
  facet normal -0.307096 0.951679 0
    outer loop
      vertex 18.589 46.253 10
      vertex 20.687 46.93 10
      vertex 18.589 46.253 0
    endloop
  endfacet
  facet normal -0.307096 0.951679 0
    outer loop
      vertex 18.589 46.253 0
      vertex 20.687 46.93 10
      vertex 20.687 46.93 0
    endloop
  endfacet
  facet normal -0.527556 0.84952 0
    outer loop
      vertex 15.523 44.349 10
      vertex 18.589 46.253 10
      vertex 15.523 44.349 0
    endloop
  endfacet
  facet normal -0.527556 0.84952 0
    outer loop
      vertex 15.523 44.349 0
      vertex 18.589 46.253 10
      vertex 18.589 46.253 0
    endloop
  endfacet
  facet normal -0.858799 0.512312 0
    outer loop
      vertex 13.762 41.397 10
      vertex 15.523 44.349 10
      vertex 13.762 41.397 0
    endloop
  endfacet
  facet normal -0.858799 0.512312 0
    outer loop
      vertex 13.762 41.397 0
      vertex 15.523 44.349 10
      vertex 15.523 44.349 0
    endloop
  endfacet
  facet normal -0.972981 0.230886 0
    outer loop
      vertex 12.926 37.874 10
      vertex 13.762 41.397 10
      vertex 12.926 37.874 0
    endloop
  endfacet
  facet normal -0.972981 0.230886 0
    outer loop
      vertex 12.926 37.874 0
      vertex 13.762 41.397 10
      vertex 13.762 41.397 0
    endloop
  endfacet
endsolid OpenSCAD_Model
